<svg height="480pt" viewBox="0 0 480 480" width="480pt" xmlns="http://www.w3.org/2000/svg"><g fill="#57a4ff"><path d="m72 384c0 13.253906-10.746094 24-24 24s-24-10.746094-24-24 10.746094-24 24-24 24 10.746094 24 24zm0 0"/><path d="m160 192c0 13.253906-10.746094 24-24 24s-24-10.746094-24-24 10.746094-24 24-24 24 10.746094 24 24zm0 0"/><path d="m456 384c0 13.253906-10.746094 24-24 24s-24-10.746094-24-24 10.746094-24 24-24 24 10.746094 24 24zm0 0"/><path d="m280 112c0-22.089844-17.910156-40-40-40s-40 17.910156-40 40v8h80zm0 0"/><path d="m472 464c0-22.089844-17.910156-40-40-40s-40 17.910156-40 40v8h80zm0 0"/><path d="m264 32c0 13.253906-10.746094 24-24 24s-24-10.746094-24-24 10.746094-24 24-24 24 10.746094 24 24zm0 0"/><path d="m176 272c0-22.089844-17.910156-40-40-40s-40 17.910156-40 40v8h80zm0 0"/><path d="m8 472h80v-8c0-22.089844-17.910156-40-40-40s-40 17.910156-40 40zm0 0"/><path d="m200 472h80v-8c0-22.089844-17.910156-40-40-40s-40 17.910156-40 40zm0 0"/><path d="m264 384c0 13.253906-10.746094 24-24 24s-24-10.746094-24-24 10.746094-24 24-24 24 10.746094 24 24zm0 0"/><path d="m368 192c0 13.253906-10.746094 24-24 24s-24-10.746094-24-24 10.746094-24 24-24 24 10.746094 24 24zm0 0"/><path d="m384 272c0-22.089844-17.910156-40-40-40s-40 17.910156-40 40v8h80zm0 0"/><path d="m176 272c0-22.089844-17.910156-40-40-40s-40 17.910156-40 40v8h80zm0 0"/><path d="m264 32c0 13.253906-10.746094 24-24 24s-24-10.746094-24-24 10.746094-24 24-24 24 10.746094 24 24zm0 0"/><path d="m72 384c0 13.253906-10.746094 24-24 24s-24-10.746094-24-24 10.746094-24 24-24 24 10.746094 24 24zm0 0"/><path d="m160 192c0 13.253906-10.746094 24-24 24s-24-10.746094-24-24 10.746094-24 24-24 24 10.746094 24 24zm0 0"/><path d="m264 384c0 13.253906-10.746094 24-24 24s-24-10.746094-24-24 10.746094-24 24-24 24 10.746094 24 24zm0 0"/><path d="m280 112c0-22.089844-17.910156-40-40-40s-40 17.910156-40 40v8h80zm0 0"/><path d="m200 472h80v-8c0-22.089844-17.910156-40-40-40s-40 17.910156-40 40zm0 0"/><path d="m472 464c0-22.089844-17.910156-40-40-40s-40 17.910156-40 40v8h80zm0 0"/><path d="m456 384c0 13.253906-10.746094 24-24 24s-24-10.746094-24-24 10.746094-24 24-24 24 10.746094 24 24zm0 0"/><path d="m8 472h80v-8c0-22.089844-17.910156-40-40-40s-40 17.910156-40 40zm0 0"/><path d="m384 272c0-22.089844-17.910156-40-40-40s-40 17.910156-40 40v8h80zm0 0"/><path d="m368 192c0 13.253906-10.746094 24-24 24s-24-10.746094-24-24 10.746094-24 24-24 24 10.746094 24 24zm0 0"/><path d="m264 32c0 13.253906-10.746094 24-24 24s-24-10.746094-24-24 10.746094-24 24-24 24 10.746094 24 24zm0 0"/><path d="m280 112c0-22.089844-17.910156-40-40-40s-40 17.910156-40 40v8h80zm0 0"/><path d="m160 192c0 13.253906-10.746094 24-24 24s-24-10.746094-24-24 10.746094-24 24-24 24 10.746094 24 24zm0 0"/><path d="m176 272c0-22.089844-17.910156-40-40-40s-40 17.910156-40 40v8h80zm0 0"/><path d="m72 384c0 13.253906-10.746094 24-24 24s-24-10.746094-24-24 10.746094-24 24-24 24 10.746094 24 24zm0 0"/><path d="m88 464c0-22.089844-17.910156-40-40-40s-40 17.910156-40 40v8h80zm0 0"/><path d="m264 384c0 13.253906-10.746094 24-24 24s-24-10.746094-24-24 10.746094-24 24-24 24 10.746094 24 24zm0 0"/><path d="m200 472h80v-8c0-22.089844-17.910156-40-40-40s-40 17.910156-40 40zm0 0"/><path d="m456 384c0 13.253906-10.746094 24-24 24s-24-10.746094-24-24 10.746094-24 24-24 24 10.746094 24 24zm0 0"/><path d="m472 464c0-22.089844-17.910156-40-40-40s-40 17.910156-40 40v8h80zm0 0"/><path d="m368 192c0 13.253906-10.746094 24-24 24s-24-10.746094-24-24 10.746094-24 24-24 24 10.746094 24 24zm0 0"/><path d="m384 272c0-22.089844-17.910156-40-40-40s-40 17.910156-40 40v8h80zm0 0"/></g><path d="m272 32c0-17.671875-14.328125-32-32-32s-32 14.328125-32 32 14.328125 32 32 32 32-14.328125 32-32zm-32 16c-8.835938 0-16-7.164062-16-16s7.164062-16 16-16 16 7.164062 16 16-7.164062 16-16 16zm0 0" fill="#1e81ce"/><path d="m240 64c-26.5.027344-47.972656 21.5-48 48v8c0 4.417969 3.582031 8 8 8h80c4.417969 0 8-3.582031 8-8v-8c-.027344-26.5-21.5-47.972656-48-48zm-32 48c0-17.671875 14.328125-32 32-32s32 14.328125 32 32zm0 0" fill="#1e81ce"/><path d="m168 192c0-17.671875-14.328125-32-32-32s-32 14.328125-32 32 14.328125 32 32 32 32-14.328125 32-32zm-32 16c-8.835938 0-16-7.164062-16-16s7.164062-16 16-16 16 7.164062 16 16-7.164062 16-16 16zm0 0" fill="#1e81ce"/><path d="m136 224c-26.5.027344-47.972656 21.5-48 48v8c0 4.417969 3.582031 8 8 8h80c4.417969 0 8-3.582031 8-8v-8c-.027344-26.5-21.5-47.972656-48-48zm-32 48c0-17.671875 14.328125-32 32-32s32 14.328125 32 32zm0 0" fill="#1e81ce"/><path d="m80 384c0-17.671875-14.328125-32-32-32s-32 14.328125-32 32 14.328125 32 32 32 32-14.328125 32-32zm-32 16c-8.835938 0-16-7.164062-16-16s7.164062-16 16-16 16 7.164062 16 16-7.164062 16-16 16zm0 0" fill="#1e81ce"/><path d="m48 416c-26.5.027344-47.9726562 21.5-48 48v8c0 4.417969 3.582031 8 8 8h80c4.417969 0 8-3.582031 8-8v-8c-.027344-26.5-21.5-47.972656-48-48zm-32 48c0-17.671875 14.328125-32 32-32s32 14.328125 32 32zm0 0" fill="#1e81ce"/><path d="m272 384c0-17.671875-14.328125-32-32-32s-32 14.328125-32 32 14.328125 32 32 32 32-14.328125 32-32zm-32 16c-8.835938 0-16-7.164062-16-16s7.164062-16 16-16 16 7.164062 16 16-7.164062 16-16 16zm0 0" fill="#1e81ce"/><path d="m240 416c-26.5.027344-47.972656 21.5-48 48v8c0 4.417969 3.582031 8 8 8h80c4.417969 0 8-3.582031 8-8v-8c-.027344-26.5-21.5-47.972656-48-48zm-32 48c0-17.671875 14.328125-32 32-32s32 14.328125 32 32zm0 0" fill="#1e81ce"/><path d="m464 384c0-17.671875-14.328125-32-32-32s-32 14.328125-32 32 14.328125 32 32 32 32-14.328125 32-32zm-32 16c-8.835938 0-16-7.164062-16-16s7.164062-16 16-16 16 7.164062 16 16-7.164062 16-16 16zm0 0" fill="#1e81ce"/><path d="m432 416c-26.5.027344-47.972656 21.5-48 48v8c0 4.417969 3.582031 8 8 8h80c4.417969 0 8-3.582031 8-8v-8c-.027344-26.5-21.5-47.972656-48-48zm-32 48c0-17.671875 14.328125-32 32-32s32 14.328125 32 32zm0 0" fill="#1e81ce"/><path d="m376 192c0-17.671875-14.328125-32-32-32s-32 14.328125-32 32 14.328125 32 32 32 32-14.328125 32-32zm-32 16c-8.835938 0-16-7.164062-16-16s7.164062-16 16-16 16 7.164062 16 16-7.164062 16-16 16zm0 0" fill="#1e81ce"/><path d="m384 288c4.417969 0 8-3.582031 8-8v-8c0-26.507812-21.492188-48-48-48s-48 21.492188-48 48v8c0 4.417969 3.582031 8 8 8zm-40-48c17.671875 0 32 14.328125 32 32h-64c0-17.671875 14.328125-32 32-32zm0 0" fill="#1e81ce"/><path d="m240 136c-4.417969 0-8 3.582031-8 8v36.6875l-29.65625 29.65625c-3.03125 3.140625-2.988281 8.128906.097656 11.214844 3.085938 3.085937 8.074219 3.128906 11.214844.097656l26.34375-26.34375 26.34375 26.34375c3.140625 3.03125 8.128906 2.988281 11.214844-.097656 3.085937-3.085938 3.128906-8.074219.097656-11.214844l-29.65625-29.65625v-36.6875c0-4.417969-3.582031-8-8-8zm0 0" fill="#1e81ce"/><path d="m144 340.6875v-36.6875c0-4.417969-3.582031-8-8-8s-8 3.582031-8 8v36.6875l-29.65625 29.65625c-3.03125 3.140625-2.988281 8.128906.097656 11.214844 3.085938 3.085937 8.074219 3.128906 11.214844.097656l26.34375-26.34375 26.34375 26.34375c3.140625 3.03125 8.128906 2.988281 11.214844-.097656 3.085937-3.085938 3.128906-8.074219.097656-11.214844zm0 0" fill="#1e81ce"/><path d="m381.65625 370.34375-29.65625-29.65625v-36.6875c0-4.417969-3.582031-8-8-8s-8 3.582031-8 8v36.6875l-29.65625 29.65625c-3.03125 3.140625-2.988281 8.128906.097656 11.214844 3.085938 3.085937 8.074219 3.128906 11.214844.097656l26.34375-26.34375 26.34375 26.34375c3.140625 3.03125 8.128906 2.988281 11.214844-.097656 3.085937-3.085938 3.128906-8.074219.097656-11.214844zm0 0" fill="#1e81ce"/></svg>