<svg height="486pt" viewBox="0 -3 486.80838 486" width="486pt" xmlns="http://www.w3.org/2000/svg"><g fill="#9bc9ff"><path d="m474.300781 200.691406c5.242188-4.761718 6.214844-12.640625 2.285157-18.535156l-.039063-.054688c-2.296875-3.449218-5.972656-5.734374-10.082031-6.261718-4.109375-.53125-8.246094.746094-11.339844 3.5l-59.707031 53.0625h-80l-61.886719 75.640625c-2.585938 3.167969-3.710938 7.277343-3.101562 11.316406.609374 4.042969 2.898437 7.636719 6.300781 9.902344 6.09375 4.058593 14.257812 2.933593 19.023437-2.625l39.664063-46.234375v192h80v-200zm0 0"/><path d="m211.066406 326.660156c4.765625 5.558594 12.933594 6.683594 19.023438 2.625 3.40625-2.261718 5.691406-5.859375 6.304687-9.898437.609375-4.042969-.519531-8.152344-3.101562-11.320313l-61.875-75.664062h-80l-59.703125-53.0625c-3.09375-2.753906-7.230469-4.03125-11.339844-3.5-4.109375.527344-7.789062 2.8125-10.082031 6.261718v.054688c-3.929688 5.894531-2.957031 13.773438 2.285156 18.535156l78.839844 71.710938v200h80v-192zm0 0"/><path d="m387.417969 184.402344c0 17.675781-14.324219 32-32 32-17.671875 0-32-14.324219-32-32 0-17.671875 14.328125-32 32-32 17.675781 0 32 14.328125 32 32zm0 0"/><path d="m163.417969 184.402344c0 17.675781-14.324219 32-32 32-17.671875 0-32-14.324219-32-32 0-17.671875 14.328125-32 32-32 17.675781 0 32 14.328125 32 32zm0 0"/></g><path d="m355.417969 224.402344c-22.089844 0-40-17.90625-40-40 0-22.089844 17.910156-40 40-40 22.09375 0 40 17.910156 40 40-.023438 22.082031-17.917969 39.976562-40 40zm0-64c-13.253907 0-24 10.746094-24 24 0 13.257812 10.746093 24 24 24 13.257812 0 24-10.742188 24-24 0-13.253906-10.742188-24-24-24zm0 0" fill="#1e81ce"/><path d="m131.417969 224.402344c-22.089844 0-40-17.90625-40-40 0-22.089844 17.910156-40 40-40 22.09375 0 40 17.910156 40 40-.023438 22.082031-17.917969 39.976562-40 40zm0-64c-13.253907 0-24 10.746094-24 24 0 13.257812 10.746093 24 24 24 13.257812 0 24-10.742188 24-24 0-13.253906-10.742188-24-24-24zm0 0" fill="#1e81ce"/><path d="m403.417969 275.941406 76.265625-69.328125c8.921875-8.304687 9.546875-22.230469 1.402344-31.296875-8.144532-9.070312-22.054688-9.941406-31.265626-1.960937l-57.441406 51.046875h-80.75l-60.210937 73.601562v-201.601562h80v32h131.816406l-19.199219-48 19.199219-48h-91.816406v-32h-136v297.601562l-60.207031-73.601562h-80.75l-57.441407-51.054688c-9.214843-8-23.140625-7.132812-31.292969 1.941406-8.15625 9.078126-7.527343 23.015626 1.414063 31.324219l76.277344 69.328125v188.460938h-80v16h480v-16h-80zm-32-227.539062h68.183593l-12.796874 32 12.796874 32h-92.183593v-16h24zm-120-32h104v64h-104zm-88 448h-24v-112h-16v112h-24v-195.535156l-81.503907-74.0625c-2.296874-2.136719-2.703124-5.621094-.96875-8.234376 1.015626-1.519531 2.636719-2.527343 4.449219-2.761718 1.8125-.238282 3.640625.320312 5.007813 1.53125l61.976562 55.0625h79.25l59.484375 72.707031c2.308594 2.753906 1.945313 6.855469-.808593 9.164063-2.757813 2.304687-6.859376 1.941406-9.164063-.8125l-53.722656-62.65625zm144 0h-128v-162.398438l25.601562 29.839844c7.421875 8.644531 20.128907 10.382812 29.597657 4.046875.296874-.199219.554687-.453125.84375-.671875v65.183594h16v-65.167969c.300781.226563.566406.496094.886718.707031 9.460938 6.292969 22.128906 4.546875 29.535156-4.074218l25.535157-29.863282zm80 0h-24v-112h-16v112h-24v-205.597656l-53.71875 62.679687c-2.148438 2.492187-5.824219 2.984375-8.550781 1.144531-1.527344-1.003906-2.554688-2.617187-2.816407-4.425781-.277343-1.8125.226563-3.65625 1.390625-5.070313l59.488282-72.730468h79.25l61.964843-55.085938c1.359375-1.230468 3.195313-1.796875 5.007813-1.542968 1.839844.230468 3.480468 1.261718 4.488281 2.816406 1.722656 2.601562 1.300781 6.070312-1 8.183594l-81.503906 74.09375zm0 0" fill="#1e81ce"/></svg>