<?xml version="1.0" encoding="iso-8859-1"?>
<!-- Generator: Adobe Illustrator 19.0.0, SVG Export Plug-In . SVG Version: 6.00 Build 0)  -->
<svg version="1.1" id="Capa_1" xmlns="http://www.w3.org/2000/svg" xmlns:xlink="http://www.w3.org/1999/xlink" x="0px" y="0px"
	 viewBox="0 0 512 512" style="enable-background:new 0 0 512 512;" xml:space="preserve">
<polygon style="fill:#415A6B;" points="512,196.267 256,392.533 0,196.267 256,0 "/>
<path style="fill:#F3F3F3;" d="M426.667,11.733H146.133l-92.8,92.8V409.6c0,18.133,13.867,32,32,32h341.333
	c18.133,0,32-13.867,32-32V43.733C458.667,26.667,444.8,11.733,426.667,11.733z"/>
<g>
	<rect x="102.4" y="278.4" style="fill:#CED6E0;" width="306.133" height="27.733"/>
	<rect x="102.4" y="344.533" style="fill:#CED6E0;" width="281.6" height="27.733"/>
</g>
<polygon style="fill:#8AD7F8;" points="512,196.267 512,512 0,512 0,196.267 256,392.533 "/>
<polygon style="fill:#55C0EB;" points="0,512 0,512 512,512 512,512 306.133,353.067 256,392.533 205.867,353.067 "/>
<polygon style="fill:#CED6E0;" points="146.133,11.733 53.333,104.533 146.133,104.533 "/>
<path style="fill:#F3705A;" d="M310.4,196.267c4.267,0,7.467-3.2,10.667-9.6s4.267-13.867,4.267-24.533
	c0-21.333-6.4-38.4-18.133-52.267S279.467,89.6,259.2,89.6s-37.333,7.467-51.2,21.333c-13.867,13.867-20.267,32-20.267,52.267
	s6.4,37.333,19.2,50.133c12.8,13.867,28.8,20.267,48,20.267c14.933,0,27.733-5.333,39.467-16l9.6,16
	c-6.4,5.333-13.867,9.6-22.4,12.8c-9.6,3.2-18.133,4.267-25.6,4.267c-24.533,0-45.867-8.533-61.867-24.533
	C177.067,209.067,169.6,188.8,169.6,164.267s8.533-45.867,26.667-64c17.067-17.067,38.4-26.667,64-26.667
	c24.533,0,45.867,8.533,61.867,25.6c17.067,17.067,24.533,38.4,24.533,62.933c0,16-3.2,29.867-9.6,39.467
	c-6.4,9.6-16,14.933-26.667,14.933c-5.333,0-10.667-2.133-14.933-5.333c-4.267-3.2-7.467-7.467-9.6-12.8
	c-8.533,10.667-18.133,16-30.933,16c-12.8,0-23.467-4.267-33.067-13.867c-9.6-9.6-13.867-21.333-13.867-36.267
	c0-14.933,4.267-26.667,12.8-37.333c8.533-9.6,19.2-14.933,33.067-14.933c4.267,0,8.533,1.067,12.8,3.2
	c4.267,2.133,7.467,4.267,8.533,6.4l3.2,3.2v-9.6h27.733v71.467C302.933,192,305.067,196.267,310.4,196.267z M275.2,162.133
	c0-7.467-2.133-13.867-6.4-18.133c-4.267-5.333-9.6-7.467-16-7.467c-6.4,0-11.733,2.133-14.933,7.467
	c-4.267,5.333-5.333,10.667-5.333,18.133c0,7.467,2.133,13.867,5.333,19.2c4.267,5.333,8.533,8.533,16,8.533
	c6.4,0,11.733-2.133,16-7.467C274.133,176,275.2,169.6,275.2,162.133z"/>
<g>
</g>
<g>
</g>
<g>
</g>
<g>
</g>
<g>
</g>
<g>
</g>
<g>
</g>
<g>
</g>
<g>
</g>
<g>
</g>
<g>
</g>
<g>
</g>
<g>
</g>
<g>
</g>
<g>
</g>
</svg>
