<?xml version="1.0" encoding="iso-8859-1"?>
<!-- Generator: Adobe Illustrator 19.0.0, SVG Export Plug-In . SVG Version: 6.00 Build 0)  -->
<svg version="1.1" id="Capa_1" xmlns="http://www.w3.org/2000/svg" xmlns:xlink="http://www.w3.org/1999/xlink" x="0px" y="0px"
	 viewBox="0 0 512 512" style="enable-background:new 0 0 512 512;" xml:space="preserve">
<path style="fill:#66C6B9;" d="M250.667,130.667c0,33.067,30.933,60.8,69.333,64c11.733,9.6,25.6,14.933,40.533,14.933
	c6.4,0,11.733-1.067,17.067-3.2c-9.6-3.2-16-9.6-21.333-17.067c26.667-9.6,45.867-33.067,45.867-58.667c0-35.2-34.133-64-75.733-64
	C284.8,65.6,250.667,94.4,250.667,130.667z"/>
<g>
	<circle style="fill:#FFFFFF;" cx="366.933" cy="130.667" r="12.8"/>
	<circle style="fill:#FFFFFF;" cx="327.467" cy="130.667" r="12.8"/>
	<circle style="fill:#FFFFFF;" cx="286.933" cy="130.667" r="12.8"/>
</g>
<g>
	
		<ellipse transform="matrix(0.1029 -0.9947 0.9947 0.1029 69.4196 722.4697)" style="fill:#FFD15C;" cx="435.242" cy="322.749" rx="19.2" ry="11.733"/>
	
		<ellipse transform="matrix(0.1029 0.9947 -0.9947 0.1029 615.7136 -35.4548)" style="fill:#FFD15C;" cx="327.513" cy="323.62" rx="19.2" ry="11.733"/>
</g>
<g>
	<ellipse style="fill:#344A5E;" cx="406.4" cy="293.867" rx="34.133" ry="59.733"/>
	<ellipse style="fill:#344A5E;" cx="377.6" cy="294.933" rx="54.4" ry="69.333"/>
	<path style="fill:#344A5E;" d="M512,497.6c-2.133-25.6-7.467-68.267-19.2-81.067c-20.267-21.333-83.2-22.4-112-22.4
		s-91.733,1.067-112,22.4c-11.733,12.8-17.067,55.467-19.2,81.067H512z"/>
</g>
<path style="fill:#F7B64C;" d="M409.6,364.267v12.8c-8.533,20.267-18.133,30.933-28.8,42.667
	c-10.667-11.733-20.267-22.4-28.8-42.667v-12.8c7.467-21.333,19.2-35.2,28.8-46.933C390.4,329.067,402.133,342.933,409.6,364.267z"
	/>
<polygon style="fill:#FFFFFF;" points="369.067,497.6 391.467,497.6 404.267,477.333 405.333,412.267 355.2,412.267 
	357.333,477.333 "/>
<g>
	<path style="fill:#F3705A;" d="M389.333,436.8l7.467-7.467c0,0-10.667-16-16-16s-16,16-16,16l7.467,7.467H389.333z"/>
	<polygon style="fill:#F3705A;" points="391.467,497.6 396.8,489.067 389.333,436.8 372.267,436.8 363.733,489.067 369.067,497.6 	
		"/>
</g>
<g>
	<polygon style="fill:#F3F3F3;" points="409.6,373.867 380.8,413.333 403.2,435.733 420.267,392 	"/>
	<polygon style="fill:#F3F3F3;" points="352,373.867 380.8,413.333 358.4,435.733 341.333,392 	"/>
</g>
<g>
	<polygon style="fill:#415A6B;" points="396.8,497.6 438.4,457.067 418.133,438.933 451.2,419.733 413.867,381.333 386.133,497.6 	
		"/>
	<polygon style="fill:#415A6B;" points="323.2,457.067 364.8,497.6 376.533,497.6 347.733,381.333 311.467,419.733 343.467,438.933 
			"/>
</g>
<g>
	<path style="fill:#FFD15C;" d="M388.267,269.333c-10.667,9.6-24.533,16-42.667,16c-5.333,0-9.6,0-13.867-1.067
		c-3.2,8.533-5.333,18.133-5.333,28.8c0,38.4,23.467,69.333,53.333,69.333s53.333-30.933,53.333-69.333
		c0-10.667-2.133-20.267-5.333-28.8C412.8,283.2,400,277.867,388.267,269.333z"/>
	
		<ellipse transform="matrix(0.1463 -0.9892 0.9892 0.1463 -153.1786 463.574)" style="fill:#FFD15C;" cx="192" cy="320.537" rx="19.199" ry="11.733"/>
	
		<ellipse transform="matrix(0.1463 0.9892 -0.9892 0.1463 391.4679 187.5659)" style="fill:#FFD15C;" cx="87.061" cy="320.595" rx="19.199" ry="11.733"/>
</g>
<path style="fill:#344A5E;" d="M198.4,286.4c-1.067,27.733-8.533,64-33.067,64c0,0,0,0-1.067,0
	c-7.467,9.6-19.2,17.067-33.067,17.067c-37.333,0-51.2-44.8-51.2-78.933s23.467-61.867,51.2-61.867
	C142.933,225.6,200.533,225.6,198.4,286.4z"/>
<path style="fill:#415A6B;" d="M86.4,397.333l53.333,23.467l53.333-23.467l45.867,14.933c17.067,5.333,28.8,19.2,32,36.267
	l8.533,50.133H0l8.533-51.2c3.2-17.067,14.933-30.933,32-36.267L86.4,397.333z"/>
<path style="fill:#E8EAE9;" d="M115.2,497.6h49.067L176,424c0,0,1.067-10.667,1.067-21.333l-37.333,16l-37.333-16
	c1.067,10.667,1.067,21.333,1.067,21.333L115.2,497.6z"/>
<path style="fill:#55C0EB;" d="M120.533,497.6h37.333l-6.4-46.933l9.6-9.6c0,0-13.867-21.333-21.333-21.333
	c-7.467,0-21.333,21.333-21.333,21.333l9.6,9.6L120.533,497.6z"/>
<path style="fill:#F3F3F3;" d="M104.533,372.8c7.467,20.267,19.2,34.133,35.2,46.933c-10.667,8.533-20.267,16-25.6,25.6
	l-19.2-58.667C98.133,381.333,103.467,373.867,104.533,372.8z"/>
<path style="fill:#344A5E;" d="M94.933,497.6H115.2L103.467,424c0,0-2.133-32-2.133-39.467c0-8.533,4.267-11.733,4.267-11.733
	c-4.267-1.067-30.933,45.867-30.933,45.867l16,5.333l-18.133,8.533L94.933,497.6z"/>
<path style="fill:#F3F3F3;" d="M174.933,372.8c-7.467,20.267-19.2,34.133-35.2,46.933c10.667,8.533,20.267,16,25.6,25.6l19.2-58.667
	C180.267,381.333,176,373.867,174.933,372.8z"/>
<path style="fill:#344A5E;" d="M178.133,384.533C178.133,393.067,176,424,176,424l-11.733,73.6h20.267L208,432.533L189.867,424
	l16-5.333c0,0-26.667-46.933-30.933-45.867C174.933,372.8,178.133,377.067,178.133,384.533z"/>
<path style="fill:#F7B64C;" d="M104.533,333.333v40.533c7.467,20.267,19.2,34.133,35.2,46.933
	c14.933-11.733,27.733-26.667,35.2-46.933v-40.533H104.533z"/>
<path style="fill:#FFD15C;" d="M187.733,276.8c0,0,2.133,22.4,2.133,30.933c-1.067,42.667-20.267,80-50.133,80
	s-52.267-37.333-50.133-80c1.067-13.867,3.2-26.667,8.533-36.267C128,286.4,157.867,288.533,187.733,276.8z"/>
<path style="fill:#F05540;" d="M251.733,86.933c0,38.4-35.2,70.4-80,73.6c-12.8,10.667-29.867,17.067-45.867,17.067
	c-7.467,0-13.867-1.067-20.267-3.2c10.667-4.267,18.133-10.667,23.467-19.2C98.133,143.467,76.8,116.8,76.8,86.933
	c0-40.533,39.467-73.6,87.467-73.6C212.267,13.333,251.733,46.4,251.733,86.933z"/>
<g>
	<circle style="fill:#FFFFFF;" cx="117.333" cy="86.933" r="14.933"/>
	<circle style="fill:#FFFFFF;" cx="164.267" cy="86.933" r="14.933"/>
	<circle style="fill:#FFFFFF;" cx="210.133" cy="86.933" r="14.933"/>
</g>
<g>
</g>
<g>
</g>
<g>
</g>
<g>
</g>
<g>
</g>
<g>
</g>
<g>
</g>
<g>
</g>
<g>
</g>
<g>
</g>
<g>
</g>
<g>
</g>
<g>
</g>
<g>
</g>
<g>
</g>
</svg>
