<?xml version="1.0" encoding="iso-8859-1"?>
<!-- Generator: Adobe Illustrator 19.0.0, SVG Export Plug-In . SVG Version: 6.00 Build 0)  -->
<svg version="1.1" id="Capa_1" xmlns="http://www.w3.org/2000/svg" xmlns:xlink="http://www.w3.org/1999/xlink" x="0px" y="0px"
	 viewBox="0 0 512 512" style="enable-background:new 0 0 512 512;" xml:space="preserve">
<g>
	<polygon style="fill:#415A6B;" points="419.2,314.667 334.933,192 309.333,192 393.6,314.667 	"/>
	<polygon style="fill:#415A6B;" points="124.8,306.133 202.667,192 177.067,192 99.2,306.133 	"/>
	<rect x="245.333" y="192" style="fill:#415A6B;" width="21.333" height="194.133"/>
</g>
<path style="fill:#FFD15C;" d="M331.733,0H180.267c-13.867,0-24.533,10.667-24.533,24.533V176c0,13.867,10.667,24.533,24.533,24.533
	h151.467c13.867,0,24.533-10.667,24.533-24.533V24.533C356.267,10.667,345.6,0,331.733,0z"/>
<rect x="193.067" y="37.333" style="fill:#F7B64C;" width="126.933" height="126.933"/>
<circle style="fill:#F3705A;" cx="256" cy="433.067" r="78.933"/>
<path style="fill:#F05540;" d="M256,480c-25.6,0-46.933-21.333-46.933-46.933c0-25.6,21.333-46.933,46.933-46.933
	s46.933,21.333,46.933,46.933C302.933,458.667,281.6,480,256,480z"/>
<circle style="fill:#8AD7F8;" cx="78.933" cy="354.133" r="78.933"/>
<path style="fill:#55C0EB;" d="M78.933,401.067c-25.6,0-46.933-21.333-46.933-46.933c0-25.6,21.333-46.933,46.933-46.933
	s46.933,21.333,46.933,46.933C125.867,379.733,104.533,401.067,78.933,401.067z"/>
<circle style="fill:#66C6B9;" cx="433.067" cy="354.133" r="78.933"/>
<path style="fill:#4ABAA5;" d="M433.067,401.067c-25.6,0-46.933-21.333-46.933-46.933c0-25.6,21.333-46.933,46.933-46.933
	c25.6,0,46.933,21.333,46.933,46.933C480,379.733,458.667,401.067,433.067,401.067z"/>
<g>
</g>
<g>
</g>
<g>
</g>
<g>
</g>
<g>
</g>
<g>
</g>
<g>
</g>
<g>
</g>
<g>
</g>
<g>
</g>
<g>
</g>
<g>
</g>
<g>
</g>
<g>
</g>
<g>
</g>
</svg>
