<?xml version="1.0" encoding="iso-8859-1"?>
<!-- Generator: Adobe Illustrator 19.0.0, SVG Export Plug-In . SVG Version: 6.00 Build 0)  -->
<svg version="1.1" id="Capa_1" xmlns="http://www.w3.org/2000/svg" xmlns:xlink="http://www.w3.org/1999/xlink" x="0px" y="0px"
	 viewBox="0 0 512 512" style="enable-background:new 0 0 512 512;" xml:space="preserve">
<path style="fill:#E8EAE9;" d="M292.267,0H32C13.867,0,0,13.867,0,32v448c0,18.133,13.867,32,32,32h260.267
	c18.133,0,32-13.867,32-32V32C324.267,13.867,310.4,0,292.267,0z"/>
<rect y="53.333" style="fill:#415A6B;" width="324.267" height="366.933"/>
<circle style="fill:#CED6E0;" cx="162.133" cy="466.133" r="26.667"/>
<path style="fill:#FFD15C;" d="M490.667,81.067H251.733c-11.733,0-21.333,9.6-21.333,21.333v156.8
	c0,11.733,9.6,21.333,21.333,21.333H281.6V336l86.4-55.467h122.667c11.733,0,21.333-9.6,21.333-21.333V102.4
	C512,90.667,502.4,81.067,490.667,81.067z"/>
<g>
	<circle style="fill:#FFFFFF;" cx="294.4" cy="181.333" r="26.667"/>
	<circle style="fill:#FFFFFF;" cx="371.2" cy="181.333" r="26.667"/>
	<circle style="fill:#FFFFFF;" cx="448" cy="181.333" r="26.667"/>
</g>
<g>
</g>
<g>
</g>
<g>
</g>
<g>
</g>
<g>
</g>
<g>
</g>
<g>
</g>
<g>
</g>
<g>
</g>
<g>
</g>
<g>
</g>
<g>
</g>
<g>
</g>
<g>
</g>
<g>
</g>
</svg>
