<?xml version="1.0" encoding="iso-8859-1"?>
<!-- Generator: Adobe Illustrator 19.0.0, SVG Export Plug-In . SVG Version: 6.00 Build 0)  -->
<svg version="1.1" id="Capa_1" xmlns="http://www.w3.org/2000/svg" xmlns:xlink="http://www.w3.org/1999/xlink" x="0px" y="0px"
	 viewBox="0 0 513.067 513.067" style="enable-background:new 0 0 513.067 513.067;" xml:space="preserve">
<path style="fill:#FFD15C;" d="M394.667,161.6c0,88.533-88.533,161.067-197.333,161.067c-13.867,0-27.733-1.067-40.533-3.2
	L67.2,379.2v-96C25.6,253.333,0,209.6,0,161.6C0,72,88.533,0.533,197.333,0.533S394.667,72,394.667,161.6z"/>
<g>
	<circle style="fill:#FFFFFF;" cx="98.133" cy="161.6" r="32"/>
	<circle style="fill:#FFFFFF;" cx="197.333" cy="161.6" r="32"/>
	<circle style="fill:#FFFFFF;" cx="296.533" cy="161.6" r="32"/>
</g>
<path style="fill:#F3705A;" d="M220.8,352.533c0,65.067,65.067,118.4,146.133,118.4c10.667,0,20.267-1.067,29.867-2.133
	l66.133,43.733v-71.467c30.933-21.333,50.133-53.333,50.133-89.6c0-65.067-65.067-118.4-146.133-118.4S220.8,286.4,220.8,352.533z"
	/>
<g>
	<circle style="fill:#FFFFFF;" cx="439.467" cy="352.533" r="23.467"/>
	<circle style="fill:#FFFFFF;" cx="365.867" cy="352.533" r="23.467"/>
	<circle style="fill:#FFFFFF;" cx="293.333" cy="352.533" r="23.467"/>
</g>
<g>
</g>
<g>
</g>
<g>
</g>
<g>
</g>
<g>
</g>
<g>
</g>
<g>
</g>
<g>
</g>
<g>
</g>
<g>
</g>
<g>
</g>
<g>
</g>
<g>
</g>
<g>
</g>
<g>
</g>
</svg>
