<?xml version="1.0" encoding="iso-8859-1"?>
<!-- Generator: Adobe Illustrator 19.0.0, SVG Export Plug-In . SVG Version: 6.00 Build 0)  -->
<svg version="1.1" id="Capa_1" xmlns="http://www.w3.org/2000/svg" xmlns:xlink="http://www.w3.org/1999/xlink" x="0px" y="0px"
	 viewBox="0 0 512 512" style="enable-background:new 0 0 512 512;" xml:space="preserve">
<path style="fill:#FFD15C;" d="M405.333,375.467L405.333,375.467c-10.667,1.067-21.333-2.133-27.733-9.6
	c-10.667-11.733-26.667-19.2-43.733-19.2l-35.2-1.067c-12.8,0-25.6,2.133-37.333,8.533L204.8,384
	c-22.4-2.133-65.067,10.667-65.067,10.667c-9.6-1.067-18.133-8.533-27.733-9.6c-10.667-6.4-38.4-25.6-38.4-25.6
	S69.333,355.2,46.933,336C20.267,311.467,0,338.133,0,337.067c6.4,5.333,12.8,11.733,19.2,17.067
	c28.8,21.333,67.2,57.6,88.533,74.667c8.533,6.4,18.133,12.8,26.667,18.133c10.667,7.467,20.267,14.933,25.6,20.267
	c32,33.067,35.2,33.067,74.667,25.6c5.333-2.133,30.933-5.333,36.267-6.4l0,0c34.133-2.133,93.867-11.733,93.867-11.733
	c5.333,0,21.333-3.2,39.467-6.4v-92.8H405.333z"/>
<path style="fill:#F7B64C;" d="M259.2,428.8c-4.267,0-8.533-1.067-12.8-1.067c-4.267,0-8.533,0-12.8,0
	c-4.267,1.067-8.533,1.067-12.8,2.133c-4.267,1.067-8.533,1.067-12.8,2.133c-8.533,1.067-17.067,2.133-25.6,3.2
	c-4.267,0-8.533,1.067-12.8,1.067s-8.533,0-12.8,0s-8.533,0-12.8-1.067c-1.067,0-2.133,0-3.2-1.067c-1.067,0-2.133-1.067-3.2-1.067
	c-2.133-1.067-4.267-1.067-6.4-3.2l-1.067-1.067l-1.067-1.067c-1.067-1.067-1.067-2.133-2.133-3.2s-1.067-2.133-2.133-3.2
	s-1.067-2.133-1.067-3.2c-2.133-4.267-2.133-8.533-1.067-11.733c1.067-3.2,4.267-6.4,7.467-9.6c3.2-2.133,7.467-4.267,11.733-5.333
	l0,0l0,0l1.067-1.067c-1.067,0-2.133,0-2.133,0h-1.067c-4.267,1.067-7.467,3.2-10.667,5.333c-3.2,2.133-6.4,5.333-7.467,9.6
	c-1.067,4.267-1.067,8.533,1.067,12.8c1.067,1.067,1.067,2.133,2.133,3.2c1.067,1.067,1.067,2.133,2.133,3.2
	c1.067,1.067,1.067,2.133,2.133,3.2c0,1.067,1.067,1.067,1.067,1.067l1.067,1.067c2.133,1.067,4.267,2.133,6.4,3.2
	c1.067,0,2.133,1.067,3.2,1.067s2.133,1.067,3.2,1.067c4.267,1.067,8.533,1.067,13.867,1.067c8.533,0,17.067,0,25.6-1.067
	s17.067-2.133,25.6-3.2c4.267-1.067,8.533-1.067,12.8-2.133c4.267-1.067,8.533-2.133,12.8-2.133c4.267-1.067,8.533-1.067,12.8-1.067
	c4.267,0,8.533,0,12.8,0c8.533,0,17.067,1.067,25.6,2.133C277.333,430.933,268.8,429.867,259.2,428.8z"/>
<g>
	<path style="fill:#F3F3F3;" d="M141.867,403.2c0,0,8.533-4.267,13.867,3.2c4.267,7.467,6.4,13.867,6.4,13.867
		s3.2,7.467-5.333,8.533c-8.533,1.067-23.467,3.2-23.467,3.2s-9.6,1.067-12.8-5.333c-3.2-6.4-8.533-17.067,3.2-20.267
		C134.4,404.267,141.867,403.2,141.867,403.2z"/>
	<rect x="389.333" y="357.333" style="fill:#F3F3F3;" width="29.867" height="131.2"/>
</g>
<rect x="420.267" y="334.933" style="fill:#415A6B;" width="91.733" height="177.067"/>
<circle style="fill:#344A5E;" cx="454.4" cy="476.8" r="14.933"/>
<circle style="fill:#8AD7F8;" cx="174.933" cy="174.933" r="167.467"/>
<path style="fill:#415A6B;" d="M174.933,350.933C78.933,350.933,0,272,0,174.933C0,78.933,78.933,0,174.933,0
	C272,0,349.867,78.933,349.867,174.933C350.933,272,272,350.933,174.933,350.933z M174.933,16C87.467,16,16,87.467,16,174.933
	s71.467,158.933,158.933,158.933S333.867,262.4,333.867,174.933C334.933,87.467,263.467,16,174.933,16z"/>
<ellipse style="fill:#8AD7F8;" cx="174.933" cy="174.933" rx="89.6" ry="167.467"/>
<path style="fill:#415A6B;" d="M174.933,350.933c-54.4,0-97.067-76.8-97.067-174.933S120.533,1.067,174.933,1.067
	S272,77.867,272,176C273.067,273.067,229.333,350.933,174.933,350.933z M174.933,16C131.2,16,93.867,88.533,93.867,174.933
	s37.333,158.933,81.067,158.933S256,261.333,256,174.933C257.067,88.533,219.733,16,174.933,16z"/>
<rect x="8.533" y="167.467" style="fill:#415A6B;" width="334.933" height="16"/>
<rect x="167.467" y="7.467" style="fill:#415A6B;" width="16" height="334.933"/>
<rect x="35.2" y="258.133" style="fill:#415A6B;" width="280.533" height="16"/>
<rect x="35.2" y="76.8" style="fill:#415A6B;" width="280.533" height="16"/>
<g>
</g>
<g>
</g>
<g>
</g>
<g>
</g>
<g>
</g>
<g>
</g>
<g>
</g>
<g>
</g>
<g>
</g>
<g>
</g>
<g>
</g>
<g>
</g>
<g>
</g>
<g>
</g>
<g>
</g>
</svg>
