<?xml version="1.0" encoding="iso-8859-1"?>
<!-- Generator: Adobe Illustrator 19.0.0, SVG Export Plug-In . SVG Version: 6.00 Build 0)  -->
<svg version="1.1" id="Capa_1" xmlns="http://www.w3.org/2000/svg" xmlns:xlink="http://www.w3.org/1999/xlink" x="0px" y="0px"
	 viewBox="0 0 513.067 513.067" style="enable-background:new 0 0 513.067 513.067;" xml:space="preserve">
<path style="fill:#F3F3F3;" d="M267.733,429.333v-57.6h-23.467v57.6c-17.067,5.333-30.933,21.333-30.933,40.533
	c0,23.467,19.2,42.667,42.667,42.667s42.667-19.2,42.667-42.667C298.667,450.667,285.867,434.667,267.733,429.333z M256,489.067
	c-10.667,0-18.133-8.533-18.133-18.133c0-10.667,8.533-18.133,18.133-18.133c10.667,0,18.133,8.533,18.133,18.133
	C274.133,480.533,266.667,489.067,256,489.067z"/>
<g>
	<path style="fill:#F3705A;" d="M486.4,50.667H25.6C11.733,50.667,0,40,0,26.133l0,0c0-13.867,11.733-25.6,25.6-25.6h461.867
		c12.8,0,24.533,11.733,24.533,25.6l0,0C512,40,500.267,50.667,486.4,50.667z"/>
	<path style="fill:#F3705A;" d="M486.4,397.333H25.6c-13.867,0-25.6-11.733-25.6-25.6l0,0c0-13.867,11.733-25.6,25.6-25.6h461.867
		c13.867,0,25.6,11.733,25.6,25.6l0,0C512,385.6,500.267,397.333,486.4,397.333z"/>
</g>
<rect x="25.6" y="50.667" style="fill:#F3F3F3;" width="461.867" height="295.467"/>
<g>
	<path style="fill:#66C6B9;" d="M192,315.2c-1.067-36.267-30.933-65.067-67.2-65.067s-66.133,28.8-67.2,65.067H192z"/>
	<circle style="fill:#66C6B9;" cx="124.8" cy="207.467" r="32"/>
	<path style="fill:#66C6B9;" d="M454.4,315.2c-1.067-36.267-30.933-65.067-67.2-65.067c-36.267,0-66.133,28.8-67.2,65.067H454.4z"/>
	<circle style="fill:#66C6B9;" cx="387.2" cy="207.467" r="32"/>
	<path style="fill:#66C6B9;" d="M323.2,222.4c-1.067-36.267-30.933-65.067-67.2-65.067s-66.133,28.8-67.2,65.067H323.2z"/>
	<circle style="fill:#66C6B9;" cx="256" cy="114.667" r="32"/>
</g>
<polygon style="fill:#415A6B;" points="308.267,280 308.267,296 203.733,296 203.733,280 247.467,280 247.467,238.4 263.467,238.4 
	263.467,280 "/>
<g>
</g>
<g>
</g>
<g>
</g>
<g>
</g>
<g>
</g>
<g>
</g>
<g>
</g>
<g>
</g>
<g>
</g>
<g>
</g>
<g>
</g>
<g>
</g>
<g>
</g>
<g>
</g>
<g>
</g>
</svg>
