<?xml version="1.0" encoding="iso-8859-1"?>
<!-- Generator: Adobe Illustrator 19.0.0, SVG Export Plug-In . SVG Version: 6.00 Build 0)  -->
<svg version="1.1" id="Capa_1" xmlns="http://www.w3.org/2000/svg" xmlns:xlink="http://www.w3.org/1999/xlink" x="0px" y="0px"
	 viewBox="0 0 512 512" style="enable-background:new 0 0 512 512;" xml:space="preserve">
<g>
	
		<rect x="246.349" y="44.976" transform="matrix(-0.8672 -0.498 0.498 -0.8672 352.3094 606.2969)" style="fill:#415A6B;" width="21.332" height="422.372"/>
	
		<rect x="45.703" y="245.661" transform="matrix(-0.4976 -0.8674 0.8674 -0.4976 162.397 606.7154)" style="fill:#415A6B;" width="422.398" height="21.333"/>
	<rect x="44.8" y="245.333" style="fill:#415A6B;" width="423.467" height="21.333"/>
	<path style="fill:#415A6B;" d="M368,450.133H144L32,256L144,61.867h224L480,256L368,450.133z M156.8,428.8h199.467l99.2-172.8
		L355.2,83.2H156.8L56.533,256L156.8,428.8z"/>
</g>
<circle style="fill:#F3705A;" cx="361.6" cy="72.533" r="44.8"/>
<circle style="fill:#F05540;" cx="361.6" cy="72.533" r="28.8"/>
<circle style="fill:#FFD15C;" cx="361.6" cy="439.467" r="44.8"/>
<circle style="fill:#F7B64C;" cx="361.6" cy="439.467" r="28.8"/>
<circle style="fill:#8AD7F8;" cx="467.2" cy="256" r="44.8"/>
<circle style="fill:#55C0EB;" cx="467.2" cy="256" r="28.8"/>
<circle style="fill:#FFD15C;" cx="44.8" cy="256" r="44.8"/>
<circle style="fill:#F7B64C;" cx="44.8" cy="256" r="28.8"/>
<circle style="fill:#F3705A;" cx="151.467" cy="439.467" r="44.8"/>
<circle style="fill:#F05540;" cx="151.467" cy="439.467" r="28.8"/>
<circle style="fill:#8AD7F8;" cx="151.467" cy="72.533" r="44.8"/>
<circle style="fill:#55C0EB;" cx="151.467" cy="72.533" r="28.8"/>
<circle style="fill:#F3F3F3;" cx="256" cy="256" r="122.667"/>
<circle style="fill:#8AD7F8;" cx="256" cy="256" r="97.067"/>
<path style="fill:#415A6B;" d="M330.667,304c-2.133-9.6-8.533-18.133-18.133-21.333c-38.4-13.867-75.733-13.867-114.133,0
	c-9.6,3.2-16,11.733-18.133,21.333l-2.133,10.667c18.133,23.467,45.867,38.4,76.8,38.4s59.733-14.933,76.8-38.4L330.667,304z"/>
<path style="fill:#CED6E0;" d="M250.667,353.067c1.067,0,3.2,0,5.333,0c2.133,0,3.2,0,4.267,0l18.133-60.8h-45.867L250.667,353.067z
	"/>
<g>
	<polygon style="fill:#F3705A;" points="261.333,308.267 266.667,302.933 256,292.267 245.333,302.933 250.667,308.267 	"/>
	<path style="fill:#F3705A;" d="M250.667,308.267l-8.533,35.2l5.333,9.6c3.2,0,5.333,0,8.533,0c3.2,0,6.4,0,8.533,0l5.333-9.6
		l-8.533-35.2L250.667,308.267L250.667,308.267z"/>
</g>
<g>
	<polygon style="fill:#F3F3F3;" points="256,292.267 278.4,263.467 284.8,274.133 269.867,308.267 	"/>
	<polygon style="fill:#F3F3F3;" points="256,292.267 233.6,263.467 227.2,274.133 242.133,308.267 	"/>
</g>
<polygon style="fill:#F7B64C;" points="233.6,253.867 256,225.067 278.4,253.867 278.4,263.467 256,292.267 233.6,263.467 "/>
<g>
	<path style="fill:#344A5E;" d="M280.533,266.667l-21.333,86.4c2.133,0,4.267,0,5.333,0l30.933-51.2l-9.6-8.533l11.733-6.4
		L280.533,266.667z"/>
	<path style="fill:#344A5E;" d="M231.467,266.667l-18.133,20.267l11.733,6.4l-9.6,8.533l30.933,51.2c2.133,0,4.267,0,5.333,0
		L231.467,266.667z"/>
</g>
<g>
	<path style="fill:#FFD15C;" d="M295.467,232.533c-1.067,6.4-5.333,10.667-8.533,10.667c-4.267-1.067-6.4-6.4-5.333-12.8
		c1.067-6.4,5.333-10.667,8.533-10.667C294.4,220.8,296.533,226.133,295.467,232.533z"/>
	<path style="fill:#FFD15C;" d="M216.533,232.533c1.067,6.4,5.333,10.667,8.533,10.667c4.267-1.067,6.4-6.4,5.333-12.8
		c-1.067-6.4-5.333-10.667-8.533-10.667C217.6,220.8,215.467,226.133,216.533,232.533z"/>
</g>
<g>
	<path style="fill:#344A5E;" d="M282.667,211.2c0,20.267-8.533,46.933-32,46.933s-32-26.667-32-46.933s13.867-37.333,32-37.333
		S282.667,190.933,282.667,211.2z"/>
	<path style="fill:#344A5E;" d="M292.267,211.2c0,17.067-5.333,38.4-20.267,38.4c-14.933,0-20.267-21.333-20.267-38.4
		s8.533-29.867,20.267-29.867C283.733,180.267,292.267,194.133,292.267,211.2z"/>
</g>
<path style="fill:#FFD15C;" d="M225.067,228.267C224,251.733,237.867,272,256,272c18.133,0,32-20.267,30.933-43.733
	c0-7.467-2.133-13.867-5.333-20.267c-8.533,0-16-3.2-20.267-9.6c-8.533,10.667-20.267,18.133-36.267,23.467
	C225.067,222.933,225.067,226.133,225.067,228.267z"/>
<g>
</g>
<g>
</g>
<g>
</g>
<g>
</g>
<g>
</g>
<g>
</g>
<g>
</g>
<g>
</g>
<g>
</g>
<g>
</g>
<g>
</g>
<g>
</g>
<g>
</g>
<g>
</g>
<g>
</g>
</svg>
