<?xml version="1.0" encoding="iso-8859-1"?>
<!-- Generator: Adobe Illustrator 19.0.0, SVG Export Plug-In . SVG Version: 6.00 Build 0)  -->
<svg version="1.1" id="Capa_1" xmlns="http://www.w3.org/2000/svg" xmlns:xlink="http://www.w3.org/1999/xlink" x="0px" y="0px"
	 viewBox="0 0 512.014 512.014" style="enable-background:new 0 0 512.014 512.014;" xml:space="preserve">
<path style="fill:#344A5E;" d="M210.217,483.214c8.533,17.067,25.6,28.8,45.867,28.8s37.333-11.733,45.867-28.8H210.217z"/>
<path style="fill:#F3F3F3;" d="M437.417,164.281c-8.533-85.333-75.733-153.6-160-163.2C167.551-10.653,73.684,74.681,73.684,182.414
	c0,57.6,26.667,109.867,69.333,142.933c20.267,16,33.067,38.4,38.4,62.933h149.333c5.333-24.533,18.133-46.933,38.4-64
	C416.084,288.014,443.817,229.348,437.417,164.281z"/>
<path style="fill:#344A5E;" d="M177.151,388.281v70.4c0,17.067,13.867,29.867,29.867,29.867h97.067
	c17.067,0,29.867-13.867,29.867-29.867v-71.467h-156.8V388.281z"/>
<path style="fill:#8AD7F8;" d="M389.417,173.881c-17.067-88.533-91.733-105.6-155.733-112c-52.267-5.333-86.4,25.6-100.267,45.867
	c-9.6,13.867-13.867,30.933-10.667,46.933c6.4,35.2,39.467,39.467,39.467,39.467l24.533,3.2
	c4.267,23.467,13.867,33.067,23.467,36.267c28.8,8.533,53.333,27.733,66.133,54.4c5.333,12.8,9.6,21.333,9.6,21.333l14.933-3.2
	v-21.333c10.667,0,8.533-6.4,8.533-6.4c38.4,11.733,43.733-24.533,43.733-24.533C396.884,234.681,389.417,173.881,389.417,173.881z"
	/>
<g>
	<path style="fill:#55C0EB;" d="M189.951,168.548L189.951,168.548c-13.867-4.267-24.533-9.6-30.933-17.067
		c-1.067-1.067-2.133-2.133-3.2-3.2c-3.2-4.267-6.4-7.467-10.667-9.6c-1.067,0-2.133,0-3.2-1.067c-1.067,0-2.133,0-3.2-1.067
		c-3.2-1.067-5.333-3.2-5.333-6.4c0-1.067,1.067-2.133,2.133-2.133s2.133,1.067,2.133,2.133c0,1.067,2.133,2.133,3.2,3.2
		c1.067,0,2.133,0,3.2,1.067c1.067,0,2.133,0,3.2,1.067c5.333,2.133,9.6,6.4,12.8,10.667c1.067,1.067,2.133,2.133,3.2,3.2
		c6.4,7.467,16,12.8,28.8,16c1.067,0,2.133,1.067,1.067,2.133C191.017,167.481,191.017,168.548,189.951,168.548z"/>
	<path style="fill:#55C0EB;" d="M157.951,148.281c-1.067,0-1.067,0-2.133-1.067c-2.133-3.2-1.067-6.4,1.067-8.533
		c2.133-2.133,5.333-2.133,7.467-2.133h1.067c2.133,0,4.267,0,5.333-1.067c1.067-1.067,2.133-2.133,3.2-3.2
		c1.067-1.067,1.067-2.133,2.133-3.2c3.2-3.2,7.467-4.267,10.667-5.333c5.333-2.133,11.733-3.2,18.133-3.2l0,0
		c1.067,0,2.133,0,2.133,0c1.067,0,3.2,0,4.267,0c1.067,0,3.2,0,4.267-2.133c1.067-1.067,1.067-4.267,1.067-6.4
		c0-1.067,0-2.133,0-3.2c1.067-5.333,4.267-10.667,9.6-12.8c1.067-1.067,2.133-1.067,3.2-1.067c3.2-1.067,5.333-2.133,6.4-3.2
		c1.067-1.067,1.067-2.133,1.067-4.267c0-1.067,0-2.133,0-2.133c1.067-5.333,5.333-10.667,10.667-11.733
		c1.067,0,2.133,0,2.133,1.067s0,2.133-1.067,2.133c-4.267,1.067-6.4,4.267-7.467,8.533c0,1.067,0,1.067,0,2.133
		c0,2.133,0,4.267-1.067,5.333c-2.133,3.2-5.333,4.267-8.533,5.333c-1.067,0-2.133,1.067-3.2,1.067
		c-4.267,2.133-6.4,5.333-7.467,9.6c0,1.067,0,2.133,0,3.2c0,3.2,0,6.4-2.133,8.533c-2.133,2.133-4.267,3.2-7.467,3.2
		c-2.133,0-3.2,0-4.267,0c-1.067,0-1.067,0-2.133,0c-5.333,0-11.733,2.133-17.067,3.2c-3.2,1.067-6.4,2.133-8.533,4.267
		c-1.067,1.067-1.067,1.067-2.133,2.133c-1.067,2.133-3.2,3.2-4.267,4.267c-2.133,1.067-4.267,1.067-6.4,1.067l0,0
		c-2.133,0-4.267,0-5.333,1.067c-1.067,1.067-1.067,2.133-1.067,3.2c1.067,1.067,1.067,2.133,0,3.2
		C159.017,148.281,157.951,148.281,157.951,148.281z"/>
	<path style="fill:#55C0EB;" d="M218.751,138.681L218.751,138.681c-1.067,0-2.133-1.067-2.133-2.133c1.067-5.333,1.067-10.667,0-16
		c0-1.067,0-2.133,2.133-2.133c1.067,0,2.133,0,2.133,2.133c1.067,6.4,1.067,11.733,0,18.133
		C220.884,138.681,219.817,138.681,218.751,138.681z"/>
	<path style="fill:#55C0EB;" d="M202.751,160.014C201.684,160.014,201.684,160.014,202.751,160.014
		c-1.067,0-2.133-1.067-2.133-2.133c3.2-12.8,6.4-24.533,10.667-35.2c0-1.067,2.133-1.067,3.2-1.067c1.067,0,1.067,2.133,1.067,3.2
		c-4.267,10.667-8.533,21.333-10.667,34.133C203.817,158.947,202.751,160.014,202.751,160.014z"/>
	<path style="fill:#55C0EB;" d="M186.751,147.214h-1.067c-1.067-1.067-1.067-2.133,0-3.2c1.067-2.133,2.133-4.267,1.067-7.467
		c0-1.067,0-1.067,0-2.133c0-2.133-1.067-5.333,0-8.533c0-1.067,1.067-2.133,2.133-2.133s2.133,1.067,2.133,2.133
		c0,2.133,0,4.267,0,6.4c0,1.067,0,2.133,0,2.133c0,5.333,0,8.533-2.133,10.667C187.817,147.214,187.817,147.214,186.751,147.214z"
		/>
	<path style="fill:#55C0EB;" d="M175.017,150.414c-1.067,0-1.067,0-2.133-1.067c-2.133-4.267-3.2-8.533-2.133-12.8
		c0-1.067,1.067-2.133,2.133-2.133c1.067,0,2.133,1.067,2.133,2.133c-1.067,3.2,0,7.467,2.133,10.667c1.067,1.067,0,2.133-1.067,3.2
		H175.017z"/>
	<path style="fill:#55C0EB;" d="M162.217,140.814c-1.067,0-2.133-1.067-2.133-2.133c-1.067-5.333-4.267-9.6-7.467-12.8
		c-1.067-1.067-1.067-2.133,0-3.2c1.067-1.067,2.133-1.067,3.2,0c4.267,3.2,8.533,8.533,9.6,14.933
		C164.351,139.747,164.351,140.814,162.217,140.814L162.217,140.814z"/>
	<path style="fill:#55C0EB;" d="M145.151,136.548c-1.067,0-2.133-1.067-2.133-1.067c-1.067-3.2-1.067-5.333-2.133-8.533
		c0-3.2,1.067-7.467,3.2-9.6c3.2-4.267,9.6-5.333,13.867-5.333c1.067,0,2.133,1.067,2.133,2.133c0,1.067-1.067,2.133-2.133,2.133
		c-3.2,0-7.467,0-10.667,3.2c-1.067,2.133-2.133,4.267-2.133,6.4c0,2.133,1.067,5.333,1.067,7.467
		C148.351,135.481,147.284,136.548,145.151,136.548C146.217,136.548,146.217,136.548,145.151,136.548z"/>
	<path style="fill:#55C0EB;" d="M171.817,116.281c-1.067,0-1.067,0-2.133-1.067c-2.133-3.2,0-5.333,1.067-7.467
		c0-1.067,1.067-1.067,1.067-2.133l0,0c0,0-1.067-1.067-3.2-1.067s-5.333,0-7.467,0c-1.067,0-2.133-1.067-2.133-2.133
		c0-1.067,1.067-2.133,2.133-2.133c3.2,0,6.4-1.067,8.533,0c2.133,0,5.333,1.067,6.4,3.2c1.067,1.067,1.067,2.133,0,3.2
		c0,1.067-1.067,2.133-1.067,3.2c-1.067,2.133-1.067,2.133-1.067,3.2c1.067,1.067,0,2.133-1.067,3.2
		C172.884,116.281,171.817,116.281,171.817,116.281z"/>
	<path style="fill:#55C0EB;" d="M173.951,108.814h-1.067c-1.067-1.067-1.067-2.133-1.067-3.2c2.133-4.267,8.533-5.333,13.867-5.333
		c4.267,0,8.533,2.133,11.733,4.267c1.067,0,1.067,2.133,1.067,3.2c0,1.067-2.133,1.067-3.2,1.067c-4.267-2.133-6.4-3.2-10.667-3.2
		c-3.2,0-8.533,1.067-9.6,3.2H173.951z"/>
	<path style="fill:#55C0EB;" d="M177.151,105.614C177.151,105.614,176.084,105.614,177.151,105.614c-2.133,0-2.133-2.133-2.133-3.2
		v-1.067c1.067-1.067,1.067-3.2,1.067-4.267s-1.067-2.133-1.067-3.2c0-1.067-1.067-2.133-1.067-3.2c-1.067-2.133,0-3.2,0-4.267
		c1.067,0,3.2-1.067,3.2-1.067c4.267-2.133,9.6-1.067,12.8-1.067c1.067,0,2.133,1.067,2.133,2.133c0,1.067-1.067,2.133-2.133,2.133
		c-3.2,0-7.467,0-11.733,1.067c-1.067,0-1.067,1.067-1.067,1.067s0,0,0,1.067c0,1.067,1.067,1.067,1.067,2.133
		c0,1.067,1.067,2.133,1.067,3.2c1.067,2.133,0,4.267-1.067,6.4v1.067C178.217,105.614,178.217,105.614,177.151,105.614z"/>
	<path style="fill:#55C0EB;" d="M188.884,180.281c-1.067,0-2.133-1.067-2.133-2.133c-1.067-9.6,1.067-16,5.333-19.2
		c2.133-2.133,5.333-3.2,8.533-3.2c7.467-2.133,16-3.2,24.533-2.133c2.133,0,5.333,0,7.467,1.067c6.4,1.067,13.867,1.067,19.2,0
		c3.2-1.067,6.4-2.133,8.533-4.267c2.133-1.067,4.267-2.133,6.4-3.2c5.333-2.133,11.733-3.2,17.067-2.133h1.067
		c2.133,0,4.267,0,5.333,0c1.067-1.067,1.067-2.133,2.133-3.2l7.467-16c0-1.067,2.133-1.067,3.2-1.067
		c1.067,0,1.067,2.133,1.067,3.2l-7.467,16c-1.067,1.067-2.133,3.2-3.2,5.333c-2.133,2.133-5.333,1.067-7.467,1.067h-1.067
		c-5.333,0-10.667,0-14.933,2.133c-2.133,1.067-4.267,2.133-6.4,3.2c-3.2,2.133-6.4,3.2-9.6,4.267
		c-7.467,2.133-13.867,1.067-21.333,0c-2.133,0-5.333-1.067-7.467-1.067c-7.467,0-14.933,0-22.4,2.133
		c-2.133,1.067-5.333,1.067-6.4,3.2c-1.067,1.067-5.333,4.267-4.267,16C191.017,179.214,191.017,180.281,188.884,180.281
		L188.884,180.281z"/>
	<path style="fill:#55C0EB;" d="M297.684,138.681L297.684,138.681c-1.067,0-2.133-1.067-2.133-2.133
		c0-2.133-1.067-8.533-5.333-11.733c-1.067-1.067-1.067-2.133,0-3.2c1.067-1.067,2.133-1.067,3.2,0c5.333,5.333,6.4,12.8,6.4,16
		C299.817,137.614,298.751,138.681,297.684,138.681z"/>
	<path style="fill:#55C0EB;" d="M274.217,149.347h-1.067c-4.267-3.2-6.4-7.467-7.467-12.8c-1.067-5.333,0-9.6,3.2-13.867
		c2.133-3.2,5.333-6.4,8.533-8.533c1.067-1.067,2.133-1.067,3.2-2.133c1.067-1.067,2.133-2.133,3.2-3.2
		c2.133-2.133,4.267-4.267,7.467-5.333c5.333-3.2,11.733-5.333,18.133-5.333s12.8,2.133,18.133,6.4c1.067,1.067,1.067,2.133,0,3.2
		c-1.067,1.067-2.133,1.067-3.2,0c-4.267-3.2-9.6-5.333-16-5.333c-5.333,0-11.733,1.067-16,4.267c-2.133,1.067-4.267,3.2-6.4,5.333
		c-1.067,1.067-2.133,2.133-3.2,3.2c-1.067,1.067-2.133,1.067-3.2,2.133c-3.2,2.133-6.4,4.267-7.467,7.467
		c-2.133,3.2-3.2,7.467-2.133,11.733c1.067,4.267,3.2,7.467,5.333,9.6c1.067,1.067,1.067,2.133,0,3.2H274.217z"/>
	<path style="fill:#55C0EB;" d="M279.551,133.347c-1.067,0-1.067,0-2.133-1.067c-3.2-5.333-4.267-11.733-3.2-17.067
		c0-1.067,1.067-2.133,2.133-1.067c1.067,0,2.133,1.067,1.067,2.133c-1.067,4.267,0,9.6,2.133,13.867c1.067,1.067,0,2.133-1.067,3.2
		C280.617,133.347,280.617,133.347,279.551,133.347z"/>
	<path style="fill:#55C0EB;" d="M299.817,102.414c-1.067,0-1.067,0-1.067-1.067c-1.067-1.067-1.067-2.133,0-3.2
		c2.133-1.067,3.2-3.2,3.2-5.333c1.067-2.133,0-4.267-1.067-5.333c-1.067-1.067-1.067-2.133,0-3.2c1.067,1.067,3.2,1.067,3.2,1.067
		c2.133,2.133,3.2,5.333,2.133,9.6c-1.067,3.2-2.133,5.333-5.333,7.467C300.884,102.414,300.884,102.414,299.817,102.414z"/>
	<path style="fill:#55C0EB;" d="M233.684,157.881c-1.067,0-1.067,0-2.133-1.067c-2.133-2.133-1.067-5.333,0-7.467
		c0-1.067,1.067-2.133,2.133-3.2c0-1.067,1.067-1.067,1.067-2.133c1.067-3.2,2.133-6.4,2.133-9.6c0-1.067,0-2.133,0-3.2
		c1.067-5.333,2.133-10.667,5.333-14.933c3.2-5.333,6.4-8.533,10.667-11.733c1.067,0,2.133-1.067,2.133-1.067
		c1.067-1.067,3.2-1.067,4.267-2.133c1.067-1.067,3.2-2.133,4.267-4.267l7.467-9.6c1.067-1.067,2.133-1.067,3.2,0
		c1.067,1.067,1.067,2.133,0,3.2l-7.467,10.667c-1.067,2.133-3.2,3.2-4.267,5.333c-1.067,1.067-3.2,2.133-4.267,2.133
		c-1.067,0-1.067,1.067-2.133,1.067c-4.267,2.133-7.467,5.333-9.6,9.6c-2.133,3.2-3.2,8.533-4.267,13.867c0,1.067,0,2.133,0,2.133
		c-1.067,3.2-1.067,7.467-3.2,10.667c0,1.067-1.067,1.067-1.067,2.133c-1.067,1.067-1.067,2.133-1.067,3.2
		c-1.067,2.133-1.067,3.2,0,3.2c1.067,1.067,0,2.133-1.067,3.2C234.751,157.881,233.684,157.881,233.684,157.881z"/>
	<path style="fill:#55C0EB;" d="M215.551,219.747c-1.067,0-2.133-1.067-2.133-1.067l-5.333-18.133c-1.067-3.2-2.133-7.467,0-11.733
		c2.133-5.333,8.533-6.4,13.867-7.467c7.467-1.067,13.867-3.2,21.333-2.133c1.067,0,2.133,0,4.267,0c2.133,0,4.267,0,6.4,0
		c3.2,0,7.467-1.067,10.667-2.133c4.267-1.067,9.6-2.133,13.867-4.267c1.067-1.067,3.2-1.067,4.267-2.133c3.2-1.067,6.4-3.2,9.6-3.2
		c3.2-1.067,6.4-1.067,9.6-2.133c2.133,0,4.267-1.067,6.4-1.067c3.2-1.067,17.067-4.267,17.067-28.8
		c0-1.067,1.067-2.133,2.133-2.133c1.067,0,2.133,1.067,2.133,2.133c0,27.733-18.133,33.067-20.267,33.067
		c-2.133,0-4.267,1.067-6.4,1.067c-3.2,0-6.4,1.067-8.533,2.133c-3.2,1.067-5.333,2.133-8.533,3.2
		c-1.067,1.067-3.2,1.067-4.267,2.133c-4.267,2.133-9.6,3.2-13.867,4.267c-3.2,1.067-7.467,2.133-11.733,2.133
		c-2.133,0-4.267,0-6.4,0c-1.067,0-2.133,0-3.2,0c-6.4,0-13.867,1.067-20.267,2.133c-4.267,1.067-9.6,2.133-10.667,5.333
		c-1.067,2.133,0,6.4,1.067,9.6l5.333,18.133C217.684,217.614,216.617,218.681,215.551,219.747L215.551,219.747z"/>
	<path style="fill:#55C0EB;" d="M225.151,210.148c-1.067,0-1.067,0-1.067-1.067c-1.067-1.067-1.067-2.133,0-3.2
		c3.2-3.2,8.533-5.333,16-5.333c1.067,0,2.133,0,4.267,0c4.267,0,7.467,0,11.733-1.067c2.133,0,3.2-1.067,5.333-2.133
		c2.133-1.067,4.267-2.133,6.4-2.133c6.4-1.067,11.733,0,16,1.067c1.067,0,3.2,1.067,4.267,1.067c3.2,1.067,6.4,2.133,10.667,2.133
		c5.333,1.067,10.667,0,13.867-2.133c1.067-1.067,2.133,0,3.2,0c1.067,1.067,0,2.133,0,3.2c-5.333,4.267-11.733,4.267-16,3.2
		c-4.267,0-7.467-1.067-10.667-2.133c-1.067,0-3.2-1.067-4.267-1.067c-4.267-1.067-9.6-2.133-13.867-1.067
		c-2.133,0-4.267,1.067-6.4,2.133c-2.133,1.067-4.267,2.133-6.4,2.133c-4.267,1.067-8.533,1.067-12.8,1.067
		c-1.067,0-2.133,0-4.267,0c-6.4,0-10.667,2.133-13.867,4.267C226.217,210.148,226.217,210.148,225.151,210.148z"/>
	<path style="fill:#55C0EB;" d="M371.284,221.881c-2.133,0-4.267-1.067-6.4-3.2c0-1.067-1.067-1.067-1.067-2.133
		c0-1.067-1.067-2.133-1.067-3.2c-2.133-1.067-4.267-2.133-7.467-2.133h-1.067c-4.267,0-9.6-1.067-14.933-5.333
		c-2.133-2.133-4.267-4.267-5.333-6.4c-1.067-2.133-3.2-3.2-4.267-5.333c-3.2-2.133-6.4-3.2-9.6-4.267
		c-5.333-1.067-9.6-2.133-13.867-2.133s-9.6,1.067-12.8,3.2c-1.067,1.067-2.133,0-3.2-1.067c-1.067-1.067,0-2.133,1.067-3.2
		c4.267-2.133,9.6-3.2,14.933-3.2c4.267,0,8.533,1.067,14.933,2.133c3.2,1.067,7.467,2.133,11.733,5.333
		c2.133,2.133,3.2,3.2,5.333,5.333c2.133,2.133,3.2,4.267,5.333,5.333c3.2,3.2,8.533,3.2,12.8,4.267h1.067c3.2,0,6.4,1.067,9.6,3.2
		c1.067,1.067,2.133,2.133,3.2,3.2l1.067,1.067c1.067,1.067,2.133,2.133,3.2,2.133s2.133,1.067,2.133,2.133
		C374.484,220.814,373.417,220.814,371.284,221.881C372.351,221.881,371.284,221.881,371.284,221.881z"/>
	<path style="fill:#55C0EB;" d="M330.751,195.214c-1.067,0-1.067,0-2.133-1.067c0-1.067,0-2.133,1.067-3.2
		c4.267-2.133,6.4-5.333,7.467-9.6c0-1.067,1.067-2.133,2.133-1.067c1.067,0,2.133,1.067,1.067,2.133
		C340.351,187.747,337.151,193.081,330.751,195.214C331.817,195.214,330.751,195.214,330.751,195.214z"/>
	<path style="fill:#55C0EB;" d="M328.617,185.614c-1.067,0-2.133-1.067-2.133-2.133c0-4.267,1.067-8.533,3.2-10.667
		c0,0,0,0,1.067-1.067c0-1.067,1.067-1.067,1.067-2.133s0-2.133,0-3.2v-1.067c0-3.2,1.067-6.4,3.2-9.6
		c1.067-1.067,2.133-1.067,3.2,0c1.067,1.067,1.067,2.133,0,3.2c-1.067,2.133-2.133,4.267-2.133,6.4v1.067
		c0,1.067,0,3.2-1.067,5.333c0,1.067-1.067,2.133-2.133,3.2c0,0,0,0-1.067,1.067c-2.133,2.133-2.133,5.333-2.133,8.533
		C330.751,184.547,330.751,185.614,328.617,185.614L328.617,185.614z"/>
	<path style="fill:#55C0EB;" d="M370.217,187.747c-1.067,0-1.067,0-1.067-1.067c-2.133-2.133-3.2-5.333-3.2-9.6
		c0-2.133,0-3.2,1.067-5.333c0-1.067,0-2.133,1.067-4.267c0-4.267,0-9.6-1.067-13.867c0-2.133-1.067-5.333-3.2-6.4
		c-1.067,0-3.2,0-4.267,1.067l-1.067,1.067c-1.067,1.067-2.133,2.133-4.267,2.133c-3.2,1.067-7.467,1.067-10.667-2.133
		s-4.267-7.467-3.2-10.667c0-1.067,1.067-2.133,2.133-1.067c1.067,0,2.133,1.067,1.067,2.133c-1.067,2.133,0,5.333,2.133,6.4
		c2.133,1.067,4.267,2.133,6.4,1.067c1.067,0,2.133-1.067,3.2-2.133c1.067,0,1.067-1.067,2.133-1.067
		c3.2-2.133,5.333-2.133,7.467-2.133c4.267,1.067,5.333,6.4,6.4,8.533c1.067,5.333,2.133,9.6,1.067,14.933
		c0,1.067,0,3.2-1.067,4.267c0,1.067-1.067,3.2-1.067,4.267c0,2.133,0,4.267,2.133,6.4c1.067,1.067,1.067,2.133,0,3.2
		C371.284,187.747,371.284,187.747,370.217,187.747z"/>
	<path style="fill:#55C0EB;" d="M371.284,200.547c-2.133,0-4.267-1.067-7.467-2.133c-1.067-1.067-2.133-1.067-3.2-2.133
		s-2.133-2.133-3.2-2.133c0,0,0,0-1.067,0c-4.267-2.133-7.467-6.4-7.467-11.733c0-5.333-1.067-9.6-3.2-14.933
		c0-1.067,0-2.133,1.067-3.2c1.067,0,2.133,0,3.2,1.067c2.133,5.333,3.2,10.667,4.267,16c0,3.2,2.133,6.4,5.333,7.467h1.067
		c1.067,1.067,3.2,2.133,4.267,3.2c1.067,1.067,2.133,1.067,2.133,2.133c1.067,1.067,3.2,2.133,5.333,2.133
		c3.2-1.067,4.267-4.267,4.267-5.333c2.133-7.467,2.133-13.867,0-20.267c-2.133-5.333-4.267-16-2.133-25.6
		c0-1.067,1.067-2.133,2.133-2.133c1.067,0,2.133,1.067,2.133,2.133c-1.067,8.533,1.067,18.133,2.133,23.467
		c2.133,7.467,2.133,13.867,0,22.4c-1.067,4.267-4.267,7.467-7.467,8.533C372.351,200.547,371.284,200.547,371.284,200.547z"/>
	<path style="fill:#55C0EB;" d="M351.017,179.214C351.017,179.214,349.951,179.214,351.017,179.214
		c-2.133-1.067-2.133-2.133-2.133-3.2c2.133-4.267,5.333-7.467,9.6-8.533c1.067,0,2.133,0,2.133,1.067s0,2.133-1.067,2.133
		c-3.2,1.067-6.4,3.2-7.467,6.4C352.084,178.148,352.084,179.214,351.017,179.214z"/>
	<path style="fill:#55C0EB;" d="M369.151,164.281c0,0-1.067,0-1.067-1.067c-2.133-2.133-5.333-4.267-9.6-4.267
		c-1.067,0-2.133-1.067-2.133-2.133c0-1.067,1.067-2.133,2.133-2.133l0,0c4.267,0,8.533,2.133,11.733,5.333
		c1.067,1.067,1.067,2.133,0,3.2C370.217,164.281,370.217,164.281,369.151,164.281z"/>
	<path style="fill:#55C0EB;" d="M323.284,170.681L323.284,170.681c-5.333,0-11.733-1.067-14.933-4.267
		c-1.067-1.067-1.067-2.133,0-3.2c1.067-1.067,2.133-1.067,3.2,0c3.2,2.133,7.467,3.2,12.8,3.2c1.067,0,2.133,1.067,2.133,2.133
		C325.417,169.614,324.351,170.681,323.284,170.681z"/>
	<path style="fill:#55C0EB;" d="M295.551,169.614C295.551,169.614,294.484,169.614,295.551,169.614c-6.4-3.2-9.6-7.467-11.733-12.8
		c0-1.067,0-2.133,1.067-2.133c1.067,0,2.133,0,2.133,1.067c1.067,4.267,4.267,8.533,8.533,10.667c1.067,0,1.067,2.133,1.067,3.2
		C296.617,168.548,296.617,169.614,295.551,169.614z"/>
	<path style="fill:#55C0EB;" d="M237.951,192.014c-1.067,0-1.067,0-2.133-1.067c-1.067-1.067,0-2.133,1.067-3.2
		c3.2-2.133,7.467-2.133,10.667-2.133c3.2,0,6.4,0,8.533-2.133c1.067-1.067,2.133-2.133,4.267-4.267l1.067-1.067
		c2.133-2.133,8.533-5.333,10.667-5.333c1.067,0,2.133,0,2.133,1.067c0,1.067,0,2.133-1.067,2.133c-2.133,0-7.467,3.2-8.533,4.267
		l-1.067,1.067c-1.067,2.133-3.2,3.2-4.267,5.333c-3.2,2.133-7.467,2.133-11.733,2.133
		C244.351,190.947,241.151,190.947,237.951,192.014L237.951,192.014z"/>
	<path style="fill:#55C0EB;" d="M212.351,172.814h-1.067c-1.067-1.067-1.067-2.133,0-3.2c1.067-1.067,1.067-2.133,1.067-3.2
		c0-2.133,0-4.267,2.133-6.4c1.067-1.067,2.133-2.133,3.2-2.133c0,0,1.067,0,1.067-1.067c1.067-1.067,2.133-2.133,2.133-3.2
		c0-1.067,2.133-1.067,3.2-1.067c1.067,0,1.067,2.133,1.067,3.2c-1.067,2.133-2.133,4.267-4.267,5.333c0,0-1.067,0-1.067,1.067
		c-1.067,0-1.067,1.067-2.133,1.067c-1.067,1.067-1.067,2.133-1.067,3.2c0,2.133,0,4.267-2.133,6.4
		C213.417,172.814,212.351,172.814,212.351,172.814z"/>
	<path style="fill:#55C0EB;" d="M276.351,168.548h-1.067c-3.2-2.133-7.467-3.2-11.733-2.133h-1.067c-1.067,0-2.133,1.067-3.2,1.067
		c-2.133,0-4.267,0-5.333-1.067c-2.133-1.067-2.133-3.2-3.2-5.333l0,0c0-2.133-1.067-2.133-1.067-3.2
		c-1.067,0-2.133-1.067-1.067-2.133c0-1.067,1.067-2.133,2.133-1.067c3.2,1.067,4.267,4.267,4.267,5.333l0,0
		c0,1.067,1.067,2.133,1.067,3.2c0,0,1.067,0,2.133,0c1.067,0,1.067,0,2.133-1.067h1.067c5.333-1.067,10.667-1.067,14.933,3.2
		C277.417,166.414,277.417,167.481,276.351,168.548C277.417,168.548,277.417,168.548,276.351,168.548z"/>
	<path style="fill:#55C0EB;" d="M239.017,133.347c-1.067,0-2.133-1.067-2.133-2.133c0-4.267-3.2-8.533-6.4-9.6
		c-1.067-1.067-1.067-2.133-1.067-3.2c1.067-1.067,2.133-1.067,3.2-1.067c5.333,2.133,8.533,7.467,8.533,12.8
		C241.151,131.214,241.151,132.281,239.017,133.347C240.084,132.281,239.017,133.347,239.017,133.347z"/>
	<path style="fill:#55C0EB;" d="M260.351,122.681C259.284,122.681,259.284,122.681,260.351,122.681
		c-2.133-1.067-4.267-2.133-4.267-5.333v-1.067c0-1.067,0-2.133-1.067-2.133c-1.067-1.067-3.2-1.067-4.267,0
		c-1.067,0-2.133-1.067-2.133-2.133c0-1.067,1.067-2.133,2.133-2.133c2.133,0,5.333-1.067,8.533,2.133
		c1.067,1.067,1.067,3.2,2.133,4.267v1.067c0,1.067,1.067,2.133,1.067,2.133c1.067,0,2.133,1.067,1.067,2.133
		C261.417,122.681,260.351,122.681,260.351,122.681z"/>
	<path style="fill:#55C0EB;" d="M263.551,103.481C263.551,103.481,262.484,103.481,263.551,103.481c-3.2-1.067-5.333-4.267-6.4-6.4
		c-1.067-3.2-1.067-6.4,0-8.533c0-1.067,2.133-1.067,3.2-1.067c1.067,0,1.067,2.133,1.067,3.2c-1.067,2.133-1.067,4.267,0,5.333
		c1.067,2.133,2.133,3.2,4.267,4.267c1.067,0,1.067,2.133,1.067,3.2C264.617,102.414,264.617,103.481,263.551,103.481z"/>
	<path style="fill:#55C0EB;" d="M225.151,103.481C225.151,103.481,224.084,103.481,225.151,103.481
		c-5.333-1.067-9.6-5.333-11.733-9.6s-1.067-9.6,1.067-14.933c1.067-1.067,2.133-1.067,3.2-1.067c1.067,1.067,1.067,2.133,1.067,3.2
		c-2.133,3.2-2.133,7.467-1.067,10.667s4.267,6.4,8.533,7.467c1.067,0,2.133,1.067,1.067,2.133
		C226.217,103.481,226.217,103.481,225.151,103.481z"/>
	<path style="fill:#55C0EB;" d="M360.617,128.014c-1.067,0-2.133-1.067-2.133-1.067c-1.067-4.267-6.4-7.467-11.733-6.4
		c-1.067,0-3.2,1.067-4.267,2.133c-1.067,0-2.133,1.067-3.2,1.067c-9.6,4.267-21.333,1.067-27.733-7.467c-1.067-1.067,0-2.133,0-3.2
		c1.067-1.067,2.133,0,3.2,0c5.333,7.467,14.933,9.6,22.4,6.4c1.067,0,2.133-1.067,2.133-1.067c2.133-1.067,3.2-2.133,5.333-2.133
		c6.4-2.133,13.867,2.133,16,8.533C363.817,125.881,362.751,126.947,360.617,128.014
		C361.684,128.014,361.684,128.014,360.617,128.014z"/>
	<path style="fill:#55C0EB;" d="M341.417,122.681L341.417,122.681c-1.067,0-2.133-1.067-2.133-2.133c0-4.267-2.133-9.6-5.333-12.8
		c-1.067-1.067-1.067-2.133,0-3.2c1.067-1.067,2.133-1.067,3.2,0c4.267,4.267,6.4,9.6,6.4,16
		C343.551,121.614,343.551,122.681,341.417,122.681z"/>
	<path style="fill:#55C0EB;" d="M325.417,238.947c-8.533,0-16-3.2-22.4-8.533c-1.067-1.067-2.133-2.133-4.267-4.267
		c-3.2-3.2-5.333-6.4-9.6-7.467c-3.2-1.067-6.4,0-10.667,2.133c-1.067,1.067-2.133,1.067-4.267,2.133
		c-2.133,1.067-5.333,2.133-7.467,3.2c-5.333,2.133-12.8,1.067-19.2,0c-6.4-2.133-11.733-5.333-17.067-7.467
		c-1.067-1.067-1.067-2.133-1.067-3.2c0-1.067,2.133-1.067,3.2-1.067c5.333,2.133,10.667,5.333,16,7.467
		c6.4,2.133,11.733,2.133,17.067,1.067c2.133-1.067,4.267-2.133,7.467-3.2c1.067-1.067,2.133-1.067,4.267-2.133
		c5.333-2.133,9.6-3.2,13.867-2.133c5.333,1.067,8.533,5.333,11.733,8.533c1.067,1.067,2.133,2.133,3.2,3.2
		c8.533,7.467,21.333,9.6,32,4.267c1.067,0,2.133,0,3.2,1.067c0,1.067,0,2.133-1.067,3.2
		C335.017,237.881,329.684,238.947,325.417,238.947z"/>
	<path style="fill:#55C0EB;" d="M278.484,240.014c-1.067,0-1.067,0-2.133-1.067c-1.067-2.133-1.067-5.333-1.067-7.467
		c0-3.2,1.067-5.333,3.2-7.467s4.267-2.133,6.4-3.2h1.067c1.067,0,4.267-1.067,4.267-3.2c0-1.067,1.067-2.133,2.133-1.067
		c1.067,0,2.133,1.067,1.067,2.133c-1.067,3.2-3.2,5.333-7.467,6.4h-1.067c-2.133,0-3.2,1.067-4.267,2.133
		c-1.067,1.067-2.133,2.133-2.133,4.267c0,2.133,0,3.2,1.067,5.333C280.617,237.881,280.617,238.947,278.484,240.014
		L278.484,240.014z"/>
	<path style="fill:#55C0EB;" d="M268.884,225.081C268.884,225.081,267.817,225.081,268.884,225.081
		c-2.133-1.067-2.133-2.133-2.133-3.2c1.067-1.067,2.133-3.2,2.133-4.267c1.067-1.067,2.133-2.133,2.133-3.2
		c1.067-2.133,2.133-4.267,4.267-5.333c4.267-4.267,10.667-4.267,14.933-4.267c1.067,0,2.133,1.067,2.133,2.133
		c0,1.067-1.067,2.133-2.133,2.133l0,0c-5.333,0-9.6,0-12.8,3.2c-1.067,1.067-2.133,3.2-3.2,4.267
		c-1.067,1.067-2.133,3.2-2.133,4.267c-1.067,1.067-2.133,2.133-2.133,3.2C269.951,225.081,269.951,225.081,268.884,225.081z"/>
	<path style="fill:#55C0EB;" d="M317.951,237.881c-1.067,0-1.067,0-1.067-1.067c-1.067-1.067-1.067-2.133,0-3.2
		c3.2-3.2,4.267-7.467,4.267-11.733c0-1.067,1.067-2.133,2.133-2.133c1.067,0,2.133,1.067,2.133,2.133
		c0,6.4-1.067,11.733-5.333,14.933C319.017,237.881,317.951,237.881,317.951,237.881z"/>
	<path style="fill:#55C0EB;" d="M250.751,237.881h-1.067c-3.2-3.2-6.4-6.4-6.4-9.6c0-2.133,1.067-4.267,2.133-5.333
		s2.133-1.067,3.2,0c1.067,1.067,1.067,2.133,0,3.2c-1.067,1.067-1.067,1.067-1.067,2.133c0,2.133,2.133,4.267,4.267,7.467
		c1.067,1.067,1.067,2.133,0,3.2C252.884,237.881,251.817,237.881,250.751,237.881z"/>
	<path style="fill:#55C0EB;" d="M168.617,178.148L168.617,178.148c-1.067,0-2.133-1.067-2.133-2.133c0-2.133,0-4.267-1.067-6.4
		s-2.133-4.267-3.2-5.333l-1.067-1.067c-1.067-2.133-3.2-4.267-4.267-6.4c-1.067-3.2-1.067-6.4,1.067-8.533
		c1.067-1.067,2.133-1.067,3.2,0c1.067,1.067,1.067,2.133,0,3.2c-1.067,1.067-1.067,2.133,0,4.267s2.133,3.2,3.2,5.333l1.067,1.067
		c1.067,2.133,3.2,4.267,4.267,6.4c1.067,3.2,1.067,5.333,1.067,8.533C170.751,178.148,169.684,178.148,168.617,178.148z"/>
</g>
<g>
	<path style="fill:#415A6B;" d="M336.084,372.281h-160c-9.6,0-17.067,7.467-17.067,17.067c0,9.6,7.467,17.067,17.067,17.067h160
		c9.6,0,17.067-7.467,17.067-17.067C353.151,379.747,345.684,372.281,336.084,372.281z"/>
	<path style="fill:#415A6B;" d="M336.084,430.948h-160c-9.6,0-17.067,7.467-17.067,17.067s7.467,17.067,17.067,17.067h160
		c9.6,0,17.067-7.467,17.067-17.067S345.684,430.948,336.084,430.948z"/>
</g>
<g>
</g>
<g>
</g>
<g>
</g>
<g>
</g>
<g>
</g>
<g>
</g>
<g>
</g>
<g>
</g>
<g>
</g>
<g>
</g>
<g>
</g>
<g>
</g>
<g>
</g>
<g>
</g>
<g>
</g>
</svg>
