<?xml version="1.0" encoding="iso-8859-1"?>
<!-- Generator: Adobe Illustrator 19.0.0, SVG Export Plug-In . SVG Version: 6.00 Build 0)  -->
<svg version="1.1" id="Capa_1" xmlns="http://www.w3.org/2000/svg" xmlns:xlink="http://www.w3.org/1999/xlink" x="0px" y="0px"
	 viewBox="0 0 512 512" style="enable-background:new 0 0 512 512;" xml:space="preserve">
<path style="fill:#415A6B;" d="M480,0H32C13.867,0,0,13.867,0,32v346.667c0,18.133,13.867,32,32,32h448c18.133,0,32-13.867,32-32V32
	C512,13.867,498.133,0,480,0z"/>
<rect x="42.667" y="42.667" style="fill:#FFFFFF;" width="426.667" height="274.133"/>
<rect x="42.667" y="42.667" style="fill:#55C0EB;" width="426.667" height="39.467"/>
<g>
	<rect x="165.333" y="220.8" style="fill:#FFD15C;" width="80" height="74.667"/>
	<rect x="266.667" y="220.8" style="fill:#FFD15C;" width="80" height="74.667"/>
	<rect x="368" y="103.467" style="fill:#FFD15C;" width="80" height="96"/>
</g>
<g>
	<rect x="64" y="220.8" style="fill:#F3705A;" width="80" height="74.667"/>
	<rect x="368" y="220.8" style="fill:#F3705A;" width="80" height="74.667"/>
</g>
<rect x="64" y="103.467" style="fill:#FFD15C;" width="80" height="96"/>
<rect x="165.333" y="103.467" style="fill:#F3705A;" width="181.333" height="96"/>
<path style="fill:#415A6B;" d="M117.333,501.333V512h277.333v-10.667c0-17.067-13.867-32-32-32H149.333
	C132.267,469.333,117.333,484.267,117.333,501.333z"/>
<polygon style="fill:#344A5E;" points="178.133,410.667 333.867,410.667 364.8,469.333 147.2,469.333 "/>
<g>
</g>
<g>
</g>
<g>
</g>
<g>
</g>
<g>
</g>
<g>
</g>
<g>
</g>
<g>
</g>
<g>
</g>
<g>
</g>
<g>
</g>
<g>
</g>
<g>
</g>
<g>
</g>
<g>
</g>
</svg>
