<?xml version="1.0" encoding="iso-8859-1"?>
<!-- Generator: Adobe Illustrator 19.0.0, SVG Export Plug-In . SVG Version: 6.00 Build 0)  -->
<svg version="1.1" id="Capa_1" xmlns="http://www.w3.org/2000/svg" xmlns:xlink="http://www.w3.org/1999/xlink" x="0px" y="0px"
	 viewBox="0 0 512 512" style="enable-background:new 0 0 512 512;" xml:space="preserve">
<rect x="10.667" y="181.333" style="fill:#FFD15C;" width="146.133" height="290.133"/>
<rect x="10.667" y="181.333" style="fill:#F7B64C;" width="146.133" height="13.867"/>
<rect y="147.2" style="fill:#FFD15C;" width="167.467" height="35.2"/>
<rect x="355.2" y="245.333" style="fill:#F3705A;" width="146.133" height="226.133"/>
<rect x="355.2" y="245.333" style="fill:#F05540;" width="146.133" height="13.867"/>
<rect x="344.533" y="211.2" style="fill:#F3705A;" width="167.467" height="35.2"/>
<g>
	<path style="fill:#FFFFFF;" d="M92.8,284.8c3.2-4.267,4.267-7.467,4.267-11.733s-1.067-6.4-3.2-9.6
		c-2.133-2.133-5.333-4.267-9.6-4.267C76.8,259.2,70.4,264.533,64,274.133l-21.333-10.667C48,254.933,53.333,249.6,59.733,245.333
		c6.4-4.267,13.867-6.4,24.533-6.4c9.6,0,18.133,3.2,25.6,9.6c7.467,6.4,10.667,14.933,10.667,25.6
		c0,5.333-1.067,11.733-4.267,17.067c-3.2,5.333-8.533,11.733-16,20.267L80,332.8h44.8v22.4h-80V336l33.067-34.133
		C84.267,294.4,89.6,289.067,92.8,284.8z"/>
	<path style="fill:#FFFFFF;" d="M394.667,323.2v-21.333H464V320l-23.467,26.667c8.533,1.067,16,5.333,21.333,11.733
		s7.467,12.8,7.467,21.333c0,11.733-4.267,21.333-11.733,27.733c-8.533,6.4-18.133,9.6-30.933,9.6c-12.8,0-25.6-4.267-38.4-12.8
		L398.933,384c10.667,7.467,20.267,11.733,28.8,11.733c5.333,0,9.6-1.067,12.8-3.2c3.2-2.133,5.333-6.4,5.333-10.667
		c0-4.267-2.133-8.533-5.333-10.667c-4.267-3.2-8.533-4.267-16-4.267c-3.2,0-8.533,1.067-14.933,3.2V352l21.333-25.6h-36.267V323.2z
		"/>
</g>
<rect x="183.467" y="74.667" style="fill:#66C6B9;" width="146.133" height="396.8"/>
<rect x="183.467" y="74.667" style="fill:#4ABAA5;" width="146.133" height="13.867"/>
<rect x="171.733" y="40.533" style="fill:#66C6B9;" width="167.467" height="35.2"/>
<path style="fill:#FFFFFF;" d="M233.6,131.2h45.867v113.067h-24.533v-91.733H233.6L233.6,131.2L233.6,131.2z"/>
<g>
</g>
<g>
</g>
<g>
</g>
<g>
</g>
<g>
</g>
<g>
</g>
<g>
</g>
<g>
</g>
<g>
</g>
<g>
</g>
<g>
</g>
<g>
</g>
<g>
</g>
<g>
</g>
<g>
</g>
</svg>
