<?xml version="1.0" encoding="iso-8859-1"?>
<!-- Generator: Adobe Illustrator 19.0.0, SVG Export Plug-In . SVG Version: 6.00 Build 0)  -->
<svg version="1.1" id="Capa_1" xmlns="http://www.w3.org/2000/svg" xmlns:xlink="http://www.w3.org/1999/xlink" x="0px" y="0px"
	 viewBox="0 0 512 512" style="enable-background:new 0 0 512 512;" xml:space="preserve">
<g>
	<path style="fill:#66C6B9;" d="M98.133,215.467C91.733,304,160,371.2,248.533,365.867
		C253.867,276.267,186.667,209.067,98.133,215.467z"/>
	<path style="fill:#66C6B9;" d="M413.867,215.467c6.4,88.533-61.867,155.733-150.4,150.4
		C258.133,276.267,325.333,209.067,413.867,215.467z"/>
</g>
<rect x="245.333" y="224" style="fill:#415A6B;" width="21.333" height="226.133"/>
<circle style="fill:#FFD15C;" cx="256" cy="119.467" r="119.467"/>
<circle style="fill:#F7B64C;" cx="256" cy="119.467" r="88.533"/>
<path style="fill:#FFD15C;" d="M249.6,182.4v-10.667c-12.8-2.133-24.533-7.467-34.133-17.067l13.867-17.067
	c7.467,6.4,14.933,10.667,21.333,12.8V128c-10.667-2.133-18.133-6.4-22.4-10.667c-5.333-4.267-7.467-10.667-7.467-19.2
	S224,83.2,229.333,76.8c5.333-5.333,12.8-8.533,21.333-9.6V56.533h16v11.733c9.6,1.067,19.2,5.333,29.867,11.733L284.8,97.067
	c-6.4-4.267-11.733-7.467-17.067-8.533v21.333c10.667,3.2,18.133,6.4,23.467,10.667c5.333,4.267,7.467,10.667,7.467,19.2
	c0,8.533-3.2,14.933-8.533,21.333c-5.333,5.333-12.8,8.533-22.4,9.6v10.667H249.6V182.4z M249.6,88.533
	c-4.267,1.067-6.4,4.267-6.4,7.467c0,3.2,2.133,6.4,6.4,8.533V88.533z M273.067,141.867c0-2.133-1.067-4.267-2.133-5.333
	c-1.067-1.067-3.2-2.133-6.4-4.267V150.4C270.933,149.333,273.067,146.133,273.067,141.867z"/>
<path style="fill:#F3705A;" d="M402.133,512C385.067,466.133,326.4,432,256,432s-129.067,34.133-146.133,80H402.133z"/>
<g>
</g>
<g>
</g>
<g>
</g>
<g>
</g>
<g>
</g>
<g>
</g>
<g>
</g>
<g>
</g>
<g>
</g>
<g>
</g>
<g>
</g>
<g>
</g>
<g>
</g>
<g>
</g>
<g>
</g>
</svg>
