<?xml version="1.0" encoding="iso-8859-1"?>
<!-- Generator: Adobe Illustrator 19.0.0, SVG Export Plug-In . SVG Version: 6.00 Build 0)  -->
<svg version="1.1" id="Capa_1" xmlns="http://www.w3.org/2000/svg" xmlns:xlink="http://www.w3.org/1999/xlink" x="0px" y="0px"
	 viewBox="0 0 512 512" style="enable-background:new 0 0 512 512;" xml:space="preserve">
<path style="fill:#F3F3F3;" d="M444.267,0h-377.6C54.933,0,45.333,9.6,45.333,21.333v469.333c0,11.733,9.6,21.333,21.333,21.333
	H350.4l116.267-116.267v-374.4C465.6,9.6,456,0,444.267,0z"/>
<g>
	<rect x="202.133" y="221.867" style="fill:#CED6E0;" width="118.4" height="21.333"/>
	<rect x="202.133" y="176" style="fill:#CED6E0;" width="220.8" height="21.333"/>
	<rect x="202.133" y="107.733" style="fill:#CED6E0;" width="118.4" height="21.333"/>
	<rect x="202.133" y="60.8" style="fill:#CED6E0;" width="220.8" height="21.333"/>
</g>
<path style="fill:#415A6B;" d="M159.467,113.067l-19.2-19.2l19.2-18.133c3.2-3.2,3.2-8.533,0-12.8c-3.2-3.2-8.533-3.2-12.8,0
	l-19.2,19.2l-19.2-19.2c-3.2-3.2-8.533-3.2-12.8,0c-3.2,3.2-3.2,8.533,0,12.8l21.333,19.2l-19.2,19.2c-3.2,3.2-3.2,8.533,0,12.8
	c3.2,3.2,8.533,3.2,12.8,0l19.2-19.2l19.2,19.2c3.2,3.2,8.533,3.2,12.8,0C163.733,122.667,163.733,116.267,159.467,113.067z"/>
<path style="fill:#F3705A;" d="M172.267,179.2c-3.2-3.2-8.533-3.2-12.8,0L116.8,221.867l-18.133-19.2c-3.2-3.2-8.533-3.2-12.8,0
	c-3.2,3.2-3.2,8.533,0,12.8L110.4,240c3.2,3.2,9.6,3.2,12.8,0l49.067-49.067C176.533,187.733,176.533,182.4,172.267,179.2z"/>
<g>
	<rect x="202.133" y="337.067" style="fill:#CED6E0;" width="118.4" height="21.333"/>
	<rect x="202.133" y="291.2" style="fill:#CED6E0;" width="220.8" height="21.333"/>
</g>
<path style="fill:#415A6B;" d="M159.467,343.467l-19.2-19.2l19.2-19.2c3.2-3.2,3.2-8.533,0-12.8c-3.2-3.2-8.533-3.2-12.8,0
	l-19.2,19.2l-19.2-19.2c-3.2-3.2-8.533-3.2-12.8,0c-3.2,3.2-3.2,8.533,0,12.8l19.2,19.2l-19.2,19.2c-3.2,3.2-3.2,8.533,0,12.8
	c3.2,3.2,8.533,3.2,12.8,0l19.2-19.2l19.2,19.2c3.2,3.2,8.533,3.2,12.8,0C163.733,352,163.733,346.667,159.467,343.467z"/>
<polygon style="fill:#CED6E0;" points="349.333,512 465.6,395.733 349.333,395.733 "/>
<g>
</g>
<g>
</g>
<g>
</g>
<g>
</g>
<g>
</g>
<g>
</g>
<g>
</g>
<g>
</g>
<g>
</g>
<g>
</g>
<g>
</g>
<g>
</g>
<g>
</g>
<g>
</g>
<g>
</g>
</svg>
