<?xml version="1.0" encoding="iso-8859-1"?>
<!-- Generator: Adobe Illustrator 19.0.0, SVG Export Plug-In . SVG Version: 6.00 Build 0)  -->
<svg version="1.1" id="Capa_1" xmlns="http://www.w3.org/2000/svg" xmlns:xlink="http://www.w3.org/1999/xlink" x="0px" y="0px"
	 viewBox="0 0 512.533 512.533" style="enable-background:new 0 0 512.533 512.533;" xml:space="preserve">
<g>
	
		<ellipse transform="matrix(0.1029 -0.9947 0.9947 0.1029 92.4183 405.4138)" style="fill:#FFD15C;" cx="270.967" cy="151.471" rx="28.8" ry="17.067"/>
	
		<ellipse transform="matrix(0.1029 0.9947 -0.9947 0.1029 251.0254 25.7886)" style="fill:#FFD15C;" cx="111.216" cy="152.061" rx="28.8" ry="17.067"/>
</g>
<path style="fill:#344A5E;" d="M275.2,135.467H107.733C86.4,43.733,126.933,0,190.933,0C256,0,295.467,43.733,275.2,135.467z"/>
<path style="fill:#55C0EB;" d="M381.867,473.6H0l4.267-141.867C5.333,307.2,22.4,285.867,49.067,278.4l65.067-19.2H268.8
	l65.067,19.2c26.667,7.467,43.733,28.8,44.8,53.333L381.867,473.6z"/>
<path style="fill:#F7B64C;" d="M141.867,177.067v55.467c14.933,30.933,32,46.933,49.067,64c17.067-17.067,34.133-33.067,49.067-64
	v-55.467L141.867,177.067L141.867,177.067z"/>
<polygon style="fill:#FFFFFF;" points="190.933,473.6 154.667,375.467 149.333,285.867 231.467,285.867 226.133,375.467 "/>
<g>
	<polygon style="fill:#F3705A;" points="203.733,326.4 216.533,309.333 190.933,285.867 164.267,309.333 177.067,326.4 	"/>
	<polygon style="fill:#F3705A;" points="177.067,326.4 161.067,416 190.933,473.6 219.733,416 203.733,326.4 	"/>
</g>
<g>
	<polygon style="fill:#F3F3F3;" points="240,225.067 190.933,285.867 226.133,317.867 256,253.867 	"/>
	<polygon style="fill:#F3F3F3;" points="141.867,225.067 190.933,285.867 155.733,317.867 125.867,253.867 	"/>
</g>
<g>
	<polygon style="fill:#8AD7F8;" points="247.467,237.867 304,296.533 251.733,307.2 281.6,333.867 190.933,473.6 	"/>
	<polygon style="fill:#8AD7F8;" points="135.467,237.867 77.867,296.533 130.133,307.2 100.267,333.867 190.933,473.6 	"/>
</g>
<path style="fill:#FFD15C;" d="M233.6,48c-21.333,24.533-54.4,40.533-96,40.533c-5.333,0-10.667,0-16-1.067
	c-5.333,13.867-8.533,30.933-8.533,48c0,57.6,35.2,103.467,78.933,103.467S270.933,192,270.933,135.467
	C269.867,99.2,254.933,67.2,233.6,48z"/>
<rect x="406.13" y="398.709" transform="matrix(-0.7071 -0.7071 0.7071 -0.7071 421.1865 1018.8124)" style="fill:#344A5E;" width="30.933" height="46.933"/>
<circle style="fill:#F3F3F3;" cx="330.667" cy="330.667" r="106.667"/>
<path style="fill:#415A6B;" d="M417.067,417.067c-46.933,46.933-124.8,46.933-171.733,0s-46.933-124.8,0-171.733
	s124.8-46.933,171.733,0S464,369.067,417.067,417.067z M265.6,265.6c-36.267,36.267-36.267,94.933,0,131.2s94.933,36.267,131.2,0
	s36.267-94.933,0-131.2S301.867,229.333,265.6,265.6z"/>
<path style="fill:#F3705A;" d="M471.467,419.2l29.867,29.867c14.933,14.933,14.933,38.4,0,52.267
	c-14.933,14.933-38.4,14.933-52.267,0L419.2,471.467L471.467,419.2z"/>
<path style="fill:#FFD15C;" d="M471.467,419.2L460.8,408.533c-3.2-3.2-7.467-3.2-10.667,0L407.467,451.2
	c-3.2,3.2-3.2,7.467,0,10.667l10.667,10.667L471.467,419.2z"/>
<g>
</g>
<g>
</g>
<g>
</g>
<g>
</g>
<g>
</g>
<g>
</g>
<g>
</g>
<g>
</g>
<g>
</g>
<g>
</g>
<g>
</g>
<g>
</g>
<g>
</g>
<g>
</g>
<g>
</g>
</svg>
