<?xml version="1.0" encoding="iso-8859-1"?>
<!-- Generator: Adobe Illustrator 19.0.0, SVG Export Plug-In . SVG Version: 6.00 Build 0)  -->
<svg version="1.1" id="Capa_1" xmlns="http://www.w3.org/2000/svg" xmlns:xlink="http://www.w3.org/1999/xlink" x="0px" y="0px"
	 viewBox="0 0 512 512" style="enable-background:new 0 0 512 512;" xml:space="preserve">
<g>
	
		<ellipse transform="matrix(0.1463 -0.9892 0.9892 0.1463 -71.2978 486.9215)" style="fill:#FFD15C;" cx="246.467" cy="284.77" rx="23.466" ry="13.866"/>
	
		<ellipse transform="matrix(0.1463 0.9892 -0.9892 0.1463 382.7436 127.8149)" style="fill:#FFD15C;" cx="117.317" cy="285.664" rx="23.466" ry="13.866"/>
</g>
<path style="fill:#344A5E;" d="M254.933,244.267c0,42.667-19.2,98.133-73.6,98.133c-53.333,0-73.6-55.467-73.6-98.133
	s33.067-76.8,73.6-76.8S254.933,201.6,254.933,244.267z"/>
<path style="fill:#415A6B;" d="M349.867,436.267c-3.2-16-13.867-27.733-28.8-33.067l-70.4-22.4l-69.333,29.867L112,380.8
	l-69.333,22.4c-14.933,4.267-26.667,17.067-28.8,33.067L0,512h363.733L349.867,436.267z"/>
<path style="fill:#E8EAE9;" d="M150.4,512h64l14.933-96c0,0,1.067-13.867,2.133-27.733L182.4,409.6l-49.067-21.333
	C134.4,402.133,135.467,416,135.467,416L150.4,512z"/>
<path style="fill:#F3705A;" d="M157.867,512h48l-8.533-60.8l12.8-12.8c0,0-18.133-27.733-27.733-27.733S154.667,438.4,154.667,438.4
	l12.8,12.8L157.867,512z"/>
<path style="fill:#F3F3F3;" d="M136.533,349.867c9.6,25.6,25.6,44.8,45.867,60.8c-14.933,10.667-25.6,21.333-33.067,33.067
	l-25.6-76.8C128,360.533,134.4,350.933,136.533,349.867z"/>
<path style="fill:#344A5E;" d="M123.733,512h25.6L134.4,417.067c0,0-3.2-40.533-3.2-51.2s5.333-14.933,5.333-14.933
	C130.133,347.733,96,409.6,96,409.6l21.333,6.4l-23.467,11.733L123.733,512z"/>
<path style="fill:#F3F3F3;" d="M227.2,349.867c-9.6,25.6-25.6,44.8-45.867,60.8c14.933,10.667,25.6,21.333,33.067,33.067l25.6-76.8
	C234.667,360.533,229.333,350.933,227.2,349.867z"/>
<path style="fill:#344A5E;" d="M232.533,364.8c0,10.667-3.2,51.2-3.2,51.2l-16,96h25.6l30.933-84.267L246.4,416l21.333-6.4
	c0,0-35.2-61.867-40.533-59.733C227.2,349.867,232.533,354.133,232.533,364.8z"/>
<path style="fill:#F7B64C;" d="M136.533,297.6v52.267c9.6,25.6,25.6,44.8,45.867,60.8c20.267-16,36.267-35.2,45.867-60.8V297.6
	H136.533z"/>
<path style="fill:#FFD15C;" d="M188.8,243.2c-22.4,0-40.533-5.333-56.533-13.867c-8.533,14.933-13.867,34.133-13.867,54.4
	c0,46.933,27.733,85.333,62.933,85.333s62.933-38.4,62.933-85.333c0-18.133-4.267-35.2-10.667-49.067
	C220.8,240,205.867,243.2,188.8,243.2z"/>
<circle style="fill:#F3705A;" cx="379.733" cy="132.267" r="132.267"/>
<circle style="fill:#FFFFFF;" cx="379.733" cy="132.267" r="104.533"/>
<path style="fill:#415A6B;" d="M413.867,138.667h-34.133c-3.2,0-6.4-3.2-6.4-6.4v-54.4c0-3.2,3.2-6.4,6.4-6.4c3.2,0,6.4,3.2,6.4,6.4
	v48h27.733c3.2,0,6.4,3.2,6.4,6.4S418.133,138.667,413.867,138.667z"/>
<g>
	<circle style="fill:#E8EAE9;" cx="379.733" cy="48" r="8.533"/>
	<circle style="fill:#E8EAE9;" cx="320" cy="72.533" r="8.533"/>
	<circle style="fill:#E8EAE9;" cx="295.467" cy="132.267" r="8.533"/>
	<circle style="fill:#E8EAE9;" cx="320" cy="192" r="8.533"/>
	<circle style="fill:#E8EAE9;" cx="379.733" cy="216.533" r="8.533"/>
	<circle style="fill:#E8EAE9;" cx="439.467" cy="192" r="8.533"/>
	<circle style="fill:#E8EAE9;" cx="464" cy="132.267" r="8.533"/>
	<circle style="fill:#E8EAE9;" cx="439.467" cy="72.533" r="8.533"/>
</g>
<g>
</g>
<g>
</g>
<g>
</g>
<g>
</g>
<g>
</g>
<g>
</g>
<g>
</g>
<g>
</g>
<g>
</g>
<g>
</g>
<g>
</g>
<g>
</g>
<g>
</g>
<g>
</g>
<g>
</g>
</svg>
