<?xml version="1.0" encoding="iso-8859-1"?>
<!-- Generator: Adobe Illustrator 19.0.0, SVG Export Plug-In . SVG Version: 6.00 Build 0)  -->
<svg version="1.1" id="Capa_1" xmlns="http://www.w3.org/2000/svg" xmlns:xlink="http://www.w3.org/1999/xlink" x="0px" y="0px"
	 viewBox="0 0 513.296 513.296" style="enable-background:new 0 0 513.296 513.296;" xml:space="preserve">
<path style="fill:#F7B64C;" d="M432.832,177.715H271.766l-39.467-48c-2.133-3.2-6.4-5.333-10.667-5.333H59.499
	c-7.467,0-13.867,6.4-13.867,13.867v310.4c0,7.467,6.4,13.867,13.867,13.867h373.333c7.467,0,13.867-6.4,13.867-13.867v-256
	C446.699,184.115,441.366,177.715,432.832,177.715z"/>
<path style="fill:#F3F3F3;" d="M382.699,50.781H172.566l-84.267,84.267v262.4c0,11.733,9.6,21.333,21.333,21.333h274.133
	c11.733,0,21.333-9.6,21.333-21.333V72.115C404.032,60.381,395.499,50.781,382.699,50.781z"/>
<g>
	<rect x="238.699" y="129.715" style="fill:#CED6E0;" width="122.667" height="24.533"/>
	<rect x="130.966" y="188.381" style="fill:#CED6E0;" width="231.467" height="24.533"/>
	<rect x="130.966" y="247.048" style="fill:#CED6E0;" width="231.467" height="24.533"/>
</g>
<path style="fill:#FFD15C;" d="M13.632,292.915h305.067l58.667-59.733c4.267-4.267,9.6-6.4,16-6.4h105.6
	c10.667,0,16,8.533,13.867,18.133l-64,203.733c0,7.467-6.4,13.867-13.867,13.867H61.632c-7.467,0-13.867-6.4-13.867-13.867
	L0.832,308.915C-2.368,300.381,4.032,292.915,13.632,292.915z"/>
<polygon style="fill:#8AD7F8;" points="172.566,50.781 88.299,135.048 172.566,135.048 "/>
<g>
</g>
<g>
</g>
<g>
</g>
<g>
</g>
<g>
</g>
<g>
</g>
<g>
</g>
<g>
</g>
<g>
</g>
<g>
</g>
<g>
</g>
<g>
</g>
<g>
</g>
<g>
</g>
<g>
</g>
</svg>
