<?xml version="1.0" encoding="iso-8859-1"?>
<!-- Generator: Adobe Illustrator 19.0.0, SVG Export Plug-In . SVG Version: 6.00 Build 0)  -->
<svg version="1.1" id="Capa_1" xmlns="http://www.w3.org/2000/svg" xmlns:xlink="http://www.w3.org/1999/xlink" x="0px" y="0px"
	 viewBox="0 0 512 512" style="enable-background:new 0 0 512 512;" xml:space="preserve">
<g>
	
		<ellipse transform="matrix(0.1463 -0.9892 0.9892 0.1463 172.8021 377.4236)" style="fill:#FFD15C;" cx="305.076" cy="88.592" rx="18.133" ry="10.666"/>
	
		<ellipse transform="matrix(0.1463 0.9892 -0.9892 0.1463 265.1891 -129.7828)" style="fill:#FFD15C;" cx="207.789" cy="88.756" rx="18.133" ry="10.666"/>
</g>
<path style="fill:#344A5E;" d="M310.4,57.6c0,32-14.933,73.6-54.4,73.6c-40.533,0-54.4-41.6-54.4-73.6S226.133,0,256,0
	S310.4,25.6,310.4,57.6z"/>
<path style="fill:#415A6B;" d="M386.133,244.267L381.867,208c-2.133-16-12.8-28.8-27.733-34.133L307.2,160L256,182.4L204.8,160
	l-45.867,14.933c-14.933,5.333-26.667,18.133-27.733,34.133l-4.267,36.267h259.2V244.267z"/>
<path style="fill:#E8EAE9;" d="M226.133,244.267H284.8l6.4-57.6c0,0,1.067-10.667,1.067-20.267L256,182.4l-37.333-16
	c1.067,10.667,1.067,20.267,1.067,20.267L226.133,244.267z"/>
<path style="fill:#F3705A;" d="M235.733,244.267h40.533l-8.533-32l9.6-9.6c0,0-13.867-21.333-21.333-21.333
	s-21.333,21.333-21.333,21.333l9.6,9.6L235.733,244.267z"/>
<path style="fill:#F3F3F3;" d="M221.867,136.533c7.467,19.2,19.2,34.133,34.133,45.867c-10.667,7.467-19.2,16-24.533,24.533
	l-19.2-57.6C215.467,145.067,220.8,137.6,221.867,136.533z"/>
<path style="fill:#344A5E;" d="M200.533,244.267H227.2l-6.4-57.6c0,0-2.133-30.933-2.133-38.4c0-8.533,4.267-11.733,4.267-11.733
	c-4.267-1.067-30.933,44.8-30.933,44.8l16,5.333l-17.067,8.533L200.533,244.267z"/>
<path style="fill:#F3F3F3;" d="M290.133,136.533c-7.467,19.2-19.2,34.133-34.133,45.867c10.667,7.467,19.2,16,24.533,24.533
	l19.2-57.6C296.533,145.067,291.2,137.6,290.133,136.533z"/>
<path style="fill:#344A5E;" d="M291.2,186.667l-6.4,57.6h26.667l10.667-49.067l-17.067-8.533l16-5.333c0,0-25.6-45.867-30.933-44.8
	c0,0,4.267,3.2,4.267,11.733C294.4,156.8,291.2,186.667,291.2,186.667z"/>
<path style="fill:#F7B64C;" d="M221.867,98.133V137.6c7.467,19.2,19.2,34.133,34.133,45.867
	c14.933-11.733,26.667-26.667,34.133-45.867V98.133H221.867z"/>
<path style="fill:#FFD15C;" d="M302.933,84.267c2.133,36.267-19.2,67.2-46.933,67.2s-49.067-30.933-46.933-67.2
	c1.067-11.733,3.2-22.4,7.467-30.933c3.2,2.133,10.667,3.2,24.533-8.533c20.267,24.533,45.867,9.6,60.8,29.867
	C302.933,77.867,302.933,81.067,302.933,84.267z"/>
<path style="fill:#4ABAA5;" d="M250.667,512l-5.333-34.133c-3.2-18.133-17.067-33.067-35.2-36.267
	c-56.533-10.667-115.2-10.667-170.667,0c-18.133,3.2-32,18.133-35.2,36.267L0,512H250.667z"/>
<polygon style="fill:#CED6E0;" points="139.733,512 157.867,427.733 92.8,427.733 110.933,512 "/>
<g>
	<polygon style="fill:#415A6B;" points="145.067,512 105.6,512 116.267,478.933 134.4,478.933 	"/>
	<polygon style="fill:#415A6B;" points="134.4,478.933 145.067,468.267 125.867,449.067 105.6,468.267 116.267,478.933 	"/>
</g>
<polygon style="fill:#F7B64C;" points="125.867,449.067 125.867,449.067 154.667,421.333 154.667,394.667 96,394.667 96,421.333 "/>
<g>
	<path style="fill:#FFD15C;" d="M190.933,363.733c-2.133,9.6-9.6,16-16,14.933c-6.4-2.133-9.6-10.667-7.467-20.267
		s9.6-14.933,16-13.867C189.867,345.6,193.067,355.2,190.933,363.733z"/>
	<path style="fill:#FFD15C;" d="M59.733,363.733c2.133,9.6,9.6,16,16,14.933c6.4-2.133,9.6-10.667,7.467-20.267
		c-2.133-9.6-9.6-14.933-16-13.867C61.867,345.6,57.6,355.2,59.733,363.733z"/>
</g>
<path style="fill:#344A5E;" d="M72.533,374.4c-7.467-17.067-7.467-34.133-7.467-48c1.067-43.733,26.667-70.4,61.867-70.4
	s60.8,25.6,59.733,69.333c0,16-1.067,30.933-9.6,48L72.533,374.4z"/>
<g>
	<polygon style="fill:#F3F3F3;" points="162.133,436.267 147.2,474.667 125.867,449.067 154.667,421.333 	"/>
	<polygon style="fill:#F3F3F3;" points="88.533,436.267 104.533,474.667 125.867,449.067 96,421.333 	"/>
</g>
<g>
	<polygon style="fill:#66C6B9;" points="161.067,512 181.333,474.667 166.4,464 183.467,453.333 157.867,427.733 139.733,512 	"/>
	<polygon style="fill:#66C6B9;" points="69.333,474.667 89.6,512 110.933,512 92.8,427.733 67.2,453.333 84.267,464 	"/>
</g>
<path style="fill:#FFD15C;" d="M133.333,295.467c-14.933,16-34.133,27.733-59.733,32c-2.133,7.467-4.267,16-4.267,24.533
	c0,37.333,25.6,68.267,56.533,68.267S182.4,389.333,182.4,352c0-8.533-1.067-17.067-4.267-24.533
	C158.933,322.133,144,310.4,133.333,295.467z"/>
<path style="fill:#F05540;" d="M512,512l-5.333-48c-3.2-18.133-17.067-33.067-35.2-36.267c-56.533-10.667-115.2-10.667-170.667,0
	c-18.133,3.2-32,18.133-35.2,36.267l-4.267,48H512z"/>
<polygon style="fill:#CED6E0;" points="401.067,512 419.2,412.8 354.133,412.8 372.267,512 "/>
<g>
	<polygon style="fill:#415A6B;" points="406.4,512 366.933,512 377.6,465.067 395.733,465.067 	"/>
	<polygon style="fill:#415A6B;" points="395.733,465.067 406.4,454.4 386.133,434.133 366.933,454.4 377.6,465.067 	"/>
</g>
<polygon style="fill:#F7B64C;" points="386.133,434.133 386.133,434.133 416,407.467 416,379.733 357.333,379.733 357.333,407.467 
	"/>
<g>
	<polygon style="fill:#F3F3F3;" points="423.467,421.333 407.467,459.733 386.133,434.133 416,407.467 	"/>
	<polygon style="fill:#F3F3F3;" points="349.867,421.333 364.8,459.733 386.133,434.133 357.333,407.467 	"/>
</g>
<g>
	<polygon style="fill:#F3705A;" points="422.4,512 442.667,459.733 427.733,450.133 444.8,439.467 419.2,412.8 401.067,512 	"/>
	<polygon style="fill:#F3705A;" points="330.667,459.733 350.933,512 372.267,512 354.133,412.8 328.533,439.467 345.6,450.133 	"/>
</g>
<g>
	<path style="fill:#FFD15C;" d="M452.267,349.867c-2.133,9.6-9.6,16-16,14.933c-6.4-2.133-9.6-10.667-7.467-20.267
		c2.133-9.6,9.6-14.933,16-13.867C450.133,331.733,454.4,340.267,452.267,349.867z"/>
	<path style="fill:#FFD15C;" d="M321.067,349.867c2.133,9.6,9.6,16,16,14.933c6.4-2.133,9.6-10.667,7.467-20.267
		c-2.133-9.6-9.6-14.933-16-13.867C322.133,331.733,318.933,340.267,321.067,349.867z"/>
</g>
<path style="fill:#344A5E;" d="M336,364.8c-7.467-14.933-9.6-30.933-9.6-44.8c1.067-39.467,26.667-64,61.867-65.067
	c35.2,0,60.8,23.467,59.733,62.933c0,14.933-1.067,28.8-9.6,44.8L336,364.8z"/>
<path style="fill:#FFD15C;" d="M387.2,309.333c-16,0-29.867-3.2-41.6-7.467c-8.533,11.733-13.867,27.733-13.867,45.867
	c0,38.4,24.533,69.333,54.4,69.333c29.867,0,54.4-30.933,54.4-69.333c0-17.067-5.333-33.067-13.867-45.867
	C417.067,306.133,403.2,309.333,387.2,309.333z"/>
<path style="fill:#344A5E;" d="M300.8,377.6l-34.133-33.067v-48c0-6.4-4.267-10.667-10.667-10.667l0,0
	c-6.4,0-10.667,4.267-10.667,10.667v48L211.2,378.667c-4.267,4.267-4.267,10.667,0,14.933l0,0c4.267,4.267,10.667,4.267,14.933,0
	l28.8-28.8l28.8,28.8c4.267,4.267,10.667,4.267,14.933,0C304,389.333,304,381.867,300.8,377.6z"/>
<g>
</g>
<g>
</g>
<g>
</g>
<g>
</g>
<g>
</g>
<g>
</g>
<g>
</g>
<g>
</g>
<g>
</g>
<g>
</g>
<g>
</g>
<g>
</g>
<g>
</g>
<g>
</g>
<g>
</g>
</svg>
