<?xml version="1.0" encoding="iso-8859-1"?>
<!-- Generator: Adobe Illustrator 19.0.0, SVG Export Plug-In . SVG Version: 6.00 Build 0)  -->
<svg version="1.1" id="Capa_1" xmlns="http://www.w3.org/2000/svg" xmlns:xlink="http://www.w3.org/1999/xlink" x="0px" y="0px"
	 viewBox="0 0 512 512" style="enable-background:new 0 0 512 512;" xml:space="preserve">
<path style="fill:#415A6B;" d="M480,512H32c-18.133,0-32-13.867-32-32V32C0,13.867,13.867,0,32,0h448c18.133,0,32,13.867,32,32v448
	C512,498.133,498.133,512,480,512z"/>
<g>
	<circle style="fill:#FFFFFF;" cx="65.067" cy="55.467" r="22.4"/>
	<circle style="fill:#FFFFFF;" cx="134.4" cy="55.467" r="22.4"/>
	<circle style="fill:#FFFFFF;" cx="202.667" cy="55.467" r="22.4"/>
	<rect x="42.667" y="112" style="fill:#FFFFFF;" width="426.667" height="357.333"/>
</g>
<circle style="fill:#F3705A;" cx="157.867" cy="215.467" r="62.933"/>
<g>
	<rect x="84.267" y="312.533" style="fill:#E8EAE9;" width="147.2" height="20.267"/>
	<rect x="84.267" y="360.533" style="fill:#E8EAE9;" width="147.2" height="20.267"/>
	<rect x="84.267" y="409.6" style="fill:#E8EAE9;" width="147.2" height="20.267"/>
</g>
<circle style="fill:#FFD15C;" cx="354.133" cy="215.467" r="62.933"/>
<g>
	<rect x="280.533" y="312.533" style="fill:#E8EAE9;" width="147.2" height="20.267"/>
	<rect x="280.533" y="360.533" style="fill:#E8EAE9;" width="147.2" height="20.267"/>
	<rect x="280.533" y="409.6" style="fill:#E8EAE9;" width="147.2" height="20.267"/>
</g>
<g>
</g>
<g>
</g>
<g>
</g>
<g>
</g>
<g>
</g>
<g>
</g>
<g>
</g>
<g>
</g>
<g>
</g>
<g>
</g>
<g>
</g>
<g>
</g>
<g>
</g>
<g>
</g>
<g>
</g>
</svg>
