<?xml version="1.0" encoding="iso-8859-1"?>
<!-- Generator: Adobe Illustrator 19.0.0, SVG Export Plug-In . SVG Version: 6.00 Build 0)  -->
<svg version="1.1" id="Capa_1" xmlns="http://www.w3.org/2000/svg" xmlns:xlink="http://www.w3.org/1999/xlink" x="0px" y="0px"
	 viewBox="0 0 512 512" style="enable-background:new 0 0 512 512;" xml:space="preserve">
<path style="fill:#F3705A;" d="M460.13,285.867v92.8L424.93,384c-10.667,34.133-30.933,60.8-56.533,80v48h-73.6l-6.4-14.933
	c-30.933,5.333-62.933,3.2-94.933-5.333l-6.4,20.267h-74.667v-61.867c-11.733-9.6-22.4-20.267-32-33.067
	C8.93,311.467,79.33,167.467,207.33,156.8c25.6-2.133,55.467-2.133,85.333,4.267C309.73,137.6,344.93,110.933,406.797,140.8
	l-28.8,62.933c19.2,17.067,36.267,40.533,51.2,71.467L460.13,285.867z"/>
<g>
	<path style="fill:#FFFFFF;" d="M185.997,220.8c-5.333,0-9.6-3.2-10.667-8.533c-2.133-6.4,2.133-12.8,7.467-14.933
		c10.667-3.2,19.2-5.333,28.8-5.333c22.4-2.133,43.733,0,65.067,4.267c6.4,1.067,9.6,7.467,8.533,13.867
		c-1.067,6.4-7.467,9.6-13.867,8.533c-18.133-4.267-37.333-5.333-57.6-4.267c-7.467,1.067-14.933,2.133-23.467,4.267
		C188.13,220.8,187.063,220.8,185.997,220.8z"/>
	<circle style="fill:#FFFFFF;" cx="363.063" cy="266.667" r="16"/>
</g>
<circle style="fill:#FFD15C;" cx="188.13" cy="94.933" r="94.933"/>
<circle style="fill:#F7B64C;" cx="188.13" cy="94.933" r="70.4"/>
<path style="fill:#FFD15C;" d="M183.863,141.867v-8.533c-9.6-1.067-19.2-6.4-26.667-12.8l10.667-12.8c6.4,5.333,11.733,8.533,16,9.6
	v-17.067c-8.533-2.133-13.867-5.333-18.133-8.533c-3.2-3.2-5.333-8.533-5.333-14.933s2.133-11.733,6.4-16
	c4.267-4.267,9.6-7.467,17.067-7.467v-6.4h11.733v6.4c7.467,1.067,14.933,4.267,22.4,9.6l-9.6,13.867
	c-5.333-3.2-9.6-5.333-13.867-6.4v17.067C203.063,89.6,208.397,92.8,212.663,96c4.267,3.2,6.4,8.533,6.4,14.933
	c0,6.4-2.133,11.733-6.4,16s-10.667,6.4-18.133,7.467v8.533h-10.667V141.867z M183.863,69.333c-3.2,1.067-5.333,3.2-5.333,6.4
	s2.133,5.333,5.333,7.467V69.333z M201.997,110.933c0-2.133,0-3.2-1.067-4.267c-1.067-1.067-2.133-2.133-4.267-3.2v13.867
	C199.863,116.267,201.997,114.133,201.997,110.933z"/>
<g>
</g>
<g>
</g>
<g>
</g>
<g>
</g>
<g>
</g>
<g>
</g>
<g>
</g>
<g>
</g>
<g>
</g>
<g>
</g>
<g>
</g>
<g>
</g>
<g>
</g>
<g>
</g>
<g>
</g>
</svg>
