<?xml version="1.0" encoding="iso-8859-1"?>
<!-- Generator: Adobe Illustrator 19.0.0, SVG Export Plug-In . SVG Version: 6.00 Build 0)  -->
<svg version="1.1" id="Capa_1" xmlns="http://www.w3.org/2000/svg" xmlns:xlink="http://www.w3.org/1999/xlink" x="0px" y="0px"
	 viewBox="0 0 512 512" style="enable-background:new 0 0 512 512;" xml:space="preserve">
<path style="fill:#FFD15C;" d="M258.133,105.6c-83.2,0-150.4,67.2-150.4,150.4s67.2,150.4,150.4,150.4s150.4-67.2,150.4-150.4
	S341.333,105.6,258.133,105.6z"/>
<path style="fill:#F7B64C;" d="M258.133,144c-61.867,0-112,50.133-112,112s50.133,112,112,112s112-50.133,112-112
	S320,144,258.133,144z"/>
<path style="fill:#FFD15C;" d="M250.667,329.6v-12.8c-14.933-2.133-28.8-9.6-41.6-20.267l17.067-20.267
	c9.6,8.533,18.133,12.8,25.6,16V265.6c-12.8-3.2-21.333-7.467-27.733-12.8c-5.333-5.333-8.533-12.8-8.533-23.467
	c0-10.667,3.2-18.133,9.6-25.6c6.4-6.4,14.933-10.667,26.667-11.733v-8.533h19.2V192c11.733,2.133,23.467,6.4,35.2,14.933
	L291.2,228.267c-7.467-5.333-14.933-8.533-21.333-10.667v25.6c12.8,3.2,22.4,7.467,28.8,13.867c6.4,5.333,9.6,13.867,9.6,23.467
	c0,10.667-3.2,19.2-10.667,25.6c-6.4,6.4-16,10.667-27.733,11.733v12.8h-19.2V329.6z M250.667,216.533
	c-5.333,2.133-7.467,5.333-7.467,9.6s2.133,8.533,7.467,10.667V216.533z M278.4,281.6c0-2.133-1.067-4.267-2.133-6.4
	c-1.067-2.133-3.2-3.2-7.467-4.267v22.4C275.2,290.133,278.4,286.933,278.4,281.6z"/>
<path style="fill:#F3705A;" d="M240,433.067C150.4,424.533,78.933,348.8,78.933,256c0-98.133,78.933-177.067,177.067-177.067
	c42.667,0,82.133,14.933,113.067,40.533L425.6,64C379.733,24.533,321.067,0,256,0C115.2,0,0,115.2,0,256
	c0,135.467,106.667,247.467,240,256V433.067z"/>
<path style="fill:#415A6B;" d="M450.133,89.6l-55.467,55.467c21.333,25.6,35.2,57.6,38.4,92.8H512
	C507.733,181.333,485.333,130.133,450.133,89.6z"/>
<path style="fill:#8AD7F8;" d="M433.067,274.133c-8.533,83.2-73.6,148.267-156.8,157.867v80
	c125.867-9.6,227.2-110.933,235.733-237.867H433.067z"/>
<g>
</g>
<g>
</g>
<g>
</g>
<g>
</g>
<g>
</g>
<g>
</g>
<g>
</g>
<g>
</g>
<g>
</g>
<g>
</g>
<g>
</g>
<g>
</g>
<g>
</g>
<g>
</g>
<g>
</g>
</svg>
