<?xml version="1.0" encoding="iso-8859-1"?>
<!-- Generator: Adobe Illustrator 19.0.0, SVG Export Plug-In . SVG Version: 6.00 Build 0)  -->
<svg version="1.1" id="Capa_1" xmlns="http://www.w3.org/2000/svg" xmlns:xlink="http://www.w3.org/1999/xlink" x="0px" y="0px"
	 viewBox="0 0 512 512" style="enable-background:new 0 0 512 512;" xml:space="preserve">
<path style="fill:#E8EAE9;" d="M32,512h448c18.133,0,32-13.867,32-32V32c0-18.133-13.867-32-32-32H32C13.867,0,0,13.867,0,32v448
	C0,498.133,13.867,512,32,512z"/>
<rect x="42.667" y="112" style="fill:#FFFFFF;" width="426.667" height="357.333"/>
<path style="fill:#F3705A;" d="M372.267,302.933C372.267,374.4,314.667,432,243.2,432s-129.067-57.6-129.067-129.067
	s57.6-129.067,129.067-129.067v129.067H372.267z"/>
<path style="fill:#55C0EB;" d="M268.8,149.333V278.4h129.067C396.8,206.933,339.2,149.333,268.8,149.333z"/>
<circle style="fill:#F3705A;" cx="446.933" cy="55.467" r="22.4"/>
<circle style="fill:#FFD15C;" cx="377.6" cy="55.467" r="22.4"/>
<circle style="fill:#415A6B;" cx="309.333" cy="55.467" r="22.4"/>
<g>
</g>
<g>
</g>
<g>
</g>
<g>
</g>
<g>
</g>
<g>
</g>
<g>
</g>
<g>
</g>
<g>
</g>
<g>
</g>
<g>
</g>
<g>
</g>
<g>
</g>
<g>
</g>
<g>
</g>
</svg>
