<?xml version="1.0" encoding="iso-8859-1"?>
<!-- Generator: Adobe Illustrator 19.0.0, SVG Export Plug-In . SVG Version: 6.00 Build 0)  -->
<svg version="1.1" id="Capa_1" xmlns="http://www.w3.org/2000/svg" xmlns:xlink="http://www.w3.org/1999/xlink" x="0px" y="0px"
	 viewBox="0 0 512 512" style="enable-background:new 0 0 512 512;" xml:space="preserve">
<g>
	
		<ellipse transform="matrix(0.1029 -0.9947 0.9947 0.1029 172.9878 411.6454)" style="fill:#FFD15C;" cx="314.707" cy="109.92" rx="20.267" ry="12.8"/>
	
		<ellipse transform="matrix(0.1029 0.9947 -0.9947 0.1029 288.1848 -98.1263)" style="fill:#FFD15C;" cx="198.493" cy="110.704" rx="20.267" ry="12.8"/>
</g>
<path style="fill:#344A5E;" d="M316.8,98.133H195.2C176,34.133,205.867,0,256,0C307.2,0,337.067,34.133,316.8,98.133z"/>
<path style="fill:#66C6B9;" d="M402.133,292.267l-8.533-46.933c-3.2-19.2-17.067-34.133-36.267-39.467l-60.8-16h-81.067l-60.8,16
	c-18.133,5.333-33.067,20.267-36.267,39.467l-8.533,46.933H402.133z"/>
<g>
	<polygon style="fill:#F3705A;" points="266.667,241.067 276.267,229.333 256,205.867 235.733,229.333 245.333,241.067 	"/>
	<polygon style="fill:#F3705A;" points="277.333,292.267 266.667,241.067 245.333,241.067 235.733,292.267 	"/>
</g>
<path style="fill:#F7B64C;" d="M286.933,156.8v13.867c-9.6,21.333-19.2,23.467-30.933,35.2c-11.733-12.8-21.333-13.867-29.867-35.2
	V156.8c8.533-23.467,20.267-38.4,30.933-50.133C266.667,118.4,278.4,133.333,286.933,156.8z"/>
<g>
	<polygon style="fill:#F3F3F3;" points="286.933,170.667 256,205.867 278.4,235.733 296.533,188.8 	"/>
	<polygon style="fill:#F3F3F3;" points="226.133,170.667 256,205.867 234.667,235.733 215.467,188.8 	"/>
</g>
<path style="fill:#FFD15C;" d="M313.6,59.733c-8.533,5.333-19.2,8.533-28.8,9.6c-13.867,1.067-27.733-6.4-40.533-17.067
	c-2.133,2.133-4.267,3.2-5.333,5.333c-9.6,8.533-11.733,10.667-26.667,14.933C208,73.6,203.733,74.667,198.4,74.667
	c1.067,58.667,26.667,105.6,57.6,105.6c32,0,57.6-49.067,57.6-109.867C314.667,67.2,313.6,62.933,313.6,59.733z"/>
<circle style="fill:#F3705A;" cx="92.8" cy="419.2" r="92.8"/>
<g>
	<path style="fill:#FFFFFF;" d="M151.467,466.133C140.8,444.8,118.4,429.867,92.8,429.867s-48,14.933-58.667,36.267
		C48,483.2,68.267,493.867,92.8,493.867C116.267,493.867,137.6,482.133,151.467,466.133z"/>
	<circle style="fill:#FFFFFF;" cx="92.8" cy="392.533" r="24.533"/>
</g>
<circle style="fill:#FFD15C;" cx="419.2" cy="419.2" r="92.8"/>
<g>
	<path style="fill:#FFFFFF;" d="M476.8,466.133c-10.667-21.333-33.067-36.267-58.667-36.267c-25.6,0-48,14.933-58.667,36.267
		c13.867,17.067,34.133,27.733,58.667,27.733S462.933,482.133,476.8,466.133z"/>
	<circle style="fill:#FFFFFF;" cx="419.2" cy="392.533" r="24.533"/>
</g>
<polygon style="fill:#415A6B;" points="310.4,421.333 295.467,437.333 256,397.867 217.6,437.333 202.667,421.333 245.333,378.667 
	245.333,317.867 266.667,317.867 266.667,378.667 "/>
<g>
</g>
<g>
</g>
<g>
</g>
<g>
</g>
<g>
</g>
<g>
</g>
<g>
</g>
<g>
</g>
<g>
</g>
<g>
</g>
<g>
</g>
<g>
</g>
<g>
</g>
<g>
</g>
<g>
</g>
</svg>
