<?xml version="1.0" encoding="iso-8859-1"?>
<!-- Generator: Adobe Illustrator 19.0.0, SVG Export Plug-In . SVG Version: 6.00 Build 0)  -->
<svg version="1.1" id="Capa_1" xmlns="http://www.w3.org/2000/svg" xmlns:xlink="http://www.w3.org/1999/xlink" x="0px" y="0px"
	 viewBox="0 0 512 512" style="enable-background:new 0 0 512 512;" xml:space="preserve">
<g>
	
		<ellipse transform="matrix(0.1029 -0.9947 0.9947 0.1029 226.5806 588.2689)" style="fill:#FFD15C;" cx="439.422" cy="168.52" rx="22.4" ry="12.8"/>
	
		<ellipse transform="matrix(0.1029 0.9947 -0.9947 0.1029 450.8717 -164.9465)" style="fill:#FFD15C;" cx="316.881" cy="167.487" rx="22.4" ry="12.8"/>
</g>
<path style="fill:#344A5E;" d="M442.667,155.733H313.6c-16-70.4,14.933-104.533,64-104.533
	C427.733,51.2,458.667,85.333,442.667,155.733z"/>
<path style="fill:#F7B64C;" d="M410.667,216.533v14.933c-9.6,22.4-20.267,35.2-32,48c-11.733-13.867-22.4-25.6-32-48v-14.933
	C355.2,192,368,176,378.667,163.2C389.333,177.067,402.133,193.067,410.667,216.533z"/>
<polygon style="fill:#FFFFFF;" points="354.133,349.867 401.067,349.867 404.267,345.6 406.4,272 348.8,272 350.933,345.6 "/>
<g>
	<path style="fill:#344A5E;" d="M387.2,298.667l8.533-8.533c0,0-11.733-18.133-18.133-18.133c-6.4,0-18.133,18.133-18.133,18.133
		l8.533,8.533H387.2z"/>
	<polygon style="fill:#344A5E;" points="394.667,349.867 387.2,298.667 368,298.667 360.533,349.867 	"/>
</g>
<g>
	<path style="fill:#F3F3F3;" d="M410.667,227.2c-7.467,17.067-19.2,32-32,44.8l25.6,25.6l19.2-49.067L410.667,227.2z"/>
	<path style="fill:#F3F3F3;" d="M345.6,227.2c6.4,17.067,18.133,32,32,44.8L352,297.6l-19.2-49.067L345.6,227.2z"/>
</g>
<g>
	<path style="fill:#4ABAA5;" d="M512,349.867v-54.4c0-16-10.667-28.8-25.6-32L416,249.6l-26.667,100.267H512z"/>
	<path style="fill:#4ABAA5;" d="M366.933,349.867L340.267,249.6l-70.4,13.867c-14.933,3.2-25.6,16-25.6,32v54.4H366.933z"/>
</g>
<g>
	<polygon style="fill:#66C6B9;" points="407.467,349.867 444.8,298.667 429.867,291.2 454.4,263.467 416,235.733 388.267,349.867 	
		"/>
	<polygon style="fill:#66C6B9;" points="311.467,298.667 348.8,349.867 368,349.867 340.267,235.733 301.867,263.467 326.4,291.2 	
		"/>
</g>
<g>
	<path style="fill:#FFD15C;" d="M423.467,92.8c-7.467,24.533-28.8,43.733-61.867,43.733c-17.067,0-30.933-5.333-41.6-13.867
		c-2.133,8.533-3.2,18.133-3.2,27.733c0,48,27.733,86.4,60.8,86.4s60.8-38.4,60.8-86.4C439.467,128,433.067,107.733,423.467,92.8z"
		/>
	
		<ellipse transform="matrix(0.1029 -0.9947 0.9947 0.1029 33.1464 476.1995)" style="fill:#FFD15C;" cx="280.575" cy="219.724" rx="28.8" ry="17.067"/>
	
		<ellipse transform="matrix(0.1029 0.9947 -0.9947 0.1029 326.0681 79.4499)" style="fill:#FFD15C;" cx="118.988" cy="220.495" rx="28.8" ry="17.067"/>
</g>
<path style="fill:#344A5E;" d="M284.8,203.733H114.133c-21.333-92.8,19.2-137.6,85.333-137.6
	C265.6,66.133,306.133,110.933,284.8,203.733z"/>
<path style="fill:#F7B64C;" d="M242.133,284.8v20.267c-12.8,29.867-26.667,45.867-42.667,62.933
	c-16-18.133-29.867-33.067-42.667-62.933V284.8c11.733-32,28.8-53.333,42.667-70.4C214.4,231.467,230.4,252.8,242.133,284.8z"/>
<polygon style="fill:#FFFFFF;" points="167.467,460.8 230.4,460.8 233.6,454.4 236.8,356.267 161.067,356.267 164.267,454.4 "/>
<g>
	<path style="fill:#F3705A;" d="M211.2,392.533l11.733-11.733c0,0-16-24.533-24.533-24.533S173.867,380.8,173.867,380.8
		l11.733,11.733H211.2z"/>
	<polygon style="fill:#F3705A;" points="221.867,460.8 211.2,392.533 185.6,392.533 176,460.8 	"/>
</g>
<g>
	<polygon style="fill:#F3F3F3;" points="242.133,298.667 199.467,357.333 232.533,390.4 258.133,325.333 	"/>
	<polygon style="fill:#F3F3F3;" points="156.8,298.667 199.467,357.333 166.4,390.4 140.8,325.333 	"/>
</g>
<path style="fill:#FFD15C;" d="M227.2,126.933C204.8,150.4,173.867,166.4,132.267,166.4c-3.2,0-6.4,0-8.533,0
	c-3.2,11.733-4.267,23.467-4.267,36.267c0,59.733,36.267,108.8,80,108.8s80-49.067,80-108.8c0-20.267-4.267-38.4-10.667-54.4
	C252.8,141.867,238.933,135.467,227.2,126.933z"/>
<g>
	<path style="fill:#415A6B;" d="M398.933,460.8l-12.8-60.8c-5.333-28.8-27.733-51.2-56.533-56.533l-80-16L213.333,460.8H398.933z"/>
	<path style="fill:#415A6B;" d="M185.6,460.8l-35.2-133.333l-81.067,16C40.533,348.8,18.133,371.2,12.8,400L0,460.8H185.6z"/>
</g>
<g>
	<polygon style="fill:#344A5E;" points="237.867,460.8 286.933,392.533 268.8,381.867 300.8,346.667 249.6,310.4 212.267,460.8 	"/>
	<polygon style="fill:#344A5E;" points="112,392.533 161.067,460.8 186.667,460.8 150.4,310.4 99.2,346.667 131.2,381.867 	"/>
</g>
<g>
</g>
<g>
</g>
<g>
</g>
<g>
</g>
<g>
</g>
<g>
</g>
<g>
</g>
<g>
</g>
<g>
</g>
<g>
</g>
<g>
</g>
<g>
</g>
<g>
</g>
<g>
</g>
<g>
</g>
</svg>
