<?xml version="1.0" encoding="iso-8859-1"?>
<!-- Generator: Adobe Illustrator 19.0.0, SVG Export Plug-In . SVG Version: 6.00 Build 0)  -->
<svg version="1.1" id="Capa_1" xmlns="http://www.w3.org/2000/svg" xmlns:xlink="http://www.w3.org/1999/xlink" x="0px" y="0px"
	 viewBox="0 0 512 512" style="enable-background:new 0 0 512 512;" xml:space="preserve">
<path style="fill:#415A6B;" d="M386.643,512H126.376c-20.267,0-37.333-17.067-37.333-37.333V37.333
	C89.043,17.067,106.11,0,126.376,0h259.2c20.267,0,37.333,17.067,37.333,37.333v437.333C423.976,494.933,406.91,512,386.643,512z"/>
<rect x="89.043" y="62.933" style="fill:#F3F3F3;" width="333.867" height="334.933"/>
<path style="fill:#415A6B;" d="M334.376,89.6h29.867c8.533,0,16,7.467,16,16v40.533c0,8.533-7.467,16-16,16h-29.867
	c-8.533,0-16-7.467-16-16V105.6C318.376,97.067,325.843,89.6,334.376,89.6z"/>
<path style="fill:#4ABAA5;" d="M271.443,89.6h-29.867c-8.533,0-16,7.467-16,16v40.533c0,8.533,7.467,16,16,16h29.867
	c8.533,0,16-7.467,16-16V105.6C287.443,97.067,279.976,89.6,271.443,89.6z"/>
<path style="fill:#F05540;" d="M148.776,89.6h29.867c8.533,0,16,7.467,16,16v40.533c0,8.533-7.467,16-16,16h-29.867
	c-8.533,0-16-7.467-16-16V105.6C132.776,97.067,140.243,89.6,148.776,89.6z"/>
<path style="fill:#415A6B;" d="M241.576,194.133h29.867c8.533,0,16,7.467,16,16v40.533c0,8.533-7.467,16-16,16h-29.867
	c-8.533,0-16-7.467-16-16v-40.533C225.576,200.533,233.043,194.133,241.576,194.133z"/>
<path style="fill:#4ABAA5;" d="M148.776,194.133h29.867c8.533,0,16,7.467,16,16v40.533c0,8.533-7.467,16-16,16h-29.867
	c-8.533,0-16-7.467-16-16v-40.533C132.776,200.533,140.243,194.133,148.776,194.133z"/>
<path style="fill:#F05540;" d="M364.243,195.2h-29.867c-8.533,0-16,7.467-16,16v40.533c0,8.533,7.467,16,16,16h29.867
	c8.533,0,16-7.467,16-16V211.2C380.243,202.667,372.776,195.2,364.243,195.2z"/>
<path style="fill:#415A6B;" d="M178.643,298.667h-29.867c-8.533,0-16,7.467-16,16V355.2c0,8.533,7.467,16,16,16h29.867
	c8.533,0,16-7.467,16-16v-40.533C194.643,305.067,187.176,298.667,178.643,298.667z"/>
<path style="fill:#4ABAA5;" d="M334.376,298.667h29.867c8.533,0,16,7.467,16,16V355.2c0,8.533-7.467,16-16,16h-29.867
	c-8.533,0-16-7.467-16-16v-40.533C318.376,308.267,325.843,298.667,334.376,298.667z"/>
<path style="fill:#F05540;" d="M241.576,298.667h29.867c8.533,0,16,7.467,16,16V355.2c0,8.533-7.467,16-16,16h-29.867
	c-8.533,0-16-7.467-16-16v-40.533C225.576,305.067,233.043,298.667,241.576,298.667z"/>
<circle style="fill:#344A5E;" cx="256.51" cy="454.4" r="32"/>
<g>
</g>
<g>
</g>
<g>
</g>
<g>
</g>
<g>
</g>
<g>
</g>
<g>
</g>
<g>
</g>
<g>
</g>
<g>
</g>
<g>
</g>
<g>
</g>
<g>
</g>
<g>
</g>
<g>
</g>
</svg>
