<?xml version="1.0" encoding="iso-8859-1"?>
<!-- Generator: Adobe Illustrator 19.0.0, SVG Export Plug-In . SVG Version: 6.00 Build 0)  -->
<svg version="1.1" id="Capa_1" xmlns="http://www.w3.org/2000/svg" xmlns:xlink="http://www.w3.org/1999/xlink" x="0px" y="0px"
	 viewBox="0 0 512.533 512.533" style="enable-background:new 0 0 512.533 512.533;" xml:space="preserve">
<g>
	<path style="fill:#415A6B;" d="M414.133,468.591l-19.2-37.333h-67.2l34.133,65.067c7.467,14.933,25.6,20.267,40.533,12.8l0,0
		C416.267,501.658,421.6,483.525,414.133,468.591z"/>
	<path style="fill:#415A6B;" d="M118.667,431.258l-19.2,37.333c-8.533,14.933-3.2,33.067,11.733,40.533l0,0
		c14.933,7.467,33.067,2.133,40.533-12.8l34.133-65.067H118.667z"/>
</g>
<circle style="fill:#FFFFFF;" cx="256.267" cy="270.191" r="205.867"/>
<path style="fill:#F3705A;" d="M256.267,498.458C130.4,498.458,28,396.058,28,270.191S130.4,41.925,256.267,41.925
	s228.267,102.4,228.267,228.267S382.133,498.458,256.267,498.458z M256.267,86.725C154.933,86.725,72.8,168.858,72.8,270.191
	s82.133,183.467,183.467,183.467s183.467-82.133,183.467-183.467S357.6,86.725,256.267,86.725z"/>
<g>
	<path style="fill:#415A6B;" d="M28,162.458c-37.333-37.333-37.333-97.067,0-134.4s97.067-37.333,134.4,0"/>
	<path style="fill:#415A6B;" d="M350.133,28.058c37.333-37.333,97.067-37.333,134.4,0s37.333,97.067,0,134.4"/>
</g>
<path style="fill:#FFD15C;" d="M243.467,396.058v-22.4c-25.6-4.267-50.133-16-71.467-35.2l28.8-34.133
	c16,13.867,29.867,22.4,42.667,26.667v-45.867c-21.333-5.333-37.333-12.8-46.933-22.4c-9.6-9.6-14.933-22.4-14.933-39.467
	s5.333-32,17.067-42.667c11.733-11.733,26.667-18.133,44.8-20.267v-14.933h32v14.933c20.267,3.2,40.533,11.733,60.8,25.6
	l-24.533,36.267c-12.8-9.6-24.533-14.933-36.267-18.133v43.733c22.4,5.333,38.4,12.8,49.067,22.4c10.667,9.6,16,23.467,16,40.533
	c0,17.067-5.333,32-17.067,43.733c-11.733,11.733-27.733,18.133-46.933,20.267v21.333H243.467z M243.467,201.925
	c-8.533,3.2-12.8,8.533-12.8,17.067c0,8.533,4.267,13.867,12.8,18.133V201.925z M291.467,312.858c0-4.267-1.067-7.467-3.2-10.667
	c-2.133-3.2-6.4-5.333-11.733-7.467v37.333C286.133,328.858,291.467,322.458,291.467,312.858z"/>
<g>
</g>
<g>
</g>
<g>
</g>
<g>
</g>
<g>
</g>
<g>
</g>
<g>
</g>
<g>
</g>
<g>
</g>
<g>
</g>
<g>
</g>
<g>
</g>
<g>
</g>
<g>
</g>
<g>
</g>
</svg>
