<?xml version="1.0" encoding="iso-8859-1"?>
<!-- Generator: Adobe Illustrator 19.0.0, SVG Export Plug-In . SVG Version: 6.00 Build 0)  -->
<svg version="1.1" id="Capa_1" xmlns="http://www.w3.org/2000/svg" xmlns:xlink="http://www.w3.org/1999/xlink" x="0px" y="0px"
	 viewBox="0 0 512 512" style="enable-background:new 0 0 512 512;" xml:space="preserve">
<path style="fill:#344A5E;" d="M460.8,347.733V393.6h-21.333v-35.2h-172.8v35.2h-21.333v-35.2h-172.8v35.2H51.2v-45.867
	c0-6.4,5.333-10.667,10.667-10.667h183.467V291.2h21.333v45.867h183.467C456.533,337.067,460.8,341.333,460.8,347.733z"/>
<g>
	
		<ellipse transform="matrix(0.1029 -0.9947 0.9947 0.1029 163.8556 433.3295)" style="fill:#FFD15C;" cx="322.162" cy="125.824" rx="23.467" ry="13.867"/>
	
		<ellipse transform="matrix(0.1029 0.9947 -0.9947 0.1029 296.4796 -76.1846)" style="fill:#FFD15C;" cx="190.476" cy="126.274" rx="23.467" ry="13.867"/>
</g>
<g>
	<path style="fill:#344A5E;" d="M326.4,113.067H186.667C169.6,36.267,202.667,0,256,0C310.4,0,343.467,36.267,326.4,113.067z"/>
	<path style="fill:#344A5E;" d="M406.4,311.467v-19.2c0-28.8-19.2-54.4-46.933-61.867l-46.933-13.867H199.467L152.533,230.4
		c-27.733,8.533-46.933,33.067-46.933,61.867v19.2H406.4z"/>
</g>
<path style="fill:#F7B64C;" d="M291.2,179.2v16c-10.667,24.533-21.333,37.333-35.2,52.267c-12.8-13.867-24.533-27.733-35.2-52.267
	v-16c9.6-26.667,23.467-43.733,35.2-57.6C267.733,135.467,281.6,152.533,291.2,179.2z"/>
<polygon style="fill:#FFFFFF;" points="284.8,311.467 285.867,237.867 225.067,237.867 227.2,311.467 "/>
<g>
	<path style="fill:#F3705A;" d="M266.667,267.733l9.6-9.6c0,0-12.8-20.267-20.267-20.267c-7.467,0-20.267,20.267-20.267,20.267
		l9.6,9.6H266.667z"/>
	<polygon style="fill:#F3705A;" points="273.067,311.467 266.667,267.733 245.333,267.733 238.933,311.467 	"/>
</g>
<g>
	<polygon style="fill:#F3F3F3;" points="291.2,189.867 256,237.867 283.733,265.6 304,212.267 	"/>
	<polygon style="fill:#F3F3F3;" points="220.8,189.867 256,237.867 229.333,265.6 208,212.267 	"/>
</g>
<g>
	<polygon style="fill:#415A6B;" points="300.8,311.467 326.4,279.467 302.933,256 342.4,246.4 296.533,199.467 269.867,311.467 	"/>
	<polygon style="fill:#415A6B;" points="185.6,279.467 212.267,311.467 243.2,311.467 215.467,199.467 170.667,246.4 210.133,256 	
		"/>
</g>
<path style="fill:#FFD15C;" d="M291.2,40.533c-18.133,20.267-44.8,34.133-80,34.133c-4.267,0-8.533,0-12.8-1.067
	c-4.267,11.733-7.467,25.6-7.467,39.467c0,48,29.867,86.4,66.133,86.4s66.133-38.4,66.133-86.4
	C322.133,82.133,309.333,55.467,291.2,40.533z"/>
<path style="fill:#8AD7F8;" d="M106.667,384H21.333C9.6,384,0,393.6,0,405.333v85.333C0,502.4,9.6,512,21.333,512h85.333
	C118.4,512,128,502.4,128,490.667v-85.333C128,393.6,118.4,384,106.667,384z"/>
<rect x="21.333" y="405.333" style="fill:#55C0EB;" width="85.333" height="85.333"/>
<path style="fill:#FFD15C;" d="M298.667,384h-85.333C201.6,384,192,393.6,192,405.333v85.333C192,502.4,201.6,512,213.333,512
	h85.333C310.4,512,320,502.4,320,490.667v-85.333C320,393.6,310.4,384,298.667,384z"/>
<rect x="213.333" y="405.333" style="fill:#F7B64C;" width="85.333" height="85.333"/>
<path style="fill:#F3705A;" d="M490.667,384h-85.333C393.6,384,384,393.6,384,405.333v85.333C384,502.4,393.6,512,405.333,512
	h85.333C502.4,512,512,502.4,512,490.667v-85.333C512,393.6,502.4,384,490.667,384z"/>
<rect x="405.333" y="405.333" style="fill:#F05540;" width="85.333" height="85.333"/>
<g>
</g>
<g>
</g>
<g>
</g>
<g>
</g>
<g>
</g>
<g>
</g>
<g>
</g>
<g>
</g>
<g>
</g>
<g>
</g>
<g>
</g>
<g>
</g>
<g>
</g>
<g>
</g>
<g>
</g>
</svg>
