<?xml version="1.0" encoding="iso-8859-1"?>
<!-- Generator: Adobe Illustrator 19.0.0, SVG Export Plug-In . SVG Version: 6.00 Build 0)  -->
<svg version="1.1" id="Capa_1" xmlns="http://www.w3.org/2000/svg" xmlns:xlink="http://www.w3.org/1999/xlink" x="0px" y="0px"
	 viewBox="0 0 512.18 512.18" style="enable-background:new 0 0 512.18 512.18;" xml:space="preserve">
<path style="fill:#344A5E;" d="M200.492,478.047c10.667,20.267,30.933,34.133,55.467,34.133c24.533,0,44.8-13.867,55.467-34.133
	H200.492z"/>
<path style="fill:#F3F3F3;" d="M439.425,163.38c-9.6-84.267-77.867-152.533-162.133-162.133
	c-112-12.8-205.867,74.667-205.867,183.467c0,54.4,23.467,102.4,60.8,136.533c19.2,17.067,32,40.533,38.4,65.067h171.733
	c5.333-24.533,18.133-46.933,37.333-64C422.359,283.914,446.892,226.314,439.425,163.38z"/>
<path style="fill:#FFD15C;" d="M182.359,191.114c26.667,54.4,41.6,116.267,45.867,180.267h21.333
	c-4.267-67.2-21.333-132.267-48-189.867c10.667-4.267,17.067-14.933,18.133-17.067c1.067-3.2,5.333-6.4,6.4-7.467
	c1.067,0,5.333,4.267,6.4,7.467c2.133,3.2,10.667,19.2,24.533,19.2c13.867,0,23.467-16,24.533-18.133
	c2.133-3.2,5.333-7.467,6.4-7.467c1.067,0,5.333,4.267,6.4,7.467c1.067,2.133,7.467,13.867,18.133,17.067
	c-27.733,56.533-43.733,121.6-48,189.867h21.333c4.267-65.067,19.2-126.933,45.867-180.267l12.8-26.667
	c2.133-5.333,0-11.733-4.267-13.867c-5.333-3.2-11.733-1.067-13.867,4.267c-2.133,3.2-5.333,7.467-6.4,7.467
	c-1.067,0-5.333-4.267-6.4-7.467c-2.133-3.2-10.667-18.133-24.533-18.133c-13.867,0-23.467,14.933-25.6,19.2
	c-1.067,3.2-4.267,6.4-5.333,7.467c-1.067,0-4.267-4.267-6.4-7.467c-2.133-3.2-10.667-18.133-24.533-18.133
	c-13.867,0-23.467,14.933-24.533,18.133c-1.067,3.2-5.333,6.4-6.4,7.467c-1.067,0-5.333-4.267-6.4-7.467
	c-3.2-5.333-9.6-7.467-13.867-4.267c-5.333,2.133-7.467,8.533-4.267,13.867L182.359,191.114z"/>
<path style="fill:#415A6B;" d="M169.559,386.314v75.733c0,10.667,8.533,20.267,20.267,20.267h132.267
	c10.667,0,20.267-8.533,20.267-20.267v-75.733H169.559z"/>
<g>
	<path style="fill:#344A5E;" d="M342.359,399.114h-172.8c-8.533,0-16-7.467-16-16l0,0c0-8.533,7.467-16,16-16h172.8
		c8.533,0,16,7.467,16,16l0,0C358.359,392.714,350.892,399.114,342.359,399.114z"/>
	<path style="fill:#344A5E;" d="M342.359,458.847h-172.8c-8.533,0-16-7.467-16-16l0,0c0-8.533,7.467-16,16-16h172.8
		c8.533,0,16,7.467,16,16l0,0C358.359,451.38,350.892,458.847,342.359,458.847z"/>
</g>
<g>
</g>
<g>
</g>
<g>
</g>
<g>
</g>
<g>
</g>
<g>
</g>
<g>
</g>
<g>
</g>
<g>
</g>
<g>
</g>
<g>
</g>
<g>
</g>
<g>
</g>
<g>
</g>
<g>
</g>
</svg>
