<?xml version="1.0" encoding="iso-8859-1"?>
<!-- Generator: Adobe Illustrator 19.0.0, SVG Export Plug-In . SVG Version: 6.00 Build 0)  -->
<svg version="1.1" id="Capa_1" xmlns="http://www.w3.org/2000/svg" xmlns:xlink="http://www.w3.org/1999/xlink" x="0px" y="0px"
	 viewBox="0 0 512.267 512.267" style="enable-background:new 0 0 512.267 512.267;" xml:space="preserve">
<path style="fill:#F3F3F3;" d="M379.733,0H26.667C11.733,0,0,11.733,0,26.667V486.4C0,500.267,11.733,512,26.667,512h353.067
	c14.933,0,26.667-11.733,26.667-26.667V26.667C406.4,11.733,394.667,0,379.733,0z"/>
<g>
	<rect x="181.333" y="128" style="fill:#CED6E0;" width="92.8" height="22.4"/>
	<rect x="181.333" y="76.8" style="fill:#CED6E0;" width="161.067" height="22.4"/>
</g>
<rect x="62.933" y="66.133" style="fill:#F3705A;" width="92.8" height="96"/>
<g>
	<rect x="181.333" y="269.867" style="fill:#CED6E0;" width="92.8" height="22.4"/>
	<rect x="181.333" y="218.667" style="fill:#CED6E0;" width="161.067" height="22.4"/>
</g>
<rect x="62.933" y="208" style="fill:#FFD15C;" width="92.8" height="96"/>
<g>
	<rect x="181.333" y="412.8" style="fill:#CED6E0;" width="92.8" height="22.4"/>
	<rect x="181.333" y="360.533" style="fill:#CED6E0;" width="161.067" height="22.4"/>
</g>
<rect x="62.933" y="349.867" style="fill:#66C6B9;" width="92.8" height="96"/>
<rect x="338.385" y="337.526" transform="matrix(-0.7071 0.7071 -0.7071 -0.7071 898.7307 371.0509)" style="fill:#344A5E;" width="68.266" height="68.266"/>
<path style="fill:#415A6B;" d="M368,368c-54.4,54.4-142.933,54.4-197.333,0s-54.4-142.933,0-197.333s142.933-54.4,197.333,0
	S422.4,313.6,368,368z M200.533,200.533c-38.4,38.4-38.4,100.267,0,138.667c38.4,38.4,100.267,38.4,138.667,0
	c38.4-38.4,38.4-100.267,0-138.667C299.733,162.133,237.867,162.133,200.533,200.533z"/>
<path style="fill:#F3705A;" d="M497.067,425.6l-57.6-57.6L368,439.467l57.6,57.6c20.267,20.267,52.267,20.267,71.467,0
	C517.333,476.8,517.333,444.8,497.067,425.6z"/>
<rect x="402.133" y="358.352" transform="matrix(0.7071 0.7071 -0.7071 0.7071 409.0322 -169.4552)" style="fill:#F05540;" width="13.867" height="101.332"/>
<path style="fill:#F3705A;" d="M441.6,349.867c-5.333-5.333-13.867-5.333-19.2,0l-71.467,71.467c-5.333,5.333-5.333,13.867,0,19.2
	c5.333,5.333,13.867,5.333,19.2,0l71.467-71.467C446.933,363.733,446.933,355.2,441.6,349.867z"/>
<g>
</g>
<g>
</g>
<g>
</g>
<g>
</g>
<g>
</g>
<g>
</g>
<g>
</g>
<g>
</g>
<g>
</g>
<g>
</g>
<g>
</g>
<g>
</g>
<g>
</g>
<g>
</g>
<g>
</g>
</svg>
