<?xml version="1.0" encoding="iso-8859-1"?>
<!-- Generator: Adobe Illustrator 19.0.0, SVG Export Plug-In . SVG Version: 6.00 Build 0)  -->
<svg version="1.1" id="Capa_1" xmlns="http://www.w3.org/2000/svg" xmlns:xlink="http://www.w3.org/1999/xlink" x="0px" y="0px"
	 viewBox="0 0 512 512" style="enable-background:new 0 0 512 512;" xml:space="preserve">
<path style="fill:#4ABAA5;" d="M221.867,512C99.2,512,0,412.8,0,290.133S99.2,68.267,221.867,68.267s221.867,99.2,221.867,221.867
	S344.533,512,221.867,512z"/>
<path style="fill:#FFFFFF;" d="M221.867,453.333c-89.6,0-163.2-72.533-163.2-163.2s72.533-163.2,163.2-163.2
	s163.2,72.533,163.2,163.2S311.467,453.333,221.867,453.333z"/>
<path style="fill:#4ABAA5;" d="M221.867,393.6c-57.6,0-103.467-46.933-103.467-103.467s46.933-103.467,103.467-103.467
	S325.333,233.6,325.333,290.133S278.4,393.6,221.867,393.6z"/>
<circle style="fill:#FFFFFF;" cx="221.867" cy="290.133" r="44.8"/>
<path style="fill:#FFD15C;" d="M460.8,25.6L215.467,270.933c-7.467,7.467-7.467,19.2,0,26.667s19.2,7.467,26.667,0L487.467,52.267
	c7.467-7.467,7.467-19.2,0-26.667C480,18.133,468.267,18.133,460.8,25.6z"/>
<polygon style="fill:#F3705A;" points="448,64 512,72.533 439.467,144 376.533,135.467 368,72.533 439.467,0 "/>
<g>
</g>
<g>
</g>
<g>
</g>
<g>
</g>
<g>
</g>
<g>
</g>
<g>
</g>
<g>
</g>
<g>
</g>
<g>
</g>
<g>
</g>
<g>
</g>
<g>
</g>
<g>
</g>
<g>
</g>
</svg>
