<?xml version="1.0" encoding="iso-8859-1"?>
<!-- Generator: Adobe Illustrator 19.0.0, SVG Export Plug-In . SVG Version: 6.00 Build 0)  -->
<svg version="1.1" id="Capa_1" xmlns="http://www.w3.org/2000/svg" xmlns:xlink="http://www.w3.org/1999/xlink" x="0px" y="0px"
	 viewBox="0 0 512 512" style="enable-background:new 0 0 512 512;" xml:space="preserve">
<path style="fill:#E8EAE9;" d="M256,129.067c-35.2,0-65.067-28.8-65.067-65.067S220.8,0,256,0s65.067,28.8,65.067,65.067
	S291.2,129.067,256,129.067z M256,22.4c-23.467,0-42.667,19.2-42.667,42.667s19.2,42.667,42.667,42.667s42.667-19.2,42.667-42.667
	S279.467,22.4,256,22.4z"/>
<path style="fill:#55C0EB;" d="M283.733,154.667V102.4c0-14.933-12.8-27.733-27.733-27.733c-14.933,0-27.733,12.8-27.733,27.733
	v51.2h55.467V154.667z"/>
<circle style="fill:#8AD7F8;" cx="256" cy="323.2" r="188.8"/>
<circle style="fill:#FFFFFF;" cx="256" cy="323.2" r="147.2"/>
<path style="fill:#F3705A;" d="M247.467,332.8c-5.333-5.333-5.333-12.8,0-18.133l62.933-62.933c5.333-5.333,12.8-5.333,18.133,0
	c5.333,5.333,5.333,12.8,0,18.133L265.6,332.8C260.267,337.067,251.733,337.067,247.467,332.8z"/>
<circle style="fill:#415A6B;" cx="256" cy="323.2" r="28.8"/>
<g>
	<circle style="fill:#CED6E0;" cx="256" cy="198.4" r="8.533"/>
	<circle style="fill:#CED6E0;" cx="167.467" cy="234.667" r="8.533"/>
	<circle style="fill:#CED6E0;" cx="130.133" cy="323.2" r="8.533"/>
	<circle style="fill:#CED6E0;" cx="167.467" cy="412.8" r="8.533"/>
	<circle style="fill:#CED6E0;" cx="256" cy="449.067" r="8.533"/>
	<circle style="fill:#CED6E0;" cx="344.533" cy="412.8" r="8.533"/>
	<circle style="fill:#CED6E0;" cx="381.867" cy="323.2" r="8.533"/>
	<circle style="fill:#CED6E0;" cx="344.533" cy="234.667" r="8.533"/>
</g>
<g>
</g>
<g>
</g>
<g>
</g>
<g>
</g>
<g>
</g>
<g>
</g>
<g>
</g>
<g>
</g>
<g>
</g>
<g>
</g>
<g>
</g>
<g>
</g>
<g>
</g>
<g>
</g>
<g>
</g>
</svg>
