<?xml version="1.0" encoding="iso-8859-1"?>
<!-- Generator: Adobe Illustrator 19.0.0, SVG Export Plug-In . SVG Version: 6.00 Build 0)  -->
<svg version="1.1" id="Capa_1" xmlns="http://www.w3.org/2000/svg" xmlns:xlink="http://www.w3.org/1999/xlink" x="0px" y="0px"
	 viewBox="0 0 512 512" style="enable-background:new 0 0 512 512;" xml:space="preserve">
<path style="fill:#F3705A;" d="M331.733,311.467c1.067,10.667,1.067,22.4-1.067,33.067L371.2,377.6l-21.333,48l-51.2-7.467
	c-7.467,8.533-14.933,16-24.533,23.467l6.4,52.267L231.467,512l-30.933-41.6c-11.733,1.067-22.4,1.067-33.067-1.067L134.4,509.867
	l-48-21.333l7.467-51.2c-8.533-7.467-16-14.933-23.467-23.467l-52.267,6.4L0,370.133L42.667,339.2
	c-1.067-11.733-1.067-22.4,1.067-33.067L3.2,273.067l21.333-48l50.133,7.467c6.4-8.533,14.933-16,23.467-23.467l-6.4-52.267
	l49.067-19.2l30.933,42.667c11.733-1.067,22.4-1.067,33.067,1.067l33.067-40.533l48,21.333l-6.4,51.2
	c8.533,7.467,16,14.933,23.467,23.467l52.267-6.4l19.2,49.067L331.733,311.467z"/>
<circle style="fill:#FFFFFF;" cx="186.667" cy="325.333" r="112"/>
<path style="fill:#66C6B9;" d="M228.267,334.933h-41.6c-5.333,0-9.6-4.267-9.6-9.6s4.267-9.6,9.6-9.6h41.6
	c5.333,0,9.6,4.267,9.6,9.6S233.6,334.933,228.267,334.933z"/>
<path style="fill:#FFD15C;" d="M186.667,334.933c-5.333,0-9.6-4.267-9.6-9.6v-64c0-5.333,4.267-9.6,9.6-9.6s9.6,4.267,9.6,9.6v64
	C196.267,330.667,192,334.933,186.667,334.933z"/>
<circle style="fill:#344A5E;" cx="186.667" cy="325.333" r="19.2"/>
<g>
	<circle style="fill:#CED6E0;" cx="186.667" cy="231.467" r="6.4"/>
	<circle style="fill:#CED6E0;" cx="120.533" cy="259.2" r="6.4"/>
	<circle style="fill:#CED6E0;" cx="92.8" cy="325.333" r="6.4"/>
	<circle style="fill:#CED6E0;" cx="120.533" cy="391.467" r="6.4"/>
	<circle style="fill:#CED6E0;" cx="186.667" cy="419.2" r="6.4"/>
	<circle style="fill:#CED6E0;" cx="252.8" cy="391.467" r="6.4"/>
	<circle style="fill:#CED6E0;" cx="280.533" cy="325.333" r="6.4"/>
	<circle style="fill:#CED6E0;" cx="252.8" cy="259.2" r="6.4"/>
</g>
<path style="fill:#415A6B;" d="M512,135.467V102.4l-38.4-9.6c-1.067-4.267-3.2-9.6-5.333-13.867l20.267-33.067L465.067,22.4
	L432,42.667c-4.267-2.133-8.533-4.267-13.867-5.333L409.6,0h-33.067l-9.6,38.4c-4.267,1.067-9.6,3.2-13.867,5.333L320,23.467
	l-23.467,23.467L316.8,80c-2.133,4.267-4.267,8.533-5.333,13.867l-38.4,8.533v33.067l38.4,9.6c1.067,4.267,3.2,9.6,5.333,13.867
	L296.533,192L320,215.467l33.067-20.267c4.267,2.133,8.533,4.267,13.867,5.333l8.533,38.4h33.067l9.6-38.4
	c4.267-1.067,9.6-3.2,13.867-5.333l33.067,20.267L488.533,192l-20.267-33.067c2.133-4.267,4.267-8.533,5.333-13.867L512,135.467z
	 M392.533,149.333c-17.067,0-29.867-13.867-29.867-29.867c0-17.067,13.867-29.867,29.867-29.867
	c17.067,0,29.867,13.867,29.867,29.867C423.467,135.467,409.6,149.333,392.533,149.333z"/>
<path style="fill:#344A5E;" d="M392.533,64c-30.933,0-55.467,24.533-55.467,55.467s24.533,55.467,55.467,55.467
	S448,150.4,448,119.467S423.467,64,392.533,64z M392.533,149.333c-17.067,0-29.867-13.867-29.867-29.867
	c0-17.067,13.867-29.867,29.867-29.867c17.067,0,29.867,13.867,29.867,29.867C423.467,135.467,409.6,149.333,392.533,149.333z"/>
<g>
</g>
<g>
</g>
<g>
</g>
<g>
</g>
<g>
</g>
<g>
</g>
<g>
</g>
<g>
</g>
<g>
</g>
<g>
</g>
<g>
</g>
<g>
</g>
<g>
</g>
<g>
</g>
<g>
</g>
</svg>
