<?xml version="1.0" encoding="iso-8859-1"?>
<!-- Generator: Adobe Illustrator 19.0.0, SVG Export Plug-In . SVG Version: 6.00 Build 0)  -->
<svg version="1.1" id="Capa_1" xmlns="http://www.w3.org/2000/svg" xmlns:xlink="http://www.w3.org/1999/xlink" x="0px" y="0px"
	 viewBox="0 0 512 512" style="enable-background:new 0 0 512 512;" xml:space="preserve">
<path style="fill:#344A5E;" d="M299.867,409.6h-24.533c-4.267,0-7.467,3.2-7.467,7.467v26.667h38.4v-26.667
	C307.333,412.8,304.133,409.6,299.867,409.6z"/>
<polygon style="fill:#FFD15C;" points="184.667,483.2 36.4,273.067 186.8,122.667 224.133,160 105.733,278.4 228.4,453.333 "/>
<g>
	<path style="fill:#415A6B;" d="M418.267,512c-24.533-49.067-97.067-84.267-183.467-84.267c-85.333,0-157.867,35.2-182.4,84.267
		H418.267z"/>
	<circle style="fill:#415A6B;" cx="70.533" cy="276.267" r="54.4"/>
</g>
<circle style="fill:#344A5E;" cx="70.533" cy="276.267" r="27.733"/>
<path style="fill:#FFD15C;" d="M342.533,276.267c23.467,21.333,59.733,20.267,83.2-2.133c22.4-22.4,23.467-58.667,2.133-83.2
	L342.533,276.267z"/>
<path style="fill:#F05540;" d="M282.8,12.8c-17.067-17.067-43.733-17.067-60.8,0l-58.667,58.667
	c-17.067,17.067-17.067,43.733,0,60.8l97.067,97.067l119.467-119.467L282.8,12.8z"/>
<path style="fill:#F3705A;" d="M470.533,119.467L443.867,92.8C388.4,37.333,298.8,37.333,243.333,92.8s-55.467,145.067,0,200.533
	L270,320L470.533,119.467z"/>
<path style="fill:#E8EAE9;" d="M488.667,137.6L288.133,337.067c-9.6,9.6-25.6,9.6-36.267,0c-9.6-9.6-9.6-25.6,0-36.267
	L452.4,101.333c9.6-9.6,25.6-9.6,36.267,0C498.267,112,498.267,128,488.667,137.6z"/>
<g>
</g>
<g>
</g>
<g>
</g>
<g>
</g>
<g>
</g>
<g>
</g>
<g>
</g>
<g>
</g>
<g>
</g>
<g>
</g>
<g>
</g>
<g>
</g>
<g>
</g>
<g>
</g>
<g>
</g>
</svg>
