<?xml version="1.0" encoding="iso-8859-1"?>
<!-- Generator: Adobe Illustrator 19.0.0, SVG Export Plug-In . SVG Version: 6.00 Build 0)  -->
<svg version="1.1" id="Capa_1" xmlns="http://www.w3.org/2000/svg" xmlns:xlink="http://www.w3.org/1999/xlink" x="0px" y="0px"
	 viewBox="0 0 512 512" style="enable-background:new 0 0 512 512;" xml:space="preserve">
<path style="fill:#344A5E;" d="M197.925,134.4c-4.267,16-7.467,35.2-7.467,55.467c0,10.667,1.067,20.267,2.133,29.867h125.867
	c1.067-9.6,2.133-19.2,2.133-29.867c0-20.267-2.133-38.4-7.467-55.467L197.925,134.4L197.925,134.4z"/>
<path style="fill:#F7B64C;" d="M406.992,336l-17.067-86.4c-3.2-14.933-14.933-26.667-29.867-29.867
	c-12.8-2.133-26.667-4.267-39.467-6.4c-18.133-2.133-30.933-17.067-30.933-34.133v-55.467h-68.267V179.2
	c0,18.133-13.867,32-30.933,34.133c-13.867,1.067-26.667,3.2-39.467,6.4c-14.933,3.2-26.667,14.933-29.867,29.867L104.058,336
	H406.992z"/>
<path style="fill:#4ABAA5;" d="M406.992,336H104.058l17.067-86.4c3.2-14.933,14.933-26.667,29.867-29.867c1.067,0,2.133,0,3.2-1.067
	c12.8,32,53.333,54.4,101.333,54.4s88.533-23.467,101.333-54.4c1.067,0,2.133,0,3.2,1.067c14.933,3.2,26.667,14.933,29.867,29.867
	L406.992,336z"/>
<ellipse style="fill:#FFD15C;" cx="255.525" cy="116.267" rx="59.733" ry="67.2"/>
<path style="fill:#415A6B;" d="M338.725,132.267c0,57.6-23.467,106.667-55.467,124.8c16-27.733,25.6-77.867,23.467-132.267
	c-1.067-14.933-2.133-28.8-4.267-41.6h-30.933l-1.067-8.533l-1.067,8.533h-23.467L244.858,64l-2.133,19.2h-14.933l-1.067-23.467
	V83.2h-18.133c-2.133,12.8-3.2,26.667-4.267,41.6c-2.133,54.4,7.467,104.533,23.467,132.267c-32-18.133-55.467-67.2-55.467-124.8
	C172.325,14.933,217.125,0,255.525,0C297.125,0,338.725,14.933,338.725,132.267z"/>
<path style="fill:#F3F3F3;" d="M427.258,288H83.792c-7.467,0-13.867,6.4-12.8,13.867l24.533,199.467
	c1.067,6.4,6.4,10.667,12.8,10.667h295.467c6.4,0,11.733-4.267,12.8-10.667l24.533-199.467C441.125,294.4,434.725,288,427.258,288z"
	/>
<ellipse style="fill:#CED6E0;" cx="255.525" cy="400" rx="48" ry="19.2"/>
<g>
</g>
<g>
</g>
<g>
</g>
<g>
</g>
<g>
</g>
<g>
</g>
<g>
</g>
<g>
</g>
<g>
</g>
<g>
</g>
<g>
</g>
<g>
</g>
<g>
</g>
<g>
</g>
<g>
</g>
</svg>
