<?xml version="1.0" encoding="iso-8859-1"?>
<!-- Generator: Adobe Illustrator 19.0.0, SVG Export Plug-In . SVG Version: 6.00 Build 0)  -->
<svg version="1.1" id="Capa_1" xmlns="http://www.w3.org/2000/svg" xmlns:xlink="http://www.w3.org/1999/xlink" x="0px" y="0px"
	 viewBox="0 0 513.067 513.067" style="enable-background:new 0 0 513.067 513.067;" xml:space="preserve">
<path style="fill:#F3F3F3;" d="M434.667,0H78.4C60.267,0,45.333,14.933,45.333,33.067V480c0,18.133,14.933,33.067,33.067,33.067
	h356.267c18.133,0,33.067-14.933,33.067-33.067V33.067C467.733,14.933,452.8,0,434.667,0z"/>
<g>
	<rect x="189.333" y="48" style="fill:#CED6E0;" width="226.133" height="18.133"/>
	<rect x="189.333" y="90.667" style="fill:#CED6E0;" width="155.733" height="18.133"/>
</g>
<rect x="97.6" y="48" style="fill:#55C0EB;" width="60.8" height="60.8"/>
<g>
	<rect x="189.333" y="166.4" style="fill:#CED6E0;" width="226.133" height="18.133"/>
	<rect x="189.333" y="209.067" style="fill:#CED6E0;" width="155.733" height="18.133"/>
</g>
<rect x="97.6" y="166.4" style="fill:#F3705A;" width="60.8" height="60.8"/>
<g>
	<rect x="189.333" y="284.8" style="fill:#CED6E0;" width="226.133" height="18.133"/>
	<rect x="189.333" y="327.467" style="fill:#CED6E0;" width="155.733" height="18.133"/>
</g>
<rect x="97.6" y="284.8" style="fill:#FFD15C;" width="60.8" height="60.8"/>
<g>
	<rect x="189.333" y="403.2" style="fill:#CED6E0;" width="226.133" height="18.133"/>
	<rect x="189.333" y="445.867" style="fill:#CED6E0;" width="155.733" height="18.133"/>
</g>
<rect x="97.6" y="403.2" style="fill:#415A6B;" width="60.8" height="60.8"/>
<g>
</g>
<g>
</g>
<g>
</g>
<g>
</g>
<g>
</g>
<g>
</g>
<g>
</g>
<g>
</g>
<g>
</g>
<g>
</g>
<g>
</g>
<g>
</g>
<g>
</g>
<g>
</g>
<g>
</g>
</svg>
