<?xml version="1.0" encoding="iso-8859-1"?>
<!-- Generator: Adobe Illustrator 19.0.0, SVG Export Plug-In . SVG Version: 6.00 Build 0)  -->
<svg version="1.1" id="Capa_1" xmlns="http://www.w3.org/2000/svg" xmlns:xlink="http://www.w3.org/1999/xlink" x="0px" y="0px"
	 viewBox="0 0 512 512" style="enable-background:new 0 0 512 512;" xml:space="preserve">
<polygon style="fill:#415A6B;" points="512,192 256,384 0,192 256,0 "/>
<path style="fill:#F3F3F3;" d="M452.267,457.6V52.267c0-11.733-9.6-21.333-21.333-21.333H81.067c-11.733,0-21.333,9.6-21.333,21.333
	V457.6H452.267z"/>
<g>
	<rect x="265.6" y="94.933" style="fill:#CED6E0;" width="144" height="25.6"/>
	<rect x="265.6" y="150.4" style="fill:#CED6E0;" width="144" height="25.6"/>
	<rect x="265.6" y="205.867" style="fill:#CED6E0;" width="144" height="25.6"/>
</g>
<polygon style="fill:#FFD15C;" points="512,192 512,512 0,512 0,192 256,384 "/>
<polygon style="fill:#F7B64C;" points="512,512 0,512 256,320 "/>
<g>
	<path style="fill:#55C0EB;" d="M247.467,230.4c-2.133-38.4-34.133-68.267-72.533-68.267S104.533,192,102.4,230.4H247.467z"/>
	<circle style="fill:#55C0EB;" cx="174.933" cy="107.733" r="34.133"/>
</g>
<g>
</g>
<g>
</g>
<g>
</g>
<g>
</g>
<g>
</g>
<g>
</g>
<g>
</g>
<g>
</g>
<g>
</g>
<g>
</g>
<g>
</g>
<g>
</g>
<g>
</g>
<g>
</g>
<g>
</g>
</svg>
