<?xml version="1.0" encoding="iso-8859-1"?>
<!-- Generator: Adobe Illustrator 19.0.0, SVG Export Plug-In . SVG Version: 6.00 Build 0)  -->
<svg version="1.1" id="Capa_1" xmlns="http://www.w3.org/2000/svg" xmlns:xlink="http://www.w3.org/1999/xlink" x="0px" y="0px"
	 viewBox="0 0 512 512" style="enable-background:new 0 0 512 512;" xml:space="preserve">
<path style="fill:#F3F3F3;" d="M512,115.2V480c0,18.133-13.867,32-32,32H32c-18.133,0-32-13.867-32-32V115.2H512z"/>
<path style="fill:#F3705A;" d="M512,115.2V32c0-18.133-13.867-32-32-32H32C13.867,0,0,13.867,0,32v83.2H512z"/>
<g>
	<path style="fill:#FFFFFF;" d="M98.133,38.4c5.333,4.267,7.467,11.733,7.467,20.267s-2.133,14.933-7.467,20.267
		c-5.333,4.267-12.8,6.4-23.467,6.4H56.533V32h19.2C85.333,32,92.8,34.133,98.133,38.4z M88.533,70.4
		c3.2-2.133,4.267-6.4,4.267-11.733s-1.067-9.6-4.267-12.8c-3.2-2.133-7.467-3.2-13.867-3.2h-6.4v32h7.467
		C82.133,74.667,85.333,73.6,88.533,70.4z"/>
	<path style="fill:#FFFFFF;" d="M150.4,80c-4.267,4.267-10.667,6.4-17.067,6.4c-6.4,0-11.733-2.133-16-5.333
		c-4.267-4.267-6.4-9.6-6.4-16s2.133-11.733,6.4-16c4.267-4.267,9.6-5.333,14.933-5.333c5.333,0,10.667,2.133,14.933,5.333
		c4.267,3.2,6.4,8.533,6.4,13.867v6.4h-29.867c0,2.133,1.067,4.267,3.2,5.333s4.267,2.133,6.4,2.133c4.267,0,7.467-1.067,9.6-4.267
		L150.4,80z M139.733,55.467c-1.067-2.133-3.2-2.133-5.333-2.133c-3.2,0-5.333,0-6.4,2.133c-2.133,1.067-3.2,3.2-3.2,5.333h18.133
		C141.867,58.667,141.867,56.533,139.733,55.467z"/>
	<path style="fill:#FFFFFF;" d="M182.4,75.733c4.267,0,7.467-2.133,10.667-5.333l6.4,7.467C194.133,83.2,188.8,86.4,182.4,86.4
		s-11.733-2.133-16-6.4c-4.267-3.2-6.4-8.533-6.4-14.933s2.133-11.733,6.4-16c4.267-4.267,9.6-6.4,16-6.4c3.2,0,6.4,1.067,9.6,2.133
		c3.2,1.067,5.333,3.2,8.533,5.333l-6.4,7.467c-1.067-2.133-3.2-3.2-5.333-3.2c-2.133,0-4.267-1.067-6.4-1.067
		c-3.2,0-5.333,1.067-7.467,3.2c-2.133,2.133-3.2,4.267-3.2,8.533c0,3.2,1.067,6.4,3.2,8.533
		C177.067,74.667,180.267,75.733,182.4,75.733z"/>
	<path style="fill:#FFFFFF;" d="M244.267,80C240,84.267,233.6,86.4,227.2,86.4s-11.733-2.133-16-5.333c-4.267-4.267-6.4-9.6-6.4-16
		s2.133-11.733,6.4-16s9.6-5.333,14.933-5.333c5.333,0,10.667,2.133,14.933,5.333c4.267,3.2,6.4,8.533,6.4,13.867v6.4H217.6
		c0,2.133,1.067,4.267,3.2,5.333c2.133,1.067,4.267,2.133,6.4,2.133c4.267,0,7.467-1.067,9.6-4.267L244.267,80z M232.533,55.467
		c-1.067-2.133-3.2-2.133-5.333-2.133s-4.267,1.067-6.4,2.133c-2.133,1.067-3.2,3.2-3.2,5.333h18.133
		C235.733,58.667,234.667,56.533,232.533,55.467z"/>
	<path style="fill:#FFFFFF;" d="M294.4,62.933v22.4h-11.733v-22.4c0-3.2,0-5.333-1.067-7.467c-2.133-1.067-3.2-2.133-5.333-2.133
		c-2.133,0-4.267,1.067-6.4,2.133c-2.133,2.133-2.133,4.267-2.133,7.467v22.4H256v-41.6h11.733V48c3.2-3.2,6.4-5.333,10.667-5.333
		c2.133,0,5.333,1.067,7.467,2.133c2.133,1.067,4.267,3.2,5.333,5.333c1.067-2.133,4.267-4.267,6.4-6.4
		c3.2-1.067,5.333-2.133,8.533-2.133c5.333,0,8.533,1.067,11.733,4.267c3.2,3.2,4.267,7.467,4.267,12.8v26.667h-12.8v-22.4
		c0-6.4-2.133-9.6-6.4-9.6c-2.133,0-4.267,1.067-6.4,2.133C294.4,57.6,294.4,59.733,294.4,62.933z"/>
	<path style="fill:#FFFFFF;" d="M356.267,43.733c5.333,0,9.6,2.133,12.8,6.4c3.2,4.267,5.333,8.533,5.333,14.933
		S373.333,75.733,369.067,80c-4.267,4.267-8.533,6.4-12.8,6.4c-5.333,0-8.533-2.133-12.8-6.4v5.333h-11.733v-57.6h11.733V48
		C346.667,44.8,350.933,43.733,356.267,43.733z M343.467,65.067c0,3.2,1.067,6.4,3.2,8.533c2.133,2.133,4.267,3.2,6.4,3.2
		s5.333-1.067,7.467-3.2c2.133-2.133,2.133-5.333,2.133-8.533c0-3.2-1.067-6.4-3.2-8.533c-1.067-2.133-3.2-3.2-6.4-3.2
		c-3.2,0-5.333,1.067-7.467,3.2C344.533,58.667,343.467,61.867,343.467,65.067z"/>
	<path style="fill:#FFFFFF;" d="M419.2,80c-4.267,4.267-10.667,6.4-17.067,6.4c-6.4,0-11.733-2.133-16-5.333
		c-4.267-4.267-6.4-9.6-6.4-16s2.133-11.733,6.4-16s9.6-5.333,14.933-5.333c5.333,0,10.667,2.133,14.933,5.333
		c4.267,3.2,6.4,8.533,6.4,13.867v6.4h-29.867c0,2.133,1.067,4.267,3.2,5.333s4.267,2.133,6.4,2.133c4.267,0,7.467-1.067,9.6-4.267
		L419.2,80z M408.533,55.467c-1.067-2.133-3.2-2.133-5.333-2.133c-2.133,0-4.267,1.067-6.4,2.133c-2.133,1.067-3.2,3.2-3.2,5.333
		h18.133C410.667,58.667,410.667,56.533,408.533,55.467z"/>
	<path style="fill:#FFFFFF;" d="M453.333,54.4c-3.2,0-6.4,1.067-7.467,3.2c-2.133,2.133-2.133,5.333-2.133,9.6v18.133H432v-41.6
		h11.733v5.333c1.067-2.133,3.2-3.2,5.333-4.267c2.133-1.067,4.267-2.133,6.4-2.133v10.667h-2.133V54.4z"/>
</g>
<g>
	<path style="fill:#4ABAA5;" d="M115.2,211.2h84.267v208h-44.8V250.667H115.2L115.2,211.2L115.2,211.2z"/>
	<path style="fill:#4ABAA5;" d="M330.667,245.333c-12.8,0-22.4,4.267-29.867,12.8c-7.467,8.533-11.733,20.267-12.8,35.2
		c12.8-8.533,26.667-12.8,40.533-12.8c19.2,0,35.2,6.4,49.067,19.2c12.8,12.8,19.2,29.867,19.2,50.133
		c0,21.333-7.467,38.4-21.333,50.133c-13.867,12.8-32,19.2-52.267,19.2c-14.933,0-27.733-3.2-38.4-8.533
		c-10.667-5.333-19.2-13.867-25.6-23.467c-11.733-19.2-18.133-43.733-18.133-73.6c0-19.2,2.133-35.2,7.467-50.133
		c4.267-13.867,10.667-25.6,19.2-34.133c16-17.067,35.2-24.533,58.667-24.533c9.6,0,19.2,1.067,27.733,4.267
		c8.533,3.2,16,5.333,20.267,8.533c4.267,3.2,9.6,6.4,16,11.733L368,262.4c-1.067-1.067-3.2-3.2-5.333-4.267
		c-2.133-1.067-6.4-4.267-13.867-7.467C343.467,247.467,337.067,245.333,330.667,245.333z M324.267,321.067
		c-9.6,0-17.067,3.2-23.467,8.533c-6.4,5.333-9.6,12.8-9.6,21.333c0,8.533,3.2,16,8.533,22.4c6.4,6.4,13.867,9.6,22.4,9.6
		c8.533,0,16-3.2,22.4-8.533c6.4-5.333,8.533-12.8,8.533-21.333s-3.2-16-8.533-22.4C341.333,323.2,333.867,321.067,324.267,321.067z
		"/>
</g>
<g>
	<path style="fill:#415A6B;" d="M56.533,145.067v8.533H36.267v9.6h19.2v7.467h-19.2v17.067h-8.533v-42.667H56.533z"/>
	<path style="fill:#415A6B;" d="M99.2,158.933c0,6.4-3.2,11.733-8.533,12.8l10.667,14.933H89.6L80,172.8h-6.4v13.867H64V144h16
		c6.4,0,11.733,1.067,13.867,3.2C98.133,150.4,99.2,153.6,99.2,158.933z M87.467,164.267c1.067-1.067,2.133-3.2,2.133-5.333
		s-1.067-4.267-2.133-4.267c-1.067-1.067-3.2-1.067-6.4-1.067H73.6v12.8h7.467C84.267,165.333,86.4,165.333,87.467,164.267z"/>
	<path style="fill:#415A6B;" d="M108.8,145.067h9.6v42.667h-9.6V145.067z"/>
</g>
<g>
</g>
<g>
</g>
<g>
</g>
<g>
</g>
<g>
</g>
<g>
</g>
<g>
</g>
<g>
</g>
<g>
</g>
<g>
</g>
<g>
</g>
<g>
</g>
<g>
</g>
<g>
</g>
<g>
</g>
</svg>
