<?xml version="1.0" encoding="iso-8859-1"?>
<!-- Generator: Adobe Illustrator 19.0.0, SVG Export Plug-In . SVG Version: 6.00 Build 0)  -->
<svg version="1.1" id="Capa_1" xmlns="http://www.w3.org/2000/svg" xmlns:xlink="http://www.w3.org/1999/xlink" x="0px" y="0px"
	 viewBox="0 0 512 512" style="enable-background:new 0 0 512 512;" xml:space="preserve">
<g>
	<ellipse style="fill:#344A5E;" cx="227.2" cy="75.733" rx="40.533" ry="68.267"/>
	<ellipse style="fill:#344A5E;" cx="259.2" cy="80" rx="64" ry="80"/>
	<path style="fill:#344A5E;" d="M388.267,276.267L380.8,227.2c-3.2-18.133-16-32-33.067-36.267c-20.267-5.333-39.467-7.467-64-9.6
		L256,218.667l-26.667-37.333c-19.2,1.067-43.733,6.4-62.933,10.667c-18.133,4.267-32,18.133-34.133,36.267l-7.467,48H388.267z"/>
</g>
<polygon style="fill:#FFFFFF;" points="280.533,276.267 282.667,210.133 228.267,210.133 230.4,276.267 "/>
<g>
	<path style="fill:#F3705A;" d="M264.533,236.8l8.533-8.533c0,0-11.733-18.133-18.133-18.133c-6.4,0-18.133,18.133-18.133,18.133
		l8.533,8.533H264.533z"/>
	<polygon style="fill:#F3705A;" points="270.933,276.267 264.533,236.8 246.4,236.8 240,276.267 	"/>
</g>
<g>
	<path style="fill:#F3F3F3;" d="M286.933,167.467c-9.6,20.267-19.2,30.933-30.933,42.667c10.667,4.267,19.2,14.933,24.533,24.533
		l18.133-46.933L286.933,167.467z"/>
	<path style="fill:#F3F3F3;" d="M225.067,167.467c9.6,20.267,19.2,30.933,30.933,42.667c-10.667,4.267-19.2,14.933-24.533,24.533
		l-18.133-46.933L225.067,167.467z"/>
</g>
<g>
	<polygon style="fill:#415A6B;" points="295.467,276.267 318.933,247.467 296.533,227.2 331.733,218.667 292.267,177.067 
		267.733,276.267 	"/>
	<polygon style="fill:#415A6B;" points="193.067,247.467 216.533,276.267 244.267,276.267 219.733,177.067 180.267,218.667 
		215.467,227.2 	"/>
</g>
<path style="fill:#F7B64C;" d="M288,154.667v12.8c-9.6,20.267-19.2,30.933-30.933,42.667c-11.733-11.733-21.333-22.4-30.933-42.667
	v-12.8c8.533-21.333,21.333-35.2,30.933-46.933C266.667,119.467,278.4,133.333,288,154.667z"/>
<g>
	<path style="fill:#FFD15C;" d="M307.2,64c-4.267,1.067-7.467,1.067-12.8,1.067c-26.667,0-43.733-13.867-51.2-33.067
		c-5.333,18.133-19.2,32-40.533,36.267c-3.2,8.533-4.267,17.067-5.333,27.733c-1.067,43.733,24.533,80,57.6,80
		s59.733-37.333,57.6-80C313.6,84.267,311.467,73.6,307.2,64z"/>
	
		<ellipse transform="matrix(0.1029 -0.9947 0.9947 0.1029 170.8374 413.4198)" style="fill:#FFD15C;" cx="314.615" cy="111.999" rx="21.334" ry="12.8"/>
	
		<ellipse transform="matrix(0.1029 0.9947 -0.9947 0.1029 287.4312 -96.7836)" style="fill:#FFD15C;" cx="197.372" cy="110.958" rx="21.334" ry="12.8"/>
</g>
<g>
	<ellipse style="fill:#344A5E;" cx="85.333" cy="346.667" rx="33.067" ry="56.533"/>
	<ellipse style="fill:#344A5E;" cx="110.933" cy="349.867" rx="53.333" ry="66.133"/>
	<path style="fill:#344A5E;" d="M0,512h217.6v-35.2c0-17.067-11.733-32-27.733-35.2c-53.333-11.733-107.733-11.733-161.067,0
		C11.733,445.867,0,459.733,0,476.8V512z"/>
</g>
<polygon style="fill:#FFFFFF;" points="129.067,512 131.2,457.6 85.333,457.6 87.467,512 "/>
<g>
	<path style="fill:#F3705A;" d="M116.267,478.933l7.467-7.467c0,0-9.6-14.933-14.933-14.933c-5.333,0-14.933,14.933-14.933,14.933
		l7.467,7.467H116.267z"/>
	<polygon style="fill:#F3705A;" points="120.533,512 116.267,478.933 100.267,478.933 96,512 	"/>
</g>
<g>
	<polygon style="fill:#F3F3F3;" points="134.4,422.4 108.8,458.667 129.067,477.867 144,439.467 	"/>
	<polygon style="fill:#F3F3F3;" points="83.2,422.4 108.8,458.667 88.533,477.867 73.6,439.467 	"/>
</g>
<path style="fill:#F7B64C;" d="M134.4,411.733V422.4l-25.6,36.267l-25.6-35.2V412.8c7.467-18.133,17.067-29.867,25.6-39.467
	C117.333,382.933,128,393.6,134.4,411.733z"/>
<g>
	
		<ellipse transform="matrix(0.1029 -0.9947 0.9947 0.1029 -233.8352 493.72)" style="fill:#FFD15C;" cx="156.797" cy="376.496" rx="17.067" ry="10.667"/>
	
		<ellipse transform="matrix(0.1029 0.9947 -0.9947 0.1029 427.8107 277.7486)" style="fill:#FFD15C;" cx="59.924" cy="376.049" rx="17.067" ry="10.667"/>
	<path style="fill:#FFD15C;" d="M104.533,336c-13.867,0-25.6-3.2-34.133-9.6c-6.4,10.667-10.667,24.533-10.667,39.467
		c0,35.2,21.333,64,48,64s48-28.8,48-64c0-17.067-5.333-32-12.8-42.667C134.4,330.667,121.6,336,104.533,336z"/>
</g>
<g>
	<polygon style="fill:#415A6B;" points="138.667,429.867 171.733,450.133 149.333,461.867 164.267,472.533 140.8,512 118.4,512 	"/>
	<polygon style="fill:#415A6B;" points="78.933,429.867 45.867,450.133 68.267,461.867 53.333,472.533 76.8,512 99.2,512 	"/>
</g>
<g>
	<ellipse style="fill:#344A5E;" cx="379.733" cy="346.667" rx="33.067" ry="56.533"/>
	<ellipse style="fill:#344A5E;" cx="406.4" cy="349.867" rx="53.333" ry="66.133"/>
	<path style="fill:#344A5E;" d="M294.4,512H512v-35.2c0-17.067-11.733-32-27.733-35.2c-53.333-11.733-107.733-11.733-161.067,0
		c-16,3.2-27.733,18.133-27.733,35.2V512H294.4z"/>
</g>
<polygon style="fill:#FFFFFF;" points="423.467,512 425.6,457.6 380.8,457.6 381.867,512 "/>
<g>
	<path style="fill:#F3705A;" d="M410.667,478.933l7.467-7.467c0,0-9.6-14.933-14.933-14.933c-5.333,0-14.933,14.933-14.933,14.933
		l7.467,7.467H410.667z"/>
	<polygon style="fill:#F3705A;" points="414.933,512 410.667,478.933 394.667,478.933 390.4,512 	"/>
</g>
<g>
	<polygon style="fill:#F3F3F3;" points="428.8,422.4 403.2,458.667 423.467,477.867 438.4,439.467 	"/>
	<polygon style="fill:#F3F3F3;" points="377.6,422.4 403.2,458.667 384,477.867 368,439.467 	"/>
</g>
<path style="fill:#F7B64C;" d="M428.8,411.733V422.4l-25.6,36.267l-25.6-35.2V412.8c7.467-18.133,17.067-29.867,25.6-39.467
	C411.733,382.933,422.4,393.6,428.8,411.733z"/>
<g>
	
		<ellipse transform="matrix(0.1029 -0.9947 0.9947 0.1029 30.3096 786.5366)" style="fill:#FFD15C;" cx="451.205" cy="376.465" rx="17.067" ry="10.667"/>
	
		<ellipse transform="matrix(0.1029 0.9947 -0.9947 0.1029 692.2223 -15.5116)" style="fill:#FFD15C;" cx="354.711" cy="376.007" rx="17.067" ry="10.667"/>
	<path style="fill:#FFD15C;" d="M400,336c-13.867,0-25.6-3.2-34.133-9.6c-6.4,10.667-10.667,24.533-10.667,39.467
		c0,35.2,21.333,64,48,64c26.667,0,48-28.8,48-64c0-17.067-5.333-32-12.8-42.667C428.8,330.667,416,336,400,336z"/>
</g>
<g>
	<polygon style="fill:#415A6B;" points="433.067,429.867 466.133,450.133 443.733,461.867 458.667,472.533 435.2,512 412.8,512 	"/>
	<polygon style="fill:#415A6B;" points="373.333,429.867 340.267,450.133 362.667,461.867 347.733,472.533 371.2,512 393.6,512 	"/>
</g>
<polygon style="fill:#344A5E;" points="309.333,410.667 294.4,425.6 254.933,386.133 216.533,425.6 200.533,410.667 
	244.267,366.933 244.267,304 265.6,304 265.6,366.933 "/>
<g>
</g>
<g>
</g>
<g>
</g>
<g>
</g>
<g>
</g>
<g>
</g>
<g>
</g>
<g>
</g>
<g>
</g>
<g>
</g>
<g>
</g>
<g>
</g>
<g>
</g>
<g>
</g>
<g>
</g>
</svg>
