<?xml version="1.0" encoding="iso-8859-1"?>
<!-- Generator: Adobe Illustrator 19.0.0, SVG Export Plug-In . SVG Version: 6.00 Build 0)  -->
<svg version="1.1" id="Capa_1" xmlns="http://www.w3.org/2000/svg" xmlns:xlink="http://www.w3.org/1999/xlink" x="0px" y="0px"
	 viewBox="0 0 512 512" style="enable-background:new 0 0 512 512;" xml:space="preserve">
<g>
	<path style="fill:#344A5E;" d="M465.067,512l-28.8-139.733c-2.133-10.667-8.533-19.2-17.067-24.533l0,0
		C361.6,414.933,379.733,496,384,512H465.067z"/>
	<path style="fill:#344A5E;" d="M128,512c4.267-16,22.4-97.067-35.2-164.267l0,0c-8.533,5.333-14.933,13.867-17.067,24.533
		L46.933,512H128z"/>
</g>
<path style="fill:#415A6B;" d="M385.067,512c12.8-75.733,34.133-164.267,34.133-164.267L330.667,310.4L256,342.4l-74.667-32
	L92.8,347.733c0,0,21.333,88.533,34.133,164.267H385.067z"/>
<path style="fill:#E8EAE9;" d="M231.467,512H281.6l26.667-162.133c0,0,1.067-14.933,2.133-29.867l-53.333,23.467L202.667,320
	c1.067,14.933,2.133,29.867,2.133,29.867L231.467,512z"/>
<path style="fill:#F3705A;" d="M220.8,512h69.333L272,387.2l13.867-13.867c0,0-19.2-29.867-29.867-29.867
	c-10.667,0-29.867,29.867-29.867,29.867L240,387.2L220.8,512z"/>
<path style="fill:#F3F3F3;" d="M206.933,277.333c9.6,27.733,27.733,49.067,49.067,66.133c-16,11.733-27.733,23.467-36.267,36.267
	L192,296.533C198.4,288,204.8,277.333,206.933,277.333z"/>
<path style="fill:#344A5E;" d="M214.4,512h16l-26.667-162.133c0,0-3.2-44.8-3.2-56.533c0-11.733,5.333-16,5.333-16
	c-6.4-1.067-43.733,65.067-43.733,65.067l22.4,7.467L160,361.6L214.4,512z"/>
<path style="fill:#F3F3F3;" d="M305.067,277.333c-9.6,27.733-27.733,49.067-49.067,66.133c16,11.733,27.733,23.467,36.267,36.267
	l27.733-83.2C313.6,288,307.2,277.333,305.067,277.333z"/>
<path style="fill:#344A5E;" d="M310.4,293.333c0,11.733-3.2,56.533-3.2,56.533L280.533,512h16L352,361.6l-25.6-12.8l22.4-7.467
	c0,0-37.333-67.2-43.733-65.067C305.067,277.333,310.4,281.6,310.4,293.333z"/>
<path style="fill:#F7B64C;" d="M206.933,268.8v8.533c9.6,27.733,27.733,49.067,49.067,66.133
	c21.333-17.067,39.467-38.4,49.067-66.133V268.8H206.933z"/>
<circle style="fill:#FFD15C;" cx="256" cy="141.867" r="141.867"/>
<circle style="fill:#F7B64C;" cx="256" cy="141.867" r="104.533"/>
<path style="fill:#FFD15C;" d="M248.533,211.2v-11.733c-13.867-2.133-27.733-8.533-39.467-19.2l16-19.2
	c8.533,7.467,17.067,12.8,23.467,14.933v-24.533c-11.733-3.2-20.267-7.467-25.6-11.733c-5.333-5.333-8.533-12.8-8.533-22.4
	s3.2-17.067,9.6-23.467c6.4-6.4,14.933-9.6,24.533-10.667v-9.6h18.133v8.533c10.667,1.067,22.4,6.4,33.067,13.867l-13.867,20.267
	c-7.467-5.333-13.867-8.533-19.2-9.6V131.2c11.733,3.2,21.333,7.467,26.667,12.8c5.333,5.333,8.533,12.8,8.533,22.4
	c0,9.6-3.2,17.067-9.6,23.467c-6.4,6.4-14.933,9.6-25.6,11.733v11.733h-18.133V211.2z M248.533,104.533
	c-5.333,2.133-7.467,4.267-7.467,9.6c0,5.333,2.133,7.467,7.467,10.667V104.533z M275.2,166.4c0-2.133-1.067-4.267-2.133-5.333
	c-1.067-1.067-3.2-3.2-6.4-4.267v20.267C272,174.933,275.2,170.667,275.2,166.4z"/>
<g>
</g>
<g>
</g>
<g>
</g>
<g>
</g>
<g>
</g>
<g>
</g>
<g>
</g>
<g>
</g>
<g>
</g>
<g>
</g>
<g>
</g>
<g>
</g>
<g>
</g>
<g>
</g>
<g>
</g>
</svg>
