<?xml version="1.0" encoding="iso-8859-1"?>
<!-- Generator: Adobe Illustrator 19.0.0, SVG Export Plug-In . SVG Version: 6.00 Build 0)  -->
<svg version="1.1" id="Capa_1" xmlns="http://www.w3.org/2000/svg" xmlns:xlink="http://www.w3.org/1999/xlink" x="0px" y="0px"
	 viewBox="0 0 513.067 513.067" style="enable-background:new 0 0 513.067 513.067;" xml:space="preserve">
<path style="fill:#F7B64C;" d="M493.867,185.067L291.2,13.333c-20.267-17.067-49.067-17.067-69.333,0L19.2,185.067
	C7.467,195.733,0,210.667,0,225.6v233.6c0,29.867,24.533,53.333,53.333,53.333h406.4c29.867,0,53.333-24.533,53.333-53.333V225.6
	C513.067,210.667,505.6,194.667,493.867,185.067z"/>
<path style="fill:#CED6E0;" d="M493.867,185.067L291.2,13.333c-20.267-17.067-49.067-17.067-69.333,0L19.2,185.067
	C12.8,190.4,7.467,196.8,4.267,205.333L256,418.667l251.733-213.333C505.6,196.8,500.267,190.4,493.867,185.067z"/>
<path style="fill:#F3705A;" d="M434.133,33.6H80c-18.133,0-32,13.867-32,32v174.933l209.067,178.133l209.067-178.133V65.6
	C466.133,47.467,452.267,33.6,434.133,33.6z"/>
<polygon style="fill:#FFFFFF;" points="257.067,418.667 423.467,276.8 423.467,125.333 90.667,125.333 90.667,276.8 "/>
<g>
	<rect x="133.333" y="168" style="fill:#E8EAE9;" width="248.533" height="21.333"/>
	<rect x="133.333" y="225.6" style="fill:#E8EAE9;" width="248.533" height="21.333"/>
	<rect x="133.333" y="284.267" style="fill:#E8EAE9;" width="133.333" height="21.333"/>
</g>
<g>
	<circle style="fill:#FFFFFF;" cx="114.133" cy="79.467" r="18.133"/>
	<circle style="fill:#FFFFFF;" cx="170.667" cy="79.467" r="18.133"/>
	<circle style="fill:#FFFFFF;" cx="226.133" cy="79.467" r="18.133"/>
</g>
<path style="fill:#FFD15C;" d="M18.133,497.6c9.6,9.6,22.4,14.933,36.267,14.933h405.333c13.867,0,26.667-5.333,36.267-14.933
	L305.067,335.467c-27.733-23.467-68.267-23.467-96,0L18.133,497.6z"/>
<g>
</g>
<g>
</g>
<g>
</g>
<g>
</g>
<g>
</g>
<g>
</g>
<g>
</g>
<g>
</g>
<g>
</g>
<g>
</g>
<g>
</g>
<g>
</g>
<g>
</g>
<g>
</g>
<g>
</g>
</svg>
