<?xml version="1.0" encoding="iso-8859-1"?>
<!-- Generator: Adobe Illustrator 19.0.0, SVG Export Plug-In . SVG Version: 6.00 Build 0)  -->
<svg version="1.1" id="Capa_1" xmlns="http://www.w3.org/2000/svg" xmlns:xlink="http://www.w3.org/1999/xlink" x="0px" y="0px"
	 viewBox="0 0 512 512" style="enable-background:new 0 0 512 512;" xml:space="preserve">
<g>
	<path style="fill:#FFD15C;" d="M411.733,257.067C430.933,339.2,362.667,422.4,256,422.4c-107.733,0-174.933-83.2-155.733-165.333
		C115.2,192,189.867,101.333,256,101.333S396.8,192,411.733,257.067z"/>
	<path style="fill:#FFD15C;" d="M333.867,58.667c-9.6,11.733-45.867,56.533-43.733,64c-23.467,0-46.933,0-69.333,0
		c2.133-8.533-33.067-52.267-43.733-64c-3.2-6.4-7.467-11.733-10.667-18.133c-3.2-5.333-4.267-12.8,0-19.2
		c3.2-6.4,12.8-12.8,19.2-9.6c6.4,3.2,8.533,11.733,13.867,16c6.4,4.267,14.933,2.133,20.267-3.2
		c6.4-4.267,10.667-11.733,18.133-14.933c10.667-7.467,23.467-7.467,34.133,0c6.4,4.267,11.733,10.667,18.133,14.933
		s14.933,7.467,20.267,3.2c7.467-5.333,9.6-13.867,16-17.067c6.4-2.133,14.933,4.267,19.2,10.667c3.2,6.4,2.133,12.8,0,19.2
		C342.4,46.933,337.067,52.267,333.867,58.667z"/>
</g>
<path style="fill:#F7B64C;" d="M247.467,350.933v-16c-18.133-3.2-35.2-10.667-50.133-24.533l20.267-24.533
	c11.733,9.6,21.333,16,29.867,19.2v-32c-14.933-4.267-26.667-9.6-33.067-16c-7.467-6.4-10.667-16-10.667-27.733
	c0-12.8,4.267-22.4,11.733-29.867c8.533-7.467,18.133-12.8,32-13.867v-10.667h22.4V185.6c13.867,2.133,28.8,7.467,42.667,18.133
	l-18.133,25.6c-8.533-6.4-17.067-10.667-25.6-12.8v30.933c16,4.267,26.667,9.6,34.133,16s10.667,16,10.667,28.8
	c0,12.8-4.267,22.4-12.8,30.933c-8.533,8.533-19.2,12.8-33.067,14.933v14.933h-20.267V350.933z M247.467,214.4
	c-6.4,2.133-9.6,6.4-9.6,11.733s3.2,9.6,9.6,12.8V214.4z M280.533,292.267c0-3.2-1.067-5.333-2.133-7.467
	c-1.067-2.133-4.267-4.267-8.533-5.333v26.667C277.333,304,280.533,298.667,280.533,292.267z"/>
<polygon style="fill:#66C6B9;" points="374.4,104.533 407.467,137.6 472.533,72.533 492.8,92.8 512,0 419.2,19.2 439.467,39.467 "/>
<polygon style="fill:#415A6B;" points="407.467,374.4 374.4,407.467 439.467,472.533 419.2,492.8 512,512 492.8,419.2 
	472.533,439.467 "/>
<polygon style="fill:#F3705A;" points="137.6,104.533 104.533,137.6 39.467,72.533 19.2,92.8 0,0 92.8,19.2 72.533,39.467 "/>
<polygon style="fill:#8AD7F8;" points="104.533,374.4 137.6,407.467 72.533,472.533 92.8,492.8 0,512 19.2,419.2 39.467,439.467 "/>
<g>
</g>
<g>
</g>
<g>
</g>
<g>
</g>
<g>
</g>
<g>
</g>
<g>
</g>
<g>
</g>
<g>
</g>
<g>
</g>
<g>
</g>
<g>
</g>
<g>
</g>
<g>
</g>
<g>
</g>
</svg>
