<?xml version="1.0" encoding="iso-8859-1"?>
<!-- Generator: Adobe Illustrator 19.0.0, SVG Export Plug-In . SVG Version: 6.00 Build 0)  -->
<svg version="1.1" id="Capa_1" xmlns="http://www.w3.org/2000/svg" xmlns:xlink="http://www.w3.org/1999/xlink" x="0px" y="0px"
	 viewBox="0 0 512 512" style="enable-background:new 0 0 512 512;" xml:space="preserve">
<path style="fill:#FFD15C;" d="M457.6,253.867v-51.2L398.933,188.8c-4.267-19.2-11.733-36.267-21.333-52.267l30.933-51.2
	l-36.267-36.267L321.067,80c-16-9.6-33.067-17.067-52.267-21.333L253.867,0h-51.2L188.8,58.667
	C169.6,62.933,152.533,70.4,136.533,80l-51.2-30.933L49.067,85.333L80,136.533c-9.6,16-17.067,33.067-21.333,52.267L0,202.667v51.2
	l58.667,13.867C62.933,286.933,70.4,304,80,320l-30.933,51.2l36.267,37.333l51.2-30.933c16,9.6,33.067,17.067,52.267,21.333
	l13.867,58.667h51.2l13.867-58.667C286.933,394.667,304,387.2,320,377.6l51.2,30.933l36.267-36.267l-30.933-51.2
	c9.6-16,17.067-33.067,21.333-52.267L457.6,253.867z M228.267,283.733c-30.933,0-55.467-24.533-55.467-55.467
	s24.533-55.467,55.467-55.467s55.467,24.533,55.467,55.467C283.733,259.2,259.2,283.733,228.267,283.733z"/>
<path style="fill:#F7B64C;" d="M228.267,119.467c-60.8,0-109.867,49.067-109.867,108.8s49.067,109.867,109.867,109.867
	s109.867-49.067,109.867-109.867S289.067,119.467,228.267,119.467z M228.267,283.733c-30.933,0-55.467-24.533-55.467-55.467
	s24.533-55.467,55.467-55.467c29.867,0,55.467,24.533,55.467,55.467C283.733,259.2,259.2,283.733,228.267,283.733z"/>
<circle style="fill:#66C6B9;" cx="389.333" cy="389.333" r="122.667"/>
<path style="fill:#FFFFFF;" d="M436.267,342.4l-66.133,66.133L342.4,380.8c-5.333-5.333-13.867-5.333-19.2,0s-5.333,13.867,0,19.2
	l37.333,37.333c5.333,5.333,13.867,5.333,19.2,0l75.733-75.733c5.333-5.333,5.333-13.867,0-19.2
	C450.133,337.067,441.6,337.067,436.267,342.4z"/>
<g>
</g>
<g>
</g>
<g>
</g>
<g>
</g>
<g>
</g>
<g>
</g>
<g>
</g>
<g>
</g>
<g>
</g>
<g>
</g>
<g>
</g>
<g>
</g>
<g>
</g>
<g>
</g>
<g>
</g>
</svg>
