<?xml version="1.0" encoding="iso-8859-1"?>
<!-- Generator: Adobe Illustrator 19.0.0, SVG Export Plug-In . SVG Version: 6.00 Build 0)  -->
<svg version="1.1" id="Capa_1" xmlns="http://www.w3.org/2000/svg" xmlns:xlink="http://www.w3.org/1999/xlink" x="0px" y="0px"
	 viewBox="0 0 512 512" style="enable-background:new 0 0 512 512;" xml:space="preserve">
<path style="fill:#F3F3F3;" d="M512,211.2c0,54.4-43.733,98.133-98.133,98.133H85.333C38.4,309.333,0,270.933,0,224
	c0-45.867,36.267-84.267,83.2-85.333c2.133-26.667,19.2-51.2,44.8-62.933c19.2-8.533,39.467-8.533,57.6-1.067
	C202.667,30.933,246.4,0,297.6,0c64,0,116.267,50.133,120.533,113.067C469.333,115.2,512,157.867,512,211.2z"/>
<g>
	<path style="fill:#FFD15C;" d="M342.4,292.267c-3.2,13.867-12.8,24.533-21.333,21.333c-8.533-2.133-12.8-16-9.6-29.867
		c3.2-13.867,12.8-22.4,21.333-20.267C340.267,265.6,345.6,278.4,342.4,292.267z"/>
	<path style="fill:#FFD15C;" d="M169.6,292.267c3.2,13.867,12.8,24.533,21.333,21.333c8.533-2.133,12.8-16,9.6-29.867
		c-3.2-13.867-12.8-22.4-21.333-20.267C171.733,265.6,166.4,278.4,169.6,292.267z"/>
</g>
<path style="fill:#415A6B;" d="M323.2,302.933H188.8c0,0-56.533-162.133,67.2-163.2C378.667,139.733,323.2,302.933,323.2,302.933z"
	/>
<path style="fill:#8AD7F8;" d="M418.133,512l-22.4-87.467c-4.267-18.133-19.2-33.067-37.333-39.467l-46.933-14.933H200.533
	L153.6,385.067c-18.133,5.333-32,20.267-37.333,39.467L93.867,512H418.133z"/>
<path style="fill:#F3705A;" d="M224,512h64l-17.067-58.667l11.733-11.733c0,0-17.067-26.667-26.667-26.667
	c-9.6,0-26.667,26.667-26.667,26.667l11.733,11.733L224,512z"/>
<g>
	<path style="fill:#E8EAE9;" d="M205.867,352l51.2,60.8c-14.933,9.6-25.6,22.4-33.067,38.4l-32-81.067
		C196.267,362.667,205.867,352,205.867,352z"/>
	<path style="fill:#E8EAE9;" d="M306.133,352L256,412.8c16,10.667,26.667,23.467,33.067,38.4l32-81.067
		C315.733,362.667,306.133,352,306.133,352z"/>
</g>
<path style="fill:#F7B64C;" d="M205.867,295.467V352c10.667,24.533,28.8,40.533,51.2,61.867
	C277.333,395.733,294.4,379.733,307.2,352v-56.533H205.867z"/>
<path style="fill:#FFD15C;" d="M299.733,203.733C294.4,208,288,212.267,282.667,215.467C254.933,230.4,217.6,244.267,188.8,230.4
	c-2.133,9.6-3.2,19.2-3.2,29.867c-1.067,64,30.933,117.333,71.467,117.333s73.6-53.333,71.467-117.333
	c0-12.8-2.133-24.533-4.267-36.267C314.667,218.667,306.133,211.2,299.733,203.733z"/>
<g>
</g>
<g>
</g>
<g>
</g>
<g>
</g>
<g>
</g>
<g>
</g>
<g>
</g>
<g>
</g>
<g>
</g>
<g>
</g>
<g>
</g>
<g>
</g>
<g>
</g>
<g>
</g>
<g>
</g>
</svg>
