<?xml version="1.0" encoding="iso-8859-1"?>
<!-- Generator: Adobe Illustrator 19.0.0, SVG Export Plug-In . SVG Version: 6.00 Build 0)  -->
<svg version="1.1" id="Capa_1" xmlns="http://www.w3.org/2000/svg" xmlns:xlink="http://www.w3.org/1999/xlink" x="0px" y="0px"
	 viewBox="0 0 512 512" style="enable-background:new 0 0 512 512;" xml:space="preserve">
<path style="fill:#F3F3F3;" d="M266.667,438.4v-51.2h-21.333v51.2c-16,4.267-26.667,19.2-26.667,36.267
	C218.667,494.933,235.733,512,256,512s37.333-17.067,37.333-37.333C293.333,457.6,282.667,442.667,266.667,438.4z M256,490.667
	c-8.533,0-16-7.467-16-16s7.467-16,16-16c9.6,0,16,7.467,16,16S264.533,490.667,256,490.667z"/>
<path style="fill:#415A6B;" d="M483.2,58.667H28.8C12.8,58.667,0,44.8,0,28.8l0,0C0,12.8,12.8,0,28.8,0h453.333
	C499.2,0,512,12.8,512,28.8l0,0C512,44.8,499.2,58.667,483.2,58.667z"/>
<path style="fill:#F3F3F3;" d="M27.733,58.667V368c0,18.133,13.867,32,32,32h389.333c18.133,0,32-13.867,32-32V58.667H27.733z"/>
<polygon style="fill:#CED6E0;" points="429.867,122.667 412.8,198.4 392.533,178.133 275.2,295.467 197.333,217.6 80,334.933 
	80,299.733 197.333,182.4 275.2,260.267 374.4,161.067 354.133,139.733 "/>
<circle style="fill:#F3705A;" cx="200.533" cy="199.467" r="37.333"/>
<circle style="fill:#F05540;" cx="200.533" cy="199.467" r="19.2"/>
<circle style="fill:#FFD15C;" cx="273.067" cy="277.333" r="37.333"/>
<circle style="fill:#F7B64C;" cx="273.067" cy="277.333" r="19.2"/>
<circle style="fill:#8AD7F8;" cx="118.4" cy="393.6" r="118.4"/>
<circle style="fill:#FFFFFF;" cx="118.4" cy="393.6" r="91.733"/>
<path style="fill:#66C6B9;" d="M118.4,398.933H77.867c-3.2,0-5.333-2.133-5.333-5.333c0-3.2,2.133-5.333,5.333-5.333H118.4
	c3.2,0,5.333,2.133,5.333,5.333C123.733,396.8,121.6,398.933,118.4,398.933z"/>
<path style="fill:#F3705A;" d="M114.133,397.867c-2.133-2.133-2.133-5.333,0-7.467l40.533-40.533c2.133-2.133,5.333-2.133,7.467,0
	s2.133,5.333,0,7.467L121.6,397.867C119.467,400,116.267,400,114.133,397.867z"/>
<g>
	<circle style="fill:#E8EAE9;" cx="118.4" cy="314.667" r="5.333"/>
	<circle style="fill:#E8EAE9;" cx="61.867" cy="338.133" r="5.333"/>
	<circle style="fill:#E8EAE9;" cx="38.4" cy="393.6" r="5.333"/>
	<circle style="fill:#E8EAE9;" cx="61.867" cy="450.133" r="5.333"/>
	<circle style="fill:#E8EAE9;" cx="118.4" cy="473.6" r="5.333"/>
	<circle style="fill:#E8EAE9;" cx="173.867" cy="450.133" r="5.333"/>
	<circle style="fill:#E8EAE9;" cx="197.333" cy="393.6" r="5.333"/>
	<circle style="fill:#E8EAE9;" cx="173.867" cy="338.133" r="5.333"/>
</g>
<circle style="fill:#FFD15C;" cx="118.4" cy="393.6" r="18.133"/>
<circle style="fill:#F7B64C;" cx="118.4" cy="393.6" r="9.6"/>
<g>
</g>
<g>
</g>
<g>
</g>
<g>
</g>
<g>
</g>
<g>
</g>
<g>
</g>
<g>
</g>
<g>
</g>
<g>
</g>
<g>
</g>
<g>
</g>
<g>
</g>
<g>
</g>
<g>
</g>
</svg>
