<?xml version="1.0" encoding="iso-8859-1"?>
<!-- Generator: Adobe Illustrator 19.0.0, SVG Export Plug-In . SVG Version: 6.00 Build 0)  -->
<svg version="1.1" id="Capa_1" xmlns="http://www.w3.org/2000/svg" xmlns:xlink="http://www.w3.org/1999/xlink" x="0px" y="0px"
	 viewBox="0 0 512 512" style="enable-background:new 0 0 512 512;" xml:space="preserve">
<path style="fill:#415A6B;" d="M392.533,0H119.467c-18.133,0-32,13.867-32,32v448c0,18.133,13.867,32,32,32h273.067
	c18.133,0,32-13.867,32-32V32C424.533,13.867,409.6,0,392.533,0z"/>
<rect x="126.933" y="54.4" style="fill:#8AD7F8;" width="259.2" height="370.133"/>
<circle style="fill:#344A5E;" cx="256" cy="468.267" r="26.667"/>
<path style="fill:#F05540;" d="M347.733,302.933H164.267c-6.4,0-10.667,4.267-10.667,10.667v56.533
	c0,6.4,4.267,10.667,10.667,10.667h183.467c6.4,0,10.667-4.267,10.667-10.667V313.6C358.4,308.267,354.133,302.933,347.733,302.933z
	"/>
<g>
	<path style="fill:#FFFFFF;" d="M178.133,348.8c1.067,1.067,2.133,2.133,4.267,2.133c2.133,0,3.2-1.067,4.267-2.133
		c1.067-1.067,1.067-3.2,1.067-5.333v-16h6.4v16c0,4.267-1.067,7.467-3.2,9.6c-2.133,2.133-5.333,3.2-8.533,3.2
		c-3.2,0-6.4-1.067-8.533-3.2c-2.133-2.133-3.2-5.333-3.2-9.6v-16h6.4v16C176,345.6,177.067,347.733,178.133,348.8z"/>
	<path style="fill:#FFFFFF;" d="M220.8,330.667c2.133,2.133,3.2,4.267,3.2,7.467c0,3.2-1.067,6.4-3.2,7.467
		c-2.133,2.133-5.333,2.133-9.6,2.133h-4.267v8.533h-6.4v-28.8H211.2C215.467,327.467,218.667,328.533,220.8,330.667z
		 M216.533,341.333c1.067-1.067,1.067-2.133,1.067-4.267s0-3.2-1.067-3.2c-1.067-1.067-2.133-1.067-4.267-1.067h-3.2v9.6h4.267
		C214.4,342.4,215.467,342.4,216.533,341.333z"/>
	<path style="fill:#FFFFFF;" d="M229.333,356.267v-28.8h6.4v23.467h12.8v5.333H229.333z"/>
	<path style="fill:#FFFFFF;" d="M276.267,353.067c-3.2,3.2-6.4,4.267-10.667,4.267s-7.467-1.067-10.667-4.267
		c-3.2-3.2-4.267-6.4-4.267-10.667c0-4.267,1.067-7.467,4.267-10.667c3.2-3.2,6.4-4.267,10.667-4.267s7.467,1.067,10.667,4.267
		c3.2,3.2,4.267,6.4,4.267,10.667C280.533,346.667,279.467,349.867,276.267,353.067z M274.133,342.4c0-2.133-1.067-4.267-2.133-6.4
		c-2.133-2.133-3.2-3.2-6.4-3.2c-2.133,0-4.267,1.067-6.4,3.2c-2.133,2.133-2.133,4.267-2.133,6.4s1.067,4.267,2.133,6.4
		c2.133,2.133,3.2,3.2,6.4,3.2c2.133,0,4.267-1.067,6.4-3.2C273.067,346.667,274.133,344.533,274.133,342.4z"/>
	<path style="fill:#FFFFFF;" d="M306.133,356.267l-3.2-6.4H291.2l-3.2,6.4h-6.4l12.8-28.8h6.4l12.8,28.8H306.133z M297.6,336
		l-3.2,8.533h7.467L297.6,336z"/>
	<path style="fill:#FFFFFF;" d="M338.133,331.733c3.2,2.133,4.267,6.4,4.267,10.667c0,4.267-1.067,8.533-4.267,10.667
		c-3.2,2.133-6.4,4.267-12.8,4.267h-9.6v-28.8H326.4C331.733,327.467,336,328.533,338.133,331.733z M333.867,348.8
		c1.067-1.067,2.133-3.2,2.133-6.4c0-3.2-1.067-5.333-2.133-6.4s-4.267-2.133-7.467-2.133h-3.2V352h4.267
		C329.6,350.933,331.733,349.867,333.867,348.8z"/>
	<polygon style="fill:#FFFFFF;" points="224,262.4 288,262.4 288,165.333 324.267,165.333 256,97.067 187.733,165.333 224,165.333 	
		"/>
</g>
<g>
</g>
<g>
</g>
<g>
</g>
<g>
</g>
<g>
</g>
<g>
</g>
<g>
</g>
<g>
</g>
<g>
</g>
<g>
</g>
<g>
</g>
<g>
</g>
<g>
</g>
<g>
</g>
<g>
</g>
</svg>
