<?xml version="1.0" encoding="iso-8859-1"?>
<!-- Generator: Adobe Illustrator 19.0.0, SVG Export Plug-In . SVG Version: 6.00 Build 0)  -->
<svg version="1.1" id="Capa_1" xmlns="http://www.w3.org/2000/svg" xmlns:xlink="http://www.w3.org/1999/xlink" x="0px" y="0px"
	 viewBox="0 0 512 512" style="enable-background:new 0 0 512 512;" xml:space="preserve">
<path style="fill:#E8EAE9;" d="M443.733,317.867H268.8V265.6h-21.333v52.267h-176c-6.4,0-10.667,5.333-10.667,10.667v46.933h21.333
	V339.2h165.333v36.267H268.8V339.2h165.333v36.267h21.333v-46.933C454.4,323.2,450.133,317.867,443.733,317.867z"/>
<path style="fill:#F7B64C;" d="M397.867,115.2v-48c0-10.667-8.533-19.2-19.2-19.2H226.133l-16-23.467c-3.2-5.333-9.6-8.533-16-8.533
	h-61.867c-10.667,0-19.2,8.533-19.2,19.2v80H397.867z"/>
<path style="fill:#F3F3F3;" d="M366.933,61.867v121.6c0,10.667-8.533,19.2-19.2,19.2H164.267c-10.667,0-19.2-8.533-19.2-19.2V19.2
	c0-10.667,8.533-19.2,19.2-19.2h140.8L366.933,61.867z"/>
<polygon style="fill:#CED6E0;" points="366.933,61.867 305.067,61.867 305.067,0 "/>
<rect x="177.067" y="30.933" style="fill:#8AD7F8;" width="71.467" height="59.733"/>
<g>
	<rect x="177.067" y="114.133" style="fill:#E8EAE9;" width="158.933" height="10.667"/>
	<rect x="272" y="80" style="fill:#E8EAE9;" width="62.933" height="10.667"/>
</g>
<path style="fill:#FFD15C;" d="M401.067,104.533H110.933c-16,0-27.733,13.867-24.533,29.867l24.533,125.867
	c2.133,11.733,12.8,20.267,24.533,20.267H377.6c11.733,0,22.4-8.533,24.533-20.267L426.667,134.4
	C428.8,118.4,417.067,104.533,401.067,104.533z"/>
<path style="fill:#F3705A;" d="M113.067,369.067H28.8c-16,0-28.8,12.8-28.8,28.8v84.267C0,499.2,12.8,512,28.8,512h84.267
	c16,0,28.8-12.8,28.8-28.8v-84.267C142.933,381.867,129.067,369.067,113.067,369.067z"/>
<rect x="30.933" y="400" style="fill:#F05540;" width="81.067" height="81.067"/>
<path style="fill:#415A6B;" d="M298.667,369.067h-85.333c-16,0-28.8,12.8-28.8,28.8v84.267c0,16,12.8,28.8,28.8,28.8h85.333
	c16,0,28.8-12.8,28.8-28.8v-84.267C327.467,381.867,314.667,369.067,298.667,369.067z"/>
<rect x="215.467" y="400" style="fill:#344A5E;" width="81.067" height="81.067"/>
<path style="fill:#66C6B9;" d="M483.2,369.067h-84.267c-16,0-28.8,12.8-28.8,28.8v84.267c0,16,12.8,28.8,28.8,28.8H483.2
	c16,0,28.8-12.8,28.8-28.8v-84.267C512,381.867,499.2,369.067,483.2,369.067z"/>
<rect x="400" y="400" style="fill:#4ABAA5;" width="81.067" height="81.067"/>
<g>
</g>
<g>
</g>
<g>
</g>
<g>
</g>
<g>
</g>
<g>
</g>
<g>
</g>
<g>
</g>
<g>
</g>
<g>
</g>
<g>
</g>
<g>
</g>
<g>
</g>
<g>
</g>
<g>
</g>
</svg>
