<?xml version="1.0" encoding="iso-8859-1"?>
<!-- Generator: Adobe Illustrator 19.0.0, SVG Export Plug-In . SVG Version: 6.00 Build 0)  -->
<svg version="1.1" id="Capa_1" xmlns="http://www.w3.org/2000/svg" xmlns:xlink="http://www.w3.org/1999/xlink" x="0px" y="0px"
	 viewBox="0 0 512 512" style="enable-background:new 0 0 512 512;" xml:space="preserve">
<path style="fill:#F3F3F3;" d="M276.267,328.533c-1.067,5.333-3.2,45.867-22.4,45.867H62.933c-19.2,0-22.4-39.467-22.4-45.867
	C41.6,284.8,93.867,236.8,128,209.067C93.867,181.333,41.6,133.333,40.533,89.6c1.067-4.267,4.267-43.733,22.4-43.733h190.933
	c19.2,0,22.4,39.467,22.4,45.867C275.2,134.4,222.933,183.467,188.8,211.2C222.933,236.8,275.2,285.867,276.267,328.533z"/>
<path style="fill:#8AD7F8;" d="M238.933,339.2L238.933,339.2c0,0-6.4,26.667-17.067,36.267H94.933
	c-10.667-9.6-17.067-36.267-17.067-36.267C76.8,336,76.8,332.8,76.8,328.533c0-5.333,8.533-13.867,20.267-22.4
	c32-24.533,51.2-62.933,51.2-103.467v-21.333c-23.467-19.2-40.533-35.2-51.2-50.133H220.8c-11.733,14.933-27.733,30.933-51.2,50.133
	v21.333c0,40.533,19.2,78.933,52.267,103.467c11.733,8.533,20.267,17.067,20.267,21.333C241.067,332.8,240,336,238.933,339.2z"/>
<g>
	<path style="fill:#415A6B;" d="M294.4,0h-272C10.667,0,0,10.667,0,22.4l0,0c0,12.8,10.667,22.4,22.4,22.4h270.933
		c12.8,0,22.4-10.667,22.4-22.4l0,0C316.8,10.667,306.133,0,294.4,0z"/>
	<path style="fill:#415A6B;" d="M22.4,420.267h270.933c12.8,0,22.4-10.667,22.4-22.4l0,0c0-12.8-10.667-22.4-22.4-22.4H22.4
		c-12.8,0-22.4,10.667-22.4,22.4l0,0C0,409.6,10.667,420.267,22.4,420.267z"/>
</g>
<circle style="fill:#FFD15C;" cx="357.333" cy="357.333" r="154.667"/>
<circle style="fill:#F7B64C;" cx="357.333" cy="357.333" r="112"/>
<path style="fill:#FFD15C;" d="M350.933,429.867v-12.8c-14.933-2.133-28.8-9.6-41.6-20.267l16-20.267
	c9.6,7.467,17.067,12.8,24.533,14.933V364.8c-12.8-3.2-21.333-7.467-26.667-12.8s-8.533-12.8-8.533-23.467
	c0-9.6,3.2-18.133,9.6-24.533c6.4-6.4,14.933-10.667,25.6-11.733v-8.533H368v8.533c11.733,2.133,23.467,6.4,35.2,14.933
	l-14.933,20.267C380.8,322.133,374.4,318.933,368,316.8v25.6c12.8,3.2,22.4,7.467,27.733,12.8c6.4,5.333,8.533,12.8,8.533,23.467
	c0,9.6-3.2,18.133-9.6,24.533c-6.4,6.4-16,10.667-26.667,11.733v12.8h-17.067V429.867z M350.933,318.933
	c-5.333,2.133-7.467,5.333-7.467,9.6s2.133,8.533,7.467,10.667V318.933z M378.667,382.933c0-2.133-1.067-4.267-2.133-6.4
	c-1.067-2.133-3.2-3.2-7.467-4.267V393.6C375.467,391.467,378.667,388.267,378.667,382.933z"/>
<g>
</g>
<g>
</g>
<g>
</g>
<g>
</g>
<g>
</g>
<g>
</g>
<g>
</g>
<g>
</g>
<g>
</g>
<g>
</g>
<g>
</g>
<g>
</g>
<g>
</g>
<g>
</g>
<g>
</g>
</svg>
