<?xml version="1.0" encoding="iso-8859-1"?>
<!-- Generator: Adobe Illustrator 19.0.0, SVG Export Plug-In . SVG Version: 6.00 Build 0)  -->
<svg version="1.1" id="Capa_1" xmlns="http://www.w3.org/2000/svg" xmlns:xlink="http://www.w3.org/1999/xlink" x="0px" y="0px"
	 viewBox="0 0 512 512" style="enable-background:new 0 0 512 512;" xml:space="preserve">
<g>
	<path style="fill:#F7B64C;" d="M264.533,133.333c0-13.867,3.2-27.733,8.533-43.733c2.133-7.467,4.267-16,5.333-25.6
		c5.333-41.6-3.2-64-22.4-64s-26.667,22.4-22.4,64c1.067,9.6,3.2,18.133,5.333,25.6c5.333,16,7.467,29.867,8.533,43.733H264.533z"/>
	<rect x="238.933" y="117.333" style="fill:#F7B64C;" width="34.133" height="104.533"/>
	<path style="fill:#F7B64C;" d="M174.933,163.2c-9.6-9.6-17.067-22.4-25.6-36.267c-3.2-6.4-8.533-14.933-14.933-22.4
		c-24.533-33.067-45.867-42.667-59.733-29.867c-12.8,12.8-3.2,35.2,29.867,60.8c7.467,6.4,14.933,10.667,22.4,14.933
		c13.867,7.467,26.667,16,36.267,25.6L174.933,163.2z"/>
	
		<rect x="178.164" y="142.891" transform="matrix(-0.7071 0.7071 -0.7071 -0.7071 471.2764 195.1056)" style="fill:#F7B64C;" width="34.133" height="104.532"/>
	<path style="fill:#F7B64C;" d="M133.333,247.467c-13.867,0-27.733-3.2-43.733-8.533c-7.467-2.133-16-4.267-25.6-5.333
		c-41.6-5.333-64,3.2-64,22.4c0,19.2,22.4,26.667,64,22.4c9.6-1.067,18.133-3.2,25.6-5.333c16-5.333,29.867-7.467,43.733-8.533
		V247.467z"/>
	<rect x="117.333" y="238.933" style="fill:#F7B64C;" width="104.533" height="34.133"/>
	<path style="fill:#F7B64C;" d="M163.2,337.067c-9.6,9.6-22.4,17.067-36.267,25.6c-6.4,3.2-14.933,8.533-22.4,14.933
		c-33.067,25.6-42.667,48-29.867,60.8c12.8,12.8,35.2,3.2,60.8-29.867c6.4-7.467,10.667-14.933,14.933-22.4
		c7.467-13.867,16-26.667,25.6-36.267L163.2,337.067z"/>
	
		<rect x="178.016" y="264.525" transform="matrix(0.7071 0.7071 -0.7071 0.7071 281.1436 -45.1577)" style="fill:#F7B64C;" width="34.133" height="104.532"/>
	<path style="fill:#F7B64C;" d="M247.467,378.667c0,13.867-3.2,27.733-8.533,43.733c-2.133,7.467-4.267,16-5.333,25.6
		c-5.333,41.6,3.2,64,22.4,64c19.2,0,26.667-22.4,22.4-64c-1.067-9.6-3.2-18.133-5.333-25.6c-5.333-16-7.467-29.867-8.533-43.733
		H247.467z"/>
	<rect x="238.933" y="290.133" style="fill:#F7B64C;" width="34.133" height="104.533"/>
	<path style="fill:#F7B64C;" d="M337.067,348.8c9.6,9.6,17.067,22.4,25.6,36.267c3.2,6.4,8.533,14.933,14.933,22.4
		c25.6,33.067,48,42.667,60.8,29.867c12.8-12.8,3.2-35.2-29.867-60.8c-7.467-6.4-14.933-10.667-22.4-14.933
		c-13.867-7.467-26.667-16-36.267-25.6L337.067,348.8z"/>
	
		<rect x="299.822" y="264.598" transform="matrix(0.7071 -0.7071 0.7071 0.7071 -131.2423 316.8811)" style="fill:#F7B64C;" width="34.133" height="104.532"/>
	<path style="fill:#F7B64C;" d="M378.667,264.533c13.867,0,27.733,3.2,43.733,8.533c7.467,2.133,16,4.267,25.6,5.333
		c41.6,5.333,64-3.2,64-22.4s-22.4-26.667-64-22.4c-9.6,1.067-18.133,3.2-25.6,5.333c-16,5.333-29.867,7.467-43.733,8.533V264.533z"
		/>
	<rect x="290.133" y="238.933" style="fill:#F7B64C;" width="104.533" height="34.133"/>
	<path style="fill:#F7B64C;" d="M348.8,174.933c9.6-9.6,22.4-17.067,36.267-25.6c6.4-3.2,14.933-8.533,22.4-14.933
		c33.067-25.6,42.667-48,29.867-60.8c-12.8-12.8-35.2-3.2-60.8,29.867c-6.4,7.467-10.667,14.933-14.933,22.4
		c-7.467,13.867-16,26.667-25.6,36.267L348.8,174.933z"/>
	
		<rect x="299.722" y="142.878" transform="matrix(-0.7071 -0.7071 0.7071 -0.7071 402.8041 557.136)" style="fill:#F7B64C;" width="34.133" height="104.532"/>
</g>
<circle style="fill:#F3705A;" cx="256" cy="256" r="94.933"/>
<circle style="fill:#FFFFFF;" cx="256" cy="256" r="75.733"/>
<path style="fill:#66C6B9;" d="M284.8,274.133l-22.4-22.4v-39.467c0-3.2-3.2-6.4-6.4-6.4l0,0c-3.2,0-6.4,3.2-6.4,6.4v42.667
	c0,2.133,1.067,3.2,2.133,4.267l24.533,24.533c2.133,2.133,6.4,2.133,9.6,0C286.933,281.6,286.933,277.333,284.8,274.133z"/>
<circle style="fill:#415A6B;" cx="256" cy="256" r="14.933"/>
<circle style="fill:#344A5E;" cx="256" cy="256" r="7.467"/>
<path style="fill:#F3705A;" d="M256,102.4c-85.333,0-153.6,68.267-153.6,153.6S171.733,409.6,256,409.6
	c85.333,0,153.6-69.333,153.6-153.6C409.6,170.667,341.333,102.4,256,102.4z M256,373.333c-65.067,0-117.333-52.267-117.333-117.333
	S190.933,138.667,256,138.667S373.333,190.933,373.333,256S321.067,373.333,256,373.333z"/>
<g>
	<circle style="fill:#E8EAE9;" cx="256" cy="196.267" r="4.267"/>
	<circle style="fill:#E8EAE9;" cx="213.333" cy="213.333" r="4.267"/>
	<circle style="fill:#E8EAE9;" cx="196.267" cy="256" r="4.267"/>
	<circle style="fill:#E8EAE9;" cx="213.333" cy="298.667" r="4.267"/>
	<circle style="fill:#E8EAE9;" cx="256" cy="315.733" r="4.267"/>
	<circle style="fill:#E8EAE9;" cx="298.667" cy="298.667" r="4.267"/>
	<circle style="fill:#E8EAE9;" cx="315.733" cy="256" r="4.267"/>
	<circle style="fill:#E8EAE9;" cx="298.667" cy="213.333" r="4.267"/>
</g>
<g>
</g>
<g>
</g>
<g>
</g>
<g>
</g>
<g>
</g>
<g>
</g>
<g>
</g>
<g>
</g>
<g>
</g>
<g>
</g>
<g>
</g>
<g>
</g>
<g>
</g>
<g>
</g>
<g>
</g>
</svg>
