<?xml version="1.0" encoding="iso-8859-1"?>
<!-- Generator: Adobe Illustrator 19.0.0, SVG Export Plug-In . SVG Version: 6.00 Build 0)  -->
<svg version="1.1" id="Capa_1" xmlns="http://www.w3.org/2000/svg" xmlns:xlink="http://www.w3.org/1999/xlink" x="0px" y="0px"
	 viewBox="0 0 512 512" style="enable-background:new 0 0 512 512;" xml:space="preserve">
<circle style="fill:#415A6B;" cx="226.133" cy="226.133" r="226.133"/>
<circle style="fill:#FFFFFF;" cx="226.133" cy="226.133" r="176"/>
<path style="fill:#66C6B9;" d="M226.133,236.8h-77.867c-6.4,0-10.667-4.267-10.667-10.667s4.267-10.667,10.667-10.667h77.867
	c6.4,0,10.667,4.267,10.667,10.667S232.533,236.8,226.133,236.8z"/>
<path style="fill:#F3705A;" d="M226.133,236.8c-6.4,0-10.667-4.267-10.667-10.667v-108.8c0-6.4,4.267-10.667,10.667-10.667
	s10.667,4.267,10.667,10.667v108.8C236.8,232.533,232.533,236.8,226.133,236.8z"/>
<g>
	<circle style="fill:#E8EAE9;" cx="226.133" cy="74.667" r="10.667"/>
	<circle style="fill:#E8EAE9;" cx="118.4" cy="118.4" r="10.667"/>
	<circle style="fill:#E8EAE9;" cx="74.667" cy="226.133" r="10.667"/>
	<circle style="fill:#E8EAE9;" cx="118.4" cy="333.867" r="10.667"/>
	<circle style="fill:#E8EAE9;" cx="226.133" cy="377.6" r="10.667"/>
	<circle style="fill:#E8EAE9;" cx="333.867" cy="333.867" r="10.667"/>
	<circle style="fill:#E8EAE9;" cx="377.6" cy="226.133" r="10.667"/>
	<circle style="fill:#E8EAE9;" cx="333.867" cy="118.4" r="10.667"/>
</g>
<circle style="fill:#FFD15C;" cx="226.133" cy="226.133" r="35.2"/>
<circle style="fill:#F7B64C;" cx="226.133" cy="226.133" r="18.133"/>
<path style="fill:#F3705A;" d="M348.8,512c-75.733,0-137.6-61.867-137.6-137.6s61.867-137.6,137.6-137.6s137.6,61.867,137.6,137.6
	S424.533,512,348.8,512z"/>
<path style="fill:#FFFFFF;" d="M348.8,475.733c-55.467,0-100.267-44.8-100.267-100.267S293.333,275.2,348.8,275.2
	S449.067,320,449.067,375.467S404.267,475.733,348.8,475.733z"/>
<path style="fill:#F3705A;" d="M348.8,438.4c-35.2,0-64-28.8-64-64s28.8-64,64-64s64,28.8,64,64
	C413.867,409.6,385.067,438.4,348.8,438.4z"/>
<circle style="fill:#FFFFFF;" cx="348.8" cy="374.4" r="27.733"/>
<path style="fill:#415A6B;" d="M452.267,256L341.333,366.933c-4.267,4.267-4.267,10.667,0,14.933c4.267,4.267,10.667,4.267,14.933,0
	L467.2,270.933C462.933,265.6,457.6,261.333,452.267,256z"/>
<polygon style="fill:#66C6B9;" points="470.4,212.267 427.733,254.933 436.267,289.067 470.4,296.533 512,254.933 477.867,246.4 "/>
<g>
</g>
<g>
</g>
<g>
</g>
<g>
</g>
<g>
</g>
<g>
</g>
<g>
</g>
<g>
</g>
<g>
</g>
<g>
</g>
<g>
</g>
<g>
</g>
<g>
</g>
<g>
</g>
<g>
</g>
</svg>
