<?xml version="1.0" encoding="iso-8859-1"?>
<!-- Generator: Adobe Illustrator 19.0.0, SVG Export Plug-In . SVG Version: 6.00 Build 0)  -->
<svg version="1.1" id="Capa_1" xmlns="http://www.w3.org/2000/svg" xmlns:xlink="http://www.w3.org/1999/xlink" x="0px" y="0px"
	 viewBox="0 0 512 512" style="enable-background:new 0 0 512 512;" xml:space="preserve">
<path style="fill:#E8EAE9;" d="M473.6,445.867L446.933,342.4c-6.4-23.467-24.533-40.533-48-45.867l-96-21.333H170.667l-96,21.333
	c-23.467,5.333-41.6,22.4-48,45.867L0,445.867H473.6z"/>
<path style="fill:#415A6B;" d="M204.8,445.867h62.933L256,389.333l17.067-17.067c0,0-23.467-37.333-37.333-37.333
	c-12.8,0-37.333,37.333-37.333,37.333l17.067,17.067L204.8,445.867z"/>
<g>
	<path style="fill:#F3F3F3;" d="M176,254.933L236.8,336l-43.733,44.8L160,278.4C165.333,268.8,176,254.933,176,254.933z"/>
	<path style="fill:#F3F3F3;" d="M297.6,254.933L236.8,336l43.733,44.8L313.6,278.4C308.267,268.8,297.6,254.933,297.6,254.933z"/>
</g>
<polygon style="fill:#F7B64C;" points="176,186.667 176,254.933 236.8,336 297.6,254.933 297.6,186.667 "/>
<g>
	<path style="fill:#FFD15C;" d="M340.267,183.467c-3.2,17.067-14.933,28.8-25.6,25.6c-10.667-3.2-16-19.2-11.733-36.267
		c4.267-16,14.933-26.667,24.533-24.533C338.133,151.467,343.467,166.4,340.267,183.467z"/>
	<path style="fill:#FFD15C;" d="M133.333,183.467c3.2,17.067,14.933,28.8,25.6,25.6c10.667-3.2,16-19.2,11.733-36.267
		c-4.267-16-14.933-26.667-24.533-24.533C135.467,151.467,130.133,166.4,133.333,183.467z"/>
	<path style="fill:#FFD15C;" d="M170.667,84.267c-13.867,21.333-22.4,49.067-22.4,80c0,66.133,39.467,120.533,88.533,120.533
		s88.533-53.333,88.533-120.533c0-30.933-8.533-59.733-23.467-81.067L170.667,84.267z"/>
</g>
<path style="fill:#415A6B;" d="M322.133,195.2h-6.4c8.533-35.2,4.267-62.933-4.267-90.667C307.2,91.733,294.4,83.2,280.533,83.2
	c-14.933,4.267-28.8,6.4-43.733,6.4c-14.933,0-29.867-2.133-43.733-6.4c-13.867,0-25.6,8.533-30.933,21.333
	c-9.6,26.667-12.8,55.467-4.267,90.667h-6.4c0,0-61.867-194.133,85.333-195.2C384,0,322.133,195.2,322.133,195.2z"/>
<path style="fill:#F3705A;" d="M453.333,262.4H339.2c0,0-13.867,35.2-58.667,51.2v56.533c0,64,56.533,120.533,116.267,141.867
	C455.467,490.667,512,434.133,512,370.133V313.6C466.133,297.6,453.333,262.4,453.333,262.4z"/>
<path style="fill:#FFFFFF;" d="M395.733,476.8c-40.533-19.2-83.2-60.8-83.2-105.6V336c22.4-11.733,36.267-27.733,44.8-39.467h75.733
	c8.533,12.8,23.467,27.733,44.8,39.467v35.2C478.933,416,436.267,456.533,395.733,476.8z"/>
<g>
</g>
<g>
</g>
<g>
</g>
<g>
</g>
<g>
</g>
<g>
</g>
<g>
</g>
<g>
</g>
<g>
</g>
<g>
</g>
<g>
</g>
<g>
</g>
<g>
</g>
<g>
</g>
<g>
</g>
</svg>
