<?xml version="1.0" encoding="iso-8859-1"?>
<!-- Generator: Adobe Illustrator 19.0.0, SVG Export Plug-In . SVG Version: 6.00 Build 0)  -->
<svg version="1.1" id="Capa_1" xmlns="http://www.w3.org/2000/svg" xmlns:xlink="http://www.w3.org/1999/xlink" x="0px" y="0px"
	 viewBox="0 0 512 512" style="enable-background:new 0 0 512 512;" xml:space="preserve">
<path style="fill:#F3F3F3;" d="M410.667,512H124.8L0,387.2V32C0,13.867,13.867,0,32,0h378.667c18.133,0,32,13.867,32,32v448
	C442.667,498.133,428.8,512,410.667,512z"/>
<g>
	<rect x="53.333" y="53.333" style="fill:#CED6E0;" width="336" height="28.8"/>
	<rect x="53.333" y="141.867" style="fill:#CED6E0;" width="336" height="28.8"/>
	<rect x="53.333" y="230.4" style="fill:#CED6E0;" width="336" height="28.8"/>
	<rect x="53.333" y="318.933" style="fill:#CED6E0;" width="336" height="28.8"/>
	<polygon style="fill:#CED6E0;" points="124.8,512 124.8,387.2 0,387.2 	"/>
</g>
<path style="fill:#F3705A;" d="M370.133,197.333c0,3.2,0,7.467,0,10.667l-20.267,12.8l10.667,25.6L384,241.067
	c2.133,3.2,5.333,5.333,7.467,8.533l-5.333,23.467l25.6,10.667l12.8-20.267c3.2,0,7.467,0,10.667,0l12.8,20.267l25.6-10.667
	l-4.267-22.4c3.2-2.133,5.333-5.333,8.533-7.467l23.467,5.333l10.667-25.6l-20.267-12.8c0-3.2,0-7.467,0-10.667l20.267-12.8
	l-10.667-25.6l-23.467,5.333c-2.133-3.2-5.333-5.333-7.467-8.533l5.333-23.467l-25.6-10.667l-12.8,19.2c-4.267,0-7.467,0-10.667,0
	l-12.8-20.267l-25.6,10.667L393.6,156.8c-3.2,2.133-5.333,5.333-7.467,7.467l-23.467-5.333L352,184.533L370.133,197.333z
	 M395.733,187.733c8.533-20.267,32-28.8,51.2-20.267c20.267,8.533,28.8,32,20.267,51.2c-8.533,20.267-32,28.8-51.2,20.267
	C395.733,230.4,387.2,208,395.733,187.733z M413.867,196.267c4.267-9.6,14.933-13.867,24.533-9.6
	c9.6,4.267,13.867,14.933,9.6,24.533s-14.933,13.867-24.533,9.6C413.867,216.533,409.6,205.867,413.867,196.267z"/>
<path style="fill:#FFD15C;" d="M261.333,330.667c-3.2,5.333-6.4,10.667-9.6,17.067l-37.333,6.4l-3.2,33.067l35.2,14.933
	c1.067,6.4,3.2,12.8,5.333,18.133L230.4,451.2l21.333,25.6l35.2-14.933c5.333,3.2,10.667,6.4,17.067,9.6l6.4,37.333l33.067,3.2
	l14.933-35.2c6.4-1.067,12.8-3.2,18.133-5.333l30.933,21.333l25.6-21.333l-14.933-34.133c3.2-5.333,6.4-10.667,9.6-17.067
	l37.333-6.4l3.2-33.067l-35.2-14.933c-1.067-6.4-3.2-12.8-5.333-18.133l21.333-30.933l-21.333-25.6l-35.2,14.933
	c-5.333-4.267-10.667-6.4-17.067-9.6l-6.4-37.333L336,256l-13.867,35.2c-6.4,1.067-12.8,3.2-18.133,5.333L273.067,275.2
	l-25.6,21.333L261.333,330.667z M314.667,353.067c17.067-13.867,41.6-10.667,55.467,5.333C384,375.467,381.867,400,364.8,413.867
	s-41.6,10.667-55.467-6.4C294.4,391.467,297.6,366.933,314.667,353.067z"/>
<g>
</g>
<g>
</g>
<g>
</g>
<g>
</g>
<g>
</g>
<g>
</g>
<g>
</g>
<g>
</g>
<g>
</g>
<g>
</g>
<g>
</g>
<g>
</g>
<g>
</g>
<g>
</g>
<g>
</g>
</svg>
