<?xml version="1.0" encoding="iso-8859-1"?>
<!-- Generator: Adobe Illustrator 19.0.0, SVG Export Plug-In . SVG Version: 6.00 Build 0)  -->
<svg version="1.1" id="Capa_1" xmlns="http://www.w3.org/2000/svg" xmlns:xlink="http://www.w3.org/1999/xlink" x="0px" y="0px"
	 viewBox="0 0 512 512" style="enable-background:new 0 0 512 512;" xml:space="preserve">
<path style="fill:#66C6B9;" d="M512,290.133V220.8l-54.4-18.133c-5.333-19.2-12.8-36.267-22.4-53.333l26.667-51.2L412.8,49.067
	l-51.2,26.667c-16-9.6-34.133-17.067-52.267-22.4L290.133,0H220.8l-18.133,55.467C183.467,60.8,166.4,67.2,150.4,77.867L99.2,50.133
	L50.133,99.2L76.8,150.4c-9.6,16-17.067,34.133-22.4,52.267L0,221.867V291.2l55.467,18.133c5.333,19.2,12.8,36.267,22.4,52.267
	L51.2,412.8l49.067,49.067l51.2-26.667c16,9.6,34.133,17.067,52.267,22.4l18.133,54.4H291.2l18.133-54.4
	c19.2-5.333,36.267-12.8,52.267-22.4l51.2,26.667l49.067-49.067L435.2,361.6c9.6-16,17.067-34.133,22.4-52.267L512,290.133z"/>
<circle style="fill:#FFFFFF;" cx="256" cy="256" r="149.333"/>
<path style="fill:#344A5E;" d="M231.467,362.667C235.733,371.2,245.333,377.6,256,377.6c10.667,0,20.267-6.4,24.533-14.933H231.467z
	"/>
<path style="fill:#FFD15C;" d="M297.6,310.4c4.267-11.733,10.667-22.4,19.2-32c14.933-14.933,24.533-36.267,24.533-59.733
	c0-50.133-43.733-90.667-94.933-84.267c-39.467,4.267-71.467,37.333-74.667,76.8c-2.133,25.6,6.4,49.067,22.4,66.133
	c9.6,9.6,16,21.333,20.267,33.067H297.6z"/>
<path style="fill:#415A6B;" d="M284.8,364.8h-57.6c-7.467,0-12.8-5.333-12.8-12.8v-40.533h83.2V352
	C297.6,358.4,291.2,364.8,284.8,364.8z"/>
<g>
	<path style="fill:#344A5E;" d="M297.6,307.2h-82.133c-4.267,0-7.467,3.2-7.467,7.467s3.2,7.467,7.467,7.467H297.6
		c4.267,0,7.467-3.2,7.467-7.467C305.067,310.4,300.8,307.2,297.6,307.2z"/>
	<path style="fill:#344A5E;" d="M297.6,334.933h-82.133c-4.267,0-7.467,3.2-7.467,7.467s3.2,7.467,7.467,7.467H297.6
		c4.267,0,7.467-3.2,7.467-7.467C305.067,338.133,300.8,334.933,297.6,334.933z"/>
</g>
<g>
</g>
<g>
</g>
<g>
</g>
<g>
</g>
<g>
</g>
<g>
</g>
<g>
</g>
<g>
</g>
<g>
</g>
<g>
</g>
<g>
</g>
<g>
</g>
<g>
</g>
<g>
</g>
<g>
</g>
</svg>
