<?xml version="1.0" encoding="iso-8859-1"?>
<!-- Generator: Adobe Illustrator 19.0.0, SVG Export Plug-In . SVG Version: 6.00 Build 0)  -->
<svg version="1.1" id="Capa_1" xmlns="http://www.w3.org/2000/svg" xmlns:xlink="http://www.w3.org/1999/xlink" x="0px" y="0px"
	 viewBox="0 0 512 512" style="enable-background:new 0 0 512 512;" xml:space="preserve">
<path style="fill:#E8EAE9;" d="M392.533,87.467V368c0,13.867-10.667,24.533-24.533,24.533H24.533C10.667,392.533,0,381.867,0,368
	V87.467H392.533z"/>
<path style="fill:#F3705A;" d="M392.533,87.467V24.533C392.533,10.667,381.867,0,368,0H24.533C10.667,0,0,10.667,0,24.533v62.933
	H392.533z"/>
<g>
	<circle style="fill:#FFFFFF;" cx="49.067" cy="43.733" r="18.133"/>
	<circle style="fill:#FFFFFF;" cx="102.4" cy="43.733" r="18.133"/>
	<circle style="fill:#FFFFFF;" cx="154.667" cy="43.733" r="18.133"/>
</g>
<path style="fill:#F3F3F3;" d="M512,206.933v280.533C512,501.333,501.333,512,487.467,512H144
	c-13.867,0-24.533-10.667-24.533-24.533V206.933H512z"/>
<path style="fill:#66C6B9;" d="M512,206.933V144c0-13.867-10.667-24.533-24.533-24.533H144c-13.867,0-24.533,10.667-24.533,24.533
	v62.933H512z"/>
<circle style="fill:#F3705A;" cx="168.533" cy="163.2" r="18.133"/>
<circle style="fill:#FFD15C;" cx="221.867" cy="163.2" r="18.133"/>
<g>
	<circle style="fill:#415A6B;" cx="274.133" cy="163.2" r="18.133"/>
	<path style="fill:#415A6B;" d="M301.867,400v36.267H160V400c0-7.467,4.267-14.933,10.667-18.133c37.333-19.2,82.133-19.2,119.467,0
		C297.6,385.067,301.867,392.533,301.867,400z"/>
	<circle style="fill:#415A6B;" cx="231.467" cy="315.733" r="33.067"/>
</g>
<g>
	<rect x="330.667" y="309.333" style="fill:#CED6E0;" width="139.733" height="14.933"/>
	<rect x="330.667" y="352" style="fill:#CED6E0;" width="139.733" height="14.933"/>
	<rect x="330.667" y="394.667" style="fill:#CED6E0;" width="74.667" height="14.933"/>
</g>
<g>
</g>
<g>
</g>
<g>
</g>
<g>
</g>
<g>
</g>
<g>
</g>
<g>
</g>
<g>
</g>
<g>
</g>
<g>
</g>
<g>
</g>
<g>
</g>
<g>
</g>
<g>
</g>
<g>
</g>
</svg>
