<?xml version="1.0" encoding="iso-8859-1"?>
<!-- Generator: Adobe Illustrator 19.0.0, SVG Export Plug-In . SVG Version: 6.00 Build 0)  -->
<svg version="1.1" id="Capa_1" xmlns="http://www.w3.org/2000/svg" xmlns:xlink="http://www.w3.org/1999/xlink" x="0px" y="0px"
	 viewBox="0 0 512 512" style="enable-background:new 0 0 512 512;" xml:space="preserve">
<path style="fill:#FFD15C;" d="M428.267,66.133H84.8c-18.133,0-33.067,14.933-33.067,33.067v379.733
	C51.733,497.067,66.667,512,84.8,512h342.4c18.133,0,33.067-14.933,33.067-33.067V99.2C460.267,81.067,446.4,66.133,428.267,66.133z
	"/>
<rect x="96.533" y="109.867" style="fill:#FFFFFF;" width="321.067" height="358.4"/>
<g>
	<path style="fill:#415A6B;" d="M334.4,265.6H178.667c-4.267,0-6.4-3.2-6.4-6.4v-77.867c0-4.267,3.2-6.4,6.4-6.4H334.4
		c4.267,0,6.4,3.2,6.4,6.4v76.8C341.867,262.4,338.667,265.6,334.4,265.6z M185.067,251.733H328v-64H185.067V251.733z"/>
	<path style="fill:#415A6B;" d="M256.533,430.933c-16,0-29.867-12.8-29.867-29.867c0-16,12.8-29.867,29.867-29.867
		c16,0,29.867,12.8,29.867,29.867S272.533,430.933,256.533,430.933z M256.533,385.067c-8.533,0-16,7.467-16,16s7.467,16,16,16
		s16-7.467,16-16S265.067,385.067,256.533,385.067z"/>
	<path style="fill:#415A6B;" d="M160.533,430.933c-16,0-29.867-12.8-29.867-29.867c0-16,12.8-29.867,29.867-29.867
		c16,0,29.867,12.8,29.867,29.867S176.533,430.933,160.533,430.933z M160.533,385.067c-8.533,0-16,7.467-16,16s7.467,16,16,16
		s16-7.467,16-16S169.067,385.067,160.533,385.067z"/>
	<path style="fill:#415A6B;" d="M352.533,430.933c-16,0-29.867-12.8-29.867-29.867c0-16,12.8-29.867,29.867-29.867
		c16,0,29.867,12.8,29.867,29.867S368.533,430.933,352.533,430.933z M352.533,385.067c-8.533,0-16,7.467-16,16s7.467,16,16,16
		s16-7.467,16-16S361.067,385.067,352.533,385.067z"/>
	<path style="fill:#415A6B;" d="M273.6,327.467l-9.6,9.6v-48c0-4.267-3.2-6.4-6.4-6.4c-4.267,0-6.4,3.2-6.4,6.4v48l-9.6-9.6
		c-3.2-3.2-7.467-3.2-9.6,0c-2.133,3.2-2.133,7.467,0,9.6l21.333,21.333c1.067,1.067,3.2,2.133,5.333,2.133l0,0
		c2.133,0,3.2-1.067,5.333-2.133l21.333-21.333c2.133-3.2,2.133-7.467,0-9.6C280,325.333,275.733,325.333,273.6,327.467z"/>
	<path style="fill:#415A6B;" d="M198.933,336l-11.733,6.4l14.933-45.867c1.067-3.2-1.067-7.467-4.267-8.533
		c-3.2-1.067-7.467,1.067-8.533,4.267L174.4,338.133l-6.4-12.8c-2.133-3.2-5.333-4.267-9.6-3.2c-3.2,2.133-4.267,5.333-3.2,9.6
		l13.867,27.733c1.067,2.133,2.133,3.2,4.267,3.2c1.067,0,1.067,0,2.133,0s2.133,0,3.2-1.067l26.667-13.867
		c3.2-2.133,4.267-6.4,3.2-9.6C206.4,336,202.133,334.933,198.933,336z"/>
	<path style="fill:#415A6B;" d="M354.667,323.2c-3.2-2.133-7.467,0-9.6,3.2l-6.4,12.8l-14.933-45.867
		c-1.067-3.2-5.333-5.333-8.533-4.267c-3.2,1.067-5.333,5.333-4.267,8.533l14.933,45.867l-11.733-6.4
		c-3.2-2.133-7.467-1.067-9.6,3.2c-2.133,3.2-1.067,7.467,3.2,9.6l26.667,13.867c1.067,0,2.133,1.067,3.2,1.067
		c1.067,0,1.067,0,2.133,0c2.133-1.067,3.2-2.133,4.267-3.2l13.867-27.733C358.933,328.533,357.867,325.333,354.667,323.2z"/>
</g>
<path style="fill:#F3705A;" d="M324.8,46.933h-32V36.267C293.867,16,276.8,0,256.533,0S219.2,16,219.2,36.267v10.667h-32
	c-10.667,0-20.267,8.533-20.267,20.267V128H344V67.2C345.067,56.533,336.533,46.933,324.8,46.933z M256.533,45.867
	c-5.333,0-8.533-4.267-8.533-8.533c0-5.333,4.267-8.533,8.533-8.533c5.333,0,8.533,4.267,8.533,8.533S261.867,45.867,256.533,45.867
	z"/>
<g>
</g>
<g>
</g>
<g>
</g>
<g>
</g>
<g>
</g>
<g>
</g>
<g>
</g>
<g>
</g>
<g>
</g>
<g>
</g>
<g>
</g>
<g>
</g>
<g>
</g>
<g>
</g>
<g>
</g>
</svg>
