<?xml version="1.0" encoding="iso-8859-1"?>
<!-- Generator: Adobe Illustrator 19.0.0, SVG Export Plug-In . SVG Version: 6.00 Build 0)  -->
<svg version="1.1" id="Capa_1" xmlns="http://www.w3.org/2000/svg" xmlns:xlink="http://www.w3.org/1999/xlink" x="0px" y="0px"
	 viewBox="0 0 512 512" style="enable-background:new 0 0 512 512;" xml:space="preserve">
<path style="fill:#F3F3F3;" d="M425.067,0H164.8L53.867,112v368c0,18.133,13.867,32,32,32h340.267c18.133,0,32-13.867,32-32V32
	C457.067,13.867,443.2,0,425.067,0z"/>
<g>
	<rect x="104" y="445.867" style="fill:#CED6E0;" width="183.467" height="23.467"/>
	<rect x="104" y="377.6" style="fill:#CED6E0;" width="301.867" height="23.467"/>
</g>
<rect x="104" y="309.333" style="fill:#F3705A;" width="301.867" height="23.467"/>
<polygon style="fill:#CED6E0;" points="164.8,0 53.867,112 164.8,112 "/>
<g>
	
		<ellipse transform="matrix(0.1029 -0.9947 0.9947 0.1029 144.8303 418.7149)" style="fill:#FFD15C;" cx="304.548" cy="129.065" rx="17.067" ry="10.667"/>
	
		<ellipse transform="matrix(0.1029 0.9947 -0.9947 0.1029 314.599 -90.2543)" style="fill:#FFD15C;" cx="207.336" cy="129.284" rx="17.067" ry="10.667"/>
</g>
<g>
	<ellipse style="fill:#344A5E;" cx="233.067" cy="102.4" rx="30.933" ry="54.4"/>
	<ellipse style="fill:#344A5E;" cx="258.667" cy="103.467" rx="50.133" ry="62.933"/>
	<path style="fill:#344A5E;" d="M371.733,264.533c-3.2-20.267-7.467-41.6-14.933-50.133c-18.133-19.2-75.733-20.267-101.333-20.267
		s-83.2,0-101.333,20.267c-7.467,8.533-11.733,29.867-14.933,50.133H371.733z"/>
</g>
<path style="fill:#F7B64C;" d="M282.133,166.4v11.733c-7.467,18.133-16,27.733-25.6,38.4c-9.6-10.667-18.133-20.267-25.6-38.4V166.4
	c7.467-19.2,17.067-32,25.6-42.667C264,134.4,274.667,147.2,282.133,166.4z"/>
<polygon style="fill:#FFFFFF;" points="276.8,264.533 277.867,210.133 233.067,210.133 234.133,264.533 "/>
<path style="fill:#55C0EB;" d="M242.667,264.533h25.6l-5.333-32l7.467-7.467c0,0-9.6-14.933-14.933-14.933
	c-5.333,0-14.933,14.933-14.933,14.933l7.467,7.467L242.667,264.533z"/>
<g>
	<polygon style="fill:#F3F3F3;" points="282.133,174.933 255.467,210.133 275.733,230.4 290.667,190.933 	"/>
	<polygon style="fill:#F3F3F3;" points="229.867,174.933 255.467,210.133 235.2,230.4 220.267,190.933 	"/>
</g>
<path style="fill:#FFD15C;" d="M214.933,87.467c-4.267,9.6-7.467,21.333-7.467,33.067c0,35.2,21.333,62.933,48,62.933
	s48-27.733,48-62.933c0-9.6-2.133-18.133-4.267-26.667l0,0C270.4,104.533,242.667,102.4,214.933,87.467z"/>
<g>
	<polygon style="fill:#415A6B;" points="288.533,264.533 306.667,243.2 287.467,226.133 314.133,210.133 287.467,185.6 
		266.133,264.533 	"/>
	<polygon style="fill:#415A6B;" points="204.267,243.2 222.4,264.533 244.8,264.533 223.467,185.6 196.8,210.133 223.467,226.133 	
		"/>
</g>
<g>
</g>
<g>
</g>
<g>
</g>
<g>
</g>
<g>
</g>
<g>
</g>
<g>
</g>
<g>
</g>
<g>
</g>
<g>
</g>
<g>
</g>
<g>
</g>
<g>
</g>
<g>
</g>
<g>
</g>
</svg>
