<?xml version="1.0" encoding="iso-8859-1"?>
<!-- Generator: Adobe Illustrator 19.0.0, SVG Export Plug-In . SVG Version: 6.00 Build 0)  -->
<svg version="1.1" id="Capa_1" xmlns="http://www.w3.org/2000/svg" xmlns:xlink="http://www.w3.org/1999/xlink" x="0px" y="0px"
	 viewBox="0 0 510.933 510.933" style="enable-background:new 0 0 510.933 510.933;" xml:space="preserve">
<path style="fill:#F3F3F3;" d="M420.24,0H91.706C73.573,0,58.64,14.933,58.64,33.067v444.8c0,18.133,14.933,33.067,33.067,33.067
	h327.467c18.133,0,33.067-14.933,33.067-33.067v-444.8C453.306,14.933,438.373,0,420.24,0z"/>
<rect x="103.44" y="57.6" style="fill:#8AD7F8;" width="305.067" height="347.733"/>
<circle style="fill:#CED6E0;" cx="255.973" cy="458.667" r="28.8"/>
<path style="fill:#FFFFFF;" d="M249.573,226.133V214.4c-13.867-2.133-26.667-8.533-38.4-19.2l14.933-19.2
	c8.533,7.467,16,12.8,23.467,14.933V166.4c-11.733-3.2-20.267-7.467-25.6-11.733c-5.333-5.333-8.533-12.8-8.533-21.333
	c0-9.6,3.2-17.067,9.6-23.467c6.4-6.4,13.867-9.6,24.533-10.667v-9.6h17.067v8.533c10.667,1.067,22.4,6.4,33.067,13.867
	l-13.867,19.2c-7.467-5.333-13.867-8.533-19.2-9.6v23.467c11.733,3.2,20.267,7.467,26.667,12.8c5.333,5.333,8.533,12.8,8.533,22.4
	c0,9.6-3.2,17.067-9.6,23.467c-6.4,6.4-14.933,9.6-25.6,10.667v11.733H249.573z M249.573,120.533
	c-4.267,2.133-7.467,4.267-7.467,9.6c0,5.333,2.133,7.467,7.467,9.6V120.533z M275.173,181.333c0-2.133-1.067-4.267-2.133-5.333
	c-1.067-1.067-3.2-3.2-6.4-4.267V192C271.973,189.867,275.173,186.667,275.173,181.333z"/>
<path style="fill:#F3705A;" d="M366.906,190.933L355.173,243.2l-14.933-14.933l-70.4,70.4c-1.067,1.067-3.2,2.133-5.333,2.133
	c-2.133,0-4.267-1.067-5.333-2.133L232.506,272l-64,64H154.64v-9.6l71.467-71.467c1.067-1.067,3.2-2.133,5.333-2.133
	s4.267,1.067,5.333,2.133L263.44,281.6l64-64l-14.933-14.933L366.906,190.933z"/>
<path style="fill:#F3F3F3;" d="M355.173,348.8h-198.4c-6.4,0-11.733-5.333-11.733-11.733V204.8c0-6.4,5.333-11.733,11.733-11.733
	c6.4,0,11.733,5.333,11.733,11.733v120.533H356.24c6.4,0,11.733,5.333,11.733,11.733S361.573,348.8,355.173,348.8z"/>
<g>
</g>
<g>
</g>
<g>
</g>
<g>
</g>
<g>
</g>
<g>
</g>
<g>
</g>
<g>
</g>
<g>
</g>
<g>
</g>
<g>
</g>
<g>
</g>
<g>
</g>
<g>
</g>
<g>
</g>
</svg>
