<?xml version="1.0" encoding="iso-8859-1"?>
<!-- Generator: Adobe Illustrator 19.0.0, SVG Export Plug-In . SVG Version: 6.00 Build 0)  -->
<svg version="1.1" id="Capa_1" xmlns="http://www.w3.org/2000/svg" xmlns:xlink="http://www.w3.org/1999/xlink" x="0px" y="0px"
	 viewBox="0 0 512 512" style="enable-background:new 0 0 512 512;" xml:space="preserve">
<path style="fill:#F3F3F3;" d="M435.2,0H166.4L44.8,121.6V480c0,18.133,13.867,32,32,32h358.4c18.133,0,32-13.867,32-32V32
	C467.2,13.867,452.267,0,435.2,0z"/>
<polygon style="fill:#8AD7F8;" points="166.4,0 44.8,121.6 166.4,121.6 "/>
<path style="fill:#F3705A;" d="M365.867,133.333L374.4,160C184.533,224,108.8,385.067,92.8,426.667
	c-2.133,5.333,1.067,11.733,6.4,12.8c5.333,1.067,10.667-1.067,11.733-5.333c14.933-38.4,87.467-194.133,269.867-256l8.533,26.667
	l33.067-51.2L365.867,133.333z"/>
<g>
	<path style="fill:#415A6B;" d="M218.667,442.667c-22.4,0-40.533-18.133-40.533-40.533c0-22.4,18.133-40.533,40.533-40.533
		c22.4,0,40.533,18.133,40.533,40.533C259.2,424.533,241.067,442.667,218.667,442.667z M218.667,384c-10.667,0-19.2,8.533-19.2,19.2
		c0,10.667,8.533,19.2,19.2,19.2c10.667,0,19.2-8.533,19.2-19.2C237.867,392.533,229.333,384,218.667,384z"/>
	<path style="fill:#415A6B;" d="M168.533,204.8l13.867-13.867c4.267-4.267,4.267-10.667,0-14.933l0,0
		c-4.267-4.267-10.667-4.267-14.933,0L153.6,189.867L139.733,176c-4.267-4.267-10.667-4.267-14.933,0l0,0
		c-4.267,4.267-4.267,10.667,0,14.933l13.867,13.867L124.8,218.667c-4.267,4.267-4.267,10.667,0,14.933s10.667,4.267,14.933,0
		l13.867-13.867l13.867,13.867c4.267,4.267,10.667,4.267,14.933,0l0,0c4.267-4.267,4.267-10.667,0-14.933L168.533,204.8z"/>
	<path style="fill:#415A6B;" d="M339.2,316.8l13.867,13.867c4.267,4.267,4.267,10.667,0,14.933l0,0
		c-4.267,4.267-10.667,4.267-14.933,0l-13.867-13.867L310.4,345.6c-4.267,4.267-10.667,4.267-14.933,0l0,0
		c-4.267-4.267-4.267-10.667,0-14.933l13.867-13.867l-13.867-13.867c-4.267-4.267-4.267-10.667,0-14.933l0,0
		c4.267-4.267,10.667-4.267,14.933,0l13.867,13.867L338.133,288c4.267-4.267,10.667-4.267,14.933,0l0,0
		c4.267,4.267,4.267,10.667,0,14.933L339.2,316.8z"/>
</g>
<g>
</g>
<g>
</g>
<g>
</g>
<g>
</g>
<g>
</g>
<g>
</g>
<g>
</g>
<g>
</g>
<g>
</g>
<g>
</g>
<g>
</g>
<g>
</g>
<g>
</g>
<g>
</g>
<g>
</g>
</svg>
