<?xml version="1.0" encoding="iso-8859-1"?>
<!-- Generator: Adobe Illustrator 19.0.0, SVG Export Plug-In . SVG Version: 6.00 Build 0)  -->
<svg version="1.1" id="Capa_1" xmlns="http://www.w3.org/2000/svg" xmlns:xlink="http://www.w3.org/1999/xlink" x="0px" y="0px"
	 viewBox="0 0 511.601 511.601" style="enable-background:new 0 0 511.601 511.601;" xml:space="preserve">
<rect x="308.031" y="301.958" transform="matrix(-0.7071 -0.7071 0.7071 -0.7071 343.3778 828.2794)" style="fill:#344A5E;" width="70.399" height="82.133"/>
<circle style="fill:#FFFFFF;" cx="194.801" cy="195.068" r="173.867"/>
<path style="fill:#415A6B;" d="M333.467,333.734c-76.8,76.8-200.533,76.8-276.267,0s-76.8-200.533,0-276.267s200.533-76.8,276.267,0
	C410.267,133.201,410.267,258.001,333.467,333.734z M87.067,87.334c-59.733,59.733-59.733,155.733,0,215.467
	s155.733,59.733,215.467,0s59.733-155.733,0-215.467C243.867,28.668,146.801,28.668,87.067,87.334z"/>
<path style="fill:#F3705A;" d="M484.934,403.068l-76.8-52.267l-57.6,57.6l52.267,76.8c21.333,30.933,65.067,35.2,91.733,8.533
	C520.134,468.134,516.934,423.334,484.934,403.068z"/>
<path style="fill:#F3F3F3;" d="M414.534,351.868l-62.933,62.933c-8.533,8.533-22.4,8.533-30.933,0s-8.533-22.4,0-30.933
	l62.933-62.933c8.533-8.533,22.4-8.533,30.933,0C423.067,329.468,423.067,343.334,414.534,351.868z"/>
<path style="fill:#FFD15C;" d="M205.467,72.401v71.467c6.4,1.067,12.8,4.267,18.133,7.467l50.133-50.133
	C254.534,84.134,230.001,74.534,205.467,72.401z"/>
<path style="fill:#F3705A;" d="M239.601,166.268c13.867,20.267,10.667,48-6.4,66.133c-20.267,20.267-53.333,20.267-74.667,0
	c-7.467-7.467-12.8-17.067-13.867-26.667H72.134c2.133,27.733,13.867,55.467,35.2,76.8c48,48,125.867,48,173.867,0
	c45.867-45.867,48-118.4,7.467-166.4L239.601,166.268z"/>
<path style="fill:#8AD7F8;" d="M143.601,184.401c2.133-9.6,6.4-19.2,13.867-26.667c7.467-7.467,17.067-11.733,26.667-13.867V72.401
	c-27.733,2.133-55.467,13.867-76.8,35.2s-33.067,49.067-35.2,76.8H143.601z"/>
<g>
</g>
<g>
</g>
<g>
</g>
<g>
</g>
<g>
</g>
<g>
</g>
<g>
</g>
<g>
</g>
<g>
</g>
<g>
</g>
<g>
</g>
<g>
</g>
<g>
</g>
<g>
</g>
<g>
</g>
</svg>
