<?xml version="1.0" encoding="iso-8859-1"?>
<!-- Generator: Adobe Illustrator 19.0.0, SVG Export Plug-In . SVG Version: 6.00 Build 0)  -->
<svg version="1.1" id="Capa_1" xmlns="http://www.w3.org/2000/svg" xmlns:xlink="http://www.w3.org/1999/xlink" x="0px" y="0px"
	 viewBox="0 0 512.89 512.89" style="enable-background:new 0 0 512.89 512.89;" xml:space="preserve">
<path style="fill:#F3705A;" d="M319.379,178.579v-36.267c0-9.6-7.467-17.067-17.067-17.067s-17.067,7.467-17.067,17.067v28.8
	c-5.333-1.067-11.733-1.067-17.067-2.133c-12.8-1.067-26.667,0-39.467,2.133v-27.733c0-9.6-7.467-17.067-17.067-17.067
	c-9.6,0-17.067,7.467-17.067,17.067v35.2c-89.6,26.667-153.6,108.8-153.6,205.867c0,34.133,7.467,66.133,21.333,93.867
	c4.267,7.467,11.733,12.8,20.267,12.8h9.6v21.333h46.933l5.333-21.333h225.067l5.333,21.333h46.933v-21.333h9.6
	c8.533,0,16-5.333,19.2-12.8c14.933-29.867,22.4-64,21.333-100.267C468.712,285.245,404.712,205.245,319.379,178.579z"/>
<circle style="fill:#FFFFFF;" cx="256.445" cy="338.579" r="101.333"/>
<g>
	<circle style="fill:#CED6E0;" cx="320.445" cy="338.579" r="16"/>
	<circle style="fill:#CED6E0;" cx="302.312" cy="293.779" r="16"/>
	<circle style="fill:#CED6E0;" cx="256.445" cy="274.579" r="16"/>
	<circle style="fill:#CED6E0;" cx="210.579" cy="293.779" r="16"/>
	<circle style="fill:#CED6E0;" cx="192.445" cy="338.579" r="16"/>
	<circle style="fill:#CED6E0;" cx="210.579" cy="384.445" r="16"/>
	<circle style="fill:#CED6E0;" cx="256.445" cy="403.645" r="16"/>
	<circle style="fill:#CED6E0;" cx="302.312" cy="384.445" r="16"/>
</g>
<path style="fill:#F3705A;" d="M158.312,144.445c12.8-3.2,20.267-14.933,16-26.667c-3.2-9.6-7.467-19.2-10.667-28.8
	c-9.6-19.2,30.933-48,92.8-48s102.4,28.8,92.8,48c-4.267,9.6-7.467,19.2-10.667,28.8c-4.267,11.733,3.2,23.467,16,26.667
	c38.4,8.533,75.733,21.333,112,39.467c10.667,5.333,22.4,2.133,28.8-7.467c4.267-7.467,8.533-16,12.8-23.467
	c28.8-37.333-76.8-152.533-251.733-152.533s-280.533,115.2-251.733,153.6c4.267,7.467,8.533,16,12.8,23.467
	c5.333,9.6,18.133,12.8,28.8,7.467C82.579,165.779,119.912,152.979,158.312,144.445z"/>
<g>
</g>
<g>
</g>
<g>
</g>
<g>
</g>
<g>
</g>
<g>
</g>
<g>
</g>
<g>
</g>
<g>
</g>
<g>
</g>
<g>
</g>
<g>
</g>
<g>
</g>
<g>
</g>
<g>
</g>
</svg>
