<?xml version="1.0" encoding="iso-8859-1"?>
<!-- Generator: Adobe Illustrator 19.0.0, SVG Export Plug-In . SVG Version: 6.00 Build 0)  -->
<svg version="1.1" id="Capa_1" xmlns="http://www.w3.org/2000/svg" xmlns:xlink="http://www.w3.org/1999/xlink" x="0px" y="0px"
	 viewBox="0 0 512 512" style="enable-background:new 0 0 512 512;" xml:space="preserve">
<polygon style="fill:#344A5E;" points="375.467,353.067 364.8,286.933 304,265.6 256,281.6 208,265.6 147.2,286.933 
	136.533,353.067 "/>
<polygon style="fill:#CED6E0;" points="276.267,353.067 296.533,291.2 209.067,291.2 227.2,353.067 "/>
<g>
	<polygon style="fill:#F3705A;" points="272,353.067 266.667,321.067 245.333,321.067 240,353.067 	"/>
	<polygon style="fill:#F3705A;" points="266.667,321.067 276.267,311.467 256,291.2 235.733,311.467 245.333,321.067 	"/>
</g>
<path style="fill:#F7B64C;" d="M222.933,209.067V246.4c6.4,19.2,33.067,44.8,33.067,44.8l33.067-44.8v-37.333L222.933,209.067
	L222.933,209.067z"/>
<g>
	<path style="fill:#FFD15C;" d="M312.533,208c-2.133,9.6-8.533,16-13.867,13.867c-5.333-2.133-8.533-10.667-6.4-20.267
		c2.133-8.533,8.533-14.933,13.867-12.8C311.467,190.933,314.667,198.4,312.533,208z"/>
	<path style="fill:#FFD15C;" d="M199.467,208c2.133,9.6,8.533,16,13.867,13.867c5.333-2.133,8.533-10.667,6.4-20.267
		c-2.133-8.533-8.533-14.933-13.867-12.8C200.533,190.933,197.333,198.4,199.467,208z"/>
</g>
<path style="fill:#344A5E;" d="M309.333,174.933c0,14.933-1.067,29.867-7.467,46.933l-91.733,1.067c-6.4-16-6.4-33.067-6.4-46.933
	c1.067-41.6,22.4-54.4,53.333-54.4C288,120.533,310.4,132.267,309.333,174.933z"/>
<polygon style="fill:#F3F3F3;" points="222.933,246.4 256,291.2 231.467,315.733 212.267,263.467 "/>
<polygon style="fill:#415A6B;" points="186.667,327.467 203.733,353.067 238.933,353.067 216.533,256 178.133,293.333 204.8,310.4 
	"/>
<polygon style="fill:#F3F3F3;" points="289.067,246.4 256,291.2 280.533,315.733 299.733,263.467 "/>
<polygon style="fill:#415A6B;" points="308.267,353.067 325.333,327.467 307.2,310.4 333.867,293.333 295.467,256 273.067,353.067 
	"/>
<path style="fill:#FFD15C;" d="M274.133,168.533c-11.733,7.467-25.6,11.733-42.667,11.733c-6.4,0-12.8-1.067-19.2-2.133
	c-3.2,7.467-5.333,17.067-5.333,25.6c0,32,21.333,58.667,49.067,58.667c26.667,0,49.067-26.667,49.067-58.667
	c0-7.467-1.067-14.933-3.2-22.4C290.133,179.2,281.6,174.933,274.133,168.533z"/>
<path style="fill:#CED6E0;" d="M256,473.6c-119.467,0-217.6-98.133-217.6-217.6S136.533,38.4,256,38.4S473.6,135.467,473.6,256
	C473.6,375.467,375.467,473.6,256,473.6z M256,59.733C148.267,59.733,59.733,148.267,59.733,256S147.2,452.267,256,452.267
	S452.267,363.733,452.267,256S363.733,59.733,256,59.733z"/>
<circle style="fill:#F3705A;" cx="462.933" cy="256" r="49.067"/>
<circle style="fill:#F05540;" cx="462.933" cy="256" r="26.667"/>
<circle style="fill:#55C0EB;" cx="256" cy="49.067" r="49.067"/>
<circle style="fill:#8AD7F8;" cx="256" cy="49.067" r="26.667"/>
<circle style="fill:#FFD15C;" cx="49.067" cy="256" r="49.067"/>
<circle style="fill:#F7B64C;" cx="49.067" cy="256" r="26.667"/>
<circle style="fill:#66C6B9;" cx="256" cy="462.933" r="49.067"/>
<circle style="fill:#4ABAA5;" cx="256" cy="462.933" r="26.667"/>
<g>
</g>
<g>
</g>
<g>
</g>
<g>
</g>
<g>
</g>
<g>
</g>
<g>
</g>
<g>
</g>
<g>
</g>
<g>
</g>
<g>
</g>
<g>
</g>
<g>
</g>
<g>
</g>
<g>
</g>
</svg>
