<?xml version="1.0" encoding="iso-8859-1"?>
<!-- Generator: Adobe Illustrator 19.0.0, SVG Export Plug-In . SVG Version: 6.00 Build 0)  -->
<svg version="1.1" id="Capa_1" xmlns="http://www.w3.org/2000/svg" xmlns:xlink="http://www.w3.org/1999/xlink" x="0px" y="0px"
	 viewBox="0 0 512 512" style="enable-background:new 0 0 512 512;" xml:space="preserve">
<polygon style="fill:#F7B64C;" points="366.933,467.2 145.067,467.2 158.933,416 353.067,416 "/>
<path style="fill:#F3F3F3;" d="M480,0H32C13.867,0,0,13.867,0,32v306.133c0,18.133,13.867,32,32,32h448c18.133,0,32-13.867,32-32V32
	C512,13.867,498.133,0,480,0z"/>
<path style="fill:#4ABAA5;" d="M462.933,316.8c-1.067-17.067-14.933-30.933-32-30.933h-128c-17.067,0-30.933,13.867-32,30.933
	H462.933z"/>
<path style="fill:#66C6B9;" d="M288,274.133L288,274.133c0,6.4,5.333,11.733,11.733,11.733H435.2c6.4,0,11.733-5.333,11.733-11.733
	l0,0c0-6.4-5.333-11.733-11.733-11.733H299.733C293.333,261.333,288,266.667,288,274.133z"/>
<path style="fill:#4ABAA5;" d="M405.333,144l3.2-26.667H326.4L329.6,144c4.267,36.267-5.333,78.933-29.867,118.4H435.2l0,0
	C409.6,221.867,400,179.2,405.333,144z"/>
<path style="fill:#66C6B9;" d="M427.733,54.4v49.067c0,7.467-6.4,12.8-12.8,12.8h-92.8c-7.467,0-12.8-6.4-12.8-12.8V54.4H332.8V80
	h23.467V54.4h23.467V80H403.2V54.4H427.733z"/>
<rect x="49.067" y="192" style="fill:#415A6B;" width="71.467" height="123.733"/>
<rect x="166.4" y="141.867" style="fill:#F3705A;" width="71.467" height="174.933"/>
<g>
	<polygon style="fill:#FFD15C;" points="153.6,512 74.667,512 126.933,370.133 206.933,370.133 	"/>
	<polygon style="fill:#FFD15C;" points="358.4,512 437.333,512 385.067,370.133 305.067,370.133 	"/>
</g>
<g>
</g>
<g>
</g>
<g>
</g>
<g>
</g>
<g>
</g>
<g>
</g>
<g>
</g>
<g>
</g>
<g>
</g>
<g>
</g>
<g>
</g>
<g>
</g>
<g>
</g>
<g>
</g>
<g>
</g>
</svg>
