<?xml version="1.0" encoding="iso-8859-1"?>
<!-- Generator: Adobe Illustrator 19.0.0, SVG Export Plug-In . SVG Version: 6.00 Build 0)  -->
<svg version="1.1" id="Capa_1" xmlns="http://www.w3.org/2000/svg" xmlns:xlink="http://www.w3.org/1999/xlink" x="0px" y="0px"
	 viewBox="0 0 512 512" style="enable-background:new 0 0 512 512;" xml:space="preserve">
<path style="fill:#F3F3F3;" d="M434.133,0H173.867l-128,128v352c0,18.133,13.867,32,32,32h356.267c18.133,0,32-13.867,32-32V32
	C466.133,13.867,452.267,0,434.133,0z"/>
<polygon style="fill:#66C6B9;" points="173.867,0 45.867,128 173.867,128 "/>
<rect x="96" y="333.867" style="fill:#F3705A;" width="52.267" height="129.067"/>
<rect x="185.6" y="258.133" style="fill:#FFD15C;" width="52.267" height="204.8"/>
<rect x="275.2" y="323.2" style="fill:#415A6B;" width="52.267" height="139.733"/>
<rect x="364.8" y="217.6" style="fill:#66C6B9;" width="52.267" height="245.333"/>
<path style="fill:#415A6B;" d="M417.067,93.867l-19.2,72.533l-18.133-17.067L279.467,249.6c-5.333,5.333-12.8,5.333-18.133,0
	L211.2,199.467l-98.133,99.2l-18.133-18.133l108.8-108.8c5.333-5.333,12.8-5.333,18.133,0L272,221.867l90.667-90.667l-18.133-18.133
	L417.067,93.867z"/>
<g>
</g>
<g>
</g>
<g>
</g>
<g>
</g>
<g>
</g>
<g>
</g>
<g>
</g>
<g>
</g>
<g>
</g>
<g>
</g>
<g>
</g>
<g>
</g>
<g>
</g>
<g>
</g>
<g>
</g>
</svg>
