<?xml version="1.0" encoding="iso-8859-1"?>
<!-- Generator: Adobe Illustrator 19.0.0, SVG Export Plug-In . SVG Version: 6.00 Build 0)  -->
<svg version="1.1" id="Capa_1" xmlns="http://www.w3.org/2000/svg" xmlns:xlink="http://www.w3.org/1999/xlink" x="0px" y="0px"
	 viewBox="0 0 511.872 511.872" style="enable-background:new 0 0 511.872 511.872;" xml:space="preserve">
<path style="fill:#66C6B9;" d="M295.339,354.133L275.072,374.4c-16,16-59.733-1.067-98.133-39.467S121.472,252.8,137.472,236.8
	l20.267-20.267L24.405,84.267l-6.4,6.4c-48,48,3.2,177.067,115.2,288c110.933,112,240,163.2,288,115.2l7.467-7.467L295.339,354.133z
	"/>
<g>
	<path style="fill:#415A6B;" d="M157.739,216.533l20.267-20.267c9.6-9.6,9.6-24.533,0-34.133l-99.2-99.2
		c-9.6-9.6-24.533-9.6-34.133,0L24.405,84.267L157.739,216.533z"/>
	<path style="fill:#415A6B;" d="M349.739,333.867c-9.6-9.6-24.533-9.6-34.133,0l-20.267,20.267l133.333,133.333l20.267-20.267
		c9.6-9.6,9.6-24.533,0-34.133L349.739,333.867z"/>
</g>
<path style="fill:#E8EAE9;" d="M488.405,0H244.139c-12.8,0-23.467,10.667-23.467,23.467V185.6c0,12.8,10.667,23.467,23.467,23.467
	h244.267c12.8,0,23.467-10.667,23.467-23.467V23.467C511.872,10.667,501.205,0,488.405,0z"/>
<path style="fill:#CED6E0;" d="M366.805,62.933L228.139,201.6c4.267,4.267,9.6,6.4,16,6.4h244.267c6.4,0,11.733-2.133,16-6.4
	L366.805,62.933z"/>
<path style="fill:#F3F3F3;" d="M366.805,145.067L505.472,6.4C501.205,2.133,494.805,0,488.405,0H244.139c-6.4,0-11.733,2.133-16,6.4
	L366.805,145.067z"/>
<g>
</g>
<g>
</g>
<g>
</g>
<g>
</g>
<g>
</g>
<g>
</g>
<g>
</g>
<g>
</g>
<g>
</g>
<g>
</g>
<g>
</g>
<g>
</g>
<g>
</g>
<g>
</g>
<g>
</g>
</svg>
