<?xml version="1.0" encoding="iso-8859-1"?>
<!-- Generator: Adobe Illustrator 19.0.0, SVG Export Plug-In . SVG Version: 6.00 Build 0)  -->
<svg version="1.1" id="Capa_1" xmlns="http://www.w3.org/2000/svg" xmlns:xlink="http://www.w3.org/1999/xlink" x="0px" y="0px"
	 viewBox="0 0 511.733 511.733" style="enable-background:new 0 0 511.733 511.733;" xml:space="preserve">
<path style="fill:#E8EAE9;" d="M483.2,117.333v336c0,17.067-13.867,29.867-29.867,29.867H29.867C12.8,483.2,0,469.333,0,453.333
	v-336H483.2z"/>
<path style="fill:#8AD7F8;" d="M483.2,29.867v87.467H0V29.867C0,13.867,13.867,0,29.867,0h423.467
	C470.4,0,483.2,13.867,483.2,29.867z"/>
<g>
	<circle style="fill:#FFFFFF;" cx="71.467" cy="58.667" r="21.333"/>
	<circle style="fill:#FFFFFF;" cx="139.733" cy="58.667" r="21.333"/>
	<circle style="fill:#FFFFFF;" cx="206.933" cy="58.667" r="21.333"/>
</g>
<rect x="359.647" y="359.147" transform="matrix(-0.7071 0.7071 -0.7071 -0.7071 937.4398 387.5931)" style="fill:#344A5E;" width="57.599" height="57.599"/>
<circle style="fill:#FFFFFF;" cx="288" cy="288" r="114.133"/>
<path style="fill:#415A6B;" d="M381.867,381.867c-51.2,51.2-135.467,51.2-187.733,0s-51.2-135.467,0-187.733
	c51.2-51.2,135.467-51.2,187.733,0C434.133,246.4,434.133,330.667,381.867,381.867z M219.733,219.733
	c-37.333,37.333-37.333,99.2,0,136.533s99.2,37.333,136.533,0s37.333-99.2,0-136.533S258.133,182.4,219.733,219.733z"/>
<path style="fill:#F3705A;" d="M384,449.067l49.067,49.067c18.133,18.133,46.933,18.133,65.067,0
	c18.133-18.133,18.133-46.933,0-65.067L449.067,384L384,449.067z"/>
<path style="fill:#F3F3F3;" d="M451.2,386.133L386.133,451.2c-5.333,5.333-14.933,5.333-20.267,0
	c-5.333-5.333-5.333-14.933,0-20.267l65.067-65.067c5.333-5.333,14.933-5.333,20.267,0C456.533,371.2,456.533,380.8,451.2,386.133z"
	/>
<path style="fill:#F3705A;" d="M349.867,261.333l-70.4,69.333c-4.267,4.267-10.667,4.267-14.933,0L227.2,293.333
	c-4.267-4.267-4.267-10.667,0-14.933s10.667-4.267,14.933,0L272,308.267l62.933-62.933c4.267-4.267,10.667-4.267,14.933,0
	C354.133,249.6,354.133,257.067,349.867,261.333z"/>
<g>
</g>
<g>
</g>
<g>
</g>
<g>
</g>
<g>
</g>
<g>
</g>
<g>
</g>
<g>
</g>
<g>
</g>
<g>
</g>
<g>
</g>
<g>
</g>
<g>
</g>
<g>
</g>
<g>
</g>
</svg>
