<?xml version="1.0" encoding="iso-8859-1"?>
<!-- Generator: Adobe Illustrator 19.0.0, SVG Export Plug-In . SVG Version: 6.00 Build 0)  -->
<svg version="1.1" id="Capa_1" xmlns="http://www.w3.org/2000/svg" xmlns:xlink="http://www.w3.org/1999/xlink" x="0px" y="0px"
	 viewBox="0 0 512 512" style="enable-background:new 0 0 512 512;" xml:space="preserve">
<path style="fill:#344A5E;" d="M182.835,490.667c12.8,12.8,29.867,21.333,50.133,21.333c19.2,0,37.333-8.533,50.133-21.333H182.835z
	"/>
<path style="fill:#F3F3F3;" d="M380.168,230.4c-7.467-67.2-62.933-121.6-130.133-129.067C160.435,90.667,84.702,160,84.702,247.467
	c0,41.6,17.067,78.933,44.8,105.6c17.067,17.067,29.867,38.4,34.133,62.933h139.733c4.267-23.467,17.067-45.867,34.133-62.933
	C367.368,322.133,385.502,278.4,380.168,230.4z"/>
<path style="fill:#FFD15C;" d="M252.168,422.4h-39.467v-4.267c0-54.4-12.8-106.667-37.333-150.4
	c-11.733-22.4-14.933-38.4-9.6-49.067c4.267-7.467,13.867-11.733,26.667-11.733c7.467,0,12.8,1.067,17.067,3.2
	c6.4-2.133,13.867-3.2,22.4-3.2c8.533,0,16,1.067,22.4,3.2c4.267-2.133,9.6-3.2,17.067-3.2c13.867,0,22.4,4.267,26.667,11.733
	c6.4,10.667,3.2,26.667-9.6,49.067c-24.533,44.8-37.333,97.067-37.333,150.4v4.267H252.168z M222.302,413.867h21.333
	c1.067-54.4,13.867-105.6,38.4-150.4c12.8-23.467,11.733-34.133,9.6-39.467c-3.2-4.267-9.6-7.467-19.2-7.467
	c-2.133,0-4.267,0-6.4,1.067c7.467,5.333,10.667,13.867,10.667,21.333c0,10.667-5.333,18.133-13.867,19.2c-6.4,0-12.8-3.2-16-9.6
	c-5.333-8.533-5.333-19.2-1.067-27.733c0-1.067,1.067-2.133,2.133-3.2c-8.533-2.133-20.267-2.133-27.733,0
	c1.067,1.067,1.067,2.133,2.133,3.2c4.267,8.533,4.267,19.2-1.067,27.733c-4.267,6.4-9.6,9.6-16,9.6
	c-8.533-1.067-13.867-8.533-13.867-19.2c0-7.467,4.267-16,10.667-21.333c-2.133,0-4.267-1.067-6.4-1.067c-9.6,0-16,2.133-19.2,7.467
	c-3.2,5.333-3.2,16,9.6,39.467C208.435,307.2,221.235,359.467,222.302,413.867z M255.368,221.867c-1.067,1.067-2.133,2.133-3.2,3.2
	c-3.2,5.333-2.133,12.8,1.067,18.133c1.067,2.133,4.267,5.333,8.533,5.333c3.2,0,5.333-4.267,5.333-9.6
	C267.102,232.533,262.835,226.133,255.368,221.867z M209.502,221.867c-7.467,4.267-11.733,10.667-11.733,17.067
	c0,5.333,2.133,9.6,5.333,9.6c4.267,0,6.4-3.2,8.533-5.333c3.2-5.333,3.2-12.8,1.067-18.133
	C211.635,224,210.568,222.933,209.502,221.867z"/>
<path style="fill:#415A6B;" d="M289.502,493.867H175.368c-8.533,0-16-7.467-16-16V416h146.133v61.867
	C305.502,487.467,299.102,493.867,289.502,493.867z"/>
<g>
	<path style="fill:#344A5E;" d="M306.568,401.067h-147.2c-8.533,0-14.933,6.4-14.933,14.933l0,0c0,8.533,6.4,14.933,14.933,14.933
		h147.2c8.533,0,14.933-6.4,14.933-14.933l0,0C321.502,407.467,314.035,401.067,306.568,401.067z"/>
	<path style="fill:#344A5E;" d="M306.568,448h-147.2c-8.533,0-14.933,6.4-14.933,14.933l0,0c0,8.533,6.4,14.933,14.933,14.933h147.2
		c8.533,0,14.933-6.4,14.933-14.933l0,0C321.502,454.4,314.035,448,306.568,448z"/>
</g>
<path style="fill:#F3705A;" d="M459.102,305.067l22.4,4.267l-37.333-55.467L388.702,291.2l22.4,4.267
	c-9.6,49.067-46.933,85.333-91.733,96c2.133,0,4.267,1.067,5.333,1.067C387.635,405.333,447.368,365.867,459.102,305.067z"/>
<path style="fill:#FFD15C;" d="M167.902,22.4L160.435,0l-29.867,59.733L190.302,89.6l-7.467-22.4c46.933-16,97.067-2.133,130.133,32
	c-1.067-2.133-1.067-3.2-2.133-5.333C291.635,34.133,227.635,2.133,167.902,22.4z"/>
<path style="fill:#8AD7F8;" d="M68.702,416l-14.933,17.067l66.133-4.267l-4.267-66.133l-14.933,17.067
	c-37.333-33.067-50.133-83.2-37.333-128c-1.067,1.067-3.2,3.2-4.267,4.267C17.502,302.933,21.768,374.4,68.702,416z"/>
<g>
</g>
<g>
</g>
<g>
</g>
<g>
</g>
<g>
</g>
<g>
</g>
<g>
</g>
<g>
</g>
<g>
</g>
<g>
</g>
<g>
</g>
<g>
</g>
<g>
</g>
<g>
</g>
<g>
</g>
</svg>
