<?xml version="1.0" encoding="iso-8859-1"?>
<!-- Generator: Adobe Illustrator 19.0.0, SVG Export Plug-In . SVG Version: 6.00 Build 0)  -->
<svg version="1.1" id="Capa_1" xmlns="http://www.w3.org/2000/svg" xmlns:xlink="http://www.w3.org/1999/xlink" x="0px" y="0px"
	 viewBox="0 0 512 512" style="enable-background:new 0 0 512 512;" xml:space="preserve">
<rect x="202.667" y="385.067" style="fill:#344A5E;" width="105.6" height="48"/>
<path style="fill:#415A6B;" d="M489.6,22.4H22.4C9.6,22.4,0,33.067,0,44.8v318.933c0,11.733,9.6,21.333,21.333,22.4
	c156.8,5.333,312.533,5.333,469.333,0c11.733,0,21.333-9.6,21.333-22.4V44.8C512,33.067,502.4,22.4,489.6,22.4z"/>
<rect x="42.667" y="65.067" style="fill:#8AD7F8;" width="426.667" height="246.4"/>
<circle style="fill:#344A5E;" cx="256" cy="352" r="13.867"/>
<polygon style="fill:#415A6B;" points="156.8,434.133 355.2,434.133 382.933,489.6 129.067,489.6 "/>
<g>
	<path style="fill:#55C0EB;" d="M236.8,124.8l-128,129.067c-6.4,6.4-16,6.4-22.4,0c-6.4-6.4-6.4-16,0-22.4l128-129.067
		c6.4-6.4,16-6.4,22.4,0C243.2,108.8,243.2,118.4,236.8,124.8z"/>
	<path style="fill:#55C0EB;" d="M251.733,193.067l-74.667,74.667c-6.4,6.4-16,6.4-22.4,0s-6.4-16,0-22.4l74.667-74.667
		c6.4-6.4,16-6.4,22.4,0C257.067,177.067,257.067,186.667,251.733,193.067z"/>
</g>
<g>
</g>
<g>
</g>
<g>
</g>
<g>
</g>
<g>
</g>
<g>
</g>
<g>
</g>
<g>
</g>
<g>
</g>
<g>
</g>
<g>
</g>
<g>
</g>
<g>
</g>
<g>
</g>
<g>
</g>
</svg>
