<?xml version="1.0" encoding="iso-8859-1"?>
<!-- Generator: Adobe Illustrator 19.0.0, SVG Export Plug-In . SVG Version: 6.00 Build 0)  -->
<svg version="1.1" id="Capa_1" xmlns="http://www.w3.org/2000/svg" xmlns:xlink="http://www.w3.org/1999/xlink" x="0px" y="0px"
	 viewBox="0 0 512 512" style="enable-background:new 0 0 512 512;" xml:space="preserve">
<path style="fill:#F3F3F3;" d="M330.667,0h-249.6c-18.133,0-32,13.867-32,32v448c0,18.133,13.867,32,32,32h349.867
	c18.133,0,32-13.867,32-32V132.267L330.667,0z"/>
<g>
	<rect x="102.4" y="423.467" style="fill:#E8EAE9;" width="100.267" height="32"/>
	<rect x="102.4" y="333.867" style="fill:#E8EAE9;" width="307.2" height="32"/>
	<rect x="102.4" y="245.333" style="fill:#E8EAE9;" width="307.2" height="32"/>
	<rect x="102.4" y="155.733" style="fill:#E8EAE9;" width="307.2" height="32"/>
</g>
<rect x="102.4" y="66.133" style="fill:#F3705A;" width="158.933" height="32"/>
<polygon style="fill:#CED6E0;" points="330.667,0 330.667,132.267 462.933,132.267 "/>
<path style="fill:#415A6B;" d="M272,459.733c-4.267,0-7.467-1.067-10.667-3.2c-2.133-2.133-3.2-5.333-1.067-7.467
	c2.133-2.133,5.333-3.2,7.467-1.067c3.2,2.133,9.6,1.067,13.867-2.133c3.2-2.133,5.333-4.267,8.533-7.467
	c2.133-2.133,4.267-4.267,7.467-6.4c8.533-6.4,17.067-8.533,24.533-5.333C326.4,428.8,329.6,432,332.8,435.2
	c1.067,1.067,3.2,3.2,4.267,4.267c5.333,4.267,12.8,5.333,20.267,3.2c7.467-2.133,14.933-6.4,22.4-10.667
	c2.133-1.067,5.333-1.067,7.467,2.133c1.067,2.133,1.067,5.333-2.133,7.467c-7.467,4.267-16,9.6-25.6,11.733
	c-10.667,3.2-22.4,1.067-29.867-5.333c-2.133-1.067-3.2-3.2-5.333-5.333c-2.133-2.133-4.267-4.267-6.4-5.333
	C313.6,435.2,307.2,438.4,304,441.6c-2.133,2.133-4.267,4.267-6.4,5.333c-3.2,3.2-6.4,6.4-9.6,8.533
	C282.667,457.6,277.333,459.733,272,459.733z"/>
<g>
</g>
<g>
</g>
<g>
</g>
<g>
</g>
<g>
</g>
<g>
</g>
<g>
</g>
<g>
</g>
<g>
</g>
<g>
</g>
<g>
</g>
<g>
</g>
<g>
</g>
<g>
</g>
<g>
</g>
</svg>
