<?xml version="1.0" encoding="iso-8859-1"?>
<!-- Generator: Adobe Illustrator 19.0.0, SVG Export Plug-In . SVG Version: 6.00 Build 0)  -->
<svg version="1.1" id="Capa_1" xmlns="http://www.w3.org/2000/svg" xmlns:xlink="http://www.w3.org/1999/xlink" x="0px" y="0px"
	 viewBox="0 0 516.267 516.267" style="enable-background:new 0 0 516.267 516.267;" xml:space="preserve">
<path style="fill:#E8EAE9;" d="M182.4,462.933c4.267,7.467,13.867,9.6,22.4,5.333c7.467-4.267,9.6-13.867,5.333-22.4l-124.8-206.933
	L198.4,82.133l186.667,75.733l48,194.133l-131.2,124.8l44.8,1.067L460.8,368c4.267-4.267,5.333-9.6,4.267-14.933l-52.267-211.2
	c-1.067-5.333-4.267-9.6-9.6-10.667L198.4,46.933c-6.4-3.2-14.933,0-19.2,5.333L52.267,229.333
	c-3.2,5.333-4.267,11.733-1.067,17.067L182.4,462.933z"/>
<rect x="228.098" y="370.941" transform="matrix(-0.0223 0.9998 -0.9998 -0.0223 665.9938 156.7196)" style="fill:#F7B64C;" width="56.536" height="66.137"/>
<g>
	
		<ellipse transform="matrix(0.0223 -0.9998 0.9998 0.0223 -83.5756 588.7187)" style="fill:#FFD15C;" cx="259.21" cy="337.09" rx="73.604" ry="60.803"/>
	<path style="fill:#FFD15C;" d="M282.667,262.4c-22.4-3.2-48-1.067-66.133,13.867C204.8,286.933,195.2,320,205.867,333.867
		c10.667-35.2,49.067-53.333,86.4-43.733c17.067,4.267,16,23.467,6.4,33.067c8.533,4.267,21.333,0,21.333-11.733
		C318.933,288,307.2,265.6,282.667,262.4z"/>
</g>
<g>
	<path style="fill:#415A6B;" d="M298.667,257.067v19.2c0,0-29.867-7.467-51.2,8.533c-33.067,23.467-84.267-16-53.333-61.867
		c0,0,7.467,23.467,40.533,16C269.867,230.4,281.6,237.867,298.667,257.067z"/>
	<path style="fill:#415A6B;" d="M263.467,276.267c-27.733-10.667-54.4,3.2-54.4,3.2l-6.4,59.733h-3.2c0,0-1.067-2.133-8.533-46.933
		c-7.467-44.8,33.067-37.333,33.067-37.333L263.467,276.267z"/>
	<path style="fill:#415A6B;" d="M329.6,295.467c-9.6,44.8-10.667,46.933-10.667,46.933h-4.267l-3.2-45.867
		c0,0-10.667,0-13.867-20.267v-19.2C298.667,257.067,339.2,250.667,329.6,295.467z"/>
</g>
<g>
	
		<ellipse transform="matrix(0.1184 0.993 -0.993 0.1184 511.1299 100.7652)" style="fill:#FFD15C;" cx="198.818" cy="338.23" rx="20.267" ry="12.8"/>
	
		<ellipse transform="matrix(0.1626 -0.9867 0.9867 0.1626 -69.6853 600.3932)" style="fill:#FFD15C;" cx="318.873" cy="341.251" rx="20.267" ry="12.8"/>
</g>
<path style="fill:#415A6B;" d="M384,516.267l1.067-38.4c0-16-9.6-29.867-24.533-34.133l-70.4-23.467
	c-7.467-2.133-14.933,0-20.267,5.333c-3.2,4.267-8.533,6.4-14.933,6.4s-11.733-3.2-13.867-7.467c-3.2-5.333-9.6-8.533-16-7.467
	L149.333,438.4c-14.933,4.267-25.6,18.133-25.6,33.067l-1.067,38.4L384,516.267z"/>
<path style="fill:#FFFFFF;" d="M272,514.133l22.4-93.867l0,0c-7.467-2.133-17.067,0-22.4,6.4c-4.267,4.267-9.6,7.467-17.067,7.467
	c-7.467,0-12.8-3.2-16-8.533c-4.267-6.4-10.667-9.6-17.067-7.467L217.6,419.2l18.133,93.867L272,514.133z"/>
<g>
	<path style="fill:#F3705A;" d="M264.533,457.6l9.6-8.533c0,0-11.733-17.067-18.133-17.067c-6.4,0-19.2,16-19.2,16l8.533,9.6
		L264.533,457.6z"/>
	<polygon style="fill:#F3705A;" points="272,514.133 264.533,457.6 245.333,457.6 234.667,513.067 	"/>
</g>
<g>
	<path style="fill:#F3F3F3;" d="M289.067,403.2L256,432c0,0,21.333,19.2,23.467,30.933l18.133-41.6L289.067,403.2z"/>
	<path style="fill:#F3F3F3;" d="M222.933,402.133l32,30.933c0,0-22.4,18.133-24.533,29.867l-16-41.6L222.933,402.133z"/>
</g>
<g>
	<polygon style="fill:#344A5E;" points="292.267,514.133 310.4,480 297.6,471.467 324.267,448 293.333,412.8 269.867,514.133 	"/>
	<polygon style="fill:#344A5E;" points="198.4,477.867 214.4,513.067 236.8,513.067 218.667,411.733 185.6,444.8 211.2,469.333 	"/>
</g>
<circle style="fill:#66C6B9;" cx="192" cy="61.867" r="61.867"/>
<circle style="fill:#4ABAA5;" cx="192" cy="61.867" r="42.667"/>
<circle style="fill:#F05540;" cx="66.133" cy="238.933" r="61.867"/>
<circle style="fill:#F3705A;" cx="66.133" cy="238.933" r="42.667"/>
<circle style="fill:#55C0EB;" cx="450.133" cy="356.267" r="61.867"/>
<circle style="fill:#8AD7F8;" cx="450.133" cy="356.267" r="42.667"/>
<circle style="fill:#FFD15C;" cx="398.933" cy="146.133" r="61.867"/>
<circle style="fill:#F7B64C;" cx="398.933" cy="146.133" r="42.667"/>
<g>
</g>
<g>
</g>
<g>
</g>
<g>
</g>
<g>
</g>
<g>
</g>
<g>
</g>
<g>
</g>
<g>
</g>
<g>
</g>
<g>
</g>
<g>
</g>
<g>
</g>
<g>
</g>
<g>
</g>
</svg>
