<?xml version="1.0" encoding="iso-8859-1"?>
<!-- Generator: Adobe Illustrator 19.0.0, SVG Export Plug-In . SVG Version: 6.00 Build 0)  -->
<svg version="1.1" id="Capa_1" xmlns="http://www.w3.org/2000/svg" xmlns:xlink="http://www.w3.org/1999/xlink" x="0px" y="0px"
	 viewBox="0 0 513.345 513.345" style="enable-background:new 0 0 513.345 513.345;" xml:space="preserve">
<path style="fill:#F3F3F3;" d="M378.338,0h-249.6l-128,128v362.667c0,11.733,9.6,21.333,21.333,21.333h356.267
	c11.733,0,21.333-9.6,21.333-21.333V21.333C399.671,9.6,390.071,0,378.338,0z"/>
<polygon style="fill:#8AD7F8;" points="128.738,0 128.738,128 0.738,128 "/>
<g>
	<rect x="53.004" y="410.667" style="fill:#CED6E0;" width="295.467" height="20.267"/>
	<rect x="53.004" y="336" style="fill:#CED6E0;" width="295.467" height="20.267"/>
	<rect x="53.004" y="261.333" style="fill:#CED6E0;" width="295.467" height="20.267"/>
	<rect x="53.004" y="186.667" style="fill:#CED6E0;" width="295.467" height="20.267"/>
	<rect x="174.604" y="328.533" style="fill:#CED6E0;" width="182.4" height="36.267"/>
	<rect x="153.271" y="253.867" style="fill:#CED6E0;" width="202.667" height="36.267"/>
	<rect x="177.804" y="179.2" style="fill:#CED6E0;" width="178.133" height="36.267"/>
</g>
<rect x="367.991" y="357.186" transform="matrix(-0.7071 -0.7071 0.7071 -0.7071 385.9097 927.5546)" style="fill:#344A5E;" width="34.133" height="53.333"/>
<path style="fill:#F3705A;" d="M498.871,437.333c-25.6-23.467-56.533-51.2-65.067-54.4l-51.2,51.2
	c4.267,8.533,30.933,39.467,54.4,65.067c17.067,18.133,44.8,19.2,62.933,1.067l0,0C517.004,482.133,517.004,453.333,498.871,437.333
	z"/>
<path style="fill:#415A6B;" d="M381.538,380.8c-56.533,56.533-148.267,56.533-204.8,0s-56.533-148.267,0-204.8
	s148.267-56.533,204.8,0S438.071,324.267,381.538,380.8z M201.271,200.533c-42.667,42.667-42.667,113.067,0,155.733
	s113.067,42.667,155.733,0s42.667-113.067,0-155.733S243.938,157.867,201.271,200.533z"/>
<path style="fill:#F3F3F3;" d="M438.071,386.133l-51.2,51.2c-5.333,5.333-12.8,5.333-18.133,0c-5.333-5.333-5.333-12.8,0-18.133
	l51.2-51.2c5.333-5.333,12.8-5.333,18.133,0C443.404,373.333,443.404,380.8,438.071,386.133z"/>
<g>
</g>
<g>
</g>
<g>
</g>
<g>
</g>
<g>
</g>
<g>
</g>
<g>
</g>
<g>
</g>
<g>
</g>
<g>
</g>
<g>
</g>
<g>
</g>
<g>
</g>
<g>
</g>
<g>
</g>
</svg>
