<?xml version="1.0" encoding="iso-8859-1"?>
<!-- Generator: Adobe Illustrator 19.0.0, SVG Export Plug-In . SVG Version: 6.00 Build 0)  -->
<svg version="1.1" id="Capa_1" xmlns="http://www.w3.org/2000/svg" xmlns:xlink="http://www.w3.org/1999/xlink" x="0px" y="0px"
	 viewBox="0 0 513.067 513.067" style="enable-background:new 0 0 513.067 513.067;" xml:space="preserve">
<path style="fill:#55C0EB;" d="M333.867,371.733v-51.2l-35.2-10.667c-3.2-10.667-7.467-21.333-12.8-30.933L304,245.867
	L266.667,209.6L233.6,227.733c-9.6-5.333-20.267-9.6-30.933-12.8L192,179.733h-51.2l-10.667,35.2
	c-10.667,3.2-21.333,7.467-30.933,12.8L66.133,209.6l-35.2,36.267L48,278.933c-5.333,9.6-9.6,20.267-12.8,30.933L0,320.533v51.2
	L35.2,382.4c3.2,10.667,7.467,21.333,12.8,30.933L30.933,446.4L67.2,482.667l33.067-18.133c9.6,5.333,20.267,9.6,30.933,12.8
	l10.667,35.2h51.2l10.667-35.2c10.667-3.2,21.333-7.467,30.933-12.8l33.067,18.133L304,446.4l-18.133-32
	c5.333-9.6,9.6-20.267,12.8-30.933L333.867,371.733z M166.4,426.133c-44.8,0-81.067-36.267-81.067-81.067S121.6,264,166.4,264
	s81.067,36.267,81.067,81.067S211.2,426.133,166.4,426.133z"/>
<path style="fill:#F3705A;" d="M489.6,140.267c1.067-8.533,1.067-17.067,0-25.6l21.333-18.133l-16-37.333l-28.8,3.2
	C460.8,56,454.4,49.6,448,44.267l2.133-28.8L413.867,0.533l-18.133,22.4c-8.533-1.067-17.067-1.067-25.6,0L352,1.6l-37.333,16
	l3.2,28.8c-6.4,5.333-12.8,11.733-18.133,18.133l-28.8-3.2L256,98.667l22.4,18.133c-1.067,8.533-1.067,17.067,0,25.6l-21.333,18.133
	l16,37.333l28.8-3.2c5.333,6.4,11.733,12.8,18.133,18.133l-2.133,28.8l37.333,14.933l18.133-22.4c8.533,1.067,17.067,1.067,25.6,0
	l18.133,22.4l37.333-16l-3.2-28.8C457.6,206.4,464,200,469.333,193.6l28.8,3.2l14.933-37.333L489.6,140.267z M424.533,144.533
	C416,166.933,390.4,177.6,368,169.067c-22.4-8.533-33.067-34.133-24.533-56.533S377.6,79.467,400,88
	C422.4,97.6,433.067,122.133,424.533,144.533z"/>
<circle style="fill:#55C0EB;" cx="166.4" cy="346.133" r="37.333"/>
<g>
</g>
<g>
</g>
<g>
</g>
<g>
</g>
<g>
</g>
<g>
</g>
<g>
</g>
<g>
</g>
<g>
</g>
<g>
</g>
<g>
</g>
<g>
</g>
<g>
</g>
<g>
</g>
<g>
</g>
</svg>
