<?xml version="1.0" encoding="iso-8859-1"?>
<!-- Generator: Adobe Illustrator 19.0.0, SVG Export Plug-In . SVG Version: 6.00 Build 0)  -->
<svg version="1.1" id="Capa_1" xmlns="http://www.w3.org/2000/svg" xmlns:xlink="http://www.w3.org/1999/xlink" x="0px" y="0px"
	 viewBox="0 0 514.191 514.191" style="enable-background:new 0 0 514.191 514.191;" xml:space="preserve">
<path style="fill:#FFD15C;" d="M192,369.629L192,369.629c16,9.6,33.067,13.867,52.267,13.867h92.8
	c13.867,0,26.667-9.6,29.867-23.467c3.2-18.133-10.667-35.2-28.8-35.2h21.333c16,0,29.867-11.733,30.933-27.733
	c1.067-17.067-12.8-30.933-28.8-30.933h16c16,0,29.867-11.733,30.933-27.733c1.067-17.067-12.8-30.933-28.8-30.933H483.2
	c16,0,29.867-11.733,30.933-27.733c1.067-17.067-12.8-30.933-28.8-30.933H324.267c16,0,29.867-13.867,28.8-30.933
	c-1.067-16-14.933-27.733-30.933-27.733h-54.4c-18.133,0-34.133,7.467-45.867,21.333L185.6,154.162h-46.933v212.267H192V369.629z"/>
<rect x="136.533" y="153.096" style="fill:#F3F3F3;" width="35.2" height="247.467"/>
<rect y="128.562" style="fill:#415A6B;" width="136.533" height="295.467"/>
<circle style="fill:#344A5E;" cx="75.733" cy="369.629" r="25.6"/>
<g>
</g>
<g>
</g>
<g>
</g>
<g>
</g>
<g>
</g>
<g>
</g>
<g>
</g>
<g>
</g>
<g>
</g>
<g>
</g>
<g>
</g>
<g>
</g>
<g>
</g>
<g>
</g>
<g>
</g>
</svg>
