<?xml version="1.0" encoding="iso-8859-1"?>
<!-- Generator: Adobe Illustrator 19.0.0, SVG Export Plug-In . SVG Version: 6.00 Build 0)  -->
<svg version="1.1" id="Capa_1" xmlns="http://www.w3.org/2000/svg" xmlns:xlink="http://www.w3.org/1999/xlink" x="0px" y="0px"
	 viewBox="0 0 512 512" style="enable-background:new 0 0 512 512;" xml:space="preserve">
<g>
	<polygon style="fill:#FFD15C;" points="290.133,407.467 305.067,493.867 411.733,493.867 411.733,407.467 	"/>
	<polygon style="fill:#FFD15C;" points="83.2,407.467 83.2,493.867 188.8,493.867 204.8,407.467 	"/>
	<path style="fill:#FFD15C;" d="M456.533,156.8l-87.467-68.267c34.133-29.867,69.333-54.4,105.6-70.4
		C459.733,56.533,456.533,104.533,456.533,156.8z"/>
	<polygon style="fill:#FFD15C;" points="468.267,200.533 468.267,326.4 512,318.933 512,208 	"/>
	<ellipse style="fill:#FFD15C;" cx="247.467" cy="263.467" rx="247.467" ry="219.733"/>
</g>
<circle style="fill:#FFFFFF;" cx="407.467" cy="192" r="18.133"/>
<path style="fill:#F7B64C;" d="M234.667,382.933V361.6c-24.533-4.267-46.933-14.933-68.267-33.067l26.667-33.067
	c14.933,12.8,28.8,21.333,41.6,25.6v-43.733c-20.267-5.333-35.2-12.8-44.8-21.333c-9.6-8.533-13.867-21.333-13.867-38.4
	s5.333-29.867,16-41.6c10.667-10.667,25.6-17.067,42.667-19.2v-13.867H265.6v14.933c19.2,3.2,38.4,10.667,57.6,24.533
	l-23.467,34.133C288,208,276.267,201.6,265.6,199.467v41.6c21.333,5.333,36.267,12.8,46.933,21.333c9.6,9.6,14.933,22.4,14.933,38.4
	c0,17.067-5.333,30.933-17.067,41.6c-10.667,10.667-25.6,17.067-44.8,19.2v20.267h-30.933V382.933z M234.667,198.4
	c-8.533,3.2-12.8,8.533-12.8,16s4.267,13.867,12.8,18.133V198.4z M280.533,304c0-4.267-1.067-7.467-3.2-10.667
	c-2.133-3.2-6.4-5.333-11.733-7.467v36.267C276.267,318.933,280.533,313.6,280.533,304z"/>
<g>
</g>
<g>
</g>
<g>
</g>
<g>
</g>
<g>
</g>
<g>
</g>
<g>
</g>
<g>
</g>
<g>
</g>
<g>
</g>
<g>
</g>
<g>
</g>
<g>
</g>
<g>
</g>
<g>
</g>
</svg>
