<?xml version="1.0" encoding="iso-8859-1"?>
<!-- Generator: Adobe Illustrator 19.0.0, SVG Export Plug-In . SVG Version: 6.00 Build 0)  -->
<svg version="1.1" id="Capa_1" xmlns="http://www.w3.org/2000/svg" xmlns:xlink="http://www.w3.org/1999/xlink" x="0px" y="0px"
	 viewBox="0 0 512 512" style="enable-background:new 0 0 512 512;" xml:space="preserve">
<path style="fill:#E8EAE9;" d="M440.533,180.267V32c0-18.133-13.867-32-32-32H103.467c-18.133,0-32,13.867-32,32v148.267H440.533z"
	/>
<path style="fill:#F3F3F3;" d="M46.933,362.667v-265.6c0-20.267,16-36.267,36.267-36.267h269.867l112,112v189.867H46.933z"/>
<g>
	<rect x="104.533" y="138.667" style="fill:#CED6E0;" width="176" height="27.733"/>
	<rect x="104.533" y="218.667" style="fill:#CED6E0;" width="301.867" height="27.733"/>
</g>
<polygon style="fill:#8AD7F8;" points="353.067,60.8 353.067,172.8 465.067,172.8 "/>
<path style="fill:#F7B64C;" d="M480,270.933H32c-18.133,0-32,13.867-32,32V480c0,18.133,13.867,32,32,32h448
	c18.133,0,32-13.867,32-32V302.933C512,284.8,498.133,270.933,480,270.933z"/>
<path style="fill:#415A6B;" d="M315.733,368H196.267c-12.8,0-23.467,10.667-23.467,23.467c0,12.8,10.667,23.467,23.467,23.467
	h119.467c12.8,0,23.467-10.667,23.467-23.467C339.2,378.667,328.533,368,315.733,368z"/>
<g>
</g>
<g>
</g>
<g>
</g>
<g>
</g>
<g>
</g>
<g>
</g>
<g>
</g>
<g>
</g>
<g>
</g>
<g>
</g>
<g>
</g>
<g>
</g>
<g>
</g>
<g>
</g>
<g>
</g>
</svg>
