<?xml version="1.0" encoding="iso-8859-1"?>
<!-- Generator: Adobe Illustrator 19.0.0, SVG Export Plug-In . SVG Version: 6.00 Build 0)  -->
<svg version="1.1" id="Capa_1" xmlns="http://www.w3.org/2000/svg" xmlns:xlink="http://www.w3.org/1999/xlink" x="0px" y="0px"
	 viewBox="0 0 512 512" style="enable-background:new 0 0 512 512;" xml:space="preserve">
<g>
	<path style="fill:#E8EAE9;" d="M439.467,349.867l-156.8-235.733c-2.133-2.133-4.267-4.267-7.467-4.267s-6.4,0-8.533,2.133
		l-92.8,77.867L97.067,86.4c-3.2-4.267-10.667-5.333-14.933-2.133C77.867,87.467,76.8,94.933,80,99.2l84.267,112
		c2.133,2.133,4.267,4.267,7.467,4.267s5.333-1.067,8.533-2.133l91.733-76.8l142.933,214.4h24.533V349.867z"/>
	<path style="fill:#E8EAE9;" d="M465.067,110.933c-4.267-3.2-11.733-2.133-14.933,2.133L305.067,315.733L243.2,259.2
		c-4.267-4.267-10.667-3.2-14.933,0l-115.2,115.2c-4.267,4.267-4.267,10.667,0,14.933s10.667,4.267,14.933,0l108.8-108.8l64,58.667
		c2.133,2.133,5.333,3.2,8.533,2.133c3.2,0,6.4-2.133,7.467-4.267l152.533-211.2C471.467,121.6,470.4,115.2,465.067,110.933z"/>
</g>
<path style="fill:#415A6B;" d="M512,491.733c0,11.733-9.6,20.267-20.267,20.267H20.267C9.6,512,0,502.4,0,491.733V20.267
	C0,9.6,9.6,0,20.267,0s20.267,9.6,20.267,20.267v42.667h14.933V73.6H40.533v60.8h14.933v10.667H40.533v60.8h14.933v10.667H40.533
	v59.733h14.933v10.667H40.533v60.8h14.933V358.4H40.533v60.8h14.933v10.667H40.533v42.667H83.2V457.6h10.667v14.933h60.8V457.6
	h10.667v14.933h60.8V457.6H236.8v14.933h60.8V457.6h10.667v14.933H368V457.6h10.667v14.933h60.8V457.6h10.667v14.933H492.8
	C502.4,471.467,512,480,512,491.733z"/>
<circle style="fill:#66C6B9;" cx="458.667" cy="120.533" r="30.933"/>
<circle style="fill:#415A6B;" cx="307.2" cy="326.4" r="30.933"/>
<circle style="fill:#F3705A;" cx="235.733" cy="270.933" r="30.933"/>
<circle style="fill:#55C0EB;" cx="171.733" cy="200.533" r="30.933"/>
<circle style="fill:#FFD15C;" cx="269.867" cy="123.733" r="30.933"/>
<circle style="fill:#F3705A;" cx="432" cy="357.333" r="30.933"/>
<g>
</g>
<g>
</g>
<g>
</g>
<g>
</g>
<g>
</g>
<g>
</g>
<g>
</g>
<g>
</g>
<g>
</g>
<g>
</g>
<g>
</g>
<g>
</g>
<g>
</g>
<g>
</g>
<g>
</g>
</svg>
