<?xml version="1.0" encoding="iso-8859-1"?>
<!-- Generator: Adobe Illustrator 19.0.0, SVG Export Plug-In . SVG Version: 6.00 Build 0)  -->
<svg version="1.1" id="Capa_1" xmlns="http://www.w3.org/2000/svg" xmlns:xlink="http://www.w3.org/1999/xlink" x="0px" y="0px"
	 viewBox="0 0 512 512" style="enable-background:new 0 0 512 512;" xml:space="preserve">
<path style="fill:#66C6B9;" d="M454.4,298.667c-5.333,24.533-14.933,46.933-27.733,67.2l32,49.067l-43.733,43.733l-49.067-32
	c-20.267,12.8-42.667,22.4-67.2,27.733L286.933,512H224l-10.667-57.6c-24.533-5.333-46.933-14.933-67.2-27.733l-49.067,32
	l-44.8-43.733l32-49.067c-12.8-20.267-22.4-42.667-27.733-67.2L0,286.933V224l57.6-10.667c5.333-24.533,14.933-46.933,27.733-67.2
	l-32-49.067l43.733-43.733l49.067,32c20.267-12.8,42.667-22.4,67.2-27.733L225.067,0H288l10.667,57.6
	c24.533,5.333,46.933,14.933,67.2,27.733l49.067-32l43.733,43.733l-32,49.067c12.8,20.267,22.4,42.667,27.733,67.2l57.6,11.733V288
	L454.4,298.667z"/>
<g>
	<circle style="fill:#FFFFFF;" cx="256" cy="256" r="148.267"/>
	<path style="fill:#FFFFFF;" d="M256,107.733c82.133,0,148.267,66.133,148.267,148.267"/>
</g>
<path style="fill:#344A5E;" d="M363.733,346.667c-3.2-16-14.933-28.8-29.867-33.067L256,293.333L179.2,313.6
	c-16,4.267-27.733,17.067-29.867,33.067l-2.133,9.6c26.667,29.867,66.133,48,108.8,48c43.733,0,82.133-19.2,109.867-48
	L363.733,346.667z"/>
<polygon style="fill:#CED6E0;" points="275.2,389.333 284.8,288 227.2,288 236.8,389.333 "/>
<polygon style="fill:#F05540;" points="264.533,333.867 274.133,324.267 256,306.133 237.867,324.267 247.467,333.867 "/>
<path style="fill:#F3705A;" d="M238.933,403.2c5.333,1.067,11.733,1.067,17.067,1.067c6.4,0,11.733,0,17.067-1.067l-9.6-69.333h-16
	L238.933,403.2z"/>
<polygon style="fill:#F7B64C;" points="256,306.133 256,306.133 281.6,282.667 281.6,258.133 230.4,258.133 230.4,282.667 "/>
<g>
	<path style="fill:#FFD15C;" d="M314.667,227.2c-2.133,8.533-8.533,14.933-14.933,12.8c-6.4-1.067-8.533-9.6-6.4-18.133
		c2.133-8.533,8.533-13.867,13.867-12.8C313.6,211.2,315.733,218.667,314.667,227.2z"/>
	<path style="fill:#FFD15C;" d="M197.333,227.2c2.133,8.533,8.533,14.933,14.933,12.8c6.4-1.067,8.533-9.6,6.4-18.133
		c-2.133-8.533-8.533-13.867-13.867-12.8C198.4,211.2,196.267,218.667,197.333,227.2z"/>
	<path style="fill:#FFD15C;" d="M256,161.067c-10.667,0-21.333,4.267-29.867,11.733c-1.067,0-1.067,0-2.133,0
		c-4.267,0-7.467,2.133-9.6,5.333c-7.467,3.2-8.533,12.8-4.267,18.133c-3.2,7.467-4.267,16-4.267,25.6
		c0,34.133,22.4,60.8,50.133,60.8c27.733,0,50.133-27.733,50.133-60.8C306.133,187.733,283.733,161.067,256,161.067z"/>
</g>
<g>
	<polygon style="fill:#F3F3F3;" points="289.067,295.467 275.2,329.6 256,306.133 281.6,282.667 	"/>
	<polygon style="fill:#F3F3F3;" points="222.933,295.467 236.8,329.6 256,306.133 230.4,282.667 	"/>
</g>
<g>
	<path style="fill:#415A6B;" d="M294.4,197.333c-7.467-2.133-16-1.067-23.467,1.067c-9.6,3.2-21.333,4.267-30.933,1.067
		c-9.6-3.2-17.067-13.867-13.867-23.467c-7.467,7.467-7.467,21.333,0,28.8c-8.533-4.267-12.8-14.933-9.6-23.467
		c-8.533,13.867-12.8,40.533-6.4,60.8c-4.267-12.8-7.467-26.667-6.4-43.733c0-19.2,2.133-37.333,10.667-50.133
		c4.267-6.4,10.667-9.6,18.133-8.533h2.133c0-1.067-5.333-2.133-9.6-1.067c2.133-1.067,7.467-2.133,11.733,0
		c0,0,0-1.067,1.067-2.133c3.2-3.2,7.467-5.333,11.733-5.333c2.133,0,5.333,0,7.467,0c43.733,0,52.267,29.867,52.267,67.2
		c0,14.933-1.067,34.133-6.4,44.8C307.2,222.933,301.867,200.533,294.4,197.333z"/>
	<path style="fill:#415A6B;" d="M227.2,288l-41.6,52.267l32,11.733l-21.333,14.933l17.067,30.933c10.667,3.2,21.333,5.333,32,6.4
		L227.2,288z"/>
	<path style="fill:#415A6B;" d="M284.8,288l-18.133,116.267c10.667-1.067,22.4-3.2,32-6.4l17.067-30.933L294.4,352l32-11.733
		L284.8,288z"/>
</g>
<g>
</g>
<g>
</g>
<g>
</g>
<g>
</g>
<g>
</g>
<g>
</g>
<g>
</g>
<g>
</g>
<g>
</g>
<g>
</g>
<g>
</g>
<g>
</g>
<g>
</g>
<g>
</g>
<g>
</g>
</svg>
