<?xml version="1.0" encoding="iso-8859-1"?>
<!-- Generator: Adobe Illustrator 19.0.0, SVG Export Plug-In . SVG Version: 6.00 Build 0)  -->
<svg version="1.1" id="Capa_1" xmlns="http://www.w3.org/2000/svg" xmlns:xlink="http://www.w3.org/1999/xlink" x="0px" y="0px"
	 viewBox="0 0 512 512" style="enable-background:new 0 0 512 512;" xml:space="preserve">
<path style="fill:#F3F3F3;" d="M336,0H87.467c-18.133,0-32,13.867-32,32v448c0,18.133,13.867,32,32,32h337.067
	c18.133,0,32-13.867,32-32V119.467L336,0z"/>
<polygon style="fill:#66C6B9;" points="336,0 336,119.467 456.533,119.467 "/>
<g>
	<rect x="115.2" y="67.2" style="fill:#CED6E0;" width="178.133" height="25.6"/>
	<rect x="115.2" y="148.267" style="fill:#CED6E0;" width="280.533" height="25.6"/>
	<rect x="115.2" y="228.267" style="fill:#CED6E0;" width="280.533" height="25.6"/>
	<rect x="115.2" y="309.333" style="fill:#CED6E0;" width="280.533" height="25.6"/>
</g>
<polygon style="fill:#F05540;" points="350.933,488.533 308.267,473.6 285.867,512 235.733,372.267 300.8,349.867 "/>
<polygon style="fill:#F3705A;" points="161.067,488.533 203.733,473.6 226.133,512 276.267,372.267 211.2,349.867 "/>
<circle style="fill:#FFD15C;" cx="256" cy="311.467" r="96"/>
<circle style="fill:#F7B64C;" cx="256" cy="311.467" r="59.733"/>
<g>
</g>
<g>
</g>
<g>
</g>
<g>
</g>
<g>
</g>
<g>
</g>
<g>
</g>
<g>
</g>
<g>
</g>
<g>
</g>
<g>
</g>
<g>
</g>
<g>
</g>
<g>
</g>
<g>
</g>
</svg>
