<?xml version="1.0" encoding="iso-8859-1"?>
<!-- Generator: Adobe Illustrator 19.0.0, SVG Export Plug-In . SVG Version: 6.00 Build 0)  -->
<svg version="1.1" id="Capa_1" xmlns="http://www.w3.org/2000/svg" xmlns:xlink="http://www.w3.org/1999/xlink" x="0px" y="0px"
	 viewBox="0 0 512 512" style="enable-background:new 0 0 512 512;" xml:space="preserve">
<path style="fill:#F05540;" d="M290.133,174c-1.067,45.867-2.133,91.733-4.267,137.6c-1.067,13.867-2.133,28.8-9.6,40.533
	c-7.467,9.6-18.133,16-28.8,21.333c-11.733,6.4-24.533,12.8-38.4,13.867c-22.4,2.133-44.8-8.533-65.067-18.133
	c-13.867-7.467-28.8-14.933-38.4-28.8c-9.6-14.933-10.667-33.067-10.667-50.133c1.067-28.8,5.333-57.6,12.8-85.333
	c2.133-7.467,4.267-14.933,10.667-19.2c7.467-6.4,18.133-6.4,27.733-6.4c25.6,1.067,51.2,5.333,76.8,10.667"/>
<path style="fill:#415A6B;" d="M384,494V383.067c0-26.667-18.133-50.133-44.8-56.533c-97.067-23.467-198.4-23.467-294.4,0
	C18.133,332.933,0,356.4,0,383.067v109.867h384V494z"/>
<path style="fill:#F7B64C;" d="M384,494V383.067c0-26.667-18.133-50.133-44.8-56.533c-24.533-6.4-50.133-10.667-74.667-13.867
	c-13.867-1.067-23.467-12.8-23.467-26.667v-49.067h-98.133V286c0,13.867-9.6,24.533-23.467,26.667
	c-25.6,3.2-50.133,7.467-74.667,13.867C18.133,334,0,356.4,0,383.067v109.867h384V494z"/>
<path style="fill:#415A6B;" d="M384,494V383.067c0-26.667-18.133-50.133-44.8-56.533c-24.533-6.4-50.133-10.667-74.667-13.867
	c-7.467-1.067-14.933-5.333-19.2-11.733L192,339.333L142.933,289.2c-1.067,11.733-10.667,22.4-23.467,23.467
	c-25.6,3.2-50.133,7.467-74.667,13.867C18.133,334,0,356.4,0,383.067v109.867h384V494z"/>
<g>
	<path style="fill:#344A5E;" d="M0,383.067v109.867h64v-58.667C64,396.933,50.133,361.733,25.6,334C9.6,345.733,0,363.867,0,383.067
		z"/>
	<path style="fill:#344A5E;" d="M384,383.067v109.867h-64v-58.667c0-37.333,13.867-72.533,38.4-100.267
		C373.333,345.733,384,363.867,384,383.067z"/>
</g>
<path style="fill:#FFD15C;" d="M290.133,110c-4.267-18.133-16-32-30.933-42.667c-5.333-6.4-11.733-10.667-19.2-14.933
	c-1.067-1.067-2.133-1.067-4.267-2.133C233.6,42.8,227.2,36.4,217.6,34.267c-42.667-9.6-101.333,6.4-115.2,54.4
	c-1.067,3.2-1.067,5.333-2.133,7.467c-13.867,27.733-7.467,64,0,92.8c1.067,4.267,3.2,8.533,6.4,11.733
	C116.267,252.933,150.4,292.4,192,292.4c46.933,0,84.267-49.067,87.467-110.933c2.133-6.4,3.2-12.8,4.267-20.267
	C291.2,144.133,294.4,128.133,290.133,110z"/>
<path style="fill:#F3705A;" d="M312.533,156.933c-4.267,24.533-2.133,32-5.333,61.867c-2.133,29.867,2.133,62.933-2.133,98.133
	c-5.333,44.8-25.6,90.667-58.667,129.067c25.6-74.667,35.2-81.067,26.667-146.133C274.133,324.4,262.4,350,242.133,366
	c16-17.067,18.133-41.6,14.933-62.933c-2.133-20.267-3.2-56.533-1.067-73.6c4.267-35.2,27.733-71.467,32-99.2
	c1.067-9.6-2.133-21.333-12.8-23.467c-7.467-2.133-13.867,2.133-20.267,5.333c-41.6,14.933-84.267,14.933-125.867,0
	c-6.4-3.2-13.867-7.467-20.267-5.333c-10.667,2.133-13.867,13.867-12.8,23.467c4.267,27.733,25.6,74.667,28.8,109.867
	c2.133,17.067,1.067,51.2-2.133,70.4c-2.133,19.2-1.067,41.6,12.8,57.6c-18.133-14.933-28.8-38.4-27.733-60.8
	c-7.467,59.733,1.067,65.067,22.4,131.2c-28.8-34.133-46.933-74.667-51.2-115.2c-4.267-33.067,0-64-2.133-92.8
	c-2.133-29.867-1.067-49.067-5.333-73.6c-5.333-26.667-4.267-55.467,3.2-82.133c5.333-19.2,12.8-38.4,28.8-51.2
	C121.6,8.667,158.933,0.133,192,0.133c27.733,0,70.4,8.533,88.533,23.467c16,12.8,24.533,32,28.8,51.2
	C316.8,101.467,317.867,130.267,312.533,156.933z"/>
<g>
	<polygon style="fill:#F3F3F3;" points="192,340.4 231.467,373.467 253.867,298.8 241.067,273.2 	"/>
	<polygon style="fill:#F3F3F3;" points="192,340.4 152.533,373.467 130.133,298.8 142.933,273.2 	"/>
</g>
<g>
	<circle style="fill:#344A5E;" cx="192" cy="446" r="10.667"/>
	<circle style="fill:#344A5E;" cx="192" cy="393.733" r="10.667"/>
</g>
<path style="fill:#66C6B9;" d="M512,270l-17.067,74.667L474.667,324.4l-121.6,123.733c-5.333,5.333-13.867,5.333-18.133,0
	l-65.067-65.067L144,507.867c-5.333,5.333-13.867,5.333-18.133,0l0,0c-5.333-5.333-5.333-13.867,0-18.133l135.467-135.467
	c5.333-5.333,13.867-5.333,18.133,0l65.067,65.067L457.6,306.267l-20.267-19.2L512,270z"/>
<g>
</g>
<g>
</g>
<g>
</g>
<g>
</g>
<g>
</g>
<g>
</g>
<g>
</g>
<g>
</g>
<g>
</g>
<g>
</g>
<g>
</g>
<g>
</g>
<g>
</g>
<g>
</g>
<g>
</g>
</svg>
