<?xml version="1.0" encoding="iso-8859-1"?>
<!-- Generator: Adobe Illustrator 19.0.0, SVG Export Plug-In . SVG Version: 6.00 Build 0)  -->
<svg version="1.1" id="Capa_1" xmlns="http://www.w3.org/2000/svg" xmlns:xlink="http://www.w3.org/1999/xlink" x="0px" y="0px"
	 viewBox="0 0 512.075 512.075" style="enable-background:new 0 0 512.075 512.075;" xml:space="preserve">
<rect x="0.038" style="fill:#F3F3F3;" width="512" height="269.867"/>
<rect x="0.038" style="fill:#66C6B9;" width="512" height="61.867"/>
<g>
	<rect x="42.704" y="163.2" style="fill:#E8EAE9;" width="311.467" height="20.267"/>
	<rect x="42.704" y="94.933" style="fill:#E8EAE9;" width="426.667" height="20.267"/>
</g>
<path style="fill:#415A6B;" d="M296.571,288c169.6,169.6,187.733,208,174.933,220.8c-12.8,12.8-51.2-5.333-220.8-174.933
	L296.571,288z"/>
<path style="fill:#FFD15C;" d="M194.171,252.8l-30.933-18.133c-2.133-18.133-5.333-32-18.133-51.2
	c19.2,11.733,34.133,14.933,51.2,18.133l19.2,30.933L194.171,252.8z"/>
<circle style="fill:#FFFFFF;" cx="182.438" cy="219.733" r="5.333"/>
<path style="fill:#CED6E0;" d="M218.704,229.333L192.038,256c-2.133,2.133-2.133,5.333,0,8.533l11.733,11.733l34.133-34.133
	L226.171,230.4C224.038,227.2,220.838,227.2,218.704,229.333z"/>
<path style="fill:#415A6B;" d="M237.904,241.067L203.771,275.2c21.333,19.2,28.8,28.8,44.8,52.267l41.6-41.6
	C266.704,269.867,257.104,262.4,237.904,241.067z"/>
<path style="fill:#CED6E0;" d="M298.704,294.4l-41.6,41.6c-2.133,2.133-6.4,2.133-8.533,0l0,0c-2.133-2.133-2.133-6.4,0-8.533
	l41.6-41.6c2.133-2.133,6.4-2.133,8.533,0l0,0C301.904,288,301.904,292.267,298.704,294.4z"/>
<path style="fill:#F3705A;" d="M354.171,241.067c-3.2,0-6.4,0-9.6-1.067c-7.467-2.133-12.8-8.533-13.867-14.933
	c0-3.2,1.067-5.333,4.267-6.4c3.2,0,5.333,1.067,6.4,4.267c0,3.2,3.2,5.333,6.4,6.4c4.267,1.067,9.6,1.067,12.8-1.067
	c1.067-1.067,2.133-1.067,3.2-2.133c3.2-2.133,6.4-4.267,10.667-4.267c5.333-1.067,9.6,1.067,13.867,3.2
	c2.133,1.067,3.2,2.133,5.333,2.133c4.267,1.067,9.6,0,16-2.133c2.133-1.067,4.267-2.133,6.4-3.2c3.2-2.133,6.4-4.267,10.667-5.333
	c4.267-1.067,14.933-5.333,24.533,0c2.133,1.067,4.267,4.267,2.133,7.467c-1.067,2.133-4.267,4.267-7.467,2.133
	c-4.267-2.133-9.6-1.067-16,1.067c-3.2,1.067-6.4,3.2-9.6,4.267c-2.133,1.067-5.333,3.2-7.467,4.267
	c-5.333,3.2-14.933,5.333-23.467,3.2c-2.133-1.067-4.267-2.133-7.467-3.2c-3.2-1.067-5.333-2.133-8.533-2.133
	c-2.133,0-4.267,1.067-6.4,3.2c-1.067,1.067-3.2,2.133-4.267,3.2C363.771,240,358.438,241.067,354.171,241.067z"/>
<g>
</g>
<g>
</g>
<g>
</g>
<g>
</g>
<g>
</g>
<g>
</g>
<g>
</g>
<g>
</g>
<g>
</g>
<g>
</g>
<g>
</g>
<g>
</g>
<g>
</g>
<g>
</g>
<g>
</g>
</svg>
