<?xml version="1.0" encoding="iso-8859-1"?>
<!-- Generator: Adobe Illustrator 19.0.0, SVG Export Plug-In . SVG Version: 6.00 Build 0)  -->
<svg version="1.1" id="Capa_1" xmlns="http://www.w3.org/2000/svg" xmlns:xlink="http://www.w3.org/1999/xlink" x="0px" y="0px"
	 viewBox="0 0 512 512" style="enable-background:new 0 0 512 512;" xml:space="preserve">
<path style="fill:#344A5E;" d="M437.232,0H76.698C58.565,0,43.632,14.933,43.632,32v448c0,18.133,14.933,32,32,32h360.533
	c18.133,0,32-14.933,32-32V32C470.298,14.933,455.365,0,437.232,0z"/>
<rect x="86.298" y="42.667" style="fill:#415A6B;" width="340.267" height="192"/>
<path style="fill:#FFFFFF;" d="M344.432,174.933c-1.067-5.333-6.4-9.6-12.8-8.533l-169.6,28.8c-5.333,1.067-9.6,6.4-8.533,12.8
	l14.933,87.467c1.067,5.333,6.4,9.6,12.8,8.533l169.6-28.8c5.333-1.067,9.6-6.4,8.533-12.8L344.432,174.933z"/>
<path style="fill:#344A5E;" d="M311.365,151.467h-108.8c-6.4,0-12.8-5.333-12.8-12.8l0,0c0-6.4,5.333-12.8,12.8-12.8h108.8
	c6.4,0,12.8,5.333,12.8,12.8l0,0C324.165,145.067,318.832,151.467,311.365,151.467z"/>
<path style="fill:#FFD15C;" d="M374.298,216.533H208.965l-6.4-19.2c-2.133-7.467-9.6-11.733-17.067-11.733h-45.867
	c-9.6,0-18.133,8.533-18.133,18.133V438.4c0,9.6,8.533,18.133,18.133,18.133h234.667c9.6,0,18.133-8.533,18.133-18.133V234.667
	C392.432,224,383.898,216.533,374.298,216.533z"/>
<rect x="86.298" y="277.333" style="fill:#415A6B;" width="340.267" height="192"/>
<path style="fill:#344A5E;" d="M311.365,386.133h-108.8c-6.4,0-12.8-5.333-12.8-12.8l0,0c0-6.4,5.333-12.8,12.8-12.8h108.8
	c6.4,0,12.8,5.333,12.8,12.8l0,0C324.165,379.733,318.832,386.133,311.365,386.133z"/>
<g>
</g>
<g>
</g>
<g>
</g>
<g>
</g>
<g>
</g>
<g>
</g>
<g>
</g>
<g>
</g>
<g>
</g>
<g>
</g>
<g>
</g>
<g>
</g>
<g>
</g>
<g>
</g>
<g>
</g>
</svg>
