<?xml version="1.0" encoding="iso-8859-1"?>
<!-- Generator: Adobe Illustrator 19.0.0, SVG Export Plug-In . SVG Version: 6.00 Build 0)  -->
<svg version="1.1" id="Capa_1" xmlns="http://www.w3.org/2000/svg" xmlns:xlink="http://www.w3.org/1999/xlink" x="0px" y="0px"
	 viewBox="0 0 512.533 512.533" style="enable-background:new 0 0 512.533 512.533;" xml:space="preserve">
<path style="fill:#66C6B9;" d="M52,66.4c-9.6,5.333-14.933,16-14.933,26.667V194.4C37.067,332,119.2,455.733,244,510.133
	c7.467,3.2,17.067,3.2,24.533,0C394.4,455.733,475.467,332,475.467,194.4V93.067c0-10.667-5.333-21.333-13.867-26.667
	C325.067-22.133,188.533-22.133,52,66.4z"/>
<path style="fill:#FFFFFF;" d="M256.8,456.8c-101.333-48-165.333-149.333-165.333-262.4v-89.6C146.933,70.667,202.4,53.6,256.8,53.6
	s109.867,17.067,165.333,51.2v89.6C422.133,307.467,358.133,408.8,256.8,456.8z"/>
<path style="fill:#FFD15C;" d="M245.067,346.933V325.6c-24.533-4.267-46.933-14.933-67.2-33.067l26.667-33.067
	c14.933,12.8,28.8,21.333,40.533,25.6V242.4c-20.267-5.333-35.2-11.733-44.8-21.333c-9.6-8.533-13.867-21.333-13.867-37.333
	s5.333-29.867,16-40.533c10.667-10.667,24.533-17.067,42.667-19.2v-13.867H276v14.933c19.2,3.2,38.4,10.667,57.6,23.467
	l-23.467,34.133C298.4,174.133,286.667,167.733,276,165.6v41.6c21.333,5.333,36.267,12.8,45.867,21.333
	c9.6,8.533,14.933,22.4,14.933,38.4c0,17.067-5.333,29.867-17.067,40.533c-10.667,10.667-25.6,17.067-44.8,19.2v20.267
	L245.067,346.933L245.067,346.933z M245.067,163.467c-8.533,3.2-12.8,8.533-12.8,16c0,7.467,4.267,13.867,12.8,18.133V163.467z
	 M289.867,269.067c0-4.267-1.067-7.467-3.2-9.6c-2.133-3.2-6.4-5.333-11.733-7.467v35.2C285.6,284,289.867,277.6,289.867,269.067z"
	/>
<g>
</g>
<g>
</g>
<g>
</g>
<g>
</g>
<g>
</g>
<g>
</g>
<g>
</g>
<g>
</g>
<g>
</g>
<g>
</g>
<g>
</g>
<g>
</g>
<g>
</g>
<g>
</g>
<g>
</g>
</svg>
