<?xml version="1.0" encoding="iso-8859-1"?>
<!-- Generator: Adobe Illustrator 19.0.0, SVG Export Plug-In . SVG Version: 6.00 Build 0)  -->
<svg version="1.1" id="Capa_1" xmlns="http://www.w3.org/2000/svg" xmlns:xlink="http://www.w3.org/1999/xlink" x="0px" y="0px"
	 viewBox="0 0 512 512" style="enable-background:new 0 0 512 512;" xml:space="preserve">
<path style="fill:#FFD15C;" d="M21.333,288h469.333C502.4,288,512,278.4,512,266.667l0,0c0-11.733-9.6-21.333-21.333-21.333H21.333
	C9.6,245.333,0,254.933,0,266.667l0,0C0,278.4,9.6,288,21.333,288z"/>
<polygon style="fill:#F7B64C;" points="476.8,288 476.8,500.267 318.933,500.267 318.933,311.467 65.067,311.467 65.067,500.267 
	35.2,500.267 35.2,288 "/>
<g>
	<rect x="338.133" y="311.467" style="fill:#FFD15C;" width="119.467" height="75.733"/>
	<rect x="338.133" y="406.4" style="fill:#FFD15C;" width="119.467" height="75.733"/>
</g>
<g>
	<circle style="fill:#415A6B;" cx="397.867" cy="348.8" r="8.533"/>
	<circle style="fill:#415A6B;" cx="397.867" cy="443.733" r="8.533"/>
	<path style="fill:#415A6B;" d="M264.533,11.733H32c-6.4,0-12.8,5.333-12.8,12.8v176c0,6.4,5.333,12.8,12.8,12.8h231.467
		c6.4,0,12.8-5.333,12.8-12.8V23.467C276.267,17.067,270.933,11.733,264.533,11.733z"/>
</g>
<rect x="44.8" y="36.267" style="fill:#8AD7F8;" width="206.933" height="131.2"/>
<g>
	<circle style="fill:#344A5E;" cx="146.133" cy="189.867" r="9.6"/>
	<polygon style="fill:#344A5E;" points="185.6,212.267 110.933,212.267 89.6,244.267 206.933,244.267 	"/>
</g>
<path style="fill:#E8EAE9;" d="M460.8,200.533H342.4c-10.667,0-19.2,8.533-19.2,19.2c0,10.667,8.533,19.2,19.2,19.2h118.4
	C453.333,227.2,453.333,212.267,460.8,200.533z"/>
<path style="fill:#F3705A;" d="M457.6,233.6H342.4c-8.533,0-14.933-7.467-12.8-16c1.067-6.4,7.467-10.667,13.867-10.667h115.2
	c3.2,0,5.333-2.133,5.333-5.333c0-3.2-2.133-5.333-5.333-5.333H342.4c-14.933,0-26.667,12.8-24.533,27.733
	c1.067,12.8,12.8,22.4,25.6,22.4H457.6c3.2,0,5.333-2.133,5.333-5.333C462.933,237.867,460.8,233.6,457.6,233.6z"/>
<path style="fill:#E8EAE9;" d="M321.067,151.467h118.4c10.667,0,19.2,8.533,19.2,19.2c0,10.667-8.533,19.2-19.2,19.2h-118.4
	C328.533,178.133,328.533,162.133,321.067,151.467z"/>
<path style="fill:#66C6B9;" d="M323.2,183.467h115.2c8.533,0,14.933-7.467,12.8-16c-1.067-6.4-7.467-10.667-13.867-10.667H323.2
	c-3.2,0-5.333-2.133-5.333-5.333c0-3.2,2.133-5.333,5.333-5.333h115.2c14.933,0,26.667,12.8,24.533,27.733
	c-1.067,12.8-12.8,22.4-25.6,22.4H323.2c-3.2,0-5.333-2.133-5.333-5.333C317.867,185.6,320,183.467,323.2,183.467z"/>
<g>
</g>
<g>
</g>
<g>
</g>
<g>
</g>
<g>
</g>
<g>
</g>
<g>
</g>
<g>
</g>
<g>
</g>
<g>
</g>
<g>
</g>
<g>
</g>
<g>
</g>
<g>
</g>
<g>
</g>
</svg>
