<?xml version="1.0" encoding="iso-8859-1"?>
<!-- Generator: Adobe Illustrator 19.0.0, SVG Export Plug-In . SVG Version: 6.00 Build 0)  -->
<svg version="1.1" id="Capa_1" xmlns="http://www.w3.org/2000/svg" xmlns:xlink="http://www.w3.org/1999/xlink" x="0px" y="0px"
	 viewBox="0 0 512 512" style="enable-background:new 0 0 512 512;" xml:space="preserve">
<circle style="fill:#8AD7F8;" cx="256" cy="256" r="256"/>
<g>
	<path style="fill:#F3F3F3;" d="M246.4,348.8c-5.333-2.133-11.733-3.2-18.133-4.267c-6.4-1.067-12.8-2.133-17.067-2.133l2.133-4.267
		c-5.333-3.2-8.533-9.6-16-8.533c-4.267,0-10.667-2.133-13.867-6.4c-3.2-4.267-6.4-3.2-8.533-3.2c-3.2,0-6.4,1.067-9.6,2.133
		c-3.2,0-6.4,1.067-9.6,2.133c0,0,0-2.133,0-6.4c-5.333,5.333-8.533,8.533-12.8,11.733c-2.133,0-5.333-1.067-7.467-1.067
		c-9.6,2.133-10.667,2.133-10.667-8.533c0-5.333-2.133-6.4-6.4-5.333c-2.133,0-4.267,1.067-6.4,1.067
		c1.067-5.333,1.067-9.6,2.133-13.867c-4.267,1.067-9.6-2.133-10.667,5.333c-1.067,0-7.467,2.133-10.667,2.133
		c-6.4-2.133-11.733-11.733-8.533-19.2c2.133-4.267,6.4-8.533,12.8-7.467c2.133,0,4.267-1.067,5.333-1.067
		c3.2-1.067,7.467-2.133,10.667-1.067c4.267,2.133,8.533,6.4,12.8,9.6c1.067,0,1.067,0,2.133,0c-2.133-4.267-3.2-9.6-5.333-14.933
		c2.133-2.133,5.333-5.333,7.467-7.467c2.133-2.133,4.267-4.267,4.267-5.333c0-8.533,4.267-13.867,10.667-14.933
		c1.067-3.2,1.067-6.4,3.2-7.467s5.333-1.067,7.467-1.067c1.067,0,2.133,1.067,3.2,0c4.267-2.133,8.533-4.267,13.867-6.4
		c-8.533-3.2-16-5.333-23.467-7.467c2.133-1.067,7.467-4.267,8.533-3.2c4.267,3.2,6.4,0,9.6-1.067
		c2.133-1.067,5.333-3.2,8.533-5.333c-1.067,4.267-2.133,6.4-4.267,10.667L186.667,224c0-1.067,0-1.067,1.067-2.133
		c-3.2-1.067-6.4-3.2-9.6-4.267c0-2.133,1.067-4.267,1.067-6.4c-8.533-5.333-18.133-10.667-26.667-16c0,1.067,0,1.067,0,2.133
		c-3.2,0-8.533,2.133-9.6,1.067c-5.333-6.4-11.733-5.333-18.133-5.333c-5.333,0-7.467,7.467-4.267,10.667
		c7.467,6.4,1.067,6.4-3.2,8.533c1.067,3.2,24.533,6.4,25.6,9.6c-1.067,0-22.4,0-23.467,0c-1.067-1.067-3.2-1.067-4.267-2.133
		c-3.2-3.2-7.467-6.4-12.8-6.4c-8.533,0-17.067,0-24.533-6.4C85.333,192,99.2,192,113.067,193.067c0-1.067,0-2.133,0-2.133
		c-4.267-1.067-8.533-2.133-13.867-3.2c4.267-2.133,12.8,0,9.6-9.6c11.733-3.2,12.8-3.2,12.8,4.267
		c2.133-1.067,5.333-3.2,7.467-4.267c0,1.067,1.067,1.067,1.067,2.133c-4.267,2.133-8.533,5.333-12.8,7.467c0,1.067,0,1.067,0,2.133
		c11.733-5.333,23.467,5.333,36.267-2.133c-3.2-2.133-5.333-3.2-9.6-6.4c6.4,0,12.8,5.333,14.933-3.2
		c-2.133,0-4.267-1.067-6.4-1.067c-5.333-2.133-10.667-5.333-16-6.4c-6.4-2.133-12.8-3.2-19.2-3.2
		c-8.533-1.067-16-1.067-21.333,5.333c-4.267-1.067-6.4-2.133-8.533-1.067c-1.067,0-3.2,3.2-4.267,4.267
		c3.2,1.067,5.333,2.133,8.533,3.2c1.067,0,2.133,0,3.2,0c1.067,0,1.067,0,3.2,1.067c0,0-1.067,1.067-2.133,2.133
		c-6.4-3.2-12.8-5.333-20.267-8.533c1.067,3.2,2.133,4.267,2.133,5.333c0,2.133,0,4.267,0,6.4c-2.133-1.067-3.2-2.133-5.333-3.2
		c-2.133-1.067-3.2-1.067-6.4-2.133c1.067,3.2,1.067,4.267,1.067,6.4L50.133,188.8v-1.067c3.2-2.133,6.4-3.2,9.6-5.333
		c-9.6-2.133-12.8-7.467-13.867-13.867c-8.533,0-17.067,2.133-25.6,0c-2.133,0-3.2,0-5.333,0c-1.067,2.133-1.067,3.2-2.133,5.333H16
		c-1.067,2.133-3.2,3.2-4.267,4.267c-1.067,3.2-2.133,5.333-2.133,8.533l5.333-1.067c1.067,1.067,3.2,3.2,5.333,4.267
		c-4.267,0-7.467,0-11.733,1.067C4.267,205.867,1.067,224,0,241.067c0,0,0,0,1.067,0C7.467,245.333,9.6,249.6,9.6,256
		c1.067,5.333,3.2,10.667,6.4,13.867c6.4,7.467,16,12.8,22.4,21.333c4.267,6.4,10.667,9.6,16,12.8l1.067-1.067
		c-4.267-4.267-7.467-8.533-11.733-12.8c7.467,4.267,16,8.533,20.267,14.933c4.267,9.6,12.8,9.6,20.267,11.733
		c4.267,2.133,9.6,0,14.933,1.067c3.2,0,6.4,2.133,10.667,3.2c3.2,1.067,6.4,2.133,8.533,5.333c5.333,6.4,13.867,8.533,19.2,4.267
		c7.467,7.467,7.467,10.667,1.067,19.2c-1.067,2.133-2.133,4.267-2.133,6.4c0,3.2,1.067,6.4,1.067,10.667
		c3.2,3.2,6.4,7.467,9.6,11.733c4.267,5.333,7.467,11.733,16,13.867c6.4,1.067,8.533,6.4,7.467,11.733
		c-1.067,12.8-2.133,25.6-3.2,38.4c-1.067,8.533,0,17.067-1.067,25.6c-2.133,11.733,5.333,20.267,18.133,22.4h3.2
		c2.133-1.067,5.333-3.2,7.467-5.333c-11.733-2.133-12.8-4.267-6.4-13.867c1.067-1.067,0-4.267,0-6.4c-1.067,0-1.067,0-2.133,0
		c1.067-4.267,9.6-7.467,4.267-12.8c2.133-2.133,4.267-5.333,7.467-6.4c6.4-2.133,11.733-3.2,10.667-11.733
		c0,0,1.067-1.067,2.133-1.067c10.667-3.2,13.867-13.867,16-21.333c2.133-7.467,5.333-10.667,10.667-12.8
		c8.533-2.133,9.6-8.533,10.667-16c0-7.467,1.067-13.867,5.333-20.267C258.133,356.267,256,352,246.4,348.8z"/>
	<path style="fill:#F3F3F3;" d="M238.933,142.933c-8.533,3.2-16,5.333-23.467,9.6c-6.4,3.2-12.8,5.333-19.2,9.6
		c-2.133,1.067-5.333,5.333-5.333,7.467c-1.067,12.8-10.667,6.4-13.867,5.333c-7.467-2.133-13.867-6.4-17.067-16
		c-4.267-13.867-22.4-22.4-36.267-16c-7.467,3.2-9.6-4.267-13.867-1.067c5.333-5.333,10.667-10.667,16-14.933
		c7.467-4.267,13.867-12.8,24.533-9.6c6.4,1.067,10.667-1.067,10.667-6.4c3.2-1.067,5.333-2.133,7.467-3.2
		c3.2-1.067,6.4-3.2,9.6-4.267c16-2.133,30.933-5.333,46.933-6.4c3.2,0,7.467,3.2,8.533,5.333c5.333,7.467,4.267,7.467,12.8,2.133
		c3.2-2.133,6.4-2.133,11.733-1.067c-10.667,7.467-18.133,16-11.733,28.8c-4.267,1.067-6.4,2.133-9.6,2.133
		C236.8,137.6,237.867,139.733,238.933,142.933z"/>
	<path style="fill:#F3F3F3;" d="M494.933,163.2c-1.067,0-1.067,0-2.133,0c0-1.067,0-3.2-1.067-4.267
		c-1.067-2.133-2.133-4.267-3.2-6.4c-2.133,2.133-3.2,3.2-5.333,5.333s-3.2,5.333-4.267,8.533c-1.067,0-1.067,0-2.133-1.067
		c2.133-7.467,5.333-14.933-1.067-22.4c2.133-2.133,3.2-6.4,4.267-9.6c-4.267-7.467-9.6-16-13.867-22.4
		c0,1.067-1.067,1.067-1.067,2.133c-5.333,4.267-11.733,6.4-17.067,9.6c1.067,1.067,2.133,3.2,3.2,4.267
		c4.267-2.133,8.533-4.267,13.867-6.4c0,1.067,1.067,2.133,1.067,3.2c-8.533,3.2-18.133,6.4-27.733,9.6
		c1.067,1.067,2.133,3.2,3.2,5.333c1.067,1.067,2.133,2.133,3.2,3.2c-14.933-2.133-13.867,9.6-19.2,16
		c-7.467-4.267-8.533-6.4-5.333-13.867c4.267-8.533,13.867-13.867,10.667-24.533c0-1.067,1.067-2.133,1.067-2.133
		c4.267-3.2,8.533-6.4,11.733-10.667c5.333,4.267,7.467,4.267,9.6-2.133c1.067-2.133,1.067-4.267,2.133-6.4
		C440.533,78.933,422.4,61.867,402.133,48c0,1.067,0,2.133-1.067,3.2c-1.067,4.267-2.133,8.533-3.2,11.733
		c0,4.267-1.067,6.4-5.333,6.4c-1.067,0-3.2,2.133-4.267,4.267c-1.067,4.267-2.133,5.333-6.4,1.067c-3.2-3.2-6.4-5.333-11.733-3.2
		c-8.533,2.133-17.067,3.2-22.4-6.4c-1.067-2.133-5.333-3.2-8.533-3.2c-11.733-1.067-23.467-2.133-35.2-2.133
		c-1.067,0-4.267,1.067-4.267,2.133c-2.133,7.467-7.467,14.933-3.2,23.467c4.267,8.533,6.4,18.133,17.067,21.333
		c1.067,0,2.133,3.2,2.133,5.333c2.133,11.733,4.267,13.867,17.067,14.933c3.2,0,7.467,2.133,8.533,4.267
		c3.2,5.333,4.267,11.733,6.4,18.133c3.2,7.467,6.4,14.933,14.933,20.267c1.067-4.267,1.067-8.533,1.067-11.733
		c1.067-5.333,2.133-7.467,7.467-4.267c-1.067,10.667-3.2,21.333-2.133,32c1.067,9.6,5.333,10.667,13.867,6.4
		c1.067,0,1.067-1.067,1.067-1.067c0-3.2,0-5.333-1.067-7.467c13.867-3.2,13.867-3.2,16,0c-7.467,2.133-7.467,2.133-13.867,10.667
		c0,1.067-2.133,1.067-2.133,1.067c-3.2,4.267-7.467,7.467-8.533,12.8c-1.067,6.4-5.333,5.333-9.6,7.467
		c-2.133,1.067-4.267,2.133-6.4,2.133c-10.667-1.067-21.333-1.067-32-1.067l1.067-3.2c3.2,3.2,7.467,7.467,10.667,10.667
		c1.067,1.067,4.267,2.133,4.267,4.267c1.067,8.533,7.467,16,1.067,26.667c-4.267,0-10.667,0-16,0c0,2.133,0,4.267,1.067,6.4
		c-4.267-1.067-8.533-2.133-14.933-3.2c0-1.067,0-1.067,0-2.133c-6.4,0-13.867,1.067-20.267,1.067c0,1.067-1.067,2.133-2.133,5.333
		c8.533-1.067,16-2.133,23.467-3.2c2.133,3.2,3.2,4.267,4.267,6.4c-5.333,1.067-9.6,3.2-12.8,4.267c0,3.2,0,5.333,1.067,8.533
		c1.067,4.267,3.2,6.4,7.467,6.4c2.133,0,5.333-1.067,7.467-2.133c5.333-1.067,6.4,0,6.4,6.4c-2.133-1.067-5.333-3.2-7.467-4.267
		c-1.067,1.067-1.067,2.133-2.133,2.133c2.133,2.133,4.267,4.267,7.467,5.333c-1.067,2.133-1.067,5.333-2.133,8.533
		c-2.133,14.933,6.4,24.533,20.267,22.4c1.067,2.133,1.067,4.267,2.133,6.4c2.133-3.2,4.267-5.333,7.467-8.533
		c0,4.267,0,7.467,1.067,9.6c0,0-1.067,0-1.067-1.067c-1.067,2.133-3.2,4.267-4.267,5.333c-2.133,0-4.267,1.067-7.467,2.133
		c-1.067,0-2.133-1.067-5.333-4.267c0,3.2,0,6.4,1.067,7.467c2.133,2.133,5.333,2.133,9.6,3.2c1.067,2.133,3.2,7.467,2.133,9.6
		c-2.133,5.333-1.067,8.533,0,12.8c2.133,4.267,4.267,9.6,6.4,13.867c-3.2-1.067-6.4-2.133-9.6-3.2c0,1.067-1.067,2.133-1.067,3.2
		l13.867,6.4c3.2-5.333,6.4-8.533,10.667-13.867C371.2,387.2,371.2,387.2,368,398.933c-2.133,6.4-8.533,11.733-5.333,20.267
		c2.133,5.333,1.067,5.333-6.4,6.4c4.267-13.867-4.267-17.067-13.867-19.2c0,2.133,1.067,4.267,2.133,7.467
		c2.133,4.267,2.133,10.667,5.333,12.8c5.333,4.267,4.267,7.467,2.133,11.733c-2.133,4.267-2.133,8.533-3.2,12.8
		c-1.067,4.267-2.133,8.533-2.133,12.8c1.067,1.067,4.267,1.067,3.2,2.133c-3.2,8.533,3.2,17.067,11.733,23.467
		C449.067,451.2,512,360.533,512,256C512,222.933,505.6,192,494.933,163.2z"/>
</g>
<path style="fill:#F3705A;" d="M451.2,168.533l-45.867,44.8l-45.867-45.867c-25.6-25.6-25.6-66.133,0-90.667
	c25.6-25.6,66.133-25.6,90.667,0C475.733,102.4,475.733,142.933,451.2,168.533z"/>
<circle style="fill:#FFFFFF;" cx="405.333" cy="122.667" r="38.4"/>
<path style="fill:#F3705A;" d="M336,421.333L290.133,467.2l-44.8-45.867c-25.6-25.6-25.6-66.133,0-90.667
	c25.6-25.6,66.133-25.6,90.667,0C361.6,355.2,361.6,395.733,336,421.333z"/>
<circle style="fill:#FFFFFF;" cx="291.2" cy="375.467" r="38.4"/>
<path style="fill:#F3705A;" d="M130.133,181.333L84.267,227.2l-44.8-45.867c-25.6-25.6-25.6-66.133,0-90.667
	c25.6-25.6,66.133-25.6,90.667,0C155.733,115.2,155.733,156.8,130.133,181.333z"/>
<circle style="fill:#FFFFFF;" cx="84.267" cy="135.467" r="38.4"/>
<g>
</g>
<g>
</g>
<g>
</g>
<g>
</g>
<g>
</g>
<g>
</g>
<g>
</g>
<g>
</g>
<g>
</g>
<g>
</g>
<g>
</g>
<g>
</g>
<g>
</g>
<g>
</g>
<g>
</g>
</svg>
