<?xml version="1.0" encoding="iso-8859-1"?>
<!-- Generator: Adobe Illustrator 19.0.0, SVG Export Plug-In . SVG Version: 6.00 Build 0)  -->
<svg version="1.1" id="Capa_1" xmlns="http://www.w3.org/2000/svg" xmlns:xlink="http://www.w3.org/1999/xlink" x="0px" y="0px"
	 viewBox="0 0 512 512" style="enable-background:new 0 0 512 512;" xml:space="preserve">
<path style="fill:#415A6B;" d="M464,386.133H48c-12.8,0-22.4-9.6-22.4-22.4V73.6c0-12.8,9.6-22.4,22.4-22.4h414.933
	c12.8,0,22.4,9.6,22.4,22.4v290.133C486.4,376.533,475.733,386.133,464,386.133z"/>
<rect x="62.933" y="89.6" style="fill:#FFFFFF;" width="385.067" height="259.2"/>
<path style="fill:#E8EAE9;" d="M512,405.333L512,405.333H0l0,0C0,436.267,24.533,460.8,55.467,460.8h401.067
	C487.467,459.733,512,435.2,512,405.333z"/>
<polygon style="fill:#CED6E0;" points="309.333,428.8 317.867,405.333 194.133,405.333 202.667,428.8 "/>
<g>
	<rect x="114.133" y="214.4" style="fill:#E8EAE9;" width="25.6" height="92.8"/>
	<rect x="179.2" y="185.6" style="fill:#E8EAE9;" width="25.6" height="121.6"/>
	<rect x="243.2" y="234.667" style="fill:#E8EAE9;" width="25.6" height="73.6"/>
	<rect x="308.267" y="188.8" style="fill:#E8EAE9;" width="25.6" height="118.4"/>
	<rect x="372.267" y="150.4" style="fill:#E8EAE9;" width="25.6" height="156.8"/>
</g>
<path style="fill:#ADB3BA;" d="M369.067,141.867l-51.2,32l-61.867,48L192,163.2l-54.4,30.933c2.133,2.133,4.267,6.4,4.267,9.6
	l48-27.733l65.067,59.733l67.2-51.2l50.133-32C371.2,149.333,370.133,146.133,369.067,141.867z"/>
<circle style="fill:#415A6B;" cx="126.933" cy="206.933" r="22.4"/>
<circle style="fill:#66C6B9;" cx="192" cy="169.6" r="22.4"/>
<circle style="fill:#FFD15C;" cx="256" cy="228.267" r="22.4"/>
<circle style="fill:#F3705A;" cx="385.067" cy="141.867" r="22.4"/>
<circle style="fill:#8AD7F8;" cx="320" cy="179.2" r="22.4"/>
<g>
</g>
<g>
</g>
<g>
</g>
<g>
</g>
<g>
</g>
<g>
</g>
<g>
</g>
<g>
</g>
<g>
</g>
<g>
</g>
<g>
</g>
<g>
</g>
<g>
</g>
<g>
</g>
<g>
</g>
</svg>
