<?xml version="1.0" encoding="iso-8859-1"?>
<!-- Generator: Adobe Illustrator 19.0.0, SVG Export Plug-In . SVG Version: 6.00 Build 0)  -->
<svg version="1.1" id="Capa_1" xmlns="http://www.w3.org/2000/svg" xmlns:xlink="http://www.w3.org/1999/xlink" x="0px" y="0px"
	 viewBox="0 0 512 512" style="enable-background:new 0 0 512 512;" xml:space="preserve">
<path style="fill:#F3705A;" d="M451.2,302.933c-5.333,21.333-12.8,40.533-24.533,57.6l29.867,56.533l-39.467,39.467l-56.533-29.867
	c-18.133,10.667-37.333,19.2-57.6,24.533l-19.2,60.8h-55.467l-19.2-60.8c-21.333-5.333-40.533-12.8-57.6-24.533l-56.533,29.867
	l-39.467-39.467l29.867-56.533c-10.667-18.133-19.2-37.333-24.533-57.6L0,283.733v-55.467l60.8-19.2
	c5.333-21.333,12.8-40.533,24.533-57.6L55.467,94.933l39.467-39.467l56.533,29.867C169.6,74.667,188.8,66.133,210.133,60.8
	L228.267,0h55.467l19.2,60.8c21.333,5.333,40.533,12.8,57.6,24.533l56.533-29.867l39.467,39.467l-29.867,56.533
	c10.667,18.133,19.2,37.333,24.533,57.6l60.8,19.2v55.467L451.2,302.933z"/>
<circle style="fill:#FFFFFF;" cx="256" cy="256" r="141.867"/>
<path style="fill:#FFD15C;" d="M245.333,359.467v-18.133c-21.333-3.2-40.533-12.8-58.667-28.8l23.467-28.8
	c12.8,11.733,24.533,18.133,35.2,21.333v-37.333c-17.067-4.267-30.933-10.667-38.4-18.133c-8.533-7.467-12.8-18.133-12.8-33.067
	c0-13.867,4.267-25.6,13.867-35.2c9.6-9.6,21.333-14.933,37.333-17.067v-12.8H272v12.8c17.067,2.133,33.067,9.6,50.133,20.267
	L301.867,214.4C291.2,206.933,281.6,201.6,272,199.467v36.267c18.133,4.267,30.933,10.667,39.467,19.2
	c8.533,8.533,12.8,19.2,12.8,33.067s-5.333,26.667-14.933,35.2c-9.6,9.6-22.4,14.933-38.4,17.067v17.067h-25.6V359.467z
	 M245.333,199.467c-7.467,2.133-10.667,7.467-10.667,13.867c0,6.4,3.2,11.733,10.667,14.933V199.467z M284.8,291.2
	c0-3.2-1.067-6.4-3.2-8.533c-2.133-2.133-5.333-4.267-9.6-6.4V307.2C280.533,304,284.8,298.667,284.8,291.2z"/>
<g>
</g>
<g>
</g>
<g>
</g>
<g>
</g>
<g>
</g>
<g>
</g>
<g>
</g>
<g>
</g>
<g>
</g>
<g>
</g>
<g>
</g>
<g>
</g>
<g>
</g>
<g>
</g>
<g>
</g>
</svg>
