<?xml version="1.0" encoding="iso-8859-1"?>
<!-- Generator: Adobe Illustrator 19.0.0, SVG Export Plug-In . SVG Version: 6.00 Build 0)  -->
<svg version="1.1" id="Capa_1" xmlns="http://www.w3.org/2000/svg" xmlns:xlink="http://www.w3.org/1999/xlink" x="0px" y="0px"
	 viewBox="0 0 512 512" style="enable-background:new 0 0 512 512;" xml:space="preserve">
<rect x="27.733" y="160" style="fill:#F3F3F3;" width="456.533" height="317.867"/>
<path style="fill:#F05540;" d="M0,135.467v29.867c0,28.8,22.4,51.2,51.2,51.2s51.2-22.4,51.2-51.2v-29.867L0,135.467L0,135.467z"/>
<path style="fill:#CED6E0;" d="M102.4,135.467v29.867c0,28.8,22.4,51.2,51.2,51.2s51.2-22.4,51.2-51.2v-29.867L102.4,135.467
	L102.4,135.467z"/>
<path style="fill:#F05540;" d="M204.8,135.467v29.867c0,28.8,22.4,51.2,51.2,51.2c28.8,0,51.2-22.4,51.2-51.2v-29.867L204.8,135.467
	L204.8,135.467z"/>
<path style="fill:#CED6E0;" d="M307.2,135.467v29.867c0,28.8,22.4,51.2,51.2,51.2c28.8,0,51.2-22.4,51.2-51.2v-29.867L307.2,135.467
	L307.2,135.467z"/>
<path style="fill:#F05540;" d="M409.6,135.467v29.867c0,28.8,22.4,51.2,51.2,51.2s51.2-22.4,51.2-51.2v-29.867L409.6,135.467
	L409.6,135.467z"/>
<polygon style="fill:#F3705A;" points="102.4,135.467 140.8,62.933 65.067,62.933 0,135.467 "/>
<polygon style="fill:#E8EAE9;" points="204.8,135.467 217.6,62.933 140.8,62.933 102.4,135.467 "/>
<polygon style="fill:#F3705A;" points="307.2,135.467 294.4,62.933 217.6,62.933 204.8,135.467 "/>
<polygon style="fill:#E8EAE9;" points="409.6,135.467 371.2,62.933 294.4,62.933 307.2,135.467 "/>
<polygon style="fill:#F3705A;" points="512,135.467 446.933,62.933 371.2,62.933 409.6,135.467 "/>
<g>
	<rect x="65.067" style="fill:#415A6B;" width="382.933" height="62.933"/>
	<rect x="70.4" y="272" style="fill:#415A6B;" width="153.6" height="205.867"/>
	<rect x="264.533" y="272" style="fill:#415A6B;" width="190.933" height="176"/>
</g>
<rect x="285.867" y="293.333" style="fill:#8AD7F8;" width="148.267" height="133.333"/>
<g>
	<path style="fill:#55C0EB;" d="M373.333,323.2L313.6,382.933c-3.2,3.2-7.467,3.2-9.6,0c-3.2-3.2-3.2-7.467,0-9.6l59.733-59.733
		c3.2-3.2,7.467-3.2,9.6,0C376.533,315.733,376.533,320,373.333,323.2z"/>
	<path style="fill:#55C0EB;" d="M381.867,350.933l-40.533,40.533c-3.2,3.2-7.467,3.2-9.6,0c-3.2-3.2-3.2-7.467,0-9.6l40.533-40.533
		c3.2-3.2,7.467-3.2,9.6,0C385.067,343.467,385.067,348.8,381.867,350.933z"/>
</g>
<rect y="477.867" style="fill:#CED6E0;" width="512" height="34.133"/>
<g>
</g>
<g>
</g>
<g>
</g>
<g>
</g>
<g>
</g>
<g>
</g>
<g>
</g>
<g>
</g>
<g>
</g>
<g>
</g>
<g>
</g>
<g>
</g>
<g>
</g>
<g>
</g>
<g>
</g>
</svg>
