<?xml version="1.0" encoding="iso-8859-1"?>
<!-- Generator: Adobe Illustrator 19.0.0, SVG Export Plug-In . SVG Version: 6.00 Build 0)  -->
<svg version="1.1" id="Capa_1" xmlns="http://www.w3.org/2000/svg" xmlns:xlink="http://www.w3.org/1999/xlink" x="0px" y="0px"
	 viewBox="0 0 512 512" style="enable-background:new 0 0 512 512;" xml:space="preserve">
<path style="fill:#F7B64C;" d="M459.733,75.733V307.2c0,13.867-10.667,24.533-24.533,24.533h-352
	c-13.867,0-24.533-10.667-24.533-24.533V24.533C58.667,10.667,70.4,0,83.2,0h72.533c8.533,0,17.067,4.267,21.333,12.8l22.4,39.467
	H435.2C449.067,51.2,459.733,61.867,459.733,75.733z"/>
<path style="fill:#FFD15C;" d="M459.733,150.4v231.467c0,13.867-10.667,24.533-24.533,24.533h-352
	c-13.867,0-24.533-10.667-24.533-24.533V99.2c0-13.867,11.733-24.533,24.533-24.533h72.533c8.533,0,17.067,4.267,21.333,12.8
	l22.4,39.467H435.2C449.067,125.867,459.733,136.533,459.733,150.4z"/>
<path style="fill:#415A6B;" d="M490.667,293.333H21.333C9.6,293.333,0,302.933,0,314.667v176C0,502.4,9.6,512,21.333,512h469.333
	C502.4,512,512,502.4,512,490.667v-176C512,302.933,502.4,293.333,490.667,293.333z"/>
<path style="fill:#344A5E;" d="M324.267,384H187.733c-10.667,0-19.2,8.533-19.2,19.2c0,10.667,8.533,19.2,19.2,19.2H323.2
	c10.667,0,19.2-8.533,19.2-19.2C343.467,392.533,334.933,384,324.267,384z"/>
<g>
</g>
<g>
</g>
<g>
</g>
<g>
</g>
<g>
</g>
<g>
</g>
<g>
</g>
<g>
</g>
<g>
</g>
<g>
</g>
<g>
</g>
<g>
</g>
<g>
</g>
<g>
</g>
<g>
</g>
</svg>
