<?xml version="1.0" encoding="iso-8859-1"?>
<!-- Generator: Adobe Illustrator 19.0.0, SVG Export Plug-In . SVG Version: 6.00 Build 0)  -->
<svg version="1.1" id="Capa_1" xmlns="http://www.w3.org/2000/svg" xmlns:xlink="http://www.w3.org/1999/xlink" x="0px" y="0px"
	 viewBox="0 0 512 512" style="enable-background:new 0 0 512 512;" xml:space="preserve">
<path style="fill:#F3F3F3;" d="M66.667,0h282.667l128,128v352c0,18.133-13.867,32-32,32H66.667c-18.133,0-32-13.867-32-32V32
	C34.667,13.867,48.533,0,66.667,0z"/>
<g>
	<polygon style="fill:#CED6E0;" points="348.267,0 476.267,128 348.267,128 	"/>
	<rect x="261.867" y="216.533" style="fill:#CED6E0;" width="109.867" height="25.6"/>
	<rect x="261.867" y="162.133" style="fill:#CED6E0;" width="170.667" height="25.6"/>
</g>
<path style="fill:#55C0EB;" d="M209.6,145.067L162.667,192l44.8,44.8C219.2,224,225.6,208,225.6,189.867
	C226.667,172.8,220.267,156.8,209.6,145.067z"/>
<path style="fill:#F3705A;" d="M145.6,203.733c-1.067-1.067-1.067-2.133-1.067-3.2v-71.467c-36.267,2.133-65.067,32-65.067,69.333
	c0,38.4,30.933,69.333,69.333,69.333c17.067,0,33.067-6.4,44.8-17.067L145.6,203.733z"/>
<path style="fill:#FFD15C;" d="M161.6,107.733v60.8l42.667-42.667C192.533,115.2,177.6,108.8,161.6,107.733z"/>
<g>
	<rect x="261.867" y="413.867" style="fill:#CED6E0;" width="109.867" height="25.6"/>
	<rect x="261.867" y="359.467" style="fill:#CED6E0;" width="170.667" height="25.6"/>
</g>
<path style="fill:#F3705A;" d="M209.6,342.4l-46.933,46.933l44.8,44.8c11.733-12.8,18.133-28.8,18.133-46.933
	C226.667,370.133,220.267,354.133,209.6,342.4z"/>
<path style="fill:#55C0EB;" d="M145.6,401.067c-1.067-1.067-1.067-2.133-1.067-3.2V326.4c-36.267,2.133-65.067,32-65.067,69.333
	c0,38.4,30.933,69.333,69.333,69.333c17.067,0,33.067-6.4,44.8-17.067L145.6,401.067z"/>
<path style="fill:#FFD15C;" d="M161.6,305.067v60.8l42.667-42.667C192.533,312.533,177.6,306.133,161.6,305.067z"/>
<g>
</g>
<g>
</g>
<g>
</g>
<g>
</g>
<g>
</g>
<g>
</g>
<g>
</g>
<g>
</g>
<g>
</g>
<g>
</g>
<g>
</g>
<g>
</g>
<g>
</g>
<g>
</g>
<g>
</g>
</svg>
