<?xml version="1.0" encoding="iso-8859-1"?>
<!-- Generator: Adobe Illustrator 19.0.0, SVG Export Plug-In . SVG Version: 6.00 Build 0)  -->
<svg version="1.1" id="Capa_1" xmlns="http://www.w3.org/2000/svg" xmlns:xlink="http://www.w3.org/1999/xlink" x="0px" y="0px"
	 viewBox="0 0 512 512" style="enable-background:new 0 0 512 512;" xml:space="preserve">
<path style="fill:#415A6B;" d="M256,0c-43.733,0-80,36.267-80,80c0,34.133,21.333,62.933,52.267,74.667V134.4
	c-19.2-10.667-33.067-30.933-33.067-54.4c0-33.067,27.733-60.8,60.8-60.8s60.8,27.733,60.8,60.8c0,23.467-12.8,43.733-32,53.333
	v21.333C314.667,142.933,336,114.133,336,80C336,36.267,299.733,0,256,0z"/>
<rect x="393.603" y="177.012" transform="matrix(-0.6394 -0.7689 0.7689 -0.6394 512.6561 628.5983)" style="fill:#CED6E0;" width="20.267" height="34.134"/>
<path style="fill:#E8EAE9;" d="M417.067,201.6l-18.133-21.333c-1.067-1.067-1.067-3.2,0-5.333l22.4-19.2
	c1.067-1.067,3.2-1.067,5.333,0l18.133,21.333c1.067,1.067,1.067,3.2,0,5.333l-23.467,20.267
	C420.267,203.733,418.133,202.667,417.067,201.6z"/>
<g>
	<path style="fill:#CED6E0;" d="M404.267,179.2L404.267,179.2c-1.067-1.067,0-2.133,0-2.133l18.133-14.933
		c1.067-1.067,2.133,0,2.133,0l0,0c1.067,1.067,0,2.133,0,2.133L406.4,179.2C405.333,180.267,404.267,180.267,404.267,179.2z"/>
	<path style="fill:#CED6E0;" d="M408.533,185.6L408.533,185.6c-1.067-1.067,0-2.133,0-2.133l18.133-14.933
		c1.067-1.067,2.133,0,2.133,0l0,0c1.067,1.067,0,2.133,0,2.133L410.667,185.6C410.667,185.6,409.6,185.6,408.533,185.6z"/>
	<path style="fill:#CED6E0;" d="M413.867,190.933L413.867,190.933c-1.067-1.067,0-2.133,0-2.133L432,173.867
		c1.067-1.067,2.133,0,2.133,0l0,0c1.067,1.067,0,2.133,0,2.133L416,190.933C414.933,192,413.867,192,413.867,190.933z"/>
	<path style="fill:#CED6E0;" d="M418.133,197.333L418.133,197.333c-1.067-1.067,0-2.133,0-2.133l18.133-14.933
		c1.067-1.067,2.133,0,2.133,0l0,0c1.067,1.067,0,2.133,0,2.133l-18.133,14.933C420.267,197.333,419.2,197.333,418.133,197.333z"/>
	
		<rect x="97.996" y="177.037" transform="matrix(0.6394 -0.7689 0.7689 0.6394 -110.2509 153.1353)" style="fill:#CED6E0;" width="20.267" height="34.134"/>
</g>
<path style="fill:#E8EAE9;" d="M94.933,201.6l18.133-21.333c1.067-1.067,1.067-3.2,0-5.333l-22.4-19.2
	c-1.067-1.067-3.2-1.067-5.333,0L67.2,177.067c-1.067,1.067-1.067,3.2,0,5.333l23.467,20.267
	C91.733,203.733,93.867,202.667,94.933,201.6z"/>
<g>
	<path style="fill:#CED6E0;" d="M107.733,179.2L107.733,179.2c1.067-1.067,0-2.133,0-2.133L89.6,162.133
		c-1.067-1.067-2.133,0-2.133,0l0,0c-1.067,1.067,0,2.133,0,2.133L105.6,179.2C106.667,180.267,107.733,180.267,107.733,179.2z"/>
	<path style="fill:#CED6E0;" d="M103.467,185.6L103.467,185.6c1.067-1.067,0-2.133,0-2.133l-18.133-14.933
		c-1.067-1.067-2.133,0-2.133,0l0,0c-1.067,1.067,0,2.133,0,2.133l18.133,14.933C101.333,185.6,102.4,185.6,103.467,185.6z"/>
	<path style="fill:#CED6E0;" d="M98.133,190.933L98.133,190.933c1.067-1.067,0-2.133,0-2.133L80,173.867
		c-1.067-1.067-2.133,0-2.133,0l0,0c-1.067,1.067,0,2.133,0,2.133L96,190.933C97.067,192,98.133,192,98.133,190.933z"/>
	<path style="fill:#CED6E0;" d="M93.867,197.333L93.867,197.333c1.067-1.067,0-2.133,0-2.133l-19.2-16c-1.067-1.067-2.133,0-2.133,0
		l0,0c-1.067,1.067,0,2.133,0,2.133l18.133,14.933C91.733,197.333,92.8,197.333,93.867,197.333z"/>
</g>
<rect x="237.867" y="109.867" style="fill:#344A5E;" width="36.267" height="25.6"/>
<path style="fill:#415A6B;" d="M281.6,114.133h-51.2c-3.2,0-6.4-3.2-6.4-6.4V61.867c0-3.2,3.2-6.4,6.4-6.4h51.2
	c3.2,0,6.4,3.2,6.4,6.4v45.867C288,110.933,284.8,114.133,281.6,114.133z"/>
<g>
	<path style="fill:#344A5E;" d="M235.733,105.6L235.733,105.6c-2.133,0-3.2-1.067-3.2-3.2V67.2c0-2.133,1.067-3.2,3.2-3.2l0,0
		c2.133,0,3.2,1.067,3.2,3.2v35.2C238.933,104.533,236.8,105.6,235.733,105.6z"/>
	<path style="fill:#344A5E;" d="M249.6,105.6L249.6,105.6c-2.133,0-3.2-1.067-3.2-3.2V67.2c-1.067-1.067,1.067-3.2,3.2-3.2l0,0
		c2.133,0,3.2,1.067,3.2,3.2v35.2C252.8,104.533,250.667,105.6,249.6,105.6z"/>
	<path style="fill:#344A5E;" d="M262.4,105.6L262.4,105.6c-2.133,0-3.2-1.067-3.2-3.2V67.2c0-2.133,1.067-3.2,3.2-3.2l0,0
		c2.133,0,4.267,2.133,4.267,3.2v35.2C266.667,104.533,264.533,105.6,262.4,105.6z"/>
	<path style="fill:#344A5E;" d="M276.267,105.6L276.267,105.6c-2.133,0-3.2-1.067-3.2-3.2V67.2c0-2.133,1.067-3.2,3.2-3.2l0,0
		c2.133,0,3.2,1.067,3.2,3.2v35.2C280.533,104.533,278.4,105.6,276.267,105.6z"/>
</g>
<circle style="fill:#66C6B9;" cx="256" cy="320" r="192"/>
<circle style="fill:#FFFFFF;" cx="256" cy="320" r="154.667"/>
<path style="fill:#415A6B;" d="M321.067,310.4h-56.533v19.2h56.533c5.333,0,9.6-4.267,9.6-9.6
	C329.6,314.667,325.333,310.4,321.067,310.4z"/>
<path style="fill:#55C0EB;" d="M265.6,310.4v-81.067c0-5.333-4.267-9.6-9.6-9.6c-5.333,0-9.6,4.267-9.6,9.6V310.4H265.6z"/>
<circle style="fill:#F3705A;" cx="256" cy="320" r="29.867"/>
<circle style="fill:#F05540;" cx="256" cy="320" r="14.933"/>
<g>
	<circle style="fill:#E8EAE9;" cx="256" cy="195.2" r="9.6"/>
	<circle style="fill:#E8EAE9;" cx="168.533" cy="232.533" r="9.6"/>
	<circle style="fill:#E8EAE9;" cx="132.267" cy="320" r="9.6"/>
	<circle style="fill:#E8EAE9;" cx="168.533" cy="407.467" r="9.6"/>
	<circle style="fill:#E8EAE9;" cx="256" cy="443.733" r="9.6"/>
	<circle style="fill:#E8EAE9;" cx="343.467" cy="407.467" r="9.6"/>
	<circle style="fill:#E8EAE9;" cx="379.733" cy="320" r="9.6"/>
	<circle style="fill:#E8EAE9;" cx="343.467" cy="232.533" r="9.6"/>
</g>
<g>
</g>
<g>
</g>
<g>
</g>
<g>
</g>
<g>
</g>
<g>
</g>
<g>
</g>
<g>
</g>
<g>
</g>
<g>
</g>
<g>
</g>
<g>
</g>
<g>
</g>
<g>
</g>
<g>
</g>
</svg>
