<?xml version="1.0" encoding="iso-8859-1"?>
<!-- Generator: Adobe Illustrator 19.0.0, SVG Export Plug-In . SVG Version: 6.00 Build 0)  -->
<svg version="1.1" id="Capa_1" xmlns="http://www.w3.org/2000/svg" xmlns:xlink="http://www.w3.org/1999/xlink" x="0px" y="0px"
	 viewBox="0 0 512 512" style="enable-background:new 0 0 512 512;" xml:space="preserve">
<path style="fill:#F3F3F3;" d="M412.8,0H122.667L0,122.667v368C0,502.4,9.6,512,21.333,512H412.8c11.733,0,21.333-9.6,21.333-21.333
	V21.333C434.133,9.6,424.533,0,412.8,0z"/>
<g>
	<rect x="50.133" y="320" style="fill:#CED6E0;" width="212.267" height="25.6"/>
	<rect x="50.133" y="231.467" style="fill:#CED6E0;" width="333.867" height="25.6"/>
	<rect x="50.133" y="141.867" style="fill:#CED6E0;" width="333.867" height="25.6"/>
</g>
<rect x="195.2" y="53.333" style="fill:#F3705A;" width="188.8" height="25.6"/>
<polygon style="fill:#8AD7F8;" points="122.667,0 0,122.667 122.667,122.667 "/>
<path style="fill:#FFD15C;" d="M339.2,422.4l39.467-39.467c-4.267-4.267-16-18.133-20.267-41.6l-75.733-16l16,75.733
	C321.067,406.4,334.933,418.133,339.2,422.4z"/>
<circle style="fill:#FFFFFF;" cx="326.4" cy="371.2" r="8.533"/>
<path style="fill:#344A5E;" d="M512,512c-12.8-14.933-27.733-30.933-43.733-46.933c-35.2-35.2-61.867-59.733-82.133-76.8
	l-42.667,42.667c17.067,20.267,41.6,46.933,75.733,81.067L512,512L512,512z"/>
<path style="fill:#415A6B;" d="M347.733,436.267l43.733-43.733c3.2-3.2,3.2-8.533,0-10.667c-3.2-3.2-8.533-3.2-10.667,0
	L337.067,425.6c-3.2,3.2-3.2,8.533,0,10.667C340.267,439.467,344.533,439.467,347.733,436.267z"/>
<g>
</g>
<g>
</g>
<g>
</g>
<g>
</g>
<g>
</g>
<g>
</g>
<g>
</g>
<g>
</g>
<g>
</g>
<g>
</g>
<g>
</g>
<g>
</g>
<g>
</g>
<g>
</g>
<g>
</g>
</svg>
