<?xml version="1.0" encoding="iso-8859-1"?>
<!-- Generator: Adobe Illustrator 19.0.0, SVG Export Plug-In . SVG Version: 6.00 Build 0)  -->
<svg version="1.1" id="Capa_1" xmlns="http://www.w3.org/2000/svg" xmlns:xlink="http://www.w3.org/1999/xlink" x="0px" y="0px"
	 viewBox="0 0 512 512" style="enable-background:new 0 0 512 512;" xml:space="preserve">
<path style="fill:#415A6B;" d="M408.533,512H103.467c-18.133,0-32-14.933-32-32V32c0-18.133,14.933-32,32-32h305.067
	c18.133,0,32,14.933,32,32v448C440.533,497.067,426.667,512,408.533,512z"/>
<rect x="114.133" y="57.6" style="fill:#66C6B9;" width="283.733" height="353.067"/>
<circle style="fill:#344A5E;" cx="256" cy="460.8" r="27.733"/>
<path style="fill:#F3F3F3;" d="M365.867,181.333c0,24.533-20.267,44.8-44.8,44.8H194.133c-26.667,0-48-21.333-48-48
	c0-25.6,19.2-45.867,43.733-48c2.133-6.4,6.4-11.733,12.8-16c9.6-5.333,20.267-5.333,28.8,0c8.533-13.867,24.533-22.4,42.667-22.4
	c25.6,0,48,19.2,50.133,44.8C347.733,137.6,365.867,156.8,365.867,181.333z"/>
<polygon style="fill:#FFFFFF;" points="314.667,315.733 253.867,376.533 193.067,315.733 230.4,315.733 230.4,253.867 
	278.4,253.867 278.4,315.733 "/>
<g>
</g>
<g>
</g>
<g>
</g>
<g>
</g>
<g>
</g>
<g>
</g>
<g>
</g>
<g>
</g>
<g>
</g>
<g>
</g>
<g>
</g>
<g>
</g>
<g>
</g>
<g>
</g>
<g>
</g>
</svg>
