<?xml version="1.0" encoding="iso-8859-1"?>
<!-- Generator: Adobe Illustrator 19.0.0, SVG Export Plug-In . SVG Version: 6.00 Build 0)  -->
<svg version="1.1" id="Capa_1" xmlns="http://www.w3.org/2000/svg" xmlns:xlink="http://www.w3.org/1999/xlink" x="0px" y="0px"
	 viewBox="0 0 512 512" style="enable-background:new 0 0 512 512;" xml:space="preserve">
<path style="fill:#415A6B;" d="M456.533,95.452H55.467c-11.733,0-21.333,9.6-21.333,21.333v317.867
	c0,11.733,9.6,21.333,21.333,21.333h401.067c11.733,0,21.333-9.6,21.333-21.333V116.785
	C477.867,105.052,468.267,95.452,456.533,95.452z"/>
<rect x="76.8" y="138.118" style="fill:#FFFFFF;" width="358.4" height="233.6"/>
<path style="fill:#E8EAE9;" d="M512,413.318L512,413.318H0l0,0c0,34.133,27.733,60.8,60.8,60.8h389.333
	C484.267,475.185,512,447.452,512,413.318z"/>
<polygon style="fill:#CED6E0;" points="306.133,443.185 205.867,443.185 194.133,413.318 317.867,413.318 "/>
<g>
	
		<ellipse transform="matrix(0.1463 0.9892 -0.9892 0.1463 352.8118 42.1695)" style="fill:#FFD15C;" cx="151.973" cy="225.499" rx="14.933" ry="9.6"/>
	
		<ellipse transform="matrix(0.1463 -0.9892 0.9892 0.1463 -21.8791 425.7181)" style="fill:#FFD15C;" cx="235.716" cy="225.536" rx="14.933" ry="9.6"/>
</g>
<g>
	<path style="fill:#344A5E;" d="M229.333,198.918c0,27.733-10.667,62.933-41.6,62.933s-41.6-36.267-41.6-62.933
		c0-27.733,18.133-50.133,41.6-50.133S229.333,171.185,229.333,198.918z"/>
	<path style="fill:#344A5E;" d="M241.067,197.852c0,22.4-7.467,51.2-26.667,51.2s-26.667-28.8-26.667-51.2
		s11.733-40.533,26.667-40.533S241.067,175.452,241.067,197.852z"/>
</g>
<path style="fill:#4ABAA5;" d="M155.733,284.252l38.4,22.4l38.4-22.4l44.8,14.933c13.867,4.267,24.533,16,26.667,30.933l7.467,41.6
	H76.8l7.467-41.6c2.133-13.867,12.8-25.6,26.667-30.933L155.733,284.252z"/>
<path style="fill:#E8EAE9;" d="M173.867,371.718H214.4l9.6-61.867c0,0,1.067-8.533,1.067-18.133l-32,13.867l-32-13.867
	c1.067,8.533,1.067,18.133,1.067,18.133L173.867,371.718z"/>
<polygon style="fill:#F3705A;" points="178.133,371.718 210.133,371.718 203.733,332.252 212.267,324.785 194.133,306.652 
	176,324.785 184.533,332.252 "/>
<path style="fill:#F3F3F3;" d="M164.267,267.185l29.867,39.467L172.8,327.985l-16-49.067
	C160,273.585,164.267,267.185,164.267,267.185z"/>
<polygon style="fill:#66C6B9;" points="156.8,371.718 173.867,371.718 164.267,267.185 138.667,305.585 152.533,309.852 
	136.533,317.318 "/>
<path style="fill:#F3F3F3;" d="M224,267.185l-29.867,39.467l21.333,21.333l16-49.067C228.267,273.585,224,267.185,224,267.185z"/>
<polygon style="fill:#66C6B9;" points="214.4,371.718 231.467,371.718 251.733,317.318 235.733,309.852 249.6,305.585 224,267.185 
	"/>
<polygon style="fill:#F7B64C;" points="164.267,233.052 164.267,267.185 194.133,306.652 224,267.185 224,233.052 "/>
<path style="fill:#FFD15C;" d="M153.6,221.318c-1.067,30.933,16,58.667,40.533,58.667s41.6-26.667,40.533-58.667
	c0-9.6-3.2-19.2-6.4-26.667c-11.733,0-20.267-4.267-25.6-12.8C192,195.718,176,206.385,155.733,212.785
	C154.667,213.852,153.6,219.185,153.6,221.318z"/>
<path style="fill:#F3705A;" d="M512,59.185v129.067c0,11.733-9.6,21.333-21.333,21.333H374.4l-69.333,46.933v-46.933h-12.8
	c-11.733,0-21.333-9.6-21.333-21.333V59.185c0-11.733,9.6-21.333,21.333-21.333h198.4C502.4,37.852,512,47.452,512,59.185z"/>
<g>
	<circle style="fill:#FFFFFF;" cx="318.933" cy="124.252" r="21.333"/>
	<circle style="fill:#FFFFFF;" cx="391.467" cy="124.252" r="21.333"/>
	<circle style="fill:#FFFFFF;" cx="462.933" cy="124.252" r="21.333"/>
</g>
<g>
</g>
<g>
</g>
<g>
</g>
<g>
</g>
<g>
</g>
<g>
</g>
<g>
</g>
<g>
</g>
<g>
</g>
<g>
</g>
<g>
</g>
<g>
</g>
<g>
</g>
<g>
</g>
<g>
</g>
</svg>
