<?xml version="1.0" encoding="iso-8859-1"?>
<!-- Generator: Adobe Illustrator 19.0.0, SVG Export Plug-In . SVG Version: 6.00 Build 0)  -->
<svg version="1.1" id="Capa_1" xmlns="http://www.w3.org/2000/svg" xmlns:xlink="http://www.w3.org/1999/xlink" x="0px" y="0px"
	 viewBox="0 0 512 512" style="enable-background:new 0 0 512 512;" xml:space="preserve">
<g>
	<path style="fill:#FFD15C;" d="M259.2,104.52c-41.6,0-41.6,65.067,0,65.067C300.8,168.52,301.867,104.52,259.2,104.52z"/>
	<path style="fill:#FFD15C;" d="M147.2,101.32c-41.6,0-41.6,65.067,0,65.067S188.8,101.32,147.2,101.32z"/>
</g>
<path style="fill:#344A5E;" d="M405.333,418.12L393.6,348.786c-5.333-29.867-26.667-53.333-55.467-60.8l-57.6-13.867l-77.867,33.067
	l-76.8-33.067L67.2,287.986c-28.8,7.467-51.2,30.933-55.467,60.8L0,418.12H405.333z"/>
<path style="fill:#E8EAE9;" d="M166.4,418.12h71.467l17.067-104.533c0,0,1.067-14.933,2.133-30.933l-54.4,24.533L147.2,283.72
	c1.067,14.933,2.133,30.933,2.133,30.933L166.4,418.12z"/>
<path style="fill:#F3705A;" d="M176,418.12h53.333l-9.6-66.133L233.6,338.12c0,0-20.267-30.933-30.933-30.933
	s-30.933,30.933-30.933,30.933l13.867,13.867L176,418.12z"/>
<g>
	<path style="fill:#F3F3F3;" d="M151.467,238.92c10.667,28.8,28.8,50.133,51.2,68.267c-16,11.733-28.8,24.533-37.333,37.333
		L137.6,259.186C142.933,250.653,149.333,239.986,151.467,238.92z"/>
	<path style="fill:#F3F3F3;" d="M253.867,238.92c-10.667,28.8-28.8,50.133-51.2,68.267c16,11.733,28.8,24.533,37.333,37.333
		l27.733-85.333C262.4,250.653,256,239.986,253.867,238.92z"/>
</g>
<path style="fill:#F7B64C;" d="M151.467,182.386v57.6c10.667,28.8,28.8,50.133,51.2,68.267c22.4-18.133,40.533-39.467,51.2-68.267
	v-57.6H151.467z"/>
<g>
	<ellipse style="fill:#FFD15C;" cx="202.667" cy="159.986" rx="74.667" ry="103.467"/>
	<path style="fill:#FFD15C;" d="M289.067,179.186c-3.2,13.867-12.8,24.533-21.333,21.333c-8.533-2.133-12.8-16-9.6-29.867
		c3.2-13.867,12.8-22.4,21.333-20.267S292.267,165.32,289.067,179.186z"/>
	<path style="fill:#FFD15C;" d="M115.2,179.186c3.2,13.867,12.8,24.533,21.333,21.333c8.533-2.133,12.8-16,9.6-29.867
		c-3.2-13.867-12.8-22.4-21.333-20.267C117.333,152.52,113.067,165.32,115.2,179.186z"/>
</g>
<g>
	<path style="fill:#415A6B;" d="M274.133,185.586c52.267-103.467,24.533-176-35.2-171.733c-44.8-28.8-100.267-11.733-121.6,42.667
		c-8.533,22.4-10.667,46.933-6.4,70.4c5.333,33.067,20.267,58.667,20.267,58.667c-8.533-44.8-1.067-70.4-1.067-70.4
		c34.133-5.333,64-24.533,84.267-49.067l62.933,68.267C277.333,157.853,274.133,185.586,274.133,185.586z"/>
	<polygon style="fill:#415A6B;" points="272,418.12 302.933,355.186 280.533,329.586 311.467,298.653 256,242.12 226.133,418.12 	
		"/>
	<polygon style="fill:#415A6B;" points="102.4,355.186 133.333,418.12 179.2,418.12 148.267,242.12 96,303.986 124.8,329.586 	"/>
</g>
<path style="fill:#FFD15C;" d="M442.667,511.986c37.333,0,68.267-28.8,69.333-66.133c0,0,0,0,0-1.067
	c0-62.933-51.2-154.667-113.067-154.667s-113.067,92.8-113.067,154.667c0,0,0,0,0,1.067c0,37.333,32,66.133,69.333,66.133H442.667z"
	/>
<path style="fill:#F7B64C;" d="M392.533,470.386V459.72c-12.8-2.133-24.533-7.467-35.2-17.067l13.867-17.067
	c7.467,6.4,14.933,11.733,21.333,12.8v-22.4c-10.667-3.2-18.133-6.4-23.467-10.667c-5.333-4.267-7.467-11.733-7.467-20.267
	c0-8.533,3.2-16,8.533-21.333c5.333-5.333,12.8-8.533,22.4-9.6v-7.467h16v7.467c10.667,1.067,20.267,5.333,29.867,12.8l-11.733,16
	c-6.4-4.267-12.8-7.467-18.133-9.6v22.4c10.667,3.2,19.2,6.4,24.533,11.733c5.333,4.267,7.467,11.733,7.467,20.267
	c0,8.533-3.2,16-8.533,21.333c-5.333,5.333-13.867,9.6-23.467,10.667v10.667H392.533z M392.533,373.32
	c-4.267,1.067-6.4,4.267-6.4,8.533c0,4.267,2.133,7.467,6.4,9.6V373.32z M416,428.786c0-2.133-1.067-4.267-2.133-5.333
	c-1.067-1.067-3.2-3.2-6.4-4.267v19.2C413.867,436.253,416,433.053,416,428.786z"/>
<path style="fill:#FFD15C;" d="M425.6,302.92c-18.133,0-36.267,0-54.4,0c-1.067-22.4-25.6-54.4-39.467-75.733
	c40.533-23.467,92.8-23.467,133.333,0C451.2,249.586,426.667,280.52,425.6,302.92z"/>
<g>
	<path style="fill:#415A6B;" d="M368,297.586c-3.2,0-5.333-2.133-6.4-4.267c-1.067-3.2,1.067-6.4,4.267-7.467
		c22.4-6.4,43.733-6.4,66.133,0c3.2,1.067,5.333,4.267,4.267,7.467s-4.267,5.333-7.467,4.267c-19.2-5.333-39.467-5.333-58.667,0
		C369.067,297.586,368,297.586,368,297.586z"/>
	<path style="fill:#415A6B;" d="M397.867,324.253c-3.2,0-6.4-3.2-6.4-6.4V286.92c0-3.2,3.2-6.4,6.4-6.4s6.4,3.2,6.4,6.4v30.933
		C404.267,322.12,401.067,324.253,397.867,324.253z"/>
	<path style="fill:#415A6B;" d="M433.067,335.986c-1.067,0-2.133,0-3.2-1.067c-12.8-6.4-34.133-33.067-28.8-48
		c1.067-3.2,4.267-5.333,7.467-4.267c3.2,1.067,5.333,4.267,4.267,7.467c-2.133,7.467,11.733,27.733,22.4,33.067
		c3.2,1.067,4.267,5.333,3.2,8.533C437.333,334.92,435.2,335.986,433.067,335.986z"/>
</g>
<g>
</g>
<g>
</g>
<g>
</g>
<g>
</g>
<g>
</g>
<g>
</g>
<g>
</g>
<g>
</g>
<g>
</g>
<g>
</g>
<g>
</g>
<g>
</g>
<g>
</g>
<g>
</g>
<g>
</g>
</svg>
