<?xml version="1.0" encoding="iso-8859-1"?>
<!-- Generator: Adobe Illustrator 19.0.0, SVG Export Plug-In . SVG Version: 6.00 Build 0)  -->
<svg version="1.1" id="Capa_1" xmlns="http://www.w3.org/2000/svg" xmlns:xlink="http://www.w3.org/1999/xlink" x="0px" y="0px"
	 viewBox="0 0 513.067 513.067" style="enable-background:new 0 0 513.067 513.067;" xml:space="preserve">
<path style="fill:#E8EAE9;" d="M310.933,291.2c0,85.333-69.333,155.733-154.667,155.733c-86.4,0-155.733-69.333-155.733-155.733
	c0-62.933,38.4-117.333,92.8-141.867V29.867h124.8v119.467C272.533,173.867,310.933,228.267,310.933,291.2z"/>
<path style="fill:#FFD15C;" d="M32.533,257.067c-3.2,10.667-5.333,22.4-5.333,34.133c0,70.4,57.6,128,128,128s128-57.6,128-128
	c0-11.733-2.133-23.467-5.333-34.133L32.533,257.067L32.533,257.067z"/>
<rect x="93.333" y="29.867" style="fill:#CED6E0;" width="124.8" height="20.267"/>
<path style="fill:#E8EAE9;" d="M74.133,18.133L74.133,18.133c0,10.667,8.533,18.133,18.133,18.133h125.867
	c10.667,0,18.133-8.533,18.133-18.133l0,0C236.267,7.467,227.733,0,218.133,0h-124.8C82.667,0,74.133,8.533,74.133,18.133z"/>
<path style="fill:#F3705A;" d="M393.067,358.4L382.4,329.6l-33.067,5.333c-5.333-7.467-12.8-14.933-20.267-20.267l6.4-33.067
	l-27.733-11.733l-20.267,26.667c-9.6-1.067-19.2-2.133-28.8,0l-19.2-27.733l-28.8,10.667L216,312.533
	c-7.467,5.333-14.933,12.8-20.267,20.267l-33.067-6.4l-12.8,27.733l26.667,20.267c-1.067,9.6-2.133,19.2,0,28.8L148.8,422.4
	l10.667,28.8l33.067-5.333c5.333,8.533,12.8,14.933,20.267,20.267l-6.4,33.067l27.733,12.8l20.267-26.667
	c9.6,1.067,19.2,2.133,28.8,0l19.2,27.733l28.8-10.667l-5.333-33.067c7.467-5.333,14.933-12.8,20.267-20.267l33.067,6.4l12.8-27.733
	l-26.667-20.267c1.067-9.6,2.133-19.2,0-28.8L393.067,358.4z M284.267,423.467c-18.133,7.467-39.467-2.133-46.933-20.267
	c-7.467-18.133,2.133-39.467,20.267-46.933s39.467,2.133,46.933,20.267C312,395.733,302.4,416,284.267,423.467z"/>
<path style="fill:#F05540;" d="M249.067,332.8c-32,12.8-46.933,48-35.2,80c12.8,32,48,46.933,80,35.2c32-12.8,46.933-48,35.2-80
	C316.267,336,280,320,249.067,332.8z M284.267,423.467c-18.133,7.467-39.467-2.133-46.933-20.267
	c-7.467-18.133,2.133-39.467,20.267-46.933s39.467,2.133,46.933,20.267C312,395.733,302.4,416,284.267,423.467z"/>
<path style="fill:#8AD7F8;" d="M512.533,254.933v-23.467L488,226.133c-2.133-7.467-4.267-13.867-8.533-20.267l13.867-21.333l-16-16
	L456,182.4c-6.4-3.2-12.8-6.4-20.267-8.533l-5.333-24.533h-24.533l-5.333,24.533c-7.467,2.133-13.867,4.267-20.267,8.533
	l-21.333-13.867l-17.067,16l13.867,21.333c-3.2,6.4-6.4,12.8-8.533,20.267l-24.533,5.333v23.467l24.533,5.333
	c2.133,7.467,4.267,13.867,8.533,20.267l-13.867,21.333l16,16L379.2,304c6.4,3.2,12.8,6.4,20.267,8.533l5.333,24.533h23.467
	l5.333-24.533c7.467-2.133,13.867-4.267,20.267-8.533l21.333,13.867l16-16l-13.867-21.333c3.2-6.4,6.4-12.8,8.533-20.267
	L512.533,254.933z M417.6,270.933c-14.933,0-27.733-12.8-27.733-27.733s12.8-27.733,27.733-27.733
	c14.933,0,27.733,12.8,27.733,27.733C445.333,258.133,432.533,270.933,417.6,270.933z"/>
<path style="fill:#55C0EB;" d="M417.6,196.267c-25.6,0-46.933,21.333-46.933,46.933S392,290.133,417.6,290.133
	c25.6,0,46.933-21.333,46.933-46.933S443.2,196.267,417.6,196.267z M417.6,270.933c-14.933,0-27.733-12.8-27.733-27.733
	s12.8-27.733,27.733-27.733c14.933,0,27.733,12.8,27.733,27.733C445.333,258.133,432.533,270.933,417.6,270.933z"/>
<g>
</g>
<g>
</g>
<g>
</g>
<g>
</g>
<g>
</g>
<g>
</g>
<g>
</g>
<g>
</g>
<g>
</g>
<g>
</g>
<g>
</g>
<g>
</g>
<g>
</g>
<g>
</g>
<g>
</g>
</svg>
