<?xml version="1.0" encoding="iso-8859-1"?>
<!-- Generator: Adobe Illustrator 19.0.0, SVG Export Plug-In . SVG Version: 6.00 Build 0)  -->
<svg version="1.1" id="Capa_1" xmlns="http://www.w3.org/2000/svg" xmlns:xlink="http://www.w3.org/1999/xlink" x="0px" y="0px"
	 viewBox="0 0 512 512" style="enable-background:new 0 0 512 512;" xml:space="preserve">
<path style="fill:#415A6B;" d="M147.2,208.714c2.133-11.733,2.133-20.267,3.2-25.6c2.133-25.6-14.933-50.133-43.733-53.333
	c-33.067-3.2-56.533,23.467-53.333,52.267c0,5.333,0,12.8,3.2,26.667c1.067,6.4,7.467,11.733,14.933,11.733h60.8
	C138.667,219.381,145.067,215.114,147.2,208.714z"/>
<path style="fill:#344A5E;" d="M202.667,364.448l-9.6-59.733c-2.133-11.733-10.667-21.333-21.333-23.467
	c-46.933-11.733-92.8-11.733-139.733,0c-11.733,3.2-20.267,11.733-21.333,23.467L0,364.448H202.667z"/>
<polygon style="fill:#F3F3F3;" points="101.333,363.381 122.667,295.114 101.333,280.181 74.667,290.848 "/>
<g>
	<polygon style="fill:#F3705A;" points="108.8,299.381 114.133,292.981 101.333,280.181 88.533,292.981 94.933,299.381 	"/>
	<polygon style="fill:#F3705A;" points="101.333,363.381 114.133,340.981 108.8,299.381 94.933,299.381 88.533,340.981 	"/>
</g>
<g>
	<polygon style="fill:#E8EAE9;" points="126.933,251.381 101.333,280.181 118.4,300.448 134.4,265.248 	"/>
	<polygon style="fill:#E8EAE9;" points="76.8,251.381 101.333,280.181 85.333,300.448 68.267,265.248 	"/>
</g>
<polygon style="fill:#F7B64C;" points="76.8,232.181 101.333,203.381 126.933,232.181 126.933,251.381 101.333,280.181 
	76.8,251.381 "/>
<g>
	<path style="fill:#FFD15C;" d="M152.533,208.714c-1.067,7.467-5.333,13.867-10.667,13.867c-5.333,0-8.533-6.4-7.467-14.933
		c1.067-7.467,5.333-13.867,10.667-13.867C149.333,193.781,152.533,201.248,152.533,208.714z"/>
	<path style="fill:#FFD15C;" d="M51.2,208.714c1.067,7.467,5.333,13.867,10.667,13.867s8.533-6.4,7.467-14.933
		c-1.067-7.467-5.333-13.867-10.667-13.867S50.133,201.248,51.2,208.714z"/>
</g>
<g>
	<polygon style="fill:#415A6B;" points="128,254.581 147.2,275.914 132.267,286.581 147.2,296.181 101.333,363.381 	"/>
	<polygon style="fill:#415A6B;" points="74.667,254.581 55.467,275.914 71.467,286.581 55.467,296.181 101.333,363.381 	"/>
</g>
<path style="fill:#FFD15C;" d="M140.8,171.381c-18.133,0-32-6.4-43.733-16c-9.6,9.6-21.333,17.067-35.2,20.267
	c-1.067,6.4-2.133,12.8-2.133,19.2c-1.067,36.267,18.133,66.133,42.667,66.133s43.733-29.867,42.667-66.133
	C144,186.314,142.933,178.848,140.8,171.381z"/>
<path style="fill:#415A6B;" d="M455.467,208.714c2.133-11.733,2.133-20.267,3.2-25.6c2.133-25.6-14.933-50.133-43.733-53.333
	c-33.067-3.2-56.533,23.467-53.333,52.267c1.067,5.333,1.067,13.867,3.2,26.667c1.067,6.4,7.467,11.733,14.933,11.733h60.8
	C448,219.381,454.4,215.114,455.467,208.714z"/>
<path style="fill:#344A5E;" d="M512,364.448l-9.6-59.733c-2.133-11.733-10.667-21.333-21.333-23.467
	c-46.933-11.733-92.8-11.733-139.733,0c-11.733,3.2-20.267,11.733-21.333,23.467l-10.667,59.733H512z"/>
<polygon style="fill:#F3F3F3;" points="410.667,363.381 430.933,295.114 410.667,280.181 384,290.848 "/>
<g>
	<polygon style="fill:#F3705A;" points="417.067,299.381 423.467,292.981 410.667,280.181 397.867,292.981 403.2,299.381 	"/>
	<polygon style="fill:#F3705A;" points="410.667,363.381 423.467,340.981 417.067,299.381 403.2,299.381 397.867,340.981 	"/>
</g>
<g>
	<polygon style="fill:#E8EAE9;" points="435.2,251.381 410.667,280.181 426.667,300.448 443.733,265.248 	"/>
	<polygon style="fill:#E8EAE9;" points="385.067,251.381 410.667,280.181 393.6,300.448 377.6,265.248 	"/>
</g>
<polygon style="fill:#F7B64C;" points="385.067,232.181 410.667,203.381 435.2,232.181 435.2,251.381 410.667,280.181 
	385.067,251.381 "/>
<g>
	<path style="fill:#FFD15C;" d="M460.8,208.714c-1.067,7.467-5.333,13.867-10.667,13.867c-5.333,0-8.533-6.4-7.467-14.933
		c1.067-7.467,5.333-13.867,10.667-13.867S461.867,201.248,460.8,208.714z"/>
	<path style="fill:#FFD15C;" d="M359.467,208.714c1.067,7.467,5.333,13.867,10.667,13.867c5.333,0,8.533-6.4,7.467-14.933
		c-1.067-7.467-5.333-13.867-10.667-13.867C362.667,193.781,359.467,201.248,359.467,208.714z"/>
</g>
<g>
	<polygon style="fill:#415A6B;" points="437.333,254.581 456.533,275.914 440.533,286.581 456.533,296.181 410.667,363.381 	"/>
	<polygon style="fill:#415A6B;" points="382.933,254.581 364.8,275.914 379.733,286.581 364.8,296.181 410.667,363.381 	"/>
</g>
<path style="fill:#FFD15C;" d="M450.133,171.381c-18.133,0-32-6.4-43.733-16c-9.6,9.6-21.333,17.067-35.2,20.267
	c-1.067,6.4-2.133,12.8-2.133,19.2c-1.067,36.267,18.133,66.133,42.667,66.133s43.733-29.867,42.667-66.133
	C453.333,186.314,451.2,178.848,450.133,171.381z"/>
<g>
	<path style="fill:#415A6B;" d="M314.667,210.848c3.2-16,3.2-25.6,4.267-33.067c3.2-33.067-20.267-65.067-56.533-68.267
		c-41.6-4.267-73.6,29.867-68.267,67.2c1.067,7.467,1.067,17.067,4.267,34.133c2.133,8.533,9.6,14.933,19.2,14.933h77.867
		C304,225.781,312.533,219.381,314.667,210.848z"/>
	<path style="fill:#415A6B;" d="M385.067,401.781l-10.667-67.2c-2.133-14.933-13.867-26.667-27.733-30.933
		c-59.733-14.933-120.533-14.933-180.267,0c-14.933,3.2-25.6,16-27.733,30.933L128,401.781H385.067z"/>
</g>
<path style="fill:#F3F3F3;" d="M258.133,401.781l24.533-78.933c-5.333-12.8-12.8-20.267-26.667-18.133l-34.133,13.867l30.933,84.267
	h5.333V401.781z"/>
<g>
	<polygon style="fill:#55C0EB;" points="265.6,328.181 273.067,320.714 256,303.648 238.933,320.714 246.4,328.181 	"/>
	<polygon style="fill:#55C0EB;" points="261.333,401.781 273.067,382.581 265.6,328.181 246.4,328.181 238.933,382.581 
		250.667,401.781 	"/>
</g>
<g>
	<path style="fill:#E8EAE9;" d="M288,267.381l-32,37.333c10.667,5.333,18.133,13.867,21.333,25.6l21.333-44.8L288,267.381z"/>
	<path style="fill:#E8EAE9;" d="M224,267.381l32,37.333c-9.6,5.333-17.067,12.8-21.333,25.6l-21.333-44.8L224,267.381z"/>
</g>
<path style="fill:#F7B64C;" d="M224,241.781l32-37.333l32,37.333v25.6c-6.4,16-17.067,27.733-32,37.333
	c-16-11.733-26.667-23.467-32-37.333V241.781z"/>
<g>
	<path style="fill:#FFD15C;" d="M294.4,164.981c-14.933,14.933-35.2,23.467-61.867,23.467c-10.667,0-21.333-1.067-29.867-4.267
		c-1.067,6.4-2.133,13.867-2.133,21.333c0,41.6,24.533,75.733,55.467,75.733s55.467-34.133,55.467-75.733
		c0-17.067-4.267-33.067-11.733-45.867C298.667,160.714,296.533,162.848,294.4,164.981z"/>
	<path style="fill:#FFD15C;" d="M321.067,211.914c-1.067,9.6-6.4,18.133-12.8,18.133c-6.4,0-10.667-8.533-9.6-19.2
		c1.067-9.6,6.4-18.133,12.8-18.133S322.133,201.248,321.067,211.914z"/>
	<path style="fill:#FFD15C;" d="M190.933,211.914c1.067,9.6,6.4,18.133,12.8,18.133c6.4,0,10.667-8.533,9.6-19.2
		c-1.067-9.6-6.4-18.133-12.8-18.133C194.133,192.714,189.867,201.248,190.933,211.914z"/>
</g>
<g>
	<polygon style="fill:#344A5E;" points="262.4,401.781 314.667,323.914 295.467,311.114 314.667,298.314 291.2,271.648 
		258.133,401.781 	"/>
	<polygon style="fill:#344A5E;" points="249.6,401.781 253.867,401.781 220.8,271.648 197.333,298.314 216.533,311.114 
		197.333,323.914 	"/>
</g>
<g>
</g>
<g>
</g>
<g>
</g>
<g>
</g>
<g>
</g>
<g>
</g>
<g>
</g>
<g>
</g>
<g>
</g>
<g>
</g>
<g>
</g>
<g>
</g>
<g>
</g>
<g>
</g>
<g>
</g>
</svg>
