<svg height="512" viewBox="0 0 64 64" width="512" xmlns="http://www.w3.org/2000/svg"><path d="m7 55h5a6 6 0 0 1 12 0h15v-30a4 4 0 0 0 -4-4h-28a4 4 0 0 0 -4 4v26a4 4 0 0 0 4 4zm6-21a1 1 0 0 1 1-1h4a1 1 0 0 0 1-1v-4a1 1 0 0 1 1-1h2a1 1 0 0 1 1 1v4a1 1 0 0 0 1 1h4a1 1 0 0 1 1 1v2a1 1 0 0 1 -1 1h-4a1 1 0 0 0 -1 1v4a1 1 0 0 1 -1 1h-2a1 1 0 0 1 -1-1v-4a1 1 0 0 0 -1-1h-4a1 1 0 0 1 -1-1z" fill="#9bc9ff"/><path d="m39 55h5a6 6 0 0 1 12 0h3a2.006 2.006 0 0 0 2-2v-7a4 4 0 0 0 -4-4h-18z" fill="#9bc9ff"/><path d="m51.006 29.514a4 4 0 0 0 -3.714-2.514h-8.292v15h17z" fill="#9bc9ff"/><circle cx="18" cy="55" fill="#9bc9ff" r="2"/><circle cx="50" cy="55" fill="#9bc9ff" r="2"/><g fill="#1e81ce"><path d="m20 5h2v6h-2z"/><path d="m12.929 7.929h2v6h-2z" transform="matrix(.707 -.707 .707 .707 -3.648 13.049)"/><path d="m25.071 9.929h6v2h-6z" transform="matrix(.707 -.707 .707 .707 .494 23.05)"/><path d="m57 41h-.323l-4.742-11.856a4.976 4.976 0 0 0 -4.643-3.144h-7.292v-1a5.006 5.006 0 0 0 -5-5h-9v-1a5 5 0 0 0 -10 0v1h-9a5.006 5.006 0 0 0 -5 5v26a5.006 5.006 0 0 0 5 5h4.08a6.991 6.991 0 0 0 13.84 0h18.16a6.991 6.991 0 0 0 13.84 0h2.08a3 3 0 0 0 3-3v-7a5.006 5.006 0 0 0 -5-5zm-9.708-13a2.984 2.984 0 0 1 2.785 1.886l4.446 11.114h-14.523v-13zm-29.292-9a3 3 0 0 1 6 0v1h-6zm0 41a5 5 0 1 1 5-5 5.006 5.006 0 0 1 -5 5zm20-6h-13.08a6.991 6.991 0 0 0 -13.84 0h-4.08a3 3 0 0 1 -3-3v-26a3 3 0 0 1 3-3h28a3 3 0 0 1 3 3zm12 6a5 5 0 1 1 5-5 5.006 5.006 0 0 1 -5 5zm10-7a1 1 0 0 1 -1 1h-2.08a6.991 6.991 0 0 0 -13.84 0h-3.08v-11h17a3 3 0 0 1 3 3z"/><path d="m18 52a3 3 0 1 0 3 3 3 3 0 0 0 -3-3zm0 4a1 1 0 1 1 1-1 1 1 0 0 1 -1 1z"/><path d="m50 52a3 3 0 1 0 3 3 3 3 0 0 0 -3-3zm0 4a1 1 0 1 1 1-1 1 1 0 0 1 -1 1z"/><path d="m28 32h-4v-4a2 2 0 0 0 -2-2h-2a2 2 0 0 0 -2 2v4h-4a2 2 0 0 0 -2 2v2a2 2 0 0 0 2 2h4v4a2 2 0 0 0 2 2h2a2 2 0 0 0 2-2v-4h4a2 2 0 0 0 2-2v-2a2 2 0 0 0 -2-2zm0 4h-4a2 2 0 0 0 -2 2v4h-2v-4a2 2 0 0 0 -2-2h-4v-2h4a2 2 0 0 0 2-2v-4h2v4a2 2 0 0 0 2 2h4z"/><path d="m41.5 31.5h5v1.999h-5z" transform="matrix(.8 -.6 .6 .8 -10.7 32.889)"/><path d="m41 34h10v1.999h-10z" transform="matrix(.8 -.6 .6 .8 -11.8 34.589)"/></g></svg>