<svg height="512" viewBox="0 0 64 64" width="512" xmlns="http://www.w3.org/2000/svg"><g fill="#9bc9ff"><path d="m32 42h25v14h-25z"/><path d="m7 42h25v14h-25z"/><path d="m12 39h12a2 2 0 0 0 0-4h-12a2 2 0 0 0 0 4z"/><path d="m42 3a13 13 0 1 0 13 13 13 13 0 0 0 -13-13zm8 14a1 1 0 0 1 -1 1h-4a1 1 0 0 0 -1 1v4a1 1 0 0 1 -1 1h-2a1 1 0 0 1 -1-1v-4a1 1 0 0 0 -1-1h-4a1 1 0 0 1 -1-1v-2a1 1 0 0 1 1-1h4a1 1 0 0 0 1-1v-4a1 1 0 0 1 1-1h2a1 1 0 0 1 1 1v4a1 1 0 0 0 1 1h4a1 1 0 0 1 1 1z"/></g><path d="m59 36a3 3 0 0 0 -3 3v2h-48v-12a3 3 0 0 0 -6 0v33h6v-5h48v5h6v-23a3 3 0 0 0 -3-3zm-53 24h-2v-31a1 1 0 0 1 2 0zm2-5v-12h23v12zm25 0v-12h23v12zm27 5h-2v-21a1 1 0 0 1 2 0z" fill="#1e81ce"/><path d="m24 34h-12a3 3 0 0 0 0 6h12a3 3 0 0 0 0-6zm0 4h-12a1 1 0 0 1 0-2h12a1 1 0 0 1 0 2z" fill="#1e81ce"/><path d="m49 13h-4v-4a2 2 0 0 0 -2-2h-2a2 2 0 0 0 -2 2v4h-4a2 2 0 0 0 -2 2v2a2 2 0 0 0 2 2h4v4a2 2 0 0 0 2 2h2a2 2 0 0 0 2-2v-4h4a2 2 0 0 0 2-2v-2a2 2 0 0 0 -2-2zm0 4h-4a2 2 0 0 0 -2 2v4h-2v-4a2 2 0 0 0 -2-2h-4v-2h4a2 2 0 0 0 2-2v-4h2v4a2 2 0 0 0 2 2h4z" fill="#1e81ce"/><path d="m42 30a14 14 0 1 0 -14-14 14.015 14.015 0 0 0 14 14zm0-26a12 12 0 1 1 -12 12 12.013 12.013 0 0 1 12-12z" fill="#1e81ce"/></svg>