<svg height="512" viewBox="0 0 64 64" width="512" xmlns="http://www.w3.org/2000/svg"><g id="Blood_donation" data-name="Blood donation"><g fill="#9bc9ff"><path d="m9 3h12v4h-12z"/><path d="m19 37v-2h-8v2a2 2 0 0 0 2 2h4a2 2 0 0 0 2-2z"/><path d="m17 41v-2h-4v2a2 2 0 0 0 4 0z"/><path d="m54 31h-3-3v3h3 3z"/><path d="m51 37s-10 8.477-10 14a10 10 0 0 0 20 0c0-5.523-10-14-10-14zm5 16h-3v3h-4v-3h-3v-4h3v-3h4v3h3z"/></g><path d="m54 45h-6v3h-3v6h3v3h6v-3h3v-6h-3zm1 5v2h-3v3h-2v-3h-3v-2h3v-3h2v3z" fill="#1e81ce"/><path d="m52 36.544v-1.544h3v-5h-3v-11a9 9 0 0 0 -18 0v32a9 9 0 0 1 -18 0v-7.184a3 3 0 0 0 2-2.816v-1.184a3 3 0 0 0 2-2.816v-1h3a5.006 5.006 0 0 0 5-5v-20a5.006 5.006 0 0 0 -5-5h-1v-4h-14v4h-1a5.006 5.006 0 0 0 -5 5v20a5.006 5.006 0 0 0 5 5h3v1a3 3 0 0 0 2 2.816v1.184a3 3 0 0 0 2 2.816v7.184a11 11 0 0 0 22 0v-32a7 7 0 0 1 14 0v11h-3v5h3v1.544c-1.844 1.62-10 9.093-10 14.456a11 11 0 0 0 22 0c0-5.363-8.156-12.836-10-14.456zm-36 4.456a1 1 0 0 1 -2 0v-1h2zm-6-37h10v2h-10zm-3 30a3 3 0 0 1 -3-3v-20a3 3 0 0 1 3-3h16a3 3 0 0 1 3 3v20a3 3 0 0 1 -3 3h-7v-2h3v-2h-3v-2h3v-2h-3v-2h3v-2h-3v-2h3v-2h-3v-2h3v-2h-3v-2h-2v22zm11 2v1a1 1 0 0 1 -1 1h-4a1 1 0 0 1 -1-1v-1zm31-4h4v1h-4zm2 28a9.011 9.011 0 0 1 -9-9c0-3.846 5.99-9.987 9-12.673 3.01 2.686 9 8.827 9 12.673a9.011 9.011 0 0 1 -9 9z" fill="#1e81ce"/></g></svg>