<svg height="512" viewBox="0 0 64 64" width="512" xmlns="http://www.w3.org/2000/svg"><path d="m11.843 47.006c.1.1.205.2.311.3 3.147 2.821 9.976 1.729 13-1.3l-7.074-13.406-4.168 1.648a1 1 0 0 1 -1.305-.569 21.065 21.065 0 0 1 .019-14.408 1 1 0 0 1 1.253-.589l5.2 1.72 6.078-14.408c-3.027-3.027-9.856-3.118-13-.3-.106.092-.212.2-.311.3s-.205.205-.3.311a28.971 28.971 0 0 0 0 40.39c.092.105.198.212.297.311zm1.436-12.452-.008.007z" fill="#9bc9ff"/><path d="m43 45a18 18 0 1 0 -18-18 18 18 0 0 0 18 18zm-11-21a1 1 0 0 1 1-1h5a1 1 0 0 0 1-1v-5a1 1 0 0 1 1-1h6a1 1 0 0 1 1 1v5a1 1 0 0 0 1 1h5a1 1 0 0 1 1 1v6a1 1 0 0 1 -1 1h-5a1 1 0 0 0 -1 1v5a1 1 0 0 1 -1 1h-6a1 1 0 0 1 -1-1v-5a1 1 0 0 0 -1-1h-5a1 1 0 0 1 -1-1z" fill="#9bc9ff"/><g fill="#1e81ce"><path d="m26.385 46.191-7.84-14.851-5 2a20.015 20.015 0 0 1 .018-13.706l6.077 2.01 6.7-15.877-.476-.476c-3.389-3.391-10.779-3.565-14.364-.348-.123.107-.6.584-.668.665a29.8 29.8 0 0 0 -.041 41.74c.108.125.586.6.7.7a7.9 7.9 0 0 0 4.484 1.819l.015.607-2.541 1.694a1 1 0 0 0 .312 1.8l1.962.49-2.323 1.742a1 1 0 0 0 .357 1.77l1.807.452-1.119.746a1 1 0 0 0 -.445.832v1a1 1 0 0 0 2 0v-.465l2.555-1.7a1 1 0 0 0 -.312-1.8l-1.962-.49 2.319-1.745a1 1 0 0 0 -.357-1.77l-1.807-.452 1.119-.746a1 1 0 0 0 .445-.857l-.028-1.07a12.619 12.619 0 0 0 7.892-3.192zm-13.574.358c-.089-.077-.432-.42-.548-.551a27.843 27.843 0 0 1 .037-39.04c.075-.087.418-.43.518-.517a8.575 8.575 0 0 1 5.618-1.8 9.228 9.228 0 0 1 5.516 1.629l-5.435 12.892-4.325-1.431a2.012 2.012 0 0 0 -2.505 1.195 22.061 22.061 0 0 0 -.02 15.093 1.95 1.95 0 0 0 1.045 1.121 2.031 2.031 0 0 0 1.568.037l3.334-1.319 6.293 11.923c-2.866 2.276-8.497 3.098-11.096.768z"/><path d="m43 46a19 19 0 1 1 19-19 19.021 19.021 0 0 1 -19 19zm0-36a17 17 0 1 0 17 17 17.019 17.019 0 0 0 -17-17z"/><path d="m53 22h-5v-5a2 2 0 0 0 -2-2h-6a2 2 0 0 0 -2 2v5h-5a2 2 0 0 0 -2 2v6a2 2 0 0 0 2 2h5v5a2 2 0 0 0 2 2h6a2 2 0 0 0 2-2v-5h5a2 2 0 0 0 2-2v-6a2 2 0 0 0 -2-2zm0 8h-5a2 2 0 0 0 -2 2v5h-6v-5a2 2 0 0 0 -2-2h-5v-6h5a2 2 0 0 0 2-2v-5h6v5a2 2 0 0 0 2 2h5z"/></g></svg>