<svg height="512" viewBox="0 0 64 64" width="512" xmlns="http://www.w3.org/2000/svg"><path d="m3 47 6-6v-32l-6-6z" fill="#9bc9ff"/><path d="m9 9h46l6-6h-58z" fill="#9bc9ff"/><path d="m55 41 6 6v-44l-6 6z" fill="#9bc9ff"/><path d="m39 44c0 1.093-2.158 1.617-2.669 2.5a1.632 1.632 0 0 0 -.159.5h24.828l-6-6h-18.835a1.634 1.634 0 0 0 .167.5c.51.883 2.668 1.407 2.668 2.5z" fill="#9bc9ff"/><path d="m25 44c0-1.093 2.158-1.617 2.669-2.5a1.661 1.661 0 0 0 .166-.5h-18.835l-6 6h24.828a1.605 1.605 0 0 0 -.16-.5c-.51-.883-2.668-1.407-2.668-2.5z" fill="#9bc9ff"/><g fill="#1e81ce"><path d="m2 2v46h22v-2h-18.586l4-4h14.586v-2h-14v-30h44v30h-14v2h14.586l4 4h-18.586v2h22v-46zm54 7.414 4-4v39.172l-4-4zm-48 31.172-4 4v-39.172l4 4zm1.414-32.586-4-4h53.172l-4 4z"/><path d="m15 24h34v2h-34z"/><path d="m19 28h26v2h-26z"/><path d="m38.083 46.364c.854-.52 1.917-1.164 1.917-2.364s-1.063-1.843-1.917-2.363a4.057 4.057 0 0 1 -.883-.637 3.945 3.945 0 0 1 -.127-1.144c-.028-.981-.064-2.2-1.067-2.784-.982-.568-2.039 0-2.89.453a3.818 3.818 0 0 1 -1.116.475 3.818 3.818 0 0 1 -1.113-.475c-.851-.454-1.908-1.02-2.888-.453-1 .58-1.04 1.8-1.069 2.784a3.978 3.978 0 0 1 -.13 1.144 4.059 4.059 0 0 1 -.887.637c-.851.519-1.913 1.163-1.913 2.363s1.062 1.843 1.917 2.363a4.048 4.048 0 0 1 .883.637l-7.1 12.31 4.094-1.095 1.1 4.1 7.099-12.315h.014l7.1 12.312 1.1-4.1 4.093 1.097-7.1-12.309a4.082 4.082 0 0 1 .883-.636zm-12.053-2.364a5.157 5.157 0 0 1 .927-.655 4.263 4.263 0 0 0 1.577-1.345 4.385 4.385 0 0 0 .4-2.085c.009-.34.025-.888.058-1.068a5.666 5.666 0 0 1 .956.442 4.514 4.514 0 0 0 2.052.711 4.522 4.522 0 0 0 2.057-.711 6.144 6.144 0 0 1 .923-.434 5.888 5.888 0 0 1 .091 1.059 4.381 4.381 0 0 0 .4 2.087 4.27 4.27 0 0 0 1.577 1.344 5.157 5.157 0 0 1 .922.655 5.157 5.157 0 0 1 -.927.655 4.263 4.263 0 0 0 -1.577 1.345 4.385 4.385 0 0 0 -.4 2.085c-.009.34-.025.888-.058 1.068a5.666 5.666 0 0 1 -.956-.442 4.514 4.514 0 0 0 -2.052-.711 4.522 4.522 0 0 0 -2.057.711 6.144 6.144 0 0 1 -.923.434 5.888 5.888 0 0 1 -.091-1.059 4.381 4.381 0 0 0 -.395-2.086 4.27 4.27 0 0 0 -1.577-1.344 5.157 5.157 0 0 1 -.927-.656zm-.822 11.766-1.367.365 3.446-5.97a1.8 1.8 0 0 0 .71.767 1.767 1.767 0 0 0 1.021.227l-3.446 5.972zm13.584 0-.364 1.361-3.449-5.976c.043 0 .085.015.128.015a1.747 1.747 0 0 0 .893-.238 1.794 1.794 0 0 0 .712-.768l3.446 5.971z"/><path d="m28 44a4 4 0 1 0 4-4 4 4 0 0 0 -4 4zm4-2a2 2 0 1 1 -2 2 2 2 0 0 1 2-2z"/><path d="m36 33h6v2h-6z"/><path d="m22 33h5v2h-5z"/><path d="m31 12v3h-3v2h3v3h2v-3h3v-2h-3v-3z"/></g></svg>