<svg height="512" viewBox="0 0 64 64" width="512" xmlns="http://www.w3.org/2000/svg"><ellipse cx="17" cy="32" fill="#9bc9ff" rx="10" ry="15"/><path d="m7 2c0 8.284 4.477 15 10 15s10-6.716 10-15z" fill="#9bc9ff"/><path d="m17 47c-5.523 0-10 6.716-10 15h20c0-8.284-4.477-15-10-15z" fill="#9bc9ff"/><g fill="#1e81ce"><path d="m28 2h-10v2h7.9a19.921 19.921 0 0 1 -.778 4h-5.122v2h4.375c-1.628 3.622-4.324 6-7.375 6s-5.747-2.378-7.375-6h8.375v-2h-9.119a19.921 19.921 0 0 1 -.781-4h7.9v-2h-10c0 6.882 3.009 12.746 7.209 15-4.2 2.254-7.209 8.118-7.209 15s3.009 12.746 7.209 15c-4.2 2.254-7.209 8.118-7.209 15h10v-2h-7.9a19.921 19.921 0 0 1 .778-4h3.122v-2h-2.375c1.628-3.622 4.324-6 7.375-6s5.747 2.378 7.375 6h-6.375v2h7.119a19.921 19.921 0 0 1 .778 4h-7.897v2h10c0-6.882-3.009-12.746-7.209-15 4.2-2.254 7.209-8.118 7.209-15s-3.009-12.746-7.209-15c4.2-2.254 7.209-8.118 7.209-15zm-3.218 23h-6.782v2h7.4a20.6 20.6 0 0 1 .571 4h-7.971v2h7.967a20.6 20.6 0 0 1 -.571 4h-5.396v2h4.782c-1.559 4.177-4.459 7-7.782 7s-6.223-2.823-7.782-7h8.782v-2h-9.4a20.6 20.6 0 0 1 -.571-4h7.971v-2h-7.967a20.6 20.6 0 0 1 .567-4h3.4v-2h-2.782c1.559-4.177 4.459-7 7.782-7s6.223 2.823 7.782 7z"/><path d="m14 25h2v2h-2z"/><path d="m14 54h2v2h-2z"/><path d="m58 32c0-6.882-3.009-12.746-7.209-15 4.2-2.254 7.209-8.118 7.209-15h-2c0 .681-.042 1.345-.1 2h-10.9v2h10.621a18.1 18.1 0 0 1 -1.246 4h-4.375v2h3.287c-1.624 2.47-3.842 4-6.287 4s-4.663-1.53-6.287-4h7.287v-2h-8.375a18.1 18.1 0 0 1 -1.246-4h4.621v-2h-4.9c-.061-.655-.1-1.319-.1-2h-2c0 6.882 3.009 12.746 7.209 15-4.2 2.254-7.209 8.118-7.209 15s3.009 12.746 7.209 15c-4.2 2.254-7.209 8.118-7.209 15h2c0-.681.042-1.345.1-2h11.9v-2h-11.621a18.1 18.1 0 0 1 1.246-4h2.375v-2h-1.287c1.624-2.47 3.842-4 6.287-4s4.663 1.53 6.287 4h-5.287v2h6.375a18.1 18.1 0 0 1 1.246 4h-3.621v2h3.9c.061.655.1 1.319.1 2h2c0-6.882-3.009-12.746-7.209-15 4.2-2.254 7.209-8.118 7.209-15zm-11 14c-2.445 0-4.663-1.53-6.287-4h3.287v-2h-4.375a18.1 18.1 0 0 1 -1.246-4h9.621v-2h-9.9c-.061-.655-.1-1.319-.1-2s.042-1.345.1-2h3.9v-2h-3.621a18.1 18.1 0 0 1 1.246-4h8.375v-2h-7.287c1.624-2.47 3.842-4 6.287-4s4.663 1.53 6.287 4h-3.287v2h4.375a18.1 18.1 0 0 1 1.246 4h-7.621v2h7.9c.061.655.1 1.319.1 2s-.042 1.345-.1 2h-5.9v2h5.621a18.1 18.1 0 0 1 -1.246 4h-8.375v2h7.287c-1.624 2.47-3.842 4-6.287 4z"/><path d="m44 28h2v2h-2z"/><path d="m44 52h2v2h-2z"/></g></svg>