<svg height="512" viewBox="0 0 64 64" width="512" xmlns="http://www.w3.org/2000/svg"><path d="m6 55a3 3 0 0 0 0 6h52a3 3 0 0 0 0-6z" fill="#9bc9ff"/><path d="m32 25a20 20 0 0 0 -20 20v10h40v-10a20 20 0 0 0 -20-20zm8 17a1 1 0 0 1 -1 1h-4a1 1 0 0 0 -1 1v4a1 1 0 0 1 -1 1h-2a1 1 0 0 1 -1-1v-4a1 1 0 0 0 -1-1h-4a1 1 0 0 1 -1-1v-2a1 1 0 0 1 1-1h4a1 1 0 0 0 1-1v-4a1 1 0 0 1 1-1h2a1 1 0 0 1 1 1v4a1 1 0 0 0 1 1h4a1 1 0 0 1 1 1z" fill="#9bc9ff"/><g fill="#1e81ce"><path d="m23.7 32.511-1.109-1.664a16.977 16.977 0 0 1 2.119-1.2l.859 1.806a15.008 15.008 0 0 0 -1.869 1.058z"/><path d="m31 6h2v12h-2z"/><path d="m17 9.751h2v12h-2z" transform="matrix(.866 -.5 .5 .866 -5.464 11.11)"/><path d="m6.751 20h2v12h-2z" transform="matrix(.5 -.866 .866 .5 -18.641 19.713)"/><path d="m50.249 25h12v2h-12z" transform="matrix(.866 -.5 .5 .866 -5.465 31.602)"/><path d="m40 14.751h12v2h-12z" transform="matrix(.5 -.866 .866 .5 9.362 47.716)"/><path d="m58 54h-5v-9a21 21 0 0 0 -42 0v9h-5a4 4 0 0 0 0 8h52a4 4 0 0 0 0-8zm-45-9a19 19 0 0 1 38 0v9h-38zm45 15h-52a2 2 0 0 1 0-4h52a2 2 0 0 1 0 4z"/><path d="m15 45v5h2v-5a15.008 15.008 0 0 1 5.114-11.271l-1.32-1.5a17.011 17.011 0 0 0 -5.794 12.771z"/><path d="m39 38h-4v-4a2 2 0 0 0 -2-2h-2a2 2 0 0 0 -2 2v4h-4a2 2 0 0 0 -2 2v2a2 2 0 0 0 2 2h4v4a2 2 0 0 0 2 2h2a2 2 0 0 0 2-2v-4h4a2 2 0 0 0 2-2v-2a2 2 0 0 0 -2-2zm0 4h-4a2 2 0 0 0 -2 2v4h-2v-4a2 2 0 0 0 -2-2h-4v-2h4a2 2 0 0 0 2-2v-4h2v4a2 2 0 0 0 2 2h4z"/></g></svg>