<svg height="512" viewBox="0 0 64 64" width="512" xmlns="http://www.w3.org/2000/svg"><g fill="#9bc9ff"><path d="m57 10h-9l2 2v31h11v-29a4 4 0 0 0 -4-4z"/><path d="m14 10h-7a4 4 0 0 0 -4 4v29h11z"/><path d="m14 43h-11v4a4 4 0 0 0 4 4h50a4 4 0 0 0 4-4v-4zm18 6a2 2 0 1 1 2-2 2 2 0 0 1 -2 2z"/><path d="m30 8h4v2h-4z"/><path d="m30 12h-4v4h4v4h4v-4h4v-4h-4v-2h-4z"/><path d="m25 51h14v6h-14z"/><path d="m19 57a2 2 0 0 0 -2 2v2h30v-2a2 2 0 0 0 -2-2z"/></g><path d="m57 9h-5v2h5a3 3 0 0 1 3 3v28h-9v-30.414l-8.586-8.586h-29.414v39h-9v-29c0-.495 0-2 3-2h4v-2h-4c-3.131 0-5 1.5-5 4v34a5.006 5.006 0 0 0 5 5h17v4h-5a3 3 0 0 0 -3 3v1h-2v2h36v-2h-2v-1a3 3 0 0 0 -3-3h-5v-4h17a5.006 5.006 0 0 0 5-5v-33a5.006 5.006 0 0 0 -5-5zm-14-2.586 4.586 4.586h-4.586zm-28-1.414h26v8h8v29h-34zm30 53a1 1 0 0 1 1 1v1h-28v-1a1 1 0 0 1 1-1zm-19-2v-4h12v4zm34-9a3 3 0 0 1 -3 3h-50a3 3 0 0 1 -3-3v-3h56z" fill="#1e81ce"/><path d="m22 30a1 1 0 0 1 1 1h2a3 3 0 0 0 -2-2.816v-1.184h-2v1.184a2.993 2.993 0 0 0 1 5.816 1 1 0 1 1 -1 1h-2a3 3 0 0 0 2 2.816v1.184h2v-1.184a2.993 2.993 0 0 0 -1-5.816 1 1 0 0 1 0-2z" fill="#1e81ce"/><path d="m35 47a3 3 0 1 0 -3 3 3 3 0 0 0 3-3zm-3 1a1 1 0 1 1 1-1 1 1 0 0 1 -1 1z" fill="#1e81ce"/><path d="m29 21h6v-4h4v-6h-4v-4h-6v4h-4v6h4zm-2-6v-2h4v-4h2v4h4v2h-4v4h-2v-4z" fill="#1e81ce"/><path d="m29 28h16v2h-16z" fill="#1e81ce"/><path d="m29 32h16v2h-16z" fill="#1e81ce"/><path d="m29 36h16v2h-16z" fill="#1e81ce"/></svg>