<svg height="512" viewBox="0 0 64 64" width="512" xmlns="http://www.w3.org/2000/svg"><path d="m25.544 33.688-14.994 17.394a6 6 0 0 0 4.544 9.918h33.812a6 6 0 0 0 4.544-9.918l-14.994-17.394a6 6 0 0 1 -1.456-3.917v-20.883a1.888 1.888 0 0 1 1.888-1.888h.112a2.012 2.012 0 0 0 1.992-2.177 2.075 2.075 0 0 0 -2.104-1.823h-13.888a2.012 2.012 0 0 0 -1.992 2.177 2.075 2.075 0 0 0 2.104 1.823 1.888 1.888 0 0 1 1.888 1.888v20.883a6 6 0 0 1 -1.456 3.917zm6.456-1.688a2 2 0 1 1 -2 2 2 2 0 0 1 2-2zm5.76 7 12.66 14.69a2.005 2.005 0 0 1 -1.51 3.31h-33.82a2.005 2.005 0 0 1 -1.51-3.31l12.66-14.69z" fill="#9bc9ff"/><circle cx="27" cy="47" fill="#9bc9ff" r="2"/><path d="m38.748 53.989a3 3 0 1 0 -2.737-3.241 3 3 0 0 0 2.737 3.241z" fill="#9bc9ff"/><g fill="#1e81ce"><path d="m48.906 62h-33.812a7 7 0 0 1 -5.3-11.57l15-17.394a5 5 0 0 0 1.206-3.265v-20.883a.889.889 0 0 0 -.888-.888 3.077 3.077 0 0 1 -3.1-2.739 2.966 2.966 0 0 1 .881-2.387 2.926 2.926 0 0 1 2.107-.874h13.888a3.079 3.079 0 0 1 3.1 2.738 2.966 2.966 0 0 1 -.881 2.387 2.928 2.928 0 0 1 -2.107.875h-.112a.889.889 0 0 0 -.888.888v20.883a5 5 0 0 0 1.213 3.265l14.995 17.394a7 7 0 0 1 -5.302 11.57zm-23.906-58a.957.957 0 0 0 -.694.288.976.976 0 0 0 -.3.8 1.082 1.082 0 0 0 1.106.912 2.891 2.891 0 0 1 2.888 2.888v20.883a7 7 0 0 1 -1.7 4.57l-14.993 17.394a5 5 0 0 0 3.787 8.265h33.812a5 5 0 0 0 3.787-8.265l-14.993-17.394a7 7 0 0 1 -1.7-4.57v-20.883a2.891 2.891 0 0 1 2.888-2.888h.112a.957.957 0 0 0 .694-.288.977.977 0 0 0 .3-.8 1.082 1.082 0 0 0 -1.106-.912z"/><path d="m48.91 58h-33.82a3.006 3.006 0 0 1 -2.267-4.964l12.959-15.036h12.436l12.959 15.037a2.929 2.929 0 0 1 .452 3.208 2.923 2.923 0 0 1 -2.719 1.755zm-22.21-18-12.363 14.343a1.006 1.006 0 0 0 .753 1.657h33.82a.925.925 0 0 0 .9-.585.933.933 0 0 0 -.148-1.07l-12.362-14.345z"/><path d="m32 37a3 3 0 1 1 3-3 3 3 0 0 1 -3 3zm0-4a1 1 0 1 0 1 1 1 1 0 0 0 -1-1z"/><path d="m27 50a3 3 0 1 1 3-3 3 3 0 0 1 -3 3zm0-4a1 1 0 1 0 1 1 1 1 0 0 0 -1-1z"/><path d="m34 43h2v2h-2z"/><path d="m22 52h2v2h-2z"/><path d="m30 51h2v2h-2z"/><path d="m39 55c-.112 0-.225-.005-.339-.014a4 4 0 1 1 .339.014zm0-6a2 2 0 1 0 .169.007c-.058-.007-.114-.007-.169-.007z"/></g></svg>