<svg height="512" viewBox="0 0 64 64" width="512" xmlns="http://www.w3.org/2000/svg"><g id="Hearth_config" data-name="Hearth config"><g fill="#9bc9ff"><path d="m48 22h-3.35a12.513 12.513 0 0 0 -1.59-3.82l2.38-2.37a1.008 1.008 0 0 0 0-1.42l-2.83-2.83a1.008 1.008 0 0 0 -1.42 0l-2.37 2.38a12.513 12.513 0 0 0 -3.82-1.59v-3.35a1 1 0 0 0 -1-1h-4a1 1 0 0 0 -1 1v3.35a12.513 12.513 0 0 0 -3.82 1.59l-2.37-2.38a1.008 1.008 0 0 0 -1.42 0l-2.83 2.83a1.008 1.008 0 0 0 0 1.42l2.38 2.37a12.513 12.513 0 0 0 -1.59 3.82h-3.35a1 1 0 0 0 -1 1v4a1 1 0 0 0 1 1h3.35a12.513 12.513 0 0 0 1.59 3.82l-2.38 2.37a1.008 1.008 0 0 0 0 1.42l2.83 2.83a1.008 1.008 0 0 0 1.42 0l2.37-2.38a12.513 12.513 0 0 0 3.82 1.59v3.35a1 1 0 0 0 1 1h4a1 1 0 0 0 1-1v-3.35a12.513 12.513 0 0 0 3.82-1.59l2.37 2.38a1.008 1.008 0 0 0 1.42 0l2.83-2.83a1.008 1.008 0 0 0 0-1.42l-2.38-2.37a12.513 12.513 0 0 0 1.59-3.82h3.35a1 1 0 0 0 1-1v-4a1 1 0 0 0 -1-1zm-8 4a1 1 0 0 1 -1 1h-4a1 1 0 0 0 -1 1v4a1 1 0 0 1 -1 1h-2a1 1 0 0 1 -1-1v-4a1 1 0 0 0 -1-1h-4a1 1 0 0 1 -1-1v-2a1 1 0 0 1 1-1h4a1 1 0 0 0 1-1v-4a1 1 0 0 1 1-1h2a1 1 0 0 1 1 1v4a1 1 0 0 0 1 1h4a1 1 0 0 1 1 1z"/><path d="m26 49h12v2.985h-12z"/><path d="m26 51.985h12v3h-12z"/><path d="m26 56a2 2 0 0 0 2 2h8a2 2 0 0 0 2-2v-1.015h-12z"/><path d="m31 61h2a3 3 0 0 0 3-3h-8a3 3 0 0 0 3 3z"/></g><path d="m34 43h-4a2 2 0 0 1 -2-2v-2.581a13.379 13.379 0 0 1 -2.658-1.1l-1.823 1.831a2.056 2.056 0 0 1 -2.836 0l-2.83-2.83a2.008 2.008 0 0 1 0-2.834l1.834-1.825a13.445 13.445 0 0 1 -1.107-2.661h-2.58a2 2 0 0 1 -2-2v-4a2 2 0 0 1 2-2h2.58a13.445 13.445 0 0 1 1.106-2.658l-1.832-1.823a2.007 2.007 0 0 1 0-2.836l2.83-2.83a2.055 2.055 0 0 1 2.835 0l1.824 1.831a13.379 13.379 0 0 1 2.657-1.103v-2.581a2 2 0 0 1 2-2h4a2 2 0 0 1 2 2v2.581a13.379 13.379 0 0 1 2.658 1.1l1.823-1.831a2.057 2.057 0 0 1 2.836 0l2.83 2.83a2.006 2.006 0 0 1 0 2.834l-1.834 1.825a13.445 13.445 0 0 1 1.107 2.661h2.58a2 2 0 0 1 2 2v4a2 2 0 0 1 -2 2h-2.58a13.445 13.445 0 0 1 -1.106 2.658l1.832 1.823a2.008 2.008 0 0 1 0 2.835l-2.831 2.831a2.055 2.055 0 0 1 -2.835 0l-1.824-1.831a13.379 13.379 0 0 1 -2.656 1.103v2.581a2 2 0 0 1 -2 2zm-8.965-8.212.677.426a11.477 11.477 0 0 0 3.516 1.462l.772.18v4.144h4v-4.144l.772-.18a11.477 11.477 0 0 0 3.516-1.462l.677-.426 2.935 2.946 2.833-2.834-2.946-2.939.427-.677a11.477 11.477 0 0 0 1.463-3.515l.18-.772h4.143v-3.997h-4.143l-.18-.772a11.477 11.477 0 0 0 -1.463-3.515l-.427-.677 2.948-2.936-2.835-2.833-2.938 2.945-.677-.426a11.477 11.477 0 0 0 -3.516-1.462l-.769-.18v-4.144h-4v4.144l-.772.18a11.477 11.477 0 0 0 -3.516 1.462l-.677.426-2.935-2.946-2.833 2.834 2.946 2.939-.427.677a11.477 11.477 0 0 0 -1.463 3.515l-.18.772h-4.143v4h4.143l.18.772a11.477 11.477 0 0 0 1.463 3.515l.427.677-2.948 2.933 2.835 2.833z" fill="#1e81ce"/><path d="m47.339 7.861a23 23 0 0 0 -38.219 14.761 23.066 23.066 0 0 0 13.334 23.309.968.968 0 0 1 .546.889v.18a3 3 0 0 0 2 2.816v6.184a2.994 2.994 0 0 0 2.094 2.845 4 4 0 0 0 3.906 3.155h2a4 4 0 0 0 3.906-3.155 2.994 2.994 0 0 0 2.094-2.845v-6.184a3 3 0 0 0 2-2.816v-.181a.975.975 0 0 1 .552-.891 23.006 23.006 0 0 0 5.787-38.067zm-10.339 43.124h-10v-.985h10zm-10 2h10v1h-10zm6 7.015h-2a2 2 0 0 1 -1.731-1h5.462a2 2 0 0 1 -1.731 1zm3-3h-8a1 1 0 0 1 -1-1v-.015h10v.015a1 1 0 0 1 -1 1zm4.72-12.89a2.975 2.975 0 0 0 -1.72 2.709v.181a1 1 0 0 1 -1 1h-12a1 1 0 0 1 -1-1v-.18a2.974 2.974 0 0 0 -1.715-2.709 21 21 0 0 1 6.315-39.978 21.849 21.849 0 0 1 2.43-.133 20.753 20.753 0 0 1 13.975 5.352 21.006 21.006 0 0 1 -5.285 34.758z" fill="#1e81ce"/><path d="m39 22h-4v-4a2 2 0 0 0 -2-2h-2a2 2 0 0 0 -2 2v4h-4a2 2 0 0 0 -2 2v2a2 2 0 0 0 2 2h4v4a2 2 0 0 0 2 2h2a2 2 0 0 0 2-2v-4h4a2 2 0 0 0 2-2v-2a2 2 0 0 0 -2-2zm0 4h-4a2 2 0 0 0 -2 2v4h-2v-4a2 2 0 0 0 -2-2h-4v-2h4a2 2 0 0 0 2-2v-4h2v4a2 2 0 0 0 2 2h4z" fill="#1e81ce"/></g></svg>