<?xml version="1.0"?>
<svg xmlns="http://www.w3.org/2000/svg" viewBox="0 0 64 64" width="512" height="512"><g id="Hearthcare"><path d="M19.27,22.27,32,35,44.73,22.27l3.53-3.53A9,9,0,1,0,35.54,6.01L32,9.55,28.46,6.01A9,9,0,0,0,15.74,18.74ZM26,17h4V13h4v4h4v4H34v4H30V21H26Z" style="fill:#9bc9ff"/><path d="M34,48V46h1a2.012,2.012,0,0,0,1.992-2.177A2.075,2.075,0,0,0,34.888,42H29a2.012,2.012,0,0,0-1.992,2.177A2.075,2.075,0,0,0,29.112,46H30v2a1,1,0,0,0,1,1h2A1,1,0,0,0,34,48Z" style="fill:#9bc9ff"/><path d="M56,37a5,5,0,1,0,5,5A5,5,0,0,0,56,37Zm0,7a2,2,0,1,1,2-2A2,2,0,0,1,56,44Z" style="fill:#9bc9ff"/><path d="M56,36a5.992,5.992,0,0,0-4,10.46V48a3,3,0,0,0,3,3v6a3,3,0,0,1-3,3H7a3,3,0,0,1,0-6H30a3,3,0,0,0,3-3V50a2,2,0,0,0,2-2V47a2.924,2.924,0,0,0,2.107-.874,2.96,2.96,0,0,0,.881-2.388,3.022,3.022,0,0,0-2.221-2.6L53.231,23.662l5.538-5.947A4.57,4.57,0,0,0,56,10.06V10a3,3,0,0,0-3-3H50.327A9.982,9.982,0,0,0,34.833,5.3L32,8.136,29.167,5.3a9.98,9.98,0,0,0-14.133,0A10.047,10.047,0,0,0,13.673,7H11a3,3,0,0,0-3,3v.06a4.57,4.57,0,0,0-2.772,7.651l5.564,5.976,17.421,17.43a2.866,2.866,0,0,0-1.321.757,2.966,2.966,0,0,0-.881,2.387A3.072,3.072,0,0,0,29,47v1a2,2,0,0,0,2,2v1a1,1,0,0,1-1,1H7A5,5,0,0,0,7,62H52a5.006,5.006,0,0,0,5-5V51a3,3,0,0,0,3-3V46.46A5.992,5.992,0,0,0,56,36ZM53,9a1,1,0,0,1,1,1v2a1,1,0,0,1-1,1H51.87c.013-.212.031-.422.03-.636A9.952,9.952,0,0,0,51.307,9ZM16.447,6.717a7.981,7.981,0,0,1,11.306,0L32,10.964l4.247-4.247A8,8,0,1,1,47.553,18.033L32,33.586,16.447,18.033a7.993,7.993,0,0,1,0-11.316ZM10,10a1,1,0,0,1,1-1h1.693a9.976,9.976,0,0,0-.593,3.364c0,.214.018.424.031.636H11a1,1,0,0,1-1-1Zm2.232,12.3L6.688,16.345A2.554,2.554,0,0,1,6,14.59a2.59,2.59,0,0,1,2.007-2.518A3,3,0,0,0,11,15h1.458a9.949,9.949,0,0,0,2.575,4.447L32,36.414,48.967,19.447A9.949,9.949,0,0,0,51.542,15H53a3,3,0,0,0,2.993-2.928A2.591,2.591,0,0,1,58,14.59a2.551,2.551,0,0,1-.691,1.758l-5.516,5.925L33.076,41H30.924ZM29.112,45A1.082,1.082,0,0,1,28,44.093a.976.976,0,0,1,.3-.805A.957.957,0,0,1,29,43h5.888A1.083,1.083,0,0,1,36,43.907h0a.978.978,0,0,1-.3.8A.957.957,0,0,1,35,45H33v3H31V45ZM58,48a1,1,0,0,1-1,1H55a1,1,0,0,1-1-1v-.35a5.889,5.889,0,0,0,4,0Zm-2-2a4,4,0,1,1,4-4A4,4,0,0,1,56,46Z" style="fill:#1e81ce"/><path d="M56,39a3,3,0,1,0,3,3A3,3,0,0,0,56,39Zm0,4a1,1,0,1,1,1-1A1,1,0,0,1,56,43Z" style="fill:#1e81ce"/><path d="M35,12H29v4H25v6h4v4h6V22h4V16H35Zm2,6v2H33v4H31V20H27V18h4V14h2v4Z" style="fill:#1e81ce"/></g></svg>
