<svg height="512" viewBox="0 0 64 64" width="512" xmlns="http://www.w3.org/2000/svg"><path d="m32 61a29 29 0 1 0 -29-29 29 29 0 0 0 29 29zm-18-33a2.006 2.006 0 0 1 2-2h8a2 2 0 0 0 2-2v-8a2.006 2.006 0 0 1 2-2h8a2.006 2.006 0 0 1 2 2v8a2 2 0 0 0 2 2h8a2.006 2.006 0 0 1 2 2v8a2.006 2.006 0 0 1 -2 2h-8a2 2 0 0 0 -2 2v8a2.006 2.006 0 0 1 -2 2h-8a2.006 2.006 0 0 1 -2-2v-8a2 2 0 0 0 -2-2h-8a2.006 2.006 0 0 1 -2-2z" fill="#9bc9ff"/><g fill="#1e81ce"><path d="m32 62a30 30 0 1 1 30-30 30.034 30.034 0 0 1 -30 30zm0-58a28 28 0 1 0 28 28 28.032 28.032 0 0 0 -28-28z"/><path d="m48 25h-8a1 1 0 0 1 -1-1v-8a3 3 0 0 0 -3-3h-8a3 3 0 0 0 -3 3v8a1 1 0 0 1 -1 1h-8a3 3 0 0 0 -3 3v8a3 3 0 0 0 3 3h8a1 1 0 0 1 1 1v8a3 3 0 0 0 3 3h8a3 3 0 0 0 3-3v-8a1 1 0 0 1 1-1h8a3 3 0 0 0 3-3v-8a3 3 0 0 0 -3-3zm1 11a1 1 0 0 1 -1 1h-8a3 3 0 0 0 -3 3v8a1 1 0 0 1 -1 1h-8a1 1 0 0 1 -1-1v-8a3 3 0 0 0 -3-3h-8a1 1 0 0 1 -1-1v-8a1 1 0 0 1 1-1h8a3 3 0 0 0 3-3v-8a1 1 0 0 1 1-1h8a1 1 0 0 1 1 1v8a3 3 0 0 0 3 3h8a1 1 0 0 1 1 1z"/></g></svg>