<svg height="512" viewBox="0 0 64 64" width="512" xmlns="http://www.w3.org/2000/svg"><path d="m51 47a5 5 0 0 0 10 0c0-2.761-5-9-5-9s-5 6.239-5 9z" fill="#9bc9ff"/><g fill="#1e81ce"><path d="m57 19h-18.025a4.975 4.975 0 0 0 -3.975-8h-14a19.021 19.021 0 0 0 -19 19v4a19.021 19.021 0 0 0 19 19h19a4.995 4.995 0 0 0 5-5 4.958 4.958 0 0 0 -1.289-3.319 5.062 5.062 0 0 0 1.831-1.149 4.964 4.964 0 0 0 .169-6.851 5.062 5.062 0 0 0 1.831-1.149 5.006 5.006 0 0 0 1.458-3.532 4.948 4.948 0 0 0 -1.026-3h9.026a5 5 0 0 0 0-10zm2.128 7.118a3.018 3.018 0 0 1 -2.128.882h-24a1 1 0 0 0 -1 1 1 1 0 0 0 1 1h10.867a3.1 3.1 0 0 1 3.022 2.182 3 3 0 0 1 -2.889 3.818h-11a1 1 0 0 0 -1 1 1 1 0 0 0 1 1h8.867a3.1 3.1 0 0 1 3.022 2.182 3 3 0 0 1 -2.889 3.818h-9a1 1 0 0 0 -1 1 1 1 0 0 0 1 1h6.867a3.1 3.1 0 0 1 3.022 2.182 3 3 0 0 1 -2.889 3.818h-19a17 17 0 0 1 -17-17v-4a17 17 0 0 1 17-17h13.867a3.1 3.1 0 0 1 3.022 2.182 3 3 0 0 1 -2.889 3.818h-13a1 1 0 0 0 -1 1 1 1 0 0 0 1 1h34.867a3.1 3.1 0 0 1 3.022 2.182 3.016 3.016 0 0 1 -.761 2.936z"/><path d="m55 22h2v4h-2z"/><path d="m56 53a6.006 6.006 0 0 1 -6-6c0-3.025 4.686-8.959 5.22-9.625l.78-.975.78.974c.534.666 5.22 6.6 5.22 9.625a6.006 6.006 0 0 1 -6 6.001zm0-13.365c-1.792 2.393-4 5.844-4 7.365a4 4 0 0 0 8 0c0-1.521-2.208-4.972-4-7.365z"/></g></svg>