<?xml version="1.0"?>
<svg xmlns="http://www.w3.org/2000/svg" viewBox="0 0 64 64" width="512" height="512"><g id="Insurance"><path d="M56,31.7V11h-.495A38,38,0,0,1,34.427,4.618L32,3,29.61,4.6A37.993,37.993,0,0,1,8.649,11L8,11V31.7A28,28,0,0,0,23.478,56.739L32,61l8.522-4.261A28,28,0,0,0,56,31.7ZM37.839,51.372,32,54.292l-5.839-2.92A21.879,21.879,0,0,1,14,31.7V16.655A43.811,43.811,0,0,0,32,10.2a43.818,43.818,0,0,0,18,6.46V31.7A21.879,21.879,0,0,1,37.839,51.372Z" style="fill:#9bc9ff"/><path d="M42,28H37a1,1,0,0,1-1-1V22a1,1,0,0,0-1-1H29a1,1,0,0,0-1,1v5a1,1,0,0,1-1,1H22a1,1,0,0,0-1,1v6a1,1,0,0,0,1,1h5a1,1,0,0,1,1,1v5a1,1,0,0,0,1,1h6a1,1,0,0,0,1-1V37a1,1,0,0,1,1-1h5a1,1,0,0,0,1-1V29A1,1,0,0,0,42,28Z" style="fill:#9bc9ff"/><path d="M32,62.118l-8.97-4.485A28.843,28.843,0,0,1,7,31.7V10L8.645,10A36.9,36.9,0,0,0,29.054,3.765L32,1.8l2.982,1.988A36.889,36.889,0,0,0,55.506,10H57V31.7A28.843,28.843,0,0,1,40.97,57.633ZM9,12V31.7A26.852,26.852,0,0,0,23.925,55.844L32,59.882l8.075-4.038A26.852,26.852,0,0,0,55,31.7V12A38.879,38.879,0,0,1,33.872,5.45L32,4.2,30.165,5.428A38.879,38.879,0,0,1,9,12Z" style="fill:#1e81ce"/><path d="M50.124,15.665A42.6,42.6,0,0,1,32.536,9.352L32,9.014l-.534.338a42.6,42.6,0,0,1-17.592,6.311L13,15.772V31.7A22.876,22.876,0,0,0,25.714,52.267L32,55.41l6.286-3.143A22.876,22.876,0,0,0,51,31.7V15.775ZM49,31.7A20.887,20.887,0,0,1,37.392,50.478L32,53.174l-5.392-2.7A20.887,20.887,0,0,1,15,31.7V17.529a44.5,44.5,0,0,0,17-6.154,44.531,44.531,0,0,0,17,6.156Z" style="fill:#1e81ce"/><path d="M42,27H37V22a2,2,0,0,0-2-2H29a2,2,0,0,0-2,2v5H22a2,2,0,0,0-2,2v6a2,2,0,0,0,2,2h5v5a2,2,0,0,0,2,2h6a2,2,0,0,0,2-2V37h5a2,2,0,0,0,2-2V29A2,2,0,0,0,42,27Zm0,8H37a2,2,0,0,0-2,2v5H29V37a2,2,0,0,0-2-2H22V29h5a2,2,0,0,0,2-2V22h6v5a2,2,0,0,0,2,2h5Z" style="fill:#1e81ce"/></g></svg>
