<svg height="512" viewBox="0 0 64 64" width="512" xmlns="http://www.w3.org/2000/svg"><path d="m32.744 60.177c3.841-4.295 21.256-24.367 21.256-35.177a22 22 0 0 0 -44 0c0 10.81 17.415 30.882 21.256 35.177a1 1 0 0 0 1.488 0zm-16.744-35.177a16 16 0 1 1 16 16 16 16 0 0 1 -16-16z" fill="#9bc9ff"/><path d="m36 35v-5a1 1 0 0 1 1-1h5a1 1 0 0 0 1-1v-6a1 1 0 0 0 -1-1h-5a1 1 0 0 1 -1-1v-5a1 1 0 0 0 -1-1h-6a1 1 0 0 0 -1 1v5a1 1 0 0 1 -1 1h-5a1 1 0 0 0 -1 1v6a1 1 0 0 0 1 1h5a1 1 0 0 1 1 1v5a1 1 0 0 0 1 1h6a1 1 0 0 0 1-1z" fill="#9bc9ff"/><g fill="#1e81ce"><path d="m32 61.511a2 2 0 0 1 -1.489-.667c-5.046-5.644-21.511-24.904-21.511-35.844a23 23 0 0 1 46 0c0 10.94-16.465 30.2-21.511 35.844a2 2 0 0 1 -1.489.667zm0-57.511a21.023 21.023 0 0 0 -21 21c0 10.495 17.5 30.589 21 34.511 3.505-3.922 21-24.016 21-34.511a21.023 21.023 0 0 0 -21-21z"/><path d="m32 42a17 17 0 1 1 17-17 17.019 17.019 0 0 1 -17 17zm0-32a15 15 0 1 0 15 15 15.017 15.017 0 0 0 -15-15z"/><path d="m42 20h-5v-5a2 2 0 0 0 -2-2h-6a2 2 0 0 0 -2 2v5h-5a2 2 0 0 0 -2 2v6a2 2 0 0 0 2 2h5v5a2 2 0 0 0 2 2h6a2 2 0 0 0 2-2v-5h5a2 2 0 0 0 2-2v-6a2 2 0 0 0 -2-2zm0 8h-5a2 2 0 0 0 -2 2v5h-6v-5a2 2 0 0 0 -2-2h-5v-6h5a2 2 0 0 0 2-2v-5h6v5a2 2 0 0 0 2 2h5z"/></g></svg>