<svg height="512" viewBox="0 0 64 64" width="512" xmlns="http://www.w3.org/2000/svg"><g fill="#9bc9ff"><path d="m32.172 8.97-1.732-1-.002.004 1.732 1z"/><path d="m42.559 14.972.001-.002-1.729-.998-.001.002z"/><path d="m29.827 31.028h.004v4h-.004z" transform="matrix(.498 -.867 .867 .498 -13.663 42.464)"/><path d="m22.901 29.029.001-.003-3.461-1.998-.001.002z"/><path d="m12 61h40v-2a2 2 0 0 0 -2-2h-36a2 2 0 0 0 -2 2z"/><path d="m37 45h-10l-3 12h16zm-5 8a2 2 0 1 1 2-2 2 2 0 0 1 -2 2z"/><path d="m40.83 13.974.001-.002-8.659-5.002-.002.004z"/><path d="m25.498 27.528h.003v6h-.003z" transform="matrix(.5 -.866 .866 .5 -13.686 37.359)"/><path d="m36.275 25.86-1.754 3.04z"/><path d="m34.521 28.9 1.754-3.04a2 2 0 1 1 1.97-3.414l4.315-7.476-12.12-7-11 19.06 12.12 7z"/><rect height="0" width="0" x="34.521" y="28.9"/><path d="m40.5 18.55h-.005l-2.25 3.9a1.992 1.992 0 0 1 -1.245 3.55 2.011 2.011 0 0 1 -.725-.14l-1.754 3.04c3.929 1.64 6.479 4.66 6.479 10.1a13.709 13.709 0 0 1 -3.18 9.28l1.418 5.671a19 19 0 0 0 1.26-35.4z"/><path d="m34.52 28.9h.001z"/></g><path d="m53 60v-1a3 3 0 0 0 -3-3h-9.219l-.36-1.44a19.977 19.977 0 0 0 1.479-36.452l1.022-1.771 1.736 1 1-1.733-3.463-2 2-3.462 1.732 1 1-1.733-13.856-8-1 1.733 1.732 1-2 3.461-3.466-2-1 1.733 1.732 1-10 17.322-1.735-1-1 1.733 5.2 3-3 5.2 6.928 4 3-5.194 5.2 3 1-1.733-1.733-1 1.991-3.453c3.443 1.712 5.08 4.519 5.08 8.789a13.479 13.479 0 0 1 -1.734 6.941l-.485-1.941h-11.562l-.5 2h-13.719v2h13.219l-2 8h-9.219a3 3 0 0 0 -3 3v1h-3v2h48v-2zm-17.464-54.856 6.928 4-2 3.462-6.927-4zm-10.8 30.712-3.462-2 2-3.461 3.463 2zm-3.923-9.194 9.987-17.322 10.39 6-3.346 5.8a2.986 2.986 0 0 0 -2.91 5.031l-3.734 6.489zm16.187-1.662a1 1 0 1 1 1-1 1 1 0 0 1 -1 1zm5 14c0-4.942-2.063-8.464-6.085-10.524l.864-1.5c.074 0 .145.022.221.022a3 3 0 0 0 2.478-4.688l1.422-2.465a17.981 17.981 0 0 1 -.967 32.76l-1.024-4.094a14.81 14.81 0 0 0 3.091-9.511zm-14.219 7h8.438l2.5 10h-13.438zm23.219 14h-38v-1a1 1 0 0 1 1-1h36a1 1 0 0 1 1 1z" fill="#1e81ce"/><path d="m32 48a3 3 0 1 0 3 3 3 3 0 0 0 -3-3zm0 4a1 1 0 1 1 1-1 1 1 0 0 1 -1 1z" fill="#1e81ce"/></svg>