<svg height="512" viewBox="0 0 64 64" width="512" xmlns="http://www.w3.org/2000/svg"><g id="Phamacy-2" data-name="Phamacy"><path d="m43.771 21.493a4.1 4.1 0 0 1 -2.771-3.806v-4.687h-18v4.687a4.1 4.1 0 0 1 -2.771 3.806 8 8 0 0 0 -5.229 7.507v32h34v-32a8 8 0 0 0 -5.229-7.507zm1.229 32.507h-26v-22h26z" fill="#9bc9ff"/><path d="m19 54h26v-22h-26zm5-12a1 1 0 0 1 1-1h4a1 1 0 0 0 1-1v-4a1 1 0 0 1 1-1h2a1 1 0 0 1 1 1v4a1 1 0 0 0 1 1h4a1 1 0 0 1 1 1v2a1 1 0 0 1 -1 1h-4a1 1 0 0 0 -1 1v4a1 1 0 0 1 -1 1h-2a1 1 0 0 1 -1-1v-4a1 1 0 0 0 -1-1h-4a1 1 0 0 1 -1-1z" fill="#9bc9ff"/><g fill="#1e81ce"><path d="m44.118 20.555a3.1 3.1 0 0 1 -2.118-2.868v-3.687h3v-9a3 3 0 0 0 -3-3h-20a3 3 0 0 0 -3 3v9h3v3.687a3.1 3.1 0 0 1 -2.118 2.868 9.034 9.034 0 0 0 -5.882 8.445v33h36v-33a9.034 9.034 0 0 0 -5.882-8.445zm-17.118-10.555v2h-2v-2zm2 0h2v2h-2zm4 0h2v2h-2zm4 0h2v2h-2zm6 2h-2v-2h2zm-22-7a1 1 0 0 1 1-1h20a1 1 0 0 1 1 1v3h-22zm0 7v-2h2v2zm27 48h-32v-31a7.025 7.025 0 0 1 4.575-6.569 5.074 5.074 0 0 0 3.425-4.744v-3.687h16v3.687a5.076 5.076 0 0 0 3.426 4.744 7.028 7.028 0 0 1 4.574 6.569z"/><path d="m42.731 24.307-.691 1.876a3.014 3.014 0 0 1 1.96 2.817h2a5.019 5.019 0 0 0 -3.269-4.693z"/><path d="m18 55h28v-24h-28zm2-22h24v20h-24z"/><path d="m39 40h-4v-4a2 2 0 0 0 -2-2h-2a2 2 0 0 0 -2 2v4h-4a2 2 0 0 0 -2 2v2a2 2 0 0 0 2 2h4v4a2 2 0 0 0 2 2h2a2 2 0 0 0 2-2v-4h4a2 2 0 0 0 2-2v-2a2 2 0 0 0 -2-2zm0 4h-4a2 2 0 0 0 -2 2v4h-2v-4a2 2 0 0 0 -2-2h-4v-2h4a2 2 0 0 0 2-2v-4h2v4a2 2 0 0 0 2 2h4z"/><path d="m18 56h8v2h-8z"/><path d="m28 56h2v2h-2z"/></g></g></svg>