<svg height="512" viewBox="0 0 64 64" width="512" xmlns="http://www.w3.org/2000/svg"><path d="m47.66 27.114a8.715 8.715 0 0 1 -.695-2.858c-.631-11.371-9.665-20.833-21.165-21.242a22 22 0 0 0 -16.02 37.88 3.968 3.968 0 0 1 1.22 2.863v17.243h22v-6a1 1 0 0 1 1-1h2.193a4 4 0 0 0 3.328-1.781l2.443-3.664a1 1 0 0 0 -.833-1.555h-3.65a1 1 0 0 1 -.781-.375l-2.4-3a1 1 0 0 1 .781-1.625h8.919v-3a1 1 0 0 1 1-1h4.193a2 2 0 0 0 1.89-2.653z" fill="#9bc9ff"/><g fill="#1e81ce"><path d="m52.006 34.963-3.423-8.233a7.8 7.8 0 0 1 -.62-2.529c-.663-12.023-10.385-21.768-22.125-22.186a23 23 0 0 0 -16.747 39.6 2.989 2.989 0 0 1 .909 2.142v18.243h24v-7h2.192a4.99 4.99 0 0 0 4.161-2.227l2.447-3.664a2 2 0 0 0 -1.668-3.109h-3.651l-2.4-3h9.919v-4h4.193a3 3 0 0 0 2.813-4.037zm-2 1.618a.992.992 0 0 1 -.815.419h-4.191a2 2 0 0 0 -2 2v2h-7.919a2 2 0 0 0 -1.562 3.25l2.4 3a1.988 1.988 0 0 0 1.561.75h3.652l-2.444 3.665a3 3 0 0 1 -2.496 1.335h-2.192a2 2 0 0 0 -2 2v5h-20v-16.244a5 5 0 0 0 -1.524-3.584 21.006 21.006 0 0 1 -.057-30.285 20.782 20.782 0 0 1 15.349-5.873c10.715.381 19.588 9.3 20.2 20.3a9.745 9.745 0 0 0 .769 3.186l3.4 8.175a.994.994 0 0 1 -.129.906z"/><path d="m49 42h2v2h-2z"/><path d="m49 46h2v2h-2z"/><path d="m53 44h2v2h-2z"/><path d="m46 44h2v2h-2z"/><path d="m57 44h5v2h-5z"/><path d="m52.062 40.5h1.999v1.999h-1.999z" transform="matrix(.866 -.5 .5 .866 -13.642 32.101)"/><path d="m55.325 37.75h5v2h-5z" transform="matrix(.866 -.5 .5 .866 -11.627 34.098)"/><path d="m52.062 47.5h1.999v1.999h-1.999z" transform="matrix(.5 -.866 .866 .5 -15.475 70.193)"/><path d="m56.825 48.75h2v5h-2z" transform="matrix(.5 -.866 .866 .5 -15.471 75.703)"/></g></svg>