<svg height="512" viewBox="0 0 64 64" width="512" xmlns="http://www.w3.org/2000/svg"><g fill="#9bc9ff"><path d="m52.749 11.251 5.657 5.657z"/><path d="m47.092 5.594-2.829 2.829 3.536 3.535 4.243 4.243 3.535 3.536 2.829-2.829-5.657-5.657z"/><path d="m43.092 13.908h8v6h-8z" transform="matrix(.707 -.707 .707 .707 1.837 38.251)"/><path d="m32.95 35.293-4.243-4.243-4.243-4.242-12.727 12.728a6 6 0 0 0 0 8.485l.707.707 2.828 2.828.707.707a6 6 0 0 0 8.485 0l4.243-4.242 4.243-4.243 4.242-4.242z"/><path d="m28.046 23.454h19v6h-19z" transform="matrix(.707 -.707 .707 .707 -7.709 34.297)"/><path d="m10.322 50.849a2 2 0 0 0 2.829 2.829l2.121-2.122-2.828-2.828z"/></g><path d="m61.941 19.029-16.97-16.97a1 1 0 1 0 -1.414 1.414l2.121 2.121-2.828 2.829 3.535 3.535-4.243 4.242-4.242-4.242-26.871 26.871a7.01 7.01 0 0 0 0 9.9l-1.414 1.413a3 3 0 0 0 -.577 3.4l-5.787 5.792a1 1 0 1 0 1.414 1.415l5.786-5.786a2.965 2.965 0 0 0 3.406-.578l1.415-1.415a7.008 7.008 0 0 0 9.9 0l26.869-26.87-4.241-4.242 4.243-4.243 3.535 3.535 2.829-2.828 2.121 2.121a1 1 0 0 0 1.414-1.414zm-21.213-1.414-12.021 12.021-2.828-2.829 12.021-12.02zm-9.192 14.85-1.415-1.415 12.021-12.021 2.829 2.829-12.021 12.021zm-19.093 20.506a1.023 1.023 0 0 1 -1.414 0 1 1 0 0 1 0-1.414l1.414-1.414 1.415 1.414zm4.244-1.414-4.244-4.242a5.006 5.006 0 0 1 0-7.071l12.022-12.023 2.828 2.829 8.485 8.486-2.828 2.828-2.122-2.121-1.414 1.414 2.122 2.121-2.829 2.829-2.121-2.122-1.414 1.415 2.121 2.122-2.828 2.828-2.122-2.122-1.414 1.414 2.05 2.05a5.01 5.01 0 0 1 -6.292-.635zm32.526-25.457-3.535 3.535-2.121-2.121-1.414 1.414 2.121 2.121-2.829 2.829-2.122-2.122-1.413 1.415 2.122 2.122-2.829 2.829-2.828-2.829 12.02-12.021zm-2.828-5.657-2.829-2.829 4.244-4.241 2.828 2.827zm9.192-2.122-9.9-9.9 1.414-1.415 9.9 9.9z" fill="#1e81ce"/></svg>