<svg height="512" viewBox="0 0 64 64" width="512" xmlns="http://www.w3.org/2000/svg"><g fill="#9bc9ff"><path d="m39 35-15 26h15.061l5.939-26z"/><path d="m33 23-30 6v11l30-11z"/><path d="m37 35a4 4 0 0 1 -4-4v-2l-30 11v9a11.953 11.953 0 0 0 2.722 7.609l28.358-22.879-28.358 22.879a11.976 11.976 0 0 0 9.278 4.391h9l15-26z"/><path d="m3 3h30v6h-30z"/><path d="m33 16.977-29.653 1.977 29.653-1.977v-7.977h-30v20l30-6z"/><path d="m47.608 35h-2.608l-5.939 26h8.939a12.961 12.961 0 0 0 3-.363v-25.178a13.209 13.209 0 0 0 -3.392-.459z"/><path d="m51 35.459v25.178a12.981 12.981 0 0 0 10-12.629 13.262 13.262 0 0 0 -10-12.549z"/></g><path d="m57.683 38.1a14.7 14.7 0 0 0 -10.075-4.1h-10.608a3 3 0 0 1 -3-3v-29h-32v47a13.015 13.015 0 0 0 13 13h33a14.009 14.009 0 0 0 14-13.992 13.668 13.668 0 0 0 -4.317-9.908zm-53.683-18.188 28-1.867v4.135l-28 5.6zm28-15.912v4h-22v2h22v6.041l-28 1.867v-7.908h4v-2h-4v-4zm-28 36.7 6.345-2.327-.69-1.878-5.655 2.073v-8.748l28-5.6v4.08l-20.38 7.474.69 1.878 19.69-7.22v.568a4.946 4.946 0 0 0 .719 2.543l-26.819 21.633a10.937 10.937 0 0 1 -1.9-6.176zm3.176 16.02 26.888-21.692a4.959 4.959 0 0 0 2.936.972h.269l-13.846 24h-8.423a10.966 10.966 0 0 1 -7.824-3.28zm33.139 3.28 1.54-6.742-1.949-.446-1.642 7.188h-12.533l13.846-24h4.169l-3.374 14.772 1.949.446 3.479-15.218h1.811a12.1 12.1 0 0 1 2.389.242v23.58a12.072 12.072 0 0 1 -2 .178zm16.168-3.517a11.954 11.954 0 0 1 -4.483 2.817v-22.468a12.8 12.8 0 0 1 4.3 2.71 11.68 11.68 0 0 1 3.7 8.465 11.923 11.923 0 0 1 -3.517 8.476z" fill="#1e81ce"/></svg>