<svg height="480pt" viewBox="-56 0 480 480" width="480pt" xmlns="http://www.w3.org/2000/svg"><path d="m8 8v80h352v-80zm0 0" fill="#9bc9ff"/><path d="m312 472v-48h-256v48zm0 0" fill="#9bc9ff"/><g fill="#1e81ce"><path d="m192 48h112v16h-112zm0 0"/><path d="m320 48h16v16h-16zm0 0"/><path d="m368 96v-96h-368v96l48 328.558594v55.441406h272v-55.441406zm-352-80h336v64h-336zm330.207031 112h-37.039062l2.28125-32h39.328125zm-170.207031 112v32h-39.199219l-1.527343-32zm-41.511719-16-1.527343-32h43.039062v32zm41.511719 64v32h-36.945312l-1.519532-32zm16 0h38.464844l-1.519532 32h-36.945312zm0-16v-32h40.753906l-1.554687 32zm0-48v-32h43.039062l-1.527343 32zm0-48v-32h45.320312l-1.519531 32zm-16 0h-43.800781l-1.519531-32h45.320312zm-59.816406 0h-37.878906l-2.304688-32h38.632812zm.761718 16 1.519532 32h-36.730469l-2.285156-32zm2.277344 48 1.53125 32h-35.585937l-2.289063-32zm2.289063 48 1.527343 32h-34.445312l-2.289062-32zm2.289062 48 1.519531 32h-33.320312l-2.289062-32zm16 0h36.199219v32h-34.65625zm52.199219 0h36.183594l-1.527344 32h-34.65625zm52.199219 0h34.066406l-2.265625 32h-33.320312zm.761719-16 1.527343-32h35.199219l-2.289062 32zm2.285156-48 1.53125-32h36.34375l-2.289063 32zm2.289062-48 1.519532-32h37.496093l-2.285156 32zm2.28125-48 1.527344-32h38.65625l-2.28125 32zm2.289063-48 1.527343-32h39.773438l-2.285156 32zm-16 0h-46.105469v-32h47.609375zm-62.105469 0h-46.089844l-1.519531-32h47.609375zm-63.632812-32 1.527343 32h-39.015625l-2.285156-32zm-55.816407 0 2.28125 32h-37.039062l-4.570313-32zm3.425781 48 2.289063 32h-33.601563l-4.566406-32zm3.429688 48 2.289062 32h-30.183593l-4.574219-32zm3.425781 48 2.289063 32h-26.722656l-4.574219-32zm3.433594 48 2.285156 32h-23.328125l-4.574218-32zm3.429687 48 2.28125 32h-19.898437l-4.566406-32zm-15.296874 48h18.722656l2.285156 32h-16.46875zm37.082031 32-2.28125-32h32.921875l1.519531 32zm48.183593 0-1.527343-32h33.863281v32zm48.335938-32h33.894531l-1.527343 32h-32.367188zm49.910156 0h32.921875l-2.28125 32h-32.160156zm48.96875 0h18.722656l-4.570312 32h-16.4375zm21.042969-16h-19.921875l2.28125-32h22.183594zm-16.472656-48 2.285156-32h25.601563l-4.574219 32zm3.429687-48 2.289063-32h29.039062l-4.605469 32zm3.425782-48 2.289062-32h32.46875l-4.574219 32zm3.429687-48 2.289063-32h35.898437l-4.570313 32zm-1.734375 288h-240v-32h240zm0 0"/></g></svg>