<svg height="480pt" viewBox="-72 0 480 480" width="480pt" xmlns="http://www.w3.org/2000/svg"><path d="m32 416v-96h272v96zm0 0" fill="#9bc9ff"/><path d="m32 32h272v96h-272zm0 0" fill="#9bc9ff"/><path d="m32 176h272v96h-272zm0 0" fill="#9bc9ff"/><path d="m32 320h272v96h-272zm0 0" fill="#9bc9ff"/><g fill="#1e81ce"><path d="m0 0v448h32v32h48v-32h176v32h48v-32h32v-448zm64 464h-16v-16h16zm224 0h-16v-16h16zm32-32h-304v-128h304zm0-144h-304v-128h304zm-304-144v-128h304v128zm0 0"/><path d="m24 136h288v-112h-288zm16-96h256v80h-256zm0 0"/><path d="m312 168h-288v112h288zm-16 96h-256v-80h256zm0 0"/><path d="m312 312h-288v112h288zm-16 96h-256v-80h256zm0 0"/><path d="m152 48h48v16h-48zm0 0"/><path d="m152 192h48v16h-48zm0 0"/><path d="m152 336h48v16h-48zm0 0"/></g></svg>