<svg height="480pt" viewBox="-40 0 480 480" width="480pt" xmlns="http://www.w3.org/2000/svg"><path d="m8 8h192v96h-192zm0 0" fill="#9bc9ff"/><path d="m200 8h192v96h-192zm0 0" fill="#9bc9ff"/><path d="m8 104h192v96h-192zm0 0" fill="#9bc9ff"/><path d="m200 104h192v96h-192zm0 0" fill="#9bc9ff"/><path d="m8 200h192v96h-192zm0 0" fill="#9bc9ff"/><path d="m200 200h192v96h-192zm0 0" fill="#9bc9ff"/><path d="m8 296h192v96h-192zm0 0" fill="#9bc9ff"/><path d="m200 296h192v96h-192zm0 0" fill="#9bc9ff"/><g fill="#1e81ce"><path d="m0 0v480h400v-480zm16 16h176v80h-176zm0 96h176v80h-176zm0 96h176v80h-176zm0 96h176v80h-176zm368 160h-368v-64h368zm0-80h-176v-80h176zm0-96h-176v-80h176zm0-96h-176v-80h176zm-176-96v-80h176v80zm0 0"/><path d="m160 32h16v48h-16zm0 0"/><path d="m352 32h16v48h-16zm0 0"/><path d="m160 128h16v48h-16zm0 0"/><path d="m352 128h16v48h-16zm0 0"/><path d="m160 224h16v48h-16zm0 0"/><path d="m352 224h16v48h-16zm0 0"/><path d="m160 320h16v48h-16zm0 0"/><path d="m352 320h16v48h-16zm0 0"/></g></svg>