<svg height="479pt" viewBox="-43 0 479 479.99932" width="479pt" xmlns="http://www.w3.org/2000/svg"><path d="m145.664062 279.566406v.433594h.640626c-.214844-.136719-.421876-.296875-.640626-.433594zm0 0" fill="#9bc9ff"/><path d="m275.183594 38.480469c-29.742188-29.730469-74.460938-38.621094-113.3125-22.527344-38.851563 16.089844-64.191406 53.992187-64.207032 96.046875v80c-.011718 35.472656 18.089844 68.496094 48 87.566406.21875.136719.425782.296875.640626.433594h110.71875c30.285156-19.003906 48.660156-52.25 48.640624-88v-80c.023438-27.585938-10.945312-54.042969-30.480468-73.519531zm0 0" fill="#9bc9ff"/><path d="m121.664062 472h160l24-160h-208zm0 0" fill="#9bc9ff"/><g fill="#1e81ce"><path d="m193.664062 72h16v16h-16zm0 0"/><path d="m193.664062 152h16v16h-16zm0 0"/><path d="m137.664062 192h16v16h-16zm0 0"/><path d="m249.664062 224h16v32h-16zm0 0"/><path d="m249.664062 192h16v16h-16zm0 0"/><path d="m249.664062 80h16v16h-16zm0 0"/><path d="m249.664062 112h16v64h-16zm0 0"/><path d="m137.664062 144h16v32h-16zm0 0"/><path d="m383.480469 141.496094c6.003906-5.992188 9.375-14.125 9.375-22.605469s-3.371094-16.613281-9.375-22.601563c-5.980469-6.039062-14.125-9.4375-22.625-9.4375-8.496094 0-16.644531 3.398438-22.621094 9.4375l-.960937.964844-5.6875-5.6875-11.3125 11.320313 5.679687 5.679687-12.289063 12.28125v-8.847656c.015626-15.042969-3.015624-29.929688-8.902343-43.769531l11.902343-4.800781-6-14.832032-13.328124 5.394532c-4.625-7.695313-10.15625-14.8125-16.472657-21.191407-1.679687-1.679687-3.46875-3.203125-5.230469-4.753906l12.25-15.015625-12.410156-10.089844-12.527344 15.347656c-39.980468-26.238281-92.238281-24.070312-129.902343 5.390626l-13.777344-13.417969-11.199219 11.472656 13.039063 12.664063c-12.683594 13.140624-21.953125 29.1875-27.007813 46.738281l-21.96875-21.992188 5.65625-5.65625-11.320312-11.3125-5.65625 5.65625-5.65625-5.648437c-6.003906-5.984375-14.128906-9.355469-22.605469-9.382813-12.957031-.039062-24.65625 7.75-29.613281 19.722657-4.960938 11.96875-2.199219 25.746093 6.988281 34.882812l16.96875 16.96875-5.679687 5.679688 11.308593 11.320312 5.691407-5.679688 20.679687 20.679688-5.679687 5.679688 11.308593 11.320312 5.691407-5.679688 19.453124 19.457032v16.847656h-16v16h16.304688c.914062 13.058594 4.125 25.855469 9.480469 37.800781l-14.816407 12 10.0625 12.429688 12.441407-10.054688c4.625 7.210938 10.066406 13.863281 16.214843 19.824219h-49.6875v48h17.113282l24 160h173.777344l24-160h17.109374v-48h-49.6875c8.96875-8.726562 16.398438-18.910156 21.976563-30.113281l17.191406 5.703125 5.039063-15.199219-16.117188-5.328125c1.472656-4.5 2.65625-9.085938 3.550782-13.734375l20.9375-20.929687 5.65625 5.65625 11.308593-11.3125-5.65625-5.65625 22.625-22.628907 5.65625 5.664063 11.34375-11.320313-5.664062-5.664062zm-33.894531-33.945313c6.289062-6.101562 16.285156-6.101562 22.574218 0 3.011719 2.992188 4.703125 7.058594 4.703125 11.300781 0 4.242188-1.691406 8.308594-4.703125 11.300782l-58.496094 58.527344v-11.289063l30.21875-30.191406-11.3125-11.3125-18.90625 18.878906v-11.292969zm-328.367188-31.472656c-3.027344-2.976563-4.734375-7.042969-4.734375-11.289063 0-4.246093 1.707031-8.316406 4.734375-11.292968 6.335938-6.011719 16.269531-6.011719 22.605469 0l46.480469 46.488281c-.375 3.519531-.550782 7.085937-.601563 10.6875l-28.839844-28.886719-11.308593 11.308594 40.109374 40.136719v11.296875zm253.558594 387.921875h-146.222656l-21.601563-144h189.425781zm38.886718-160h-224v-16h224zm-59.199218-32h-44.800782v-88h-16v88h-40v-48h-16v39.304688c-20.371093-18.101563-32.019531-44.054688-32-71.304688v-80c.019532-27.257812 11.660157-53.210938 32-71.351562v87.351562h16v-99.007812c12.230469-7.117188 25.898438-11.417969 40-12.585938v39.59375h16v-39.609375c14.105469 1.152344 27.773438 5.449219 40 12.570313v35.039062h16v-23.367188c1.296876 1.160157 2.625 2.261719 3.863282 3.503907 18.066406 17.953125 28.199218 42.390625 28.136718 67.863281v80c.039063 32.25-16.207031 62.34375-43.199218 80zm0 0"/><path d="m343.890625 124.519531 11.316406-11.3125 11.3125 11.3125-11.3125 11.316407zm0 0"/><path d="m26.863281 70.464844 11.3125-11.320313 11.316407 11.3125-11.308594 11.316407zm0 0"/><path d="m193.664062 104h16v32h-16zm0 0"/></g></svg>