<svg height="480pt" viewBox="0 -63 480 479" width="480pt" xmlns="http://www.w3.org/2000/svg"><path d="m240 280.5c-27.277344.003906-53.257812-11.636719-71.40625-32h-160.59375v64h464v-64h-160.59375c-18.148438 20.363281-44.128906 32.003906-71.40625 32zm0 0" fill="#9bc9ff"/><path d="m424 56.5h-80l-32-48h-144l-32 48h-128v80h148.945312c17.109376-29.699219 48.777344-48 83.054688-48s65.945312 18.300781 83.054688 48h148.945312v-80zm16 56h-64v-32h64zm0 0" fill="#9bc9ff"/><path d="m240 88.5c-53.019531 0-96 42.980469-96 96s42.980469 96 96 96 96-42.980469 96-96-42.980469-96-96-96zm0 160c-35.347656 0-64-28.652344-64-64s28.652344-64 64-64 64 28.652344 64 64c-.039062 35.328125-28.671875 63.960938-64 64zm0 0" fill="#9bc9ff"/><g fill="#1e81ce"><path d="m432 48.5v-24h-64v24h-19.71875l-32-48h-152.5625l-32 48h-19.71875v-24h-64v24h-48v304h480v-304zm32 192h-136.503906c18.480468-28.644531 21.660156-64.554688 8.503906-96h128zm-312-56c0-48.601562 39.398438-88 88-88s88 39.398438 88 88-39.398438 88-88 88c-48.578125-.058594-87.941406-39.421875-88-88zm.503906 56h-136.503906v-96h128c-13.164062 31.441406-9.992188 67.351562 8.480469 96zm231.496094-200h32v8h-32zm-320 0h32v8h-32zm76.28125 24 32-48h135.4375l32 48h124.28125v64h-136.503906c-19.046875-29.898438-52.046875-48-87.496094-48s-68.449219 18.101562-87.496094 48h-136.503906v-64zm323.71875 272h-448v-16h448zm-448-32v-48h149.128906c19.542969 20.4375 46.59375 32 74.871094 32s55.328125-11.5625 74.871094-32h149.128906v48zm0 0"/><path d="m240 256.5c39.765625 0 72-32.234375 72-72s-32.234375-72-72-72-72 32.234375-72 72c.042969 39.746094 32.253906 71.957031 72 72zm0-128c30.929688 0 56 25.070312 56 56s-25.070312 56-56 56-56-25.070312-56-56c.035156-30.914062 25.085938-55.964844 56-56zm0 0"/><path d="m448 72.5h-80v48h80zm-16 32h-48v-16h48zm0 0"/><path d="m192 32.5h64v16h-64zm0 0"/><path d="m272 32.5h16v16h-16zm0 0"/></g></svg>