<svg height="480pt" viewBox="0 0 480 480" width="480pt" xmlns="http://www.w3.org/2000/svg"><g fill="#9bc9ff"><path d="m472 40h-40v32h-32v-32h-56v32h-32v-32h-56v32h-32v-32h-56v32h-32v-32h-56v32h-32v-32h-40v96h464zm0 0"/><path d="m224 192h32v32h-32zm0 0"/><path d="m304 192h32v32h-32zm0 0"/><path d="m384 192h32v32h-32zm0 0"/><path d="m64 256h32v32h-32zm0 0"/><path d="m144 256h32v32h-32zm0 0"/><path d="m224 256h32v32h-32zm0 0"/><path d="m304 256h32v32h-32zm0 0"/><path d="m384 256h32v32h-32zm0 0"/><path d="m64 320h32v32h-32zm0 0"/><path d="m144 320h32v32h-32zm0 0"/><path d="m224 320h32v32h-32zm0 0"/><path d="m304 320h32v32h-32zm0 0"/><path d="m384 320h32v32h-32zm0 0"/><path d="m64 384h32v32h-32zm0 0"/><path d="m144 384h32v32h-32zm0 0"/><path d="m224 384h32v32h-32zm0 0"/></g><path d="m440 32v-32h-48v32h-40v-32h-48v32h-40v-32h-48v32h-40v-32h-48v32h-40v-32h-48v32h-40v448h480v-448zm-32-16h16v48h-16zm-88 0h16v48h-16zm-88 0h16v48h-16zm-88 0h16v48h-16zm-88 0h16v48h-16zm408 448h-448v-320h448zm-448-336v-80h24v32h48v-32h40v32h48v-32h40v32h48v-32h40v32h48v-32h40v32h48v-32h24v80zm0 0" fill="#1e81ce"/><path d="m264 232h-48v-48h48zm-32-16h16v-16h-16zm0 0" fill="#1e81ce"/><path d="m344 232h-48v-48h48zm-32-16h16v-16h-16zm0 0" fill="#1e81ce"/><path d="m424 232h-48v-48h48zm-32-16h16v-16h-16zm0 0" fill="#1e81ce"/><path d="m104 296h-48v-48h48zm-32-16h16v-16h-16zm0 0" fill="#1e81ce"/><path d="m184 296h-48v-48h48zm-32-16h16v-16h-16zm0 0" fill="#1e81ce"/><path d="m264 296h-48v-48h48zm-32-16h16v-16h-16zm0 0" fill="#1e81ce"/><path d="m344 296h-48v-48h48zm-32-16h16v-16h-16zm0 0" fill="#1e81ce"/><path d="m424 296h-48v-48h48zm-32-16h16v-16h-16zm0 0" fill="#1e81ce"/><path d="m104 360h-48v-48h48zm-32-16h16v-16h-16zm0 0" fill="#1e81ce"/><path d="m184 360h-48v-48h48zm-32-16h16v-16h-16zm0 0" fill="#1e81ce"/><path d="m264 360h-48v-48h48zm-32-16h16v-16h-16zm0 0" fill="#1e81ce"/><path d="m344 360h-48v-48h48zm-32-16h16v-16h-16zm0 0" fill="#1e81ce"/><path d="m424 360h-48v-48h48zm-32-16h16v-16h-16zm0 0" fill="#1e81ce"/><path d="m104 424h-48v-48h48zm-32-16h16v-16h-16zm0 0" fill="#1e81ce"/><path d="m184 424h-48v-48h48zm-32-16h16v-16h-16zm0 0" fill="#1e81ce"/><path d="m264 424h-48v-48h48zm-32-16h16v-16h-16zm0 0" fill="#1e81ce"/></svg>