<svg height="480pt" viewBox="0 0 480 480" width="480pt" xmlns="http://www.w3.org/2000/svg"><path d="m8 8h80v464h-80zm0 0" fill="#9bc9ff"/><path d="m88 472h384v-464h-384zm192-392c88.367188 0 160 71.632812 160 160s-71.632812 160-160 160-160-71.632812-160-160 71.632812-160 160-160zm0 0" fill="#9bc9ff"/><path d="m280 304c35.347656 0 64-28.652344 64-64s-28.652344-64-64-64-64 28.652344-64 64c.039062 35.328125 28.671875 63.960938 64 64zm0-104c22.089844 0 40 17.910156 40 40s-17.910156 40-40 40-40-17.910156-40-40 17.910156-40 40-40zm0 0" fill="#9bc9ff"/><g fill="#1e81ce"><path d="m0 0v480h480v-480zm80 464h-64v-448h64zm384 0h-368v-448h368zm0 0"/><path d="m280 408c92.785156 0 168-75.214844 168-168s-75.214844-168-168-168-168 75.214844-168 168c.105469 92.738281 75.261719 167.894531 168 168zm0-320c83.949219 0 152 68.050781 152 152s-68.050781 152-152 152-152-68.050781-152-152c.09375-83.910156 68.089844-151.90625 152-152zm0 0"/><path d="m280 376v-16c-66.242188-.074219-119.925781-53.757812-120-120h-16c.082031 75.074219 60.925781 135.917969 136 136zm0 0"/><path d="m400 240h16c-.082031-75.074219-60.925781-135.917969-136-136v16c66.242188.074219 119.925781 53.757812 120 120zm0 0"/><path d="m280 312c39.765625 0 72-32.234375 72-72s-32.234375-72-72-72-72 32.234375-72 72c.042969 39.746094 32.253906 71.957031 72 72zm0-128c30.929688 0 56 25.070312 56 56s-25.070312 56-56 56-56-25.070312-56-56c.035156-30.914062 25.085938-55.964844 56-56zm0 0"/><path d="m280 288c26.507812 0 48-21.492188 48-48s-21.492188-48-48-48-48 21.492188-48 48c.027344 26.5 21.5 47.972656 48 48zm0-80c17.671875 0 32 14.328125 32 32s-14.328125 32-32 32-32-14.328125-32-32 14.328125-32 32-32zm0 0"/><path d="m40 48h16v352h-16zm0 0"/><path d="m40 416h16v16h-16zm0 0"/></g></svg>