<svg height="480pt" viewBox="-72 0 480 480.09942" width="480pt" xmlns="http://www.w3.org/2000/svg"><g fill="#9bc9ff"><path d="m72.050781 8v208h192v-208zm0 0"/><path d="m208.050781 248h-152v48h224v-48zm0 0"/><path d="m136.050781 328h64v-32h-64zm0 0"/><path d="m152.050781 392h32v-64h-32zm0 0"/><path d="m128.050781 216h80v32h-80zm0 0"/></g><path d="m336.050781 144h-48v48h16v72h-16v-24h-72v-16h56v-224h-208v224h56v16h-72v24h-16v-72h16v-48h-47.9999998v48h15.9999998v88h32v24h80v32h16v52.136719l-59.703125 47.367187c-3.703125-2.273437-7.957031-3.484375-12.296875-3.503906-13.257812 0-24 10.746094-24 24s10.742188 24 24 24c13.253907 0 24-10.746094 24-24-.027343-2.785156-.539062-5.542969-1.519531-8.152344l60.308594-47.847656h5.210937v33.472656c-11.019531 3.894532-17.632812 15.164063-15.65625 26.683594 1.976563 11.523438 11.964844 19.941406 23.65625 19.941406 11.6875 0 21.675781-8.417968 23.652344-19.941406 1.976563-11.519531-4.632813-22.789062-15.652344-26.683594v-33.472656h5.207031l60.3125 47.847656c-.980468 2.609375-1.496093 5.367188-1.519531 8.152344 0 13.253906 10.742188 24 24 24 13.253907 0 24-10.746094 24-24s-10.746093-24-24-24c-4.34375.019531-8.597656 1.230469-12.296875 3.503906l-59.703125-47.367187v-52.136719h16v-32h80v-24h32v-88h16zm-320 16h16v16h-16zm152 304c-4.417969 0-8-3.582031-8-8s3.582031-8 8-8 8 3.582031 8 8-3.582031 8-8 8zm-88-256v-192h176v192zm56 16h64v16h-64zm-64 240c-4.417969 0-8-3.582031-8-8s3.582031-8 8-8 8 3.582031 8 8-3.582031 8-8 8zm192-16c4.417969 0 8 3.582031 8 8s-3.582031 8-8 8-8-3.582031-8-8 3.582031-8 8-8zm-88-64h-16v-48h16zm16-64h-48v-16h48zm80-32h-208v-32h208zm48-112h-16v-16h16zm0 0" fill="#1e81ce"/><path d="m224.050781 32h16v128h-16zm0 0" fill="#1e81ce"/><path d="m224.050781 176h16v16h-16zm0 0" fill="#1e81ce"/></svg>