<svg height="480pt" viewBox="-46 0 480 480" width="480pt" xmlns="http://www.w3.org/2000/svg"><g fill="#9bc9ff"><path d="m50.246094 392-16 48h320l-16-48zm0 0"/><path d="m274.246094 136h-160l-24 224h208zm0 0"/><path d="m338.246094 104v-96h-32v32h-32v-32h-32v32h-32v-32h-32v32h-32v-32h-32v32h-32v-32h-32v96zm0 0"/></g><path d="m376.496094 432h-16.480469l-16-48h-15.519531l-8-32h-15.046875l-23.203125-216.414062v-23.585938h64v-112h-48v32h-16v-32h-48v32h-16v-32h-48v32h-16v-32h-48v32h-16v-32h-48v112h64v23.585938l-23.199219 216.414062h-15.046875l-8 32h-15.519531l-16 48h-16.480469l-12 48h388.496094zm-318.25-336v-80h16v32h48v-32h16v32h48v-32h16v32h48v-32h16v32h48v-32h16v80zm208 16v16h-144v-16zm-144.796875 32h145.597656l22.28125 208h-190.175781zm-40.953125 224h227.503906l4 16h-235.503906zm-24.480469 32h276.464844l10.664062 32h-297.792969zm-35.519531 64 4-16h339.503906l4 16zm0 0" fill="#1e81ce"/><path d="m241.011719 201.109375 15.910156-1.703125 13.675781 127.742188-15.90625 1.703124zm0 0" fill="#1e81ce"/><path d="m237.535156 168.855469 15.910156-1.710938 1.679688 15.644531-15.90625 1.710938zm0 0" fill="#1e81ce"/></svg>