<svg height="480pt" viewBox="0 0 480 480" width="480pt" xmlns="http://www.w3.org/2000/svg"><path d="m392 8h32v48h-32zm0 0" fill="#9bc9ff"/><path d="m424 56h-48v48h64v-48zm0 0" fill="#9bc9ff"/><path d="m376 104h64v160h-64zm0 0" fill="#9bc9ff"/><path d="m376 296h64v32h-64zm0 0" fill="#9bc9ff"/><path d="m376 360h64v32h-64zm0 0" fill="#9bc9ff"/><path d="m376 400 32 56 32-56v-8h-64zm0 0" fill="#9bc9ff"/><g fill="#1e81ce"><path d="m336 480h-336v-480h336zm-320-16h304v-448h-304zm0 0"/><path d="m48 64h16v16h-16zm0 0"/><path d="m80 64h208v16h-208zm0 0"/><path d="m48 112h88v16h-88zm0 0"/><path d="m152 112h136v16h-136zm0 0"/><path d="m48 160h16v16h-16zm0 0"/><path d="m48 256h16v16h-16zm0 0"/><path d="m152 208h16v16h-16zm0 0"/><path d="m80 160h208v16h-208zm0 0"/><path d="m48 208h88v16h-88zm0 0"/><path d="m272 256h16v16h-16zm0 0"/><path d="m224 304h64v16h-64zm0 0"/><path d="m240 352h48v16h-48zm0 0"/><path d="m48 352h16v16h-16zm0 0"/><path d="m184 208h104v16h-104zm0 0"/><path d="m80 256h176v16h-176zm0 0"/><path d="m152 400h16v16h-16zm0 0"/><path d="m48 400h88v16h-88zm0 0"/><path d="m184 400h104v16h-104zm0 0"/><path d="m48 304h160v16h-160zm0 0"/><path d="m80 352h144v16h-144zm0 0"/><path d="m448 96v-48h-16v-48h-48v48h-16v354.128906l32 56v21.871094h16v-21.871094l32-56v-290.128906h16v88h16v-104zm-48-80h16v32h-16zm-16 48h48v32h-48zm24 375.871094-22.785156-39.871094h45.601562zm24-55.871094h-48v-16h48zm0-32h-48v-16h48zm0-32h-48v-16h48zm0-32h-48v-16h48zm-48-32v-144h48v144zm0 0"/></g></svg>