<svg height="480pt" viewBox="0 0 480 480" width="480pt" xmlns="http://www.w3.org/2000/svg"><path d="m240 472c128.128906 0 232-103.871094 232-232s-103.871094-232-232-232-232 103.871094-232 232 103.871094 232 232 232zm0-432c110.457031 0 200 89.542969 200 200s-89.542969 200-200 200-200-89.542969-200-200c-.054688-110.480469 89.519531-200.054688 200-200zm0 0" fill="#9bc9ff"/><path d="m264 240c0 13.253906-10.746094 24-24 24s-24-10.746094-24-24 10.746094-24 24-24 24 10.746094 24 24zm0 0" fill="#9bc9ff"/><g fill="#1e81ce"><path d="m240 480c-132.546875 0-240-107.453125-240-240s107.453125-240 240-240 240 107.453125 240 240c-.148438 132.484375-107.515625 239.851562-240 240zm0-464c-105.269531.003906-196.332031 73.308594-218.820312 176.144531-22.488282 102.839844 29.664062 207.460938 125.320312 251.40625 95.660156 43.941407 209.011719 15.347657 272.378906-68.710937 63.367188-84.058594 59.652344-200.902344-8.925781-280.769532-42.578125-49.53125-104.636719-78.039062-169.953125-78.070312zm0 0"/><path d="m240 448c-114.875 0-208-93.125-208-208s93.125-208 208-208 208 93.125 208 208c-.132812 114.820312-93.179688 207.867188-208 208zm0-400c-90.230469.003906-168.28125 62.832031-187.5625 150.976562-19.277344 88.148438 25.421875 177.824219 107.414062 215.492188 81.992188 37.667969 179.148438 13.164062 233.464844-58.886719 54.320313-72.046875 51.140625-172.195312-7.636718-240.652343-36.496094-42.460938-89.691407-66.902344-145.679688-66.929688zm0 0"/><path d="m232 56h16v32h-16zm0 0"/><path d="m141.074219 84.652344 13.859375-8 16 27.710937-13.855469 8zm0 0"/><path d="m76.648438 154.929688 8-13.855469 27.710937 16.003906-8 13.855469zm0 0"/><path d="m56 232h32v16h-32zm0 0"/><path d="m76.652344 325.070312 27.714844-15.996093 8 13.855469-27.714844 15.996093zm0 0"/><path d="m141.070312 395.351562 16-27.714843 13.855469 8-15.996093 27.714843zm0 0"/><path d="m232 392h16v32h-16zm0 0"/><path d="m309.074219 375.640625 13.855469-8 16 27.710937-13.855469 8zm0 0"/><path d="m367.636719 322.933594 8.003906-13.855469 27.710937 16-8 13.855469zm0 0"/><path d="m392 232h32v16h-32zm0 0"/><path d="m367.636719 157.070312 27.714843-16 8 13.859376-27.714843 15.996093zm0 0"/><path d="m309.070312 104.367188 16-27.714844 13.855469 8-15.996093 27.710937zm0 0"/><path d="m298.929688 326.0625-36.53125-63.269531c8.246093-8.046875 11.5-19.917969 8.515624-31.046875-2.988281-11.125-11.75-19.773438-22.914062-22.609375v-97.136719h-16v97.136719c-17.011719 4.550781-27.109375 22.03125-22.554688 39.042969 4.550782 17.011718 22.03125 27.109374 39.042969 22.554687l36.582031 63.355469zm-74.929688-86.0625c0-8.835938 7.164062-16 16-16s16 7.164062 16 16-7.164062 16-16 16-16-7.164062-16-16zm0 0"/></g></svg>