<svg height="480pt" viewBox="0 -40 480 480" width="480pt" xmlns="http://www.w3.org/2000/svg"><path d="m40 392h352c17.671875 0 32-14.328125 32-32v-16h-416v16c0 17.671875 14.328125 32 32 32zm0 0" fill="#9bc9ff"/><path d="m424 88c8.835938 0 16 7.164062 16 16v80c0 26.507812-21.492188 48-48 48h-16v32h16c44.183594 0 80-35.816406 80-80v-96c0-17.671875-14.328125-32-32-32h-64v32zm0 0" fill="#9bc9ff"/><g fill="#1e81ce"><path d="m440 48h-56v-48h-336v296c0 13.253906 10.746094 24 24 24h8v16h-80v24c.0273438 22.082031 17.917969 39.972656 40 40h352c22.082031-.027344 39.972656-17.917969 40-40v-24h-80v-16h8c13.253906 0 24-10.746094 24-24v-24h8c48.578125-.058594 87.941406-39.421875 88-88v-96c-.027344-22.082031-17.917969-39.972656-40-40zm-24 304v8c0 13.253906-10.746094 24-24 24h-352c-13.253906 0-24-10.746094-24-24v-8zm-80-16h-240v-16h240zm32-40c0 4.417969-3.582031 8-8 8h-288c-4.417969 0-8-3.582031-8-8v-280h304zm16-200h40c4.417969 0 8 3.582031 8 8v80c-.027344 22.082031-17.917969 39.972656-40 40h-8zm80 88c-.042969 39.746094-32.253906 71.957031-72 72h-8v-16h8c30.914062-.035156 55.964844-25.085938 56-56v-80c0-13.253906-10.746094-24-24-24h-40v-16h56c13.253906 0 24 10.746094 24 24zm0 0"/><path d="m336 48h16v16h-16zm0 0"/><path d="m336 80h16v192h-16zm0 0"/></g></svg>