<svg height="484pt" viewBox="-170 0 484 484.872" width="484pt" xmlns="http://www.w3.org/2000/svg"><path d="m104.4375 92.449219v152.421875h8v96h-8v24h-64v-24h-8v-96h8v-184l-32 16v320h128v-320l-32-16zm0 0" fill="#9bc9ff"/><path d="m104.4375 244.871094h-72v96h80v-96zm0 0" fill="#9bc9ff"/><g fill="#1e81ce"><path d="m112.4375 55.929688v-16.425782l-80-39.503906v55.929688l-32 16v340.941406c0 39.765625 32.234375 72 72 72 39.761719 0 72-32.234375 72-72v-340.941406zm-8 276.941406h-64v-80h64zm-56 16h48v8h-48zm0-148.96875v-30.167969l48 23.691406v30.160157zm0-78.167969 48 23.691406v30.160157l-48-23.683594zm48 5.851563-48-23.683594v-30.167969l48 23.691406zm-48 90.148437 38.78125 19.136719h-38.78125zm48-168.292969v30.144532l-48-23.683594v-30.160156zm32 363.429688c0 30.929687-25.074219 56-56 56-30.929688 0-56-25.070313-56-56v-8h112zm-112-24v-307.054688l16-8v163.054688h-8v112h8v24h80v-24h8v-112h-8v-163.054688l16 8v307.054688zm0 0"/><path d="m72.4375 452.871094c14.273438-.039063 27.457031-7.652344 34.621094-20l-13.839844-8c-4.28125 7.441406-12.214844 12.027344-20.796875 12.027344-8.585937 0-16.519531-4.585938-20.800781-12.027344l-13.839844 8c7.171875 12.359375 20.367188 19.972656 34.65625 20zm0 0"/><path d="m48.4375 260.871094h48v16h-48zm0 0"/><path d="m48.4375 284.871094h48v16h-48zm0 0"/><path d="m48.4375 308.871094h48v16h-48zm0 0"/></g></svg>