<svg height="481pt" viewBox="0 0 481 481.64083" width="481pt" xmlns="http://www.w3.org/2000/svg"><g fill="#9bc9ff"><path d="m344.320312 257.640625h128v72h-128zm0 0"/><path d="m344.320312 329.640625h128v72h-128zm0 0"/><path d="m344.320312 401.640625h128v72h-128zm0 0"/><path d="m8.320312 257.640625h128v72h-128zm0 0"/><path d="m8.320312 329.640625h128v72h-128zm0 0"/><path d="m8.320312 401.640625h128v72h-128zm0 0"/><path d="m368.320312 169.640625v-32h-224v32zm0 0"/><path d="m240.320312 169.640625h32v32h-32zm0 0"/><path d="m304.320312 201.640625h-96l-16 24h128zm0 0"/><path d="m440.320312 161.640625h-40v24c0 13.253906 10.746094 24 24 24 13.253907 0 24-10.746094 24-24v-24zm0 0"/><path d="m104.320312 201.640625h-80v24h80zm0 0"/><path d="m106.265625 31.695312-16.976563-16.964843c-9.394531-9.242188-24.484374-9.179688-33.804687.140625-9.316406 9.320312-9.375 24.410156-.132813 33.800781l16.96875 16.96875zm0 0"/></g><path d="m392.320312 273.640625h32v16h-32zm0 0" fill="#1e81ce"/><path d="m392.320312 345.640625h32v16h-32zm0 0" fill="#1e81ce"/><path d="m392.320312 417.640625h32v16h-32zm0 0" fill="#1e81ce"/><path d="m56.320312 273.640625h32v16h-32zm0 0" fill="#1e81ce"/><path d="m56.320312 345.640625h32v16h-32zm0 0" fill="#1e81ce"/><path d="m56.320312 417.640625h32v16h-32zm0 0" fill="#1e81ce"/><path d="m308.601562 193.640625h-28.28125v-16h96v-176h-240v176h96v16h-28.28125l-16 24h-75.71875v-24h-42.664062l-29.265625-70.296875c4.707031-4.1875 7.546875-10.078125 7.894531-16.367188.347656-6.289062-1.828125-12.457031-6.042968-17.136718l15.359374-27.605469 14.71875 14.71875 45.257813-45.257813-22.632813-22.621093c-12.65625-12.097657-32.59375-12.097657-45.25 0-10.984374 10.945312-12.496093 28.207031-3.582031 40.894531l-17.847656 32.070312c-1.300781-.242187-2.621094-.375-3.945313-.398437-13.253906 0-24 10.746094-24 24s10.746094 24 24 24c.449219 0 .863282-.105469 1.304688-.128906l26.695312 64.128906h-36v24h-16v264h144v-216h192v216h144v-264h-155.71875zm-247.59375-173.253906c6.25-6.246094 16.375-6.246094 22.625 0l11.320313 11.308593-22.632813 22.632813-11.3125-11.3125c-6.25-6.246094-6.25-16.382813 0-22.628906zm-44.6875 85.253906c0-4.417969 3.582032-8 8-8 4.417969 0 8 3.582031 8 8s-3.582031 8-8 8c-4.417968 0-8-3.582031-8-8zm344-88v112h-208v-112zm-208 144v-16h208v16zm96 16h16v16h-16zm-35.71875 32h87.4375l5.328126 8h-98.09375zm-180.28125 0h64v8h-64zm96 256h-112v-56h112zm0-72h-112v-56h112zm0-72h-112v-56h112zm336 144h-112v-56h112zm0-72h-112v-56h112zm0-72h-112v-56h112zm0-88v16h-448v-16zm0 0" fill="#1e81ce"/><path d="m455.183594 193.640625h9.136718c8.835938 0 16-7.164063 16-16v-8c0-8.835937-7.164062-16-16-16h-72v32c-.019531 16.09375 11.9375 29.6875 27.90625 31.71875 15.964844 2.035156 30.945313-8.132813 34.957032-23.71875zm9.136718-24v8h-8v-8zm-24 16c0 8.835937-7.164062 16-16 16-8.835937 0-16-7.164063-16-16v-16h32zm0 0" fill="#1e81ce"/></svg>