<svg height="480pt" viewBox="0 0 480 480" width="480pt" xmlns="http://www.w3.org/2000/svg"><g fill="#9bc9ff"><path d="m408 216h-400v32h464v-32zm0 0"/><path d="m8 248h32v224h-32zm0 0"/><path d="m440 312v160h32v-224h-32zm0 0"/><path d="m264 168v-32h-224v32zm0 0"/><path d="m136 168h32v48h-32zm0 0"/><path d="m312 72h48v144h-48zm0 0"/><path d="m360 72h48v144h-48zm0 0"/><path d="m408 72h48v144h-48zm0 0"/></g><path d="m464 208v-144h-160v144h-128v-32h96v-176h-240v176h96v32h-128v272h48v-224h256v192h128v32h48v-272zm-48-128h32v128h-32zm-48 0h32v128h-32zm-48 0h32v128h-32zm-64-64v112h-208v-112zm-208 144v-16h208v16zm96 16h16v32h-16zm-112 288h-16v-208h16zm288-208h112v48h-112zm0 64h112v48h-112zm0 112v-48h112v48zm144 32h-16v-208h16zm-448-224v-16h448v16zm0 0" fill="#1e81ce"/><path d="m360 264h32v16h-32zm0 0" fill="#1e81ce"/><path d="m360 328h32v16h-32zm0 0" fill="#1e81ce"/><path d="m360 392h32v16h-32zm0 0" fill="#1e81ce"/><path d="m328 96h16v16h-16zm0 0" fill="#1e81ce"/><path d="m376 96h16v16h-16zm0 0" fill="#1e81ce"/><path d="m424 96h16v16h-16zm0 0" fill="#1e81ce"/></svg>