<svg height="480pt" viewBox="0 0 480 480" width="480pt" xmlns="http://www.w3.org/2000/svg"><path d="m80 64h32v104h-32zm0 0" fill="#9bc9ff"/><path d="m368 64h32v104h-32zm0 0" fill="#9bc9ff"/><path d="m8 344h104v48h-104zm0 0" fill="#9bc9ff"/><path d="m368 344h104v48h-104zm0 0" fill="#9bc9ff"/><path d="m8 168v176h104v-48h32v96h24v-96h32v96h24v-96h32v96h24v-96h32v96h24v-96h32v48h104v-176zm352 64c-8.835938 0-16-7.164062-16-16s7.164062-16 16-16 16 7.164062 16 16-7.164062 16-16 16zm64 0c-8.835938 0-16-7.164062-16-16s7.164062-16 16-16 16 7.164062 16 16-7.164062 16-16 16zm0 0" fill="#9bc9ff"/><g fill="#1e81ce"><path d="m408 160v-104h-32v-56h-272v56h-32v104h-72v240h88v-16h-72v-32h72v-16h-72v-160h448v160h-72v16h72v32h-72v16h88v-240zm-320 0v-88h16v88zm32 0v-144h240v144zm256 0v-88h16v88zm0 0"/><path d="m432 304v-16h-384v16h56v176h48v-176h8v176h48v-176h8v176h48v-176h8v176h48v-176h8v176h48v-176zm-296 160h-16v-160h16zm56 0h-16v-160h16zm56 0h-16v-160h16zm56 0h-16v-160h16zm56 0h-16v-160h16zm0 0"/><path d="m448 216c0-13.253906-10.746094-24-24-24s-24 10.746094-24 24 10.746094 24 24 24 24-10.746094 24-24zm-32 0c0-4.417969 3.582031-8 8-8s8 3.582031 8 8-3.582031 8-8 8-8-3.582031-8-8zm0 0"/><path d="m384 216c0-13.253906-10.746094-24-24-24s-24 10.746094-24 24 10.746094 24 24 24 24-10.746094 24-24zm-32 0c0-4.417969 3.582031-8 8-8s8 3.582031 8 8-3.582031 8-8 8-8-3.582031-8-8zm0 0"/><path d="m288 208h32v16h-32zm0 0"/><path d="m152 48h16v16h-16zm0 0"/><path d="m184 48h144v16h-144zm0 0"/><path d="m152 80h16v16h-16zm0 0"/><path d="m184 80h144v16h-144zm0 0"/><path d="m152 112h16v16h-16zm0 0"/><path d="m184 112h144v16h-144zm0 0"/></g></svg>