<svg height="480pt" viewBox="0 0 480 480" width="480pt" xmlns="http://www.w3.org/2000/svg"><path d="m280 424v-32h-272v32c0 26.507812 21.492188 48 48 48h272c-26.507812 0-48-21.492188-48-48zm0 0" fill="#9bc9ff"/><path d="m424 8c-26.507812 0-48 21.492188-48 48v48h96v-48c-.039062-26.492188-21.507812-47.960938-48-48zm0 0" fill="#9bc9ff"/><g fill="#1e81ce"><path d="m120 48h16v16h-16zm0 0"/><path d="m152 48h176v16h-176zm0 0"/><path d="m120 96h72v16h-72zm0 0"/><path d="m208 96h120v16h-120zm0 0"/><path d="m120 144h16v16h-16zm0 0"/><path d="m120 240h16v16h-16zm0 0"/><path d="m208 192h16v16h-16zm0 0"/><path d="m152 144h176v16h-176zm0 0"/><path d="m120 192h72v16h-72zm0 0"/><path d="m312 240h16v16h-16zm0 0"/><path d="m280 288h48v16h-48zm0 0"/><path d="m312 336h16v16h-16zm0 0"/><path d="m120 336h16v16h-16zm0 0"/><path d="m240 192h88v16h-88zm0 0"/><path d="m152 240h128v16h-128zm0 0"/><path d="m120 288h144v16h-144zm0 0"/><path d="m152 336h128v16h-128zm0 0"/><path d="m480 56c-.039062-30.910156-25.089844-55.9609375-56-56h-304c-30.914062.0351562-55.964844 25.085938-56 56v328h-64v40c.0351562 30.914062 25.085938 55.964844 56 56h272c30.914062-.035156 55.964844-25.085938 56-56v-312h96zm-424 408c-22.082031-.027344-39.972656-17.917969-40-40v-24h256v24c-.019531 15.050781 6.039062 29.476562 16.800781 40zm312-40c0 22.089844-17.910156 40-40 40s-40-17.910156-40-40v-40h-208v-328c.027344-22.082031 17.917969-39.972656 40-40h264.800781c-10.761719 10.523438-16.820312 24.949219-16.800781 40zm96-328h-80v-40c.027344-22.082031 17.917969-39.972656 40-40 22.074219.039062 39.960938 17.925781 40 40zm0 0"/></g></svg>