<svg height="480pt" viewBox="-3 0 480 480.8548" width="480pt" xmlns="http://www.w3.org/2000/svg"><path d="m394.417969 179.726562-228.625-132-120 207.847657 6.929687 4 228.625 132 24.269532-42.03125 95.730468-165.816407zm0 0" fill="#9bc9ff"/><g fill="#1e81ce"><path d="m317.925781 200.230469 7.996094-13.855469 13.859375 7.996094-8 13.859375zm0 0"/><path d="m107.359375 244.933594 8-13.855469 20.785156 12-8 13.855469zm0 0"/><path d="m238.699219 464.816406c.960937-1.265625 1.847656-2.585937 2.65625-3.953125l36-62.351562 6.925781 4 128-221.714844-6.925781-4 12-20.796875c11.011719-19.136719 4.464843-43.574219-14.640625-54.640625l-166.289063-96c-19.128906-11.046875-43.59375-4.492187-54.640625 14.640625l-12 20.796875-6.925781-4-128 221.714844 6.925781 4-36 62.351562c-11.042968 19.128907-4.488281 43.59375 14.640625 54.640625l166.289063 96c6.054687 3.503906 12.929687 5.351563 19.925781 5.351563l220.929687-.417969v-16zm-43.050781-436.800781c3.183593-5.519531 8.425781-9.546875 14.578124-11.199219 6.152344-1.652344 12.707032-.789062 18.222657 2.398438l166.289062 96c5.519531 3.179687 9.546875 8.421875 11.199219 14.574218 1.648438 6.152344.785156 12.710938-2.398438 18.226563l-12 20.800781-207.839843-120zm-50.917969 72.191406 159.640625 91.566407 8-13.871094-159.640625-91.550782 16-27.695312 221.695312 128-87.742187 152-159.625-91.585938-8 13.871094 159.617187 91.554688-16.257812 28.152344-221.695313-128zm49.984375 361.433594-166.289063-96c-5.519531-3.183594-9.546875-8.425781-11.199219-14.578125-1.648437-6.152344-.785156-12.707031 2.398438-18.222656l36-62.351563 207.839844 120-36 62.351563c-6.621094 11.464844-21.273438 15.402344-32.75 8.800781zm0 0"/><path d="m443.570312 464.4375h32v16h-32zm0 0"/></g></svg>