<svg height="480pt" viewBox="-16 0 480 480" width="480pt" xmlns="http://www.w3.org/2000/svg"><path d="m256 256c0 17.671875-14.328125 32-32 32s-32-14.328125-32-32 14.328125-32 32-32 32 14.328125 32 32zm0 0" fill="#9bc9ff"/><path d="m328 212.960938v86.078124l-60.960938 60.960938h-86.078124l-60.960938-60.960938v-86.078124l40-40v-132.960938h-25.441406l-126.558594 126.558594v178.882812l126.558594 126.558594h178.882812l126.558594-126.558594v-178.882812l-126.558594-126.558594h-25.441406v132.960938zm0 0" fill="#9bc9ff"/><g fill="#1e81ce"><path d="m224 296c22.089844 0 40-17.910156 40-40s-17.910156-40-40-40-40 17.910156-40 40c.027344 22.082031 17.917969 39.972656 40 40zm0-64c13.253906 0 24 10.746094 24 24s-10.746094 24-24 24-24-10.746094-24-24 10.746094-24 24-24zm0 0"/><path d="m240 256c0 8.835938-7.164062 16-16 16s-16-7.164062-16-16 7.164062-16 16-16 16 7.164062 16 16zm0 0"/><path d="m216 32h16v168h-16zm0 0"/><path d="m248 32h16v168h-16zm0 0"/><path d="m184 32h16v168h-16zm0 0"/><path d="m316.753906 32h-20.753906v-32h-144v32h-20.753906l-131.246094 131.246094v185.507812l131.246094 131.246094h185.507812l131.246094-131.246094v-185.507812zm-148.753906-16h112v255.433594c.027344 8.472656-3.335938 16.605468-9.335938 22.589844l-.609374.601562c-5.984376 6.023438-14.132813 9.402344-22.621094 9.375h-46.867188c-8.507812.019531-16.671875-3.371094-22.664062-9.414062l-.527344-.523438c-6.019531-5.988281-9.398438-14.136719-9.375-22.628906zm-1.902344 289.414062.527344.523438c8.980469 9.035156 21.203125 14.097656 33.941406 14.0625h46.867188c12.71875.039062 24.925781-5.007812 33.902344-14.023438l.609374-.601562c9.023438-8.984375 14.085938-21.207031 14.054688-33.941406v-79.203125l24 24v79.457031l-56.273438 56.3125h-79.453124l-56.273438-56.273438v-79.453124l24-24v79.199218c-.015625 12.742188 5.058594 24.960938 14.097656 33.941406zm265.902344 36.714844-121.871094 121.871094h-172.257812l-121.871094-121.871094v-172.257812l121.871094-121.871094h14.128906v121.648438l-40 40v92.703124l65.648438 65.648438h92.703124l65.648438-65.648438v-92.703124l-40-40v-121.648438h14.128906l121.871094 121.871094zm0 0"/></g></svg>