<svg height="480pt" viewBox="-31 0 479 480" width="480pt" xmlns="http://www.w3.org/2000/svg"><path d="m128.339844 104h-119.839844v368h400v-160l-48-35.601562zm56.160156 320h-128v-48h128zm0 0" fill="#9bc9ff"/><path d="m56.5 40h114.960938l-43.121094-32h-119.839844v96h48zm0 0" fill="#9bc9ff"/><path d="m408.5 312v-96l-48-35.601562v96zm0 0" fill="#9bc9ff"/><g fill="#1e81ce"><path d="m368.5 176.367188v-144.367188h-194.398438l-43.121093-32h-130.480469v480h416v-268zm-16-128.367188v212.457031l-221.503906-164.457031h-66.496094v-48zm-336-32h109.199219l21.601562 16h-98.800781v64h-32zm384 448h-384v-352h109.191406l274.808594 204zm-32-191.664062v-76.039063l32 23.703125v76.070312zm0 0"/><path d="m96.5 64h16v16h-16zm0 0"/><path d="m136.5 64h192v16h-192zm0 0"/><path d="m176.5 96h152v16h-152zm0 0"/><path d="m216.5 128h112v16h-112zm0 0"/><path d="m256.5 160h72v16h-72zm0 0"/><path d="m296.5 192h32v16h-32zm0 0"/><path d="m48.5 432h144v-64h-144zm16-48h112v32h-112zm0 0"/><path d="m72.5 392h64v16h-64zm0 0"/><path d="m152.5 392h16v16h-16zm0 0"/></g></svg>