<svg height="480pt" viewBox="-16 0 480 480" width="480pt" xmlns="http://www.w3.org/2000/svg"><path d="m8 88v384h72v-384zm48 348c0 6.628906-5.371094 12-12 12s-12-5.371094-12-12v-24c0-6.628906 5.371094-12 12-12s12 5.371094 12 12zm0-72c0 6.628906-5.371094 12-12 12s-12-5.371094-12-12v-24c0-6.628906 5.371094-12 12-12s12 5.371094 12 12zm0-72c0 6.628906-5.371094 12-12 12s-12-5.371094-12-12v-24c0-6.628906 5.371094-12 12-12s12 5.371094 12 12zm0-72c0 6.628906-5.371094 12-12 12s-12-5.371094-12-12v-24c0-6.628906 5.371094-12 12-12s12 5.371094 12 12zm0-72c0 6.628906-5.371094 12-12 12s-12-5.371094-12-12v-24c0-6.628906 5.371094-12 12-12s12 5.371094 12 12zm0 0" fill="#9bc9ff"/><path d="m232 392v-384h-72v384zm-48-348c0-6.628906 5.371094-12 12-12s12 5.371094 12 12v24c0 6.628906-5.371094 12-12 12s-12-5.371094-12-12zm0 72c0-6.628906 5.371094-12 12-12s12 5.371094 12 12v24c0 6.628906-5.371094 12-12 12s-12-5.371094-12-12zm0 72c0-6.628906 5.371094-12 12-12s12 5.371094 12 12v24c0 6.628906-5.371094 12-12 12s-12-5.371094-12-12zm0 72c0-6.628906 5.371094-12 12-12s12 5.371094 12 12v24c0 6.628906-5.371094 12-12 12s-12-5.371094-12-12zm0 72c0-6.628906 5.371094-12 12-12s12 5.371094 12 12v24c0 6.628906-5.371094 12-12 12s-12-5.371094-12-12zm0 0" fill="#9bc9ff"/><g fill="#1e81ce"><path d="m44 168c11.046875 0 20-8.953125 20-20v-24c0-11.046875-8.953125-20-20-20s-20 8.953125-20 20v24c0 11.046875 8.953125 20 20 20zm-4-44c0-2.210938 1.789062-4 4-4s4 1.789062 4 4v24c0 2.210938-1.789062 4-4 4s-4-1.789062-4-4zm0 0"/><path d="m44 240c11.046875 0 20-8.953125 20-20v-24c0-11.046875-8.953125-20-20-20s-20 8.953125-20 20v24c0 11.046875 8.953125 20 20 20zm-4-44c0-2.210938 1.789062-4 4-4s4 1.789062 4 4v24c0 2.210938-1.789062 4-4 4s-4-1.789062-4-4zm0 0"/><path d="m44 312c11.046875 0 20-8.953125 20-20v-24c0-11.046875-8.953125-20-20-20s-20 8.953125-20 20v24c0 11.046875 8.953125 20 20 20zm-4-44c0-2.210938 1.789062-4 4-4s4 1.789062 4 4v24c0 2.210938-1.789062 4-4 4s-4-1.789062-4-4zm0 0"/><path d="m44 384c11.046875 0 20-8.953125 20-20v-24c0-11.046875-8.953125-20-20-20s-20 8.953125-20 20v24c0 11.046875 8.953125 20 20 20zm-4-44c0-2.210938 1.789062-4 4-4s4 1.789062 4 4v24c0 2.210938-1.789062 4-4 4s-4-1.789062-4-4zm0 0"/><path d="m44 456c11.046875 0 20-8.953125 20-20v-24c0-11.046875-8.953125-20-20-20s-20 8.953125-20 20v24c0 11.046875 8.953125 20 20 20zm-4-44c0-2.210938 1.789062-4 4-4s4 1.789062 4 4v24c0 2.210938-1.789062 4-4 4s-4-1.789062-4-4zm0 0"/><path d="m448 0h-296v80h-152v400h296v-80h152zm-376 464h-56v-368h56zm208-80h-40v-288h40zm-112-368h56v368h-56zm112 448h-192v-368h64v304h128zm152-80h-136v-304h-56v-64h192zm0 0"/><path d="m196 24c-11.046875 0-20 8.953125-20 20v24c0 11.046875 8.953125 20 20 20s20-8.953125 20-20v-24c0-11.046875-8.953125-20-20-20zm4 44c0 2.210938-1.789062 4-4 4s-4-1.789062-4-4v-24c0-2.210938 1.789062-4 4-4s4 1.789062 4 4zm0 0"/><path d="m196 96c-11.046875 0-20 8.953125-20 20v24c0 11.046875 8.953125 20 20 20s20-8.953125 20-20v-24c0-11.046875-8.953125-20-20-20zm4 44c0 2.210938-1.789062 4-4 4s-4-1.789062-4-4v-24c0-2.210938 1.789062-4 4-4s4 1.789062 4 4zm0 0"/><path d="m196 168c-11.046875 0-20 8.953125-20 20v24c0 11.046875 8.953125 20 20 20s20-8.953125 20-20v-24c0-11.046875-8.953125-20-20-20zm4 44c0 2.210938-1.789062 4-4 4s-4-1.789062-4-4v-24c0-2.210938 1.789062-4 4-4s4 1.789062 4 4zm0 0"/><path d="m196 240c-11.046875 0-20 8.953125-20 20v24c0 11.046875 8.953125 20 20 20s20-8.953125 20-20v-24c0-11.046875-8.953125-20-20-20zm4 44c0 2.210938-1.789062 4-4 4s-4-1.789062-4-4v-24c0-2.210938 1.789062-4 4-4s4 1.789062 4 4zm0 0"/><path d="m196 312c-11.046875 0-20 8.953125-20 20v24c0 11.046875 8.953125 20 20 20s20-8.953125 20-20v-24c0-11.046875-8.953125-20-20-20zm4 44c0 2.210938-1.789062 4-4 4s-4-1.789062-4-4v-24c0-2.210938 1.789062-4 4-4s4 1.789062 4 4zm0 0"/></g></svg>