<svg height="480pt" viewBox="-144 0 480 480.00018" width="480pt" xmlns="http://www.w3.org/2000/svg"><g fill="#9bc9ff"><path d="m152 192v-32h-112v32zm0 0"/><path d="m114.136719 21.503906c-1.230469-7.777344-7.933594-13.503906-15.808594-13.503906h-4.65625c-7.875 0-14.578125 5.726562-15.808594 13.503906l-21.863281 138.496094h80zm0 0"/><path d="m8 304h176v96h-176zm0 0"/></g><path d="m149.480469 200h10.519531v-48h-17.167969l-20.800781-131.734375c-1.796875-11.691406-11.875-20.3085938-23.703125-20.265625h-4.65625c-11.824219-.046875-21.90625 8.566406-23.703125 20.257812l-20.800781 131.742188h-17.167969v48h10.519531l-42.519531 77.960938v202.039062h192v-202.039062zm-63.703125-177.246094c.59375-3.898437 3.953125-6.769531 7.894531-6.753906h4.65625c3.941406 0 7.292969 2.867188 7.902344 6.761719l20.410156 129.238281h-61.28125zm-37.777344 161.246094v-16h96v16zm-32 128h160v80h-160zm160 152h-160v-56h160zm-160-168v-13.960938l44.753906-82.039062h70.496094l44.75 82.039062v13.960938zm0 0" fill="#1e81ce"/><path d="m32 424h96v16h-96zm0 0" fill="#1e81ce"/><path d="m144 424h16v16h-16zm0 0" fill="#1e81ce"/></svg>