<svg height="480pt" viewBox="-48 0 480 480" width="480pt" xmlns="http://www.w3.org/2000/svg"><g fill="#9bc9ff"><path d="m152 408h224v-160h-224zm112-128s32 46.328125 32 64-14.328125 32-32 32-32-14.328125-32-32 32-64 32-64zm0 0"/><path d="m208 120h112v24h-112zm0 0"/><path d="m208 168h112v32h-112zm0 0"/><path d="m208 144h112v24h-112zm0 0"/><path d="m120 88h-112v48h128v-48zm0 0"/><path d="m104 8h-64l-16 80h96zm0 0"/><path d="m94.640625 321.359375c-1.996094-1.945313-4.226563-3.640625-6.640625-5.039063-9.894531-5.714843-22.085938-5.714843-31.984375-.007812s-16.003906 16.261719-16.015625 27.6875v48h64v-48c-.015625-8.484375-3.378906-16.621094-9.359375-22.640625zm0 0"/></g><path d="m360 192h-32v-16h8v-16h-8v-8h8v-16h-8v-24h-128v24h-8v16h8v8h-8v16h8v16h-32c-13.253906 0-24 10.746094-24 24v240c0 13.253906 10.746094 24 24 24h192c13.253906 0 24-10.746094 24-24v-240c0-13.253906-10.746094-24-24-24zm-144-64h96v8h-96zm0 24h96v8h-96zm0 24h96v16h-96zm-56 80h208v144h-208zm208 200c0 4.417969-3.582031 8-8 8h-192c-4.417969 0-8-3.582031-8-8v-40h208zm-208-216v-24c0-4.417969 3.582031-8 8-8h192c4.417969 0 8 3.582031 8 8v24zm0 0" fill="#1e81ce"/><path d="m96 312.039062v-168.039062h48v-64h-17.441406l-16-80h-77.117188l-16 80h-17.441406v64h48v168.0625c-10.046875 7.546875-15.972656 19.371094-16 31.9375v56h80v-56c-.015625-10.660156-4.265625-20.878906-11.816406-28.40625-1.316406-1.273438-2.714844-2.457031-4.183594-3.554688zm-49.441406-296.039062h50.882812l12.796875 64h-76.476562zm-30.558594 112v-8h80v-16h-80v-8h112v8h-16v16h16v8zm64 16v160.984375c-5.28125-1.054687-10.71875-1.054687-16 0v-160.984375zm16 240h-24v-48h-16v48h-8v-40c.011719-8.582031 4.601562-16.5 12.042969-20.777344 7.4375-4.273437 16.59375-4.253906 24.011719.058594 1.777343 1.023438 3.417968 2.265625 4.890624 3.695312 4.507813 4.519532 7.046876 10.640626 7.054688 17.023438zm0 0" fill="#1e81ce"/><path d="m264 265.921875-6.585938 9.535156c-5.582031 8.070313-33.414062 49.34375-33.414062 68.542969 0 22.089844 17.910156 40 40 40s40-17.910156 40-40c0-19.199219-27.832031-60.472656-33.414062-68.542969zm0 102.078125c-13.253906 0-24-10.746094-24-24 0-8.734375 12.488281-31.535156 24-49.535156 11.511719 17.992187 24 40.800781 24 49.535156 0 13.253906-10.746094 24-24 24zm0 0" fill="#1e81ce"/><path d="m176 424h144v16h-144zm0 0" fill="#1e81ce"/><path d="m336 424h16v16h-16zm0 0" fill="#1e81ce"/></svg>