<svg height="480pt" viewBox="0 -19 480 479" width="480pt" xmlns="http://www.w3.org/2000/svg"><path d="m456 112.5h-432c-8.835938 0-16 7.164062-16 16v288c0 8.835938 7.164062 16 16 16h432c8.835938 0 16-7.164062 16-16v-288c0-8.835938-7.164062-16-16-16zm-48 288h-352v-256h352zm0 0" fill="#9bc9ff"/><path d="m216 376.5h160l-80.367188-136zm0 0" fill="#9bc9ff"/><path d="m88 376.5h128l-64.367188-80zm0 0" fill="#9bc9ff"/><path d="m64 8.5-32 24 32 24h336v-48zm0 0" fill="#9bc9ff"/><g fill="#1e81ce"><path d="m456 104.5h-432c-13.253906 0-24 10.746094-24 24v288c0 13.253906 10.746094 24 24 24h432c13.253906 0 24-10.746094 24-24v-288c0-13.253906-10.746094-24-24-24zm8 312c0 4.417969-3.582031 8-8 8h-432c-4.417969 0-8-3.582031-8-8v-288c0-4.417969 3.582031-8 8-8h432c4.417969 0 8 3.582031 8 8zm0 0"/><path d="m432 232.5h16v32h-16zm0 0"/><path d="m432 280.5h16v32h-16zm0 0"/><path d="m48 408.5h368v-272h-368zm16-256h336v240h-336zm0 0"/><path d="m24 256.5h16v32h-16zm0 0"/><path d="m72 160.5h32v16h-32zm0 0"/><path d="m120 160.5h32v16h-32zm0 0"/><path d="m168 160.5h32v16h-32zm0 0"/><path d="m216 160.5h176v16h-176zm0 0"/><path d="m72 384.5h320v-200h-320zm32.585938-16 47.078124-59.199219 47.632813 59.199219zm125.367187 0 65.703125-112.214844 66.320312 112.214844zm146.046875-168v160.273438l-80.40625-136.058594-80.632812 137.730468-63.375-78.746093-63.585938 79.945312v-163.144531zm0 0"/><path d="m200 280.5c17.671875 0 32-14.328125 32-32s-14.328125-32-32-32-32 14.328125-32 32 14.328125 32 32 32zm0-48c8.835938 0 16 7.164062 16 16s-7.164062 16-16 16-16-7.164062-16-16 7.164062-16 16-16zm0 0"/><path d="m408 64.5v-8h24c13.253906 0 24-10.746094 24-24s-10.746094-24-24-24h-24v-8h-346.664062l-42.671876 32 42.671876 32zm24-40c4.417969 0 8 3.582031 8 8s-3.582031 8-8 8h-24v-16zm-365.335938-8h325.335938v32h-325.335938l-21.328124-16zm0 0"/><path d="m88 24.5h32v16h-32zm0 0"/><path d="m128 24.5h32v16h-32zm0 0"/></g></svg>