<svg height="478pt" viewBox="-61 0 478 478.44" width="478pt" xmlns="http://www.w3.org/2000/svg"><g fill="#9bc9ff"><path d="m204.234375 99.199219c.21875.265625.410156.5625.625.800781-.214844-.207031-.40625-.503906-.625-.800781zm0 0"/><path d="m191.605469 86.464844c1.429687 1.207031 2.789062 2.488281 4.152343 3.765625-1.363281-1.277344-2.714843-2.558594-4.152343-3.765625zm0 0"/><path d="m198.195312 92.535156c1.234376 1.242188 2.402344 2.578125 3.535157 3.890625-1.160157-1.3125-2.292969-2.640625-3.535157-3.890625zm0 0"/><path d="m184.546875 81.089844c1.472656 1.023437 2.882813 2.117187 4.296875 3.199218-1.414062-1.089843-2.824219-2.175781-4.296875-3.199218zm0 0"/><path d="m196.722656 228.960938c.5625-.480469 1.203125-1.121094 1.761719-1.679688 1.28125-1.28125 2.480469-2.5625 3.601563-3.921875 1.285156-1.40625 2.453124-2.933594 3.628906-4.449219-2.980469 3.824219-6.242188 7.417969-9.757813 10.753906.246094-.25.511719-.449218.765625-.703124zm0 0"/><path d="m192.324219 232.960938c.910156-.800782 1.777343-1.601563 2.648437-2.402344-1.402344 1.289062-2.832031 2.53125-4.304687 3.738281.542969-.464844 1.128906-.863281 1.65625-1.335937zm0 0"/><path d="m219.84375 193.527344c-.617188 1.65625-1.230469 3.304687-1.9375 4.914062.707031-1.640625 1.328125-3.242187 1.9375-4.914062zm0 0"/><path d="m215.203125 204.078125c.496094-.917969.914063-1.902344 1.367187-2.847656-.542968 1.136719-1.078124 2.273437-1.664062 3.386719.089844-.183594.210938-.351563.296875-.539063zm0 0"/><path d="m207.042969 217.28125c.800781-1.042969 1.519531-2.160156 2.242187-3.203125.878906-1.277344 1.679688-2.476563 2.480469-3.757813.597656-1 1.140625-2.082031 1.71875-3.128906-2.214844 3.953125-4.710937 7.746094-7.464844 11.34375.328125-.429687.703125-.824218 1.023438-1.253906zm0 0"/><path d="m220.578125 128.640625c-3.546875-10.359375-8.859375-20.027344-15.703125-28.578125-.214844-.269531-.40625-.566406-.621094-.796875-.800781-.976563-1.675781-1.875-2.507812-2.808594-1.15625-1.3125-2.300782-2.648437-3.535156-3.890625-.800782-.796875-1.597657-1.527344-2.398438-2.300781-1.359375-1.28125-2.71875-2.5625-4.152344-3.769531-.894531-.742188-1.839844-1.441406-2.761718-2.160156-1.414063-1.097657-2.824219-2.191407-4.292969-3.199219-1.097657-.753907-2.234375-1.457031-3.363281-2.167969-15.328126-9.777344-33.136719-14.96875-51.316407-14.96875-.25 0-.488281 0-.730469.039062-38.703124.277344-73.457031 23.765626-88.140624 59.578126-14.683594 35.808593-6.425782 76.933593 20.941406 104.304687l-15.761719 59.039063 14.722656 37.679687-31.359375 24.238281 15.519532 34.722656-31.839844 26.160157-4.242188 16 38.082032 43.359375 54.640624-18.480469 53.839844-198.160156c12.160156-3.375 23.53125-9.125 33.460938-16.914063.546875-.414062 1.074218-.847656 1.601562-1.277344 1.472656-1.210937 2.902344-2.449218 4.304688-3.738281.328125-.292969.65625-.582031.984375-.886719 3.515625-3.335937 6.777343-6.929687 9.757812-10.753906.097657-.125.207031-.246094.304688-.375 2.753906-3.597656 5.25-7.390625 7.464843-11.34375.480469-.855468.984376-1.6875 1.421876-2.574218.585937-1.113282 1.121093-2.25 1.664062-3.386719.449219-.925781.929688-1.839844 1.335938-2.789063.707031-1.601562 1.320312-3.257812 1.9375-4.914062.257812-.695313.550781-1.375.800781-2.085938 7.046875-20.347656 7.015625-42.472656-.082031-62.800781zm-59.773437 39.679687c-4.550782 16.671876-21.5625 26.675782-38.34375 22.554688-16.785157-4.125-27.21875-20.875-23.523438-37.757812 3.695312-16.882813 20.175781-27.742188 37.148438-24.476563h.078124c.640626.078125 1.359376.320313 2.078126.480469 8.203124 2.1875 15.191406 7.554687 19.425781 14.914062 4.234375 7.355469 5.363281 16.09375 3.136719 24.285156zm0 0"/><path d="m189.066406 235.566406c.539063-.421875 1.074219-.847656 1.601563-1.277344-.527344.429688-1.054688.863282-1.601563 1.277344zm0 0"/><path d="m220.578125 128.640625c-3.5625-10.355469-8.882813-20.019531-15.71875-28.578125 6.84375 8.550781 12.15625 18.21875 15.703125 28.578125zm0 0"/><path d="m219.84375 193.527344c.265625-.695313.566406-1.375.800781-2.085938-.25.710938-.542969 1.359375-.800781 2.085938zm0 0"/><path d="m217.925781 198.441406c-.410156.949219-.890625 1.863282-1.335937 2.789063.421875-.933594.910156-1.847657 1.335937-2.789063zm0 0"/><path d="m195.757812 90.230469c.796876.800781 1.652344 1.503906 2.398438 2.304687-.746094-.800781-1.59375-1.535156-2.398438-2.304687zm0 0"/><path d="m195.957031 229.664062c-.328125.304688-.65625.59375-.984375.886719.328125-.292969.65625-.582031.984375-.886719zm0 0"/><path d="m188.84375 84.304688c.921875.71875 1.863281 1.414062 2.761719 2.160156-.882813-.753906-1.839844-1.441406-2.761719-2.160156zm0 0"/><path d="m181.1875 78.921875c1.128906.710937 2.265625 1.414063 3.359375 2.167969-1.09375-.761719-2.230469-1.457032-3.359375-2.167969zm0 0"/><path d="m201.730469 96.425781c.800781.933594 1.714843 1.832031 2.503906 2.804688-.789063-.972657-1.671875-1.871094-2.503906-2.804688zm0 0"/><path d="m214.90625 204.617188c-.4375.886718-.941406 1.71875-1.421875 2.574218.488281-.847656.96875-1.703125 1.421875-2.574218zm0 0"/><path d="m206.019531 218.535156c-.09375.128906-.207031.25-.304687.375.097656-.125.210937-.246094.304687-.375zm0 0"/></g><path d="m46.085938 440.5625 53.761718-198.183594 15.433594 4.1875-53.761719 198.183594zm0 0" fill="#1e81ce"/><path d="m303.613281 230.191406c23.871094-26.257812 32.777344-62.84375 23.648438-97.136718-10.027344-37.496094-40.121094-66.273438-78.027344-74.613282-12.46875-36.152344-36.414063-58.441406-63.308594-58.441406-26.335937 0-49.945312 21.464844-62.53125 56.328125-39.921875 2.527344-74.859375 27.730469-89.851562 64.820313-14.988281 37.09375-7.375 79.492187 19.582031 109.050781l-15.28125 57.234375 13.496094 34.542968-31.609375 24.421876 15.601562 34.898437-29.121093 23.910156-5.992188 22.625 44.410156 50.566407 63.734375-21.558594 53.792969-197.992188c5.609375-1.832031 11.050781-4.144531 16.265625-6.910156 5.441406 2.914062 11.132813 5.34375 17.007813 7.253906l15.292968 57.265625 28.976563 23.101563-15.0625 36.90625 30.953125 22.503906-13.242188 35.246094 5.992188 22.625 63.761718 21.601562 44.421876-50.585937zm-117.6875-214.191406c17.765625 0 34.796875 15.382812 45.300781 40.089844-10.5625-.445313-21.128906.71875-31.34375 3.453125-7.476562 2.003906-14.699218 4.851562-21.527343 8.496093-11.765625-6.242187-24.628907-10.148437-37.878907-11.503906 10.429688-24.925781 27.597657-40.535156 45.449219-40.535156zm-69.683593 124.390625c2.414062 15.171875 7.253906 29.859375 14.335937 43.488281-2.320313.09375-4.648437-.148437-6.902344-.71875-9.015625-2.394531-15.8125-9.816406-17.410156-19.003906-1.597656-9.191406 2.300781-18.46875 9.976563-23.765625zm29.386718 37.761719c-7.070312-13.050782-11.773437-27.253906-13.898437-41.945313.933593.035157 1.863281.128907 2.785156.28125l1.65625.351563c6.15625 1.632812 11.402344 5.652344 14.585937 11.167968 3.183594 5.515626 4.035157 12.070313 2.367188 18.214844-1.242188 4.640625-3.851562 8.800782-7.496094 11.929688zm7.847656 66.617187-4.390624 1.207031-53.921876 198.457032-45.550781 15.398437-31.746093-36.152343 2.488281-9.375 34.558593-28.402344-15.4375-34.542969 31.113282-24.054687-15.9375-40.800782 16.273437-60.976562-3.265625-3.253906c-23.695312-23.703126-31.871094-58.804688-21.085937-90.535157 10.785156-31.734375 38.65625-54.585937 71.886719-58.9375-3.046876 12.84375-4.570313 26-4.535157 39.199219 0 3.574219.167969 7.359375.40625 11.296875-15.710937 6.621094-25.476562 22.492187-24.308593 39.5 1.167968 17.007813 13.015624 31.394531 29.484374 35.804687 3.433594.929688 6.976563 1.398438 10.535157 1.398438 20.019531-.089844 36.886719-14.964844 39.484375-34.8125 2.59375-19.847656-9.882813-38.5625-29.203125-43.796875l-.855469-.214844c-.746094-.199219-1.5-.355469-2.265625-.472656-2.328125-.414063-4.6875-.625-7.054687-.625-.144532-2.789063-.222657-5.484375-.222657-8.078125.003907-13.417969 1.78125-26.777344 5.285157-39.726562 42.957031 2.5 77.792968 35.722656 82.324218 78.515624 4.53125 42.789063-22.578125 82.570313-64.058594 94.011719zm153.597657 215.0625-45.511719-15.390625-2.488281-9.378906 15.730469-41.878906-30.65625-22.289063 14.855468-36.382812-34.191406-27.3125-16.265625-60.953125-4.453125-1.199219c-3.382812-.945313-6.710938-2.082031-9.960938-3.40625 13.964844-10.980469 24.90625-25.332031 31.792969-41.703125.285157 0 .566407.078125.855469.078125 3.511719 0 7.011719-.472656 10.398438-1.40625 19.535156-5.226563 32.078124-24.230469 29.210937-44.25-2.871094-20.015625-20.25-34.726563-40.464844-34.253906-6.878906-16.378907-17.816406-30.734375-31.785156-41.707031 3.210937-1.316407 6.503906-2.4375 9.855469-3.351563 38.480468-10.347656 79.113281 6.449219 99.050781 40.949219 19.9375 34.503906 14.203125 78.097656-13.980469 106.269531l-3.261718 3.261719 53.039062 198.167968zm-76-323.398437c10.992187 2.074218 19.089843 11.464844 19.53125 22.636718.441406 11.175782-6.898438 21.171876-17.691407 24.105469-.566406.167969-1.191406.160157-1.78125.28125 3.667969-15.464843 3.648438-31.570312-.058593-47.023437zm0 0" fill="#1e81ce"/><path d="m246.972656 245.996094 15.453125-4.140625 53.007813 197.820312-15.453125 4.140625zm0 0" fill="#1e81ce"/></svg>