<svg height="480pt" viewBox="-8 0 480 480.05172" width="480pt" xmlns="http://www.w3.org/2000/svg"><g fill="#9bc9ff"><path d="m104.089844 232.050781c.007812-6.8125-1.4375-13.550781-4.242188-19.757812-4.558594-9.992188-12.371094-18.140625-22.160156-23.121094-17.722656-8.914063-39.101562-6.007813-53.804688 7.3125-14.699218 13.324219-19.6875 34.316406-12.554687 52.828125s24.921875 30.726562 44.761719 30.738281c2.519531-.007812 5.035156-.222656 7.519531-.640625 23.265625-3.753906 40.394531-23.792968 40.480469-47.359375zm0 0"/><path d="m147.128906 424.050781h-131.039062v48h304v-48zm0 0"/><path d="m280.089844 48.050781c0 22.09375-17.910156 40-40 40-22.09375 0-40-17.90625-40-40 0-22.089843 17.90625-40 40-40 22.089844 0 40 17.910157 40 40zm0 0"/><path d="m360.089844 72.050781c10.90625.03125 21.730468 1.925781 32 5.601563v-69.601563h-80v69.601563c10.269531-3.675782 21.089844-5.570313 32-5.601563zm0 0"/><path d="m392.089844 77.652344c-10.269532-3.675782-21.09375-5.570313-32-5.601563h-16c-52.953125.164063-95.839844 43.050781-96 96v48h208v-48c-.03125-40.648437-25.671875-76.863281-64-90.398437zm0 0"/></g><path d="m464.089844 168.050781c-.039063-41.972656-25.269532-79.820312-64-96v-71.9999998h-96v23.9999998h-22.496094c-12.113281-21.070312-38.078125-29.746093-60.425781-20.1875-22.347657 9.5625-34.003907 34.332031-27.128907 57.644531l-118.175781 118.175782c-20.992187-7.953125-44.707031-2.601563-60.25 13.601562-15.5390622 16.199219-19.90625 40.117188-11.085937 60.761719 8.816406 20.644531 29.113281 34.03125 51.5625 34.003906 1.007812 0 2.078125-.199219 3.117187-.261719l74.066407 128.261719h-125.183594v64h320v-64h-139.386719l-87.34375-151.199219c10.667969-14.601562 13.585937-33.472656 7.832031-50.617187l119.609375-119.582031c20.671875 5.128906 42.234375-4.101563 52.792969-22.601563h22.496094c-38.730469 16.179688-63.960938 54.027344-64 96v56h52.382812c13.257813 19.96875 35.632813 31.972657 59.601563 31.972657s46.34375-12.003907 59.597656-31.972657h52.417969zm-448 64c-.007813-13.882812 7.1875-26.777343 19.003906-34.066406 11.816406-7.285156 26.566406-7.925781 38.972656-1.683594 8.164063 4.160157 14.683594 10.960938 18.496094 19.296875 6.507812 14.417969 3.871094 31.320313-6.722656 43.070313l-.125.144531c-6.050782 6.8125-14.292969 11.300781-23.296875 12.6875h-.21875c-2.019531.34375-4.0625.527344-6.109375.550781-22.082032-.027343-39.972656-17.917969-40-40zm296 232h-288v-32h288zm-160.34375-48-76-131.582031c5.007812-1.878906 9.71875-4.476562 13.984375-7.703125l80.496093 139.285156zm-50.320313-216.648437c-3.140625-4.351563-6.882812-8.238282-11.113281-11.542969l111.273438-111.273437c3.191406 4.328124 7.085937 8.09375 11.519531 11.136718zm138.664063-119.351563c-17.675782 0-32-14.324219-32-32 0-17.671875 14.324218-32 32-32 17.671875 0 32 14.328125 32 32 0 17.675781-14.328125 32-32 32zm144-64v50.90625c-7.859375-1.902343-15.914063-2.875-24-2.90625h-16c-8.085938.03125-16.140625 1.003907-24 2.90625v-50.90625zm-96.722656 40c.960937-5.289062.960937-10.707031 0-16h16.722656v16zm64.722656 184c-14.628906-.019531-28.671875-5.761719-39.121094-16h78.238281c-10.449219 10.238281-24.488281 15.980469-39.117187 16zm96-32h-192v-40c.054687-48.578125 39.421875-87.941406 88-88h16c48.578125.058594 87.941406 39.421875 88 88zm0 0" fill="#1e81ce"/><path d="m416.089844 168.050781h16v16h-16zm0 0" fill="#1e81ce"/><path d="m360.089844 96.050781v16c25.464844 0 47.726562 17.179688 54.175781 41.816407l15.488281-4.046876c-8.308594-31.671874-36.925781-53.757812-69.664062-53.769531zm0 0" fill="#1e81ce"/></svg>