<svg height="488pt" viewBox="-20 0 488 488.01989" width="488pt" xmlns="http://www.w3.org/2000/svg"><path d="m168.011719 424.042969c0 8.835937 7.160156 16 16 16h80c8.835937 0 16-7.164063 16-16v-16h-112zm0 0" fill="#9bc9ff"/><path d="m168.011719 376.042969h112v32h-112zm0 0" fill="#9bc9ff"/><path d="m208.011719 344.042969h-40v32h112v-32zm0 0" fill="#9bc9ff"/><path d="m240.011719 183.5625c.0625-2.378906 1.246093-4.589844 3.199219-5.953125 10.394531-7.777344 15.0625-21.070313 11.808593-33.640625-2.867187-11.375-11.800781-20.226562-23.203125-22.992188-14.820312-3.769531-30.238281 3.472657-36.796875 17.289063-6.5625 13.8125-2.429687 30.339844 9.863281 39.441406 1.894532 1.285157 3.058594 3.40625 3.128907 5.695313v160.640625h32zm0 0" fill="#9bc9ff"/><g fill="#1e81ce"><path d="m285.816406 290.914062c62.683594-27.867187 98.933594-94.265624 88.476563-162.0625-10.457031-67.796874-65.027344-120.1875-133.195313-127.875-74.445312-8.484374-143.96875 38.546876-163.796875 110.800782-19.828125 72.257812 15.957031 148.183594 84.308594 178.878906 8.695313 3.84375 14.332031 12.425781 14.402344 21.929688v23.457031h-16v88c.03125 10.335937 6.691406 19.484375 16.519531 22.6875 3.316406 23.675781 23.570312 41.289062 47.480469 41.289062 23.90625 0 44.160156-17.613281 47.476562-41.289062 9.828125-3.203125 16.488281-12.351563 16.523438-22.6875v-88h-16v-23.457031c-.078125-9.316407 5.332031-17.804688 13.804687-21.671876zm-61.804687 181.128907c-14.550781-.054688-27.230469-9.914063-30.867188-24h61.730469c-3.636719 14.085937-16.316406 23.945312-30.863281 24zm48-48c0 4.417969-3.582031 8-8 8h-80c-4.421875 0-8-3.582031-8-8v-8h96zm0-24h-96v-16h96zm0-32h-96v-16h96zm-62.320313-196.800781c-5.984375-4.457032-9.550781-11.441407-9.660156-18.902344-.105469-7.457032 3.261719-14.542969 9.113281-19.167969 5.882813-4.667969 13.609375-6.308594 20.882813-4.441406 8.441406 2.109375 15.050781 8.667969 17.222656 17.09375 2.527344 9.484375-.972656 19.550781-8.839844 25.417969-3.96875 2.867187-6.34375 7.449218-6.398437 12.34375v152.457031h-16v-152.640625c-.039063-4.832032-2.386719-9.355469-6.320313-12.160156zm38.320313 164.800781v-152c12.347656-9.253907 18.273437-24.789063 15.222656-39.917969s-14.53125-27.15625-29.503906-30.898438c-12.035157-2.960937-24.761719-.21875-34.503907 7.4375-9.738281 7.695313-15.355468 19.472657-15.199218 31.882813.152344 12.410156 6.058594 24.042969 15.984375 31.496094v152h-8v-23.457031c-.066407-15.804688-9.382813-30.105469-23.816407-36.542969-58.511718-26.332031-90.664062-89.976563-77.132812-152.695313 13.527344-62.722656 69.050781-107.457031 133.214844-107.328125 64.164062.132813 119.507812 45.089844 132.785156 107.863281 13.273438 62.773438-19.132812 126.289063-77.75 152.382813-14.253906 6.449219-23.382812 20.675781-23.300781 36.320313v23.457031zm0 0"/><path d="m400.011719 136.042969h48v16h-48zm0 0"/><path d="m391.945312 90.757812 46.363282-12.425781 4.140625 15.457031-46.363281 12.421876zm0 0"/><path d="m391.9375 197.320312 4.140625-15.453124 46.367187 12.421874-4.140624 15.453126zm0 0"/><path d="m372.429688 238.96875 8-13.855469 41.570312 24-8 13.855469zm0 0"/><path d="m372.433594 49.113281 41.570312-23.996093 8 13.855468-41.574218 23.996094zm0 0"/><path d="m.0117188 136.042969h48.0000002v16h-48.0000002zm0 0"/><path d="m5.574219 93.792969 4.140625-15.453125 46.363281 12.417968-4.140625 15.457032zm0 0"/><path d="m5.570312 194.292969 46.363282-12.425781 4.140625 15.457031-46.363281 12.421875zm0 0"/><path d="m26.019531 249.109375 41.574219-23.996094 7.996094 13.855469-41.570313 23.996094zm0 0"/><path d="m26.015625 38.972656 8-13.855468 41.566406 24-8 13.855468zm0 0"/></g></svg>