<svg height="480pt" viewBox="0 -48 480 480" width="480pt" xmlns="http://www.w3.org/2000/svg"><path d="m40 376h400c17.671875 0 32-14.328125 32-32v-32h-184l-16 24h-64l-16-24h-184v32c0 17.671875 14.328125 32 32 32zm0 0" fill="#9bc9ff"/><path d="m24 8v304h432v-304zm400 256h-368v-224h368zm0 0" fill="#9bc9ff"/><path d="m208 336h64l16-24h-96zm0 0" fill="#9bc9ff"/><g fill="#1e81ce"><path d="m464 304v-304h-448v304h-16v40c.0273438 22.082031 17.917969 39.972656 40 40h400c22.082031-.027344 39.972656-17.917969 40-40v-40zm-432-288h416v288h-416zm241.046875 304-5.328125 8h-55.4375l-5.328125-8zm190.953125 24c0 13.253906-10.746094 24-24 24h-400c-13.253906 0-24-10.746094-24-24v-24h171.71875l16 24h72.5625l16-24h171.71875zm0 0"/><path d="m432 32h-384v240h384zm-16 224h-352v-208h352zm0 0"/><path d="m224 280h32v16h-32zm0 0"/><path d="m74.34375 154.347656 72-72 11.3125 11.3125-72 72zm0 0"/><path d="m66.347656 122.34375 72-72 11.3125 11.3125-72 72zm0 0"/><path d="m154.34375 74.34375 15.996094-16 11.316406 11.3125-16 16zm0 0"/></g></svg>