<svg height="480pt" viewBox="-48 0 480 480.07858" width="480pt" xmlns="http://www.w3.org/2000/svg"><path d="m8.039062 248.078125v88c0 75.109375 60.890626 136 136 136 75.109376 0 136-60.890625 136-136v-88zm0 0" fill="#9bc9ff"/><path d="m8.039062 224.078125v24h272v-24c0-75.109375-60.890624-136-136-136-75.109374 0-136 60.890625-136 136zm120-88c0-8.835937 7.164063-16 16-16 8.835938 0 16 7.164063 16 16v64c0 8.835937-7.164062 16-16 16-8.835937 0-16-7.164063-16-16zm0 0" fill="#9bc9ff"/><g fill="#1e81ce"><path d="m144.039062 448.078125v-16c52.996094-.058594 95.941407-43.003906 96-96h16c-.066406 61.828125-50.171874 111.933594-112 112zm0 0"/><path d="m120.039062 136.078125v64c0 13.253906 10.746094 24 24 24 13.253907 0 24-10.746094 24-24v-64c0-13.253906-10.746093-24-24-24-13.253906 0-24 10.746094-24 24zm32 0v64c0 4.417969-3.582031 8-8 8-4.417968 0-8-3.582031-8-8v-64c0-4.417969 3.582032-8 8-8 4.417969 0 8 3.582031 8 8zm0 0"/><path d="m360.039062 160.078125c-30.914062-.035156-55.964843-25.085937-56-56v-20c.074219-45.710937-36.441406-83.078125-82.140624-84.0585938-45.699219-.9843752-83.785157 34.7812498-85.675782 80.4492188-76.292968 4.179688-136.054687 67.199219-136.1835935 143.609375v112c0 79.53125 64.4726565 144 143.9999995 144 79.527344 0 144-64.46875 144-144v-112c-.125-76.265625-59.671874-139.222656-135.816406-143.582031 1.875-36.835938 32.789063-65.449219 69.65625-64.476563 36.867188.972657 66.230469 31.179688 66.160156 68.058594v20c.046876 39.746094 32.253907 71.953125 72 72h24v-16zm-216 304c-70.65625-.082031-127.914062-57.34375-128-128v-80h256v80c-.082031 70.65625-57.34375 127.917969-128 128zm128-240v16h-256v-16c0-70.691406 57.308594-128 128-128 70.691407 0 128 57.308594 128 128zm0 0"/><path d="m240.039062 304.078125h16v16h-16zm0 0"/></g></svg>