<svg height="480pt" viewBox="0 0 480 480" width="480pt" xmlns="http://www.w3.org/2000/svg"><path d="m280 424v-160h-272v160c0 26.507812 21.492188 48 48 48h272c-26.507812 0-48-21.492188-48-48zm0 0" fill="#9bc9ff"/><path d="m280 104h-272v64h272zm0 0" fill="#9bc9ff"/><path d="m424 8c-26.507812 0-48 21.492188-48 48v48h96v-48c-.039062-26.492188-21.507812-47.960938-48-48zm0 0" fill="#9bc9ff"/><g fill="#1e81ce"><path d="m480 56c-.039062-30.910156-25.089844-55.9609375-56-56h-304c-30.910156.0390625-55.960938 25.089844-56 56v40h-64v328c.0390625 30.910156 25.089844 55.960938 56 56h272c30.910156-.039062 55.960938-25.089844 56-56v-312h96zm-464 56h256v48h-256zm256 144h-256v-80h256zm-216 208c-22.082031-.027344-39.972656-17.917969-40-40v-152h256v152c-.019531 15.050781 6.039062 29.476562 16.800781 40zm312-40c0 22.089844-17.910156 40-40 40s-40-17.910156-40-40v-328h-208v-40c.027344-22.082031 17.917969-39.972656 40-40h264.800781c-10.761719 10.523438-16.820312 24.949219-16.800781 40zm96-328h-80v-40c.027344-22.082031 17.917969-39.972656 40-40 22.074219.039062 39.960938 17.925781 40 40zm0 0"/><path d="m48 214.105469 28.28125 33.894531h11.71875v-64h-16v33.894531l-28.199219-33.894531h-11.800781v64h16zm0 0"/><path d="m136 232h-24v-8h24v-16h-24v-8h24v-16h-40v64h40zm0 0"/><path d="m208 184h-16v48h-8v-32h-16v32h-8v-48h-16v64h64zm0 0"/><path d="m256 208h-24v-8h24v-16h-40v40h24v8h-24v16h40zm0 0"/><path d="m48 320h16v16h-16zm0 0"/><path d="m80 320h160v16h-160zm0 0"/><path d="m48 352h16v16h-16zm0 0"/><path d="m80 352h80v16h-80zm0 0"/><path d="m176 352h64v16h-64zm0 0"/><path d="m48 384h80v16h-80zm0 0"/><path d="m144 384h96v16h-96zm0 0"/><path d="m48 416h136v16h-136zm0 0"/><path d="m200 416h40v16h-40zm0 0"/><path d="m128 32h16v16h-16zm0 0"/><path d="m160 32h176v16h-176zm0 0"/><path d="m128 64h16v16h-16zm0 0"/><path d="m160 64h80v16h-80zm0 0"/><path d="m256 64h48v16h-48zm0 0"/><path d="m296 96h40v16h-40zm0 0"/><path d="m296 128h40v16h-40zm0 0"/><path d="m296 192h40v16h-40zm0 0"/><path d="m296 224h40v16h-40zm0 0"/><path d="m296 384h40v16h-40zm0 0"/><path d="m296 416h40v16h-40zm0 0"/><path d="m296 352h16v16h-16zm0 0"/><path d="m320 352h16v16h-16zm0 0"/><path d="m296 256h40v16h-40zm0 0"/><path d="m296 160h16v16h-16zm0 0"/><path d="m320 160h16v16h-16zm0 0"/><path d="m320 64h16v16h-16zm0 0"/></g></svg>