<svg height="480pt" viewBox="-28 0 480 480" width="480pt" xmlns="http://www.w3.org/2000/svg"><path d="m32 8v464h64v-464zm0 0" fill="#9bc9ff"/><g fill="#1e81ce"><path d="m24 0v40h-24v16h24v32h-24v16h24v32h-24v16h24v32h-24v16h24v32h-24v16h24v32h-24v16h24v32h-24v16h24v32h-24v16h24v32h-24v16h24v40h400v-480zm64 464h-48v-24h24v-16h-24v-32h24v-16h-24v-32h24v-16h-24v-32h24v-16h-24v-32h24v-16h-24v-32h24v-16h-24v-32h24v-16h-24v-32h24v-16h-24v-32h24v-16h-24v-24h48zm320 0h-304v-448h304zm0 0"/><path d="m152 64h16v16h-16zm0 0"/><path d="m184 64h176v16h-176zm0 0"/><path d="m152 112h72v16h-72zm0 0"/><path d="m240 112h120v16h-120zm0 0"/><path d="m152 160h16v16h-16zm0 0"/><path d="m152 256h16v16h-16zm0 0"/><path d="m240 208h16v16h-16zm0 0"/><path d="m184 160h176v16h-176zm0 0"/><path d="m152 208h72v16h-72zm0 0"/><path d="m344 256h16v16h-16zm0 0"/><path d="m312 304h48v16h-48zm0 0"/><path d="m344 400h16v16h-16zm0 0"/><path d="m152 400h16v16h-16zm0 0"/><path d="m272 208h88v16h-88zm0 0"/><path d="m184 256h128v16h-128zm0 0"/><path d="m152 304h144v16h-144zm0 0"/><path d="m152 352h208v16h-208zm0 0"/><path d="m184 400h128v16h-128zm0 0"/></g></svg>