<svg height="480pt" viewBox="-40 0 480 480" width="480pt" xmlns="http://www.w3.org/2000/svg"><path d="m344 32h-336v64h384v-64zm0 0" fill="#9bc9ff"/><g fill="#1e81ce"><path d="m400 24h-48v-24h-16v24h-32v-24h-16v24h-32v-24h-16v24h-32v-24h-16v24h-32v-24h-16v24h-32v-24h-16v24h-32v-24h-16v24h-48v80h16v376h368v-376h16zm-32 440h-336v-360h336zm16-376h-368v-48h32v24h16v-24h32v24h16v-24h32v24h16v-24h32v24h16v-24h32v24h16v-24h32v24h16v-24h32v24h16v-24h32zm0 0"/><path d="m80 136h16v16h-16zm0 0"/><path d="m112 136h208v16h-208zm0 0"/><path d="m80 184h88v16h-88zm0 0"/><path d="m184 184h136v16h-136zm0 0"/><path d="m80 232h16v16h-16zm0 0"/><path d="m80 328h16v16h-16zm0 0"/><path d="m184 280h16v16h-16zm0 0"/><path d="m112 232h208v16h-208zm0 0"/><path d="m80 280h88v16h-88zm0 0"/><path d="m304 328h16v16h-16zm0 0"/><path d="m256 376h64v16h-64zm0 0"/><path d="m272 424h48v16h-48zm0 0"/><path d="m80 424h16v16h-16zm0 0"/><path d="m216 280h104v16h-104zm0 0"/><path d="m112 328h176v16h-176zm0 0"/><path d="m80 376h160v16h-160zm0 0"/><path d="m112 424h144v16h-144zm0 0"/></g></svg>