<svg height="480pt" viewBox="-56 0 480 480" width="480pt" xmlns="http://www.w3.org/2000/svg"><g fill="#9bc9ff"><path d="m136 40v-32h-96v32zm0 0"/><path d="m149.648438 224h-123.296876l-11.296874 128h145.890624zm0 0"/><path d="m120 72h-64l-24 88h112zm0 0"/><path d="m8 432h160v40h-160zm0 0"/><path d="m232 440v32h96v-32zm0 0"/><path d="m320.945312 128h-113.890624l11.296874 128h123.296876l11.296874-128zm0 0"/><path d="m248 408h64l24-88h-112zm0 0"/><path d="m200 8h160v40h-160zm0 0"/></g><path d="m175.320312 424-23.320312-264.703125-24-88.328125v-22.96875h16v-48h-112v48h16v22.9375l-23.71875 86.957031-23.59375 266.105469-.6875 16v40h176v-40zm-38.648437-256 4.238281 48h-105.820312l4.238281-48zm-94.199219-16 19.640625-72h51.773438l19.640625 72zm5.527344-136h80v16h-80zm64 32v16h-48v-16zm-78.320312 184h108.640624l9.886719 112h-15.941406l-5.714844-64.742188-15.933593 1.40625 5.597656 63.335938h-96.421875zm-11.28125 128h131.203124l5.644532 64h-142.511719zm137.601562 104h-144v-24h144zm0 0" fill="#1e81ce"/><path d="m111.8125 248.878906 15.9375-1.40625 1.367188 15.492188-15.9375 1.40625zm0 0" fill="#1e81ce"/><path d="m303.808594 231.125 1.367187-15.492188 15.9375 1.40625-1.367187 15.492188zm0 0" fill="#1e81ce"/><path d="m368 40v-40h-176v40l.679688 16 23.320312 264.703125 24 88.328125v22.96875h-16v48h112v-48h-16v-22.9375l23.71875-86.957031 23.59375-266.105469zm-160-24h144v24h-144zm23.328125 296-4.238281-48h105.820312l-4.238281 48zm94.199219 16-19.640625 72h-51.773438l-19.640625-72zm-5.527344 136h-80v-16h80zm-64-32v-16h48v16zm78.320312-184h-108.640624l-9.886719-112h96.40625l-5.597657 63.335938 15.933594 1.40625 5.730469-64.742188h15.941406zm11.28125-128h-131.203124l-5.644532-64h142.511719zm0 0" fill="#1e81ce"/></svg>