<svg height="480pt" viewBox="0 0 480 480" width="480pt" xmlns="http://www.w3.org/2000/svg"><g fill="#9bc9ff"><path d="m207.761719 385.359375-56.5625 56.5625c-1.085938 1.125-2.234375 2.195313-3.4375 3.199219l-.082031.078125c-15.171876 17.019531-36.878907 26.765625-59.679688 26.800781h128v-94.878906zm0 0"/><path d="m309.601562 57.28125.003907-.003906 113.121093 113.117187-.003906.007813zm0 0"/><path d="m168 312v80c.011719 15.71875-4.636719 31.085938-13.359375 44.160156-2.089844 3.140625-4.386719 6.132813-6.878906 8.960938 1.203125-1.003906 2.351562-2.074219 3.4375-3.199219l90.480469-90.480469-73.679688-73.679687zm0 0"/><path d="m147.679688 445.199219.082031-.078125c2.492187-2.828125 4.789062-5.820313 6.878906-8.960938 8.722656-13.074218 13.371094-28.441406 13.359375-44.160156v-32h-160v32c0 44.183594 35.816406 80 80 80 22.800781-.035156 44.507812-9.78125 59.679688-26.800781zm-59.679688-5.199219c-8.835938 0-16-7.164062-16-16s7.164062-16 16-16 16 7.164062 16 16-7.164062 16-16 16zm0 0"/><path d="m8 88h160v80h-160zm0 0"/><path d="m168 312v-48h-160v96h160zm0 0"/><path d="m253.039062 113.839844 56.5625-56.558594-.015624-.007812-56.570313 56.566406.007813.015625zm0 0"/><path d="m366.144531 226.976562.015625.007813 56.566406-56.570313-.007812-.015624-56.558594 56.5625zm0 0"/><path d="m196.460938 170.425781.023437-.023437 113.121094 113.121094-.023438.019531zm0 0"/><path d="m309.601562 283.519531-.027343.023438.011719.007812 56.574218-56.566406-.015625-.007813zm0 0"/><path d="m196.476562 170.398438 56.542969-56.546876 113.121094 113.121094-56.546875 56.546875zm0 0"/><path d="m253.023438 113.855469-.007813-.015625-56.566406 56.574218.007812.011719.023438-.027343zm0 0"/><path d="m312 312h80v160h-80zm0 0"/></g><path d="m88 400c-13.253906 0-24 10.746094-24 24s10.746094 24 24 24 24-10.746094 24-24-10.746094-24-24-24zm0 32c-4.417969 0-8-3.582031-8-8s3.582031-8 8-8 8 3.582031 8 8-3.582031 8-8 8zm0 0" fill="#1e81ce"/><path d="m300.433594 304 133.597656-133.601562-124.429688-124.429688-133.601562 133.597656v-179.566406h-176v392c.0585938 48.578125 39.421875 87.941406 88 88h392v-176zm9.167968-235.398438 101.796876 101.796876-45.253907 45.257812-101.800781-101.800781zm45.230469 158.398438-45.230469 45.207031-101.808593-101.808593 45.238281-45.230469zm-178.832031-24.808594 20.457031-20.457031 101.808594 101.808594-56.585937 56.585937-65.679688-65.679687zm0 94.878906 54.398438 54.402344-55.871094 55.871094c.941406-5.0625 1.433594-10.195312 1.472656-15.34375zm-160-281.070312h144v64h-144zm0 80h144v64h-144zm0 80h144v80h-144zm144 96v80h-144v-80zm-144 120v-24h144v24c0 5.796875-.699219 11.570312-2.089844 17.199219-1.964844 8.027343-5.320312 15.648437-9.910156 22.519531-1.90625 2.867188-4.003906 5.59375-6.289062 8.167969-6.914063 7.753906-15.417969 13.917969-24.933594 18.082031-9.0625 4.007812-18.867188 6.0625-28.777344 6.03125-39.746094-.046875-71.953125-32.253906-72-72zm122.398438 72c5.480468-3.824219 10.511718-8.253906 14.992187-13.207031 1.152344-.984375 2.28125-2.023438 3.472656-3.199219l51.136719-51.160156v67.566406zm85.601562 0v-83.566406l60.433594-60.433594h19.566406v144zm96 0v-144h64v144zm144 0h-64v-144h64zm0 0" fill="#1e81ce"/></svg>