<svg height="480pt" viewBox="-84 0 480 480" width="480pt" xmlns="http://www.w3.org/2000/svg"><g fill="#9bc9ff"><path d="m40 56v48h64v-48zm0 0"/><path d="m40 104h64v160h-64zm0 0"/><path d="m40 400 32 56 32-56v-8h-64zm0 0"/></g><path d="m96 0h-48v48h-16v48h-32v104h16v-88h16v290.128906l32 56v21.871094h16v-21.871094l32-56v-354.128906h-16zm-32 16h16v32h-16zm8 423.871094-22.792969-39.871094h45.601563zm24-55.871094h-48v-16h48zm0-32h-48v-16h48zm0-32h-48v-16h48zm0-32h-48v-16h48zm0-32h-48v-144h48zm0-160h-48v-32h48zm0 0" fill="#1e81ce"/><path d="m128 464h184v16h-184zm0 0" fill="#1e81ce"/><path d="m96 464h16v16h-16zm0 0" fill="#1e81ce"/></svg>