<svg height="480pt" viewBox="-40 0 480 480" width="480pt" xmlns="http://www.w3.org/2000/svg"><path d="m264 136h-208v-80h208v-48h-256v464h256zm-56 288h-80l-40-32v-176l40-32h72v64h-44l-20 16v80l15.761719 16h56.238281zm0 0" fill="#9bc9ff"/><path d="m344 56v80h-48v336h64c17.671875 0 32-14.328125 32-32v-400c0-17.671875-14.328125-32-32-32h-64v48zm0 0" fill="#9bc9ff"/><g fill="#1e81ce"><path d="m360 0h-360v480h360c22.082031-.027344 39.972656-17.917969 40-40v-400c-.027344-22.082031-17.917969-39.9726562-40-40zm-56 64h32v64h-32zm-288 400v-448h240v32h-208v96h208v320zm240-336h-192v-64h192zm32 336h-16v-448h16zm96-24c0 13.253906-10.746094 24-24 24h-56v-320h48v-96h-48v-32h56c13.253906 0 24 10.746094 24 24zm0 0"/><path d="m155.113281 352-11.113281-11.28125v-72.878906l14.808594-11.839844h57.191406v-80h-90.808594l-45.191406 36.160156v183.679688l45.191406 36.160156h90.808594v-80zm36.886719-160h8v48h-8zm-16 224h-45.191406l-34.808594-27.839844v-168.320312l34.808594-27.839844h45.191406v48h-22.808594l-25.191406 20.160156v87.121094l20.40625 20.71875h27.59375zm24-48v48h-8v-48zm0 0"/></g></svg>