<svg height="480pt" viewBox="-96 0 480 480" width="480pt" xmlns="http://www.w3.org/2000/svg"><path d="m208 8h-128c-17.671875 0-32 14.328125-32 32v336h192v-336c0-17.671875-14.328125-32-32-32zm-64 208c-17.671875 0-32-14.328125-32-32s14.328125-32 32-32 32 14.328125 32 32-14.328125 32-32 32zm64-96h-128v-48h128zm0 0" fill="#9bc9ff"/><g fill="#1e81ce"><path d="m248 368v-328c-.027344-22.082031-17.917969-39.9726562-40-40h-128c-22.082031.0273438-39.972656 17.917969-40 40v328h-40v72c.0273438 22.082031 17.917969 39.972656 40 40h208c22.082031-.027344 39.972656-17.917969 40-40v-72zm-192-328c0-13.253906 10.746094-24 24-24h128c13.253906 0 24 10.746094 24 24v328h-176zm216 400c0 13.253906-10.746094 24-24 24h-208c-13.253906 0-24-10.746094-24-24v-56h256zm0 0"/><path d="m128 32h32v16h-32zm0 0"/><path d="m72 128h144v-64h-144zm16-48h112v32h-112zm0 0"/><path d="m144 144c-22.089844 0-40 17.910156-40 40s17.910156 40 40 40 40-17.910156 40-40c-.027344-22.082031-17.917969-39.972656-40-40zm0 64c-13.253906 0-24-10.746094-24-24s10.746094-24 24-24 24 10.746094 24 24-10.746094 24-24 24zm0 0"/><path d="m80 240h32v16h-32zm0 0"/><path d="m128 240h32v16h-32zm0 0"/><path d="m176 240h32v16h-32zm0 0"/><path d="m80 272h32v16h-32zm0 0"/><path d="m128 272h32v16h-32zm0 0"/><path d="m176 272h32v16h-32zm0 0"/><path d="m80 304h32v16h-32zm0 0"/><path d="m128 304h32v16h-32zm0 0"/><path d="m176 304h32v16h-32zm0 0"/><path d="m80 336h32v16h-32zm0 0"/><path d="m128 336h32v16h-32zm0 0"/><path d="m176 336h32v16h-32zm0 0"/><path d="m32 416h192v16h-192zm0 0"/><path d="m240 416h16v16h-16zm0 0"/></g></svg>