<svg height="480pt" viewBox="0 -1 480 479" width="480pt" xmlns="http://www.w3.org/2000/svg"><g fill="#9bc9ff"><path d="m8 40.5h464v-32h-464zm0 0"/><path d="m8 272.5v32h464v-32zm0 0"/><path d="m216 336.5h48v-32h-48zm0 0"/></g><path d="m58.347656 234.84375 16-16 11.3125 11.316406-16 15.996094zm0 0" fill="#1e81ce"/><path d="m480 48.5v-48h-480v48h16v216h-16v48h208v21.289062l-102.351562 133.855469 12.703124 9.710938 101.601563-132.855469h12.046875v112h16v-112h12.046875l101.601563 132.855469 12.703124-9.710938-102.351562-133.855469v-21.289062h208v-48h-16v-216zm-464-32h448v16h-448zm240 312h-32v-16h32zm208-32h-448v-16h448zm-16-32h-416v-216h416zm0 0" fill="#1e81ce"/><path d="m176 139.8125 88 88 120-120v44.6875h16v-72h-72v16h44.6875l-108.6875 108.6875-88-88-93.65625 93.65625 11.3125 11.3125zm0 0" fill="#1e81ce"/></svg>