<svg height="480pt" viewBox="0 -31 480 479" width="480pt" xmlns="http://www.w3.org/2000/svg"><path d="m24 344.5h-16v64h464v-64zm0 0" fill="#9bc9ff"/><path d="m56 264.5h88v-112c0-8.835938 7.164062-16 16-16h160c8.835938 0 16 7.164062 16 16v112h88c17.671875 0 32-14.328125 32-32v-192c0-17.671875-14.328125-32-32-32h-368c-17.671875 0-32 14.328125-32 32v192c0 17.671875 14.328125 32 32 32zm336-56c8.835938 0 16 7.164062 16 16s-7.164062 16-16 16-16-7.164062-16-16 7.164062-16 16-16zm-304 0c8.835938 0 16 7.164062 16 16s-7.164062 16-16 16-16-7.164062-16-16 7.164062-16 16-16zm0 0" fill="#9bc9ff"/><g fill="#1e81ce"><path d="m464 336.5v-24h-448v24h-16v80h480v-80zm-432-8h416v8h-416zm432 72h-448v-48h448zm0 0"/><path d="m56 272.5v35.046875l32.328125-10.613281 31.671875 10.71875v-35.152344h32v-40h176v40h32v35.046875l32.328125-10.613281 31.671875 10.71875v-35.152344c22.082031-.027344 39.972656-17.917969 40-40v-192c-.027344-22.082031-17.917969-39.972656-40-40h-368c-22.082031.027344-39.972656 17.917969-40 40v192c.027344 22.082031 17.917969 39.972656 40 40zm48 12.847656-15.59375-5.28125-16.40625 5.386719v-12.953125h32zm48-68.847656v-64c0-4.417969 3.582031-8 8-8h160c4.417969 0 8 3.582031 8 8v64zm256 68.847656-15.59375-5.28125-16.40625 5.386719v-12.953125h32zm-376-244.847656c0-13.253906 10.746094-24 24-24h368c13.253906 0 24 10.746094 24 24v192c0 13.253906-10.746094 24-24 24h-80v-104c0-13.253906-10.746094-24-24-24h-160c-13.253906 0-24 10.746094-24 24v104h-80c-13.253906 0-24-10.746094-24-24zm0 0"/><path d="m88 248.5c13.253906 0 24-10.746094 24-24s-10.746094-24-24-24-24 10.746094-24 24 10.746094 24 24 24zm0-32c4.417969 0 8 3.582031 8 8s-3.582031 8-8 8-8-3.582031-8-8 3.582031-8 8-8zm0 0"/><path d="m392 248.5c13.253906 0 24-10.746094 24-24s-10.746094-24-24-24-24 10.746094-24 24 10.746094 24 24 24zm0-32c4.417969 0 8 3.582031 8 8s-3.582031 8-8 8-8-3.582031-8-8 3.582031-8 8-8zm0 0"/></g></svg>