<svg height="491.312pt" viewBox="0 0 491.312 491.312" width="491.312pt" xmlns="http://www.w3.org/2000/svg"><path d="m385.070312 117.550781-22.636718 22.640625-158.402344 158.402344-22.640625 22.636719-22.636719 22.640625-139.441406 139.441406h464v-464zm18.242188 285.761719h-190.863281l190.863281-190.863281zm0 0" fill="#9bc9ff"/><g fill="#1e81ce"><path d="m0 491.3125h491.3125v-491.3125zm475.3125-16h-436.6875l52.246094-52.25 26.304687 26.304688 11.3125-11.3125-26.304687-26.300782 11.328125-11.328125 15.023437 15.023438 11.3125-11.335938-15.023437-15.023437 11.328125-11.328125 26.304687 26.351562 11.3125-11.3125-26.304687-26.289062 11.289062-11.289063 14.957032 14.945313 11.3125-11.3125-14.960938-14.984375 11.335938-11.335938 26.34375 26.28125 11.296874-11.328125-26.328124-26.265625 11.320312-11.320312 14.984375 15.007812 11.3125-11.308594-15.015625-15.007812 11.320312-11.320312 26.277344 26.328124 11.328125-11.296874-26.277343-26.34375 11.335937-11.335938 14.984375 14.984375 11.3125-11.3125-14.96875-14.984375 11.285156-11.289062 26.304688 26.304687 11.3125-11.3125-26.304688-26.304687 11.328125-11.328126 15.023438 15.023438 11.335937-11.308594-15.046875-14.984375 11.328125-11.328125 26.304688 26.304688 11.3125-11.3125-26.304688-26.304688 11.289063-11.289062 14.984375 14.984375 11.3125-11.3125-14.984375-15.023438 11.320312-11.320312 26.261719 26.328125 11.328125-11.328125-26.304687-26.3125 11.335937-11.335938 14.984375 14.984375 11.3125-11.3125-14.960938-14.984375 11.289063-11.285156 26.304687 26.300781 11.3125-11.308594-26.304687-26.304687 56.328125-56.328125zm0 0"/><path d="m411.3125 411.3125v-218.175781l-218.175781 218.175781zm-16-16h-163.550781l163.550781-163.550781zm0 0"/></g></svg>