<svg height="480pt" viewBox="-40 0 480 480" width="480pt" xmlns="http://www.w3.org/2000/svg"><path d="m8 8v128h384v-128zm352 88h-160v-48h160zm0 0" fill="#9bc9ff"/><path d="m344 176h-336v128h384v-128zm16 88h-160v-48h160zm0 0" fill="#9bc9ff"/><path d="m344 344h-336v128h384v-128zm16 88h-160v-48h160zm0 0" fill="#9bc9ff"/><g fill="#1e81ce"><path d="m400 144v-144h-400v144h48v24h-48v144h48v24h-48v144h400v-144h-48v-24h48v-144h-48v-24zm-384-16v-112h368v112zm288 16v24h-208v-24zm-240 0h16v24h-16zm0 168h16v24h-16zm32 0h208v24h-208zm288 40v112h-368v-112zm-48-16h-16v-24h16zm48-152v112h-368v-112zm-48-16h-16v-24h16zm0 0"/><path d="m32 40h16v16h-16zm0 0"/><path d="m64 40h16v16h-16zm0 0"/><path d="m96 40h16v16h-16zm0 0"/><path d="m128 40h16v16h-16zm0 0"/><path d="m160 40h16v16h-16zm0 0"/><path d="m32 64h16v16h-16zm0 0"/><path d="m64 64h16v16h-16zm0 0"/><path d="m96 64h16v16h-16zm0 0"/><path d="m128 64h16v16h-16zm0 0"/><path d="m160 64h16v16h-16zm0 0"/><path d="m32 88h16v16h-16zm0 0"/><path d="m64 88h16v16h-16zm0 0"/><path d="m96 88h16v16h-16zm0 0"/><path d="m128 88h16v16h-16zm0 0"/><path d="m160 88h16v16h-16zm0 0"/><path d="m368 40h-176v64h176zm-16 48h-144v-32h144zm0 0"/><path d="m32 208h16v16h-16zm0 0"/><path d="m64 208h16v16h-16zm0 0"/><path d="m96 208h16v16h-16zm0 0"/><path d="m128 208h16v16h-16zm0 0"/><path d="m160 208h16v16h-16zm0 0"/><path d="m32 232h16v16h-16zm0 0"/><path d="m64 232h16v16h-16zm0 0"/><path d="m96 232h16v16h-16zm0 0"/><path d="m128 232h16v16h-16zm0 0"/><path d="m160 232h16v16h-16zm0 0"/><path d="m32 256h16v16h-16zm0 0"/><path d="m64 256h16v16h-16zm0 0"/><path d="m96 256h16v16h-16zm0 0"/><path d="m128 256h16v16h-16zm0 0"/><path d="m160 256h16v16h-16zm0 0"/><path d="m192 272h176v-64h-176zm16-48h144v32h-144zm0 0"/><path d="m32 376h16v16h-16zm0 0"/><path d="m64 376h16v16h-16zm0 0"/><path d="m96 376h16v16h-16zm0 0"/><path d="m128 376h16v16h-16zm0 0"/><path d="m160 376h16v16h-16zm0 0"/><path d="m32 400h16v16h-16zm0 0"/><path d="m64 400h16v16h-16zm0 0"/><path d="m96 400h16v16h-16zm0 0"/><path d="m128 400h16v16h-16zm0 0"/><path d="m160 400h16v16h-16zm0 0"/><path d="m32 424h16v16h-16zm0 0"/><path d="m64 424h16v16h-16zm0 0"/><path d="m96 424h16v16h-16zm0 0"/><path d="m128 424h16v16h-16zm0 0"/><path d="m160 424h16v16h-16zm0 0"/><path d="m192 440h176v-64h-176zm16-48h144v32h-144zm0 0"/><path d="m224 64h16v16h-16zm0 0"/><path d="m256 64h16v16h-16zm0 0"/><path d="m288 64h16v16h-16zm0 0"/><path d="m320 64h16v16h-16zm0 0"/><path d="m224 232h16v16h-16zm0 0"/><path d="m256 232h16v16h-16zm0 0"/><path d="m288 232h16v16h-16zm0 0"/><path d="m320 232h16v16h-16zm0 0"/><path d="m224 400h16v16h-16zm0 0"/><path d="m256 400h16v16h-16zm0 0"/><path d="m288 400h16v16h-16zm0 0"/><path d="m320 400h16v16h-16zm0 0"/></g></svg>