<svg height="480pt" viewBox="-96 0 480 480" width="480pt" xmlns="http://www.w3.org/2000/svg"><path d="m40 472h208c17.671875 0 32-14.328125 32-32v-48h-272v48c0 17.671875 14.328125 32 32 32zm88-56h32v32h-32zm0 0" fill="#9bc9ff"/><path d="m80 48h128c8.835938 0 16-7.164062 16-16v-24h-160v24c0 8.835938 7.164062 16 16 16zm0 0" fill="#9bc9ff"/><g fill="#1e81ce"><path d="m248 0h-208c-22.082031.0273438-39.9726562 17.917969-40 40v400c.0273438 22.082031 17.917969 39.972656 40 40h208c22.082031-.027344 39.972656-17.917969 40-40v-400c-.027344-22.082031-17.917969-39.9726562-40-40zm-32 16v16c0 4.417969-3.582031 8-8 8h-128c-4.417969 0-8-3.582031-8-8v-16zm-176 0h16v16c0 13.253906 10.746094 24 24 24h128c13.253906 0 24-10.746094 24-24v-16h16c13.253906 0 24 10.746094 24 24v344h-256v-344c0-13.253906 10.746094-24 24-24zm208 448h-208c-13.253906 0-24-10.746094-24-24v-40h256v40c0 13.253906-10.746094 24-24 24zm0 0"/><path d="m34.339844 170.339844 72-72 11.3125 11.3125-72 72zm0 0"/><path d="m26.34375 138.34375 72-72 11.3125 11.316406-72 72zm0 0"/><path d="m114.339844 90.34375 16-15.996094 11.3125 11.3125-15.996094 15.996094zm0 0"/><path d="m120 456h48v-48h-48zm16-32h16v16h-16zm0 0"/></g></svg>