<svg height="480pt" viewBox="-95 0 480 480" width="480pt" xmlns="http://www.w3.org/2000/svg"><g fill="#9bc9ff"><path d="m225.449219 232v-32c0-5.484375-2.808594-10.585938-7.441407-13.519531-2.554687-1.632813-5.527343-2.496094-8.558593-2.480469h-128c-3.035157-.015625-6.007813.847656-8.5625 2.480469-4.632813 2.933593-7.441407 8.035156-7.4375 13.519531v32zm0 0"/><path d="m33.449219 440h224v32h-224zm0 0"/><path d="m44.550781 392c-15.640625.003906-28.984375 11.308594-31.558593 26.734375l-3.542969 21.265625h272l-3.546875-21.265625c-2.570313-15.425781-15.917969-26.730469-31.558594-26.734375zm0 0"/></g><path d="m290.894531 448-5.101562-30.574219c-3.167969-19.316406-19.882813-33.480469-39.457031-33.425781h-44.886719v-144h32v-40c-.050781-4.882812-1.601563-9.632812-4.449219-13.601562 18.382812-20.410157 28.523438-46.929688 28.449219-74.398438 0-61.855469-50.144531-112-112-112s-112 50.144531-112 112c-.074219 27.46875 10.0625 53.988281 28.445312 74.398438-2.84375 3.96875-4.398437 8.71875-4.445312 13.601562v40h32v144h-44.890625c-19.570313-.054688-36.289063 14.109375-39.453125 33.425781l-5.105469 30.574219h25.449219v32h240v-32zm-145.445312-432c52.996093.058594 95.941406 43.003906 96 96 .097656 24.070312-8.945313 47.285156-25.304688 64.945312-2.152343-.625-139.242187-.625-141.390625 0-16.359375-17.660156-25.40625-40.875-25.304687-64.945312.054687-52.996094 43.003906-95.941406 96-96zm-72 208v-24c.011719-2.757812 1.433593-5.320312 3.765625-6.792969 1.21875-.800781 135.199218-.800781 136.449218 0 2.339844 1.46875 3.769532 4.03125 3.785157 6.792969v24zm32 16h80v144h-80zm-86.554688 192 1.992188-11.945312c1.898437-11.589844 11.929687-20.085938 23.671875-20.054688h201.777344c11.746093-.03125 21.773437 8.464844 23.671874 20.054688l1.992188 11.945312zm230.554688 32h-208v-16h208zm0 0" fill="#1e81ce"/><path d="m209.449219 112c.046875 12.652344-3.691407 25.027344-10.738281 35.535156l13.28125 8.929688c23.519531-35.230469 15.5-82.6875-18.289063-108.234375l-9.671875 12.753906c16.050781 12.039063 25.472656 30.953125 25.417969 51.015625zm0 0" fill="#1e81ce"/><path d="m166.976562 51.71875 5.390626-15.054688c-5.675782-2.035156-11.5625-3.417968-17.550782-4.121093-3.109375-.359375-6.238281-.542969-9.367187-.542969v16c7.335937 0 14.617187 1.257812 21.527343 3.71875zm0 0" fill="#1e81ce"/></svg>