<svg height="480pt" viewBox="0 -72 480 480" width="480pt" xmlns="http://www.w3.org/2000/svg"><g fill="#9bc9ff"><path d="m408 95.996094v28.5625c.71875 64.886718-49.410156 119.015625-114.160156 123.277344-27.921875 1.394531-55.445313-7.074219-77.761719-23.917969-8.765625-6.472657-16.574219-14.148438-23.199219-22.800781-1.519531-1.917969-2.957031-3.917969-4.320312-5.917969-4.792969-7.128907-8.816406-14.742188-12-22.722657-1.359375-3.277343-2.480469-6.640624-3.519532-10-1.308593-4.414062-3.25-8.617187-5.757812-12.480468v-.078125c-4.089844-6.253907-9.566406-11.484375-16-15.28125-7.335938-4.359375-15.710938-6.652344-24.242188-6.640625h-119.039062v200h464v-280h-16c-26.507812 0-48 21.492187-48 48zm0 0"/><path d="m144 39.996094c38.730469.039062 72.882812 25.390625 84.125 62.453125 11.246094 37.0625-3.0625 77.117187-35.246094 98.667969 6.625 8.652343 14.433594 16.328124 23.199219 22.800781 45.109375-33.890625 60.519531-94.628907 37.015625-145.921875-23.5-51.292969-79.558594-79.289063-134.683594-67.257813-55.121094 12.03125-94.417968 60.839844-94.410156 117.257813h32c.03125-48.585938 39.410156-87.96875 88-88zm0 0"/><path d="m144 95.996094c-17.671875 0-32 14.328125-32 32h15.039062c8.53125-.011719 16.90625 2.28125 24.242188 6.640625 6.433594 3.796875 11.910156 9.027343 16 15.28125 8.738281-9.296875 11.121094-22.890625 6.0625-34.605469-5.054688-11.710938-16.585938-19.300781-29.34375-19.316406zm0 0"/></g><path d="m236.710938 39.996094c-34.964844-37-88.566407-49.703125-136.414063-32.328125-47.851563 17.378906-80.8125 61.515625-83.890625 112.328125h-16.40625v216h480v-296zm180.175781 16c-10.800781 10.507812-16.890625 24.933594-16.886719 40v28.5625c1.019531 60.726562-45.910156 111.515625-106.527344 115.285156-22.609375 1.191406-45.035156-4.609375-64.234375-16.605469 47.945313-42.648437 56.726563-114.277343 20.503907-167.242187zm-250.398438 80.335937c-.082031-.070312-.152343-.085937-.230469-.160156-10.429687-10.347656-24.523437-16.160156-39.21875-16.175781h-5.671874c3.890624-11.027344 15.164062-17.644532 26.691406-15.667969 11.523437 1.980469 19.949218 11.976563 19.941406 23.667969 0 2.847656-.511719 5.671875-1.511719 8.335937zm28.183594 53.519531c-4.261719-6.429687-7.855469-13.28125-10.71875-20.445312-1.265625-3.039062-2.304687-6.167969-3.257813-9.257812-1.023437-3.277344-2.335937-6.457032-3.917968-9.503907 9.210937-13.332031 9.453125-30.910156.609375-44.488281-8.84375-13.582031-25.019531-20.46875-40.9375-17.433594s-28.421875 15.394532-31.648438 31.273438h-40.402343c3.597656-36.027344 30.945312-65.148438 66.679687-71 35.734375-5.851563 70.941406 13.027344 85.839844 46.027344 14.898437 33.003906 5.773437 71.898437-22.246094 94.828124zm-50.671875-173.855468c47.054688.015625 89.085938 29.4375 105.199219 73.648437 16.113281 44.207031 2.875 93.777344-33.136719 124.066407-4.183594-3.46875-8.09375-7.25-11.703125-11.3125 33.933594-27.492188 45.007813-74.433594 26.941406-114.191407-18.066406-39.761719-60.714843-62.292969-103.738281-54.8125-43.023438 7.476563-75.566406 43.082031-79.15625 86.601563h-16.125c4.265625-58.566406 52.992188-103.929688 111.71875-104zm320 304h-448v-184h111.039062c7.105469-.007813 14.078126 1.90625 20.183594 5.539062 4.828125 2.835938 9.007813 6.652344 12.273438 11.199219l1.105468 1.671875c2.082032 3.21875 3.699219 6.722656 4.796876 10.398438 1.335937 4.335937 2.496093 7.640624 3.738281 10.617187 3.386719 8.519531 7.679687 16.652344 12.800781 24.253906 1.46875 2.160157 3.03125 4.328125 4.589844 6.289063 7.058594 9.226562 15.382812 17.414062 24.71875 24.320312 23.785156 18.019532 53.164062 27.054688 82.960937 25.519532 69.152344-4.164063 122.800781-61.976563 121.792969-131.246094v-28.5625c.027344-22.078125 17.917969-39.972656 40-40h8zm0 0" fill="#1e81ce"/></svg>