<svg height="483pt" viewBox="0 0 483.69828 483" width="483pt" xmlns="http://www.w3.org/2000/svg"><path d="m377.503906 150.757812c-22.605468-6.820312-40.316406-24.476562-47.199218-47.066406-.824219-2.472656-1.519532-4.988281-2.082032-7.535156l-104.863281 104.882812-22.640625 22.636719-104.640625 104.640625c2.492187.550782 4.957031 1.230469 7.378906 2.03125 22.667969 6.851563 40.398438 24.59375 47.238281 47.265625.800782 2.410157 1.476563 4.863281 2.023438 7.34375l232.160156-232.160156c-2.492187-.550781-4.953125-1.230469-7.375-2.039063zm0 0" fill="#9bc9ff"/><path d="m377.503906 150.757812c-22.566406-6.886718-40.25-24.519531-47.199218-47.066406 6.882812 22.589844 24.59375 40.246094 47.199218 47.066406zm0 0" fill="#9bc9ff"/><path d="m103.457031 330.347656c22.625 6.917969 40.332031 24.636719 47.238281 47.265625-6.839843-22.671875-24.570312-40.414062-47.238281-47.265625zm0 0" fill="#9bc9ff"/><path d="m461.664062 382.78125-79.199218-79.199219-5.65625 5.65625c-6.25 6.25-16.382813 6.25-22.632813 0s-6.25-16.382812 0-22.632812l11.3125-11.3125-22.609375-22.617188-33.933594 33.9375-22.640624 22.640625-33.9375 33.925782 22.632812 22.632812 11.3125-11.3125c6.277344-6.0625 16.257812-5.976562 22.429688.195312 6.171874 6.171876 6.257812 16.152344.195312 22.429688l-5.65625 5.65625 79.199219 79.199219c18.746093 18.746093 49.132812 18.746093 67.878906 0l11.3125-11.320313c18.742187-18.746094 18.738281-49.136718-.007813-67.878906zm0 0" fill="#9bc9ff"/><path d="m286.183594 309.144531 22.859375-22.417969.019531.023438-22.855469 22.417969zm0 0" fill="#9bc9ff"/><g fill="#1e81ce"><path d="m467.320312 377.125-84.847656-84.847656-11.320312 11.3125c-3.15625 3.03125-8.148438 3.03125-11.304688 0-1.5-1.5-2.34375-3.535156-2.34375-5.65625-.007812-2.125.839844-4.164063 2.351563-5.65625l16.96875-16.976563-33.945313-33.945312-33.933594 33.9375-17.601562-17.601563 96.382812-96.421875c3.726563.558594 7.484376.855469 11.25.886719 27.445313-.027344 52.960938-14.128906 67.582032-37.355469 14.621094-23.226562 16.308594-52.332031 4.464844-77.089843l-4.878907-10.1875-52.929687 52.921874-18.863282-3.761718-3.765624-18.855469 52.925781-52.933594-10.183594-4.882812c-26.550781-12.75-57.96875-9.832031-81.71875 7.585937-23.753906 17.417969-35.976563 46.507813-31.792969 75.664063l-96.457031 96.464843-121.070313-121.074218-6.402343-29.902344-64.421875-38.402344-31.464844 31.410156 39.136719 65.136719 29.246093 5.734375 121.023438 121.039063-96.222656 96.234375c-34.082032-4.839844-67.433594 12.664062-82.816406 43.460937-15.378907 30.796875-9.335938 67.976563 15.007812 92.316407 24.339844 24.339843 61.523438 30.378906 92.316406 14.992187 30.792969-15.382813 48.292969-48.738281 43.453125-82.820313l96.214844-96.222656 17.601563 17.601563-33.9375 33.925781 33.9375 33.945312 16.976562-16.976562c2.285156-2.289062 5.726562-2.972656 8.714844-1.734375 2.988281 1.238281 4.9375 4.15625 4.941406 7.390625.003906 2.125-.839844 4.164062-2.347656 5.664062l-11.308594 11.3125 84.878906 84.878907c21.882813 21.839843 57.316406 21.839843 79.199219 0l11.3125-11.3125c21.828125-21.886719 21.828125-57.316407-.007813-79.199219zm-113.703124-340.214844c16.167968-16.15625 39.726562-22.464844 61.808593-16.546875l-42.210937 42.203125 7.546875 37.710938 37.710937 7.542968 42.199219-42.199218c8.039063 30.003906-6.628906 61.449218-34.78125 74.570312-28.15625 13.121094-61.667969 4.132813-79.476563-21.316406-17.808593-25.449219-14.769531-60.011719 7.203126-81.964844zm-277.359376 50.984375-27.074218-5.296875-29.023438-48.320312 13.816406-13.816406 47.726563 28.464843 5.929687 27.695313 124.414063 124.417968-11.328125 11.316407zm51.085938 356.3125c-20.472656 20.476563-52.144531 24.660157-77.230469 10.191407-25.085937-14.464844-37.335937-43.972657-29.863281-71.949219 7.46875-27.976563 32.792969-47.453125 61.75-47.492188 4.222656 0 8.433594.417969 12.574219 1.238281 23.15625 4.605469 41.898437 21.585938 48.757812 44.175782 6.863281 22.589844.730469 47.121094-15.957031 63.824218zm29.230469-74.402343c-.507813-1.304688-1.113281-2.566407-1.804688-3.785157-8.042969-18.390625-22.9375-32.925781-41.523437-40.519531-.671875-.34375-1.324219-.757812-2-1.023438l213.136718-213.152343c.265626.671875.679688 1.335937 1.023438 2 7.589844 18.582031 22.125 33.472656 40.515625 41.511719 1.214844.699218 2.484375 1.304687 3.789063 1.816406zm112.097656-89.488282 11.328125-11.328125 17.601562 17.601563-11.328124 11.328125zm187.335937 164.695313-11.3125 11.3125c-15.632812 15.59375-40.933593 15.59375-56.566406 0l-73.542968-73.542969c6.144531-6.046875 8.574218-14.921875 6.367187-23.257812-2.207031-8.332032-8.714844-14.839844-17.046875-17.050782-8.332031-2.210937-17.210938.21875-23.257812 6.363282l-5.664063 5.664062-11.304687-11.320312 79.199218-79.199219 11.3125 11.3125-5.648437 5.65625c-9.375 9.371093-9.375 24.570312 0 33.945312 9.5 9.0625 24.445312 9.0625 33.945312 0l73.535157 73.535157c15.601562 15.636718 15.59375 40.953124-.015626 56.582031zm0 0"/><path d="m70.136719 354.339844-32.65625 32.65625 11.953125 44.617187 44.644531 11.953125 32.664063-32.664062-11.957032-44.609375zm19.144531 71.386718-26.777344-7.203124-7.199218-26.773438 19.574218-19.570312 26.769532 7.203124 7.199218 26.757813zm0 0"/><path d="m308.371094 161.355469 11.3125-11.3125 11.3125 11.3125-11.3125 11.316406zm0 0"/><path d="m149.972656 319.75 147.078125-147.078125 11.3125 11.3125-147.078125 147.078125zm0 0"/><path d="m308.929688 320.554688 11.3125-11.316407 11.316406 11.316407-11.316406 11.3125zm0 0"/><path d="m331.558594 343.1875 11.3125-11.3125 96.171875 96.175781-11.316407 11.3125zm0 0"/></g></svg>