<svg height="480pt" viewBox="0 0 480 480.128" width="480pt" xmlns="http://www.w3.org/2000/svg"><path d="m456.0625 296.128906c0-8.835937-7.160156-16-16-16h-400c-8.835938 0-16 7.164063-16 16v16h432zm0 0" fill="#9bc9ff"/><path d="m24.0625 424.128906c0 8.835938 7.164062 16 16 16h400c8.839844 0 16-7.164062 16-16v-16h-432zm0 0" fill="#9bc9ff"/><path d="m232.0625 336.128906h216v48h-216zm0 0" fill="#9bc9ff"/><g fill="#1e81ce"><path d="m480.0625 304.128906h-16v-8c0-13.253906-10.742188-24-24-24h-176v-168c0-13.253906-10.742188-24-24-24-13.253906 0-24 10.746094-24 24v168h-176c-13.253906 0-24 10.746094-24 24v8h-16v112h16v8c0 13.253906 10.746094 24 24 24h16v32h64v-32h240v32h64v-32h16c13.257812 0 24-10.746094 24-24v-8h16zm-248-200c0-4.417968 3.582031-8 8-8s8 3.582032 8 8v168h-16zm-200 192c0-4.417968 3.582031-8 8-8h400c4.417969 0 8 3.582032 8 8v8h-416zm72 168h-32v-16h32zm304 0h-32v-16h32zm40-40c0 4.417969-3.582031 8-8 8h-400c-4.417969 0-8-3.582031-8-8v-8h416zm16-24h-448v-80h448zm0 0"/><path d="m456.0625 328.128906h-232v64h232zm-16 48h-200v-32h200zm0 0"/><path d="m32.0625 336.128906h16v48h-16zm0 0"/><path d="m64.0625 336.128906h16v48h-16zm0 0"/><path d="m96.0625 336.128906h16v48h-16zm0 0"/><path d="m128.0625 336.128906h16v48h-16zm0 0"/><path d="m160.0625 336.128906h16v48h-16zm0 0"/><path d="m192.0625 336.128906h16v48h-16zm0 0"/><path d="m336.207031 192.257812-11.34375-11.328124c22.507813-22.484376 35.152344-52.992188 35.152344-84.800782 0-31.8125-12.644531-62.320312-35.152344-84.800781l11.328125-11.296875c25.515625 25.484375 39.855469 60.066406 39.855469 96.128906s-14.339844 70.644532-39.855469 96.128906zm0 0"/><path d="m313.550781 169.632812-11.285156-11.335937c16.515625-16.472656 25.796875-38.839844 25.796875-62.167969s-9.28125-45.695312-25.796875-62.167968l11.285156-11.335938c19.535157 19.472656 30.511719 45.921875 30.511719 73.503906 0 27.582032-10.976562 54.027344-30.511719 73.503906zm0 0"/><path d="m291.023438 147.046875-11.359376-11.269531c21.867188-21.910156 21.867188-57.386719 0-79.296875l11.359376-11.273438c28.054687 28.152344 28.054687 73.691407 0 101.839844zm0 0"/><path d="m135.921875 192.257812c-25.519531-25.484374-39.855469-60.066406-39.855469-96.128906s14.335938-70.644531 39.855469-96.128906l11.34375 11.328125c-22.527344 22.484375-35.183594 53.003906-35.183594 84.832031s12.65625 62.347656 35.183594 84.832032zm0 0"/><path d="m158.574219 169.632812c-19.53125-19.476562-30.511719-45.921874-30.511719-73.503906 0-27.582031 10.980469-54.03125 30.511719-73.503906l11.289062 11.335938c-16.515625 16.472656-25.800781 38.839843-25.800781 62.167968s9.285156 45.695313 25.800781 62.167969zm0 0"/><path d="m181.105469 147.046875c-28.054688-28.148437-28.054688-73.6875 0-101.839844l11.359375 11.273438c-21.867188 21.910156-21.867188 57.386719 0 79.296875zm0 0"/></g></svg>