<svg height="480pt" viewBox="0 0 480 480" width="480pt" xmlns="http://www.w3.org/2000/svg"><path d="m152 40c0-17.671875-32.234375-32-72-32s-72 14.328125-72 32 32.234375 32 72 32 72-14.328125 72-32zm0 0" fill="#9bc9ff"/><path d="m80 72c-39.761719 0-72-14.320312-72-32v400c0 17.679688 32.238281 32 72 32s72-14.320312 72-32v-400c0 17.679688-32.238281 32-72 32zm0 0" fill="#9bc9ff"/><path d="m104 40c0-4.417969-10.746094-8-24-8s-24 3.582031-24 8 10.746094 8 24 8 24-3.582031 24-8zm0 0" fill="#9bc9ff"/><g fill="#1e81ce"><path d="m480 0h-400c-45.601562 0-80 17.191406-80 40v400c0 22.808594 34.398438 40 80 40s80-17.191406 80-40v-24h320zm-400 16c39.0625 0 64 14.207031 64 24s-24.9375 24-64 24-64-14.207031-64-24 24.9375-24 64-24zm64 424c0 9.792969-24.9375 24-64 24s-64-14.207031-64-24v-375.40625c.160156.109375.351562.167969.519531.269531 19.363281 10.792969 41.332031 16.027344 63.480469 15.136719 22.148438.890625 44.117188-4.34375 63.480469-15.136719.167969-.101562.359375-.160156.519531-.269531zm320-40h-304v-360c-.722656-10.042969-6.429688-19.054688-15.199219-24h319.199219zm0 0"/><path d="m112 40c0-8.835938-14.328125-16-32-16s-32 7.164062-32 16 14.328125 16 32 16 32-7.164062 32-16zm0 0"/><path d="m176 368h240v16h-240zm0 0"/><path d="m432 368h16v16h-16zm0 0"/></g></svg>