<svg id="Capa_1" enable-background="new 0 0 64 64" height="512" viewBox="0 0 64 64" width="512" xmlns="http://www.w3.org/2000/svg"><path d="m55.155 28.108c.575-.931.877-2.005.87-3.1 0-3.314-2.686-6-6-6-.693-.004-1.381.118-2.03.36-.248-2.17-1.631-4.042-3.617-4.884-2.13-.903-4.621-.48-6.373 1.084-.23-3.133-2.838-5.558-5.98-5.56v.007c-2.472 0-4.789 1.533-5.659 3.997-.985-.669-2.149-1.024-3.34-1.02-3.314 0-6 2.686-6 6 0 .15.01.29.02.43v.02c.006.134.023.268.05.4-.926-.558-1.988-.852-3.07-.85-3.314 0-6 2.686-6 6-.006 1.091.295 2.162.87 3.09v.01c-3.015.489-5.363 2.879-5.8 5.901-.552 3.821 2.098 7.367 5.92 7.919l.01.08c-3.314 0-6 2.686-6 6s2.686 6 6 6h15c2.209 0 4-1.791 4-4v-2h3.999v.017h6c2.209 0 4-1.791 4-4v-2h12c3.866-.027 6.978-3.182 6.952-7.048-.024-3.394-2.477-6.282-5.822-6.853z" fill="#9bc9ff"/><g fill="#1e81ce"><path d="m56.569 27.425c1.333-3.635-.533-7.663-4.168-8.996-1.169-.429-2.431-.538-3.657-.318-1.043-3.723-4.907-5.895-8.629-4.851-.508.142-.998.342-1.462.594-1.181-3.676-5.119-5.699-8.796-4.518-1.698.546-3.123 1.719-3.984 3.281-.903-.408-1.882-.619-2.873-.617-3.593.005-6.601 2.725-6.966 6.3-3.703-1.119-7.613.977-8.731 4.68-.44 1.456-.394 3.016.131 4.444-4.18 1.411-6.425 5.944-5.014 10.124.595 1.762 1.786 3.261 3.367 4.24-3.431 1.782-4.767 6.008-2.985 9.439 1.202 2.314 3.59 3.768 6.198 3.773h15c2.76-.003 4.997-2.24 5-5v-1h9c2.76-.003 4.997-2.24 5-5v-1h11c4.418-.002 7.998-3.586 7.996-8.004-.001-3.425-2.184-6.469-5.427-7.571zm-2.569 13.575h-20c-1.657 0-3-1.343-3-3s1.343-3 3-3h4c.552 0 1-.448 1-1s-.448-1-1-1h-4c-2.761 0-5 2.239-5 5s2.239 5 5 5h7v1c0 1.657-1.343 3-3 3h-15c-.552 0-1 .448-1 1s.448 1 1 1h4v1c0 1.657-1.343 3-3 3h-12.054l.011-1.033c.023-1.642 1.358-2.962 3-2.967h1.043c.552 0 1-.448 1-1s-.448-1-1-1h-1.044c-2.737.008-4.961 2.209-5 4.945l-.011 1.055h-.945c-2.761 0-5-2.239-5-5s2.239-5 5-5h.563c.03-.004.059-.01.088-.018.117.005.231.018.349.018h8c.552 0 1-.448 1-1s-.448-1-1-1h-8c-3.314-.027-5.978-2.736-5.95-6.049.024-2.9 2.119-5.368 4.977-5.863.017 0 .664-.088.973-.088 3.312.003 5.997 2.688 6 6 0 .552.448 1 1 1s1-.448 1-1c-.005-4.416-3.584-7.995-8-8-.186 0-.372.032-.558.045-.293-.642-.443-1.339-.442-2.045.003-2.76 2.24-4.997 5-5 .752.001 1.493.175 2.167.507.717 3.201 3.553 5.48 6.833 5.493.552 0 1-.448 1-1s-.448-1-1-1c-2.473-.008-4.571-1.817-4.943-4.262 0-.022-.057-.488-.057-.738.003-2.76 2.24-4.997 5-5 .756-.001 1.502.172 2.181.505-.114.49-.175.992-.181 1.495 0 .552.448 1 1 1s1-.448 1-1c0-.558.093-1.111.275-1.638.004-.005.007-.01.01-.015.904-2.599 3.743-3.973 6.342-3.07 1.736.604 2.999 2.115 3.285 3.931-1.227 1.294-1.912 3.009-1.912 4.792-.003 2.76-2.24 4.997-5 5-.552 0-1 .448-1 1s.448 1 1 1c3.864-.004 6.996-3.136 7-7-.015-2.761 2.212-5.012 4.973-5.027 2.571-.014 4.733 1.925 5 4.482v.012c.018.177.027.355.027.533-.003 2.76-2.24 4.997-5 5-.552 0-1 .448-1 1s.448 1 1 1c3.82-.005 6.931-3.07 6.994-6.889.331-.071.668-.109 1.006-.111 2.76.003 4.997 2.24 5 5 .001.706-.149 1.403-.442 2.045-.186-.013-.372-.045-.558-.045-4.416.005-7.995 3.584-8 8 0 .552.448 1 1 1s1-.448 1-1c.003-3.312 2.688-5.997 6-6 .309 0 .956.085.973.088 3.265.565 5.454 3.67 4.89 6.935-.495 2.858-2.963 4.953-5.863 4.977z"/><path d="m23 41h-1c-.552 0-1 .448-1 1s.448 1 1 1h1c.552 0 1-.448 1-1s-.448-1-1-1z"/><path d="m26 31c-1.657 0-3 1.343-3 3v2c0 .552.448 1 1 1s1-.448 1-1v-2c0-.552.448-1 1-1s1-.448 1-1-.448-1-1-1z"/><path d="m40 27c-.552 0-1 .448-1 1s.448 1 1 1 1 .448 1 1 .448 1 1 1 1-.448 1-1c0-1.657-1.343-3-3-3z"/><path d="m54 32c-.552 0-1 .448-1 1s.448 1 1 1 1 .448 1 1-.448 1-1 1-1 .448-1 1 .448 1 1 1c1.657 0 3-1.343 3-3s-1.343-3-3-3z"/><path d="m10 32c-1.657 0-3 1.343-3 3 0 .552.448 1 1 1s1-.448 1-1 .448-1 1-1 1-.448 1-1-.448-1-1-1z"/><path d="m40 37h-1c-.552 0-1 .448-1 1s.448 1 1 1h1c.552 0 1-.448 1-1s-.448-1-1-1z"/><path d="m30 17c.552 0 1-.448 1-1s.448-1 1-1 1-.448 1-1-.448-1-1-1c-1.657 0-3 1.343-3 3 0 .552.448 1 1 1z"/><path d="m25 21c0-.552-.448-1-1-1s-1-.448-1-1-.448-1-1-1-1 .448-1 1c0 1.657 1.343 3 3 3 .552 0 1-.448 1-1z"/><path d="m42 19c.552 0 1 .448 1 1s.448 1 1 1 1-.448 1-1c0-1.657-1.343-3-3-3-.552 0-1 .448-1 1s.448 1 1 1z"/></g></svg>