<?xml version="1.0"?>
<svg xmlns="http://www.w3.org/2000/svg" viewBox="0 0 64 64" width="512" height="512"><g id="Call_hearth" data-name="Call hearth"><path d="M31.5,60.99c.16.01.33.01.5.01s.34,0,.5-.01A9,9,0,0,0,41,52c0-.33-14-5-14-5-.02.03-3.98,4.01-4,4A21.4,21.4,0,0,1,13,41s4.97-3.98,5-4c0,0-5.67-14-6-14a9,9,0,0,0-8.99,8.5C3,31.66,3,31.83,3,32s0,.34.01.5A28.984,28.984,0,0,0,31.5,60.99Z" style="fill:#9bc9ff"/><path d="M35.09,37.17a18,18,0,1,0-8.26-8.26L24,40ZM33.81,14.74a4.985,4.985,0,0,1,7.07,0L43,16.86l2.12-2.12a5,5,0,1,1,7.07,7.07L43,31l-9.19-9.19A4.985,4.985,0,0,1,33.81,14.74Z" style="fill:#9bc9ff"/><path d="M32,62c-.19,0-.381,0-.561-.012A29.844,29.844,0,0,1,2.01,32.517C2,32.381,2,32.19,2,32s0-.381.012-.561A10,10,0,0,1,12,22c.87,0,1,0,6.927,14.625a1,1,0,0,1-.375,1.209c-.1.08-2.992,2.4-4.3,3.443a20.524,20.524,0,0,0,8.554,8.514c.993-.986,3.211-3.212,3.452-3.463a1,1,0,0,1,1.056-.277C42,50.949,42,51.069,42,52a10,10,0,0,1-9.445,9.989C32.381,62,32.19,62,32,62Zm0-2c.154,0,.3,0,.439-.008a8,8,0,0,0,7.539-7.4c-1.683-.694-7.392-2.672-12.7-4.449-.3.308-.788.793-1.568,1.575-2.49,2.5-2.491,2.5-3.146,2.178A22.4,22.4,0,0,1,12.1,41.425a1,1,0,0,1,.28-1.206l4.417-3.535c-1.813-4.465-4.491-10.925-5.345-12.665a8,8,0,0,0-7.439,7.536C4,31.7,4,31.851,4,32s0,.3.008.439A27.874,27.874,0,0,0,31.517,59.99C31.7,60,31.851,60,32,60Z" style="fill:#1e81ce"/><path d="M24,41a1,1,0,0,1-.969-1.247l2.74-10.738A18.78,18.78,0,0,1,24,21,18.994,18.994,0,1,1,34.985,38.229l-10.738,2.74A.984.984,0,0,1,24,41ZM43,4A17.019,17.019,0,0,0,26,21a16.778,16.778,0,0,0,1.728,7.469,1,1,0,0,1,.071.688l-2.413,9.457L34.843,36.2a1,1,0,0,1,.688.071A16.778,16.778,0,0,0,43,38,17,17,0,0,0,43,4Z" style="fill:#1e81ce"/><path d="M52.9,14.037a5.985,5.985,0,0,0-8.488,0L43,15.446l-1.413-1.413A6,6,0,1,0,33.1,22.517l9.9,9.9,9.9-9.9a5.985,5.985,0,0,0,0-8.48ZM51.483,21.1,43,29.586,34.517,21.1a3.985,3.985,0,0,1,0-5.659A3.936,3.936,0,0,1,37.34,14.27a3.982,3.982,0,0,1,2.833,1.177L43,18.274l2.828-2.827A4,4,0,1,1,51.483,21.1Z" style="fill:#1e81ce"/></g></svg>
