<svg height="512" viewBox="0 0 64 64" width="512" xmlns="http://www.w3.org/2000/svg"><path d="m46 9h-28l6 38h16zm-9 28h-10l-2-20h14z" fill="#9bc9ff"/><path d="m35 53a1 1 0 0 0 -1-1h-4a1 1 0 0 0 -1 1v2h-7v4a2 2 0 0 0 2 2h16a2 2 0 0 0 2-2v-4h-7z" fill="#9bc9ff"/><g fill="#1e81ce"><path d="m47 10v-8h-30v8l6 37.078v6.922h-2v5a3 3 0 0 0 3 3h16a3 3 0 0 0 3-3v-5h-2v-6.922zm-28-6h26v4h-26zm25.83 6-5.684 36h-14.292l-5.684-36zm-3.83 49a1 1 0 0 1 -1 1h-16a1 1 0 0 1 -1-1v-3h7v-3h4v3h7zm-5-5v-1a2 2 0 0 0 -2-2h-4a2 2 0 0 0 -2 2v1h-3v-6h14v6z"/><path d="m23.9 16 2.2 22h11.81l2.2-22zm12.2 20h-8.19l-1.8-18h11.79z"/></g></svg>