<svg height="512" viewBox="0 0 64 64" width="512" xmlns="http://www.w3.org/2000/svg"><path d="m51 7a4 4 0 0 0 -4-4h-30a4 4 0 0 0 -4 4v12h38zm-14 6h-3v3h-4v-3h-3v-4h3v-3h4v3h3z" fill="#9bc9ff"/><path d="m49.312 41.734-7.023-1.109a65.991 65.991 0 0 0 -20.587 0l-7.014 1.107a2 2 0 0 0 -1.688 1.977v7.669a6 6 0 0 0 3.2 5.309l.887.467a32 32 0 0 0 29.808 0l.894-.47a6 6 0 0 0 3.211-5.307v-7.668a2 2 0 0 0 -1.688-1.975z" fill="#9bc9ff"/><g fill="#1e81ce"><path d="m52 7a5.006 5.006 0 0 0 -5-5h-30a5.006 5.006 0 0 0 -5 5v13h40zm-2 11h-36v-11a3 3 0 0 1 3-3h30a3 3 0 0 1 3 3z"/><path d="m35 5h-6v3h-3v6h3v3h6v-3h3v-6h-3zm1 5v2h-3v3h-2v-3h-3v-2h3v-3h2v3z"/><path d="m49.468 40.746-7.023-1.109a66.9 66.9 0 0 0 -20.9 0l-7.013 1.108a2.985 2.985 0 0 0 -2.532 2.964v7.669a6.983 6.983 0 0 0 3.739 6.194l.887.467a32.984 32.984 0 0 0 30.738 0l.9-.47a6.984 6.984 0 0 0 3.736-6.192v-7.668a2.986 2.986 0 0 0 -2.532-2.963zm.532 10.631a4.986 4.986 0 0 1 -2.672 4.423l-.894.47a30.989 30.989 0 0 1 -28.876 0l-.887-.467a4.988 4.988 0 0 1 -2.671-4.425v-7.669a1 1 0 0 1 .844-.988l7.014-1.108a64.871 64.871 0 0 1 20.275 0l7.022 1.108a1 1 0 0 1 .845.988z"/><path d="m30.861 50.5h16.279v2h-16.279z" transform="matrix(.737 -.676 .676 .737 -24.548 39.886)"/><path d="m31.89 48h9.22v2h-9.22z" transform="matrix(.759 -.651 .651 .759 -23.097 35.531)"/><path d="m17.458 26.492a4.97 4.97 0 0 0 -1.458 3.539h2a3 3 0 0 1 2.994-3.006v-2a4.966 4.966 0 0 0 -3.536 1.467z"/><path d="m39.457 26.492a4.969 4.969 0 0 0 -1.457 3.539h2a3 3 0 0 1 2.994-3.006v-2a4.966 4.966 0 0 0 -3.537 1.467z"/><path d="m61.992 25.943v-2l-3.29.006a18 18 0 0 0 -7.765 1.788 9.007 9.007 0 0 0 -7.937-4.758h-.018a8.968 8.968 0 0 0 -8.12 5.171 10.818 10.818 0 0 0 -5.738.011 8.971 8.971 0 0 0 -8.124-5.14h-.017a9.021 9.021 0 0 0 -7.939 4.785 18 18 0 0 0 -7.73-1.755h-.036l-3.289.007v2l3.289-.007h.032a16 16 0 0 1 7 1.628 9.05 9.05 0 0 0 -.31 2.359 9 9 0 0 0 9 8.983h.017a9 9 0 0 0 8.983-9.021 9.036 9.036 0 0 0 -.22-1.944 8.806 8.806 0 0 1 4.433-.009 8.983 8.983 0 0 0 8.787 10.932h.018a8.97 8.97 0 0 0 8.654-11.374 16 16 0 0 1 7.03-1.656zm-36.033 9.018a6.95 6.95 0 0 1 -4.946 2.06h-.013a7 7 0 0 1 -.013-14h.013a7 7 0 0 1 4.959 11.94zm22-.042a6.947 6.947 0 0 1 -4.945 2.06h-.014a7 7 0 0 1 -.014-14h.014a7 7 0 0 1 4.959 11.94z"/></g></svg>