<svg height="512" viewBox="0 0 64 64" width="512" xmlns="http://www.w3.org/2000/svg"><g id="Doctor-2" data-name="Doctor"><g fill="#9bc9ff"><path d="m29 46-2 15h10l-2-15z"/><circle cx="16" cy="54" r="3"/><path d="m32.004 37.784h-.008l-5.152 5.341 2.156 2.875h6l2.156-2.875z"/><path d="m32.004 37.784-.004-.004-.004.004z"/><path d="m48 15v-8a4 4 0 0 0 -4-4h-32v8a8 8 0 0 0 8 8h24a4 4 0 0 0 4-4z"/><path d="m13 54a3 3 0 1 0 3-3 3 3 0 0 0 -3 3z"/><path d="m45.64 22h-1.64v1.91a13.975 13.975 0 0 1 -.606 4.047v.043h1.92a2.006 2.006 0 0 0 1.97-1.67l.33-2a2 2 0 0 0 -1.974-2.33z"/><path d="m20 22h-1.64a2 2 0 0 0 -1.97 2.33l.33 2a2.006 2.006 0 0 0 1.97 1.67h1.92v-.043a13.975 13.975 0 0 1 -.61-4.047z"/><path d="m31.945 37.81a4 4 0 0 1 -1.205-.2l-1.17-.39a13.936 13.936 0 0 1 -5.3-3.22h-.01l-2.7 3.82 4.44 6.21 6-6.216c-.021 0-.038-.004-.055-.004z"/><path d="m42.439 37.82-2.699-3.82h-.014a13.936 13.936 0 0 1 -5.3 3.22l-1.17.39a4 4 0 0 1 -1.2.2c-.017 0-.034 0-.051 0l6 6.216 4.439-6.209z"/></g><path d="m60.858 48.957a10.957 10.957 0 0 0 -10.951-9.957h-3.835a3 3 0 0 1 -2.45-1.269l-2.589-3.665a14.954 14.954 0 0 0 3.067-5.066h1.21a2.989 2.989 0 0 0 2.957-2.507l.333-1.993a3 3 0 0 0 -2.96-3.5h-.64v-1.1a5.009 5.009 0 0 0 4-4.9v-8a5.006 5.006 0 0 0 -5-5h-33v9a9.011 9.011 0 0 0 8 8.941v1.059h-.64a3 3 0 0 0 -2.96 3.493l.331 2a2.987 2.987 0 0 0 2.959 2.507h1.21a14.954 14.954 0 0 0 3.07 5.066l-2.589 3.665a3 3 0 0 1 -2.453 1.269h-3.835a10.957 10.957 0 0 0 -10.951 9.957l-1.242 13.043h60.2zm-19.646-11.169-3.327 4.653-3.9-4.047.764-.255a14.96 14.96 0 0 0 4.821-2.681zm-5.476 5.305-1.271 1.907h-4.93l-1.271-1.907 3.736-3.873zm9.904-20.093a1 1 0 0 1 .765.357.98.98 0 0 1 .218.81l-.33 2a1 1 0 0 1 -.983.833h-.64a15.058 15.058 0 0 0 .33-3.09v-.91zm-26.95 4a1 1 0 0 1 -.983-.833l-.332-2.006a.979.979 0 0 1 .22-.8 1 1 0 0 1 .765-.361h.64v.91a15.058 15.058 0 0 0 .33 3.09zm-5.69-16v-7h31a3 3 0 0 1 3 3v8a3 3 0 0 1 -3 3h-24a7.008 7.008 0 0 1 -7-7zm8 12.91v-3.91h22v3.91a12.974 12.974 0 0 1 -8.886 12.331l-1.17.39a3 3 0 0 1 -1.887 0l-1.171-.39a12.974 12.974 0 0 1 -8.886-12.331zm3.433 11.548a14.955 14.955 0 0 0 4.82 2.681l.765.255-3.9 4.047-3.327-4.653zm1.691 24.542h-22.024l1.033-10.854a8.965 8.965 0 0 1 8.96-8.146h.907v9.142a4 4 0 1 0 2 0v-9.142h.928a5 5 0 0 0 3.6-1.538l4.359 6.1.958-.992 1.116 1.674zm-10.124-8a2 2 0 1 1 -2 2 2 2 0 0 1 2-2zm12.142 8 1.733-13h4.25l1.733 13zm9.734 0-1.835-13.759 1.116-1.674.958.992 4.359-6.1a5 5 0 0 0 3.598 1.541h.928v5.08a7 7 0 0 0 -6 6.92v5h4v-2h-2v-3a5 5 0 0 1 10 0v3h-2v2h4v-5a7 7 0 0 0 -6-6.92v-5.08h.907a8.965 8.965 0 0 1 8.96 8.146l1.033 10.854z" fill="#1e81ce"/><path d="m15 53h2v2h-2z" fill="#1e81ce"/></g></svg>