<svg height="512" viewBox="0 0 64 64" width="512" xmlns="http://www.w3.org/2000/svg"><g id="First_aid_kit" data-name="First aid kit"><path d="m57 15h-50a4 4 0 0 0 -4 4v10a4 4 0 0 0 4 4h10v-2a2 2 0 0 1 4 0v2h22v-2a2 2 0 0 1 4 0v2h10a4 4 0 0 0 4-4v-10a4 4 0 0 0 -4-4z" fill="#9bc9ff"/><path d="m47 33v2a2 2 0 0 1 -4 0v-2h-22v2a2 2 0 0 1 -4 0v-2h-10v24a4 4 0 0 0 4 4h42a4 4 0 0 0 4-4v-24zm-7 15a1 1 0 0 1 -1 1h-4a1 1 0 0 0 -1 1v4a1 1 0 0 1 -1 1h-2a1 1 0 0 1 -1-1v-4a1 1 0 0 0 -1-1h-4a1 1 0 0 1 -1-1v-2a1 1 0 0 1 1-1h4a1 1 0 0 0 1-1v-4a1 1 0 0 1 1-1h2a1 1 0 0 1 1 1v4a1 1 0 0 0 1 1h4a1 1 0 0 1 1 1z" fill="#9bc9ff"/><path d="m42 5a2 2 0 0 0 -2-2h-16a2 2 0 0 0 -2 2v2h20z" fill="#9bc9ff"/><g fill="#1e81ce"><path d="m57 14h-14v-9a3 3 0 0 0 -3-3h-16a3 3 0 0 0 -3 3v9h-14a5.006 5.006 0 0 0 -5 5v10a5.009 5.009 0 0 0 4 4.9v23.1a5.006 5.006 0 0 0 5 5h42a5.006 5.006 0 0 0 5-5v-23.1a5.009 5.009 0 0 0 4-4.9v-10a5.006 5.006 0 0 0 -5-5zm-34-9a1 1 0 0 1 1-1h16a1 1 0 0 1 1 1v1h-18zm0 3h18v6h-18zm33 49a3 3 0 0 1 -3 3h-42a3 3 0 0 1 -3-3v-23h8v1a3 3 0 0 0 6 0v-1h20v1a3 3 0 0 0 6 0v-1h8zm-38-22v-4a1 1 0 0 1 2 0v4a1 1 0 0 1 -2 0zm26 0v-4a1 1 0 0 1 2 0v4a1 1 0 0 1 -2 0zm16-6a3 3 0 0 1 -3 3h-9v-1a3 3 0 0 0 -6 0v1h-20v-1a3 3 0 0 0 -6 0v1h-9a3 3 0 0 1 -3-3v-10a3 3 0 0 1 3-3h50a3 3 0 0 1 3 3z"/><path d="m24 28h16v2h-16z"/><path d="m39 44h-4v-4a2 2 0 0 0 -2-2h-2a2 2 0 0 0 -2 2v4h-4a2 2 0 0 0 -2 2v2a2 2 0 0 0 2 2h4v4a2 2 0 0 0 2 2h2a2 2 0 0 0 2-2v-4h4a2 2 0 0 0 2-2v-2a2 2 0 0 0 -2-2zm0 4h-4a2 2 0 0 0 -2 2v4h-2v-4a2 2 0 0 0 -2-2h-4v-2h4a2 2 0 0 0 2-2v-4h2v4a2 2 0 0 0 2 2h4z"/><path d="m47 56v2h4a3 3 0 0 0 3-3v-4h-2v4a1 1 0 0 1 -1 1z"/><path d="m12 55v-4h-2v4a3 3 0 0 0 3 3h4v-2h-4a1 1 0 0 1 -1-1z"/></g></g></svg>