<svg height="512" viewBox="0 0 64 64" width="512" xmlns="http://www.w3.org/2000/svg"><path d="m34 33v-6a8 8 0 0 0 -5.229-7.507 4.1 4.1 0 0 1 -2.771-3.806v-2.687h-10v2.687a4.1 4.1 0 0 1 -2.771 3.806 8 8 0 0 0 -5.229 7.507v34h26v-8h-16v-20z" fill="#9bc9ff"/><path d="m51.029 23.4a11.689 11.689 0 0 0 3.971-8.4c0-4.42-3.58-12-8-12s-8 7.58-8 12a11.689 11.689 0 0 0 3.971 8.4 5.9 5.9 0 0 1 2.051 5.089l-2.562 27.531a4.559 4.559 0 1 0 9.08 0l-2.562-27.535a5.9 5.9 0 0 1 2.051-5.085z" fill="#9bc9ff"/><g fill="#1e81ce"><path d="m29.118 18.555a3.1 3.1 0 0 1 -2.118-2.868v-1.687h3v-9a3 3 0 0 0 -3-3h-12a3 3 0 0 0 -3 3v9h3v1.687a3.1 3.1 0 0 1 -2.118 2.868 9.034 9.034 0 0 0 -5.882 8.445v35h28v-35a9.034 9.034 0 0 0 -5.882-8.445zm-15.118-13.555a1 1 0 0 1 1-1h12a1 1 0 0 1 1 1v3h-14zm0 7v-2h14v2zm19 20h-16v22h11v-2h-9v-18h14v2h-7v2h7v2h-7v2h7v2h-12v2h12v2h-12v2h12v2h-3v2h3v6h-24v-33a7.025 7.025 0 0 1 4.575-6.569 5.074 5.074 0 0 0 3.425-4.744v-1.687h8v1.687a5.074 5.074 0 0 0 3.425 4.744 7.025 7.025 0 0 1 4.575 6.569z"/><path d="m11 27h2a3.012 3.012 0 0 1 1.959-2.816l-.692-1.876a5.017 5.017 0 0 0 -3.267 4.692z"/><path d="m11 29h2v28h-2z"/><path d="m56 15c0-4.566-3.711-13-9-13s-9 8.434-9 13a12.761 12.761 0 0 0 4.332 9.165 4.886 4.886 0 0 1 1.694 4.227l-2.562 27.535a5.56 5.56 0 1 0 11.072 0l-2.562-27.535a4.886 4.886 0 0 1 1.694-4.227 12.761 12.761 0 0 0 4.332-9.165zm-5.61 7.627a6.883 6.883 0 0 0 -2.406 5.951l2.561 27.535a3.559 3.559 0 1 1 -7.088 0l2.561-27.535a6.881 6.881 0 0 0 -2.407-5.951 10.626 10.626 0 0 1 -3.611-7.627c0-4.138 3.391-11 7-11s7 6.862 7 11a10.626 10.626 0 0 1 -3.61 7.627z"/><path d="m44 15a13.632 13.632 0 0 1 1.827-5.491l-1.721-1.018a15.16 15.16 0 0 0 -2.106 6.509 8.742 8.742 0 0 0 2.89 6.09l1.279-1.538a6.742 6.742 0 0 1 -2.169-4.552z"/></g></svg>