<svg height="512" viewBox="0 0 64 64" width="512" xmlns="http://www.w3.org/2000/svg"><path d="m57 3h-50a4 4 0 0 0 -4 4v50a4 4 0 0 0 4 4h50a4 4 0 0 0 4-4v-50a4 4 0 0 0 -4-4zm-35 53h-10a4 4 0 0 1 0-8h10a4 4 0 0 1 0 8zm0-13h-10a4 4 0 0 1 0-8h10a4 4 0 0 1 0 8zm0-14h-10a4 4 0 0 1 0-8h10a4 4 0 0 1 0 8zm0-13h-10a4 4 0 0 1 0-8h10a4 4 0 0 1 0 8zm30 40h-10a4 4 0 0 1 0-8h10a4 4 0 0 1 0 8zm0-13h-10a4 4 0 0 1 0-8h10a4 4 0 0 1 0 8zm0-14h-10a4 4 0 0 1 0-8h10a4 4 0 0 1 0 8zm0-13h-10a4 4 0 0 1 0-8h10a4 4 0 0 1 0 8z" fill="#9bc9ff"/><path d="m52 29a4 4 0 0 0 0-8h-5v8z" fill="#9bc9ff"/><path d="m52 16a4 4 0 0 0 0-8h-5v8z" fill="#9bc9ff"/><path d="m52 43a4 4 0 0 0 0-8h-5v8z" fill="#9bc9ff"/><path d="m52 56a4 4 0 0 0 0-8h-5v8z" fill="#9bc9ff"/><path d="m22 29a4 4 0 0 0 0-8h-5v8z" fill="#9bc9ff"/><path d="m22 16a4 4 0 0 0 0-8h-5v8z" fill="#9bc9ff"/><path d="m22 43a4 4 0 0 0 0-8h-5v8z" fill="#9bc9ff"/><path d="m22 56a4 4 0 0 0 0-8h-5v8z" fill="#9bc9ff"/><g fill="#1e81ce"><path d="m57 2h-50a5.006 5.006 0 0 0 -5 5v50a5.006 5.006 0 0 0 5 5h50a5.006 5.006 0 0 0 5-5v-50a5.006 5.006 0 0 0 -5-5zm3 55a3 3 0 0 1 -3 3h-24v-6h-2v6h-24a3 3 0 0 1 -3-3v-50a3 3 0 0 1 3-3h24v6h2v-6h24a3 3 0 0 1 3 3z"/><path d="m31 14h2v6h-2z"/><path d="m31 24h2v6h-2z"/><path d="m31 34h2v6h-2z"/><path d="m31 44h2v6h-2z"/><path d="m52 20h-10a5 5 0 0 0 0 10h10a5 5 0 0 0 0-10zm-13 5a3 3 0 0 1 3-3h4v6h-4a3 3 0 0 1 -3-3zm13 3h-4v-6h4a3 3 0 0 1 0 6z"/><path d="m52 7h-10a5 5 0 0 0 0 10h10a5 5 0 0 0 0-10zm-13 5a3 3 0 0 1 3-3h4v6h-4a3 3 0 0 1 -3-3zm13 3h-4v-6h4a3 3 0 0 1 0 6z"/><path d="m52 34h-10a5 5 0 0 0 0 10h10a5 5 0 0 0 0-10zm-13 5a3 3 0 0 1 3-3h4v6h-4a3 3 0 0 1 -3-3zm13 3h-4v-6h4a3 3 0 0 1 0 6z"/><path d="m52 47h-10a5 5 0 0 0 0 10h10a5 5 0 0 0 0-10zm-6 8h-4a3 3 0 0 1 0-6h4zm6 0h-4v-6h4a3 3 0 0 1 0 6z"/><path d="m22 20h-10a5 5 0 0 0 0 10h10a5 5 0 0 0 0-10zm-13 5a3 3 0 0 1 3-3h4v6h-4a3 3 0 0 1 -3-3zm13 3h-4v-6h4a3 3 0 0 1 0 6z"/><path d="m22 7h-10a5 5 0 0 0 0 10h10a5 5 0 0 0 0-10zm-6 8h-4a3 3 0 0 1 0-6h4zm6 0h-4v-6h4a3 3 0 0 1 0 6z"/><path d="m22 34h-10a5 5 0 0 0 0 10h10a5 5 0 0 0 0-10zm-13 5a3 3 0 0 1 3-3h4v6h-4a3 3 0 0 1 -3-3zm13 3h-4v-6h4a3 3 0 0 1 0 6z"/><path d="m22 47h-10a5 5 0 0 0 0 10h10a5 5 0 0 0 0-10zm-13 5a3 3 0 0 1 3-3h4v6h-4a3 3 0 0 1 -3-3zm13 3h-4v-6h4a3 3 0 0 1 0 6z"/></g></svg>