<svg height="512" viewBox="0 0 64 64" width="512" xmlns="http://www.w3.org/2000/svg"><path d="m26.315 41.576a4 4 0 0 1 -3.315-3.94v-22.636l-2 .4-16 3.2-2 .4v30a12 12 0 0 0 12 12h31v-16z" fill="#9bc9ff"/><g fill="#1e81ce"><path d="m9 7h8v2h-8z"/><path d="m26.486 40.591a2.993 2.993 0 0 1 -2.486-2.955v-23.856l-2 .4v-11.18h-18v14.78l-2 .4v30.82a13.015 13.015 0 0 0 13 13h32v-17.841zm-20.486-35.591h14v9.58l-14 2.8zm39 55h-30a11.013 11.013 0 0 1 -11-11v-29.18l18-3.6v21.416a4.991 4.991 0 0 0 4.143 4.926l18.857 3.279z"/><path d="m15 58a9.011 9.011 0 0 1 -9-9v-17h2v17a7.008 7.008 0 0 0 7 7z"/><path d="m49 46h7v2h-7z"/><path d="m58 46h4v2h-4z"/><path d="m49 54h9v2h-9z"/><path d="m60 54h2v2h-2z"/><path d="m49 50h5v2h-5z"/><path d="m56 50h2v2h-2z"/><path d="m60 50h2v2h-2z"/><path d="m49 58h2v2h-2z"/><path d="m53 58h5v2h-5z"/><path d="m60 58h2v2h-2z"/><path d="m6 28h2v2h-2z"/><path d="m17 56h2v2h-2z"/></g></svg>