<svg height="512" viewBox="0 0 64 64" width="512" xmlns="http://www.w3.org/2000/svg"><g fill="#9bc9ff"><path d="m44 20v-2a2 2 0 0 0 -4 0v2a8.009 8.009 0 0 1 -8.548 7.982 8.19 8.19 0 0 1 -7.452-8.265v-1.717a2 2 0 0 0 -4 0v2a12 12 0 0 0 24 0z"/><path d="m26 7a2 2 0 0 0 0-4 1 1 0 0 0 -1 1v2a1 1 0 0 0 1 1z"/><path d="m38 3a2 2 0 0 0 0 4 1 1 0 0 0 1-1v-2a1 1 0 0 0 -1-1z"/><path d="m13 36a5 5 0 1 0 5 5 5 5 0 0 0 -5-5zm0 6a1 1 0 1 1 1-1 1 1 0 0 1 -1 1z"/><circle cx="13" cy="41" r="1"/></g><path d="m46 40h-13v-7.051a13.008 13.008 0 0 0 12-12.949v-2a3 3 0 0 0 -2-2.816v-8.184a3 3 0 0 0 -3-3 2 2 0 0 0 -2-2 3 3 0 0 0 0 6 2 2 0 0 0 2-2 1 1 0 0 1 1 1v8.184a3 3 0 0 0 -2 2.816v2a7.027 7.027 0 0 1 -2.223 5.111 6.937 6.937 0 0 1 -5.258 1.873 7.168 7.168 0 0 1 -6.519-7.267v-1.717a3 3 0 0 0 -2-2.816v-8.184a1 1 0 0 1 1-1 2 2 0 0 0 2 2 3 3 0 0 0 0-6 2 2 0 0 0 -2 2 3 3 0 0 0 -3 3v8.184a3 3 0 0 0 -2 2.816v2a13.008 13.008 0 0 0 12 12.949v7.051h-12.09a6 6 0 1 0 0 2h12.09v8a12.013 12.013 0 0 0 12 12h3a11 11 0 0 0 0-22zm-8-34a1 1 0 0 1 0-2zm-12-2a1 1 0 0 1 0 2zm-13 41a4 4 0 1 1 4-4 4 4 0 0 1 -4 4zm8-25v-2a1 1 0 0 1 2 0v1.717a9.172 9.172 0 0 0 8.386 9.262 8.933 8.933 0 0 0 6.758-2.407 9.033 9.033 0 0 0 2.856-6.572v-2a1 1 0 0 1 2 0v2a11 11 0 0 1 -22 0zm25 40h-3a10.011 10.011 0 0 1 -10-10v-8h13a9 9 0 0 1 0 18z" fill="#1e81ce"/><circle cx="13" cy="41" fill="#1e81ce" r="2"/></svg>