<svg height="480pt" viewBox="0 0 480 480.008" width="480pt" xmlns="http://www.w3.org/2000/svg"><path d="m168.003906 136v-80h176v-48h-224v260.160156c20.007813 13.335938 32.015625 35.796875 32 59.839844 0 18.398438-15.4375 48.960938-32 76.320312v67.679688h224v-336zm0 0" fill="#9bc9ff"/><path d="m440.003906 8h-64v48h48v80h-48v336h64c17.671875 0 32-14.328125 32-32v-400c0-17.671875-14.328125-32-32-32zm0 0" fill="#9bc9ff"/><g fill="#1e81ce"><path d="m440.003906 0h-328v254.824219c-24.703125-10.9375-53.265625-8.617188-75.878906 6.160156-22.617188 14.777344-36.2109375 40-36.12109375 67.015625 0 41.230469 66.06640575 130.71875 73.60156275 140.800781l6.398437 8.550781 6.402344-8.542968c.148438-.207032 11.773438-15.777344 25.597656-36.800782v48h328c22.082032-.027343 39.972656-17.917968 40-40v-400.007812c-.027344-22.082031-17.917968-39.9726562-40-40zm-56 64h32v64h-32zm-304 386.398438c-22.464844-31.277344-64-94.894532-64-122.398438.011719-23.605469 13.015625-45.289062 33.832032-56.414062 20.820312-11.128907 46.070312-9.894532 65.703124 3.214843 17.800782 11.847657 28.484376 31.816407 28.464844 53.199219 0 13.6875-10.953125 39.320312-30.847656 72.191406-12.351562 20.609375-25.582031 39.617188-33.152344 50.207032zm48 13.601562v-57.503906c21.191406-35.296875 32-61.769532 32-78.496094-.015625-25.117188-11.875-48.757812-32-63.785156v-248.214844h208v32h-176v96h176v320zm208-336h-160v-64h160zm32 336h-16v-448h16zm96-24c0 13.253906-10.746094 24-24 24h-56v-320h48v-96h-48v-32h56c13.253906 0 24 10.746094 24 24zm0 0"/><path d="m80.003906 296c-17.671875 0-32 14.328125-32 32s14.328125 32 32 32 32-14.328125 32-32-14.328125-32-32-32zm0 48c-8.835937 0-16-7.164062-16-16s7.164063-16 16-16c8.835938 0 16 7.164062 16 16s-7.164062 16-16 16zm0 0"/></g></svg>