<svg height="480pt" viewBox="0 -16 480 480" width="480pt" xmlns="http://www.w3.org/2000/svg"><g fill="#9bc9ff"><path d="m376 120h-368v192l16 2.6875 174.71875 29.3125h17.28125v-32c0-8.835938 7.164062-16 16-16h16c8.835938 0 16 7.164062 16 16v32h17.199219l174.800781-29.320312 16-2.679688v-192zm0 0"/><path d="m264 344v48h-48v-48h-17.28125l-174.71875-29.3125v125.3125h432v-125.320312l-174.800781 29.320312zm0 0"/><path d="m168 88h-64v32h64zm0 0"/><path d="m312 88v32h64v-32zm0 0"/></g><path d="m432 144h16v120h-16zm0 0" fill="#1e81ce"/><path d="m432 280h16v16h-16zm0 0" fill="#1e81ce"/><path d="m480 112h-96v-32h-16v-80h-256v80h-16v32h-96v206.769531l16 2.679688v126.550781h448v-126.542969l16-2.679687zm-112 0h-48v-16h48zm-48-32h-16v32h-128v-32h-16v-32h160zm-192-64h224v64h-16v-48h-192v48h-16zm-16 80h48v16h-48zm336 336h-416v-107.863281l165.390625 27.75 10.609375.066406v48.046875h64v-48h9.863281l166.136719-27.863281zm-224-48v-72c0-4.417969 3.582031-8 8-8h16c4.417969 0 8 3.582031 8 8v72zm240-78.777344-183.472656 30.777344h-8.527344v-24c0-13.253906-10.746094-24-24-24h-16c-13.253906 0-24 10.746094-24 24v24h-8.617188l-183.382812-30.769531v-177.230469h448zm0 0" fill="#1e81ce"/></svg>