<svg height="480pt" viewBox="-40 0 480 480" width="480pt" xmlns="http://www.w3.org/2000/svg"><path d="m56 8c-26.507812 0-48 21.492188-48 48v360l.71875-.078125c3.9375-23.046875 23.902344-39.90625 47.28125-39.921875h336v-368zm288 144h-240v-96h240zm0 0" fill="#9bc9ff"/><g fill="#1e81ce"><path d="m56 0c-30.914062.0351562-55.9648438 25.085938-56 56v368.921875h.046875c.523437 30.539063 25.410156 55.035156 55.953125 55.078125h344v-480zm328 440h-328c-8.835938 0-16-7.164062-16-16s7.164062-16 16-16h328zm-328-48c-17.671875 0-32 14.328125-32 32s14.328125 32 32 32h328v8h-328c-22.089844 0-40-17.910156-40-40s17.910156-40 40-40h328v8zm0-24c-15.066406-.003906-29.492188 6.085938-40 16.878906v-328.878906c.027344-22.082031 17.917969-39.972656 40-40h328v352zm0 0"/><path d="m32 56v296h16v-296c0-4.417969 3.582031-8 8-8v-16c-13.253906 0-24 10.746094-24 24zm0 0"/><path d="m64 416h272v16h-272zm0 0"/><path d="m352 416h16v16h-16zm0 0"/><path d="m96 48v112h256v-112zm240 96h-224v-80h224zm0 0"/></g></svg>