<svg height="480pt" viewBox="0 -40 480.04864 480" width="480pt" xmlns="http://www.w3.org/2000/svg"><path d="m26.769531 282.746094c-18.324219 18.304687-23.8125 45.847656-13.898437 69.777344 9.917968 23.929687 33.277344 39.519531 59.175781 39.5h400v-24h-400c-22.089844 0-40-17.90625-40-40 0-22.089844 17.910156-40 40-40h400v-24h-400c-16.976563 0-33.257813 6.730468-45.277344 18.722656zm0 0" fill="#9bc9ff"/><path d="m72.046875 136.023438c-35.34375 0-64 28.65625-64 64 0 35.347656 28.65625 64 64 64h368v-24h-368c-22.089844 0-40-17.90625-40-40 0-22.089844 17.910156-40 40-40h368v-24zm0 0" fill="#9bc9ff"/><path d="m58.769531 26.746094c-18.324219 18.304687-23.8125 45.847656-13.898437 69.777344 9.917968 23.929687 33.277344 39.519531 59.175781 39.5h368v-24h-368c-22.089844 0-40-17.90625-40-40 0-22.089844 17.910156-40 40-40h368v-24h-368c-16.976563 0-33.257813 6.730468-45.277344 18.722656zm0 0" fill="#9bc9ff"/><g fill="#1e81ce"><path d="m64.046875 320.023438h336v16h-336zm0 0"/><path d="m416.046875 320.023438h16v16h-16zm0 0"/><path d="m64.046875 192.023438h304v16h-304zm0 0"/><path d="m384.046875 192.023438h16v16h-16zm0 0"/><path d="m480.046875 40.023438v-40.0000005h-376c-30.84375-.0351563-58.277344 19.6015625-68.1875 48.8085935-9.90625 29.210938-.085937 61.484375 24.414063 80.222657-30.640626 5.035156-54.589844 29.167968-59.390626 59.84375-4.800781 30.679687 10.632813 60.972656 38.269532 75.125-6.65625 3.410156-12.75 7.824218-18.0625 13.089843-20.597656 20.597657-26.757813 51.578125-15.601563 78.488281 11.160157 26.90625 37.429688 44.441407 66.558594 44.421876h408v-40h-16v-64h16v-40h-32v-24h-16v-64h16v-24h32v-40h-24v-64zm-32 320h-376c-17.671875 0-32-14.324219-32-32 0-17.671876 14.328125-32 32-32h376zm16-88v8h-392c-26.507813 0-48 21.492187-48 48 0 26.511718 21.492187 48 48 48h392v8h-392c-30.925781 0-56-25.070313-56-56 0-30.925782 25.074219-56 56-56zm-48-40h-344c-17.671875 0-32-14.324219-32-32 0-17.671876 14.328125-32 32-32h344zm16-80h-360c-26.507813 0-48 21.492187-48 48 0 26.511718 21.492187 48 48 48h360v8h-360c-30.925781 0-56-25.070313-56-56 0-30.925782 25.074219-56 56-56h360zm32-24h-360c-30.925781 0-56-25.070313-56-56 0-30.925782 25.074219-56 56-56h360v8h-360c-26.507813 0-48 21.492187-48 48 0 26.511718 21.492187 48 48 48h360zm-24-24h-336c-17.671875 0-32-14.324219-32-32 0-17.671876 14.328125-32 32-32h336zm0 0"/><path d="m96.046875 64.023438h304v16h-304zm0 0"/><path d="m408.046875 64.023438h16v16h-16zm0 0"/></g></svg>