<svg height="480pt" viewBox="-48 0 480 480" width="480pt" xmlns="http://www.w3.org/2000/svg"><path d="m8 232v64h368v-64zm0 0" fill="#9bc9ff"/><path d="m160 352h64c8.835938 0 16-7.164062 16-16s-7.164062-16-16-16h-64c-8.835938 0-16 7.164062-16 16s7.164062 16 16 16zm0 0" fill="#9bc9ff"/><path d="m8 72h368v-64h-368zm0 0" fill="#9bc9ff"/><path d="m160 128h64c8.835938 0 16-7.164062 16-16s-7.164062-16-16-16h-64c-8.835938 0-16 7.164062-16 16s7.164062 16 16 16zm0 0" fill="#9bc9ff"/><g fill="#1e81ce"><path d="m160 360h64c13.253906 0 24-10.746094 24-24s-10.746094-24-24-24h-64c-13.253906 0-24 10.746094-24 24s10.746094 24 24 24zm0-32h64c4.417969 0 8 3.582031 8 8s-3.582031 8-8 8h-64c-4.417969 0-8-3.582031-8-8s3.582031-8 8-8zm0 0"/><path d="m384 80v-80h-384v80h16v144h-16v80h16v176h352v-176h16v-80h-16v-144zm-368-64h352v48h-352zm336 448h-320v-160h320zm16-176h-352v-48h352zm-16-64h-320v-144h320zm0 0"/><path d="m160 136h64c13.253906 0 24-10.746094 24-24s-10.746094-24-24-24h-64c-13.253906 0-24 10.746094-24 24s10.746094 24 24 24zm0-32h64c4.417969 0 8 3.582031 8 8s-3.582031 8-8 8h-64c-4.417969 0-8-3.582031-8-8s3.582031-8 8-8zm0 0"/><path d="m256 200h48v16h-48zm0 0"/><path d="m320 200h16v16h-16zm0 0"/><path d="m256 176h48v16h-48zm0 0"/><path d="m320 176h16v16h-16zm0 0"/><path d="m256 440h48v16h-48zm0 0"/><path d="m320 440h16v16h-16zm0 0"/><path d="m256 416h48v16h-48zm0 0"/><path d="m320 416h16v16h-16zm0 0"/></g></svg>