<svg height="480pt" viewBox="-63 0 479 480" width="480pt" xmlns="http://www.w3.org/2000/svg"><g fill="#9bc9ff"><path d="m40.5 440h32v32h-32zm0 0"/><path d="m280.5 440h32v32h-32zm0 0"/><path d="m320.5 32h-288v96h288zm-144 56c-17.671875 0-32-14.328125-32-32h64c0 17.671875-14.328125 32-32 32zm0 0"/><path d="m320.5 128h-288v96h288zm-144 56c-17.671875 0-32-14.328125-32-32h64c0 17.671875-14.328125 32-32 32zm0 0"/><path d="m320.5 224h-288v96h288zm-144 56c-17.671875 0-32-14.328125-32-32h64c0 17.671875-14.328125 32-32 32zm0 0"/><path d="m320.5 320h-288v96h288zm-144 56c-17.671875 0-32-14.328125-32-32h64c0 17.671875-14.328125 32-32 32zm0 0"/></g><path d="m352.5 0h-352v448h32v32h48v-32h192v32h48v-32h32zm-288 464h-16v-16h16zm240 0h-16v-16h16zm32-32h-320v-416h320zm0 0" fill="#1e81ce"/><path d="m136.5 56c0 22.089844 17.910156 40 40 40s40-17.910156 40-40v-8h-80zm62.632812 8c-3.386718 9.597656-12.457031 16.011719-22.632812 16.011719s-19.246094-6.414063-22.632812-16.011719zm0 0" fill="#1e81ce"/><path d="m136.5 152c0 22.089844 17.910156 40 40 40s40-17.910156 40-40v-8h-80zm62.632812 8c-3.386718 9.597656-12.457031 16.011719-22.632812 16.011719s-19.246094-6.414063-22.632812-16.011719zm0 0" fill="#1e81ce"/><path d="m136.5 248c0 22.089844 17.910156 40 40 40s40-17.910156 40-40v-8h-80zm62.632812 8c-3.386718 9.597656-12.457031 16.011719-22.632812 16.011719s-19.246094-6.414063-22.632812-16.011719zm0 0" fill="#1e81ce"/><path d="m176.5 384c22.082031-.027344 39.972656-17.917969 40-40v-8h-80v8c.027344 22.082031 17.917969 39.972656 40 40zm22.632812-32c-3.386718 9.597656-12.457031 16.011719-22.632812 16.011719s-19.246094-6.414063-22.632812-16.011719zm0 0" fill="#1e81ce"/><path d="m328.5 24h-304v400h304zm-288 16h272v80h-272zm0 96h272v80h-272zm0 96h272v80h-272zm272 176h-272v-80h272zm0 0" fill="#1e81ce"/></svg>