<svg height="480pt" viewBox="-40 0 480 480" width="480pt" xmlns="http://www.w3.org/2000/svg"><path d="m40 40h320v64h-320zm0 0" fill="#9bc9ff"/><path d="m56 144h48v48h-48zm0 0" fill="#9bc9ff"/><path d="m136 144h48v48h-48zm0 0" fill="#9bc9ff"/><path d="m216 144h48v48h-48zm0 0" fill="#9bc9ff"/><path d="m296 144h48v48h-48zm0 0" fill="#9bc9ff"/><path d="m56 224h48v48h-48zm0 0" fill="#9bc9ff"/><path d="m136 224h48v48h-48zm0 0" fill="#9bc9ff"/><path d="m216 224h48v48h-48zm0 0" fill="#9bc9ff"/><path d="m296 224h48v48h-48zm0 0" fill="#9bc9ff"/><path d="m56 304h48v48h-48zm0 0" fill="#9bc9ff"/><path d="m136 304h48v48h-48zm0 0" fill="#9bc9ff"/><path d="m216 304h48v48h-48zm0 0" fill="#9bc9ff"/><path d="m216 384h48v48h-48zm0 0" fill="#9bc9ff"/><path d="m296 304h48v128h-48zm0 0" fill="#9bc9ff"/><path d="m56 384h128v48h-128zm0 0" fill="#9bc9ff"/><g fill="#1e81ce"><path d="m400 480h-400v-480h400zm-384-16h368v-448h-368zm0 0"/><path d="m368 112h-336v-80h336zm-320-16h304v-48h-304zm0 0"/><path d="m112 200h-64v-64h64zm-48-16h32v-32h-32zm0 0"/><path d="m192 200h-64v-64h64zm-48-16h32v-32h-32zm0 0"/><path d="m272 200h-64v-64h64zm-48-16h32v-32h-32zm0 0"/><path d="m352 200h-64v-64h64zm-48-16h32v-32h-32zm0 0"/><path d="m112 280h-64v-64h64zm-48-16h32v-32h-32zm0 0"/><path d="m192 280h-64v-64h64zm-48-16h32v-32h-32zm0 0"/><path d="m272 280h-64v-64h64zm-48-16h32v-32h-32zm0 0"/><path d="m352 280h-64v-64h64zm-48-16h32v-32h-32zm0 0"/><path d="m112 360h-64v-64h64zm-48-16h32v-32h-32zm0 0"/><path d="m192 360h-64v-64h64zm-48-16h32v-32h-32zm0 0"/><path d="m272 360h-64v-64h64zm-48-16h32v-32h-32zm0 0"/><path d="m272 440h-64v-64h64zm-48-16h32v-32h-32zm0 0"/><path d="m352 440h-64v-144h64zm-48-16h32v-112h-32zm0 0"/><path d="m192 440h-144v-64h144zm-128-16h112v-32h-112zm0 0"/><path d="m320 72h16v16h-16zm0 0"/><path d="m296 72h16v16h-16zm0 0"/><path d="m272 72h16v16h-16zm0 0"/></g></svg>