<svg height="480pt" viewBox="0 -32 480 480" width="480pt" xmlns="http://www.w3.org/2000/svg"><g fill="#9bc9ff"><path d="m256 280h-248v56h336v-56zm0 0"/><path d="m354 40-42 240h32l42.320312-240h85.679688v-32h-112.398438zm0 0"/><path d="m80 376c0-4.417969 3.582031-8 8-8s8 3.582031 8 8-3.582031 8-8 8-8-3.582031-8-8zm0 0"/><path d="m96 376c0 4.417969-3.582031 8-8 8s-8-3.582031-8-8 3.582031-8 8-8 8 3.582031 8 8zm0 0"/><path d="m256 376c0-4.417969 3.582031-8 8-8s8 3.582031 8 8-3.582031 8-8 8-8-3.582031-8-8zm0 0"/><path d="m272 376c0 4.417969-3.582031 8-8 8s-8-3.582031-8-8 3.582031-8 8-8 8 3.582031 8 8zm0 0"/><path d="m272 152v-64h-240v64zm0 0"/></g><path d="m352.878906 0-47.597656 272h-41.28125v-112h16v-80h-256v80h16v112h-40v72h64.246094c-13.898438 10.257812-19.640625 28.277344-14.242188 44.6875 5.398438 16.40625 20.722656 27.496094 37.996094 27.496094s32.597656-11.089844 37.996094-27.496094c5.398437-16.410156-.34375-34.429688-14.242188-44.6875h128.492188c-13.898438 10.257812-19.640625 28.277344-14.242188 44.6875 5.398438 16.40625 20.722656 27.496094 37.996094 27.496094s32.597656-11.089844 37.996094-27.496094c5.398437-16.410156-.34375-34.429688-14.242188-44.6875h64.246094v-63.3125l41.03125-232.6875h86.96875v-48zm-264.878906 400c-13.253906 0-24-10.746094-24-24s10.746094-24 24-24 24 10.746094 24 24-10.746094 24-24 24zm176 0c-13.253906 0-24-10.746094-24-24s10.746094-24 24-24 24 10.746094 24 24-10.746094 24-24 24zm-224-304h224v48h-224zm16 64h192v112h-192zm280 168h-320v-40h320zm128-296h-84.390625l-42.320313 240h-15.769531l44.800781-256h97.679688zm0 0" fill="#1e81ce"/><path d="m104 376c0 8.835938-7.164062 16-16 16s-16-7.164062-16-16 7.164062-16 16-16 16 7.164062 16 16zm0 0" fill="#1e81ce"/><path d="m280 376c0 8.835938-7.164062 16-16 16s-16-7.164062-16-16 7.164062-16 16-16 16 7.164062 16 16zm0 0" fill="#1e81ce"/><path d="m128 168h48v16h-48zm0 0" fill="#1e81ce"/></svg>