<svg height="488pt" viewBox="-60 0 488 488.648" width="488pt" xmlns="http://www.w3.org/2000/svg"><path d="m8.324219 424h136v-32h-56c0-26.507812-21.492188-48-48-48v-256c26.507812 0 48-21.492188 48-48h192c0 26.507812 21.488281 48 48 48v256c-26.511719 0-48 21.492188-48 48h-56v32h136v-416h-352zm0 0" fill="#9bc9ff"/><path d="m248.324219 328c.035156-29.917969-20.636719-55.882812-49.804688-62.546875-29.164062-6.667969-59.0625 7.738281-72.027343 34.703125-12.964844 26.964844-5.542969 59.3125 17.878906 77.929688 23.421875 18.617187 56.609375 18.546874 79.953125-.164063 15.160156-12.140625 23.988281-30.503906 24-49.921875zm-64 40c-22.089844 0-40-17.910156-40-40s17.910156-40 40-40c22.089843 0 40 17.910156 40 40s-17.910157 40-40 40zm0 0" fill="#9bc9ff"/><g fill="#1e81ce"><path d="m368.324219 0h-368v432h136v56.648438l48-38.402344 48 38.402344v-56.648438h136zm-195.902344 382.585938c-2.25-.4375-4.472656-1.011719-6.648437-1.722657-5.960938-2.105469-11.523438-5.210937-16.441407-9.183593l-.105469-.085938c-23.429687-18.339844-29.328124-51.363281-13.691406-76.679688 15.632813-25.3125 47.800782-34.828124 74.691406-22.085937 26.890626 12.738281 39.902344 43.65625 30.210938 71.789063-9.6875 28.132812-38.976562 44.484374-68.007812 37.96875zm59.902344-1.105469c15.292969-13.566407 24.03125-33.039063 24-53.480469.082031-33.105469-22.425781-62.003906-54.542969-70.03125-32.121094-8.023438-65.574219 6.886719-81.074219 36.140625-15.503906 29.253906-9.058593 65.308594 15.617188 87.378906v2.511719h-40.566407c-3.585937-24.558594-22.875-43.847656-47.433593-47.433594v-241.132812c24.558593-3.585938 43.847656-22.875 47.433593-47.433594h177.132813c3.585937 24.558594 22.875 43.847656 47.433594 47.433594v241.132812c-24.558594 3.585938-43.847657 22.875-47.433594 47.433594h-40.566406zm-16 73.871093-32-25.597656-32 25.597656v-62.878906c.304687.144532.625.238282.929687.390625 19.617188 9.515625 42.515625 9.515625 62.132813 0 .304687-.144531.632812-.246093.9375-.390625zm136-39.351562h-120v-16h56v-8c.027343-22.082031 17.917969-39.972656 40-40h8v-272h-8c-22.082031-.027344-39.972657-17.917969-40-40v-8h-208v8c-.027344 22.082031-17.917969 39.972656-40 40h-8v272h8c22.082031.027344 39.972656 17.917969 40 40v8h56v16h-120v-400h336zm0 0"/><path d="m184.324219 280c-26.511719 0-48 21.492188-48 48s21.488281 48 48 48c26.507812 0 48-21.492188 48-48-.027344-26.5-21.5-47.972656-48-48zm0 80c-17.671875 0-32-14.328125-32-32s14.328125-32 32-32 32 14.328125 32 32-14.328125 32-32 32zm0 0"/><path d="m160.324219 64h48v16h-48zm0 0"/><path d="m136.324219 96h96v16h-96zm0 0"/><path d="m80.324219 128h208v16h-208zm0 0"/><path d="m80.324219 160h208v16h-208zm0 0"/><path d="m80.324219 192h208v16h-208zm0 0"/><path d="m80.324219 224h176v16h-176zm0 0"/><path d="m272.324219 224h16v16h-16zm0 0"/></g></svg>