<svg height="480pt" viewBox="-104 0 480 480.00573" width="480pt" xmlns="http://www.w3.org/2000/svg"><path d="m264.007812 248.003906v-112c.046876-34.140625-13.570312-66.878906-37.804687-90.921875-24.238281-24.042969-57.085937-37.394531-91.226563-37.078125-71.074218 1.738282-127.605468 60.1875-126.96875 131.28125v236.71875c0 53.019532 42.980469 96 96 96 53.019532 0 96-42.980468 96-96v-160c0-35.34375-28.652343-64-64-64-35.34375 0-64 28.65625-64 64v160h32v-160c0-17.671875 14.328126-32 32-32 17.675782 0 32 14.328125 32 32v160c0 35.347656-28.652343 64-64 64-35.34375 0-64-28.652344-64-64v-240c-.070312-52.96875 42.832032-95.957031 95.800782-96 53.582031 1.335938 96.292968 45.203125 96.199218 98.800782v109.199218zm0 0" fill="#9bc9ff"/><path d="m104.007812 480.003906c-57.410156-.0625-103.9335932-46.589844-103.9999995-104v-236.71875c-.6875005-75.511718 59.4179685-137.5625 134.9140625-139.28124975 36.269531-.33203125 71.167969 13.85546875 96.917969 39.40234375 25.75 25.542969 40.214844 60.328125 40.167968 96.597656v120h-48v-117.199218c-.171874-24.429688-9.980468-47.804688-27.296874-65.039063-15.988282-16.335937-37.84375-25.609375-60.703126-25.761719h-.167968c-23.320313.011719-45.679688 9.292969-62.152344 25.796875-16.476562 16.507813-25.710938 38.882813-25.679688 62.203125v240c0 30.929688 25.074219 56 56 56 30.929688 0 56-25.070312 56-56v-160c0-13.253906-10.746093-24-24-24-13.253906 0-24 10.746094-24 24v168h-48v-168c0-39.761718 32.234376-72 72-72 39.765626 0 72 32.238282 72 72v160c-.066406 57.410156-46.589843 103.9375-104 104zm32-464h-.976562c-66.710938 1.632813-119.734375 56.554688-119.023438 123.28125v236.71875c0 48.601563 39.398438 88 88 88 48.601563 0 88-39.398437 88-88v-160c0-30.925781-25.070312-56-56-56-30.925781 0-56 25.074219-56 56v152h16v-152c0-22.089844 17.910157-40 40-40 22.09375 0 40 17.910156 40 40v160c0 39.765625-32.234374 72-72 72-39.765624 0-72-32.234375-72-72v-240c-.070312-57.378906 46.402344-103.949218 103.785157-104h.214843c27.09375.128906 53.015626 11.074219 72 30.402344 20.316407 20.242188 31.816407 47.6875 32 76.367188v101.230468h16v-104c.042969-31.835937-12.585937-62.382812-35.097656-84.898437-22.515625-22.511719-53.0625-35.140625-84.902344-35.101563zm0 0" fill="#1e81ce"/></svg>