<svg height="480pt" viewBox="-48 0 480 480.0401" width="480pt" xmlns="http://www.w3.org/2000/svg"><path d="m376.019531 56.039062h-112v32h80v352h-304v-352h80v-32h-112v416h368zm0 0" fill="#9bc9ff"/><path d="m200.019531 40.039062c0 4.417969-3.582031 8-8 8s-8-3.582031-8-8c0-4.417968 3.582031-8 8-8s8 3.582032 8 8zm0 0" fill="#9bc9ff"/><g fill="#1e81ce"><path d="m272.019531 48.039062v-16h-40.800781c-3.785156-18.640624-20.175781-32.039062-39.199219-32.039062-19.023437 0-35.414062 13.398438-39.199219 32.039062h-40.800781v16h-111.9999998v432h383.9999998v-432zm56 48h8v336h-288v-336h8v328h272zm-16 312h-240v-312h40v16h160v-16h40zm-184-360h40v-8c0-13.253906 10.746094-24 24-24 13.253907 0 24 10.746094 24 24v8h40v48h-128zm240 416h-352v-400h96v16h-80v368h320v-368h-80v-16h96zm0 0"/><path d="m208.019531 40.039062c0 8.835938-7.164062 16-16 16-8.835937 0-16-7.164062-16-16 0-8.835937 7.164063-16 16-16 8.835938 0 16 7.164063 16 16zm0 0"/><path d="m96.019531 136.039062h16v16h-16zm0 0"/><path d="m128.019531 136.039062h160v16h-160zm0 0"/><path d="m96.019531 168.039062h72v16h-72zm0 0"/><path d="m184.019531 168.039062h104v16h-104zm0 0"/><path d="m96.019531 200.039062h16v16h-16zm0 0"/><path d="m96.019531 264.039062h16v16h-16zm0 0"/><path d="m184.019531 232.039062h16v16h-16zm0 0"/><path d="m128.019531 200.039062h160v16h-160zm0 0"/><path d="m96.019531 232.039062h72v16h-72zm0 0"/><path d="m272.019531 264.039062h16v16h-16zm0 0"/><path d="m256.019531 296.039062h32v16h-32zm0 0"/><path d="m272.019531 360.039062h16v16h-16zm0 0"/><path d="m96.019531 360.039062h16v16h-16zm0 0"/><path d="m216.019531 232.039062h72v16h-72zm0 0"/><path d="m128.019531 264.039062h128v16h-128zm0 0"/><path d="m96.019531 296.039062h144v16h-144zm0 0"/><path d="m96.019531 328.039062h192v16h-192zm0 0"/><path d="m128.019531 360.039062h128v16h-128zm0 0"/></g></svg>