<svg height="480pt" viewBox="-80 0 480 480" width="480pt" xmlns="http://www.w3.org/2000/svg"><path d="m264 8h-208l-24 64h256zm0 0" fill="#9bc9ff"/><path d="m288 72h-280v64h304v-64zm0 0" fill="#9bc9ff"/><path d="m37.710938 216 12.578124 176h219.421876l12.578124-176zm122.289062 136c-26.507812 0-48-21.492188-48-48s21.492188-48 48-48 48 21.492188 48 48-21.492188 48-48 48zm0 0" fill="#9bc9ff"/><g fill="#1e81ce"><path d="m320 64h-26.457031l-24-64h-219.085938l-24 64h-26.457031v80h24.550781l24 336h222.898438l24-336h24.550781zm-258.457031-48h196.914062l18 48h-232.914062zm1.90625 448-4.578125-64h202.257812l-4.578125 64zm198.816406-80h-204.53125l-11.429687-160h227.390624zm12.566406-176h-229.664062l-4.574219-64h238.8125zm29.167969-80h-288v-48h288zm0 0"/><path d="m32 96h224v16h-224zm0 0"/><path d="m272 96h16v16h-16zm0 0"/><path d="m160 248c-30.929688 0-56 25.070312-56 56s25.070312 56 56 56 56-25.070312 56-56c-.035156-30.914062-25.085938-55.964844-56-56zm0 96c-22.089844 0-40-17.910156-40-40s17.910156-40 40-40 40 17.910156 40 40c-.027344 22.082031-17.917969 39.972656-40 40zm0 0"/><path d="m80 432h128v16h-128zm0 0"/><path d="m224 432h16v16h-16zm0 0"/></g></svg>