<svg height="480pt" viewBox="0 0 480 480" width="480pt" xmlns="http://www.w3.org/2000/svg"><path d="m120 56h-112v416h112zm0 0" fill="#9bc9ff"/><path d="m368 408h-248v64h352v-64zm0 0" fill="#9bc9ff"/><path d="m368 208c8.835938 0 16-7.164062 16-16v-32h-112v32c0 8.835938 7.164062 16 16 16zm0 0" fill="#9bc9ff"/><path d="m372.71875 368 9.359375-80 1.921875-16h-112l16 136h80zm0 0" fill="#9bc9ff"/><path d="m272 72c0 17.671875-14.328125 32-32 32s-32-14.328125-32-32 14.328125-32 32-32 32 14.328125 32 32zm0 0" fill="#9bc9ff"/><path d="m360 72c0 8.835938-7.164062 16-16 16s-16-7.164062-16-16 7.164062-16 16-16 16 7.164062 16 16zm0 0" fill="#9bc9ff"/><g fill="#1e81ce"><path d="m352 248v-32h16c13.253906 0 24-10.746094 24-24v-8h88v-16h-88v-16h-16v-8h64v-49.734375l-42.847656-94.265625h-397.152344v480h480v-80h-103.007812l2.832031-24h20.175781c26.507812 0 48-21.492188 48-48s-21.492188-48-48-48h-8.871094l1.886719-16h-130.015625l16 136h-47v-256h48v8h-16v40c0 13.253906 10.746094 24 24 24h16v32zm-16-16h-16v-16h16zm-320-216h96v32h-96zm96 448h-96v-400h96zm288-168c17.671875 0 32 14.328125 32 32s-14.328125 32-32 32h-18.289062l7.535156-64zm-119-16h93.960938l-14.074219 120h-65.765625zm183 136v48h-336v-48zm-248-288v272h-88v-384h258.847656l37.152344 81.734375v30.265625zm80 16h64v8h-64zm-8 56c-4.417969 0-8-3.582031-8-8v-24h96v24c0 4.417969-3.582031 8-8 8zm0 0"/><path d="m240 32c-21.050781.003906-38.492188 16.320312-39.902344 37.324219-1.410156 21 13.699219 39.5 34.558594 42.316406s40.332031-11.015625 44.542969-31.640625h24.800781v-16h-24.800781c-3.828125-18.613281-20.199219-31.976562-39.199219-32zm0 64c-12.21875.050781-22.523438-9.085938-23.9375-21.222656-1.414062-12.132813 6.511719-23.394532 18.414062-26.15625 11.902344-2.761719 23.980469 3.859375 28.050782 15.378906h-22.527344v16h22.527344c-3.378906 9.554688-12.394532 15.957031-22.527344 16zm0 0"/><path d="m344 48c-13.253906 0-24 10.746094-24 24s10.746094 24 24 24 24-10.746094 24-24-10.746094-24-24-24zm0 32c-4.417969 0-8-3.582031-8-8s3.582031-8 8-8 8 3.582031 8 8-3.582031 8-8 8zm0 0"/><path d="m144 64h16v144h-16zm0 0"/><path d="m144 32h16v16h-16zm0 0"/><path d="m432 432h16v16h-16zm0 0"/><path d="m152 432h264v16h-264zm0 0"/></g></svg>