<svg height="484pt" viewBox="-115 0 484 484.44" width="484pt" xmlns="http://www.w3.org/2000/svg"><g fill="#9bc9ff"><path d="m109.824219 189.679688c29.859375 8.292968 61.367187-5.996094 74.800781-33.917969v-.082031c4.183594-8.625 6.34375-18.09375 6.320312-27.679688 0-35.347656-28.652343-64-64-64-35.347656 0-64 28.652344-64 64-.023437 9.585938 2.136719 19.054688 6.320313 27.679688v.082031c8.019531 16.605469 22.792969 28.964843 40.558594 33.917969zm17.121093-85.679688c13.253907 0 24 10.746094 24 24s-10.746093 24-24 24c-13.253906 0-24-10.746094-24-24s10.746094-24 24-24zm0 0"/><path d="m69.265625 155.761719-59.359375 221.4375c-6.871094 25.605469 8.316406 51.929687 33.917969 58.800781l37.519531-140 28.480469-106.320312c-17.765625-4.953126-32.539063-17.3125-40.558594-33.917969zm0 0"/><path d="m243.984375 377.199219-59.359375-221.4375c-8.019531 16.605469-22.792969 28.964843-40.558594 33.917969l28.480469 106.320312 37.519531 140c25.601563-6.871094 40.789063-33.195312 33.917969-58.800781zm0 0"/></g><path d="m251.746094 375.128906-58.679688-218.792968c3.890625-8.9375 5.894532-18.585938 5.878906-28.335938-.039062-27.316406-15.53125-52.257812-40-64.398438v-31.601562c0-17.671875-14.328124-32-32-32-17.671874 0-32 14.328125-32 32v31.601562c-24.46875 12.140626-39.960937 37.082032-40 64.398438-.015624 9.75 1.988282 19.398438 5.878907 28.335938l-58.679688 218.785156c-7.242187 26.878906 6.402344 54.988281 32 65.925781l-10.519531 39.257813 15.449219 4.136718 48.40625-180.441406h31.464843v16h16v-16h31.464844l48.34375 180.441406 15.449219-4.136718-10.523437-39.257813c25.601562-10.933594 39.246093-39.042969 32-65.917969zm-140.800782-343.128906c0-8.835938 7.164063-16 16-16 8.835938 0 16 7.164062 16 16v25.855469c-10.523437-2.472657-21.476562-2.472657-32 0zm16 40c30.914063.035156 55.964844 25.085938 56 56 .027344 8.375-1.855468 16.648438-5.511718 24.183594l-.558594 1.191406c-9.503906 18.710938-28.671875 30.539062-49.65625 30.640625-20.984375.105469-40.269531-11.535156-49.953125-30.152344l-.800781-1.679687c-3.660156-7.535156-5.546875-15.808594-5.519532-24.183594.035157-30.914062 25.085938-55.964844 56-56zm-105.328124 337.601562c-5.339844-9.175781-6.78125-20.109374-4-30.355468l54.761718-204.277344c.175782.183594.367188.355469.574219.511719 7.40625 8.46875 16.699219 15.082031 27.128906 19.304687l.0625.039063-61.765625 230.609375c-7.027344-3.507813-12.859375-9.019532-16.761718-15.832032zm113.328124-121.601562v-24h-16v24h-27.199218l23.839844-88.976562c7.5 1.300781 15.171874 1.300781 22.671874 0l23.886719 88.976562zm97.328126 121.601562c-3.90625 6.804688-9.738282 12.304688-16.761719 15.804688l-61.78125-230.558594.078125-.046875c10.421875-4.222656 19.710937-10.832031 27.113281-19.296875.203125-.15625.394531-.328125.574219-.511718l54.761718 204.289062c2.777344 10.230469 1.34375 21.152344-3.984374 30.320312zm0 0" fill="#1e81ce"/><path d="m126.945312 160c17.671876 0 32-14.328125 32-32s-14.328124-32-32-32c-17.671874 0-32 14.328125-32 32s14.328126 32 32 32zm0-48c8.835938 0 16 7.164062 16 16s-7.164062 16-16 16c-8.835937 0-16-7.164062-16-16s7.164063-16 16-16zm0 0" fill="#1e81ce"/></svg>