<svg height="480pt" viewBox="-16 0 480 480" width="480pt" xmlns="http://www.w3.org/2000/svg"><path d="m56 232h368v-48h-368zm0 0" fill="#9bc9ff"/><path d="m192 288h96l-16-56h-64zm0 0" fill="#9bc9ff"/><path d="m408 360c-17.671875 0-32 14.328125-32 32v16h64v-16c0-17.671875-14.328125-32-32-32zm0 0" fill="#9bc9ff"/><path d="m376 440c0 17.671875 14.328125 32 32 32s32-14.328125 32-32v-32h-64zm0 0" fill="#9bc9ff"/><path d="m160 288c-8.835938 0-16 7.164062-16 16v8h192v-8c0-8.835938-7.164062-16-16-16zm0 0" fill="#9bc9ff"/><g fill="#1e81ce"><path d="m0 480h320v-128h-320zm16-112h288v96h-288zm0 0"/><path d="m32 384h16v16h-16zm0 0"/><path d="m32 408h16v16h-16zm0 0"/><path d="m32 432h16v16h-16zm0 0"/><path d="m56 384h16v16h-16zm0 0"/><path d="m56 408h16v16h-16zm0 0"/><path d="m56 432h16v16h-16zm0 0"/><path d="m80 384h16v16h-16zm0 0"/><path d="m80 408h16v16h-16zm0 0"/><path d="m80 432h16v16h-16zm0 0"/><path d="m104 384h16v16h-16zm0 0"/><path d="m104 408h16v16h-16zm0 0"/><path d="m104 432h112v16h-112zm0 0"/><path d="m128 384h16v16h-16zm0 0"/><path d="m128 408h16v16h-16zm0 0"/><path d="m152 384h16v16h-16zm0 0"/><path d="m152 408h16v16h-16zm0 0"/><path d="m176 384h16v16h-16zm0 0"/><path d="m176 408h16v16h-16zm0 0"/><path d="m200 384h16v16h-16zm0 0"/><path d="m200 408h16v16h-16zm0 0"/><path d="m224 384h16v16h-16zm0 0"/><path d="m224 408h16v16h-16zm0 0"/><path d="m224 432h16v16h-16zm0 0"/><path d="m248 384h16v16h-16zm0 0"/><path d="m248 432h16v16h-16zm0 0"/><path d="m272 384h16v16h-16zm0 0"/><path d="m248 408h40v16h-40zm0 0"/><path d="m272 432h16v16h-16zm0 0"/><path d="m408 352c-22.082031.027344-39.972656 17.917969-40 40v48c0 22.089844 17.910156 40 40 40s40-17.910156 40-40v-48c-.027344-22.082031-17.917969-39.972656-40-40zm24 88c0 13.253906-10.746094 24-24 24s-24-10.746094-24-24v-24h48zm0-40h-48v-8c0-13.253906 10.746094-24 24-24s24 10.746094 24 24zm0 0"/><path d="m400 376h16v16h-16zm0 0"/><path d="m320 280h-25.96875l-11.421875-40h149.390625v-240h-384v240h149.390625l-11.421875 40h-25.96875c-13.253906 0-24 10.746094-24 24v16h208v-16c0-13.253906-10.746094-24-24-24zm-256-264h352v160h-352zm0 208v-32h352v32zm213.390625 56h-74.78125l11.421875-40h51.9375zm-125.390625 24c0-4.417969 3.582031-8 8-8h160c4.417969 0 8 3.582031 8 8zm0 0"/></g></svg>