<svg height="480pt" viewBox="0 -6 480 480" width="480pt" xmlns="http://www.w3.org/2000/svg"><path d="m120 196.878906v232h32v-128c0-26.511718 21.492188-48 48-48h192c26.507812 0 48 21.488282 48 48v128h32v-232zm0 0" fill="#9bc9ff"/><path d="m256 252.878906h80v32h-80zm0 0" fill="#9bc9ff"/><path d="m256 348.878906h80v32h-80zm0 0" fill="#9bc9ff"/><path d="m144 140.878906h96v32h-96zm0 0" fill="#9bc9ff"/><path d="m432 156.878906c0 8.835938-7.164062 16-16 16s-16-7.164062-16-16c0-8.839844 7.164062-16 16-16s16 7.160156 16 16zm0 0" fill="#9bc9ff"/><path d="m120 116.878906v-56c0-8.839844-7.164062-16-16-16h-80c-8.835938 0-16 7.160156-16 16v368h112zm0 0" fill="#9bc9ff"/><path d="m458.640625 39.757812c7.621094-1.328124 13.191406-7.941406 13.199219-15.679687 0-.964844-.082032-1.929687-.238282-2.878906-.730468-4.171875-3.089843-7.882813-6.554687-10.3125-3.46875-2.429688-7.757813-3.382813-11.925781-2.648438l-333.121094 58.71875v32.480469zm0 0" fill="#9bc9ff"/><path d="m40 444.878906c0 8.835938 7.164062 16 16 16h32c8.835938 0 16-7.164062 16-16v-16h-64zm0 0" fill="#9bc9ff"/><path d="m376 444.878906c0 8.835938 7.164062 16 16 16h32c8.835938 0 16-7.164062 16-16v-16h-64zm0 0" fill="#9bc9ff"/><g fill="#1e81ce"><path d="m192 220.878906h208v16h-208zm0 0"/><path d="m128 108.878906v-2.730468l332-58.511719c11.46875-1.972657 19.84375-11.921875 19.839844-23.558594 0-1.425781-.117188-2.851563-.351563-4.257813-2.304687-13.03125-14.722656-21.738281-27.761719-19.460937l-324.070312 57.117187c-1.667969-11.792968-11.746094-20.570312-23.65625-20.597656h-80c-13.253906 0-24 10.742188-24 24v376h32v8c0 13.253906 10.746094 24 24 24h32c13.253906 0 24-10.746094 24-24v-8h256v8c0 13.253906 10.746094 24 24 24h32c13.253906 0 24-10.746094 24-24v-8h32v-328zm326.496094-92.761718c4.308594-.761719 8.421875 2.097656 9.207031 6.398437.089844.53125.136719 1.066406.136719 1.601563 0 3.859374-2.785156 7.15625-6.59375 7.800781l-329.246094 57.984375v-16.226563zm-358.496094 428.761718c0 4.417969-3.582031 8-8 8h-32c-4.417969 0-8-3.582031-8-8v-8h48zm16-24h-96v-360c0-4.417968 3.582031-8 8-8h80c4.417969 0 8 3.582032 8 8zm48 0v-64h88v32h96v-32h88v64zm104-160h64v16h-64zm80 32v-32h48c22.082031.023438 39.972656 17.917969 40 40v40h-272v-40c.027344-22.082031 17.917969-39.976562 40-40h48v32zm-80 64h64v16h-64zm168 88c0 4.417969-3.582031 8-8 8h-32c-4.417969 0-8-3.582031-8-8v-8h48zm32-24h-16v-120c-.035156-30.914062-25.085938-55.964844-56-56h-192c-30.914062.035156-55.964844 25.085938-56 56v120h-16v-216h336zm-336-232v-64h336v64zm0 0"/><path d="m136 180.878906h112v-48h-112zm16-32h80v16h-80zm0 0"/><path d="m264 140.878906h16v16h-16zm0 0"/><path d="m264 164.878906h16v16h-16zm0 0"/><path d="m288 140.878906h16v16h-16zm0 0"/><path d="m288 164.878906h16v16h-16zm0 0"/><path d="m312 140.878906h16v16h-16zm0 0"/><path d="m312 164.878906h16v16h-16zm0 0"/><path d="m336 140.878906h16v16h-16zm0 0"/><path d="m336 164.878906h16v16h-16zm0 0"/><path d="m360 140.878906h16v16h-16zm0 0"/><path d="m360 164.878906h16v16h-16zm0 0"/><path d="m416 132.878906c-13.253906 0-24 10.742188-24 24 0 13.253906 10.746094 24 24 24s24-10.746094 24-24c0-13.257812-10.746094-24-24-24zm0 32c-4.417969 0-8-3.582031-8-8 0-4.417968 3.582031-8 8-8s8 3.582032 8 8c0 4.417969-3.582031 8-8 8zm0 0"/></g></svg>