<svg height="480pt" viewBox="0 -92 480 480" width="480pt" xmlns="http://www.w3.org/2000/svg"><g fill="#9bc9ff"><path d="m40 256c-8.835938 0-16 7.164062-16 16v16h32v-16c0-8.835938-7.164062-16-16-16zm0 0"/><path d="m456 256c-8.835938 0-16 7.164062-16 16v16h32v-16c0-8.835938-7.164062-16-16-16zm0 0"/><path d="m280 256c-8.835938 0-16 7.164062-16 16v16h32v-16c0-8.835938-7.164062-16-16-16zm0 0"/><path d="m280 40h176v64h-176zm0 0"/><path d="m280 104h176v64h-176zm0 0"/><path d="m280 168h176v64h-176zm0 0"/><path d="m56 40h224v64h-224zm0 0"/></g><path d="m464 48h16v-48h-480v48h16v192h16v9.472656c-9.554688 3.378906-15.957031 12.394532-16 22.527344v24h48v-24c-.042969-10.132812-6.445312-19.148438-16-22.527344v-9.472656h16v-128h208v137.472656c-9.554688 3.378906-15.957031 12.394532-16 22.527344v24h48v-24c-.042969-10.132812-6.445312-19.148438-16-22.527344v-9.472656h160v9.472656c-9.554688 3.378906-15.957031 12.394532-16 22.527344v24h48v-24c-.042969-10.132812-6.445312-19.148438-16-22.527344zm-416 232h-16v-8c0-4.417969 3.582031-8 8-8s8 3.582031 8 8zm240 0h-16v-8c0-4.417969 3.582031-8 8-8s8 3.582031 8 8zm176 0h-16v-8c0-4.417969 3.582031-8 8-8s8 3.582031 8 8zm-16-184h-160v-48h160zm-432-80h448v16h-448zm32 208h-16v-176h16zm16-128v-48h208v48zm224 16h160v48h-160zm0 64h160v48h-160zm0 0" fill="#1e81ce"/><path d="m344 56h48v16h-48zm0 0" fill="#1e81ce"/><path d="m144 56h48v16h-48zm0 0" fill="#1e81ce"/><path d="m344 120h48v16h-48zm0 0" fill="#1e81ce"/><path d="m344 184h48v16h-48zm0 0" fill="#1e81ce"/></svg>