<svg height="480pt" viewBox="0 -20 480 480" width="480pt" xmlns="http://www.w3.org/2000/svg"><g fill="#9bc9ff"><path d="m408 216h64v-32h-64zm0 0"/><path d="m136 184h-128v32h256v-32zm0 0"/><path d="m232 152v-32h-224v32zm0 0"/><path d="m104 152h32v32h-32zm0 0"/><path d="m8 216h32v216h-32zm0 0"/><path d="m440 216h32v216h-32zm0 0"/><path d="m288 328h64v-32h-64zm0 0"/><path d="m304 376h32v-48h-32zm0 0"/></g><path d="m416 176v-96h-160v96h-112v-16h96v-160h-240v160h96v16h-96v264h48v-216h208v16h-32c-13.253906 0-24 10.746094-24 24v40h80v32h16v32h-2.214844l-40.449218 24.273438c-11.042969 1.300781-19.722657 10.0625-20.925782 21.117187s5.390625 21.472656 15.894532 25.121094c10.503906 3.652343 22.132812-.4375 28.042968-9.859375 5.910156-9.417969 4.53125-21.671875-3.324218-29.539063l25.191406-15.113281h13.785156v9.472656c-11.019531 3.894532-17.632812 15.164063-15.65625 26.683594 1.976562 11.523438 11.96875 19.941406 23.65625 19.941406s21.679688-8.417968 23.65625-19.941406c1.976562-11.519531-4.636719-22.789062-15.65625-26.683594v-9.472656h13.785156l25.191406 15.113281c-7.96875 7.914063-9.398437 20.289063-3.449218 29.816407 5.949218 9.523437 17.699218 13.667968 28.308594 9.984374 10.609374-3.6875 17.257812-14.222656 16.019531-25.386718-1.238281-11.160156-10.03125-19.984375-21.191407-21.253906l-40.449218-24.273438h-2.214844v-32h16v-32h32c13.253906 0 24-10.746094 24-24v-56h16v216h48v-264zm-160 248c-4.417969 0-8-3.582031-8-8s3.582031-8 8-8 8 3.582031 8 8-3.582031 8-8 8zm64 0c-4.417969 0-8-3.582031-8-8s3.582031-8 8-8 8 3.582031 8 8-3.582031 8-8 8zm72-8c0 4.417969-3.582031 8-8 8s-8-3.582031-8-8 3.582031-8 8-8 8 3.582031 8 8zm-168-400v96h-208v-96zm-208 128v-16h208v16zm96 16h16v16h-16zm-80 264h-16v-200h16zm-16-216v-16h240v16zm312 160h-16v-32h16zm16-48h-48v-16h48zm56-40c0 4.417969-3.582031 8-8 8h-176v-24c0-4.417969 3.582031-8 8-8h48v-160h128zm64 144h-16v-200h16zm-48-216v-16h48v16zm0 0" fill="#1e81ce"/><path d="m81.0625 440h77.875l18.285156-128h-114.445312zm77.714844-112-13.714844 96h-50.125l-13.714844-96zm0 0" fill="#1e81ce"/></svg>