<svg height="480pt" viewBox="-48 0 480 480.0401" width="480pt" xmlns="http://www.w3.org/2000/svg"><path d="m264.019531 88.039062h80v352h-304v-352h80v-32h-112v416h368v-416h-112zm0 0" fill="#9bc9ff"/><path d="m200.019531 40.039062c0 4.417969-3.582031 8-8 8s-8-3.582031-8-8c0-4.417968 3.582031-8 8-8s8 3.582032 8 8zm0 0" fill="#9bc9ff"/><path d="m216.019531 152.039062h-48v48h48zm0 0" fill="#9bc9ff"/><path d="m168.019531 328.039062h48v-48h-48zm0 0" fill="#9bc9ff"/><path d="m80.019531 328.039062h48v-48h-48zm0 0" fill="#9bc9ff"/><path d="m256.019531 328.039062h48v-48h-48zm0 0" fill="#9bc9ff"/><g fill="#1e81ce"><path d="m272.019531 48.039062v-16h-40.800781c-3.785156-18.640624-20.175781-32.039062-39.199219-32.039062-19.023437 0-35.414062 13.398438-39.199219 32.039062h-40.800781v16h-111.9999998v432h383.9999998v-432zm0 64v-16h64v336h-288v-336h64v16zm-144-64h40v-8c0-13.253906 10.746094-24 24-24 13.253907 0 24 10.746094 24 24v8h40v48h-128zm240 416h-352v-400h96v16h-80v368h320v-368h-80v-16h96zm0 0"/><path d="m208.019531 40.039062c0 8.835938-7.164062 16-16 16-8.835937 0-16-7.164062-16-16 0-8.835937 7.164063-16 16-16 8.835938 0 16 7.164063 16 16zm0 0"/><path d="m152.019531 120.039062h80v16h-80zm0 0"/><path d="m96.019531 272.039062h-24v64h64v-64h-24v-16h72v16h-24v64h64v-64h-24v-16h72v16h-24v64h64v-64h-24v-32h-88v-32h24v-64h-64v64h24v32h-88zm24 48h-32v-32h32zm88 0h-32v-32h32zm88 0h-32v-32h32zm-120-160h32v32h-32zm0 0"/><path d="m104.019531 352.039062h184v16h-184zm0 0"/><path d="m104.019531 376.039062h184v16h-184zm0 0"/><path d="m104.019531 400.039062h152v16h-152zm0 0"/><path d="m272.019531 400.039062h16v16h-16zm0 0"/></g></svg>