<svg height="480pt" viewBox="0 0 480 480.1003" width="480pt" xmlns="http://www.w3.org/2000/svg"><path d="m80.050781 152.101562h-72l40 40h384l40-40zm0 0" fill="#9bc9ff"/><path d="m48.050781 192.101562-40-40v320l40-40zm0 0" fill="#9bc9ff"/><path d="m432.050781 432.101562 40 40v-320l-40 40zm0 0" fill="#9bc9ff"/><path d="m48.050781 432.101562-40 40h464l-40-40zm0 0" fill="#9bc9ff"/><path d="m228.050781 300.882812 12.007813 19.226563 12-19.226563 22.632812-.78125-10.632812-19.992187 10.640625-20-22.648438-.792969-12.007812-19.222656-12 19.222656-22.632813.785156 10.632813 19.992188-10.640625 20zm0 0" fill="#9bc9ff"/><g fill="#1e81ce"><path d="m402.570312 144.101562-146.3125-102.402343c7.300782-6.683594 9.75-17.167969 6.160157-26.394531-3.585938-9.226563-12.46875-15.304688-22.367188-15.304688-9.898437 0-18.785156 6.078125-22.371093 15.304688-3.585938 9.226562-1.136719 19.710937 6.164062 26.394531l-146.3125 102.402343h-77.4804688v336h479.9999998v-336zm50.167969 16-24 24h-377.375l-24-24zm-28.6875 40v224h-368v-224zm-384-4.6875v233.375l-24 24v-281.375zm11.3125 244.6875h377.375l24 24h-425.375zm388.6875-11.3125v-233.375l24-24v281.375zm-200-412.6875c4.417969 0 8 3.582032 8 8 0 4.417969-3.582031 8-8 8s-8-3.582031-8-8c0-4.417968 3.582031-8 8-8zm0 33.765626 134.625 94.234374h-269.25zm0 0"/><path d="m416.050781 208.101562h-352v208h352zm-16 192h-320v-176h320zm0 0"/><path d="m223.523438 308.722656 16.527343 26.488282 16.527344-26.480469 31.199219-1.085938-14.664063-27.542969 14.664063-27.546874-31.199219-1.085938-16.527344-26.480469-16.527343 26.480469-31.203126 1.085938 14.664063 27.546874-14.664063 27.542969zm-5.035157-41.078125 14.082031-.488281 7.480469-11.960938 7.480469 12 14.09375.488282-6.628906 12.417968 6.613281 12.445313-14.078125.488281-7.480469 11.96875-7.480469-12-14.121093-.457031 6.65625-12.445313zm0 0"/><path d="m152.050781 344.101562h176v16h-176zm0 0"/><path d="m200.050781 368.101562h80v16h-80zm0 0"/><path d="m296.050781 272.101562h32v16h-32zm0 0"/><path d="m152.050781 272.101562h32v16h-32zm0 0"/></g></svg>