<svg height="480pt" viewBox="-56 0 480 480" width="480pt" xmlns="http://www.w3.org/2000/svg"><path d="m56 96v64h64v-64zm0 0" fill="#9bc9ff"/><path d="m56 208h64v64h-64zm0 0" fill="#9bc9ff"/><path d="m56 320h64v64h-64zm0 0" fill="#9bc9ff"/><g fill="#1e81ce"><path d="m368 480h-368v-480h368zm-352-16h336v-448h-336zm0 0"/><path d="m128 280h-80v-80h80zm-64-16h48v-48h-48zm0 0"/><path d="m128 392h-80v-80h80zm-64-16h48v-48h-48zm0 0"/><path d="m160 208h16v16h-16zm0 0"/><path d="m192 208h128v16h-128zm0 0"/><path d="m160 232h32v16h-32zm0 0"/><path d="m208 232h112v16h-112zm0 0"/><path d="m160 256h64v16h-64zm0 0"/><path d="m240 256h80v16h-80zm0 0"/><path d="m160 96h16v16h-16zm0 0"/><path d="m192 96h128v16h-128zm0 0"/><path d="m160 120h104v16h-104zm0 0"/><path d="m280 120h40v16h-40zm0 0"/><path d="m160 144h48v16h-48zm0 0"/><path d="m224 144h96v16h-96zm0 0"/><path d="m160 320h16v16h-16zm0 0"/><path d="m192 320h128v16h-128zm0 0"/><path d="m160 344h72v16h-72zm0 0"/><path d="m248 344h72v16h-72zm0 0"/><path d="m160 368h104v16h-104zm0 0"/><path d="m280 368h40v16h-40zm0 0"/><path d="m145.65625 97.65625-11.3125-11.3125-6.34375 6.34375v-4.6875h-80v80h80v-52.6875zm-33.65625 6.34375v4.6875l-24 24-18.34375-18.34375-5.65625 5.65625v-16zm-48 27.3125 20.6875 20.6875h-20.6875zm48 20.6875h-20.6875l20.6875-20.6875zm0 0"/></g></svg>