<svg height="480pt" viewBox="-72 0 480 480" width="480pt" xmlns="http://www.w3.org/2000/svg"><g fill="#9bc9ff"><path d="m184 136h-176v336h320v-336zm-16 96c-17.671875 0-32-14.328125-32-32s14.328125-32 32-32 32 14.328125 32 32-14.328125 32-32 32zm0 0"/><path d="m8 8v128h320v-128zm160 96c-17.671875 0-32-14.328125-32-32s14.328125-32 32-32 32 14.328125 32 32-14.328125 32-32 32zm0 0"/><path d="m176 72c0 4.417969-3.582031 8-8 8s-8-3.582031-8-8 3.582031-8 8-8 8 3.582031 8 8zm0 0"/><path d="m176 200c0 4.417969-3.582031 8-8 8s-8-3.582031-8-8 3.582031-8 8-8 8 3.582031 8 8zm0 0"/></g><path d="m0 0v480h336v-480zm16 16h304v112h-128v-24.207031c13.773438-10.332031 19.390625-28.316407 13.949219-44.648438-5.445313-16.335937-20.730469-27.351562-37.949219-27.351562s-32.503906 11.015625-37.949219 27.351562c-5.441406 16.332031.175781 34.316407 13.949219 44.648438v24.207031h-128zm152 160c13.253906 0 24 10.746094 24 24s-10.746094 24-24 24-24-10.746094-24-24 10.746094-24 24-24zm0-16c-2.6875-.003906-5.367188.265625-8 .800781v-16.800781h16v16.800781c-2.632812-.535156-5.3125-.804687-8-.800781zm-8-32v-16.800781c5.277344 1.078125 10.722656 1.078125 16 0v16.800781zm8-32c-13.253906 0-24-10.746094-24-24s10.746094-24 24-24 24 10.746094 24 24-10.746094 24-24 24zm152 368h-304v-320h128v24.207031c-13.773438 10.332031-19.390625 28.316407-13.949219 44.648438 5.445313 16.335937 20.730469 27.351562 37.949219 27.351562s32.503906-11.015625 37.949219-27.351562c5.441406-16.332031-.175781-34.316407-13.949219-44.648438v-24.207031h128zm0 0" fill="#1e81ce"/><path d="m184 72c0 8.835938-7.164062 16-16 16s-16-7.164062-16-16 7.164062-16 16-16 16 7.164062 16 16zm0 0" fill="#1e81ce"/><path d="m184 200c0 8.835938-7.164062 16-16 16s-16-7.164062-16-16 7.164062-16 16-16 16 7.164062 16 16zm0 0" fill="#1e81ce"/></svg>