<svg height="480pt" viewBox="-56 0 480 480" width="480pt" xmlns="http://www.w3.org/2000/svg"><path d="m168 8h-160v464h160zm-80 432c-26.507812 0-48-21.492188-48-48s21.492188-48 48-48 48 21.492188 48 48-21.492188 48-48 48zm56-152h-112v-256h112zm0 0" fill="#9bc9ff"/><path d="m200 472h160v-464h-160zm80-32c-26.507812 0-48-21.492188-48-48s21.492188-48 48-48 48 21.492188 48 48-21.492188 48-48 48zm-56-408h112v256h-112zm0 0" fill="#9bc9ff"/><g fill="#1e81ce"><path d="m176 480h-176v-480h176zm-160-16h144v-448h-144zm0 0"/><path d="m152 296h-128v-272h128zm-112-16h96v-240h-96zm0 0"/><path d="m48 72h48v16h-48zm0 0"/><path d="m48 128h80v16h-80zm0 0"/><path d="m48 184h80v16h-80zm0 0"/><path d="m48 232h80v16h-80zm0 0"/><path d="m88 448c-30.929688 0-56-25.070312-56-56s25.070312-56 56-56 56 25.070312 56 56c-.035156 30.914062-25.085938 55.964844-56 56zm0-96c-22.089844 0-40 17.910156-40 40s17.910156 40 40 40 40-17.910156 40-40c-.027344-22.082031-17.917969-39.972656-40-40zm0 0"/><path d="m368 480h-176v-480h176zm-160-16h144v-448h-144zm0 0"/><path d="m344 296h-128v-272h128zm-112-16h96v-240h-96zm0 0"/><path d="m240 72h48v16h-48zm0 0"/><path d="m240 128h80v16h-80zm0 0"/><path d="m240 184h80v16h-80zm0 0"/><path d="m240 232h80v16h-80zm0 0"/><path d="m280 448c-30.929688 0-56-25.070312-56-56s25.070312-56 56-56 56 25.070312 56 56c-.035156 30.914062-25.085938 55.964844-56 56zm0-96c-22.089844 0-40 17.910156-40 40s17.910156 40 40 40 40-17.910156 40-40c-.027344-22.082031-17.917969-39.972656-40-40zm0 0"/><path d="m304 72h16v16h-16zm0 0"/><path d="m112 72h16v16h-16zm0 0"/></g></svg>