<svg height="480pt" viewBox="-16 0 480 480" width="480pt" xmlns="http://www.w3.org/2000/svg"><path d="m8 152h192v320h-192zm0 0" fill="#9bc9ff"/><path d="m344 296c-53.019531 0-96 42.980469-96 96v80h192v-80c0-53.019531-42.980469-96-96-96zm0 0" fill="#9bc9ff"/><path d="m56 40h32v32h-32zm0 0" fill="#9bc9ff"/><path d="m120 40h32v32h-32zm0 0" fill="#9bc9ff"/><path d="m136 304h32v-24h-32zm0 0" fill="#9bc9ff"/><path d="m72 328c0 8.835938-7.164062 16-16 16s-16-7.164062-16-16 7.164062-16 16-16 16 7.164062 16 16zm0 0" fill="#9bc9ff"/><g fill="#1e81ce"><path d="m344 288c-57.410156.066406-103.933594 46.589844-104 104v88h208v-88c-.066406-57.410156-46.589844-103.933594-104-104zm88 176h-176v-72c0-48.601562 39.398438-88 88-88s88 39.398438 88 88zm0 0"/><path d="m344 320v16c30.914062.035156 55.964844 25.085938 56 56v24h16v-24c-.042969-39.746094-32.253906-71.957031-72-72zm0 0"/><path d="m184 0h-160v144h-24v336h208v-336h-24zm-144 16h128v128h-128zm152 144v304h-176v-304zm0 0"/><path d="m48 80h48v-48h-48zm16-32h16v16h-16zm0 0"/><path d="m112 80h48v-48h-48zm16-32h16v16h-16zm0 0"/><path d="m48 350.527344v45.753906l48 32v19.71875h16v-67.71875l48-32v-36.28125h16v-40h-48v40h16v27.71875l-32 21.335938v-130.246094l17.753906 22.191406 12.492188-10-38.246094-47.800781-38.246094 47.808593 12.492188 10 17.753906-22.199218v178.246094l-32-21.335938v-37.191406c11.019531-3.894532 17.632812-15.164063 15.65625-26.683594-1.976562-11.523438-11.96875-19.941406-23.65625-19.941406s-21.679688 8.417968-23.65625 19.941406c-1.976562 11.519531 4.636719 22.789062 15.65625 26.683594zm96-62.527344h16v8h-16zm-88 32c4.417969 0 8 3.582031 8 8s-3.582031 8-8 8-8-3.582031-8-8 3.582031-8 8-8zm0 0"/><path d="m400 432h16v16h-16zm0 0"/></g></svg>