<svg height="480pt" viewBox="0 0 480 480" width="480pt" xmlns="http://www.w3.org/2000/svg"><path d="m8 8v464h112v-464zm32 48h48v192h-48zm24 376c-17.671875 0-32-14.328125-32-32s14.328125-32 32-32 32 14.328125 32 32-14.328125 32-32 32zm0 0" fill="#9bc9ff"/><path d="m120 8v464h112v-464zm32 48h48v192h-48zm24 376c-17.671875 0-32-14.328125-32-32s14.328125-32 32-32 32 14.328125 32 32-14.328125 32-32 32zm0 0" fill="#9bc9ff"/><path d="m232 472h240v-464h-240zm32-416h176v96h-176zm0 0" fill="#9bc9ff"/><g fill="#1e81ce"><path d="m0 0v480h480v-480zm112 464h-96v-448h96zm112 0h-96v-448h96zm240 0h-224v-448h224zm0 0"/><path d="m96 48h-64v208h64zm-16 192h-32v-176h32zm0 0"/><path d="m208 48h-64v208h64zm-16 192h-32v-176h32zm0 0"/><path d="m64 440c22.089844 0 40-17.910156 40-40s-17.910156-40-40-40-40 17.910156-40 40c.027344 22.082031 17.917969 39.972656 40 40zm0-64c13.253906 0 24 10.746094 24 24s-10.746094 24-24 24-24-10.746094-24-24 10.746094-24 24-24zm0 0"/><path d="m176 440c22.089844 0 40-17.910156 40-40s-17.910156-40-40-40-40 17.910156-40 40c.027344 22.082031 17.917969 39.972656 40 40zm0-64c13.253906 0 24 10.746094 24 24s-10.746094 24-24 24-24-10.746094-24-24 10.746094-24 24-24zm0 0"/><path d="m448 48h-192v112h192zm-16 96h-160v-80h160zm0 0"/><path d="m56 80h16v144h-16zm0 0"/><path d="m168 80h16v144h-16zm0 0"/><path d="m288 72h96v16h-96zm0 0"/><path d="m400 72h16v16h-16zm0 0"/><path d="m288 96h96v16h-96zm0 0"/><path d="m400 96h16v16h-16zm0 0"/><path d="m288 120h96v16h-96zm0 0"/><path d="m400 120h16v16h-16zm0 0"/></g></svg>