<svg height="480pt" viewBox="0 -31 480 479" width="480pt" xmlns="http://www.w3.org/2000/svg"><path d="m320 72.5h-312v336h464v-336zm-72 288h-192v-64h192zm0 0" fill="#9bc9ff"/><path d="m200 8.5h-192v64h256zm0 0" fill="#9bc9ff"/><g fill="#1e81ce"><path d="m379.3125 64.5-64-64h-315.3125v416h480v-352zm-70.625-48 48 48h-33.375l-48-48zm-56 0 48 48h-33.375l-48-48zm-236.6875 0h180.6875l48 48h-228.6875zm448 384h-448v-320h448zm0 0"/><path d="m48 368.5h208v-80h-208zm16-64h176v48h-176zm0 0"/><path d="m80 320.5h112v16h-112zm0 0"/><path d="m208 320.5h16v16h-16zm0 0"/></g></svg>