<svg height="480pt" viewBox="0 -24 480 480" width="480pt" xmlns="http://www.w3.org/2000/svg"><g fill="#9bc9ff"><path d="m56 280h-32c-8.835938 0-16 7.164062-16 16v80c0 8.835938 7.164062 16 16 16h48v-112zm0 0"/><path d="m120 248h24v176h-24zm0 0"/><path d="m456 280h-48v112h48c8.835938 0 16-7.164062 16-16v-80c0-8.835938-7.164062-16-16-16zm0 0"/><path d="m336 248h24v176h-24zm0 0"/><path d="m248 8h-16c-59.109375-.058594-115.4375 25.097656-154.839844 69.160156l22.679688 22.679688c33.363281-38.074219 81.539062-59.886719 132.160156-59.839844h16c50.621094-.046875 98.796875 21.765625 132.160156 59.839844l22.679688-22.679688c-39.402344-44.0625-95.730469-69.21875-154.839844-69.160156zm0 0"/></g><path d="m464 273.472656v-57.472656c-.132812-119.238281-96.761719-215.867188-216-216h-16c-119.238281.132812-215.867188 96.761719-216 216v57.472656c-9.554688 3.378906-15.9570312 12.394532-16 22.527344v80c0 13.253906 10.746094 24 24 24h40v8c0 13.253906 10.746094 24 24 24h64v-192h-64c-13.253906 0-24 10.746094-24 24v-48c.105469-92.738281 75.261719-167.894531 168-168h16c92.738281.105469 167.894531 75.261719 168 168v48c0-13.253906-10.746094-24-24-24h-64v192h64c13.253906 0 24-10.746094 24-24v-8h40c13.253906 0 24-10.746094 24-24v-80c-.042969-10.132812-6.445312-19.148438-16-22.527344zm-440 110.527344c-4.417969 0-8-3.582031-8-8v-32h24v-16h-24v-32c0-4.417969 3.582031-8 8-8h40v96zm112 32h-8v-160h8zm-56-152c0-4.417969 3.582031-8 8-8h24v160h-24c-4.417969 0-8-3.582031-8-8zm-32-48v56h-16v-56c-.042969-46.371094 16.101562-91.300781 45.648438-127.039062l11.382812 11.382812c-26.574219 32.683594-41.066406 73.53125-41.03125 115.65625zm200-184h-16c-49.945312-.015625-97.734375 20.335938-132.335938 56.351562l-11.3125-11.304687c37.597657-39.019531 89.460938-61.0625 143.648438-61.046875h16c54.1875-.015625 106.050781 22.027344 143.648438 61.046875l-11.3125 11.304687c-34.601563-36.015624-82.390626-56.367187-132.335938-56.351562zm142.96875 68.34375 11.382812-11.382812c29.546876 35.738281 45.691407 80.667968 45.648438 127.039062v56h-16v-56c.035156-42.125-14.457031-82.972656-41.03125-115.65625zm-46.96875 155.65625h8v160h-8zm56 152c0 4.417969-3.582031 8-8 8h-24v-160h24c4.417969 0 8 3.582031 8 8zm56-24h-40v-96h40c4.417969 0 8 3.582031 8 8v32h-24v16h24v32c0 4.417969-3.582031 8-8 8zm0 0" fill="#1e81ce"/></svg>