<svg height="480pt" viewBox="0 0 480 480.1003" width="480pt" xmlns="http://www.w3.org/2000/svg"><path d="m400.050781 240.101562c-.015625.480469.011719.960938.078125 1.4375-2.578125-.976562-5.320312-1.460937-8.078125-1.4375-13.253906 0-24 10.742188-24 24 0 13.253907 10.746094 24 24 24h48v-78.960937c-2.605469-.714844-5.296875-1.066406-8-1.039063-17.671875 0-32 14.324219-32 32zm0 0" fill="#9bc9ff"/><path d="m257.410156 391.300781-25.359375 48.800781h192l-96.402343-184zm0 0" fill="#9bc9ff"/><path d="m207.648438 312.101562-67.4375 108.398438-12.160157 19.601562h104l25.359375-48.800781zm0 0" fill="#9bc9ff"/><path d="m103.648438 360.101562-47.597657 80h72l12.160157-19.601562zm0 0" fill="#9bc9ff"/><path d="m96.050781 288.101562h88c13.253907 0 24-10.746093 24-24 0-13.257812-10.746093-24-24-24-2.761719-.023437-5.5.460938-8.082031 1.4375.066406-.476562.09375-.957031.082031-1.4375-.066406-15.554687-11.304687-28.808593-26.640625-31.414062-15.335937-2.605469-30.320312 6.191406-35.519531 20.851562-11.386719-7.652343-26.386719-7.191406-37.285156 1.140626-10.902344 8.335937-15.273438 22.691406-10.871094 35.683593 4.398437 12.996094 16.59375 21.742188 30.316406 21.738281zm0 0" fill="#9bc9ff"/><g fill="#1e81ce"><path d="m402.570312 144.101562-146.3125-102.402343c7.300782-6.683594 9.75-17.167969 6.160157-26.394531-3.585938-9.226563-12.46875-15.304688-22.367188-15.304688-9.898437 0-18.785156 6.078125-22.371093 15.304688-3.585938 9.226562-1.136719 19.710937 6.164062 26.394531l-146.3125 102.402343h-77.4804688v336h479.9999998v-336zm-162.519531-128c4.417969 0 8 3.582032 8 8 0 4.417969-3.582031 8-8 8s-8-3.582031-8-8c0-4.417968 3.582031-8 8-8zm0 33.765626 134.625 94.234374h-269.25zm224 414.234374h-448v-304h448zm0 0"/><path d="m32.050781 448.101562h416v-272h-416zm38.070313-16 33.601562-56.457031 27.121094 44.800781-7.25 11.65625zm72.328125 0 65.257812-104.90625 40.511719 64.480469-21.023438 40.425781zm102.800781 0 21.390625-41.175781 61.066406-117.53125 83.117188 158.707031zm162.800781-192c0-13.257812 10.746094-24 24-24v64h-40c-8.835937 0-16-7.164062-16-16 0-8.835937 7.164063-16 16-16 1.769531-.023437 3.523438.277344 5.183594.894532 2.703125 1.007812 5.742187.5 7.96875-1.332032 2.230469-1.835937 3.3125-4.714843 2.847656-7.5625zm-360-48h384v8c-19.003906.015626-35.378906 13.382813-39.199219 32-17.675781-.222656-32.179687 13.925782-32.402343 31.597657-.21875 17.675781 13.929687 32.179687 31.601562 32.402343h40v136h-3.199219l-101.234374-193.296874-70.871094 136.40625-49.128906-78.207032-67.296876 108.242188-36.726562-60.691406-52.09375 87.546874h-3.449219zm0 0"/><path d="m96.050781 296.101562h88c17.671875 0 32-14.328124 32-32 0-17.675781-14.328125-32-32-32h-.800781c-3.269531-15.980468-15.917969-28.375-31.960938-31.320312-16.046874-2.949219-32.269531 4.144531-41.007812 17.917969-14.984375-5.683594-31.914062-1.875-43.023438 9.679687-11.105468 11.554688-14.242187 28.621094-7.972656 43.371094 6.269532 14.75 20.738282 24.332031 36.765625 24.351562zm0-64c4.769531-.003906 9.433594 1.417969 13.390625 4.078126 2.058594 1.378906 4.632813 1.726562 6.980469.941406 2.347656-.78125 4.203125-2.605469 5.019531-4.941406 3.921875-11 15.191406-17.585938 26.699219-15.59375 11.511719 1.992187 19.914063 11.980468 19.910156 23.660156-.464843 2.832031.625 5.699218 2.855469 7.507812s5.257812 2.28125 7.9375 1.242188c1.664062-.617188 3.429688-.921875 5.207031-.894532 8.835938 0 16 7.164063 16 16 0 8.835938-7.164062 16-16 16h-88c-13.253906 0-24-10.746093-24-24 0-13.257812 10.746094-24 24-24zm0 0"/><path d="m248.050781 288.101562c17.671875 0 32-14.328124 32-32 0-17.675781-14.328125-32-32-32s-32 14.324219-32 32c0 17.671876 14.328125 32 32 32zm0-48c8.835938 0 16 7.164063 16 16 0 8.835938-7.164062 16-16 16-8.835937 0-16-7.164062-16-16 0-8.835937 7.164063-16 16-16zm0 0"/><path d="m240.050781 200.101562v8c0 4.417969 3.582031 8 8 8s8-3.582031 8-8v-8c0-4.417968-3.582031-8-8-8s-8 3.582032-8 8zm0 0"/><path d="m281.984375 230.164062c2.125 0 4.15625-.84375 5.65625-2.34375l5.664063-5.664062c2.082031-2.007812 2.914062-4.984375 2.183593-7.78125-.734375-2.796875-2.917969-4.980469-5.714843-5.710938-2.796876-.734374-5.769532.101563-7.777344 2.179688l-5.664063 5.664062c-2.289062 2.289063-2.972656 5.730469-1.734375 8.71875 1.238282 2.988282 4.152344 4.9375 7.386719 4.9375zm0 0"/><path d="m288.050781 256.101562c0 4.417969 3.582031 8 8 8h8c4.417969 0 8-3.582031 8-8 0-4.417968-3.582031-8-8-8h-8c-4.417969 0-8 3.582032-8 8zm0 0"/><path d="m287.640625 284.378906c-3.136719-3.03125-8.128906-2.988281-11.214844.097656-3.085937 3.085938-3.128906 8.078126-.09375 11.214844l5.664063 5.664063c2.007812 2.082031 4.980468 2.914062 7.777344 2.183593 2.796874-.734374 4.980468-2.917968 5.714843-5.714843.730469-2.796875-.101562-5.769531-2.183593-7.78125zm0 0"/><path d="m248.050781 296.101562c-4.417969 0-8 3.582032-8 8v8c0 4.417969 3.582031 8 8 8s8-3.582031 8-8v-8c0-4.417968-3.582031-8-8-8zm0 0"/><path d="m208.457031 227.820312c3.140625 3.03125 8.128907 2.988282 11.214844-.097656 3.085937-3.085937 3.128906-8.074218.097656-11.214844l-5.664062-5.664062c-3.136719-3.03125-8.128907-2.988281-11.214844.097656-3.085937 3.085938-3.128906 8.074219-.097656 11.214844zm0 0"/></g></svg>