<svg height="480pt" viewBox="0 0 480 480" width="480pt" xmlns="http://www.w3.org/2000/svg"><path d="m56 280h32v32h-32zm0 0" fill="#9bc9ff"/><path d="m112 280h32v32h-32zm0 0" fill="#9bc9ff"/><path d="m168 280h32v32h-32zm0 0" fill="#9bc9ff"/><path d="m224 280h32v32h-32zm0 0" fill="#9bc9ff"/><path d="m280 280h32v32h-32zm0 0" fill="#9bc9ff"/><path d="m392 280h32v32h-32zm0 0" fill="#9bc9ff"/><path d="m56 336h32v32h-32zm0 0" fill="#9bc9ff"/><path d="m112 336h32v32h-32zm0 0" fill="#9bc9ff"/><path d="m168 336h32v32h-32zm0 0" fill="#9bc9ff"/><path d="m224 336h32v32h-32zm0 0" fill="#9bc9ff"/><path d="m280 336h32v32h-32zm0 0" fill="#9bc9ff"/><path d="m336 280h32v32h-32zm0 0" fill="#9bc9ff"/><path d="m336 336h88v32h-88zm0 0" fill="#9bc9ff"/><path d="m56 392h32v32h-32zm0 0" fill="#9bc9ff"/><path d="m112 392h32v32h-32zm0 0" fill="#9bc9ff"/><path d="m168 392h144v32h-144zm0 0" fill="#9bc9ff"/><path d="m336 392h32v32h-32zm0 0" fill="#9bc9ff"/><path d="m392 392h32v32h-32zm0 0" fill="#9bc9ff"/><g fill="#1e81ce"><path d="m456 176h24v-16h-24c-30.910156-.039062-55.960938-25.089844-56-56v-20c0-46.390625-37.609375-84-84-84s-84 37.609375-84 84v140h-232v256h480v-256h-232v-140c0-37.554688 30.445312-68 68-68s68 30.445312 68 68v20c.042969 39.746094 32.253906 71.957031 72 72zm8 64v224h-448v-224zm0 0"/><path d="m96 320h-48v-48h48zm-32-16h16v-16h-16zm0 0"/><path d="m152 320h-48v-48h48zm-32-16h16v-16h-16zm0 0"/><path d="m208 320h-48v-48h48zm-32-16h16v-16h-16zm0 0"/><path d="m264 320h-48v-48h48zm-32-16h16v-16h-16zm0 0"/><path d="m320 320h-48v-48h48zm-32-16h16v-16h-16zm0 0"/><path d="m432 320h-48v-48h48zm-32-16h16v-16h-16zm0 0"/><path d="m96 376h-48v-48h48zm-32-16h16v-16h-16zm0 0"/><path d="m152 376h-48v-48h48zm-32-16h16v-16h-16zm0 0"/><path d="m208 376h-48v-48h48zm-32-16h16v-16h-16zm0 0"/><path d="m264 376h-48v-48h48zm-32-16h16v-16h-16zm0 0"/><path d="m320 376h-48v-48h48zm-32-16h16v-16h-16zm0 0"/><path d="m376 320h-48v-48h48zm-32-16h16v-16h-16zm0 0"/><path d="m432 376h-104v-48h104zm-88-16h72v-16h-72zm0 0"/><path d="m96 432h-48v-48h48zm-32-16h16v-16h-16zm0 0"/><path d="m152 432h-48v-48h48zm-32-16h16v-16h-16zm0 0"/><path d="m320 432h-160v-48h160zm-144-16h128v-16h-128zm0 0"/><path d="m376 432h-48v-48h48zm-32-16h16v-16h-16zm0 0"/><path d="m432 432h-48v-48h48zm-32-16h16v-16h-16zm0 0"/></g></svg>