<svg height="480pt" viewBox="-40 0 480 480" width="480pt" xmlns="http://www.w3.org/2000/svg"><path d="m8 8h128v216h-128zm0 0" fill="#9bc9ff"/><path d="m264 8h128v216h-128zm0 0" fill="#9bc9ff"/><path d="m8 216v216h128v-216zm0 0" fill="#9bc9ff"/><path d="m136 224h128v216h-128zm0 0" fill="#9bc9ff"/><path d="m8 440h24v32h-24zm0 0" fill="#9bc9ff"/><path d="m112 440h24v32h-24zm0 0" fill="#9bc9ff"/><path d="m368 440h24v32h-24zm0 0" fill="#9bc9ff"/><path d="m264 440h24v32h-24zm0 0" fill="#9bc9ff"/><g fill="#1e81ce"><path d="m0 0v480h40v-32h64v32h40v-32h112v32h40v-32h64v32h40v-480zm144 16h112v200h-112zm-128 0h112v200h-112zm8 448h-8v-16h8zm-8-32v-200h112v200zm112 32h-8v-16h8zm16-32v-200h112v200zm136 32h-8v-16h8zm104 0h-8v-16h8zm0-32h-112v-200h112zm-112-216v-200h112v200zm0 0"/><path d="m32 32h64v16h-64zm0 0"/><path d="m32 64h64v16h-64zm0 0"/><path d="m168 32h64v16h-64zm0 0"/><path d="m168 64h64v16h-64zm0 0"/><path d="m304 32h64v16h-64zm0 0"/><path d="m304 64h64v16h-64zm0 0"/><path d="m32 248h64v16h-64zm0 0"/><path d="m32 280h64v16h-64zm0 0"/><path d="m168 248h64v16h-64zm0 0"/><path d="m168 280h64v16h-64zm0 0"/><path d="m304 248h64v16h-64zm0 0"/><path d="m304 280h64v16h-64zm0 0"/><path d="m32 104h16v16h-16zm0 0"/><path d="m32 136h16v48h-16zm0 0"/><path d="m168 104h16v16h-16zm0 0"/><path d="m168 136h16v48h-16zm0 0"/><path d="m304 104h16v16h-16zm0 0"/><path d="m304 136h16v48h-16zm0 0"/><path d="m32 320h16v16h-16zm0 0"/><path d="m32 352h16v48h-16zm0 0"/><path d="m168 320h16v16h-16zm0 0"/><path d="m168 352h16v48h-16zm0 0"/><path d="m304 320h16v16h-16zm0 0"/><path d="m304 352h16v48h-16zm0 0"/></g></svg>