<svg height="479pt" viewBox="-96 0 479 479.95299" width="479pt" xmlns="http://www.w3.org/2000/svg"><path d="m280.476562 143.953125c-.117187-57.800781-36.824218-109.183594-91.460937-128.035156-54.640625-18.851563-115.222656-1.027344-150.953125 44.402343-35.730469 45.433594-38.769531 108.511719-7.570312 157.167969 31.195312 48.65625 89.785156 72.214844 145.984374 58.703125 61.042969-14.777344 104.027344-69.433594 104-132.238281zm-136 104c-57.4375 0-104-46.5625-104-104s46.5625-104 104-104 104 46.5625 104 104c-.066406 57.410156-46.589843 103.933594-104 104zm0 0" fill="#9bc9ff"/><path d="m112.476562 319.953125h64v152h-64zm0 0" fill="#9bc9ff"/><g fill="#1e81ce"><path d="m288.476562 143.953125c-.023437-72.136719-53.417968-133.121094-124.914062-142.683594-71.5-9.558593-139.039062 35.257813-158.015625 104.851563-18.972656 69.59375 16.472656 142.492187 82.929687 170.542968v51.289063h16v152h80v-152h16v-51.289063c53.4375-22.410156 88.152344-74.765624 88-132.710937zm-120 320h-48v-136h48zm16-152h-80v-29.742187c2.039063.589843 4 1.253906 6.121094 1.75 22.269532 5.316406 45.480469 5.316406 67.75 0 2.089844-.503907 4.089844-1.167969 6.128906-1.75zm-9.878906-43.535156c-19.808594 4.691406-40.441406 4.691406-60.25 0-63.003906-15.257813-104.65625-75.207031-96.972656-139.574219s62.273438-112.832031 127.097656-112.832031c64.824219 0 119.414063 48.464843 127.097656 112.832031 7.683594 64.367188-33.96875 124.316406-96.972656 139.574219zm0 0"/><path d="m144.476562 31.953125c-61.855468 0-112 50.144531-112 112s50.144532 112 112 112c61.855469 0 112-50.144531 112-112-.066406-61.828125-50.171874-111.933594-112-112zm0 208c-53.019531 0-96-42.980469-96-96s42.980469-96 96-96c53.019532 0 96 42.980469 96 96-.058593 52.996094-43.003906 95.941406-96 96zm0 0"/><path d="m66.820312 162.296875 72-72 11.3125 11.3125-72 72zm0 0"/><path d="m58.824219 130.292969 72-72 11.3125 11.3125-72 72.003906zm0 0"/><path d="m146.820312 82.292969 15.996094-16 11.316406 11.316406-16 15.996094zm0 0"/></g></svg>