<svg height="480pt" viewBox="0 -88 480 480" width="480pt" xmlns="http://www.w3.org/2000/svg"><path d="m8 24 184.222656 141.847656.65625-.40625-.65625.40625 23.585938 18.152344h49.582031l22.488281-17.414062-.039062-.027344.039062.027344 184.121094-142.585938v-16h-464zm0 0" fill="#9bc9ff"/><g fill="#1e81ce"><path d="m0 0v304h480v-304zm16 16h448v4.078125l-201.335938 155.921875h-44.136718l-202.527344-155.9375zm0 24.257812 162.183594 124.878907-162.183594 100.464843zm448 247.742188h-448v-3.542969l175.734375-108.898437 21.34375 16.441406h55.050781l20.269532-15.695312 175.601562 108.167968zm0-22.328125-162.078125-99.839844 162.078125-125.519531zm0 0"/><path d="m432 128h16v96h-16zm0 0"/><path d="m432 96h16v16h-16zm0 0"/></g></svg>