<svg height="480pt" viewBox="0 0 480 480" width="480pt" xmlns="http://www.w3.org/2000/svg"><path d="m264.160156 8h-49.519531l-37.601563 32h124.882813zm0 0" fill="#9bc9ff"/><path d="m424 229.761719-136.238281 84.398437 38.71875 29.839844 145.519531 112v-256zm0 0" fill="#9bc9ff"/><path d="m192.160156 313.441406-136.160156-83.839844-48-29.601562v256l144.640625-112zm0 0" fill="#9bc9ff"/><path d="m287.761719 314.160156-.640625.398438.640625-.398438-23.601563-18.160156h-49.519531l-22.480469 17.441406-39.519531 30.558594-144.640625 112v16h464v-16l-145.519531-112zm0 0" fill="#9bc9ff"/><path d="m424 229.761719 48-29.761719v-16l-48-40.640625zm0 0" fill="#9bc9ff"/><path d="m56 143.121094-48 40.878906v16l48 29.601562zm0 0" fill="#9bc9ff"/><g fill="#1e81ce"><path d="m432 139.648438v-107.648438h-127.144531l-37.757813-32h-55.402344l-37.597656 32h-126.097656v107.425781l-48 40.878907v299.695312h480v-299.710938zm-214.398438-123.648438h43.636719l18.890625 16h-81.34375zm-153.601562 32h352v177.28125l-127.753906 79.199219-21.367188-16.480469h-54.976562l-20.285156 15.703125-127.617188-78.613281zm-48 139.695312 32-27.253906v54.757813l-32-19.679688zm0 26.640626 162.097656 99.839843-162.097656 125.511719zm448 249.664062h-448v-4.078125l201.375-155.921875h44.066406l202.558594 155.9375zm0-249.601562v225.34375l-162.207031-124.863282zm-32 .992187v-54.773437l32 27.09375v7.824218zm0 0"/><path d="m432 304h16v96h-16zm0 0"/><path d="m432 272h16v16h-16zm0 0"/><path d="m112 80h16v16h-16zm0 0"/><path d="m144 80h224v16h-224zm0 0"/><path d="m112 128h72v16h-72zm0 0"/><path d="m200 128h120v16h-120zm0 0"/><path d="m112 176h16v16h-16zm0 0"/><path d="m200 224h16v16h-16zm0 0"/><path d="m144 176h192v16h-192zm0 0"/><path d="m112 224h72v16h-72zm0 0"/><path d="m232 224h104v16h-104zm0 0"/><path d="m336 128h32v16h-32zm0 0"/><path d="m352 176h16v16h-16zm0 0"/><path d="m352 224h16v16h-16zm0 0"/></g></svg>