<svg height="480pt" viewBox="-88 0 480 480" width="480pt" xmlns="http://www.w3.org/2000/svg"><path d="m96 8h-64l-24 304v8h112v-8zm0 0" fill="#9bc9ff"/><path d="m120 352h-112v8l30 80h50l32-80zm0 0" fill="#9bc9ff"/><g fill="#1e81ce"><path d="m24.609375 0-24.609375 312v49.457031l32.457031 86.542969h7.542969v32h48v-32h5.414062l34.585938-86.464844v-49.535156l-24.609375-312zm47.390625 464h-16v-16h16zm10.585938-32h-39.042969l-27-72h94.839843zm29.414062-88h-96v-16h96zm-96-32 23.390625-296h49.21875l23.390625 296zm0 0"/><path d="m76.722656 272.007812 15.949219-1.265624 1.320313 16.632812-15.953126 1.265625zm0 0"/><path d="m64.167969 113.046875 15.953125-1.257813 11.3125 143.355469-15.953125 1.257813zm0 0"/><path d="m136 464h168v16h-168zm0 0"/><path d="m104 464h16v16h-16zm0 0"/></g></svg>