<svg height="480pt" viewBox="0 -16 480 480" width="480pt" xmlns="http://www.w3.org/2000/svg"><path d="m8 8v304h464v-304zm432 256h-400v-224h400zm0 0" fill="#9bc9ff"/><path d="m200 312h80v80h-80zm0 0" fill="#9bc9ff"/><path d="m144 392c-17.671875 0-32 14.328125-32 32v16h256v-16c0-17.671875-14.328125-32-32-32zm0 0" fill="#9bc9ff"/><g fill="#1e81ce"><path d="m480 320v-320h-480v320h192v64h-48c-22.082031.027344-39.972656 17.917969-40 40v24h272v-24c-.027344-22.082031-17.917969-39.972656-40-40h-48v-64zm-464-16v-288h448v288zm320 96c13.253906 0 24 10.746094 24 24v8h-240v-8c0-13.253906 10.746094-24 24-24zm-64-16h-64v-64h64zm0 0"/><path d="m448 32h-416v240h416zm-16 224h-384v-208h384zm0 0"/><path d="m224 280h32v16h-32zm0 0"/><path d="m58.339844 154.339844 72.003906-72 11.3125 11.316406-72 72zm0 0"/><path d="m50.34375 122.347656 72.003906-72 11.3125 11.3125-72 72zm0 0"/><path d="m138.34375 74.34375 15.996094-15.996094 11.316406 11.3125-16 16zm0 0"/></g></svg>