<svg height="480pt" viewBox="-92 0 480 480.00002" width="480pt" xmlns="http://www.w3.org/2000/svg"><path d="m104 320h-96v32h96zm0 0" fill="#9bc9ff"/><path d="m72.800781 23.199219c-.425781-8.523438-7.46875-15.210938-16-15.199219h-1.601562c-8.53125-.011719-15.574219 6.675781-16 15.199219l-15.199219 296.800781h64zm0 0" fill="#9bc9ff"/><g fill="#1e81ce"><path d="m112 312h-16.398438l-14.800781-289.222656c-.652343-12.777344-11.210937-22.792969-24-22.777344h-1.601562c-12.789063-.015625-23.347657 10-24 22.777344l-14.800781 289.222656h-16.398438v48h14.558594c-4.253906 7.285156-6.515625 15.5625-6.558594 24 0 23.878906 37.175781 78.398438 41.414062 84.542969l6.585938 9.535156 6.585938-9.535156c4.238281-6.144531 41.414062-60.664063 41.414062-84.542969-.042969-8.4375-2.304688-16.714844-6.558594-24h14.558594zm-96 32v-16h80v16zm31.199219-320.414062c.222656-4.257813 3.738281-7.589844 8-7.585938h1.601562c4.261719-.003906 7.777344 3.328125 8 7.585938l14.773438 288.414062h-47.148438zm40.800781 360.414062c0 12.289062-17.601562 43.417969-32 65.601562-14.398438-22.195312-32-53.320312-32-65.601562.085938-9.226562 4.136719-17.96875 11.121094-24h41.757812c6.984375 6.03125 11.035156 14.773438 11.121094 24zm0 0"/><path d="m80 464h16v16h-16zm0 0"/><path d="m112 464h184v16h-184zm0 0"/></g></svg>