<svg height="480pt" viewBox="-68 0 480 480" width="480pt" xmlns="http://www.w3.org/2000/svg"><g fill="#9bc9ff"><path d="m172.382812 49.601562-158.398437 110.398438 34.398437 24 34.480469 24 89.519531 62.398438 89.519532-62.398438 34.480468-24 34.402344-24zm0 0"/><path d="m296.382812 232-124 86.398438-124-86.398438-34.398437 24 158.398437 110.398438 158.402344-110.398438zm0 0"/><path d="m44.382812 472h256c0-35.347656-28.652343-64-64-64h-128c-35.34375 0-64 28.652344-64 64zm0 0"/></g><path d="m310.367188 184 34.402343-24-164.386719-114.574219v-45.425781h-16v45.425781l-164.382812 114.574219 34.398438 24-34.398438 24 34.398438 24-34.398438 24 164.382812 114.574219v29.425781h-56c-39.746093.042969-71.953124 32.253906-72 72v8h272v-8c-.042968-39.746094-32.253906-71.957031-72-72h-56v-29.425781l164.386719-114.574219-34.402343-24 34.402343-24zm-18.550782 280h-238.863281c4.011719-27.535156 27.605469-47.964844 55.429687-48h128c27.828126.035156 51.421876 20.464844 55.433594 48zm-127.433594-399.070312v111.070312h16v-111.070312l136.417969 95.070312-144.417969 100.648438-144.414062-100.648438zm-116 128.796874 124 86.425782 124-86.398438 20.417969 14.246094-144.417969 100.648438-144.414062-100.648438zm268.417969 62.273438-144.417969 100.648438-144.414062-100.648438 20.414062-14.265625 124 86.417969 124-86.398438zm0 0" fill="#1e81ce"/></svg>