<svg height="488pt" viewBox="-104 0 488 488.128" width="488pt" xmlns="http://www.w3.org/2000/svg"><path d="m59.222656 200-2.460937-64h-32l-2.464844 64-5.535156 144h48zm0 0" fill="#9bc9ff"/><path d="m48.761719 408c0-4.417969-3.582031-8-8-8-4.421875 0-8 3.582031-8 8s3.578125 8 8 8c4.417969 0 8-3.582031 8-8zm0 0" fill="#9bc9ff"/><g fill="#1e81ce"><path d="m96.761719 464h184v16h-184zm0 0"/><path d="m64.761719 464h16v16h-16zm0 0"/><path d="m112.761719 144c-4.421875 0-8-3.582031-8-8v-72c0-13.253906-10.746094-24-24-24 0-22.089844-17.910157-40-40-40-22.09375 0-40 17.910156-40 40v104h15.6875l-7.386719 192-.300781 40h4.902343l-13.601562 40.863281 40.699219 71.265625 40.71875-71.265625-13.625-40.863281h4.90625l-.304688-40-7.386719-192h15.691407v-88c4.417969 0 8 3.582031 8 8v72c0 13.253906 10.742187 24 24 24zm-82.769531 64h21.535156l.617187 16h-22.769531zm20.917968-16h-20.300781l.613281-16h19.074219zm13.128906 223.136719-15.277343 26.734375v-20.09375c6.269531-3.621094 9.328125-11.003906 7.453125-18-1.875-6.992188-8.214844-11.859375-15.453125-11.859375-7.242188 0-13.582031 4.867187-15.457031 11.859375-1.875 6.996094 1.183593 14.378906 7.457031 18v20.09375l-15.28125-26.734375 13.046875-39.136719h20.464844zm-7.277343-55.136719h-32v-8h32zm-31.691407-24 3.691407-96h24l3.6875 96zm24.609376-176h-17.839844l.617187-16h16.605469zm-32.617188-32h-.300781v-88c0-13.253906 10.742187-24 24-24 13.253906 0 24 10.746094 24 24v88zm0 0"/></g></svg>