<svg height="481pt" viewBox="-100 0 481 481.888" width="481pt" xmlns="http://www.w3.org/2000/svg"><g fill="#9bc9ff"><path d="m72.445312 88v-32h-64v32zm0 0"/><path d="m8.445312 88h32v304h-32zm0 0"/><path d="m40.445312 88h32v304h-32zm0 0"/><path d="m61.890625 421.105469c-13.488281-6.808594-29.40625-6.808594-42.894531 0l21.449218 42.894531zm0 0"/></g><path d="m96.445312 464h184v16h-184zm0 0" fill="#1e81ce"/><path d="m64.445312 464h16v16h-16zm0 0" fill="#1e81ce"/><path d="m40.445312 0c-22.082031.0273438-39.976562 17.917969-40 40v361.886719l40 80 40-80v-361.886719c-.027343-22.082031-17.921874-39.9726562-40-40zm-24 96h16v288h-16zm13.65625 329.414062c6.777344-1.789062 13.90625-1.789062 20.6875 0l-10.34375 20.699219zm27.941407-14.511718c-11.433594-3.75-23.765625-3.75-35.199219 0l-5.457031-10.902344h46.113281zm6.402343-26.902344h-16v-288h16zm0-304h-48v-16h48zm-48-32v-8c0-13.253906 10.742188-24 24-24 13.253907 0 24 10.746094 24 24v8zm0 0" fill="#1e81ce"/></svg>