<svg height="480pt" viewBox="-40 0 480 480" width="480pt" xmlns="http://www.w3.org/2000/svg"><g fill="#9bc9ff"><path d="m320 214.398438-48 22.402343-24 11.199219h-96l-24-11.199219-48-22.402343-48-22.398438h-24v104h384v-104h-24zm0 0"/><path d="m80 144-24 16-24-16v48l48 22.398438zm0 0"/><path d="m392 56-48-48h-296l-40 48zm0 0"/><path d="m248 248 24-11.199219v-92.800781l-24 16-24-16v104zm0 0"/><path d="m320 214.398438v-70.398438l-24 16-24-16v92.800781zm0 0"/><path d="m224 248v-104l-24 16-24-16v104zm0 0"/><path d="m8 424h384v48h-384zm0 0"/><path d="m128 236.800781v-92.800781l-24 16-24-16v70.398438zm0 0"/><path d="m152 248h24v-104l-24 16-24-16v92.800781zm0 0"/><path d="m368 192v-48l-24 16-24-16v70.398438zm0 0"/></g><path d="m347.3125 0h-303.066406l-44.246094 53.105469v426.894531h400v-427.3125zm36.6875 184h-8v-41.886719l-32-64-24 48-24-48-24 48-24-48-24 48-24-48-24 48-24-48-24 48-24-48-24 48-24-48-32 64v41.886719h-8v-120h368zm-28.566406 5.039062-27.433594 12.792969v-42.878906l16 10.648437 16-10.664062v27.949219zm-11.433594-38.640624-13.6875-9.117188 13.6875-27.394531 13.6875 27.378906zm-256 58.90625v-50.351563l16 10.648437 16-10.664062v65.277344zm16-58.90625-13.6875-9.117188 13.6875-27.394531 13.6875 27.378906zm-64 8.570312 16 10.632812 16-10.664062v42.902344l-32-14.9375zm2.3125-17.6875 13.6875-27.394531 13.6875 27.378906-13.6875 9.132813zm93.6875 90.421875v-72.75l16 10.648437 16-10.664062v81.0625h-14.222656zm2.3125-90.398437 13.6875-27.417969 13.6875 27.378906-13.6875 9.132813zm45.6875 17.648437 16 10.648437 16-10.664062v81.0625h-32zm2.3125-17.6875 13.6875-27.378906 13.6875 27.378906-13.6875 9.132813zm45.6875 17.6875 16 10.648437 16-10.664062v72.75l-17.777344 8.3125h-14.222656zm2.3125-17.6875 13.6875-27.378906 13.6875 27.378906-13.6875 9.132813zm45.6875 17.6875 16 10.648437 16-10.664062v50.351562l-32 14.949219zm2.3125-17.6875 13.6875-27.378906 13.6875 27.378906-13.6875 9.132813zm-230.558594-125.265625h288.933594l32 32h-347.609375zm-35.753906 312h368v64h-368zm368 136h-368v-32h368zm0-48h-368v-8h368zm-368-104v-8h368v8zm0-24v-88h14.222656l120 56h99.554688l120-56h14.222656v88zm0 0" fill="#1e81ce"/></svg>