<svg height="478pt" viewBox="-135 0 478 478.4" width="478pt" xmlns="http://www.w3.org/2000/svg"><g fill="#9bc9ff"><path d="m183.640625 40v-32h-160v32zm0 0"/><path d="m55.640625 40h96v152h-96zm0 0"/><path d="m151.640625 192h-96v7.3125l-40 56.6875h176l-40-55zm0 0"/></g><path d="m207.351562 264-47.710937-65.601562v-150.398438h32v-48h-176v48h32v148.800781l-47.441406 67.199219h79.441406v178.398438l24 36 24-36v-178.398438zm-175.710937-232v-16h144v16zm32 16h80v136h-80zm-32.5625 200 32.5625-48h80l32.289063 48zm80.5625 189.601562-8 12-8-12v-173.601562h16zm0 0" fill="#1e81ce"/><path d="m111.640625 64h16v72h-16zm0 0" fill="#1e81ce"/><path d="m111.640625 152h16v16h-16zm0 0" fill="#1e81ce"/></svg>