<svg height="480pt" viewBox="0 0 480 480.11987" width="480pt" xmlns="http://www.w3.org/2000/svg"><g fill="#9bc9ff"><path d="m472.058594 56v-48h-464v48zm0 0"/><path d="m472.058594 376v-32h-464v32zm0 0"/><path d="m264.058594 448c0 13.253906-10.742188 24-24 24-13.253906 0-24-10.746094-24-24s10.746094-24 24-24c13.257812 0 24 10.746094 24 24zm0 0"/><path d="m96.058594 184h48v96h-48zm0 0"/><path d="m176.058594 152h48v128h-48zm0 0"/><path d="m256.058594 120h48v160h-48zm0 0"/><path d="m336.058594 184h48v96h-48zm0 0"/></g><path d="m480.058594 64v-64h-480.0000002v64h16.0000002v272h-16.0000002v48h232.0000002v33.136719c-15.601563 4.027343-25.773438 19.03125-23.742188 35.015625 2.027344 15.984375 15.628906 27.96875 31.742188 27.96875 16.117187 0 29.714844-11.984375 31.746094-27.96875s-8.140626-30.988282-23.746094-35.015625v-33.136719h232v-48h-16v-272zm-224 384c0 8.835938-7.160156 16-16 16-8.835938 0-16-7.164062-16-16s7.164062-16 16-16c8.839844 0 16 7.164062 16 16zm-240-432h448v32h-448zm448 352h-448v-16h448zm-16-32h-416v-272h416zm0 0" fill="#1e81ce"/><path d="m408.058594 288v-16h-16v-96h-64v96h-16v-160h-64v160h-16v-128h-64v128h-16v-96h-64v96h-16v16zm-64-96h32v80h-32zm-80-64h32v144h-32zm-80 32h32v112h-32zm-80 32h32v80h-32zm0 0" fill="#1e81ce"/><path d="m416.058594 272h16v16h-16zm0 0" fill="#1e81ce"/></svg>