<svg height="480pt" viewBox="0 0 480 480" width="480pt" xmlns="http://www.w3.org/2000/svg"><path d="m8 312h80v48h-80zm0 0" fill="#9bc9ff"/><path d="m432 136h-424v176h80v-48h304v48h80v-176zm-8 64c-8.835938 0-16-7.164062-16-16s7.164062-16 16-16 16 7.164062 16 16-7.164062 16-16 16zm0 0" fill="#9bc9ff"/><path d="m392 312h80v48h-80zm0 0" fill="#9bc9ff"/><path d="m48 64h40v72h-40zm0 0" fill="#9bc9ff"/><path d="m392 64h40v72h-40zm0 0" fill="#9bc9ff"/><g fill="#1e81ce"><path d="m440 128v-72h-40v-56h-320v56h-40v72h-40v240h80v112h320v-112h80v-240zm-16-56v56h-24v-56zm-328-56h288v112h-288zm-40 56h24v56h-24zm-40 280v-32h64v32zm368 112h-288v-192h288zm80-112h-64v-32h64zm-64-48v-32h32v-16h-384v16h32v32h-64v-160h448v160zm0 0"/><path d="m128 288h16v16h-16zm0 0"/><path d="m160 288h192v16h-192zm0 0"/><path d="m128 320h72v16h-72zm0 0"/><path d="m216 320h136v16h-136zm0 0"/><path d="m128 416h16v16h-16zm0 0"/><path d="m160 416h192v16h-192zm0 0"/><path d="m128 352h16v16h-16zm0 0"/><path d="m216 384h16v16h-16zm0 0"/><path d="m160 352h192v16h-192zm0 0"/><path d="m128 384h72v16h-72zm0 0"/><path d="m248 384h104v16h-104zm0 0"/><path d="m424 160c-13.253906 0-24 10.746094-24 24s10.746094 24 24 24 24-10.746094 24-24-10.746094-24-24-24zm0 32c-4.417969 0-8-3.582031-8-8s3.582031-8 8-8 8 3.582031 8 8-3.582031 8-8 8zm0 0"/><path d="m360 176h32v16h-32zm0 0"/><path d="m32 176h32v16h-32zm0 0"/><path d="m80 176h32v16h-32zm0 0"/></g></svg>