<svg height="480pt" viewBox="0 -120 480 480" width="480pt" xmlns="http://www.w3.org/2000/svg"><path d="m408 88c0 26.507812-21.492188 48-48 48s-48-21.492188-48-48c0-26.511719 21.492188-48 48-48s48 21.488281 48 48zm0 0" fill="#9bc9ff"/><path d="m423.886719 40c24.859375 32.984375 20.523437 79.46875-10.011719 107.285156-30.53125 27.816406-77.21875 27.816406-107.75 0-30.535156-27.816406-34.871094-74.300781-10.011719-107.285156h-288.113281v160h464v-160zm-199.886719 56c-8.835938 0-16-7.164062-16-16 0-8.839844 7.164062-16 16-16s16 7.160156 16 16c0 8.835938-7.164062 16-16 16zm0 0" fill="#9bc9ff"/><g fill="#1e81ce"><path d="m480 32h-52.167969c-16.695312-20.261719-41.578125-32-67.832031-32s-51.136719 11.738281-67.832031 32h-292.167969v176h40v32h64v-32h272v32h64v-32h40zm-120-16c39.765625 0 72 32.234375 72 72 0 39.761719-32.234375 72-72 72s-72-32.238281-72-72c.046875-39.746094 32.253906-71.953125 72-72zm-272 208h-32v-16h32zm336 0h-32v-16h32zm40-32h-448v-144h265.710938c-19.003907 37.023438-9.476563 82.296875 22.839843 108.519531 32.316407 26.222657 78.582031 26.222657 110.898438 0 32.316406-26.222656 41.84375-71.496093 22.839843-108.519531h25.710938zm0 0"/><path d="m360 144c30.929688 0 56-25.074219 56-56 0-30.929688-25.070312-56-56-56s-56 25.070312-56 56c.035156 30.910156 25.085938 55.964844 56 56zm0-96c22.089844 0 40 17.90625 40 40 0 22.089844-17.910156 40-40 40s-40-17.910156-40-40c.027344-22.082031 17.917969-39.976562 40-40zm0 0"/><path d="m48 64h96v16h-96zm0 0"/><path d="m48 96h128v16h-128zm0 0"/><path d="m48 128h128v16h-128zm0 0"/><path d="m48 160h128v16h-128zm0 0"/><path d="m224 56c-13.253906 0-24 10.742188-24 24 0 13.253906 10.746094 24 24 24s24-10.746094 24-24c0-13.257812-10.746094-24-24-24zm0 32c-4.417969 0-8-3.582031-8-8s3.582031-8 8-8 8 3.582031 8 8-3.582031 8-8 8zm0 0"/><path d="m160 64h16v16h-16zm0 0"/></g></svg>