<svg height="480pt" viewBox="-168 0 480 480" width="480pt" xmlns="http://www.w3.org/2000/svg"><path d="m8 8v464h128v-464zm64 56c-8.835938 0-16-7.164062-16-16s7.164062-16 16-16 16 7.164062 16 16-7.164062 16-16 16zm0 0" fill="#9bc9ff"/><g fill="#1e81ce"><path d="m0 0v480h144v-480zm16 464v-448h112v64h-24v16h24v16h-40v16h40v16h-24v16h24v16h-40v16h40v16h-24v16h24v16h-40v16h40v16h-24v16h24v16h-40v16h40v16h-24v16h24v16h-40v16h40v16h-24v16h24v16h-40v16h40v16zm0 0"/><path d="m96 48c0-13.253906-10.746094-24-24-24s-24 10.746094-24 24 10.746094 24 24 24 24-10.746094 24-24zm-24 8c-4.417969 0-8-3.582031-8-8s3.582031-8 8-8 8 3.582031 8 8-3.582031 8-8 8zm0 0"/></g></svg>