<svg height="485pt" viewBox="-57 0 485 485.35208" width="485pt" xmlns="http://www.w3.org/2000/svg"><g fill="#9bc9ff"><path d="m354.1875 381.535156-16-27.679687c-8.488281-14.710938-22.472656-25.445313-38.878906-29.839844-9.777344-2.585937-20.019532-2.859375-29.921875-.800781-6.933594 1.707031-14.171875-1.3125-17.839844-7.4375l-2.558594-4.402344c-2.113281-3.683594-2.6875-8.054688-1.601562-12.160156l2.402343-8.878906c1.113282-4.203126.476563-8.675782-1.761718-12.398438l-24.800782-40.242188-37.757812-61.4375-97.921875-158.960937-5.277344 12.238281c-16.382812 38.441406-12.976562 82.457032 9.117188 117.921875l56.242187 90.238281 37.839844 60.800782 7.28125 11.761718c2.164062 3.5 5.558594 6.070313 9.519531 7.199219l9.277344 2.480469c4.113281 1.082031 7.625 3.761719 9.761719 7.4375l6 10.480469c2.894531 5.007812 2.863281 11.183593-.082032 16.160156-11.335937 19.777344-11.304687 44.089844.082032 63.839844l14.960937 25.839843c16.730469 29.886719 53.691407 41.789063 84.71875 27.28125 15.902344-7.8125 27.851563-21.867187 33.003907-38.820312 5.15625-16.949219 3.054687-35.277344-5.804688-50.621094zm-39.4375 59.761719c-15.3125 8.804687-34.863281 3.542969-43.683594-11.761719l-16-27.679687c-6.304687-9.917969-6.664062-22.496094-.9375-32.761719 5.730469-10.265625 16.625-16.5625 28.378906-16.402344 11.753907.160156 22.472657 6.75 27.921876 17.164063l16 27.679687c4.257812 7.351563 5.421874 16.09375 3.230468 24.300782-2.1875 8.210937-7.554687 15.210937-14.910156 19.460937zm0 0"/><path d="m122.828125 277.9375c-2.238281 3.722656-2.871094 8.195312-1.761719 12.398438l2.402344 8.878906c1.125 4.105468.550781 8.488281-1.601562 12.160156l-2.558594 4.402344c-3.65625 6.140625-10.902344 9.160156-17.839844 7.4375-9.902344-2.058594-20.144531-1.785156-29.921875.800781-16.40625 4.394531-30.390625 15.128906-38.878906 29.839844l-16 27.679687c-8.859375 15.34375-10.960938 33.671875-5.804688 50.621094 5.152344 16.953125 17.105469 31.007812 33.003907 38.820312 31.050781 14.503907 68.03125 2.609376 84.800781-27.28125l14.878906-25.839843c11.429687-19.738281 11.457031-44.074219.082031-63.839844-2.867187-4.996094-2.894531-11.132813-.082031-16.160156l6.082031-10.480469c2.082032-3.6875 5.578125-6.375 9.679688-7.4375l9.28125-2.480469c3.957031-1.128906 7.351562-3.699219 9.519531-7.199219l7.359375-11.761718-37.839844-60.800782zm-6.992187 123.902344-16 27.710937c-5.675782 9.984375-16.265626 16.160157-27.746094 16.183594-11.484375.027344-22.101563-6.101563-27.820313-16.058594-5.71875-9.960937-5.664062-22.21875.144531-32.125l16-27.710937c8.894532-15.175782 28.371094-20.324219 43.605469-11.527344 15.230469 8.792969 20.511719 28.234375 11.816407 43.527344zm0 0"/><path d="m279.46875 147.457031c22.136719-35.453125 25.542969-79.488281 9.121094-117.921875l-5.28125-12.238281-97.839844 158.960937 37.757812 61.4375zm0 0"/><path d="m194.75 239.695312c0 4.417969-3.582031 8-8 8-4.421875 0-8-3.582031-8-8 0-4.417968 3.578125-8 8-8 4.417969 0 8 3.582032 8 8zm0 0"/></g><path d="m317.386719 365.839844c-7.09375-12.476563-20.328125-20.199219-34.683594-20.230469-14.351563-.03125-27.625 7.632813-34.773437 20.078125-7.148438 12.445312-7.082032 27.769531.179687 40.152344l16 27.710937c7.09375 12.480469 20.328125 20.199219 34.683594 20.230469s27.625-7.628906 34.773437-20.078125c7.148438-12.445313 7.082032-27.769531-.179687-40.152344zm4.546875 53.929687c-2.503906 9.394531-10.425782 16.351563-20.066406 17.617188-9.636719 1.269531-19.089844-3.40625-23.933594-11.835938l-16-27.710937c-6.628906-11.488282-2.6875-26.171875 8.796875-32.800782 11.488281-6.625 26.175781-2.6875 32.800781 8.800782l16 27.710937c3.207031 5.507813 4.078125 12.066407 2.417969 18.21875zm0 0" fill="#1e81ce"/><path d="m361.148438 377.535156-16-27.679687c-9.519532-16.589844-25.273438-28.6875-43.761719-33.597657-11-2.886718-22.519531-3.1875-33.65625-.882812-3.542969.949219-7.292969-.527344-9.238281-3.640625l-2.511719-4.328125c-1.058594-1.855469-1.347657-4.058594-.800781-6.125l2.402343-8.898438c1.664063-6.324218.699219-13.058593-2.675781-18.664062l-22.191406-36 53.53125-86.023438c23.527344-37.664062 27.152344-84.457031 9.703125-125.296874l-11.386719-26.398438-99.117188 161.039062-99.160156-161.039062-11.367187 26.398438c-17.421875 40.84375-13.808594 87.617187 9.679687 125.296874l53.597656 86.082032-22.246093 36.078125c-3.324219 5.589843-4.261719 12.28125-2.609375 18.570312l2.398437 8.917969c.554688 2.03125.265625 4.199219-.796875 6.015625l-2.609375 4.488281c-1.96875 3.078125-5.714843 4.515625-9.238281 3.542969-11.121094-2.304687-22.621094-2-33.601562.898437-18.472657 4.917969-34.21875 17.015626-43.726563 33.597657l-16 27.6875c-9.90625 17.285156-12.253906 37.882812-6.496094 56.953125 5.734375 19.074218 19.175781 34.890625 37.078125 43.625 9.625 4.753906 20.21875 7.214844 30.953125 7.199218 26.609375-.203124 51.101563-14.546874 64.296875-37.65625l14.871094-25.824218c12.773438-22.191406 12.832031-49.488282.152344-71.734375-1.496094-2.539063-1.558594-5.671875-.160156-8.265625l6.136718-10.550782c1.03125-1.824218 2.765625-3.144531 4.796875-3.648437l9.410157-2.511719c5.867187-1.660156 10.898437-5.460937 14.101562-10.648437l.539062-.863281.496094.800781c3.234375 5.25 8.335938 9.085937 14.277344 10.742187l9.363281 2.503906c2.019531.542969 3.742188 1.859376 4.796875 3.664063l6.050782 10.542969c1.433593 2.539062 1.386718 5.65625-.128907 8.144531-12.683593 22.273437-12.644531 49.589844.101563 71.824219l14.9375 25.824218c13.1875 23.113282 37.679687 37.460938 64.289062 37.65625 10.71875.011719 21.300782-2.449218 30.910156-7.199218 17.957032-8.753906 31.429688-24.621094 37.152344-43.761719 5.734375-19.042969 3.367188-39.609375-6.542968-56.855469zm-166.289063-201.277344 87.199219-141.601562c14.464844 35.597656 10.976562 75.972656-9.382813 108.558594l-49.398437 79.265625zm-23.574219 129.839844c-1.089844 1.753906-2.78125 3.054688-4.761718 3.644532l-9.183594 2.464843c-6.191406 1.59375-11.472656 5.636719-14.625 11.199219l-6.125 10.53125c-4.226563 7.488281-4.183594 16.648438.101562 24.101562 9.902344 17.316407 9.871094 38.585938-.078125 55.871094l-14.875 25.785156c-14.59375 26.316407-47.0625 36.851563-74.324219 24.113282-13.914062-6.84375-24.367187-19.140625-28.878906-33.972656-4.511718-14.832032-2.679687-30.871094 5.0625-44.300782l16-27.679687c7.398438-12.882813 19.632813-22.28125 33.992188-26.101563 4.777344-1.261718 9.695312-1.902344 14.636718-1.898437 3.882813-.003907 7.753907.394531 11.554688 1.183593 10.328125 2.480469 21.066406-2.085937 26.445312-11.246093l2.539063-4.359375c3.21875-5.53125 4.082031-12.125 2.398437-18.296875l-2.398437-8.871094c-.539063-2.074219-.238281-4.277344.839844-6.128906l18-29.199219 28.382812 45.597656zm181.0625 123.65625c-4.453125 14.898438-14.945312 27.25-28.925781 34.054688-27.234375 12.71875-59.664063 2.183594-74.226563-24.113282l-14.949218-25.824218c-9.917969-17.300782-9.945313-38.554688-.074219-55.878906 4.390625-7.429688 4.417969-16.652344.082031-24.113282l-6.042968-10.550781c-3.214844-5.480469-8.460938-9.472656-14.597657-11.113281l-9.144531-2.445313c-2.042969-.582031-3.796875-1.90625-4.914062-3.714843l-101.375-162.832032c-20.332032-32.613281-23.8125-72.992187-9.359376-108.605468l152.328126 247.421874c1.117187 1.867188 1.441406 4.101563.894531 6.207032l-2.398438 8.859375c-1.636719 6.171875-.773437 12.742187 2.398438 18.285156l2.539062 4.386719c5.398438 9.113281 16.082031 13.675781 26.398438 11.269531 8.675781-1.800781 17.648437-1.5625 26.214843.695313 14.371094 3.820312 26.617188 13.21875 34.015626 26.113281l16 27.679687c7.824218 13.371094 9.6875 29.410156 5.136718 44.21875zm0 0" fill="#1e81ce"/><path d="m108.125 351.199219c-19.136719-11.015625-43.578125-4.46875-54.640625 14.640625l-16 27.710937c-10.867187 19.117188-4.269531 43.417969 14.773437 54.414063 19.039063 10.992187 43.386719 4.554687 54.507813-14.414063l16-27.710937c11.042969-19.132813 4.488281-43.59375-14.640625-54.640625zm.800781 46.640625-16 27.710937c-6.628906 11.488281-21.3125 15.429688-32.800781 8.800781-11.488281-6.628906-15.429688-21.3125-8.800781-32.800781l16-27.710937c6.628906-11.488282 21.3125-15.425782 32.800781-8.800782 11.488281 6.628907 15.425781 21.3125 8.800781 32.800782zm0 0" fill="#1e81ce"/><path d="m202.75 239.695312c0 8.835938-7.164062 16-16 16-8.839844 0-16-7.164062-16-16 0-8.835937 7.160156-16 16-16 8.835938 0 16 7.164063 16 16zm0 0" fill="#1e81ce"/></svg>