<svg height="480pt" viewBox="-72 0 480 480" width="480pt" xmlns="http://www.w3.org/2000/svg"><g fill="#9bc9ff"><path d="m328 112v-104h-320v104l32 48v160l-32 48v104h320v-104l-32-48v-160zm-80 312h-160v-368h160zm0 0"/><path d="m184 272c12.941406-.003906 24.605469-7.800781 29.558594-19.753906 4.949218-11.957032 2.214844-25.71875-6.933594-34.871094l-45.25 45.25c5.992188 6.011719 14.136719 9.386719 22.625 9.375zm0 0"/><path d="m206.625 217.375c-8.035156-8.316406-19.933594-11.652344-31.121094-8.726562-11.1875 2.929687-19.925781 11.667968-22.855468 22.855468-2.925782 11.1875.410156 23.085938 8.726562 31.121094zm0 0"/></g><path d="m336 114.398438v-114.398438h-336v114.398438l32 48v155.203124l-32 48v114.398438h336v-114.398438l-32-48v-155.203124zm-16 256v93.601562h-304v-93.601562l32-48v-164.796876l-32-48v-93.601562h304v93.601562l-32 48v164.796876zm0 0" fill="#1e81ce"/><path d="m80 432h176v-384h-176zm160-16h-112v-352h112zm-144-352h16v352h-16zm0 0" fill="#1e81ce"/><path d="m184 280c22.089844 0 40-17.910156 40-40s-17.910156-40-40-40-40 17.910156-40 40c.027344 22.082031 17.917969 39.972656 40 40zm0-16c-3.5625-.015625-7.078125-.835938-10.28125-2.398438l31.882812-31.882812c1.5625 3.203125 2.382813 6.71875 2.398438 10.28125 0 13.253906-10.746094 24-24 24zm0-48c3.5625.015625 7.078125.835938 10.28125 2.398438l-31.882812 31.882812c-1.5625-3.203125-2.382813-6.71875-2.398438-10.28125 0-13.253906 10.746094-24 24-24zm0 0" fill="#1e81ce"/></svg>