<svg height="479pt" viewBox="-23 0 479 479.95402" width="479pt" xmlns="http://www.w3.org/2000/svg"><path d="m312.476562 423.953125h-304v48h80v-16h48v16h160v-16h48v16h80v-48zm0 0" fill="#9bc9ff"/><path d="m280.894531 279.953125h-248.417969v144h368v-144zm0 0" fill="#9bc9ff"/><g fill="#1e81ce"><path d="m360.476562 303.953125h16v64h-16zm0 0"/><path d="m360.476562 383.953125h16v16h-16zm0 0"/><path d="m408.476562 415.953125v-144h-121.152343l-16.101563-73.40625c-.679687-3.222656.679688-6.527344 3.429688-8.335937 37.890625-25.566407 54.648437-72.878907 41.292968-116.59375-13.355468-43.71875-53.6875-73.5898442-99.398437-73.617188s-86.082031 29.792969-99.488281 73.492188c-13.410156 43.699218 3.285156 91.03125 41.144531 116.644531 2.796875 1.8125 4.195313 5.15625 3.523437 8.417969l-16.097656 73.398437h-121.152344v144h-24v64h96v-16h32v16h176v-16h32v16h96v-64zm-16-128v128h-73.597656l-28.082031-128zm-89.945312 128h-172.109375l28.070313-128h116zm-135.367188-239.0625c-32.03125-21.675781-46.160156-61.722656-34.816406-98.699219 11.347656-36.972656 45.503906-62.207031 84.179688-62.1875 38.679687.023438 72.804687 25.296875 84.109375 62.285156 11.304687 36.988282-2.871094 77.019532-34.925781 98.65625-8.214844 5.453126-12.230469 15.394532-10.113282 25.023438l15.351563 69.984375h-108.945313l15.34375-69.96875c2.101563-9.664063-1.941406-19.625-10.183594-25.09375zm-126.6875 111.0625h101.601563l-28 128h-73.601563zm376 176h-64v-16h-64v16h-144v-16h-64v16h-64v-32h400zm0 0"/></g></svg>