<svg height="480pt" viewBox="0 -87 480 479" width="480pt" xmlns="http://www.w3.org/2000/svg"><path d="m308.097656 112.5625c-7.886718-5.257812-17.15625-8.0625-26.632812-8.0625h-1.464844c8.835938 0 16 7.164062 16 16v112h176v-32h-32zm51.902344 95.9375c-8.835938 0-16-7.164062-16-16s7.164062-16 16-16 16 7.164062 16 16-7.164062 16-16 16zm0 0" fill="#9bc9ff"/><path d="m296.871094 8.5h-237.398438c-12.492187.007812-24.488281 4.886719-33.441406 13.601562l-3.472656 3.375c-9.296875 9.027344-14.546875 21.433594-14.558594 34.390626v44.632812h273.464844c9.476562 0 18.746094 2.804688 26.632812 8.0625l131.902344 87.9375h32v-80l-147.609375-103.320312c-8.066406-5.648438-17.671875-8.675782-27.519531-8.679688zm0 0" fill="#9bc9ff"/><g fill="#1e81ce"><path d="m328.984375 10.621094c-9.40625-6.601563-20.621094-10.136719-32.113281-10.121094h-237.398438c-14.574218-.027344-28.578125 5.652344-39.015625 15.824219l-3.464843 3.367187c-10.832032 10.566406-16.9531255 25.046875-16.992188 40.175782v52.632812h32v40h256v72h-250.664062l-37.335938 28v52h480v-188.167969zm-312.984375 85.878906v-36.609375c0-10.816406 4.375-21.179687 12.136719-28.71875l3.472656-3.367187c7.453125-7.25 17.441406-11.304688 27.839844-11.304688h237.421875c8.203125-.007812 16.210937 2.503906 22.9375 7.199219l144.191406 100.96875v67.832031h-21.601562l-126.0625-87.441406c-8.03125-5.570313-17.574219-8.558594-27.351563-8.558594zm32 40v-24h240v24zm416 152h-448v-28l26.664062-20h421.335938zm0-64h-160v-105.054688l133.601562 89.054688h26.398438zm0 0"/><path d="m360 168.5c-13.253906 0-24 10.746094-24 24s10.746094 24 24 24 24-10.746094 24-24-10.746094-24-24-24zm0 32c-4.417969 0-8-3.582031-8-8s3.582031-8 8-8 8 3.582031 8 8-3.582031 8-8 8zm0 0"/><path d="m48 256.5h368v16h-368zm0 0"/><path d="m432 256.5h16v16h-16zm0 0"/></g></svg>