<svg height="481pt" viewBox="-71 0 481 481.10126" width="481pt" xmlns="http://www.w3.org/2000/svg"><g fill="#9bc9ff"><path d="m306.8125 92.054688-.011719.015624h.027344v-.007812zm0 0"/><path d="m290.8125 87.78125-30.386719-8.121094-41.121093 153.441406h49.761718l37.761719-141.03125h-.027344zm0 0"/><path d="m269.066406 233.101562h-234.320312l24 240h208l24-240zm0 0"/><path d="m315.082031 61.15625-7.71875-2.070312-30.914062-8.28125-7.726563-2.070313-8.28125 30.910156 30.371094 8.136719 16 4.273438zm0 0"/><path d="m306.8125 92.054688-16-4.273438 15.988281 4.289062zm0 0"/><path d="m315.644531 28.171875c2.285157-8.535156-2.78125-17.308594-11.316406-19.59375-8.539063-2.289063-17.3125 2.777344-19.597656 11.316406l-8.28125 30.910157 30.914062 8.28125zm0 0"/><path d="m307.363281 59.085938-30.914062-8.28125zm0 0"/></g><path d="m229.820312 440.300781 2.402344-24 15.917969 1.59375-2.402344 24zm0 0" fill="#1e81ce"/><path d="m233.828125 400.207031 13.605469-135.902343 15.917968 1.59375-13.601562 135.902343zm0 0" fill="#1e81ce"/><path d="m30.003906 80.476562 15.453125-4.140624 4.144531 15.453124-15.457031 4.140626zm0 0" fill="#1e81ce"/><path d="m316.617188 86.414062 8.273437-30.914062-7.742187-2.070312 6.214843-23.199219c3.429688-12.8125-4.175781-25.980469-16.988281-29.414063-12.8125-3.429687-25.980469 4.175782-29.414062 16.988282l-6.207032 23.199218-7.726562-2.070312-49.878906 186.167968h-2.402344v-224h-96v224h-4.582032l-48.335937-180.289062-44.679687-43.3125-17.0976568 59.855469 43.8710938 163.746093h-17.976563l25.601563 256h222.480469l25.597656-256h-20.132812l32.992187-123.199218 7.710937 2.0625-14.503906 54.097656 15.457032 4.132812 18.636718-69.542968zm-24.160157-64.449218c1.160157-4.25 5.535157-6.761719 9.789063-5.625 4.253906 1.140625 6.785156 5.503906 5.667968 9.761718l-6.214843 23.199219-15.457031-4.136719zm-22.214843 52 4.136718-15.457032 30.910156 8.28125-4.140624 15.472657zm-139.496094-56.863282h64v16h-24v16h24v16h-24v16h24v16h-24v16h24v16h-24v16h24v16h-24v16h24v16h-24v16h24v16h-64zm-91.785156 27.839844-19.054688 5.105469 5.242188-18.457031zm-20.796876 22.144532 30.863282-8.273438 44.574218 166.289062h-8.320312l-31.527344-117.832031-15.457031 4.136719 30.425781 113.695312h-8.238281zm241.382813 398.015624h-193.558594l-22.402343-224h238.359374zm-29.816406-240 36.351562-135.648437 30.945313 8.273437-34.097656 127.375zm0 0" fill="#1e81ce"/></svg>