<svg height="480pt" viewBox="-29 0 480 480.21952" width="480pt" xmlns="http://www.w3.org/2000/svg"><g fill="#9bc9ff"><path d="m351.667969 169.761719c-6.871094-8.195313-14.445313-15.769531-22.640625-22.640625-68.382813-57.453125-168.160156-57.453125-236.542969 0-8.191406 6.871094-15.765625 14.445312-22.640625 22.640625-62.683594 74.652343-56.269531 185.238281 14.628906 252.140625 70.898438 66.902344 181.671875 66.902344 252.566406 0 70.898438-66.902344 77.3125-177.488282 14.628907-252.140625zm-140.878907 270.238281c-83.949218 0-152-68.050781-152-152s68.050782-152 152-152c83.945313 0 152 68.050781 152 152-.09375 83.910156-68.089843 151.90625-152 152zm0 0"/><path d="m234.789062 288c0 13.253906-10.746093 24-24 24-13.253906 0-24-10.746094-24-24s10.746094-24 24-24c13.253907 0 24 10.746094 24 24zm0 0"/><path d="m386.148438 90.007812c-6.246094-6.246093-16.375-6.246093-22.625 0l-11.3125 11.3125 45.257812 45.253907 11.3125-11.308594c6.246094-6.25 6.246094-16.378906 0-22.625zm0 0"/><path d="m58.050781 90.007812c-6.246093-6.246093-16.375-6.246093-22.621093 0l-22.632813 22.632813c-6.246094 6.246094-6.246094 16.375 0 22.625l11.3125 11.308594 45.253906-45.253907zm0 0"/><path d="m258.789062 24c0-8.835938-7.164062-16-16-16h-64c-8.835937 0-16 7.164062-16 16v32h96zm0 0"/></g><path d="m202.789062 384h16v32h-16zm0 0" fill="#1e81ce"/><path d="m210.789062 128c-88.367187 0-160 71.632812-160 160s71.632813 160 160 160c88.363282 0 160-71.632812 160-160-.101562-88.324219-71.675781-159.898438-160-160zm0 304c-79.53125 0-144-64.472656-144-144s64.46875-144 144-144c79.527344 0 144 64.472656 144 144-.09375 79.492188-64.511718 143.90625-144 144zm0 0" fill="#1e81ce"/><path d="m210.789062 152c-75.109374 0-136 60.890625-136 136s60.890626 136 136 136c75.109376 0 136-60.890625 136-136-.085937-75.074219-60.925781-135.917969-136-136zm66.765626 235.648438-11.839844-20.503907-13.855469 8 11.792969 20.421875c-33.292969 16.578125-72.433594 16.578125-105.726563 0l11.789063-20.421875-13.855469-8-11.839844 20.503907c-12.984375-8.730469-24.148437-19.894532-32.878906-32.878907l20.503906-11.839843-8-13.859376-20.425781 11.792969c-6.914062-14.019531-11-29.265625-12.023438-44.863281h23.59375v-16h-23.59375c1.015626-15.597656 5.09375-30.84375 12-44.863281l20.425782 11.792969 8-13.859376-20.503906-11.839843c8.726562-12.984375 19.894531-24.148438 32.878906-32.878907l11.839844 20.503907 13.855468-8-11.789062-20.421875c14.023437-6.921875 29.277344-11.007813 44.886718-12.027344v23.59375h16v-23.59375c15.597657 1.015625 30.84375 5.09375 44.863282 12l-11.792969 20.425781 13.855469 8 11.839844-20.503906c12.988281 8.730469 24.152343 19.894531 32.882812 32.878906l-20.503906 11.839844 8 13.855469 20.421875-11.789063c6.921875 14.027344 11.007812 29.277344 12.023437 44.886719h-23.589844v16h23.589844c-1.011718 15.597656-5.089844 30.84375-12 44.863281l-20.421875-11.792969-8 13.859376 20.503907 11.839843c-8.734376 12.984375-19.910157 24.152344-32.90625 32.878907zm0 0" fill="#1e81ce"/><path d="m218.789062 257.136719v-49.136719h-16v49.136719c-15.601562 4.027343-25.777343 19.03125-23.746093 35.015625s15.632812 27.96875 31.746093 27.96875c16.113282 0 29.714844-11.984375 31.746094-27.96875 2.027344-15.984375-8.144531-30.988282-23.746094-35.015625zm-8 46.863281c-8.835937 0-16-7.164062-16-16s7.164063-16 16-16c8.835938 0 16 7.164062 16 16s-7.164062 16-16 16zm0 0" fill="#1e81ce"/><path d="m397.46875 157.886719 16.96875-16.964844c9.367188-9.375 9.367188-24.566406 0-33.9375l-22.625-22.632813c-9.5-9.0625-24.445312-9.0625-33.945312 0l-16.964844 16.96875 11.300781 11.3125-23.816406 23.78125c-24.96875-19.457031-54.382813-32.410156-85.597657-37.695312v-34.71875h24v-40c0-13.253906-10.746093-24-24-24h-64c-13.253906 0-24 10.746094-24 24v40h24v34.71875c-31.214843 5.285156-60.628906 18.238281-85.601562 37.695312l-23.78125-23.78125 11.300781-11.3125-16.964843-16.96875c-9.496094-9.0625-24.441407-9.0625-33.9375 0l-22.664063 22.625c-9.375 9.371094-9.375 24.570313 0 33.945313l16.96875 16.964844 11.3125-11.300781 23.78125 23.8125c-61.273437 78.847656-51.886719 191.5 21.597656 259.113281 73.484375 67.609375 186.523438 67.609375 260.007813 0 73.484375-67.613281 82.871094-180.265625 21.597656-259.113281l23.78125-23.78125zm-379.015625-28.285157c-3.125-3.125-3.125-8.191406 0-11.3125l22.640625-22.632812c3.121094-3.117188 8.179688-3.117188 11.304688 0l5.652343 5.65625-33.941406 33.953125zm152.335937-81.601562v-24c0-4.417969 3.582032-8 8-8h64c4.417969 0 8 3.582031 8 8v24zm24 16h32v32.71875c-5.28125-.4375-10.609374-.71875-16-.71875-5.390624 0-10.71875.28125-16 .71875zm-148.046874 71.28125 11.328124-11.328125 22.8125 22.816406c-3.921874 3.625-7.699218 7.402344-11.328124 11.328125zm164.046874 328.71875c-97.203124 0-176-78.796875-176-176s78.796876-176 176-176c97.203126 0 176 78.796875 176 176-.109374 97.15625-78.84375 175.890625-176 176zm141.230469-305.902344c-3.625-3.925781-7.402343-7.703125-11.328125-11.328125l22.816406-22.816406 11.328126 11.328125zm17.160157-62.402344c3.167968-3.015624 8.144531-3.015624 11.3125 0l22.632812 22.640626c3.117188 3.125 3.117188 8.179687 0 11.304687l-5.65625 5.65625-33.945312-33.945313zm0 0" fill="#1e81ce"/></svg>