<svg height="480pt" viewBox="0 -52 480 480" width="480pt" xmlns="http://www.w3.org/2000/svg"><path d="m240 8c-128.160156 0-232 42.960938-232 96 0 30.960938 35.359375 58.480469 90.238281 76 45.972657 13.792969 93.769531 20.539062 141.761719 20 47.992188.539062 95.789062-6.207031 141.761719-20 54.878906-17.519531 90.238281-45.039062 90.238281-76 0-53.039062-103.839844-96-232-96zm0 120c-44.183594 0-80-10.742188-80-24s35.816406-24 80-24 80 10.742188 80 24-35.816406 24-80 24zm0 0" fill="#9bc9ff"/><g fill="#1e81ce"><path d="m240 0c-134.574219 0-240 45.679688-240 104v168c0 58.320312 105.425781 104 240 104 27.148438.046875 54.265625-1.9375 81.121094-5.9375l10.566406-1.597656-10.503906-22.542969c21.347656-3.09375 42.417968-7.875 63.007812-14.304687 60.886719-19.441407 95.808594-49.914063 95.808594-83.617188v-144c0-58.320312-105.425781-104-240-104zm0 16c121.425781 0 224 40.296875 224 88 0 25.886719-31.65625 51.457031-84.679688 68.382812-45.175781 13.574219-92.152343 20.1875-139.320312 19.617188-47.167969.570312-94.148438-6.046875-139.328125-19.617188-53.015625-16.925781-84.671875-42.496093-84.671875-68.382812 0-47.703125 102.574219-88 224-88zm0 344c-121.425781 0-224-40.296875-224-88v-129.929688c15.863281 18.050782 43.0625 33.816407 79.800781 45.546876 46.75 14.078124 95.375 20.953124 144.199219 20.382812 21.292969.003906 42.566406-1.214844 63.71875-3.65625l-18.757812 29.496094 30.589843 22.617187-23.023437 23.246094 24 24.289063-22.128906 22.328124 13.714843 29.414063c-22.589843 2.871094-45.339843 4.296875-68.113281 4.265625zm224-112c0 25.886719-31.65625 51.457031-84.679688 68.382812-21.289062 6.617188-43.089843 11.433594-65.183593 14.402344l-.535157-1.105468 25.503907-25.679688-24.058594-24.304688 24.890625-25.128906-33.472656-24.726562 18.039062-28.351563c20.21875-3.113281 40.171875-7.75 59.6875-13.871093 36.746094-11.730469 63.945313-27.496094 79.808594-45.546876zm0 0"/><path d="m240 136c42.398438 0 88-10.015625 88-32s-45.601562-32-88-32-88 10.015625-88 32 45.601562 32 88 32zm0-48c46.398438 0 70.398438 11.480469 72 16-1.601562 4.519531-25.601562 16-72 16-46.808594 0-70.792969-11.679688-72-15.878906 1.207031-4.441406 25.191406-16.121094 72-16.121094zm0 0"/></g></svg>