<svg height="480pt" viewBox="0 0 480 480" width="480pt" xmlns="http://www.w3.org/2000/svg"><path d="m168 472v-376h-128v376zm0 0" fill="#9bc9ff"/><path d="m216 256h48v32h-48zm0 0" fill="#9bc9ff"/><path d="m296 256h48v32h-48zm0 0" fill="#9bc9ff"/><path d="m376 256h48v32h-48zm0 0" fill="#9bc9ff"/><path d="m216 320h48v32h-48zm0 0" fill="#9bc9ff"/><path d="m296 320h48v32h-48zm0 0" fill="#9bc9ff"/><path d="m376 320h48v32h-48zm0 0" fill="#9bc9ff"/><path d="m216 384h48v32h-48zm0 0" fill="#9bc9ff"/><path d="m296 384h48v32h-48zm0 0" fill="#9bc9ff"/><path d="m376 384h48v32h-48zm0 0" fill="#9bc9ff"/><path d="m216 160h208v48h-208zm0 0" fill="#9bc9ff"/><g fill="#1e81ce"><path d="m480 120h-304v-32h-128v-88h-16v120h-32v336h32v24h144v-24h304zm-464 16h16v304h-16zm144 328h-112v-360h112zm304-24h-288v-304h288zm0 0"/><path d="m208 296h64v-48h-64zm16-32h32v16h-32zm0 0"/><path d="m288 296h64v-48h-64zm16-32h32v16h-32zm0 0"/><path d="m368 296h64v-48h-64zm16-32h32v16h-32zm0 0"/><path d="m208 360h64v-48h-64zm16-32h32v16h-32zm0 0"/><path d="m288 360h64v-48h-64zm16-32h32v16h-32zm0 0"/><path d="m368 360h64v-48h-64zm16-32h32v16h-32zm0 0"/><path d="m208 424h64v-48h-64zm16-32h32v16h-32zm0 0"/><path d="m288 424h64v-48h-64zm16-32h32v16h-32zm0 0"/><path d="m368 424h64v-48h-64zm16-32h32v16h-32zm0 0"/><path d="m432 152h-224v64h224zm-16 48h-192v-32h192zm0 0"/><path d="m192 224h224v16h-224zm0 0"/><path d="m432 224h16v16h-16zm0 0"/></g></svg>