<svg height="480pt" viewBox="-100 0 480 480" width="480pt" xmlns="http://www.w3.org/2000/svg"><g fill="#9bc9ff"><path d="m79.996094 8h96v80h-96zm0 0"/><path d="m201.492188 145.28125-9.496094-57.28125h-128l-8 56h.21875c43.144531-32.46875 102.710937-31.945312 145.277344 1.28125zm0 0"/><path d="m56.214844 336h-.21875l8 56h128l9.523437-57.28125c-42.570312 33.226562-102.136719 33.75-145.28125 1.28125zm0 0"/><path d="m79.996094 392h96v80h-96zm0 0"/></g><path d="m127.996094 136c-57.4375 0-104 46.5625-104 104s46.5625 104 104 104 104-46.5625 104-104c-.066406-57.410156-46.589844-103.933594-104-104zm0 192c-48.597656 0-88-39.398438-88-88s39.402344-88 88-88c48.601562 0 88 39.398438 88 88-.054688 48.578125-39.421875 87.941406-88 88zm0 0" fill="#1e81ce"/><path d="m263.996094 216h-10.335938c-5.648437-29.503906-21.492187-56.082031-44.757812-75.089844l-10.121094-60.910156h-14.785156v-80h-112v80h-14.933594l-8.554688 59.855469c-30.636718 24.203125-48.507812 61.101562-48.507812 100.144531s17.871094 75.941406 48.507812 100.144531l8.554688 59.855469h14.933594v80h112v-80h14.785156l10.121094-60.910156c23.265625-19.007813 39.109375-45.585938 44.757812-75.089844h10.335938c8.839844 0 16-7.164062 16-16v-16c0-8.835938-7.160156-16-16-16zm-176-200h80v64h-80zm-17.0625 80h114.28125l5.398437 32.480469c-38.492187-21.75-85.511719-21.980469-124.214843-.609375zm97.0625 368h-80v-64h80zm17.21875-80h-114.28125l-4.535156-31.871094c38.707031 21.375 85.734374 21.148438 124.230468-.609375zm-57.21875-32c-61.855469 0-112-50.144531-112-112s50.144531-112 112-112c61.859375 0 112 50.144531 112 112-.066406 61.828125-50.167969 111.933594-112 112zm136-104h-8.40625c.167968-2.65625.40625-5.296875.40625-8s-.238282-5.34375-.40625-8h8.40625zm0 0" fill="#1e81ce"/><path d="m119.996094 236.6875-29.65625 29.65625 11.3125 11.3125 34.34375-34.34375v-75.3125h-16zm0 0" fill="#1e81ce"/></svg>