<svg height="480pt" viewBox="0 -31 480 479" width="480pt" xmlns="http://www.w3.org/2000/svg"><path d="m8 8.5v224h464v-224zm96 176c0 8.835938-7.164062 16-16 16h-32c-8.835938 0-16-7.164062-16-16v-32c0-8.835938 7.164062-16 16-16h32c8.835938 0 16 7.164062 16 16zm0-96c0 8.835938-7.164062 16-16 16h-32c-8.835938 0-16-7.164062-16-16v-32c0-8.835938 7.164062-16 16-16h32c8.835938 0 16 7.164062 16 16zm112 96c0 8.835938-7.164062 16-16 16h-32c-8.835938 0-16-7.164062-16-16v-32c0-8.835938 7.164062-16 16-16h32c8.835938 0 16 7.164062 16 16zm0-96c0 8.835938-7.164062 16-16 16h-32c-8.835938 0-16-7.164062-16-16v-32c0-8.835938 7.164062-16 16-16h32c8.835938 0 16 7.164062 16 16zm112 96c0 8.835938-7.164062 16-16 16h-32c-8.835938 0-16-7.164062-16-16v-32c0-8.835938 7.164062-16 16-16h32c8.835938 0 16 7.164062 16 16zm0-96c0 8.835938-7.164062 16-16 16h-32c-8.835938 0-16-7.164062-16-16v-32c0-8.835938 7.164062-16 16-16h32c8.835938 0 16 7.164062 16 16zm112 96c0 8.835938-7.164062 16-16 16h-32c-8.835938 0-16-7.164062-16-16v-32c0-8.835938 7.164062-16 16-16h32c8.835938 0 16 7.164062 16 16zm0-96c0 8.835938-7.164062 16-16 16h-32c-8.835938 0-16-7.164062-16-16v-32c0-8.835938 7.164062-16 16-16h32c8.835938 0 16 7.164062 16 16zm0 0" fill="#9bc9ff"/><path d="m56 40.5h32c8.835938 0 16 7.164062 16 16v32c0 8.835938-7.164062 16-16 16h-32c-8.835938 0-16-7.164062-16-16v-32c0-8.835938 7.164062-16 16-16zm0 0" fill="#9bc9ff"/><path d="m280 40.5h32c8.835938 0 16 7.164062 16 16v32c0 8.835938-7.164062 16-16 16h-32c-8.835938 0-16-7.164062-16-16v-32c0-8.835938 7.164062-16 16-16zm0 0" fill="#9bc9ff"/><path d="m168 136.5h32c8.835938 0 16 7.164062 16 16v32c0 8.835938-7.164062 16-16 16h-32c-8.835938 0-16-7.164062-16-16v-32c0-8.835938 7.164062-16 16-16zm0 0" fill="#9bc9ff"/><path d="m392 136.5h32c8.835938 0 16 7.164062 16 16v32c0 8.835938-7.164062 16-16 16h-32c-8.835938 0-16-7.164062-16-16v-32c0-8.835938 7.164062-16 16-16zm0 0" fill="#9bc9ff"/><g fill="#1e81ce"><path d="m0 .5v416h480v-416zm464 400h-448v-160h448zm-448-176v-208h448v208zm0 0"/><path d="m200 32.5h-32c-13.253906 0-24 10.746094-24 24v32c0 13.253906 10.746094 24 24 24h32c13.253906 0 24-10.746094 24-24v-32c0-13.253906-10.746094-24-24-24zm8 56c0 4.417969-3.582031 8-8 8h-32c-4.417969 0-8-3.582031-8-8v-32c0-4.417969 3.582031-8 8-8h32c4.417969 0 8 3.582031 8 8zm0 0"/><path d="m88 32.5h-32c-13.253906 0-24 10.746094-24 24v32c0 13.253906 10.746094 24 24 24h32c13.253906 0 24-10.746094 24-24v-32c0-13.253906-10.746094-24-24-24zm8 56c0 4.417969-3.582031 8-8 8h-32c-4.417969 0-8-3.582031-8-8v-32c0-4.417969 3.582031-8 8-8h32c4.417969 0 8 3.582031 8 8zm0 0"/><path d="m312 32.5h-32c-13.253906 0-24 10.746094-24 24v32c0 13.253906 10.746094 24 24 24h32c13.253906 0 24-10.746094 24-24v-32c0-13.253906-10.746094-24-24-24zm8 56c0 4.417969-3.582031 8-8 8h-32c-4.417969 0-8-3.582031-8-8v-32c0-4.417969 3.582031-8 8-8h32c4.417969 0 8 3.582031 8 8zm0 0"/><path d="m424 32.5h-32c-13.253906 0-24 10.746094-24 24v32c0 13.253906 10.746094 24 24 24h32c13.253906 0 24-10.746094 24-24v-32c0-13.253906-10.746094-24-24-24zm8 56c0 4.417969-3.582031 8-8 8h-32c-4.417969 0-8-3.582031-8-8v-32c0-4.417969 3.582031-8 8-8h32c4.417969 0 8 3.582031 8 8zm0 0"/><path d="m200 128.5h-32c-13.253906 0-24 10.746094-24 24v32c0 13.253906 10.746094 24 24 24h32c13.253906 0 24-10.746094 24-24v-32c0-13.253906-10.746094-24-24-24zm8 56c0 4.417969-3.582031 8-8 8h-32c-4.417969 0-8-3.582031-8-8v-32c0-4.417969 3.582031-8 8-8h32c4.417969 0 8 3.582031 8 8zm0 0"/><path d="m88 128.5h-32c-13.253906 0-24 10.746094-24 24v32c0 13.253906 10.746094 24 24 24h32c13.253906 0 24-10.746094 24-24v-32c0-13.253906-10.746094-24-24-24zm8 56c0 4.417969-3.582031 8-8 8h-32c-4.417969 0-8-3.582031-8-8v-32c0-4.417969 3.582031-8 8-8h32c4.417969 0 8 3.582031 8 8zm0 0"/><path d="m312 128.5h-32c-13.253906 0-24 10.746094-24 24v32c0 13.253906 10.746094 24 24 24h32c13.253906 0 24-10.746094 24-24v-32c0-13.253906-10.746094-24-24-24zm8 56c0 4.417969-3.582031 8-8 8h-32c-4.417969 0-8-3.582031-8-8v-32c0-4.417969 3.582031-8 8-8h32c4.417969 0 8 3.582031 8 8zm0 0"/><path d="m424 128.5h-32c-13.253906 0-24 10.746094-24 24v32c0 13.253906 10.746094 24 24 24h32c13.253906 0 24-10.746094 24-24v-32c0-13.253906-10.746094-24-24-24zm8 56c0 4.417969-3.582031 8-8 8h-32c-4.417969 0-8-3.582031-8-8v-32c0-4.417969 3.582031-8 8-8h32c4.417969 0 8 3.582031 8 8zm0 0"/><path d="m432 328.5h-80v-56h-16v56h-192v-56h-16v56h-80v16h384zm0 0"/></g></svg>