<?xml version="1.0" encoding="iso-8859-1"?>
<!-- Generator: Adobe Illustrator 19.0.0, SVG Export Plug-In . SVG Version: 6.00 Build 0)  -->
<svg version="1.1" id="Capa_1" xmlns="http://www.w3.org/2000/svg" xmlns:xlink="http://www.w3.org/1999/xlink" x="0px" y="0px"
	 viewBox="0 0 513.067 513.067" style="enable-background:new 0 0 513.067 513.067;" xml:space="preserve">
<path style="fill:#F3705A;" d="M288.533,470.4c-23.467-134.4-36.267-237.867-36.267-237.867c0-39.467-41.6-71.467-93.867-71.467
	s-93.867,32-93.867,71.467c0,0-12.8,103.467-36.267,237.867H288.533z"/>
<path style="fill:#F7B64C;" d="M229.867,469.333V384c-3.2-1.067-6.4-1.067-8.533-2.133c-11.733-2.133-19.2-12.8-19.2-24.533V339.2
	L158.4,282.667L114.667,339.2v18.133c0,11.733-8.533,21.333-19.2,24.533c-6.4,1.067-12.8,3.2-19.2,4.267v83.2H229.867z"/>
<path style="fill:#415A6B;" d="M113.6,378.667v51.2c11.733,10.667,27.733,17.067,44.8,17.067c14.933,0,28.8-4.267,39.467-12.8
	l14.933-54.4l0,0c50.133,0,91.733,37.333,97.067,86.4l5.333,46.933H0.533l5.333-46.933c5.333-50.133,48-87.467,97.067-87.467H113.6z
	"/>
<path style="fill:#4ABAA5;" d="M172.267,512l25.6-78.933c-11.733,8.533-24.533,12.8-39.467,12.8c-17.067,0-33.067-6.4-44.8-17.067
	l28.8,83.2H172.267z"/>
<g>
	<polygon style="fill:#344A5E;" points="185.067,512 234.133,427.733 216,411.733 239.467,401.067 202.133,357.333 168,512 	"/>
	<polygon style="fill:#344A5E;" points="82.667,427.733 131.733,512 148.8,512 114.667,357.333 77.333,401.067 100.8,411.733 	"/>
</g>
<ellipse style="fill:#FFD15C;" cx="158.4" cy="289.067" rx="64" ry="84.267"/>
<g>
	<path style="fill:#F3705A;" d="M172.267,224c-21.333,4.267-43.733,11.733-57.6,28.8C104,265.6,100.8,283.733,97.6,300.8
		c-8.533,52.267,6.4,110.933,37.333,154.667c-14.933-12.8-28.8-27.733-38.4-44.8c6.4,24.533,18.133,48,35.2,67.2
		c-42.667-20.267-70.4-67.2-73.6-115.2c-2.133-48,0-88.533,23.467-130.133c8.533-14.933,19.2-28.8,33.067-39.467
		c13.867-10.667,32-16,48-13.867c17.067,3.2,33.067,14.933,36.267,32"/>
	<path style="fill:#F3705A;" d="M144.533,224c21.333,4.267,43.733,11.733,57.6,28.8c10.667,12.8,13.867,30.933,17.067,48
		c8.533,52.267-6.4,110.933-37.333,154.667c14.933-12.8,28.8-27.733,38.4-44.8c-6.4,24.533-18.133,48-35.2,67.2
		c43.733-19.2,71.467-67.2,73.6-114.133c2.133-48,0-88.533-23.467-130.133c-8.533-14.933-19.2-28.8-33.067-39.467
		c-13.867-10.667-32-16-48-13.867c-17.067,3.2-33.067,14.933-36.267,32"/>
</g>
<path style="fill:#8AD7F8;" d="M285.333,297.6v-72.533c-32-23.467-52.267-58.667-52.267-98.133C234.133,56.533,296,0,372.8,0
	s139.733,56.533,139.733,126.933S449.6,253.867,372.8,253.867L285.333,297.6z"/>
<g>
	<circle style="fill:#FFFFFF;" cx="298.133" cy="126.933" r="24.533"/>
	<circle style="fill:#FFFFFF;" cx="372.8" cy="126.933" r="24.533"/>
	<circle style="fill:#FFFFFF;" cx="448.533" cy="126.933" r="24.533"/>
</g>
<g>
</g>
<g>
</g>
<g>
</g>
<g>
</g>
<g>
</g>
<g>
</g>
<g>
</g>
<g>
</g>
<g>
</g>
<g>
</g>
<g>
</g>
<g>
</g>
<g>
</g>
<g>
</g>
<g>
</g>
</svg>
