<?xml version="1.0" encoding="iso-8859-1"?>
<!-- Generator: Adobe Illustrator 19.0.0, SVG Export Plug-In . SVG Version: 6.00 Build 0)  -->
<svg version="1.1" id="Capa_1" xmlns="http://www.w3.org/2000/svg" xmlns:xlink="http://www.w3.org/1999/xlink" x="0px" y="0px"
	 viewBox="0 0 514.133 514.133" style="enable-background:new 0 0 514.133 514.133;" xml:space="preserve">
<path style="fill:#415A6B;" d="M256,227.779c-12.8,0-22.4,9.6-22.4,22.4v13.867c0,51.2-67.2,94.933-122.667,94.933
	C58.667,358.979,16,316.312,16,264.046v-1.067c0-8.533-4.267-17.067-10.667-22.4c-2.133-1.067-3.2-2.133-5.333-3.2v-37.333
	c13.867-1.067,26.667-6.4,37.333-16c33.067-27.733,89.6-48,161.067,0c16,10.667,34.133,16,53.333,16H262.4
	c19.2,0,37.333-5.333,53.333-16c70.4-48,128-26.667,161.067,0c10.667,8.533,23.467,13.867,37.333,16v37.333
	c-1.067,1.067-3.2,2.133-4.267,3.2c-7.467,5.333-11.733,13.867-11.733,22.4v1.067c0,52.267-42.667,94.933-94.933,94.933
	c-55.467,0-122.667-43.733-122.667-94.933v-13.867C278.4,237.379,268.8,227.779,256,227.779L256,227.779z"/>
<path style="fill:#8AD7F8;" d="M110.933,344.046c-43.733,0-80-36.267-80-80s36.267-80,80-80c46.933,0,106.667,37.333,106.667,80
	C218.667,306.712,158.933,344.046,110.933,344.046z"/>
<g>
	<path style="fill:#55C0EB;" d="M59.733,280.046L59.733,280.046c-2.133-3.2-2.133-7.467,0-9.6l62.933-59.733
		c3.2-2.133,7.467-2.133,9.6,0l0,0c2.133,3.2,2.133,7.467,0,9.6l-62.933,59.733C66.133,282.179,61.867,282.179,59.733,280.046z"/>
	<path style="fill:#55C0EB;" d="M94.933,278.979L94.933,278.979c-2.133-3.2-2.133-7.467,0-9.6l26.667-25.6
		c3.2-2.133,7.467-2.133,9.6,0l0,0c2.133,3.2,2.133,7.467,0,9.6l-26.667,25.6C101.333,282.179,97.067,282.179,94.933,278.979z"/>
</g>
<path style="fill:#8AD7F8;" d="M401.067,344.046c43.733,0,80-36.267,80-80s-36.267-80-80-80c-46.933,0-106.667,37.333-106.667,80
	C293.333,306.712,353.067,344.046,401.067,344.046z"/>
<g>
	<path style="fill:#55C0EB;" d="M452.267,280.046L452.267,280.046c2.133-3.2,2.133-7.467,0-9.6l-62.933-59.733
		c-3.2-2.133-7.467-2.133-9.6,0l0,0c-2.133,3.2-2.133,7.467,0,9.6l62.933,59.733C445.867,282.179,450.133,282.179,452.267,280.046z"
		/>
	<path style="fill:#55C0EB;" d="M417.067,278.979L417.067,278.979c2.133-3.2,2.133-7.467,0-9.6l-26.667-25.6
		c-3.2-2.133-7.467-2.133-9.6,0l0,0c-2.133,3.2-2.133,7.467,0,9.6l26.667,25.6C410.667,282.179,414.933,282.179,417.067,278.979z"/>
</g>
<g>
</g>
<g>
</g>
<g>
</g>
<g>
</g>
<g>
</g>
<g>
</g>
<g>
</g>
<g>
</g>
<g>
</g>
<g>
</g>
<g>
</g>
<g>
</g>
<g>
</g>
<g>
</g>
<g>
</g>
</svg>
