<?xml version="1.0" encoding="iso-8859-1"?>
<!-- Generator: Adobe Illustrator 19.0.0, SVG Export Plug-In . SVG Version: 6.00 Build 0)  -->
<svg version="1.1" id="Capa_1" xmlns="http://www.w3.org/2000/svg" xmlns:xlink="http://www.w3.org/1999/xlink" x="0px" y="0px"
	 viewBox="0 0 513.438 513.438" style="enable-background:new 0 0 513.438 513.438;" xml:space="preserve">
<rect x="39.119" y="338.505" style="fill:#FFD15C;" width="435.2" height="174.933"/>
<rect x="39.119" y="338.505" style="fill:#F7B64C;" width="435.2" height="21.333"/>
<path style="fill:#FFD15C;" d="M491.386,294.772H22.053c-11.733,0-21.333,9.6-21.333,21.333l0,0c0,11.733,9.6,21.333,21.333,21.333
	h469.333c11.733,0,21.333-9.6,21.333-21.333l0,0C512.719,304.372,503.119,294.772,491.386,294.772z"/>
<path style="fill:#F7B64C;" d="M392.186,294.772v-43.733c0-16-10.667-30.933-25.6-36.267c-19.2-6.4-38.4-11.733-58.667-13.867
	c-13.867-2.133-24.533-13.867-24.533-27.733v-38.4h-54.4v37.333c0,13.867-10.667,25.6-24.533,27.733
	c-20.267,3.2-39.467,7.467-58.667,13.867c-16,5.333-25.6,20.267-25.6,36.267v43.733h272V294.772z"/>
<path style="fill:#4ABAA5;" d="M291.919,294.772c5.333-33.067,6.4-65.067,7.467-83.2c-6.4,11.733-25.6,41.6-41.6,41.6
	s-35.2-29.867-41.6-41.6c1.067,19.2,2.133,50.133,7.467,83.2H291.919z"/>
<g>
	<path style="fill:#415A6B;" d="M247.119,294.772l-25.6-104.533c-4.267,5.333-11.733,9.6-19.2,10.667
		c-19.2,3.2-37.333,7.467-56.533,13.867c-14.933,5.333-25.6,20.267-25.6,36.267v43.733H247.119z"/>
	<path style="fill:#415A6B;" d="M392.186,294.772v-43.733c0-16-10.667-30.933-25.6-36.267c-18.133-6.4-37.333-10.667-56.533-13.867
		c-7.467-1.067-13.867-5.333-19.2-10.667l-25.6,104.533H392.186z"/>
</g>
<path style="fill:#F7B64C;" d="M215.119,164.638c3.2,11.733,5.333,23.467,8.533,35.2"/>
<ellipse style="fill:#FFD15C;" cx="256.719" cy="120.905" rx="55.467" ry="70.4"/>
<path style="fill:#F3705A;" d="M348.452,206.238c-2.133,11.733-14.933,20.267-26.667,19.2c-11.733-1.067-22.4-9.6-27.733-20.267
	c-5.333-10.667-7.467-22.4-5.333-34.133c2.133-9.6,6.4-18.133,9.6-27.733c5.333-13.867,7.467-28.8,5.333-42.667
	c0-3.2-1.067-10.667-2.133-13.867c-29.867,14.933-59.733,14.933-89.6,0c-1.067,3.2-2.133,10.667-2.133,13.867
	c-1.067,14.933,0,29.867,5.333,42.667c3.2,9.6,8.533,18.133,9.6,27.733c2.133,11.733,0,23.467-5.333,34.133
	c-6.4,10.667-16,19.2-27.733,20.267s-24.533-7.467-26.667-19.2c5.333,5.333,16,5.333,22.4,0c6.4-5.333,9.6-13.867,9.6-21.333
	c0-8.533-3.2-16-6.4-23.467c-3.2-7.467-7.467-13.867-11.733-21.333c-7.467-16-8.533-35.2-7.467-52.267
	c2.133-19.2,6.4-38.4,17.067-55.467c10.667-16,27.733-28.8,46.933-32c7.467-1.067,18.133,0,22.4,5.333
	c3.2-4.267,13.867-5.333,21.333-4.267c19.2,3.2,36.267,16,46.933,32c10.667,16,16,35.2,17.067,55.467
	c1.067,18.133,0,36.267-7.467,52.267c-3.2,7.467-7.467,13.867-11.733,21.333c-3.2,7.467-6.4,14.933-6.4,23.467
	c0,8.533,3.2,16,9.6,21.333C333.519,211.572,343.119,211.572,348.452,206.238z"/>
<g>
</g>
<g>
</g>
<g>
</g>
<g>
</g>
<g>
</g>
<g>
</g>
<g>
</g>
<g>
</g>
<g>
</g>
<g>
</g>
<g>
</g>
<g>
</g>
<g>
</g>
<g>
</g>
<g>
</g>
</svg>
