<?xml version="1.0" encoding="iso-8859-1"?>
<!-- Generator: Adobe Illustrator 19.0.0, SVG Export Plug-In . SVG Version: 6.00 Build 0)  -->
<svg version="1.1" id="Capa_1" xmlns="http://www.w3.org/2000/svg" xmlns:xlink="http://www.w3.org/1999/xlink" x="0px" y="0px"
	 viewBox="0 0 511.792 511.792" style="enable-background:new 0 0 511.792 511.792;" xml:space="preserve">
<polygon style="fill:#CED6E0;" points="344.533,300.592 254.933,390.192 299.733,434.992 344.533,390.192 "/>
<path style="fill:#F3705A;" d="M429.867,318.725c-29.867-5.333-60.8,4.267-82.133,26.667L236.8,455.258l56.533,56.533L403.2,401.925
	C424.533,379.525,435.2,349.658,429.867,318.725L429.867,318.725z"/>
<rect x="261.278" y="434.866" transform="matrix(-0.7071 0.7071 -0.7071 -0.7071 804.1934 615.5558)" style="fill:#415A6B;" width="26.666" height="78.933"/>
<polygon style="fill:#CED6E0;" points="208,167.258 121.6,167.258 76.8,212.058 119.467,255.792 "/>
<path style="fill:#F3705A;" d="M193.067,81.925c5.333,29.867-4.267,60.8-26.667,82.133L56.533,274.992L0,218.458l109.867-109.867
	C132.267,87.258,162.133,76.592,193.067,81.925L193.067,81.925z"/>
<rect x="24.625" y="197.714" transform="matrix(-0.7071 0.7071 -0.7071 -0.7071 232.5093 378.0511)" style="fill:#415A6B;" width="26.666" height="78.933"/>
<path style="fill:#F3F3F3;" d="M510.933,0.858c-90.667-6.4-180.267,26.667-245.333,91.733l-166.4,166.4l153.6,153.6l167.467-167.467
	C484.267,181.125,517.333,91.525,510.933,0.858z"/>
<path style="fill:#F3705A;" d="M477.867,166.192c25.6-50.133,37.333-107.733,33.067-165.333c-57.6-4.267-115.2,7.467-165.333,33.067
	L477.867,166.192z"/>
<circle style="fill:#415A6B;" cx="310.4" cy="205.658" r="65.067"/>
<circle style="fill:#8AD7F8;" cx="310.4" cy="205.658" r="48"/>
<path style="fill:#FFD15C;" d="M174.933,441.392c6.4-10.667,9.6-23.467,13.867-35.2c4.267-11.733,10.667-24.533,21.333-32
	c1.067-1.067,1.067-1.067,2.133-2.133l-73.6-72.533c-1.067,1.067-1.067,1.067-2.133,2.133c-7.467,10.667-20.267,17.067-32,21.333
	s-23.467,7.467-35.2,13.867c-10.667,6.4-20.267,19.2-20.267,29.867c6.4-10.667,18.133-19.2,29.867-21.333
	C54.4,366.725,73.6,379.525,44.8,406.192c12.8-2.133,23.467-11.733,33.067-21.333s20.267-20.267,33.067-23.467
	c-53.333,53.333-72.533,112-72.533,112s67.2-28.8,112-72.533c-3.2,12.8-13.867,22.4-23.467,33.067
	c-9.6,9.6-20.267,21.333-21.333,33.067c26.667-28.8,39.467-9.6,60.8-34.133c-2.133,11.733-10.667,23.467-21.333,29.867
	C156.8,462.725,168.533,453.125,174.933,441.392z"/>
<path style="fill:#F3705A;" d="M157.867,318.725c-6.4,2.133-12.8,5.333-16,6.4c-11.733,5.333-24.533,10.667-34.133,20.267
	c6.4-6.4,14.933-6.4,22.4-5.333c7.467,1.067,16,2.133,23.467-2.133c-24.533,20.267-43.733,48-53.333,76.8
	c7.467-12.8,21.333-21.333,34.133-28.8s26.667-12.8,38.4-23.467c-2.133,13.867-5.333,27.733-7.467,41.6
	c13.867-12.8,25.6-28.8,34.133-44.8L157.867,318.725z"/>
<g>
</g>
<g>
</g>
<g>
</g>
<g>
</g>
<g>
</g>
<g>
</g>
<g>
</g>
<g>
</g>
<g>
</g>
<g>
</g>
<g>
</g>
<g>
</g>
<g>
</g>
<g>
</g>
<g>
</g>
</svg>
