<?xml version="1.0" encoding="iso-8859-1"?>
<!-- Generator: Adobe Illustrator 19.0.0, SVG Export Plug-In . SVG Version: 6.00 Build 0)  -->
<svg version="1.1" id="Capa_1" xmlns="http://www.w3.org/2000/svg" xmlns:xlink="http://www.w3.org/1999/xlink" x="0px" y="0px"
	 viewBox="0 0 512 512" style="enable-background:new 0 0 512 512;" xml:space="preserve">
<g>
	
		<ellipse transform="matrix(0.1463 -0.9892 0.9892 0.1463 233.6177 492.5384)" style="fill:#FFD15C;" cx="402.179" cy="110.914" rx="22.399" ry="12.799"/>
	
		<ellipse transform="matrix(0.1463 0.9892 -0.9892 0.1463 349.2928 -181.3488)" style="fill:#FFD15C;" cx="279.718" cy="111.701" rx="22.399" ry="12.799"/>
</g>
<g>
	<path style="fill:#344A5E;" d="M290.133,72.533c0,40.533,16,92.8,59.733,92.8s59.733-52.267,59.733-92.8S382.933,0,349.867,0
		S290.133,32,290.133,72.533z"/>
	<path style="fill:#344A5E;" d="M272,70.4c0,32,10.667,74.667,38.4,74.667S348.8,102.4,348.8,70.4s-17.067-58.667-38.4-58.667
		C289.067,12.8,272,38.4,272,70.4z"/>
</g>
<path style="fill:#415A6B;" d="M276.267,200.533l65.067,27.733l65.067-27.733l55.467,18.133c20.267,6.4,35.2,23.467,39.467,44.8
	L512,325.333H170.667l10.667-61.867c4.267-21.333,19.2-38.4,39.467-44.8L276.267,200.533z"/>
<path style="fill:#E8EAE9;" d="M311.467,324.267H371.2l14.933-89.6c0,0,1.067-12.8,2.133-25.6l-46.933,20.267l-45.867-20.267
	c1.067,12.8,2.133,25.6,2.133,25.6L311.467,324.267z"/>
<path style="fill:#55C0EB;" d="M318.933,324.267H364.8l-9.6-57.6l11.733-11.733c0,0-17.067-26.667-26.667-26.667
	S313.6,254.933,313.6,254.933l11.733,11.733L318.933,324.267z"/>
<path style="fill:#F3F3F3;" d="M298.667,171.733c8.533,24.533,24.533,42.667,42.667,57.6c-13.867,9.6-24.533,20.267-30.933,30.933
	L286.933,188.8C291.2,181.333,296.533,172.8,298.667,171.733z"/>
<path style="fill:#344A5E;" d="M286.933,324.267h24.533l-14.933-89.6c0,0-3.2-38.4-3.2-49.067c0-10.667,4.267-13.867,4.267-13.867
	c-5.333-1.067-38.4,56.533-38.4,56.533l20.267,6.4l-22.4,10.667L286.933,324.267z"/>
<path style="fill:#F3F3F3;" d="M384,171.733c-8.533,24.533-24.533,42.667-42.667,57.6c13.867,9.6,24.533,20.267,30.933,30.933
	l23.467-71.467C391.467,181.333,386.133,172.8,384,171.733z"/>
<path style="fill:#344A5E;" d="M388.267,186.667c0,9.6-3.2,49.067-3.2,49.067l-14.933,89.6h24.533l28.8-78.933l-22.4-10.667
	l20.267-6.4c0,0-33.067-57.6-38.4-56.533C384,171.733,388.267,176,388.267,186.667z"/>
<path style="fill:#F7B64C;" d="M298.667,122.667v49.067c8.533,24.533,24.533,42.667,42.667,57.6
	c19.2-14.933,34.133-33.067,42.667-57.6v-49.067H298.667z"/>
<path style="fill:#FFD15C;" d="M400,105.6c2.133,45.867-24.533,84.267-58.667,84.267c-35.2,0-60.8-39.467-58.667-84.267
	c1.067-14.933,4.267-27.733,9.6-38.4c17.067,0,29.867-6.4,37.333-18.133c16,20.267,38.4,35.2,69.333,45.867
	C398.933,93.867,400,101.333,400,105.6z"/>
<polygon style="fill:#4ABAA5;" points="124.8,366.933 200.533,400 277.333,366.933 381.867,413.867 401.067,512 0,512 
	20.267,413.867 "/>
<path style="fill:#E8EAE9;" d="M165.333,512h70.4L252.8,406.4c0,0,1.067-14.933,2.133-29.867L200.533,400l-54.4-23.467
	c1.067,14.933,2.133,29.867,2.133,29.867L165.333,512z"/>
<path style="fill:#415A6B;" d="M173.867,512H227.2l-9.6-67.2l13.867-13.867c0,0-20.267-30.933-30.933-30.933
	c-10.667,0-30.933,30.933-30.933,30.933l13.867,13.867L173.867,512z"/>
<path style="fill:#F3F3F3;" d="M150.4,332.8c10.667,28.8,27.733,50.133,50.133,67.2c-16,11.733-28.8,23.467-36.267,36.267
	L136.533,352C141.867,344.533,148.267,333.867,150.4,332.8z"/>
<path style="fill:#66C6B9;" d="M136.533,512h28.8l-17.067-105.6c0,0-4.267-44.8-4.267-57.6c0-11.733,5.333-17.067,5.333-17.067
	c-6.4-1.067-44.8,66.133-44.8,66.133L128,405.333l-25.6,12.8L136.533,512z"/>
<path style="fill:#F3F3F3;" d="M250.667,332.8C240,361.6,222.933,382.933,200.533,400c16,11.733,28.8,23.467,36.267,36.267
	L264.533,352C260.267,344.533,252.8,333.867,250.667,332.8z"/>
<path style="fill:#66C6B9;" d="M257.067,349.867c0,11.733-4.267,57.6-4.267,57.6L235.733,512h28.8l34.133-92.8l-25.6-12.8
	l23.467-7.467c0,0-38.4-68.267-44.8-66.133C250.667,332.8,257.067,337.067,257.067,349.867z"/>
<path style="fill:#F7B64C;" d="M150.4,276.267V332.8c10.667,28.8,27.733,50.133,50.133,67.2c22.4-17.067,39.467-38.4,50.133-67.2
	v-56.533L150.4,276.267L150.4,276.267z"/>
<g>
	<path style="fill:#FFD15C;" d="M286.933,273.067c-3.2,13.867-12.8,23.467-21.333,21.333c-8.533-2.133-12.8-16-9.6-29.867
		s12.8-22.4,20.267-20.267C284.8,247.467,289.067,260.267,286.933,273.067z"/>
	<path style="fill:#FFD15C;" d="M115.2,273.067c3.2,13.867,12.8,23.467,21.333,21.333c8.533-2.133,12.8-16,9.6-29.867
		c-3.2-13.867-12.8-22.4-20.267-20.267C116.267,247.467,112,260.267,115.2,273.067z"/>
</g>
<path style="fill:#344A5E;" d="M281.6,216.533c0,23.467-1.067,45.867-11.733,70.4L131.2,289.067c-9.6-24.533-10.667-50.133-9.6-70.4
	c1.067-62.933,34.133-82.133,80-82.133C248.533,135.467,282.667,153.6,281.6,216.533z"/>
<path style="fill:#FFD15C;" d="M254.933,190.933c-11.733,16-29.867,26.667-54.4,26.667c-24.533,0-42.667-10.667-54.4-25.6
	c-11.733,18.133-19.2,40.533-19.2,66.133c0,55.467,33.067,100.267,73.6,100.267s73.6-44.8,73.6-100.267
	C274.133,231.467,266.667,208,254.933,190.933z"/>
<g>
</g>
<g>
</g>
<g>
</g>
<g>
</g>
<g>
</g>
<g>
</g>
<g>
</g>
<g>
</g>
<g>
</g>
<g>
</g>
<g>
</g>
<g>
</g>
<g>
</g>
<g>
</g>
<g>
</g>
</svg>
