<?xml version="1.0" encoding="iso-8859-1"?>
<!-- Generator: Adobe Illustrator 19.0.0, SVG Export Plug-In . SVG Version: 6.00 Build 0)  -->
<svg version="1.1" id="Capa_1" xmlns="http://www.w3.org/2000/svg" xmlns:xlink="http://www.w3.org/1999/xlink" x="0px" y="0px"
	 viewBox="0 0 512 512" style="enable-background:new 0 0 512 512;" xml:space="preserve">
<g>
	<path style="fill:#415A6B;" d="M338.133,78.933v166.4h48v21.333h-48v166.4h48V454.4h-58.667c-5.333,0-10.667-4.267-10.667-10.667
		V266.667h-53.333c-6.4,0-10.667-4.267-10.667-10.667c0-5.333,4.267-10.667,10.667-10.667H316.8V68.267
		c0-5.333,5.333-10.667,10.667-10.667h58.667v21.333H338.133z"/>
	<path style="fill:#415A6B;" d="M76.8,269.867l57.6,24.533l57.6-24.533l44.8,19.2c10.667,4.267,18.133,13.867,20.267,25.6
		l11.733,65.067H0l11.733-65.067C13.867,304,21.333,294.4,32,290.133L76.8,269.867z"/>
</g>
<path style="fill:#E8EAE9;" d="M108.8,379.733h53.333l12.8-80c0,0,1.067-11.733,2.133-22.4l-41.6,18.133l-41.6-18.133
	c1.067,11.733,2.133,22.4,2.133,22.4L108.8,379.733z"/>
<path style="fill:#8AD7F8;" d="M115.2,379.733h40.533l-7.467-51.2l10.667-10.667c0,0-14.933-23.467-23.467-23.467
	S112,317.867,112,317.867l10.667,10.667L115.2,379.733z"/>
<path style="fill:#F3F3F3;" d="M97.067,244.267c7.467,21.333,21.333,37.333,38.4,51.2C123.733,304,114.133,313.6,107.733,323.2
	l-21.333-64C90.667,252.8,94.933,245.333,97.067,244.267z"/>
<path style="fill:#344A5E;" d="M86.4,379.733h21.333l-11.733-80c0,0-3.2-34.133-3.2-43.733c0-8.533,4.267-12.8,4.267-12.8
	c-5.333-1.067-34.133,50.133-34.133,50.133L80,298.667l-19.2,10.667L86.4,379.733z"/>
<path style="fill:#F3F3F3;" d="M172.8,244.267c-7.467,21.333-21.333,37.333-38.4,51.2C146.133,304,155.733,313.6,162.133,323.2
	l21.333-64C180.267,252.8,174.933,245.333,172.8,244.267z"/>
<path style="fill:#344A5E;" d="M177.067,257.067c0,8.533-3.2,43.733-3.2,43.733l-12.8,80H182.4l25.6-70.4l-19.2-9.6l17.067-5.333
	c0,0-28.8-51.2-34.133-50.133C172.8,244.267,177.067,247.467,177.067,257.067z"/>
<path style="fill:#F7B64C;" d="M97.067,201.6v42.667c7.467,21.333,21.333,37.333,38.4,51.2c17.067-12.8,29.867-29.867,38.4-51.2
	V201.6L97.067,201.6L97.067,201.6z"/>
<g>
	<path style="fill:#FFD15C;" d="M200.533,199.467c-2.133,10.667-9.6,18.133-16,16c-6.4-2.133-9.6-11.733-7.467-22.4
		c2.133-10.667,9.6-17.067,16-14.933C198.4,179.2,202.667,188.8,200.533,199.467z"/>
	<path style="fill:#FFD15C;" d="M70.4,199.467c2.133,10.667,9.6,18.133,16,16c6.4-2.133,9.6-11.733,7.467-22.4
		c-2.133-10.667-9.6-17.067-16-14.933C71.467,179.2,68.267,188.8,70.4,199.467z"/>
</g>
<path style="fill:#344A5E;" d="M196.267,155.733c0,17.067-1.067,34.133-8.533,53.333L83.2,210.133
	C75.733,192,74.667,172.8,74.667,157.867c1.067-48,25.6-62.933,60.8-62.933C171.733,94.933,197.333,107.733,196.267,155.733z"/>
<path style="fill:#FFD15C;" d="M148.267,139.733c-13.867,12.8-33.067,21.333-57.6,21.333c-2.133,0-5.333,0-7.467,0
	c-2.133,8.533-3.2,17.067-3.2,26.667c0,41.6,24.533,75.733,55.467,75.733s55.467-34.133,55.467-75.733
	c0-10.667-2.133-20.267-4.267-29.867C170.667,154.667,157.867,148.267,148.267,139.733z"/>
<path style="fill:#F3705A;" d="M501.333,135.467H387.2c-6.4,0-10.667-4.267-10.667-10.667V10.667C376.533,4.267,380.8,0,387.2,0
	h114.133C507.733,0,512,4.267,512,10.667V124.8C512,131.2,507.733,135.467,501.333,135.467z"/>
<rect x="397.867" y="21.333" style="fill:#F05540;" width="92.8" height="92.8"/>
<path style="fill:#FFD15C;" d="M501.333,512H387.2c-6.4,0-10.667-4.267-10.667-10.667V387.2c0-6.4,4.267-10.667,10.667-10.667
	h114.133c6.4,0,10.667,4.267,10.667,10.667v114.133C512,507.733,507.733,512,501.333,512z"/>
<rect x="397.867" y="397.867" style="fill:#F7B64C;" width="92.8" height="92.8"/>
<path style="fill:#8AD7F8;" d="M501.333,324.267H387.2c-6.4,0-10.667-4.267-10.667-10.667V198.4c0-6.4,4.267-10.667,10.667-10.667
	h114.133c6.4,0,10.667,4.267,10.667,10.667v114.133C512,318.933,507.733,324.267,501.333,324.267z"/>
<rect x="397.867" y="209.067" style="fill:#55C0EB;" width="92.8" height="92.8"/>
<g>
</g>
<g>
</g>
<g>
</g>
<g>
</g>
<g>
</g>
<g>
</g>
<g>
</g>
<g>
</g>
<g>
</g>
<g>
</g>
<g>
</g>
<g>
</g>
<g>
</g>
<g>
</g>
<g>
</g>
</svg>
