<?xml version="1.0" encoding="iso-8859-1"?>
<!-- Generator: Adobe Illustrator 19.0.0, SVG Export Plug-In . SVG Version: 6.00 Build 0)  -->
<svg version="1.1" id="Capa_1" xmlns="http://www.w3.org/2000/svg" xmlns:xlink="http://www.w3.org/1999/xlink" x="0px" y="0px"
	 viewBox="0 0 512 512" style="enable-background:new 0 0 512 512;" xml:space="preserve">
<path style="fill:#F3F3F3;" d="M476.8,107.733v382.933c0,11.733-9.6,21.333-21.333,21.333H56.533C44.8,512,35.2,502.4,35.2,490.667
	V107.733H476.8z"/>
<path style="fill:#F3705A;" d="M476.8,107.733v-86.4C476.8,9.6,467.2,0,455.467,0H56.533C44.8,0,35.2,9.6,35.2,21.333v86.4H476.8z"
	/>
<g>
	<circle style="fill:#FFFFFF;" cx="419.2" cy="53.333" r="19.2"/>
	<circle style="fill:#FFFFFF;" cx="357.333" cy="53.333" r="19.2"/>
	<circle style="fill:#FFFFFF;" cx="296.533" cy="53.333" r="19.2"/>
</g>
<g>
	<rect x="77.867" y="316.8" style="fill:#CED6E0;" width="355.2" height="24.533"/>
	<rect x="77.867" y="380.8" style="fill:#CED6E0;" width="355.2" height="24.533"/>
	<rect x="77.867" y="444.8" style="fill:#CED6E0;" width="210.133" height="24.533"/>
</g>
<rect x="77.867" y="150.4" style="fill:#8AD7F8;" width="151.467" height="135.467"/>
<rect x="281.6" y="150.4" style="fill:#FFD15C;" width="151.467" height="135.467"/>
<g>
</g>
<g>
</g>
<g>
</g>
<g>
</g>
<g>
</g>
<g>
</g>
<g>
</g>
<g>
</g>
<g>
</g>
<g>
</g>
<g>
</g>
<g>
</g>
<g>
</g>
<g>
</g>
<g>
</g>
</svg>
