<?xml version="1.0" encoding="iso-8859-1"?>
<!-- Generator: Adobe Illustrator 19.0.0, SVG Export Plug-In . SVG Version: 6.00 Build 0)  -->
<svg version="1.1" id="Capa_1" xmlns="http://www.w3.org/2000/svg" xmlns:xlink="http://www.w3.org/1999/xlink" x="0px" y="0px"
	 viewBox="0 0 512 512" style="enable-background:new 0 0 512 512;" xml:space="preserve">
<polygon style="fill:#E8EAE9;" points="512,446.933 512,485.333 0,485.333 0,446.933 105.6,446.933 105.6,254.933 144,254.933 
	144,446.933 368,446.933 368,254.933 406.4,254.933 406.4,446.933 "/>
<path style="fill:#344A5E;" d="M173.867,134.4c7.467-19.2,11.733-39.467,11.733-52.267c0-40.533-27.733-60.8-60.8-60.8
	c-33.067,0-60.8,20.267-60.8,60.8C64,96,68.267,115.2,75.733,134.4H173.867z"/>
<path style="fill:#415A6B;" d="M249.6,264.533l-9.6-45.867c-2.133-9.6-8.533-17.067-17.067-20.267
	c-66.133-25.6-131.2-25.6-197.333,0c-8.533,3.2-14.933,10.667-17.067,20.267L0,264.533H249.6z"/>
<polygon style="fill:#CED6E0;" points="145.067,264.533 161.067,210.133 88.533,210.133 105.6,264.533 "/>
<g>
	<polygon style="fill:#F3705A;" points="133.333,234.667 141.867,226.133 124.8,210.133 108.8,226.133 116.267,234.667 	"/>
	<polygon style="fill:#F3705A;" points="140.8,264.533 133.333,234.667 116.267,234.667 109.867,264.533 	"/>
</g>
<g>
	<polygon style="fill:#F3F3F3;" points="124.8,210.133 161.067,163.2 169.6,180.267 147.2,234.667 	"/>
	<polygon style="fill:#F3F3F3;" points="124.8,210.133 88.533,163.2 80,180.267 103.467,234.667 	"/>
</g>
<polygon style="fill:#F7B64C;" points="88.533,149.333 124.8,103.467 161.067,149.333 161.067,163.2 124.8,210.133 88.533,163.2 "/>
<g>
	<polygon style="fill:#344A5E;" points="163.2,264.533 187.733,222.933 172.8,210.133 192,200.533 164.267,169.6 140.8,264.533 	"/>
	<polygon style="fill:#344A5E;" points="61.867,222.933 86.4,264.533 108.8,264.533 86.4,169.6 58.667,200.533 77.867,210.133 	"/>
</g>
<g>
	<path style="fill:#FFD15C;" d="M173.867,73.6c4.267,9.6,6.4,20.267,6.4,32c0,38.4-24.533,70.4-54.4,70.4s-54.4-30.933-54.4-70.4
		c-1.067-9.6,0-18.133,3.2-26.667C98.133,56.533,112,99.2,173.867,73.6z"/>
	
		<ellipse transform="matrix(0.1176 -0.9931 0.9931 0.1176 40.6725 280.5255)" style="fill:#FFD15C;" cx="178.188" cy="117.376" rx="14.934" ry="9.6"/>
	
		<ellipse transform="matrix(0.1175 0.9931 -0.9931 0.1175 181.0983 32.9029)" style="fill:#FFD15C;" cx="72.036" cy="118.346" rx="14.934" ry="9.6"/>
</g>
<path style="fill:#344A5E;" d="M436.267,134.4C443.733,115.2,448,96,448,82.133c0-40.533-27.733-60.8-60.8-60.8
	c-34.133,0-60.8,20.267-60.8,60.8c0,13.867,4.267,33.067,11.733,52.267H436.267z"/>
<polygon style="fill:#55C0EB;" points="387.2,169.6 500.267,195.2 512,264.533 262.4,264.533 274.133,195.2 274.133,195.2 "/>
<polygon style="fill:#CED6E0;" points="406.4,264.533 423.467,210.133 350.933,210.133 366.933,264.533 "/>
<g>
	<polygon style="fill:#415A6B;" points="395.733,234.667 403.2,226.133 387.2,210.133 370.133,226.133 378.667,234.667 	"/>
	<polygon style="fill:#415A6B;" points="402.133,264.533 395.733,234.667 378.667,234.667 371.2,264.533 	"/>
</g>
<g>
	<polygon style="fill:#F3F3F3;" points="387.2,210.133 423.467,163.2 432,180.267 408.533,234.667 	"/>
	<polygon style="fill:#F3F3F3;" points="387.2,210.133 350.933,163.2 342.4,180.267 364.8,234.667 	"/>
</g>
<polygon style="fill:#F7B64C;" points="350.933,149.333 387.2,103.467 423.467,149.333 423.467,163.2 387.2,210.133 350.933,163.2 
	"/>
<g>
	<polygon style="fill:#8AD7F8;" points="425.6,264.533 450.133,222.933 434.133,210.133 453.333,200.533 425.6,169.6 403.2,264.533 
			"/>
	<polygon style="fill:#8AD7F8;" points="324.267,222.933 348.8,264.533 371.2,264.533 347.733,169.6 320,200.533 339.2,210.133 	"/>
</g>
<g>
	<path style="fill:#FFD15C;" d="M435.2,73.6c4.267,9.6,6.4,20.267,6.4,32c0,38.4-24.533,70.4-54.4,70.4
		c-29.867,0-54.4-30.933-54.4-70.4c0-9.6,1.067-18.133,4.267-26.667C356.267,99.2,403.2,96,435.2,73.6z"/>
	
		<ellipse transform="matrix(0.1176 -0.9931 0.9931 0.1176 271.3434 540.0211)" style="fill:#FFD15C;" cx="439.543" cy="117.325" rx="14.934" ry="9.6"/>
	
		<ellipse transform="matrix(0.1176 0.9931 -0.9931 0.1176 412.6569 -227.7597)" style="fill:#FFD15C;" cx="334.489" cy="118.323" rx="14.934" ry="9.6"/>
</g>
<g>
	<polygon style="fill:#F3705A;" points="411.733,441.6 411.733,420.267 362.667,420.267 362.667,441.6 336,441.6 336,490.667 
		438.4,490.667 438.4,441.6 	"/>
	<polygon style="fill:#F3705A;" points="170.667,441.6 149.333,441.6 149.333,420.267 100.267,420.267 100.267,441.6 73.6,441.6 
		73.6,490.667 170.667,490.667 	"/>
</g>
<g>
</g>
<g>
</g>
<g>
</g>
<g>
</g>
<g>
</g>
<g>
</g>
<g>
</g>
<g>
</g>
<g>
</g>
<g>
</g>
<g>
</g>
<g>
</g>
<g>
</g>
<g>
</g>
<g>
</g>
</svg>
