<?xml version="1.0" encoding="iso-8859-1"?>
<!-- Generator: Adobe Illustrator 19.0.0, SVG Export Plug-In . SVG Version: 6.00 Build 0)  -->
<svg version="1.1" id="Capa_1" xmlns="http://www.w3.org/2000/svg" xmlns:xlink="http://www.w3.org/1999/xlink" x="0px" y="0px"
	 viewBox="0 0 512 512" style="enable-background:new 0 0 512 512;" xml:space="preserve">
<g>
	<path style="fill:#344A5E;" d="M210.133,112V65.067h91.733V112H339.2V57.6c0-16-12.8-28.8-28.8-28.8H202.667
		c-16,0-28.8,12.8-28.8,28.8V112H210.133z"/>
	<path style="fill:#344A5E;" d="M485.333,112H26.667C11.733,112,0,123.733,0,138.667v317.867C0,471.467,11.733,483.2,26.667,483.2
		h458.667c14.933,0,26.667-11.733,26.667-26.667V138.667C512,123.733,500.267,112,485.333,112z"/>
</g>
<path style="fill:#415A6B;" d="M512,265.6V138.667C512,123.733,500.267,112,485.333,112H26.667C11.733,112,0,123.733,0,138.667
	V265.6C170.667,366.933,341.333,366.933,512,265.6z"/>
<path style="fill:#F3F3F3;" d="M279.467,301.867h-46.933c-3.2,0-5.333,2.133-5.333,5.333v68.267c0,3.2,2.133,5.333,5.333,5.333
	h46.933c3.2,0,5.333-2.133,5.333-5.333V307.2C284.8,304,282.667,301.867,279.467,301.867z"/>
<g>
</g>
<g>
</g>
<g>
</g>
<g>
</g>
<g>
</g>
<g>
</g>
<g>
</g>
<g>
</g>
<g>
</g>
<g>
</g>
<g>
</g>
<g>
</g>
<g>
</g>
<g>
</g>
<g>
</g>
</svg>
