<?xml version="1.0" encoding="iso-8859-1"?>
<!-- Generator: Adobe Illustrator 19.0.0, SVG Export Plug-In . SVG Version: 6.00 Build 0)  -->
<svg version="1.1" id="Capa_1" xmlns="http://www.w3.org/2000/svg" xmlns:xlink="http://www.w3.org/1999/xlink" x="0px" y="0px"
	 viewBox="0 0 512 512" style="enable-background:new 0 0 512 512;" xml:space="preserve">
<path style="fill:#F3F3F3;" d="M460.8,136.533L324.267,0H72.533C60.8,0,51.2,9.6,51.2,21.333v469.333
	C51.2,502.4,60.8,512,72.533,512h366.933c11.733,0,21.333-9.6,21.333-21.333V136.533z"/>
<polygon style="fill:#E8EAE9;" points="324.267,0 460.8,136.533 324.267,136.533 "/>
<path style="fill:#415A6B;" d="M165.333,297.6H185.6l4.267-18.133c5.333-1.067,10.667-3.2,16-5.333l17.067,10.667l13.867-13.867
	l-9.6-16c3.2-4.267,5.333-9.6,7.467-14.933l19.2-4.267v-20.267l-19.2-4.267c-1.067-5.333-3.2-10.667-5.333-16L240,178.133
	l-13.867-13.867l-14.933,9.6c-4.267-3.2-9.6-5.333-14.933-7.467L192,147.2h-21.333l-4.267,18.133c-5.333,1.067-10.667,3.2-16,5.333
	L133.333,160l-13.867,13.867l9.6,14.933c-3.2,4.267-5.333,9.6-7.467,14.933L102.4,208v20.267l18.133,4.267
	c1.067,5.333,3.2,10.667,5.333,16L115.2,265.6l13.867,13.867l16-9.6c4.267,3.2,9.6,5.333,14.933,7.467L165.333,297.6z
	 M150.4,222.933c0-14.933,12.8-27.733,27.733-27.733c14.933,0,27.733,12.8,27.733,27.733s-12.8,27.733-27.733,27.733
	C162.133,250.667,150.4,238.933,150.4,222.933z"/>
<path style="fill:#F05540;" d="M256,444.8l26.667,8.533l12.8-22.4c7.467,1.067,16,1.067,23.467-1.067l18.133,21.333l25.6-12.8
	l-6.4-24.533c6.4-5.333,11.733-10.667,16-17.067L400,398.933l8.533-26.667l-22.4-12.8c1.067-8.533,1.067-16-1.067-23.467
	l21.333-18.133l-11.733-24.533l-24.533,6.4c-5.333-6.4-10.667-11.733-17.067-16L355.2,256l-26.667-8.533l-12.8,22.4
	c-8.533-1.067-16-1.067-23.467,1.067L274.133,249.6l-25.6,12.8l6.4,24.533c-6.4,5.333-11.733,10.667-16,17.067l-27.733-2.133
	l-8.533,25.6L224,341.333c-1.067,8.533-1.067,16,1.067,23.467l-21.333,18.133l12.8,25.6l24.533-6.4
	c5.333,6.4,10.667,11.733,17.067,16L256,444.8z M268.8,338.133c6.4-20.267,28.8-32,49.067-25.6s32,28.8,25.6,49.067
	c-6.4,20.267-28.8,32-49.067,25.6C273.067,380.8,261.333,359.467,268.8,338.133z"/>
<g>
</g>
<g>
</g>
<g>
</g>
<g>
</g>
<g>
</g>
<g>
</g>
<g>
</g>
<g>
</g>
<g>
</g>
<g>
</g>
<g>
</g>
<g>
</g>
<g>
</g>
<g>
</g>
<g>
</g>
</svg>
