<?xml version="1.0" encoding="iso-8859-1"?>
<!-- Generator: Adobe Illustrator 19.0.0, SVG Export Plug-In . SVG Version: 6.00 Build 0)  -->
<svg version="1.1" id="Capa_1" xmlns="http://www.w3.org/2000/svg" xmlns:xlink="http://www.w3.org/1999/xlink" x="0px" y="0px"
	 viewBox="0 0 512 512" style="enable-background:new 0 0 512 512;" xml:space="preserve">
<path style="fill:#F3F3F3;" d="M341.333,0H68.267C56.533,0,46.933,9.6,46.933,21.333v469.333c0,11.733,9.6,21.333,21.333,21.333
	h375.467c11.733,0,21.333-9.6,21.333-21.333V123.733L341.333,0z"/>
<polygon style="fill:#CED6E0;" points="341.333,0 341.333,123.733 465.067,123.733 "/>
<g>
	<path style="fill:#415A6B;" d="M411.733,469.333H100.267c-6.4,0-10.667-4.267-10.667-10.667v-313.6
		c0-6.4,4.267-10.667,10.667-10.667c6.4,0,10.667,4.267,10.667,10.667V448H412.8c6.4,0,10.667,4.267,10.667,10.667
		C422.4,465.067,418.133,469.333,411.733,469.333z"/>
	<path style="fill:#415A6B;" d="M225.067,306.133L160,371.2c5.333,2.133,8.533,7.467,9.6,12.8l69.333-69.333
		C232.533,313.6,227.2,310.4,225.067,306.133z"/>
	<path style="fill:#415A6B;" d="M382.933,246.4l-92.8,92.8L256,305.067c-2.133,5.333-6.4,8.533-12.8,9.6l41.6,41.6
		c1.067,1.067,3.2,2.133,5.333,2.133c2.133,0,4.267-1.067,5.333-2.133L395.733,256C389.333,254.933,385.067,251.733,382.933,246.4z"
		/>
	<path style="fill:#415A6B;" d="M394.667,299.733c-4.267,0-8.533-3.2-8.533-8.533v-38.4h-38.4c-4.267,0-7.467-3.2-7.467-8.533
		c0-4.267,3.2-8.533,7.467-8.533h46.933c4.267,0,8.533,3.2,8.533,8.533v45.867C402.133,296.533,398.933,299.733,394.667,299.733z"/>
</g>
<circle style="fill:#66C6B9;" cx="160" cy="382.933" r="23.467"/>
<circle style="fill:#4ABAA5;" cx="160" cy="382.933" r="11.733"/>
<circle style="fill:#FFD15C;" cx="241.067" cy="301.867" r="23.467"/>
<circle style="fill:#F7B64C;" cx="241.067" cy="301.867" r="11.733"/>
<circle style="fill:#F3705A;" cx="289.067" cy="350.933" r="23.467"/>
<circle style="fill:#F05540;" cx="289.067" cy="350.933" r="11.733"/>
<g>
</g>
<g>
</g>
<g>
</g>
<g>
</g>
<g>
</g>
<g>
</g>
<g>
</g>
<g>
</g>
<g>
</g>
<g>
</g>
<g>
</g>
<g>
</g>
<g>
</g>
<g>
</g>
<g>
</g>
</svg>
