<?xml version="1.0" encoding="iso-8859-1"?>
<!-- Generator: Adobe Illustrator 19.0.0, SVG Export Plug-In . SVG Version: 6.00 Build 0)  -->
<svg version="1.1" id="Capa_1" xmlns="http://www.w3.org/2000/svg" xmlns:xlink="http://www.w3.org/1999/xlink" x="0px" y="0px"
	 viewBox="0 0 512.586 512.586" style="enable-background:new 0 0 512.586 512.586;" xml:space="preserve">
<path style="fill:#E8EAE9;" d="M465.36,80.827l-304-80c-10.667-3.2-21.333,3.2-24.533,13.867L33.36,406.16
	c-3.2,10.667,3.2,21.333,13.867,24.533l304,81.067c10.667,3.2,21.333-3.2,24.533-13.867l103.467-391.467
	C482.427,94.693,476.027,84.027,465.36,80.827z"/>
<path style="fill:#F3F3F3;" d="M414.16,32.827H201.893L79.227,156.56v301.867c0,10.667,8.533,20.267,20.267,20.267H414.16
	c10.667,0,20.267-8.533,20.267-20.267V53.093C433.36,42.427,424.827,32.827,414.16,32.827z"/>
<g>
	<rect x="128.293" y="400.827" style="fill:#CED6E0;" width="254.933" height="27.733"/>
	<rect x="128.293" y="328.293" style="fill:#CED6E0;" width="254.933" height="27.733"/>
	<rect x="128.293" y="255.76" style="fill:#CED6E0;" width="254.933" height="27.733"/>
	<rect x="128.293" y="184.293" style="fill:#CED6E0;" width="254.933" height="27.733"/>
	<rect x="239.227" y="111.76" style="fill:#CED6E0;" width="144" height="27.733"/>
</g>
<polygon style="fill:#FFD15C;" points="201.893,32.827 79.227,156.56 201.893,156.56 "/>
<g>
</g>
<g>
</g>
<g>
</g>
<g>
</g>
<g>
</g>
<g>
</g>
<g>
</g>
<g>
</g>
<g>
</g>
<g>
</g>
<g>
</g>
<g>
</g>
<g>
</g>
<g>
</g>
<g>
</g>
</svg>
