<?xml version="1.0" encoding="iso-8859-1"?>
<!-- Generator: Adobe Illustrator 19.0.0, SVG Export Plug-In . SVG Version: 6.00 Build 0)  -->
<svg version="1.1" id="Capa_1" xmlns="http://www.w3.org/2000/svg" xmlns:xlink="http://www.w3.org/1999/xlink" x="0px" y="0px"
	 viewBox="0 0 512 512" style="enable-background:new 0 0 512 512;" xml:space="preserve">
<g>
	
		<ellipse transform="matrix(0.1029 -0.9947 0.9947 0.1029 268.1559 527.7008)" style="fill:#FFD15C;" cx="426.631" cy="115.187" rx="21.334" ry="12.8"/>
	
		<ellipse transform="matrix(0.1029 0.9947 -0.9947 0.1029 388.6183 -201.9134)" style="fill:#FFD15C;" cx="306.248" cy="114.49" rx="21.334" ry="12.8"/>
</g>
<g>
	<path style="fill:#344A5E;" d="M429.867,102.4H302.933c-16-69.333,14.933-102.4,64-102.4C414.933,0,445.867,33.067,429.867,102.4z"
		/>
	<path style="fill:#344A5E;" d="M512,284.8l-7.467-35.2c-3.2-16-16-27.733-33.067-30.933c-18.133-4.267-35.2-11.733-53.333-22.4
		H314.667c-19.2,10.667-38.4,18.133-56.533,22.4c-14.933,3.2-26.667,16-29.867,30.933l-7.467,35.2H512z"/>
</g>
<path style="fill:#F7B64C;" d="M398.933,163.2v14.933c-9.6,22.4-19.2,34.133-32,46.933c-11.733-12.8-22.4-24.533-32-46.933V163.2
	c8.533-23.467,21.333-39.467,32-52.267C377.6,123.733,389.333,138.667,398.933,163.2z"/>
<polygon style="fill:#FFFFFF;" points="392.533,284.8 393.6,216.533 338.133,216.533 339.2,284.8 "/>
<g>
	<polygon style="fill:#F3705A;" points="376.533,243.2 386.133,235.733 366.933,216.533 347.733,235.733 356.267,243.2 	"/>
	<polygon style="fill:#F3705A;" points="386.133,285.867 376.533,243.2 356.267,243.2 346.667,285.867 	"/>
</g>
<g>
	<polygon style="fill:#F3F3F3;" points="398.933,172.8 366.933,216.533 391.467,242.133 409.6,193.067 	"/>
	<polygon style="fill:#F3F3F3;" points="334.933,172.8 366.933,216.533 341.333,242.133 323.2,193.067 	"/>
</g>
<g>
	<polygon style="fill:#415A6B;" points="398.933,284.8 434.133,233.6 416,225.067 439.467,212.267 404.267,183.467 378.667,284.8 	
		"/>
	<polygon style="fill:#415A6B;" points="297.6,233.6 332.8,284.8 354.133,284.8 327.467,183.467 292.267,212.267 316.8,225.067 	"/>
</g>
<g>
	<path style="fill:#FFD15C;" d="M362.667,70.4c-18.133,0-33.067-5.333-43.733-14.933c-7.467,12.8-11.733,29.867-11.733,46.933
		c0,43.733,26.667,78.933,59.733,78.933s59.733-35.2,59.733-78.933c0-20.267-5.333-37.333-14.933-51.2
		C400,62.933,384,70.4,362.667,70.4z"/>
	
		<ellipse transform="matrix(0.1029 -0.9947 0.9947 0.1029 -154.7709 510.9603)" style="fill:#FFD15C;" cx="205.887" cy="341.284" rx="21.334" ry="12.8"/>
	
		<ellipse transform="matrix(0.1029 0.9947 -0.9947 0.1029 417.1343 220.4276)" style="fill:#FFD15C;" cx="86.364" cy="341.47" rx="21.334" ry="12.8"/>
</g>
<g>
	<path style="fill:#344A5E;" d="M209.067,329.6H83.2c-16-69.333,14.933-102.4,62.933-102.4
		C195.2,226.133,225.067,260.267,209.067,329.6z"/>
	<path style="fill:#344A5E;" d="M291.2,512l-7.467-35.2c-3.2-16-16-27.733-33.067-30.933c-18.133-4.267-35.2-11.733-53.333-22.4
		H93.867c-19.2,10.667-38.4,18.133-56.533,22.4c-14.933,3.2-26.667,16-29.867,30.933L0,512H291.2z"/>
</g>
<path style="fill:#F7B64C;" d="M178.133,389.333v14.933c-9.6,22.4-19.2,34.133-32,46.933c-11.733-12.8-22.4-24.533-32-46.933
	v-14.933c8.533-23.467,21.333-39.467,32-52.267C156.8,349.867,169.6,365.867,178.133,389.333z"/>
<polygon style="fill:#FFFFFF;" points="171.733,512 173.867,442.667 117.333,442.667 119.467,512 "/>
<g>
	<polygon style="fill:#F3705A;" points="156.8,470.4 165.333,461.867 146.133,442.667 126.933,461.867 135.467,470.4 	"/>
	<polygon style="fill:#F3705A;" points="165.333,512 156.8,470.4 135.467,470.4 126.933,512 	"/>
</g>
<g>
	<polygon style="fill:#F3F3F3;" points="178.133,400 146.133,442.667 170.667,468.267 189.867,420.267 	"/>
	<polygon style="fill:#F3F3F3;" points="114.133,400 146.133,442.667 121.6,468.267 102.4,420.267 	"/>
</g>
<g>
	<polygon style="fill:#415A6B;" points="179.2,512 214.4,460.8 195.2,451.2 219.733,438.4 184.533,409.6 157.867,512 	"/>
	<polygon style="fill:#415A6B;" points="77.867,460.8 113.067,512 133.333,512 107.733,409.6 72.533,438.4 96,451.2 	"/>
</g>
<path style="fill:#FFD15C;" d="M141.867,297.6c-18.133,0-33.067-5.333-43.733-14.933C90.667,295.467,86.4,312.533,86.4,329.6
	c0,43.733,26.667,78.933,59.733,78.933s59.733-35.2,59.733-78.933c0-20.267-5.333-37.333-14.933-51.2
	C179.2,290.133,163.2,297.6,141.867,297.6z"/>
<path style="fill:#F3705A;" d="M156.8,145.067V115.2c-71.467,1.067-132.267,48-150.4,114.133C2.133,215.467,0,201.6,0,186.667
	c0-87.467,70.4-156.8,156.8-156.8V0L240,72.533L156.8,145.067z"/>
<path style="fill:#8AD7F8;" d="M355.2,366.933V396.8c71.467,0,131.2-48,150.4-113.067c4.267,13.867,6.4,27.733,6.4,42.667
	c0,86.4-70.4,156.8-156.8,156.8V512L272,439.467L355.2,366.933z"/>
<g>
</g>
<g>
</g>
<g>
</g>
<g>
</g>
<g>
</g>
<g>
</g>
<g>
</g>
<g>
</g>
<g>
</g>
<g>
</g>
<g>
</g>
<g>
</g>
<g>
</g>
<g>
</g>
<g>
</g>
</svg>
