<?xml version="1.0" encoding="iso-8859-1"?>
<!-- Generator: Adobe Illustrator 19.0.0, SVG Export Plug-In . SVG Version: 6.00 Build 0)  -->
<svg version="1.1" id="Capa_1" xmlns="http://www.w3.org/2000/svg" xmlns:xlink="http://www.w3.org/1999/xlink" x="0px" y="0px"
	 viewBox="0 0 512 512" style="enable-background:new 0 0 512 512;" xml:space="preserve">
<path style="fill:#E8EAE9;" d="M391.467,0H120.533c-8.533,0-16,7.467-16,16v212.267c0,8.533,7.467,16,16,16H390.4
	c8.533,0,16-7.467,16-16V16C407.467,7.467,400,0,391.467,0z"/>
<rect x="133.333" y="27.733" style="fill:#8AD7F8;" width="246.4" height="161.067"/>
<path style="fill:#F3705A;" d="M317.867,170.667C304,146.133,297.6,119.467,297.6,92.8v-5.333c0-20.267-18.133-36.267-40.533-36.267
	s-40.533,16-40.533,36.267V92.8c0,26.667-7.467,53.333-20.267,77.867H317.867z"/>
<path style="fill:#F7B64C;" d="M322.133,188.8l-4.267-18.133c-1.067-8.533-7.467-14.933-14.933-18.133
	c-6.4-2.133-12.8-4.267-20.267-5.333c-5.333-1.067-8.533-5.333-8.533-10.667V128L256,104.533l-19.2,24.533v8.533
	c0,5.333-3.2,9.6-8.533,10.667c-6.4,1.067-12.8,3.2-20.267,5.333c-7.467,3.2-13.867,9.6-14.933,18.133l-3.2,18.133h132.267V188.8z"
	/>
<path style="fill:#344A5E;" d="M322.133,188.8l-4.267-18.133c-1.067-8.533-7.467-14.933-14.933-18.133
	c-7.467-3.2-16-5.333-23.467-6.4l-6.4,24.533C267.733,173.867,262.4,176,256,176c-7.467,0-13.867-3.2-19.2-7.467v-22.4
	c-1.067,0-2.133,0-3.2,0c-8.533,1.067-17.067,3.2-24.533,6.4c-7.467,3.2-13.867,9.6-14.933,18.133l-3.2,18.133L322.133,188.8
	L322.133,188.8z"/>
<path style="fill:#4ABAA5;" d="M265.6,188.8l7.467-32c-5.333,5.333-10.667,7.467-17.067,7.467c-7.467,0-13.867-4.267-19.2-9.6
	l8.533,34.133H265.6z"/>
<path style="fill:#FFD15C;" d="M256,92.8c-9.6,0-17.067-3.2-23.467-7.467c-3.2,6.4-4.267,12.8-4.267,21.333
	c0,21.333,12.8,38.4,27.733,38.4c14.933,0,27.733-17.067,27.733-38.4c0-7.467-2.133-14.933-4.267-21.333
	C273.067,89.6,265.6,92.8,256,92.8z"/>
<g>
	<polygon style="fill:#415A6B;" points="291.2,188.8 296.533,178.133 288,170.667 300.8,164.267 275.2,137.6 266.667,188.8 	"/>
	<polygon style="fill:#415A6B;" points="215.467,178.133 220.8,188.8 245.333,188.8 236.8,137.6 211.2,164.267 224,170.667 	"/>
</g>
<rect x="221.867" y="244.267" style="fill:#CED6E0;" width="69.333" height="24.533"/>
<path style="fill:#E8EAE9;" d="M189.867,302.933L189.867,302.933h132.267l0,0c0-18.133-14.933-33.067-33.067-33.067h-66.133
	C204.8,269.867,189.867,283.733,189.867,302.933z"/>
<rect x="89.6" y="408.533" style="fill:#F7B64C;" width="59.733" height="18.133"/>
<path style="fill:#415A6B;" d="M165.333,394.667c-22.4,40.533-69.333,40.533-91.733,0c-13.867-24.533-33.067-104.533,45.867-104.533
	S179.2,369.067,165.333,394.667z"/>
<ellipse style="fill:#F05540;" cx="119.467" cy="433.067" rx="44.8" ry="17.067"/>
<path style="fill:#F3705A;" d="M237.867,512l-12.8-49.067c-3.2-10.667-11.733-19.2-22.4-21.333c-23.467-5.333-64-12.8-84.267-12.8
	s-60.8,7.467-84.267,12.8c-10.667,2.133-19.2,10.667-22.4,21.333L0,512H237.867z"/>
<rect x="362.667" y="408.533" style="fill:#F7B64C;" width="59.733" height="18.133"/>
<path style="fill:#415A6B;" d="M438.4,394.667c-22.4,40.533-69.333,40.533-91.733,0C332.8,370.133,313.6,290.133,392.533,290.133
	S453.333,369.067,438.4,394.667z"/>
<ellipse style="fill:#F05540;" cx="392.533" cy="433.067" rx="44.8" ry="17.067"/>
<path style="fill:#F3705A;" d="M512,512l-12.8-49.067c-3.2-10.667-11.733-19.2-22.4-21.333c-23.467-5.333-64-12.8-84.267-12.8
	c-20.267,0-60.8,7.467-84.267,12.8c-10.667,2.133-19.2,10.667-22.4,21.333L274.133,512H512z"/>
<g>
</g>
<g>
</g>
<g>
</g>
<g>
</g>
<g>
</g>
<g>
</g>
<g>
</g>
<g>
</g>
<g>
</g>
<g>
</g>
<g>
</g>
<g>
</g>
<g>
</g>
<g>
</g>
<g>
</g>
</svg>
