<?xml version="1.0" encoding="iso-8859-1"?>
<!-- Generator: Adobe Illustrator 19.0.0, SVG Export Plug-In . SVG Version: 6.00 Build 0)  -->
<svg version="1.1" id="Capa_1" xmlns="http://www.w3.org/2000/svg" xmlns:xlink="http://www.w3.org/1999/xlink" x="0px" y="0px"
	 viewBox="0 0 513.067 513.067" style="enable-background:new 0 0 513.067 513.067;" xml:space="preserve">
<g>
	
		<ellipse transform="matrix(0.1029 -0.9947 0.9947 0.1029 -89.3318 506.755)" style="fill:#FFD15C;" cx="236.275" cy="302.902" rx="24.534" ry="14.933"/>
	
		<ellipse transform="matrix(0.1029 0.9947 -0.9947 0.1029 389.8322 174.1956)" style="fill:#FFD15C;" cx="98.343" cy="303.218" rx="24.534" ry="14.933"/>
</g>
<g>
	<path style="fill:#344A5E;" d="M240.533,289.067H94.4c-18.133-78.933,17.067-117.333,72.533-117.333
		C223.467,171.733,258.667,210.133,240.533,289.067z"/>
	<path style="fill:#344A5E;" d="M333.333,513.067c-3.2-32-10.667-75.733-23.467-89.6c-25.6-27.733-106.667-28.8-142.933-28.8
		S49.6,395.733,24,423.467c-12.8,13.867-20.267,57.6-23.467,89.6H333.333z"/>
</g>
<path style="fill:#F7B64C;" d="M204.267,356.267v17.067c-10.667,25.6-22.4,39.467-36.267,54.4c-13.867-14.933-25.6-28.8-36.267-54.4
	v-17.067c10.667-27.733,24.533-44.8,36.267-59.733C179.733,310.4,193.6,328.533,204.267,356.267z"/>
<path style="fill:#FFFFFF;" d="M144.533,513.067h44.8l7.467-12.8l2.133-83.2c-21.333,0-42.667,0-64,0l2.133,83.2L144.533,513.067z"
	/>
<g>
	<polygon style="fill:#F3705A;" points="177.6,448 187.2,438.4 166.933,417.067 145.6,438.4 156.267,448 	"/>
	<polygon style="fill:#F3705A;" points="187.2,513.067 177.6,448 156.267,448 146.667,513.067 	"/>
</g>
<g>
	<polygon style="fill:#F3F3F3;" points="204.267,366.933 168,418.133 195.733,445.867 217.067,390.4 	"/>
	<polygon style="fill:#F3F3F3;" points="130.667,366.933 168,418.133 139.2,445.867 117.867,390.4 	"/>
</g>
<path style="fill:#FFD15C;" d="M186.133,225.067C173.333,243.2,152,254.933,123.2,254.933c-6.4,0-11.733-1.067-17.067-2.133
	c-4.267,11.733-6.4,23.467-6.4,37.333c0,49.067,30.933,88.533,68.267,88.533s68.267-39.467,68.267-88.533
	c0-19.2-4.267-36.267-12.8-51.2C208.533,237.867,195.733,232.533,186.133,225.067z"/>
<g>
	<polygon style="fill:#415A6B;" points="194.667,513.067 250.133,437.333 230.933,426.667 250.133,406.4 211.733,379.733 
		176.533,513.067 	"/>
	<polygon style="fill:#415A6B;" points="139.2,513.067 157.333,513.067 123.2,379.733 84.8,406.4 104,426.667 84.8,437.333 	"/>
</g>
<path style="fill:#66C6B9;" d="M512.533,116.267c0,64-61.867,115.2-139.733,115.2l-77.867,58.667v-77.867
	C256.533,192,232,155.733,232,115.2C232,51.2,294.933,0,371.733,0S512.533,52.267,512.533,116.267z"/>
<g>
	<circle style="fill:#FFFFFF;" cx="300.267" cy="116.267" r="23.467"/>
	<circle style="fill:#FFFFFF;" cx="372.8" cy="116.267" r="23.467"/>
	<circle style="fill:#FFFFFF;" cx="445.333" cy="116.267" r="23.467"/>
</g>
<g>
</g>
<g>
</g>
<g>
</g>
<g>
</g>
<g>
</g>
<g>
</g>
<g>
</g>
<g>
</g>
<g>
</g>
<g>
</g>
<g>
</g>
<g>
</g>
<g>
</g>
<g>
</g>
<g>
</g>
</svg>
