<?xml version="1.0" encoding="iso-8859-1"?>
<!-- Generator: Adobe Illustrator 19.0.0, SVG Export Plug-In . SVG Version: 6.00 Build 0)  -->
<svg version="1.1" id="Capa_1" xmlns="http://www.w3.org/2000/svg" xmlns:xlink="http://www.w3.org/1999/xlink" x="0px" y="0px"
	 viewBox="0 0 512 512" style="enable-background:new 0 0 512 512;" xml:space="preserve">
<path style="fill:#F3F3F3;" d="M444.267,0h-377.6C54.933,0,45.333,9.6,45.333,21.333v469.333c0,11.733,9.6,21.333,21.333,21.333
	H350.4l116.267-116.267v-374.4C465.6,9.6,456,0,444.267,0z"/>
<g>
	<polygon style="fill:#CED6E0;" points="349.333,512 465.6,395.733 349.333,395.733 	"/>
	<rect x="219.2" y="82.133" style="fill:#CED6E0;" width="203.733" height="27.733"/>
	<path style="fill:#CED6E0;" d="M168,140.8H94.4c-4.267,0-8.533-3.2-8.533-8.533v-73.6c0-4.267,3.2-8.533,8.533-8.533H168
		c4.267,0,8.533,3.2,8.533,8.533v73.6C175.467,137.6,172.267,140.8,168,140.8z M101.867,124.8h57.6V67.2h-57.6V124.8z"/>
</g>
<path style="fill:#66C6B9;" d="M124.267,135.467c-2.133,0-5.333-1.067-6.4-3.2L91.2,105.6c-3.2-3.2-3.2-9.6,0-12.8
	c3.2-3.2,9.6-3.2,12.8,0l17.067,17.067c10.667-18.133,28.8-34.133,56.533-52.267c4.267-3.2,9.6-1.067,12.8,3.2
	c3.2,4.267,1.067,9.6-3.2,12.8c-30.933,19.2-48,37.333-55.467,56.533c-1.067,3.2-3.2,5.333-6.4,5.333
	C125.333,135.467,125.333,135.467,124.267,135.467z"/>
<g>
	<rect x="219.2" y="208" style="fill:#CED6E0;" width="203.733" height="27.733"/>
	<path style="fill:#CED6E0;" d="M168,266.667H94.4c-4.267,0-8.533-3.2-8.533-8.533v-73.6c0-4.267,3.2-8.533,8.533-8.533H168
		c4.267,0,8.533,3.2,8.533,8.533v73.6C175.467,262.4,172.267,266.667,168,266.667z M101.867,250.667h57.6V192h-57.6V250.667z"/>
</g>
<path style="fill:#66C6B9;" d="M124.267,261.333c-2.133,0-5.333-1.067-6.4-3.2L91.2,231.467c-3.2-3.2-3.2-9.6,0-12.8
	c3.2-3.2,9.6-3.2,12.8,0l17.067,17.067c10.667-18.133,28.8-34.133,56.533-52.267c4.267-3.2,9.6-1.067,12.8,3.2
	c3.2,4.267,1.067,9.6-3.2,12.8c-30.933,19.2-48,37.333-55.467,56.533c-1.067,3.2-3.2,5.333-6.4,5.333
	C125.333,261.333,125.333,261.333,124.267,261.333z"/>
<g>
	<rect x="219.2" y="332.8" style="fill:#CED6E0;" width="203.733" height="27.733"/>
	<path style="fill:#CED6E0;" d="M168,391.467H94.4c-4.267,0-8.533-3.2-8.533-8.533v-73.6c0-4.267,3.2-8.533,8.533-8.533H168
		c4.267,0,8.533,3.2,8.533,8.533V384C175.467,388.267,172.267,391.467,168,391.467z M101.867,375.467h57.6v-57.6h-57.6V375.467z"/>
</g>
<g>
</g>
<g>
</g>
<g>
</g>
<g>
</g>
<g>
</g>
<g>
</g>
<g>
</g>
<g>
</g>
<g>
</g>
<g>
</g>
<g>
</g>
<g>
</g>
<g>
</g>
<g>
</g>
<g>
</g>
</svg>
