<?xml version="1.0" encoding="iso-8859-1"?>
<!-- Generator: Adobe Illustrator 19.0.0, SVG Export Plug-In . SVG Version: 6.00 Build 0)  -->
<svg version="1.1" id="Capa_1" xmlns="http://www.w3.org/2000/svg" xmlns:xlink="http://www.w3.org/1999/xlink" x="0px" y="0px"
	 viewBox="0 0 512 512" style="enable-background:new 0 0 512 512;" xml:space="preserve">
<polygon style="fill:#F05540;" points="512,0 306.133,0 210.133,156.8 301.867,156.8 "/>
<path style="fill:#FFD15C;" d="M310.4,208H201.6c-12.8,0-22.4-9.6-22.4-22.4v-26.667c0-12.8,9.6-22.4,22.4-22.4h107.733
	c12.8,0,22.4,9.6,22.4,22.4V185.6C332.8,197.333,322.133,208,310.4,208z M201.6,154.667c-2.133,0-3.2,1.067-3.2,3.2v26.667
	c0,2.133,1.067,3.2,3.2,3.2h107.733c2.133,0,3.2-1.067,3.2-3.2v-26.667c0-2.133-1.067-3.2-3.2-3.2L201.6,154.667L201.6,154.667z"/>
<polygon style="fill:#F3705A;" points="0,0 205.867,0 301.867,156.8 210.133,156.8 "/>
<circle style="fill:#FFD15C;" cx="256" cy="345.6" r="166.4"/>
<circle style="fill:#F7B64C;" cx="256" cy="345.6" r="118.4"/>
<polygon style="fill:#FFD15C;" points="256,273.067 278.4,316.8 327.467,324.267 291.2,359.467 299.733,408.533 256,385.067 
	212.267,408.533 220.8,359.467 184.533,324.267 233.6,316.8 "/>
<g>
</g>
<g>
</g>
<g>
</g>
<g>
</g>
<g>
</g>
<g>
</g>
<g>
</g>
<g>
</g>
<g>
</g>
<g>
</g>
<g>
</g>
<g>
</g>
<g>
</g>
<g>
</g>
<g>
</g>
</svg>
