<?xml version="1.0" encoding="iso-8859-1"?>
<!-- Generator: Adobe Illustrator 19.0.0, SVG Export Plug-In . SVG Version: 6.00 Build 0)  -->
<svg version="1.1" id="Capa_1" xmlns="http://www.w3.org/2000/svg" xmlns:xlink="http://www.w3.org/1999/xlink" x="0px" y="0px"
	 viewBox="0 0 512 512" style="enable-background:new 0 0 512 512;" xml:space="preserve">
<path style="fill:#415A6B;" d="M431.467,394.667l-16-99.2c-4.267-24.533-22.4-43.733-45.867-48
	c-74.667-14.933-152.533-14.933-227.2,0c-23.467,4.267-42.667,24.533-45.867,48l-17.067,99.2H431.467z"/>
<polygon style="fill:#CED6E0;" points="262.933,394.667 298.133,228.267 212.8,228.267 248,394.667 "/>
<polygon style="fill:#F05540;" points="267.2,296.533 282.133,282.667 255.467,256 228.8,282.667 243.733,296.533 "/>
<polygon style="fill:#F3705A;" points="271.467,394.667 285.333,365.867 267.2,296.533 243.733,296.533 225.6,365.867 
	239.467,394.667 "/>
<polygon style="fill:#F7B64C;" points="255.467,256 255.467,256 294.933,220.8 294.933,183.467 216,183.467 216,220.8 "/>
<g>
	<path style="fill:#FFD15C;" d="M342.933,144c-3.2,12.8-12.8,22.4-21.333,19.2c-8.533-2.133-13.867-14.933-9.6-27.733
		c3.2-12.8,12.8-20.267,21.333-18.133C340.8,119.467,345.067,131.2,342.933,144z"/>
	<path style="fill:#FFD15C;" d="M168,144c3.2,12.8,12.8,22.4,21.333,19.2c8.533-2.133,13.867-14.933,9.6-27.733
		c-3.2-12.8-12.8-20.267-21.333-18.133C170.133,119.467,165.867,131.2,168,144z"/>
	<ellipse style="fill:#FFD15C;" cx="255.467" cy="129.067" rx="74.667" ry="90.667"/>
</g>
<path style="fill:#344A5E;" d="M290.667,58.667c-9.6,20.267-57.6,1.067-80,33.067c-9.6-9.6-9.6-17.067-9.6-17.067
	c-19.2,24.533-17.067,76.8-16,83.2c-9.6-22.4-10.667-45.867-9.6-64c0-57.6,35.2-93.867,82.133-93.867s81.067,34.133,80,91.733
	c0,21.333-1.067,41.6-11.733,65.067C335.467,77.867,290.667,58.667,290.667,58.667z"/>
<g>
	<polygon style="fill:#F3F3F3;" points="304.533,238.933 284.267,290.133 255.467,256 294.933,220.8 	"/>
	<polygon style="fill:#F3F3F3;" points="206.4,238.933 226.667,290.133 255.467,256 217.067,220.8 	"/>
</g>
<g>
	<polygon style="fill:#344A5E;" points="273.6,394.667 330.133,290.133 309.867,277.333 333.333,263.467 298.133,228.267 
		262.933,394.667 	"/>
	<polygon style="fill:#344A5E;" points="180.8,290.133 237.333,394.667 248,394.667 212.8,228.267 177.6,263.467 201.067,277.333 	
		"/>
</g>
<path style="fill:#F3F3F3;" d="M405.867,512h-300.8c-11.733,0-22.4-8.533-24.533-21.333L53.867,304
	c-2.133-14.933,9.6-27.733,24.533-27.733h355.2c14.933,0,26.667,12.8,24.533,27.733L430.4,490.667
	C429.333,503.467,418.667,512,405.867,512z"/>
<ellipse style="fill:#CED6E0;" cx="255.467" cy="393.6" rx="51.2" ry="32"/>
<g>
</g>
<g>
</g>
<g>
</g>
<g>
</g>
<g>
</g>
<g>
</g>
<g>
</g>
<g>
</g>
<g>
</g>
<g>
</g>
<g>
</g>
<g>
</g>
<g>
</g>
<g>
</g>
<g>
</g>
</svg>
