<?xml version="1.0" encoding="iso-8859-1"?>
<!-- Generator: Adobe Illustrator 19.0.0, SVG Export Plug-In . SVG Version: 6.00 Build 0)  -->
<svg version="1.1" id="Capa_1" xmlns="http://www.w3.org/2000/svg" xmlns:xlink="http://www.w3.org/1999/xlink" x="0px" y="0px"
	 viewBox="0 0 512 512" style="enable-background:new 0 0 512 512;" xml:space="preserve">
<path style="fill:#415A6B;" d="M487.467,0H24.533C10.667,0,0,10.667,0,24.533v354.133C0,392.533,10.667,403.2,24.533,403.2h462.933
	c13.867,0,24.533-10.667,24.533-24.533V24.533C512,10.667,501.333,0,487.467,0z"/>
<rect x="49.067" y="49.067" style="fill:#FFFFFF;" width="413.867" height="262.4"/>
<polygon style="fill:#344A5E;" points="372.267,474.667 139.733,474.667 178.133,403.2 333.867,403.2 "/>
<path style="fill:#415A6B;" d="M372.267,512H139.733c-13.867,0-24.533-10.667-24.533-24.533c0-13.867,10.667-24.533,24.533-24.533
	h232.533c13.867,0,24.533,10.667,24.533,24.533C396.8,501.333,386.133,512,372.267,512z"/>
<circle style="fill:#344A5E;" cx="256" cy="357.333" r="16"/>
<polygon style="fill:#E8EAE9;" points="109.867,254.933 97.067,237.867 206.933,156.8 278.4,210.133 402.133,118.4 414.933,135.467 
	278.4,236.8 206.933,183.467 "/>
<circle style="fill:#F3705A;" cx="408.533" cy="126.933" r="33.067"/>
<circle style="fill:#F05540;" cx="408.533" cy="126.933" r="16"/>
<circle style="fill:#415A6B;" cx="279.467" cy="222.933" r="33.067"/>
<circle style="fill:#344A5E;" cx="279.467" cy="222.933" r="16"/>
<circle style="fill:#8AD7F8;" cx="206.933" cy="168.533" r="33.067"/>
<circle style="fill:#55C0EB;" cx="206.933" cy="168.533" r="16"/>
<circle style="fill:#FFD15C;" cx="103.467" cy="246.4" r="33.067"/>
<circle style="fill:#F7B64C;" cx="103.467" cy="246.4" r="16"/>
<g>
</g>
<g>
</g>
<g>
</g>
<g>
</g>
<g>
</g>
<g>
</g>
<g>
</g>
<g>
</g>
<g>
</g>
<g>
</g>
<g>
</g>
<g>
</g>
<g>
</g>
<g>
</g>
<g>
</g>
</svg>
