<?xml version="1.0" encoding="iso-8859-1"?>
<!-- Generator: Adobe Illustrator 19.0.0, SVG Export Plug-In . SVG Version: 6.00 Build 0)  -->
<svg version="1.1" id="Capa_1" xmlns="http://www.w3.org/2000/svg" xmlns:xlink="http://www.w3.org/1999/xlink" x="0px" y="0px"
	 viewBox="0 0 512 512" style="enable-background:new 0 0 512 512;" xml:space="preserve">
<circle style="fill:#8AD7F8;" cx="256" cy="21.333" r="21.333"/>
<path style="fill:#55C0EB;" d="M322.133,183.467c0-19.2,8.533-61.867,27.733-89.6H162.133c20.267,27.733,27.733,70.4,27.733,89.6
	H322.133z"/>
<g>
	<path style="fill:#8AD7F8;" d="M322.133,220.8H189.867c-10.667,0-18.133-8.533-18.133-18.133l0,0
		c0-10.667,8.533-18.133,18.133-18.133h132.267c10.667,0,18.133,8.533,18.133,18.133l0,0C341.333,212.267,332.8,220.8,322.133,220.8
		z"/>
	<path style="fill:#8AD7F8;" d="M352,395.733H160c-14.933,0-26.667,11.733-26.667,26.667s11.733,26.667,26.667,26.667h192
		c14.933,0,26.667-11.733,26.667-26.667C378.667,407.467,365.867,395.733,352,395.733z"/>
</g>
<path style="fill:#55C0EB;" d="M189.867,220.8c33.067,33.067-1.067,137.6-27.733,174.933h188.8C324.267,358.4,288,256,323.2,220.8
	L189.867,220.8L189.867,220.8z"/>
<path style="fill:#8AD7F8;" d="M188.8,93.867c0-37.333,29.867-67.2,67.2-67.2s67.2,29.867,67.2,67.2"/>
<path style="fill:#55C0EB;" d="M413.867,512H98.133l0,0c0-35.2,28.8-64,64-64h188.8C385.067,448,413.867,476.8,413.867,512
	L413.867,512z"/>
<g>
</g>
<g>
</g>
<g>
</g>
<g>
</g>
<g>
</g>
<g>
</g>
<g>
</g>
<g>
</g>
<g>
</g>
<g>
</g>
<g>
</g>
<g>
</g>
<g>
</g>
<g>
</g>
<g>
</g>
</svg>
