<?xml version="1.0" encoding="iso-8859-1"?>
<!-- Generator: Adobe Illustrator 19.0.0, SVG Export Plug-In . SVG Version: 6.00 Build 0)  -->
<svg version="1.1" id="Capa_1" xmlns="http://www.w3.org/2000/svg" xmlns:xlink="http://www.w3.org/1999/xlink" x="0px" y="0px"
	 viewBox="0 0 512.533 512.533" style="enable-background:new 0 0 512.533 512.533;" xml:space="preserve">
<path style="fill:#F7B64C;" d="M267.929,197.867C111.129,308.8,34.329,413.333,5.529,459.2c-8.533,13.867-6.4,32,5.333,42.667
	c10.667,11.733,28.8,13.867,42.667,5.333c45.867-28.8,150.4-105.6,261.333-262.4L267.929,197.867z"/>
<path style="fill:#FFD15C;" d="M338.329,245.867L338.329,245.867c-6.4,6.4-16,6.4-22.4,0L266.862,196.8c-6.4-6.4-6.4-16,0-22.4l0,0
	c6.4-6.4,16-6.4,22.4,0l49.067,49.067C344.729,228.8,344.729,239.467,338.329,245.867z"/>
<rect x="293.456" y="67.427" transform="matrix(-0.7071 0.7071 -0.7071 -0.7071 727.0511 -4.1683)" style="fill:#F7B64C;" width="141.865" height="162.132"/>
<g>
	<path style="fill:#FFD15C;" d="M360.729,45.333L260.462,145.6c-10.667,10.667-26.667,10.667-37.333,0
		c-10.667-10.667-10.667-26.667,0-37.333L323.395,8c10.667-10.667,26.667-10.667,37.333,0
		C371.395,18.667,371.395,35.733,360.729,45.333z"/>
	<path style="fill:#FFD15C;" d="M504.729,189.333L404.462,289.6c-10.667,10.667-26.667,10.667-37.333,0
		c-10.667-10.667-10.667-26.667,0-37.333L467.395,152c10.667-10.667,26.667-10.667,37.333,0
		C514.329,162.667,514.329,178.667,504.729,189.333z"/>
</g>
<path style="fill:#F7B64C;" d="M512.195,512.533c-3.2-25.6-24.533-44.8-50.133-44.8H323.395c-26.667,0-48,20.267-50.133,44.8
	H512.195z"/>
<path style="fill:#FFD15C;" d="M462.062,467.733H323.395c-9.6,0-17.067-7.467-17.067-17.067c0-9.6,7.467-17.067,17.067-17.067
	h138.667c9.6,0,17.067,7.467,17.067,17.067C478.062,460.267,470.595,467.733,462.062,467.733z"/>
<g>
</g>
<g>
</g>
<g>
</g>
<g>
</g>
<g>
</g>
<g>
</g>
<g>
</g>
<g>
</g>
<g>
</g>
<g>
</g>
<g>
</g>
<g>
</g>
<g>
</g>
<g>
</g>
<g>
</g>
</svg>
