<?xml version="1.0" encoding="iso-8859-1"?>
<!-- Generator: Adobe Illustrator 19.0.0, SVG Export Plug-In . SVG Version: 6.00 Build 0)  -->
<svg version="1.1" id="Capa_1" xmlns="http://www.w3.org/2000/svg" xmlns:xlink="http://www.w3.org/1999/xlink" x="0px" y="0px"
	 viewBox="0 0 511.523 511.523" style="enable-background:new 0 0 511.523 511.523;" xml:space="preserve">
<path style="fill:#415A6B;" d="M463.761,343.228h-416v-288c0-11.733,9.6-21.333,21.333-21.333h374.4
	c11.733,0,21.333,9.6,21.333,21.333v288H463.761z"/>
<rect x="78.695" y="65.895" style="fill:#8AD7F8;" width="353.067" height="245.333"/>
<path style="fill:#344A5E;" d="M463.761,343.228h-416L1.895,447.761c-6.4,13.867,4.267,29.867,19.2,29.867h469.333
	c14.933,0,25.6-16,19.2-29.867L463.761,343.228z"/>
<polygon style="fill:#ADB3BA;" points="199.228,431.761 218.428,389.095 293.095,389.095 312.295,431.761 "/>
<path style="fill:#FFFFFF;" d="M264.295,264.295l11.733-14.933l-13.867-18.133c2.133-4.267,3.2-8.533,3.2-11.733l21.333-8.533
	l-2.133-19.2l-22.4-3.2c-1.067-4.267-3.2-7.467-6.4-10.667l9.6-21.333l-14.933-11.733l-18.133,13.867
	c-4.267-2.133-8.533-3.2-11.733-3.2l-8.533-21.333h-20.267l-3.2,22.4c-4.267,1.067-7.467,3.2-10.667,6.4l-21.333-9.6l-11.733,14.933
	l13.867,18.133c-2.133,4.267-3.2,8.533-3.2,11.733l-21.333,8.533l2.133,19.2l23.467,3.2c2.133,4.267,3.2,7.467,6.4,10.667
	l-9.6,21.333l14.933,11.733l18.133-13.867c4.267,2.133,7.467,3.2,11.733,3.2l8.533,21.333l19.2-2.133l3.2-23.467
	c4.267-2.133,7.467-3.2,10.667-6.4L264.295,264.295z M199.228,222.695c-7.467-6.4-8.533-17.067-3.2-25.6
	c6.4-7.467,17.067-8.533,25.6-3.2c7.467,6.4,8.533,17.067,3.2,25.6C217.361,228.028,206.695,229.095,199.228,222.695z"/>
<path style="fill:#F3F3F3;" d="M229.095,185.361c-12.8-10.667-32-8.533-42.667,5.333c-10.667,12.8-8.533,32,5.333,42.667
	c12.8,10.667,32,8.533,42.667-5.333C244.028,214.161,241.895,194.961,229.095,185.361z M199.228,222.695
	c-7.467-6.4-8.533-17.067-3.2-25.6c6.4-7.467,17.067-8.533,25.6-3.2c7.467,6.4,8.533,17.067,3.2,25.6
	C217.361,228.028,206.695,229.095,199.228,222.695z"/>
<path style="fill:#F3705A;" d="M343.228,201.361l12.8-6.4l-4.267-17.067c2.133-2.133,4.267-4.267,6.4-7.467l17.067,1.067
	l4.267-13.867l-14.933-8.533c0-3.2,0-6.4-1.067-9.6l12.8-11.733l-6.4-12.8l-17.067,4.267c-2.133-2.133-4.267-4.267-7.467-6.4V95.761
	l-13.867-4.267l-8.533,14.933c-3.2,0-6.4,0-9.6,1.067l-11.733-12.8l-12.8,6.4l4.267,17.067c-2.133,2.133-4.267,4.267-6.4,7.467
	l-17.067-1.067l-3.2,13.867l14.933,8.533c0,3.2,0,6.4,1.067,9.6l-12.8,11.733l6.4,12.8l17.067-4.267
	c2.133,2.133,4.267,4.267,7.467,6.4l-1.067,17.067l13.867,4.267l8.533-14.933c3.2,0,6.4,0,9.6-1.067L343.228,201.361z
	 M311.228,154.428c-3.2-6.4-1.067-14.933,5.333-18.133s14.933-1.067,18.133,5.333c3.2,6.4,1.067,14.933-5.333,18.133
	C321.895,162.961,314.428,160.828,311.228,154.428z"/>
<path style="fill:#F05540;" d="M342.161,137.361c-6.4-10.667-19.2-14.933-30.933-9.6c-10.667,6.4-14.933,19.2-9.6,30.933
	c5.333,10.667,19.2,14.933,30.933,9.6C344.295,161.895,348.561,148.028,342.161,137.361z M311.228,154.428
	c-3.2-6.4-1.067-14.933,5.333-18.133s14.933-1.067,18.133,5.333c3.2,6.4,1.067,14.933-5.333,18.133
	C321.895,162.961,314.428,160.828,311.228,154.428z"/>
<g>
</g>
<g>
</g>
<g>
</g>
<g>
</g>
<g>
</g>
<g>
</g>
<g>
</g>
<g>
</g>
<g>
</g>
<g>
</g>
<g>
</g>
<g>
</g>
<g>
</g>
<g>
</g>
<g>
</g>
</svg>
