<?xml version="1.0" encoding="iso-8859-1"?>
<!-- Generator: Adobe Illustrator 19.0.0, SVG Export Plug-In . SVG Version: 6.00 Build 0)  -->
<svg version="1.1" id="Capa_1" xmlns="http://www.w3.org/2000/svg" xmlns:xlink="http://www.w3.org/1999/xlink" x="0px" y="0px"
	 viewBox="0 0 512 512" style="enable-background:new 0 0 512 512;" xml:space="preserve">
<path style="fill:#415A6B;" d="M276.267,179.2l25.6-11.733l-5.333-32l-28.8-2.133c-2.133-4.267-5.333-8.533-7.467-11.733l9.6-26.667
	L243.2,76.8l-21.333,18.133c-4.267-1.067-9.6-2.133-13.867-3.2l-11.733-25.6l-32,5.333l-2.133,28.8
	c-4.267,2.133-8.533,5.333-11.733,7.467l-26.667-9.6l-19.2,26.667l19.2,21.333c-1.067,4.267-3.2,9.6-3.2,13.867l-26.667,10.667
	l5.333,32L128,204.8c2.133,4.267,5.333,8.533,7.467,11.733L124.8,243.2l26.667,18.133L172.8,243.2c4.267,1.067,9.6,2.133,13.867,3.2
	L198.4,272l32-5.333l2.133-28.8c4.267-2.133,8.533-5.333,11.733-7.467l26.667,9.6l18.133-26.667L270.933,192
	C274.133,188.8,276.267,184.533,276.267,179.2z M204.8,203.733c-19.2,3.2-37.333-9.6-40.533-28.8s9.6-37.333,28.8-40.533
	c19.2-3.2,37.333,9.6,40.533,28.8C236.8,182.4,224,200.533,204.8,203.733z"/>
<path style="fill:#F3705A;" d="M414.933,105.6l5.333-23.467l-19.2-9.6c0-3.2-1.067-7.467-2.133-10.667l14.933-16l-12.8-20.267
	L380.8,32c-3.2-2.133-5.333-4.267-8.533-6.4L371.2,4.267L348.8,0l-9.6,19.2c-3.2,0-7.467,1.067-10.667,2.133l-16-14.933
	l-20.267,12.8l6.4,20.267c-2.133,3.2-4.267,5.333-6.4,8.533l-21.333,1.067L265.6,72.533l19.2,9.6c0,3.2,1.067,7.467,2.133,10.667
	L272,108.8l12.8,20.267l20.267-6.4c3.2,2.133,5.333,4.267,8.533,6.4l1.067,21.333l23.467,5.333l9.6-19.2
	c3.2,0,7.467-1.067,10.667-2.133l16,14.933l20.267-12.8l-6.4-20.267c2.133-3.2,4.267-5.333,6.4-8.533L414.933,105.6z M338.133,102.4
	c-13.867-3.2-23.467-17.067-20.267-30.933C321.067,57.6,334.933,48,348.8,51.2c13.867,3.2,23.467,17.067,20.267,30.933
	C365.867,97.067,352,105.6,338.133,102.4z"/>
<rect x="45.867" y="278.4" style="fill:#F7B64C;" width="420.267" height="233.6"/>
<polygon style="fill:#FFD15C;" points="512,278.4 466.133,166.4 45.867,166.4 0,278.4 "/>
<g>
</g>
<g>
</g>
<g>
</g>
<g>
</g>
<g>
</g>
<g>
</g>
<g>
</g>
<g>
</g>
<g>
</g>
<g>
</g>
<g>
</g>
<g>
</g>
<g>
</g>
<g>
</g>
<g>
</g>
</svg>
