<?xml version="1.0" encoding="iso-8859-1"?>
<!-- Generator: Adobe Illustrator 19.0.0, SVG Export Plug-In . SVG Version: 6.00 Build 0)  -->
<svg version="1.1" id="Capa_1" xmlns="http://www.w3.org/2000/svg" xmlns:xlink="http://www.w3.org/1999/xlink" x="0px" y="0px"
	 viewBox="0 0 512 512" style="enable-background:new 0 0 512 512;" xml:space="preserve">
<g>
	<path style="fill:#F3F3F3;" d="M242.133,357.867v124.8c0,7.467,6.4,13.867,13.867,13.867c7.467,0,13.867-6.4,13.867-13.867v-124.8
		H242.133z"/>
	<path style="fill:#F3F3F3;" d="M459.733,383.467H52.267c-11.733,0-21.333-9.6-21.333-21.333V72H480v290.133
		C481.067,373.867,471.467,383.467,459.733,383.467z"/>
</g>
<path style="fill:#415A6B;" d="M484.267,15.467H27.733C12.8,15.467,0,28.267,0,43.2s12.8,27.733,27.733,27.733H483.2
	C499.2,72,512,59.2,512,43.2S499.2,15.467,484.267,15.467z"/>
<rect x="74.667" y="130.667" style="fill:#F3705A;" width="61.867" height="66.133"/>
<g>
	<rect x="161.067" y="130.667" style="fill:#CED6E0;" width="276.267" height="17.067"/>
	<rect x="161.067" y="178.667" style="fill:#CED6E0;" width="177.067" height="17.067"/>
</g>
<rect x="74.667" y="258.667" style="fill:#66C6B9;" width="61.867" height="66.133"/>
<g>
	<rect x="161.067" y="258.667" style="fill:#CED6E0;" width="276.267" height="17.067"/>
	<rect x="161.067" y="307.733" style="fill:#CED6E0;" width="177.067" height="17.067"/>
</g>
<g>
</g>
<g>
</g>
<g>
</g>
<g>
</g>
<g>
</g>
<g>
</g>
<g>
</g>
<g>
</g>
<g>
</g>
<g>
</g>
<g>
</g>
<g>
</g>
<g>
</g>
<g>
</g>
<g>
</g>
</svg>
