<?xml version="1.0" encoding="iso-8859-1"?>
<!-- Generator: Adobe Illustrator 19.0.0, SVG Export Plug-In . SVG Version: 6.00 Build 0)  -->
<svg version="1.1" id="Capa_1" xmlns="http://www.w3.org/2000/svg" xmlns:xlink="http://www.w3.org/1999/xlink" x="0px" y="0px"
	 viewBox="0 0 512 512" style="enable-background:new 0 0 512 512;" xml:space="preserve">
<polygon style="fill:#344A5E;" points="363.733,460.8 148.267,460.8 160,421.333 352,421.333 "/>
<g>
	<polygon style="fill:#415A6B;" points="128,380.8 69.333,512 147.2,512 187.733,380.8 	"/>
	<polygon style="fill:#415A6B;" points="324.267,380.8 364.8,512 442.667,512 384,380.8 	"/>
</g>
<path style="fill:#F3F3F3;" d="M465.067,0H46.933C29.867,0,17.067,13.867,17.067,29.867v333.867h477.867V29.867
	C494.933,13.867,482.133,0,465.067,0z"/>
<path style="fill:#FFD15C;" d="M485.333,334.933H26.667C11.733,334.933,0,346.667,0,361.6s11.733,26.667,26.667,26.667h458.667
	c14.933,0,26.667-11.733,26.667-26.667S500.267,334.933,485.333,334.933z"/>
<rect x="73.6" y="168.533" style="fill:#66C6B9;" width="44.8" height="128"/>
<rect x="153.6" y="123.733" style="fill:#FFD15C;" width="44.8" height="172.8"/>
<rect x="233.6" y="198.4" style="fill:#F3705A;" width="44.8" height="99.2"/>
<rect x="313.6" y="163.2" style="fill:#55C0EB;" width="44.8" height="134.4"/>
<rect x="393.6" y="74.667" style="fill:#415A6B;" width="44.8" height="222.933"/>
<g>
</g>
<g>
</g>
<g>
</g>
<g>
</g>
<g>
</g>
<g>
</g>
<g>
</g>
<g>
</g>
<g>
</g>
<g>
</g>
<g>
</g>
<g>
</g>
<g>
</g>
<g>
</g>
<g>
</g>
</svg>
