<?xml version="1.0" encoding="iso-8859-1"?>
<!-- Generator: Adobe Illustrator 19.0.0, SVG Export Plug-In . SVG Version: 6.00 Build 0)  -->
<svg version="1.1" id="Capa_1" xmlns="http://www.w3.org/2000/svg" xmlns:xlink="http://www.w3.org/1999/xlink" x="0px" y="0px"
	 viewBox="0 0 512 512" style="enable-background:new 0 0 512 512;" xml:space="preserve">
<path style="fill:#E8EAE9;" d="M480,512H32c-18.133,0-32-13.867-32-32V32C0,13.867,13.867,0,32,0h448c18.133,0,32,13.867,32,32v448
	C512,498.133,498.133,512,480,512z"/>
<rect x="42.667" y="112" style="fill:#FFFFFF;" width="426.667" height="357.333"/>
<circle style="fill:#F3705A;" cx="65.067" cy="55.467" r="22.4"/>
<circle style="fill:#4ABAA5;" cx="133.333" cy="55.467" r="22.4"/>
<circle style="fill:#FFD15C;" cx="202.667" cy="55.467" r="22.4"/>
<path style="fill:#55C0EB;" d="M368,192l-9.6-21.333l-19.2,4.267c-2.133-2.133-4.267-4.267-6.4-6.4l4.267-20.267l-22.4-8.533
	L304,156.8c-3.2,0-6.4,0-9.6,0l-10.667-17.067l-21.333,9.6l4.267,19.2c-2.133,2.133-4.267,4.267-6.4,6.4l-19.2-4.267l-8.533,22.4
	l17.067,10.667c0,3.2,0,6.4,0,9.6L232.533,224l9.6,21.333l19.2-4.267c2.133,2.133,4.267,4.267,6.4,6.4l-4.267,19.2l22.4,8.533
	l10.667-17.067c3.2,0,6.4,0,9.6,0L316.8,275.2l21.333-9.6l-4.267-19.2c2.133-2.133,4.267-4.267,6.4-6.4l19.2,4.267l8.533-22.4
	L350.933,211.2c0-3.2,0-6.4,0-9.6L368,192z M312.533,238.933c-17.067,7.467-36.267,0-43.733-17.067s0-36.267,17.067-43.733
	s36.267,0,43.733,17.067S329.6,231.467,312.533,238.933z M306.133,222.933c-7.467,3.2-17.067,0-20.267-8.533
	c-3.2-7.467,0-17.067,8.533-20.267c7.467-3.2,17.067,0,20.267,8.533C317.867,210.133,313.6,219.733,306.133,222.933z"/>
<path style="fill:#415A6B;" d="M257.067,270.933l-19.2-19.2l-27.733,14.933c-4.267-2.133-9.6-4.267-14.933-6.4l-8.533-29.867
	h-27.733l-8.533,29.867c-5.333,1.067-9.6,3.2-14.933,6.4l-27.733-14.933l-19.2,19.2l14.933,27.733
	c-2.133,4.267-4.267,9.6-6.4,14.933L67.2,322.133v27.733l29.867,8.533c1.067,5.333,3.2,9.6,6.4,14.933l-14.933,27.733l19.2,19.2
	l27.733-14.933c4.267,2.133,9.6,4.267,14.933,6.4l8.533,29.867h27.733l8.533-29.867c5.333-1.067,9.6-3.2,14.933-6.4l27.733,14.933
	l19.2-19.2l-14.933-27.733c2.133-4.267,4.267-9.6,6.4-14.933l29.867-8.533v-27.733l-29.867-8.533c-1.067-5.333-3.2-9.6-6.4-14.933
	L257.067,270.933z M196.267,359.467c-12.8,12.8-34.133,12.8-46.933,0c-12.8-12.8-12.8-34.133,0-46.933
	c12.8-12.8,34.133-12.8,46.933,0C209.067,325.333,209.067,345.6,196.267,359.467z"/>
<path style="fill:#FFD15C;" d="M421.333,299.733l-17.067-13.867l-21.333,13.867c-4.267-2.133-8.533-3.2-11.733-3.2l-9.6-23.467
	l-22.4,2.133l-4.267,24.533c-4.267,2.133-7.467,3.2-11.733,6.4l-23.467-9.6L285.867,313.6l13.867,20.267
	c-2.133,4.267-3.2,8.533-3.2,12.8l-23.467,9.6l2.133,22.4l24.533,4.267c2.133,4.267,3.2,7.467,6.4,11.733l-9.6,23.467L313.6,432
	l20.267-13.867c4.267,2.133,8.533,3.2,12.8,3.2l9.6,23.467l22.4-2.133l4.267-24.533c4.267-2.133,7.467-3.2,11.733-6.4l23.467,9.6
	L432,404.267L418.133,384c2.133-4.267,3.2-8.533,3.2-12.8l23.467-9.6l-2.133-22.4l-24.533-4.267c-2.133-4.267-3.2-7.467-6.4-11.733
	L421.333,299.733z M379.733,375.467c-9.6,11.733-25.6,12.8-37.333,4.267c-11.733-9.6-12.8-25.6-4.267-37.333
	c9.6-11.733,25.6-12.8,37.333-4.267C387.2,347.733,388.267,363.733,379.733,375.467z"/>
<g>
</g>
<g>
</g>
<g>
</g>
<g>
</g>
<g>
</g>
<g>
</g>
<g>
</g>
<g>
</g>
<g>
</g>
<g>
</g>
<g>
</g>
<g>
</g>
<g>
</g>
<g>
</g>
<g>
</g>
</svg>
