<?xml version="1.0" encoding="iso-8859-1"?>
<!-- Generator: Adobe Illustrator 19.0.0, SVG Export Plug-In . SVG Version: 6.00 Build 0)  -->
<svg version="1.1" id="Capa_1" xmlns="http://www.w3.org/2000/svg" xmlns:xlink="http://www.w3.org/1999/xlink" x="0px" y="0px"
	 viewBox="0 0 512 512" style="enable-background:new 0 0 512 512;" xml:space="preserve">
<path style="fill:#F3F3F3;" d="M512,512l-11.733-51.2C496,443.733,483.2,429.867,467.2,424.533L418.133,409.6h-99.2l-49.067,14.933
	C252.8,429.867,240,443.733,236.8,460.8L224,512H512z"/>
<path style="fill:#F7B64C;" d="M398.933,376.533V390.4c-8.533,21.333-19.2,33.067-29.867,44.8
	c-11.733-12.8-21.333-23.467-29.867-44.8v-13.867c8.533-23.467,20.267-37.333,30.933-50.133
	C378.667,339.2,390.4,354.133,398.933,376.533z"/>
<polygon style="fill:#F3F3F3;" points="350.933,512 385.067,512 392.533,498.133 394.667,427.733 341.333,427.733 342.4,498.133 "/>
<g>
	<path style="fill:#F3705A;" d="M376.533,454.4l8.533-8.533c0,0-11.733-17.067-17.067-17.067c-6.4,0-17.067,17.067-17.067,17.067
		l8.533,8.533H376.533z"/>
	<polygon style="fill:#F3705A;" points="384,512 385.067,509.867 376.533,454.4 358.4,454.4 350.933,509.867 352,512 	"/>
</g>
<g>
	<polygon style="fill:#E8EAE9;" points="398.933,386.133 368,428.8 392.533,452.267 410.667,405.333 	"/>
	<polygon style="fill:#E8EAE9;" points="338.133,386.133 368,428.8 344.533,452.267 326.4,405.333 	"/>
</g>
<g>
	
		<ellipse transform="matrix(0.1029 -0.9947 0.9947 0.1029 60.1951 715.3383)" style="fill:#FFD15C;" cx="426.676" cy="324.297" rx="20.267" ry="12.8"/>
	
		<ellipse transform="matrix(0.1029 0.9947 -0.9947 0.1029 601.3881 -18.3938)" style="fill:#FFD15C;" cx="310.891" cy="324.208" rx="20.267" ry="12.8"/>
	<path style="fill:#FFD15C;" d="M424.533,300.8c1.067,5.333,2.133,11.733,2.133,18.133c0,41.6-25.6,75.733-57.6,75.733
		s-57.6-34.133-57.6-75.733c0-8.533,1.067-18.133,3.2-25.6c-6.4-23.467,5.333-28.8,14.933-29.867
		c10.667-12.8,23.467-20.267,39.467-20.267c14.933,0,28.8,7.467,39.467,20.267C422.4,266.667,435.2,276.267,424.533,300.8z"/>
</g>
<g>
	<path style="fill:#344A5E;" d="M422.4,308.267c0,0,3.2-33.067-9.6-39.467c-13.867-6.4-23.467,0-32,5.333
		c-5.333,3.2-7.467,6.4-11.733,6.4s-6.4-2.133-11.733-6.4c-8.533-5.333-18.133-11.733-32-5.333c-13.867,6.4-9.6,39.467-9.6,39.467
		V332.8c-5.333-9.6-8.533-21.333-9.6-34.133c-1.067-54.4,27.733-71.467,62.933-71.467s64,17.067,62.933,71.467
		c0,12.8-3.2,24.533-9.6,34.133L422.4,308.267L422.4,308.267z"/>
	<path style="fill:#344A5E;" d="M292.267,512L281.6,461.867c-4.267-17.067-17.067-32-34.133-37.333l-50.133-16h-102.4l-50.133,16
		c-17.067,5.333-29.867,19.2-34.133,37.333L0,512H292.267z"/>
</g>
<path style="fill:#F7B64C;" d="M177.067,375.467v13.867c-9.6,22.4-19.2,33.067-30.933,45.867
	C134.4,422.4,124.8,410.667,115.2,389.333v-13.867c8.533-23.467,21.333-38.4,30.933-51.2C156.8,337.067,168.533,352,177.067,375.467
	z"/>
<polygon style="fill:#FFFFFF;" points="128,512 163.2,512 172.8,502.4 183.467,427.733 107.733,427.733 119.467,502.4 "/>
<g>
	<path style="fill:#55C0EB;" d="M156.8,457.6l9.6-9.6c0,0-12.8-20.267-20.267-20.267c-7.467,0-20.267,20.267-20.267,20.267l9.6,9.6
		H156.8z"/>
	<polygon style="fill:#55C0EB;" points="163.2,512 163.2,510.933 156.8,457.6 135.467,457.6 128,510.933 128,512 	"/>
</g>
<g>
	<polygon style="fill:#F3F3F3;" points="177.067,385.067 146.133,428.8 170.667,452.267 188.8,405.333 	"/>
	<polygon style="fill:#F3F3F3;" points="115.2,385.067 146.133,428.8 122.667,452.267 103.467,405.333 	"/>
</g>
<g>
	
		<ellipse transform="matrix(0.1029 -0.9947 0.9947 0.1029 -136.6475 492.7246)" style="fill:#FFD15C;" cx="204.839" cy="322.119" rx="21.334" ry="12.8"/>
	
		<ellipse transform="matrix(0.1029 0.9947 -0.9947 0.1029 399.5851 202.5746)" style="fill:#FFD15C;" cx="87.487" cy="322.814" rx="21.334" ry="12.8"/>
</g>
<path style="fill:#344A5E;" d="M210.133,296.533c0,12.8-3.2,24.533-9.6,34.133H90.667c-5.333-9.6-8.533-22.4-9.6-34.133
	C80,241.067,108.8,224,145.067,224C182.4,225.067,211.2,242.133,210.133,296.533z"/>
<path style="fill:#FFD15C;" d="M161.067,263.467c-16,18.133-39.467,29.867-71.467,29.867l0,0c-2.133,7.467-3.2,16-3.2,24.533
	c0,42.667,26.667,76.8,58.667,76.8s58.667-34.133,58.667-76.8c0-8.533-1.067-16-3.2-23.467
	C184.533,288,171.733,277.333,161.067,263.467z"/>
<g>
	<polygon style="fill:#415A6B;" points="192,512 213.333,470.4 199.467,452.267 224,436.267 183.467,396.8 162.133,512 	"/>
	<polygon style="fill:#415A6B;" points="77.867,470.4 99.2,512 129.067,512 108.8,396.8 68.267,436.267 92.8,452.267 	"/>
</g>
<path style="fill:#8AD7F8;" d="M245.333,70.4v93.867c0,10.667,8.533,20.267,20.267,20.267h91.733l43.733,29.867v-29.867h5.333
	c10.667,0,20.267-8.533,20.267-20.267V70.4c0-10.667-8.533-20.267-20.267-20.267H265.6C253.867,51.2,245.333,59.733,245.333,70.4z"
	/>
<g>
	<circle style="fill:#FFFFFF;" cx="385.067" cy="117.333" r="16"/>
	<circle style="fill:#FFFFFF;" cx="336" cy="117.333" r="16"/>
	<circle style="fill:#FFFFFF;" cx="286.933" cy="117.333" r="16"/>
</g>
<path style="fill:#F3705A;" d="M266.667,20.267v93.867c0,10.667-8.533,20.267-20.267,20.267h-91.733l-43.733,29.867V134.4H105.6
	c-10.667,0-20.267-8.533-20.267-20.267V20.267C85.333,8.533,94.933,0,105.6,0h140.8C258.133,0,266.667,8.533,266.667,20.267z"/>
<g>
	<circle style="fill:#FFFFFF;" cx="126.933" cy="67.2" r="16"/>
	<circle style="fill:#FFFFFF;" cx="176" cy="67.2" r="16"/>
	<circle style="fill:#FFFFFF;" cx="225.067" cy="67.2" r="16"/>
</g>
<g>
</g>
<g>
</g>
<g>
</g>
<g>
</g>
<g>
</g>
<g>
</g>
<g>
</g>
<g>
</g>
<g>
</g>
<g>
</g>
<g>
</g>
<g>
</g>
<g>
</g>
<g>
</g>
<g>
</g>
</svg>
