<?xml version="1.0" encoding="iso-8859-1"?>
<!-- Generator: Adobe Illustrator 19.0.0, SVG Export Plug-In . SVG Version: 6.00 Build 0)  -->
<svg version="1.1" id="Capa_1" xmlns="http://www.w3.org/2000/svg" xmlns:xlink="http://www.w3.org/1999/xlink" x="0px" y="0px"
	 viewBox="0 0 512 512" style="enable-background:new 0 0 512 512;" xml:space="preserve">
<path style="fill:#415A6B;" d="M256,394.267l251.733-204.8c-3.2-6.4-7.467-11.733-12.8-16L281.6,9.2
	c-14.933-11.733-36.267-11.733-51.2,0L17.067,173.467c-5.333,4.267-9.6,9.6-12.8,16L256,394.267z"/>
<path style="fill:#F3F3F3;" d="M414.933,25.2H160l-94.933,94.933v277.333h381.867V57.2C446.933,40.133,433.067,25.2,414.933,25.2z"
	/>
<polygon style="fill:#F3705A;" points="160,25.2 160,120.133 65.067,120.133 "/>
<path style="fill:#8AD7F8;" d="M377.6,227.867v-34.133l-32-8.533c-2.133-6.4-4.267-13.867-8.533-19.2l17.067-28.8l-23.467-24.533
	l-28.8,17.067c-6.4-3.2-12.8-6.4-19.2-8.533l-8.533-32H240l-8.533,32c-6.4,2.133-12.8,4.267-19.2,8.533l-30.933-17.067L156.8,137.2
	l17.067,28.8c-3.2,6.4-6.4,12.8-8.533,19.2l-32,8.533v34.133l32,8.533c2.133,6.4,4.267,12.8,8.533,19.2L156.8,284.4l24.533,24.533
	l28.8-17.067c6.4,3.2,12.8,6.4,19.2,8.533l8.533,32H272l8.533-32c6.4-2.133,13.867-4.267,19.2-8.533l28.8,17.067l24.533-24.533
	L336,255.6c3.2-6.4,6.4-12.8,8.533-19.2L377.6,227.867z M256,235.333c-12.8,0-23.467-10.667-23.467-23.467
	c0-12.8,10.667-23.467,23.467-23.467c12.8,0,23.467,10.667,23.467,23.467C279.467,224.667,268.8,235.333,256,235.333z"/>
<path style="fill:#55C0EB;" d="M256,153.2c-32,0-58.667,25.6-58.667,58.667c0,32,25.6,58.667,58.667,58.667
	c32,0,57.6-25.6,57.6-58.667C314.667,178.8,288,153.2,256,153.2z M256,235.333c-12.8,0-23.467-10.667-23.467-23.467
	c0-12.8,10.667-23.467,23.467-23.467c12.8,0,23.467,10.667,23.467,23.467C279.467,224.667,268.8,235.333,256,235.333z"/>
<path style="fill:#FFD15C;" d="M512,206.533v262.4c0,23.467-19.2,42.667-42.667,42.667H42.667C19.2,511.6,0,492.4,0,468.933v-262.4
	c0-6.4,1.067-12.8,4.267-18.133L256,394.267l251.733-204.8C510.933,193.733,512,200.133,512,206.533z"/>
<path style="fill:#F7B64C;" d="M500.267,497.733c-7.467,8.533-18.133,13.867-30.933,13.867H42.667c-12.8,0-23.467-5.333-32-13.867
	l192-147.2L256,394.267l53.333-43.733L500.267,497.733z"/>
<g>
</g>
<g>
</g>
<g>
</g>
<g>
</g>
<g>
</g>
<g>
</g>
<g>
</g>
<g>
</g>
<g>
</g>
<g>
</g>
<g>
</g>
<g>
</g>
<g>
</g>
<g>
</g>
<g>
</g>
</svg>
