<?xml version="1.0" encoding="iso-8859-1"?>
<!-- Generator: Adobe Illustrator 19.0.0, SVG Export Plug-In . SVG Version: 6.00 Build 0)  -->
<svg version="1.1" id="Capa_1" xmlns="http://www.w3.org/2000/svg" xmlns:xlink="http://www.w3.org/1999/xlink" x="0px" y="0px"
	 viewBox="0 0 512 512" style="enable-background:new 0 0 512 512;" xml:space="preserve">
<path style="fill:#F7B64C;" d="M467.2,294.4V169.6c0-11.733-9.6-21.333-21.333-21.333H192L170.667,102.4
	c-3.2-7.467-10.667-11.733-19.2-11.733H66.133C54.4,90.667,44.8,100.267,44.8,112v182.4L467.2,294.4L467.2,294.4z"/>
<path style="fill:#F3F3F3;" d="M424.533,102.4v219.733c0,11.733-9.6,21.333-21.333,21.333H108.8c-11.733,0-21.333-9.6-21.333-21.333
	v-300.8C87.467,9.6,97.067,0,108.8,0h212.267L424.533,102.4z"/>
<g>
	<rect x="130.133" y="204.8" style="fill:#8AD7F8;" width="250.667" height="29.867"/>
	<rect x="130.133" y="128" style="fill:#8AD7F8;" width="250.667" height="29.867"/>
	<rect x="130.133" y="51.2" style="fill:#8AD7F8;" width="151.467" height="29.867"/>
</g>
<path style="fill:#FFD15C;" d="M11.733,294.4l30.933,199.467C43.733,504.533,53.333,512,64,512h384
	c10.667,0,19.2-7.467,21.333-18.133L500.267,294.4c2.133-12.8-8.533-24.533-21.333-24.533H33.067
	C20.267,269.867,9.6,281.6,11.733,294.4z"/>
<polygon style="fill:#CED6E0;" points="424.533,102.4 322.133,102.4 322.133,0 "/>
<g>
</g>
<g>
</g>
<g>
</g>
<g>
</g>
<g>
</g>
<g>
</g>
<g>
</g>
<g>
</g>
<g>
</g>
<g>
</g>
<g>
</g>
<g>
</g>
<g>
</g>
<g>
</g>
<g>
</g>
</svg>
