<?xml version="1.0" encoding="iso-8859-1"?>
<!-- Generator: Adobe Illustrator 19.0.0, SVG Export Plug-In . SVG Version: 6.00 Build 0)  -->
<svg version="1.1" id="Capa_1" xmlns="http://www.w3.org/2000/svg" xmlns:xlink="http://www.w3.org/1999/xlink" x="0px" y="0px"
	 viewBox="0 0 512 512" style="enable-background:new 0 0 512 512;" xml:space="preserve">
<polygon style="fill:#344A5E;" points="403.2,500.267 108.8,500.267 131.2,459.733 186.667,459.733 186.667,409.6 325.333,409.6 
	325.333,459.733 380.8,459.733 "/>
<path style="fill:#415A6B;" d="M487.467,11.733H24.533C10.667,11.733,0,23.467,0,36.267V390.4C0,404.267,10.667,416,24.533,416
	h462.933C501.333,416,512,405.333,512,391.467v-355.2C512,23.467,501.333,11.733,487.467,11.733z"/>
<rect x="45.867" y="57.6" style="fill:#8AD7F8;" width="420.267" height="260.267"/>
<circle style="fill:#344A5E;" cx="251.733" cy="365.867" r="17.067"/>
<rect x="250.667" y="129.067" style="fill:#F3F3F3;" width="10.667" height="118.4"/>
<rect x="133.333" y="241.067" style="fill:#F3F3F3;" width="244.267" height="10.667"/>
<circle style="fill:#F3705A;" cx="256" cy="129.067" r="25.6"/>
<path style="fill:#F3F3F3;" d="M256,158.933c-17.067,0-30.933-13.867-30.933-30.933S238.933,97.067,256,97.067
	s30.933,13.867,30.933,30.933C286.933,146.133,273.067,158.933,256,158.933z M256,108.8c-10.667,0-20.267,8.533-20.267,20.267
	c0,10.667,8.533,20.267,20.267,20.267c10.667,0,20.267-8.533,20.267-20.267C276.267,117.333,266.667,108.8,256,108.8z"/>
<circle style="fill:#F3705A;" cx="256" cy="246.4" r="25.6"/>
<path style="fill:#F3F3F3;" d="M256,277.333c-17.067,0-30.933-13.867-30.933-30.933s13.867-30.933,30.933-30.933
	s30.933,13.867,30.933,30.933S273.067,277.333,256,277.333z M256,227.2c-10.667,0-20.267,8.533-20.267,20.267
	c0,10.667,8.533,20.267,20.267,20.267c10.667,0,20.267-8.533,20.267-20.267S266.667,227.2,256,227.2z"/>
<circle style="fill:#F3705A;" cx="378.667" cy="246.4" r="25.6"/>
<path style="fill:#F3F3F3;" d="M378.667,277.333c-17.067,0-30.933-13.867-30.933-30.933s13.867-30.933,30.933-30.933
	c17.067,0,30.933,13.867,30.933,30.933C408.533,263.467,394.667,277.333,378.667,277.333z M378.667,227.2
	c-10.667,0-20.267,8.533-20.267,20.267c0,10.667,8.533,20.267,20.267,20.267c10.667,0,20.267-8.533,20.267-20.267
	C397.867,235.733,389.333,227.2,378.667,227.2z"/>
<circle style="fill:#F3705A;" cx="133.333" cy="246.4" r="25.6"/>
<path style="fill:#F3F3F3;" d="M133.333,277.333c-17.067,0-30.933-13.867-30.933-30.933s13.867-30.933,30.933-30.933
	s30.933,13.867,30.933,30.933S150.4,277.333,133.333,277.333z M133.333,227.2c-10.667,0-20.267,8.533-20.267,20.267
	c0,10.667,8.533,20.267,20.267,20.267c10.667,0,20.267-8.533,20.267-20.267S145.067,227.2,133.333,227.2z"/>
<g>
</g>
<g>
</g>
<g>
</g>
<g>
</g>
<g>
</g>
<g>
</g>
<g>
</g>
<g>
</g>
<g>
</g>
<g>
</g>
<g>
</g>
<g>
</g>
<g>
</g>
<g>
</g>
<g>
</g>
</svg>
