<?xml version="1.0" encoding="iso-8859-1"?>
<!-- Generator: Adobe Illustrator 19.0.0, SVG Export Plug-In . SVG Version: 6.00 Build 0)  -->
<svg version="1.1" id="Capa_1" xmlns="http://www.w3.org/2000/svg" xmlns:xlink="http://www.w3.org/1999/xlink" x="0px" y="0px"
	 viewBox="0 0 512 512" style="enable-background:new 0 0 512 512;" xml:space="preserve">
<path style="fill:#F3F3F3;" d="M437.333,0h-275.2l-108.8,108.8v381.867c0,11.733,9.6,21.333,21.333,21.333h362.667
	c11.733,0,21.333-9.6,21.333-21.333V21.333C458.667,9.6,449.067,0,437.333,0z"/>
<polygon style="fill:#55C0EB;" points="162.133,0 53.333,108.8 162.133,108.8 "/>
<path style="fill:#415A6B;" d="M398.933,436.267h-275.2V156.8c0-6.4-4.267-10.667-10.667-10.667S102.4,150.4,102.4,156.8v290.133
	c0,6.4,4.267,10.667,10.667,10.667H400c6.4,0,10.667-4.267,10.667-10.667C409.6,440.533,405.333,436.267,398.933,436.267z"/>
<rect x="152.533" y="360.533" style="fill:#FFD15C;" width="41.6" height="45.867"/>
<rect x="225.067" y="259.2" style="fill:#F3705A;" width="41.6" height="147.2"/>
<rect x="296.533" y="305.067" style="fill:#415A6B;" width="41.6" height="101.333"/>
<rect x="369.067" y="194.133" style="fill:#4ABAA5;" width="41.6" height="213.333"/>
<g>
</g>
<g>
</g>
<g>
</g>
<g>
</g>
<g>
</g>
<g>
</g>
<g>
</g>
<g>
</g>
<g>
</g>
<g>
</g>
<g>
</g>
<g>
</g>
<g>
</g>
<g>
</g>
<g>
</g>
</svg>
