<?xml version="1.0" encoding="iso-8859-1"?>
<!-- Generator: Adobe Illustrator 19.0.0, SVG Export Plug-In . SVG Version: 6.00 Build 0)  -->
<svg version="1.1" id="Capa_1" xmlns="http://www.w3.org/2000/svg" xmlns:xlink="http://www.w3.org/1999/xlink" x="0px" y="0px"
	 viewBox="0 0 512 512" style="enable-background:new 0 0 512 512;" xml:space="preserve">
<path style="fill:#F7B64C;" d="M244.267,43.791l19.2,38.4H480c18.133,0,32,13.867,32,32v339.2c0,18.133-13.867,32-32,32H32
	c-18.133,0-32-13.867-32-32V58.724c0-18.133,13.867-32,32-32h183.467C228.267,25.658,238.933,32.058,244.267,43.791z"/>
<path style="fill:#FFD15C;" d="M342.4,99.258l-19.2,38.4H32c-18.133,0-32,13.867-32,32v282.667c0,18.133,13.867,32,32,32h448
	c18.133,0,32-13.867,32-32v-339.2c0-18.133-13.867-32-32-32H371.2C358.4,81.124,347.733,88.591,342.4,99.258z"/>
<g>
	<rect x="265.6" y="212.324" style="fill:#FFFFFF;" width="203.733" height="32"/>
	<rect x="265.6" y="297.658" style="fill:#FFFFFF;" width="203.733" height="32"/>
	<rect x="265.6" y="381.924" style="fill:#FFFFFF;" width="203.733" height="32"/>
</g>
<g>
	<path style="fill:#415A6B;" d="M240,416.058c-3.2-52.267-45.867-92.8-99.2-92.8c-52.267,0-96,41.6-99.2,92.8H240z"/>
	<circle style="fill:#415A6B;" cx="141.867" cy="246.458" r="49.067"/>
</g>
<g>
</g>
<g>
</g>
<g>
</g>
<g>
</g>
<g>
</g>
<g>
</g>
<g>
</g>
<g>
</g>
<g>
</g>
<g>
</g>
<g>
</g>
<g>
</g>
<g>
</g>
<g>
</g>
<g>
</g>
</svg>
