<?xml version="1.0" encoding="iso-8859-1"?>
<!-- Generator: Adobe Illustrator 19.0.0, SVG Export Plug-In . SVG Version: 6.00 Build 0)  -->
<svg version="1.1" id="Capa_1" xmlns="http://www.w3.org/2000/svg" xmlns:xlink="http://www.w3.org/1999/xlink" x="0px" y="0px"
	 viewBox="0 0 512 512" style="enable-background:new 0 0 512 512;" xml:space="preserve">
<path style="fill:#66C6B9;" d="M421.867,51.2h-332.8c-18.133,0-32,14.933-32,32V480c0,18.133,14.933,32,32,32h333.867
	c18.133,0,32-14.933,32-32V83.2C454.933,66.133,440,51.2,421.867,51.2z"/>
<rect x="99.733" y="94.933" style="fill:#FFFFFF;" width="311.467" height="374.4"/>
<rect x="216" y="322.133" style="fill:#E8EAE9;" width="157.867" height="27.733"/>
<rect x="137.067" y="310.4" style="fill:#FFD15C;" width="51.2" height="51.2"/>
<rect x="216" y="390.4" style="fill:#E8EAE9;" width="157.867" height="27.733"/>
<rect x="137.067" y="378.667" style="fill:#415A6B;" width="51.2" height="51.2"/>
<rect x="216" y="252.8" style="fill:#E8EAE9;" width="157.867" height="27.733"/>
<rect x="137.067" y="241.067" style="fill:#55C0EB;" width="51.2" height="51.2"/>
<rect x="216" y="184.533" style="fill:#E8EAE9;" width="157.867" height="27.733"/>
<rect x="137.067" y="172.8" style="fill:#F3705A;" width="51.2" height="51.2"/>
<path style="fill:#415A6B;" d="M326.933,39.467h-32C294.933,17.067,276.8,0,255.467,0S216,17.067,216,39.467h-32
	c-11.733,0-21.333,9.6-21.333,21.333v54.4h185.6V59.733C348.267,48,338.667,39.467,326.933,39.467z M255.467,50.133
	c-6.4,0-11.733-5.333-11.733-11.733s5.333-11.733,11.733-11.733S267.2,32,267.2,38.4S261.867,50.133,255.467,50.133z"/>
<g>
</g>
<g>
</g>
<g>
</g>
<g>
</g>
<g>
</g>
<g>
</g>
<g>
</g>
<g>
</g>
<g>
</g>
<g>
</g>
<g>
</g>
<g>
</g>
<g>
</g>
<g>
</g>
<g>
</g>
</svg>
