<?xml version="1.0" encoding="iso-8859-1"?>
<!-- Generator: Adobe Illustrator 19.0.0, SVG Export Plug-In . SVG Version: 6.00 Build 0)  -->
<svg version="1.1" id="Capa_1" xmlns="http://www.w3.org/2000/svg" xmlns:xlink="http://www.w3.org/1999/xlink" x="0px" y="0px"
	 viewBox="0 0 512 512" style="enable-background:new 0 0 512 512;" xml:space="preserve">
<path style="fill:#66C6B9;" d="M426.667,43.733H85.333c-18.133,0-32,13.867-32,32V480c0,18.133,13.867,32,32,32h341.333
	c18.133,0,32-13.867,32-32V75.733C458.667,57.6,443.733,43.733,426.667,43.733z"/>
<polygon style="fill:#FFFFFF;" points="96,86.4 96,469.333 337.067,469.333 416,390.4 416,86.4 "/>
<g>
	<rect x="138.667" y="165.333" style="fill:#E8EAE9;" width="234.667" height="29.867"/>
	<rect x="138.667" y="241.067" style="fill:#E8EAE9;" width="234.667" height="29.867"/>
	<rect x="138.667" y="316.8" style="fill:#E8EAE9;" width="234.667" height="29.867"/>
	<rect x="138.667" y="392.533" style="fill:#E8EAE9;" width="102.4" height="29.867"/>
</g>
<path style="fill:#415A6B;" d="M347.733,43.733v53.333c0,8.533-6.4,14.933-14.933,14.933H178.133c-8.533,0-14.933-6.4-14.933-14.933
	V43.733c0-8.533,6.4-14.933,14.933-14.933h27.733l8.533-18.133C217.6,4.267,222.933,0,230.4,0h52.267c6.4,0,12.8,4.267,16,10.667
	l7.467,18.133h27.733C341.333,28.8,347.733,35.2,347.733,43.733z"/>
<polygon style="fill:#CED6E0;" points="337.067,469.333 416,390.4 337.067,390.4 "/>
<g>
</g>
<g>
</g>
<g>
</g>
<g>
</g>
<g>
</g>
<g>
</g>
<g>
</g>
<g>
</g>
<g>
</g>
<g>
</g>
<g>
</g>
<g>
</g>
<g>
</g>
<g>
</g>
<g>
</g>
</svg>
