<?xml version="1.0" encoding="iso-8859-1"?>
<!-- Generator: Adobe Illustrator 19.0.0, SVG Export Plug-In . SVG Version: 6.00 Build 0)  -->
<svg version="1.1" id="Capa_1" xmlns="http://www.w3.org/2000/svg" xmlns:xlink="http://www.w3.org/1999/xlink" x="0px" y="0px"
	 viewBox="0 0 512 512" style="enable-background:new 0 0 512 512;" xml:space="preserve">
<path style="fill:#F3F3F3;" d="M439.467,0H195.2l-144,144v346.667C51.2,502.4,60.8,512,72.533,512h366.933
	c11.733,0,21.333-9.6,21.333-21.333V21.333C460.8,9.6,451.2,0,439.467,0z"/>
<g>
	<rect x="103.467" y="433.067" style="fill:#CED6E0;" width="304" height="23.467"/>
	<rect x="103.467" y="352" style="fill:#CED6E0;" width="304" height="23.467"/>
	<rect x="103.467" y="270.933" style="fill:#CED6E0;" width="304" height="23.467"/>
	<rect x="103.467" y="190.933" style="fill:#CED6E0;" width="114.133" height="23.467"/>
</g>
<polygon style="fill:#8AD7F8;" points="195.2,0 51.2,144 195.2,144 "/>
<g>
	<circle style="fill:#415A6B;" cx="324.267" cy="81.067" r="38.4"/>
	<path style="fill:#415A6B;" d="M241.067,214.4c2.133-44.8,38.4-80,83.2-80s81.067,35.2,83.2,80H241.067z"/>
</g>
<g>
</g>
<g>
</g>
<g>
</g>
<g>
</g>
<g>
</g>
<g>
</g>
<g>
</g>
<g>
</g>
<g>
</g>
<g>
</g>
<g>
</g>
<g>
</g>
<g>
</g>
<g>
</g>
<g>
</g>
</svg>
