<?xml version="1.0" encoding="iso-8859-1"?>
<!-- Generator: Adobe Illustrator 19.0.0, SVG Export Plug-In . SVG Version: 6.00 Build 0)  -->
<svg version="1.1" id="Capa_1" xmlns="http://www.w3.org/2000/svg" xmlns:xlink="http://www.w3.org/1999/xlink" x="0px" y="0px"
	 viewBox="0 0 513.067 513.067" style="enable-background:new 0 0 513.067 513.067;" xml:space="preserve">
<g>
	<path style="fill:#E8EAE9;" d="M256.533,485.333C129.6,485.333,27.2,382.933,27.2,256S129.6,26.667,256.533,26.667
		S485.867,129.067,485.867,256S383.467,485.333,256.533,485.333z M256.533,57.6c-109.867,0-198.4,88.533-198.4,198.4
		s89.6,198.4,198.4,198.4s198.4-88.533,198.4-198.4S366.4,57.6,256.533,57.6z"/>
	<path style="fill:#E8EAE9;" d="M256.533,389.333C182.933,389.333,123.2,329.6,123.2,256s59.733-133.333,133.333-133.333
		S389.867,182.4,389.867,256S330.133,389.333,256.533,389.333z M256.533,153.6c-56.533,0-102.4,45.867-102.4,102.4
		S200,358.4,256.533,358.4s102.4-45.867,102.4-102.4S313.067,153.6,256.533,153.6z"/>
</g>
<path style="fill:#415A6B;" d="M512.533,256c0,8.533-7.467,16-16,16H303.467c-5.333,14.933-17.067,26.667-30.933,32v193.067
	c0,8.533-7.467,16-16,16s-16-7.467-16-16V302.933c-14.933-5.333-26.667-17.067-32-32h-192c-8.533,1.067-16-6.4-16-14.933
	s7.467-16,16-16H209.6c5.333-14.933,17.067-26.667,32-32V16c-1.067-8.533,6.4-16,14.933-16s16,7.467,16,16v193.067
	c14.933,5.333,26.667,17.067,30.933,32h193.067C505.067,240,512.533,247.467,512.533,256z"/>
<g>
</g>
<g>
</g>
<g>
</g>
<g>
</g>
<g>
</g>
<g>
</g>
<g>
</g>
<g>
</g>
<g>
</g>
<g>
</g>
<g>
</g>
<g>
</g>
<g>
</g>
<g>
</g>
<g>
</g>
</svg>
