<?xml version="1.0" encoding="iso-8859-1"?>
<!-- Generator: Adobe Illustrator 19.0.0, SVG Export Plug-In . SVG Version: 6.00 Build 0)  -->
<svg version="1.1" id="Capa_1" xmlns="http://www.w3.org/2000/svg" xmlns:xlink="http://www.w3.org/1999/xlink" x="0px" y="0px"
	 viewBox="0 0 512 512" style="enable-background:new 0 0 512 512;" xml:space="preserve">
<path style="fill:#415A6B;" d="M469.333,0H42.667C19.2,0,0,19.2,0,42.667v426.667C0,492.8,19.2,512,42.667,512h426.667
	C492.8,512,512,492.8,512,469.333V42.667C512,19.2,492.8,0,469.333,0z"/>
<rect x="42.667" y="109.867" style="fill:#F3F3F3;" width="426.667" height="359.467"/>
<g>
	<circle style="fill:#FFFFFF;" cx="68.267" cy="55.467" r="25.6"/>
	<circle style="fill:#FFFFFF;" cx="148.267" cy="55.467" r="25.6"/>
	<circle style="fill:#FFFFFF;" cx="228.267" cy="55.467" r="25.6"/>
</g>
<path style="fill:#F3705A;" d="M256,438.4c-82.133,0-148.267-67.2-148.267-148.267c0-82.133,67.2-148.267,148.267-148.267
	c82.133,0,148.267,67.2,148.267,148.267S338.133,438.4,256,438.4z"/>
<path style="fill:#FFFFFF;" d="M256,400c-60.8,0-109.867-49.067-109.867-109.867S195.2,180.267,256,180.267
	s109.867,49.067,109.867,109.867C365.867,349.867,316.8,400,256,400z"/>
<path style="fill:#F3705A;" d="M256,360.533c-39.467,0-71.467-32-71.467-71.467s32-71.467,71.467-71.467s71.467,32,71.467,71.467
	S295.467,360.533,256,360.533z"/>
<circle style="fill:#FFFFFF;" cx="256" cy="290.133" r="32"/>
<g>
	<path style="fill:#415A6B;" d="M407.467,137.6c-3.2-3.2-7.467-3.2-9.6,0L249.6,285.867c-3.2,3.2-3.2,7.467,0,9.6
		c3.2,3.2,7.467,3.2,9.6,0l147.2-147.2C410.667,145.067,410.667,140.8,407.467,137.6z"/>
	<polygon style="fill:#415A6B;" points="424.533,170.667 358.4,186.667 375.467,121.6 391.467,153.6 	"/>
</g>
<g>
</g>
<g>
</g>
<g>
</g>
<g>
</g>
<g>
</g>
<g>
</g>
<g>
</g>
<g>
</g>
<g>
</g>
<g>
</g>
<g>
</g>
<g>
</g>
<g>
</g>
<g>
</g>
<g>
</g>
</svg>
