<?xml version="1.0" encoding="iso-8859-1"?>
<!-- Generator: Adobe Illustrator 19.0.0, SVG Export Plug-In . SVG Version: 6.00 Build 0)  -->
<svg version="1.1" id="Capa_1" xmlns="http://www.w3.org/2000/svg" xmlns:xlink="http://www.w3.org/1999/xlink" x="0px" y="0px"
	 viewBox="0 0 512 512" style="enable-background:new 0 0 512 512;" xml:space="preserve">
<path style="fill:#FFD15C;" d="M422.4,66.133H89.6c-17.067,0-30.933,13.867-30.933,30.933v384C58.667,498.133,72.533,512,89.6,512
	h332.8c17.067,0,30.933-13.867,30.933-30.933v-384C453.333,80,439.467,66.133,422.4,66.133z"/>
<rect x="100.267" y="107.733" style="fill:#FFFFFF;" width="311.467" height="363.733"/>
<g>
	<path style="fill:#415A6B;" d="M371.2,418.133h-16v-54.4H155.733v54.4h-16v-57.6c0-6.4,5.333-11.733,11.733-11.733h209.067
		c6.4,0,11.733,5.333,11.733,11.733v57.6H371.2z"/>
	<polygon style="fill:#415A6B;" points="212.267,357.333 212.267,418.133 227.2,418.133 227.2,363.733 283.733,363.733 
		283.733,418.133 299.733,418.133 299.733,357.333 	"/>
</g>
<g>
	<circle style="fill:#F3705A;" cx="148.267" cy="418.133" r="23.467"/>
	<circle style="fill:#F3705A;" cx="219.733" cy="418.133" r="23.467"/>
	<circle style="fill:#F3705A;" cx="292.267" cy="418.133" r="23.467"/>
	<circle style="fill:#F3705A;" cx="363.733" cy="418.133" r="23.467"/>
</g>
<g>
	<rect x="248.533" y="279.467" style="fill:#415A6B;" width="16" height="76.8"/>
	<polygon style="fill:#415A6B;" points="263.467,286.933 150.4,286.933 150.4,272 248.533,272 248.533,168.533 263.467,168.533 	"/>
	<rect x="256" y="272" style="fill:#415A6B;" width="105.6" height="16"/>
</g>
<g>
	<circle style="fill:#F3705A;" cx="256" cy="168.533" r="25.6"/>
	<circle style="fill:#F3705A;" cx="150.4" cy="279.467" r="25.6"/>
	<circle style="fill:#F3705A;" cx="361.6" cy="279.467" r="25.6"/>
	<rect x="221.867" y="245.333" style="fill:#F3705A;" width="69.333" height="69.333"/>
</g>
<path style="fill:#415A6B;" d="M323.2,49.067h-27.733C295.467,29.867,278.4,0,256,0c-22.4,0-39.467,29.867-39.467,49.067H188.8
	c-11.733,0-21.333,9.6-21.333,21.333v53.333h177.067V70.4C344.533,58.667,334.933,49.067,323.2,49.067z M256,19.2
	c5.333,0,9.6,5.333,9.6,11.733c0,7.467-4.267,11.733-9.6,11.733c-5.333,0-9.6-5.333-9.6-11.733S250.667,19.2,256,19.2z"/>
<g>
</g>
<g>
</g>
<g>
</g>
<g>
</g>
<g>
</g>
<g>
</g>
<g>
</g>
<g>
</g>
<g>
</g>
<g>
</g>
<g>
</g>
<g>
</g>
<g>
</g>
<g>
</g>
<g>
</g>
</svg>
