<?xml version="1.0" encoding="iso-8859-1"?>
<!-- Generator: Adobe Illustrator 19.0.0, SVG Export Plug-In . SVG Version: 6.00 Build 0)  -->
<svg version="1.1" id="Capa_1" xmlns="http://www.w3.org/2000/svg" xmlns:xlink="http://www.w3.org/1999/xlink" x="0px" y="0px"
	 viewBox="0 0 511.007 511.007" style="enable-background:new 0 0 511.007 511.007;" xml:space="preserve">
<path style="fill:#F3705A;" d="M464,243.77c-14.933,1.067-29.867-4.267-41.6-13.867c-11.733-9.6-19.2-23.467-22.4-38.4
	c-2.133-7.467-3.2-14.933-1.067-23.467c2.133-7.467,5.333-13.867,10.667-19.2c5.333-5.333,10.667-10.667,16-14.933l1.067,3.2
	c-5.333,19.2,4.267,28.8,13.867,37.333c3.2,2.133,4.267,6.4,5.333,9.6c3.2,7.467,1.067,14.933,1.067,22.4
	c0,11.733,6.4,21.333,14.933,28.8L464,243.77z"/>
<path style="fill:#415A6B;" d="M487.467,300.304l1.067-5.333c0,0,1.067-43.733-20.267-56.533
	c-22.4-13.867-33.067-21.333-33.067-21.333l-82.133,10.667l-18.133,8.533c-11.733,6.4-20.267,18.133-22.4,30.933l-5.333,33.067
	H487.467z"/>
<polygon style="fill:#E8EAE9;" points="353.067,300.304 386.133,253.37 425.6,196.837 349.867,262.97 331.733,300.304 "/>
<g>
	<polygon style="fill:#344A5E;" points="385.067,300.304 411.733,261.904 392.533,262.97 417.067,252.304 435.2,217.104 
		425.6,196.837 386.133,253.37 353.067,300.304 	"/>
	<polygon style="fill:#344A5E;" points="331.733,300.304 349.867,262.97 330.667,258.704 314.667,300.304 	"/>
</g>
<path style="fill:#F7B64C;" d="M359.467,195.77c0,0,9.6,20.267,8.533,26.667c-1.067,6.4-9.6,23.467-8.533,24.533
	c1.067,1.067-8.533,32-8.533,32s9.6-13.867,14.933-16c0,0,6.4-11.733,8.533-13.867l26.667-41.6l11.733-22.4c0,0-5.333-12.8,0-23.467
	l5.333-20.267l-41.6,13.867L364.8,185.104L359.467,195.77z"/>
<path style="fill:#E8EAE9;" d="M346.667,300.304l13.867-9.6l29.867-42.667c0,0,16,5.333,23.467,2.133
	c0,0,10.667-37.333,11.733-49.067c0,0,1.067-7.467-6.4-14.933c0,0-5.333-6.4-7.467-5.333c1.067,4.267,0,8.533-2.133,12.8
	c-7.467,13.867-25.6,42.667-25.6,42.667s-10.667,16-12.8,18.133c-2.133,2.133-5.333,9.6-5.333,9.6l0,0
	c-9.6,6.4-16,17.067-18.133,28.8c-1.067,3.2-1.067,6.4-2.133,8.533h1.067V300.304z"/>
<path style="fill:#F3F3F3;" d="M340.267,261.904c5.333,9.6,2.133,27.733-1.067,38.4h2.133c5.333-9.6,10.667-25.6,10.667-25.6
	l8.533-30.933c0,0,4.267-13.867,6.4-20.267c2.133-3.2-4.267-21.333-5.333-21.333l-32,44.8
	C330.667,248.037,332.8,248.037,340.267,261.904z"/>
<path style="fill:#FFD15C;" d="M403.2,120.037c-10.667-6.4-48-29.867-48-29.867h-20.267l-5.333,18.133c0,0-5.333,40.533,0,54.4
	s20.267,43.733,30.933,43.733c10.667,0,27.733-11.733,34.133-20.267c4.267-5.333,9.6-13.867,12.8-21.333
	c1.067-11.733,16-28.8,7.467-34.133C414.933,129.637,404.267,120.037,403.2,120.037z"/>
<path style="fill:#F3705A;" d="M345.6,96.57c8.533,0,19.2,10.667,28.8,19.2c9.6,8.533,26.667,12.8,35.2,17.067
	c9.6,3.2,5.333,27.733,2.133,33.067c0,0,7.467-10.667,6.4-18.133c0,0-3.2,23.467,4.267,37.333c-3.2-26.667,3.2-35.2,8.533-56.533
	c0,0,10.667-55.467-50.133-67.2c0,0-19.2-1.067-26.667,7.467c0,0-19.2,6.4-27.733,27.733s-9.6,41.6,0,51.2
	C327.467,145.637,324.267,96.57,345.6,96.57z"/>
<g>
	<path style="fill:#FFD15C;" d="M402.133,170.17c1.067-1.067,4.267-1.067,6.4-10.667c0,0,22.4-17.067,5.333-30.933
		c0,0-6.4-4.267-9.6,6.4L400,143.504l-3.2,21.333C397.867,166.97,401.067,171.237,402.133,170.17z"/>
	<path style="fill:#FFD15C;" d="M219.733,149.904c-2.133,9.6-7.467,14.933-13.867,13.867c-5.333-2.133-8.533-10.667-6.4-19.2
		c2.133-8.533,8.533-13.867,13.867-12.8C218.667,132.837,221.867,141.37,219.733,149.904z"/>
	<path style="fill:#FFD15C;" d="M108.8,149.904c2.133,9.6,7.467,14.933,13.867,13.867c5.333-2.133,8.533-10.667,6.4-19.2
		c-2.133-8.533-8.533-13.867-13.867-12.8S106.667,141.37,108.8,149.904z"/>
</g>
<path style="fill:#415A6B;" d="M206.933,156.304H121.6c0,0-36.267-104.533,42.667-104.533
	C243.2,52.837,206.933,156.304,206.933,156.304z"/>
<path style="fill:#E8EAE9;" d="M277.333,303.504l-11.733-64c-2.133-12.8-11.733-23.467-24.533-27.733l-41.6-11.733h-70.4
	l-41.6,11.733c-12.8,3.2-22.4,13.867-24.533,27.733l-11.733,64H277.333z"/>
<path style="fill:#F3705A;" d="M144,303.504h40.533l-10.667-50.133l7.467-8.533c0,0-11.733-17.067-17.067-17.067
	c-6.4,0-17.067,17.067-17.067,17.067l7.467,7.467L144,303.504z"/>
<g>
	<path style="fill:#F3F3F3;" d="M132.267,188.304l32,38.4c-9.6,6.4-16,13.867-21.333,24.533l-20.267-52.267
		C125.867,194.704,132.267,188.304,132.267,188.304z"/>
	<path style="fill:#F3F3F3;" d="M196.267,188.304l-32,38.4c10.667,7.467,17.067,14.933,21.333,24.533l20.267-52.267
		C202.667,194.704,196.267,188.304,196.267,188.304z"/>
</g>
<path style="fill:#F7B64C;" d="M132.267,152.037v36.267c7.467,14.933,18.133,25.6,32,39.467c12.8-11.733,23.467-21.333,32-39.467
	v-36.267L132.267,152.037L132.267,152.037z"/>
<g>
	<path style="fill:#FFD15C;" d="M163.2,107.237c-13.867,0-25.6-3.2-35.2-8.533c-5.333,10.667-8.533,24.533-8.533,39.467
		c0,36.267,20.267,66.133,44.8,66.133s44.8-29.867,44.8-66.133c0-14.933-3.2-29.867-9.6-40.533
		C189.867,104.037,177.067,107.237,163.2,107.237z"/>
	<path style="fill:#FFD15C;" d="M488.533,348.304H23.467C10.667,348.304,0,337.637,0,324.837l0,0
		c0-12.8,10.667-23.467,23.467-23.467h464c12.8,0,23.467,10.667,23.467,23.467l0,0C512,337.637,501.333,348.304,488.533,348.304z"/>
</g>
<rect x="34.133" y="348.304" style="fill:#F7B64C;" width="442.667" height="110.933"/>
<g>
	<path style="fill:#8AD7F8;" d="M309.333,246.97v45.867c0,4.267-3.2,7.467-7.467,7.467h-35.2c-4.267,0-7.467-3.2-7.467-7.467V246.97
		H309.333z"/>
	<path style="fill:#8AD7F8;" d="M305.067,288.57l-2.133-6.4c17.067-4.267,16-20.267,16-21.333c0-4.267-5.333-4.267-5.333-4.267
		c-1.067,0-5.333,0-5.333,4.267H300.8c0-16,25.6-16,25.6,0C326.4,268.304,323.2,284.304,305.067,288.57z"/>
</g>
<g>
	<path style="fill:#415A6B;" d="M274.133,227.77L274.133,227.77c-1.067,0-2.133,1.067-2.133,2.133v10.667
		c0,1.067,1.067,2.133,2.133,2.133l0,0c1.067,0,2.133-1.067,2.133-2.133v-10.667C276.267,227.77,275.2,227.77,274.133,227.77z"/>
	<path style="fill:#415A6B;" d="M284.8,220.304L284.8,220.304c-1.067,0-2.133,1.067-2.133,2.133v10.667
		c0,1.067,1.067,2.133,2.133,2.133l0,0c1.067,0,2.133-1.067,2.133-2.133v-10.667C286.933,220.304,285.867,220.304,284.8,220.304z"/>
	<path style="fill:#415A6B;" d="M294.4,227.77L294.4,227.77c-1.067,0-2.133,1.067-2.133,2.133v10.667
		c0,1.067,1.067,2.133,2.133,2.133l0,0c1.067,0,2.133-1.067,2.133-2.133v-10.667C296.533,227.77,295.467,227.77,294.4,227.77z"/>
</g>
<g>
	<path style="fill:#8AD7F8;" d="M42.667,246.97v45.867c0,4.267,3.2,7.467,7.467,7.467h35.2c4.267,0,7.467-3.2,7.467-7.467V246.97
		H42.667z"/>
	<path style="fill:#8AD7F8;" d="M45.867,288.57l2.133-6.4c-17.067-4.267-16-20.267-16-21.333c0-4.267,5.333-4.267,5.333-4.267
		c1.067,0,5.333,0,5.333,4.267h7.467c0-16-25.6-16-25.6,0C24.533,268.304,27.733,284.304,45.867,288.57z"/>
</g>
<g>
	<path style="fill:#415A6B;" d="M76.8,227.77L76.8,227.77c1.067,0,2.133,1.067,2.133,2.133v10.667c0,1.067-1.067,2.133-2.133,2.133
		l0,0c-1.067,0-2.133-1.067-2.133-2.133v-10.667C74.667,227.77,75.733,227.77,76.8,227.77z"/>
	<path style="fill:#415A6B;" d="M67.2,220.304L67.2,220.304c1.067,0,2.133,1.067,2.133,2.133v10.667
		c0,1.067-1.067,2.133-2.133,2.133l0,0c-1.067,0-2.133-1.067-2.133-2.133v-10.667C65.067,220.304,66.133,220.304,67.2,220.304z"/>
	<path style="fill:#415A6B;" d="M57.6,227.77L57.6,227.77c1.067,0,2.133,1.067,2.133,2.133v10.667c0,1.067-1.067,2.133-2.133,2.133
		l0,0c-1.067,0-2.133-1.067-2.133-2.133v-10.667C55.467,227.77,55.467,227.77,57.6,227.77z"/>
</g>
<g>
</g>
<g>
</g>
<g>
</g>
<g>
</g>
<g>
</g>
<g>
</g>
<g>
</g>
<g>
</g>
<g>
</g>
<g>
</g>
<g>
</g>
<g>
</g>
<g>
</g>
<g>
</g>
<g>
</g>
</svg>
