<?xml version="1.0" encoding="iso-8859-1"?>
<!-- Generator: Adobe Illustrator 19.0.0, SVG Export Plug-In . SVG Version: 6.00 Build 0)  -->
<svg version="1.1" id="Capa_1" xmlns="http://www.w3.org/2000/svg" xmlns:xlink="http://www.w3.org/1999/xlink" x="0px" y="0px"
	 viewBox="0 0 512 512" style="enable-background:new 0 0 512 512;" xml:space="preserve">
<g>
	<path style="fill:#F3F3F3;" d="M264.533,391.467v-50.133H246.4v50.133c-11.733,3.2-20.267,14.933-20.267,27.733
		c0,16,12.8,28.8,28.8,28.8s28.8-12.8,28.8-28.8C284.8,406.4,276.267,395.733,264.533,391.467z M256,430.933
		c-6.4,0-10.667-5.333-10.667-10.667c0-6.4,5.333-10.667,10.667-10.667c5.333,0,10.667,5.333,10.667,10.667
		S262.4,430.933,256,430.933z"/>
	<rect x="33.067" y="54.4" style="fill:#F3F3F3;" width="457.6" height="263.467"/>
</g>
<g>
	<path style="fill:#FFD15C;" d="M485.333,54.4H26.667C11.733,54.4,0,41.6,0,26.667l0,0C0,11.733,11.733,0,26.667,0h457.6
		C500.267,0,512,11.733,512,26.667l0,0C512,41.6,500.267,54.4,485.333,54.4z"/>
	<path style="fill:#FFD15C;" d="M485.333,371.2H26.667C11.733,371.2,0,359.467,0,344.533l0,0c0-14.933,11.733-26.667,26.667-26.667
		h457.6c14.933,0,26.667,11.733,26.667,26.667l0,0C512,359.467,500.267,371.2,485.333,371.2z"/>
</g>
<path style="fill:#F3705A;" d="M148.267,105.6c-39.467,0-72.533,32-72.533,72.533c0,39.467,32,72.533,72.533,72.533
	c20.267,0,38.4-8.533,51.2-21.333l-51.2-51.2L148.267,105.6L148.267,105.6z"/>
<path style="fill:#FFD15C;" d="M167.467,177.067l51.2,51.2c12.8-12.8,21.333-30.933,21.333-51.2L167.467,177.067L167.467,177.067z"
	/>
<path style="fill:#66C6B9;" d="M240,157.867c0-39.467-32-72.533-72.533-72.533v72.533H240z"/>
<g>
	<rect x="293.333" y="100.267" style="fill:#CED6E0;" width="142.933" height="20.267"/>
	<rect x="293.333" y="156.8" style="fill:#CED6E0;" width="142.933" height="20.267"/>
	<rect x="293.333" y="214.4" style="fill:#CED6E0;" width="142.933" height="20.267"/>
</g>
<polygon style="fill:#F7B64C;" points="94.933,373.333 94.933,424.533 124.8,448 155.733,424.533 155.733,373.333 "/>
<path style="fill:#415A6B;" d="M171.733,374.4c-23.467,41.6-70.4,41.6-92.8,0c-13.867-25.6-33.067-105.6,46.933-105.6
	C205.867,268.8,185.6,348.8,171.733,374.4z"/>
<ellipse style="fill:#4ABAA5;" cx="124.8" cy="413.867" rx="45.867" ry="17.067"/>
<path style="fill:#66C6B9;" d="M250.667,512l-18.133-68.267c-3.2-10.667-11.733-19.2-22.4-22.4c-23.467-5.333-64-12.8-85.333-12.8
	s-60.8,8.533-85.333,12.8C28.8,423.467,19.2,432,17.067,443.733L0,512H250.667z"/>
<polygon style="fill:#F7B64C;" points="356.267,373.333 356.267,424.533 387.2,448 417.067,424.533 417.067,373.333 "/>
<path style="fill:#415A6B;" d="M433.067,374.4c-23.467,41.6-70.4,41.6-92.8,0C326.4,348.8,307.2,268.8,387.2,268.8
	C467.2,268.8,446.933,348.8,433.067,374.4z"/>
<ellipse style="fill:#4ABAA5;" cx="387.2" cy="413.867" rx="45.867" ry="17.067"/>
<path style="fill:#66C6B9;" d="M512,512l-18.133-68.267c-3.2-10.667-11.733-19.2-22.4-22.4c-23.467-5.333-64-12.8-85.333-12.8
	c-20.267,0-60.8,8.533-85.333,12.8c-10.667,2.133-20.267,10.667-22.4,22.4L261.333,512H512z"/>
<g>
</g>
<g>
</g>
<g>
</g>
<g>
</g>
<g>
</g>
<g>
</g>
<g>
</g>
<g>
</g>
<g>
</g>
<g>
</g>
<g>
</g>
<g>
</g>
<g>
</g>
<g>
</g>
<g>
</g>
</svg>
