<?xml version="1.0" encoding="iso-8859-1"?>
<!-- Generator: Adobe Illustrator 19.0.0, SVG Export Plug-In . SVG Version: 6.00 Build 0)  -->
<svg version="1.1" id="Capa_1" xmlns="http://www.w3.org/2000/svg" xmlns:xlink="http://www.w3.org/1999/xlink" x="0px" y="0px"
	 viewBox="0 0 512 512" style="enable-background:new 0 0 512 512;" xml:space="preserve">
<path style="fill:#F3F3F3;" d="M512,122.667V480c0,18.133-13.867,32-32,32H32c-18.133,0-32-13.867-32-32V122.667H512z"/>
<path style="fill:#F3705A;" d="M512,122.667V32c0-18.133-13.867-32-32-32H32C13.867,0,0,13.867,0,32v90.667H512z"/>
<g>
	<circle style="fill:#FFFFFF;" cx="75.733" cy="60.8" r="25.6"/>
	<circle style="fill:#FFFFFF;" cx="147.2" cy="60.8" r="25.6"/>
	<circle style="fill:#FFFFFF;" cx="219.733" cy="60.8" r="25.6"/>
</g>
<circle style="fill:#415A6B;" cx="256" cy="316.8" r="141.867"/>
<circle style="fill:#FFFFFF;" cx="256" cy="316.8" r="110.933"/>
<path style="fill:#F3705A;" d="M322.133,250.667l-25.6,25.6c-10.667-10.667-25.6-17.067-41.6-17.067S224,265.6,214.4,276.267
	l-25.6-25.6c17.067-17.067,40.533-27.733,66.133-27.733C281.6,222.933,305.067,233.6,322.133,250.667z"/>
<path style="fill:#FFD15C;" d="M349.867,316.8c0,25.6-10.667,50.133-27.733,66.133l-25.6-25.6
	c10.667-10.667,17.067-24.533,17.067-41.6c0-16-6.4-30.933-17.067-41.6l25.6-25.6C339.2,267.733,349.867,291.2,349.867,316.8z"/>
<path style="fill:#55C0EB;" d="M198.4,316.8c0,16,6.4,30.933,17.067,41.6l-25.6,25.6c-17.067-17.067-27.733-40.533-27.733-66.133
	s10.667-50.133,27.733-66.133l25.6,25.6C204.8,286.933,198.4,300.8,198.4,316.8z"/>
<path style="fill:#415A6B;" d="M312.533,260.267c0,0-30.933,64-40.533,72.533c-8.533,8.533-23.467,8.533-32,0s-8.533-23.467,0-32
	C248.533,292.267,312.533,260.267,312.533,260.267z"/>
<circle style="fill:#FFFFFF;" cx="256" cy="316.8" r="10.667"/>
<g>
</g>
<g>
</g>
<g>
</g>
<g>
</g>
<g>
</g>
<g>
</g>
<g>
</g>
<g>
</g>
<g>
</g>
<g>
</g>
<g>
</g>
<g>
</g>
<g>
</g>
<g>
</g>
<g>
</g>
</svg>
