<?xml version="1.0" encoding="iso-8859-1"?>
<!-- Generator: Adobe Illustrator 19.0.0, SVG Export Plug-In . SVG Version: 6.00 Build 0)  -->
<svg version="1.1" id="Capa_1" xmlns="http://www.w3.org/2000/svg" xmlns:xlink="http://www.w3.org/1999/xlink" x="0px" y="0px"
	 viewBox="0 0 512 512" style="enable-background:new 0 0 512 512;" xml:space="preserve">
<path style="fill:#415A6B;" d="M310.4,416c-7.467,9.6-16,18.133-25.6,24.533L288,492.8L242.133,512L208,472.533
	c-11.733,1.067-23.467,1.067-35.2,0L137.6,512l-45.867-19.2L96,439.467c-9.6-7.467-17.067-16-24.533-24.533l-52.267,3.2L0,372.267
	l39.467-34.133c-1.067-11.733-1.067-23.467,0-35.2L0,267.733l19.2-45.867l52.267,3.2c7.467-9.6,16-18.133,25.6-24.533l-3.2-52.267
	l45.867-18.133l34.133,39.467c11.733-1.067,23.467-1.067,35.2,0l35.2-39.467l45.867,19.2l-3.2,52.267
	c9.6,7.467,17.067,16,24.533,24.533l52.267-3.2l18.133,45.867L342.4,302.933c1.067,11.733,1.067,23.467,0,35.2l39.467,35.2
	l-19.2,45.867L310.4,416z"/>
<circle style="fill:#FFFFFF;" cx="190.933" cy="321.067" r="110.933"/>
<circle style="fill:#8AD7F8;" cx="190.933" cy="321.067" r="110.933"/>
<g>
	<path style="fill:#F3F3F3;" d="M289.067,267.733c-1.067-1.067-2.133-1.067-3.2-3.2l-1.067-1.067c0,1.067,0,1.067,0,1.067
		c-1.067,0-1.067,1.067-2.133,1.067c-1.067,0-1.067,1.067-2.133,1.067c0-2.133,0-4.267,0-6.4V259.2
		c1.067-1.067,2.133-1.067,3.2-2.133c-4.267-6.4-8.533-11.733-12.8-16c-3.2,0-5.333,0-8.533,2.133l1.067,1.067
		c-4.267,1.067-7.467,4.267-11.733,4.267c-3.2,0-6.4,2.133-9.6,3.2c0,0,0,0,0-1.067s0-2.133-1.067-2.133
		c-1.067-1.067-2.133-1.067-4.267,0c-1.067,1.067-2.133,1.067-3.2,1.067c-2.133,0-2.133,0-2.133,2.133c0,2.133-1.067,3.2-3.2,3.2
		c-1.067,1.067-3.2,2.133-4.267,3.2c-1.067,1.067-1.067,2.133-2.133,3.2c0,1.067-1.067,1.067-1.067,2.133l-1.067,1.067
		c0,0,1.067,0,1.067,1.067h1.067c0,0,0,0,0,1.067c-1.067,0-2.133,0-3.2,0c0,1.067,0,1.067,0,2.133l0,0l-1.067-1.067
		c-1.067,1.067-1.067,1.067-2.133,1.067c-2.133-1.067-2.133-1.067-3.2,2.133c0,3.2-1.067,4.267-4.267,5.333
		c-1.067,0-1.067,1.067-2.133,1.067l0,0c0,0,1.067,0,2.133,0c-3.2,1.067-6.4,4.267-7.467,8.533
		c-1.067-1.067-1.067-1.067-1.067-2.133l-2.133,1.067c1.067,3.2,1.067,3.2-1.067,4.267c0-1.067,0-1.067-1.067-2.133
		c-1.067,0-3.2,0-4.267,0c-1.067,0-3.2,0-4.267,0c-3.2-1.067-4.267,0-6.4,2.133c0,1.067-1.067,1.067-1.067,2.133
		c-1.067,2.133-3.2,4.267-3.2,6.4c0,3.2-1.067,5.333-2.133,7.467c0,1.067-1.067,3.2,0,4.267c1.067,1.067,2.133,3.2,3.2,4.267h1.067
		h1.067c-1.067,2.133-1.067,3.2,1.067,4.267c-1.067,1.067-1.067,1.067-1.067,2.133s-1.067,1.067-1.067,2.133
		c0,1.067-1.067,3.2-1.067,4.267l0,0c-1.067,2.133-2.133,4.267-4.267,6.4c1.067,0,1.067,0,2.133,0c1.067-1.067,3.2,0,4.267,1.067
		c1.067,1.067,0,2.133,0,2.133c-1.067,1.067-3.2,1.067-4.267,2.133v1.067c1.067,2.133,2.133,4.267,3.2,6.4
		c1.067,0,2.133,0,3.2-1.067c1.067-1.067,3.2-1.067,4.267-3.2c0-1.067,0-2.133,0-4.267c0-2.133,0-3.2,1.067-5.333
		c1.067-1.067,2.133-1.067,3.2-1.067c1.067,1.067,2.133,3.2,3.2,5.333c2.133-2.133-1.067-3.2-1.067-4.267h4.267
		c0,0,1.067,0,1.067,1.067c0,0,0,1.067-1.067,1.067c0,0,0,0-1.067,1.067c1.067,0,1.067,0,2.133,0h-1.067
		c1.067-1.067,1.067-3.2,2.133-5.333h1.067c1.067,1.067,2.133,2.133,3.2,3.2c2.133-1.067,2.133-1.067,1.067-3.2v-1.067v-1.067
		c2.133,5.333,5.333,4.267,8.533,2.133l1.067,1.067c0,0,0,0,1.067,0c0-1.067,0-2.133,0-3.2l0,0c0,1.067,1.067,3.2,1.067,5.333
		c0,0,0,1.067-1.067,1.067c-2.133,1.067-3.2,1.067-5.333,1.067c-4.267,2.133-6.4,3.2-6.4,6.4c-1.067,0-3.2,0-4.267,0
		c-3.2,0-5.333,0-5.333-3.2c-1.067,0-1.067,1.067-2.133,1.067c-2.133,1.067-4.267,3.2-6.4,4.267c0,0-1.067,0-1.067,1.067
		c-1.067,1.067-1.067,2.133-3.2,2.133H179.2c0,1.067-1.067,2.133-1.067,3.2c0,3.2,0,6.4,0,10.667c0,3.2,0,7.467,3.2,10.667
		c1.067,1.067,1.067,3.2,2.133,4.267c3.2,1.067,4.267,3.2,7.467,4.267c4.267,1.067,6.4-1.067,8.533-3.2l0,0c0-1.067,0-3.2,3.2-1.067
		c0,0,0,0,1.067,0c2.133,0,4.267,0,5.333-3.2c1.067,2.133,1.067,3.2,2.133,5.333c0,1.067,0,2.133,1.067,2.133
		c2.133,1.067,4.267,3.2,6.4,5.333s3.2,5.333,4.267,8.533c0,1.067,1.067,2.133,2.133,3.2c1.067,0,2.133,1.067,3.2,2.133
		c1.067,1.067,2.133,3.2,3.2,4.267c1.067,2.133,3.2,3.2,5.333,4.267c1.067,1.067,2.133,1.067,3.2,0c1.067-2.133,3.2-3.2,4.267-5.333
		c0,0,1.067-1.067,1.067-2.133c0-3.2,2.133-5.333,0-8.533V390.4c1.067-1.067,1.067-2.133,0-3.2c-1.067-2.133-1.067-4.267,0-6.4
		c0-1.067,1.067-1.067,0-2.133c-1.067-3.2-2.133-5.333-3.2-8.533c-2.133-3.2-2.133-5.333-1.067-8.533
		c1.067-4.267,2.133-8.533,1.067-12.8c0-1.067-1.067-2.133-1.067-3.2c-1.067,0-1.067,1.067-2.133,1.067
		c-2.133,2.133-3.2,2.133-5.333,1.067c-1.067,0-1.067-1.067-2.133-1.067c-2.133,0-3.2-2.133-5.333-3.2
		c-1.067,0-1.067-1.067-2.133-1.067c-2.133,0-2.133-1.067-3.2-3.2l0,0c3.2,3.2,8.533,4.267,11.733,8.533
		c1.067,1.067,2.133,1.067,3.2,0c1.067-1.067,2.133-2.133,3.2-3.2c1.067-2.133,3.2-4.267,4.267-6.4c0-1.067,0-2.133,0-3.2
		c0-1.067-1.067-1.067-2.133-1.067L240,332.8l0,0h1.067c2.133-1.067,4.267-2.133,6.4-3.2c1.067,0,2.133,0,3.2,0
		c1.067,0,1.067,1.067,1.067,1.067c1.067-1.067,2.133,0,2.133,1.067c2.133,2.133,4.267,3.2,6.4,5.333
		c1.067,1.067,2.133,2.133,2.133,2.133c1.067,0,1.067,1.067,2.133,1.067c0,0,1.067-1.067,1.067-2.133c0-2.133-1.067-3.2-1.067-5.333
		v-1.067c0-2.133,1.067-3.2,2.133-5.333c0-1.067,1.067-3.2,2.133-4.267c1.067-1.067,1.067-1.067,2.133,0
		c1.067,1.067,2.133,1.067,2.133,1.067c0,2.133,0,2.133,4.267,1.067c1.067,1.067,2.133,2.133,3.2,3.2c0,0,1.067,1.067,1.067,2.133
		c1.067,1.067,2.133,3.2,3.2,3.2c2.133,1.067,4.267,1.067,6.4,2.133c0,0,0,0,0-1.067c-2.133-1.067-3.2-3.2-5.333-4.267
		s-3.2-2.133-3.2-4.267c2.133,1.067,4.267,1.067,6.4,2.133c2.133-2.133,2.133-4.267,1.067-6.4c0-1.067-1.067-2.133-1.067-3.2
		c-1.067,0-3.2-1.067-4.267-1.067v-1.067c1.067,0,2.133,0,3.2,0c-1.067-1.067,0-2.133,1.067-2.133
		C288,311.467,288,309.333,288,308.267c0-1.067,0-3.2,1.067-4.267c0-3.2-1.067-6.4-4.267-8.533l-1.067-1.067
		c0-1.067,1.067-3.2-1.067-4.267c0,0,0,0,0-1.067c1.067,1.067,3.2,1.067,4.267,2.133c1.067,1.067,2.133,2.133,3.2,1.067
		c1.067-1.067,1.067-2.133,0-3.2l0,0C288,286.933,288,284.8,289.067,281.6c0-1.067,0-1.067,1.067-2.133c0-3.2,0-6.4-2.133-9.6
		c0,0,0,0,0-1.067l0,0c1.067,1.067,1.067,2.133,2.133,3.2c1.067,1.067,1.067,2.133,2.133,2.133
		C291.2,272,290.133,269.867,289.067,267.733z"/>
	<path style="fill:#F3F3F3;" d="M162.133,352L162.133,352c-1.067-1.067-3.2-2.133-4.267-2.133H156.8
		c-1.067-1.067-3.2-1.067-4.267-2.133c0,0,0-1.067,0-2.133c0-1.067-1.067-3.2-3.2-3.2c-2.133,1.067-2.133-1.067-3.2-2.133
		c-1.067-1.067-3.2-2.133-4.267-2.133s-1.067,0-1.067,0c-1.067,0-1.067-1.067-2.133-2.133v1.067C137.6,336,137.6,336,136.533,336
		c-1.067,1.067-3.2,2.133-4.267,3.2l-1.067-1.067c-1.067,0-1.067,1.067-2.133,1.067c0-1.067,0-1.067,0-2.133
		c1.067-3.2,0-4.267-3.2-4.267H124.8c0-1.067,0-1.067,0-2.133c0,0,0-1.067,0-2.133v-1.067c-2.133,0-2.133,0-3.2,2.133l-1.067,1.067
		c-1.067,0-1.067,0-1.067,0c0-1.067,0-3.2,0-4.267c0,0,0-1.067,0-2.133c0-1.067,0-1.067,1.067-1.067
		c2.133-1.067,4.267-1.067,5.333,0c1.067-1.067,3.2-1.067,4.267-1.067c0,0,1.067,1.067,0,1.067c0,1.067,1.067,2.133,2.133,3.2
		c0-2.133,1.067-3.2,0-4.267v-1.067c0-1.067,1.067-3.2,3.2-3.2c1.067,0,2.133-1.067,1.067-2.133c0-1.067,1.067-1.067,1.067-1.067
		c0-2.133,1.067-3.2,3.2-4.267h1.067l0,0c0-1.067,0-2.133,1.067-2.133c1.067-1.067,2.133-1.067,3.2-1.067c0,1.067,0,1.067,0,1.067
		c1.067-1.067,2.133-1.067,3.2-2.133c-1.067,0-1.067,0-1.067-1.067L147.2,304c0,0,0-1.067,1.067-1.067
		c0-1.067,1.067-1.067,1.067-2.133c1.067,0,2.133-1.067,4.267-1.067c-1.067,2.133-2.133,3.2-3.2,4.267l0,0h1.067h1.067
		c0,2.133,2.133,1.067,3.2,1.067c0-1.067,0-1.067,0-2.133c0,0,0-1.067-1.067-1.067c0-1.067-1.067-1.067-1.067-2.133
		c0-1.067,0-2.133,0-2.133s0-1.067-1.067-1.067s-2.133-2.133-2.133-3.2c0-2.133-1.067-3.2-2.133-4.267c0,1.067,0,1.067,0,2.133
		h-2.133V288c-1.067,0-1.067,0-2.133,0s-2.133-1.067-3.2-1.067L139.733,288c0,2.133,0,4.267-1.067,6.4h-2.133
		c0,1.067,0,1.067,1.067,1.067c0,1.067-1.067,2.133-1.067,3.2c-1.067-1.067-1.067-1.067-1.067-2.133c0-1.067,0-1.067-1.067-1.067
		c-1.067,0-2.133,0-2.133-1.067c-1.067,0-2.133-1.067-2.133-2.133c0,0-1.067-1.067-1.067-2.133c1.067-2.133,3.2-3.2,4.267-5.333
		h1.067c0-2.133,2.133-2.133,3.2-2.133c3.2,0,1.067-2.133,2.133-3.2c0,0,0-1.067-1.067-2.133c2.133,1.067,4.267,0,5.333,2.133
		c1.067,1.067,1.067,2.133,0,2.133c-1.067,0-2.133,1.067-2.133,1.067l-1.067,1.067l1.067,1.067c1.067,0,2.133,1.067,3.2,1.067
		c1.067,1.067,2.133,1.067,3.2,2.133c0-2.133,2.133-3.2,0-5.333c1.067,0,1.067,1.067,2.133,1.067c0-1.067,2.133-2.133,1.067-3.2
		c-1.067-1.067-2.133-1.067-3.2-2.133c1.067-2.133,0-3.2-2.133-3.2c-1.067,0-1.067,0-1.067-1.067
		c-1.067-1.067-2.133-1.067-3.2-1.067H140.8c-1.067-1.067-2.133-1.067-3.2,0c-1.067-2.133-1.067-2.133-2.133-1.067
		c-1.067,1.067-1.067,1.067-1.067,2.133c0,1.067,0,2.133,0,3.2c-1.067-1.067-2.133-2.133-2.133-2.133H131.2c0,1.067,0,1.067,0,2.133
		c1.067,1.067,0,2.133,0,3.2c0-1.067,0-1.067-1.067-2.133c-1.067,0-2.133,1.067-3.2,1.067S124.8,278.4,124.8,278.4
		c3.2,0,3.2,0,3.2-2.133c1.067-1.067,2.133-1.067,3.2-2.133v-1.067c0-1.067,0-1.067,0-1.067c-3.2,0-5.333-1.067-7.467,1.067
		c-1.067,0-2.133-1.067-2.133-1.067c2.133-1.067,4.267-1.067,5.333-1.067c1.067,0,2.133-1.067,2.133,0h1.067l1.067-1.067
		c0-1.067,0-1.067-1.067-2.133h-1.067c-1.067,0-2.133,1.067-3.2,1.067c0-1.067,0-1.067,0-1.067c0-1.067-1.067-1.067-1.067,0
		c0,0,0,1.067,0,2.133c-1.067,0-2.133-1.067-3.2,0c-1.067,0-2.133,1.067-2.133,2.133c-2.133,0-3.2,0-4.267-1.067
		c-2.133,0-2.133,2.133-3.2,2.133c-2.133,1.067,0,2.133,0,3.2c1.067,0,2.133-1.067,2.133-1.067c1.067,0,2.133,1.067,2.133,1.067
		s0,0-1.067,1.067c1.067,1.067,2.133,1.067,3.2,2.133c1.067,0,2.133,0,3.2,1.067c0,0,0,1.067,1.067,2.133
		c-1.067,0-1.067-1.067-2.133-1.067c-2.133-1.067-3.2-1.067-5.333-1.067c-1.067,0-2.133,0-3.2-1.067h-1.067c0,0-1.067,0-1.067,1.067
		c-3.2-3.2-3.2-3.2-3.2-3.2c-1.067,0-2.133,1.067-3.2,1.067c-3.2-1.067-5.333,0-7.467-1.067l0,0c-2.133-1.067-4.267,0-6.4-1.067
		c-3.2,6.4-5.333,13.867-6.4,20.267c1.067-1.067,2.133-2.133,3.2-2.133l0,0c0,1.067-1.067,1.067-1.067,2.133l0,0
		c1.067-1.067,2.133-1.067,4.267-1.067s2.133-2.133,1.067-3.2c0,0,0,0,0-1.067c1.067,0,3.2,0,3.2,0
		c2.133,2.133,5.333,2.133,5.333,6.4c0,0,0-1.067,1.067-1.067c0,1.067,0,3.2,0,4.267c0,2.133,0,3.2,0,5.333s-1.067,4.267-1.067,6.4
		c0,2.133-1.067,5.333,2.133,6.4L102.4,320c1.067,2.133,1.067,5.333,3.2,6.4c1.067,1.067,1.067,1.067,2.133,2.133l0,0
		c0-1.067,0-2.133-1.067-3.2c1.067,1.067,1.067,1.067,1.067,1.067c1.067,1.067,2.133,2.133,2.133,3.2s1.067,2.133,1.067,3.2
		c2.133,1.067,4.267,2.133,6.4,2.133h1.067c1.067,1.067,2.133,2.133,3.2,2.133l1.067,1.067c1.067,1.067,2.133,2.133,4.267,3.2
		c0,0,1.067,0,2.133,0c1.067,1.067,1.067,3.2,0,5.333C128,347.733,128,348.8,128,350.933c0,1.067,0,3.2,1.067,3.2
		C128,355.2,128,355.2,128,356.267c0,1.067,1.067,3.2,3.2,3.2v1.067c1.067,1.067,2.133,2.133,2.133,3.2
		c1.067,1.067,1.067,2.133,2.133,3.2c0,1.067,0,2.133,0,3.2s0,3.2,0,4.267c0,1.067,0,1.067,0,2.133
		c-1.067,2.133-1.067,4.267-1.067,6.4c0,1.067,0,1.067,2.133,1.067c-1.067,1.067-1.067,1.067-1.067,2.133L134.4,387.2
		c0,2.133,0,3.2,1.067,5.333c0,3.2,1.067,5.333,2.133,7.467c1.067,1.067,4.267,2.133,5.333,1.067c0,0-1.067,0-1.067-1.067
		c-2.133-1.067-2.133-4.267-1.067-5.333c2.133-1.067,1.067-2.133,0-3.2c1.067-2.133,2.133-3.2,0-5.333
		c2.133,0,2.133-1.067,2.133-2.133c1.067,0,2.133-1.067,3.2-1.067c1.067-1.067,0-2.133,0-3.2c1.067,0,3.2,0,3.2-2.133
		c1.067-1.067,2.133-2.133,2.133-4.267c1.067-2.133,1.067-3.2,3.2-4.267c0,0,1.067,0,1.067-1.067s1.067-3.2,1.067-4.267
		c0-1.067,0-2.133,1.067-3.2c1.067-2.133,2.133-3.2,3.2-6.4c0-1.067,0-2.133,0-3.2C164.267,352,163.2,352,162.133,352z"/>
	<path style="fill:#F3F3F3;" d="M174.933,277.333c-1.067,1.067-3.2,2.133-4.267,3.2c-2.133,1.067-4.267,3.2-6.4,2.133
		c0,0-1.067,1.067-1.067,2.133c-1.067,2.133-2.133,4.267-3.2,6.4c0,0,0,0,0-1.067c-1.067,0-2.133-1.067-2.133-1.067
		c-1.067,0-2.133-1.067-2.133-2.133c0-2.133,0-3.2-1.067-5.333l1.067-2.133l1.067-1.067c-1.067-1.067-2.133-1.067-3.2-2.133
		c1.067,0,1.067-1.067,2.133-1.067v-1.067c-1.067,0-1.067,0-2.133,1.067c0-1.067,0-1.067,0-2.133c0-1.067-1.067-2.133-1.067-3.2
		c-1.067,0-2.133-1.067-3.2-1.067h-1.067c-1.067,0-2.133-1.067-3.2-1.067c0,0,0,0,0-1.067c1.067,0,3.2,0,4.267-1.067v-1.067H144
		v-1.067c2.133,0,4.267-1.067,5.333-2.133c0-1.067-1.067-1.067-1.067-1.067c4.267-2.133,8.533-4.267,13.867-3.2
		c0-1.067,0-1.067,0-1.067c-1.067-1.067,0-2.133,1.067-2.133c3.2,0,7.467,0,10.667,0c1.067,0,3.2,0,4.267,0
		c1.067,0,1.067,0,1.067,1.067c-1.067,1.067-2.133,1.067-3.2,2.133l0,0h1.067c2.133-1.067,3.2,0,5.333,1.067v1.067h-1.067
		c-1.067,0-2.133,0-3.2,1.067c0,0,0,1.067-1.067,1.067c0,1.067-1.067,1.067-1.067,2.133c1.067,0,1.067,1.067,2.133,1.067l0,0
		c-1.067,0-2.133,0-2.133,1.067c0,1.067,0,2.133,0,2.133c0,1.067,0,2.133-2.133,2.133c0,1.067,0,1.067,1.067,2.133
		c-1.067,0-1.067,0-1.067,0c0,1.067,0,1.067,0,1.067C176,277.333,176,277.333,174.933,277.333c0-1.067-1.067-1.067-2.133-1.067
		c-1.067,0-1.067,0-2.133,0l0,0C172.8,277.333,173.867,277.333,174.933,277.333z"/>
</g>
<path style="fill:#F3705A;" d="M512,130.133v-32L482.133,89.6c-2.133-6.4-4.267-12.8-7.467-18.133l16-27.733l-22.4-22.4l-26.667,16
	c-5.333-3.2-11.733-5.333-18.133-7.467L413.867,0h-32l-8.533,29.867c-6.4,2.133-12.8,4.267-18.133,7.467l-26.667-16l-22.4,22.4
	l16,26.667c-3.2,5.333-5.333,11.733-7.467,18.133L284.8,97.067v32l29.867,8.533c2.133,6.4,4.267,12.8,7.467,18.133l-16,26.667
	l22.4,22.4l26.667-16c5.333,3.2,11.733,5.333,18.133,7.467l8.533,29.867h32l8.533-29.867c6.4-2.133,12.8-4.267,18.133-7.467
	l27.733,16l22.4-22.4l-16-26.667c3.2-5.333,5.333-11.733,7.467-18.133L512,130.133z M397.867,140.8c-13.867,0-25.6-11.733-25.6-25.6
	s11.733-25.6,25.6-25.6c13.867,0,25.6,11.733,25.6,25.6C423.467,129.067,411.733,140.8,397.867,140.8z"/>
<path style="fill:#F05540;" d="M397.867,64c-27.733,0-50.133,22.4-50.133,50.133s22.4,50.133,50.133,50.133
	c27.733,0,50.133-22.4,50.133-50.133S425.6,64,397.867,64z M397.867,140.8c-13.867,0-25.6-11.733-25.6-25.6s11.733-25.6,25.6-25.6
	c13.867,0,25.6,11.733,25.6,25.6C423.467,129.067,411.733,140.8,397.867,140.8z"/>
<g>
</g>
<g>
</g>
<g>
</g>
<g>
</g>
<g>
</g>
<g>
</g>
<g>
</g>
<g>
</g>
<g>
</g>
<g>
</g>
<g>
</g>
<g>
</g>
<g>
</g>
<g>
</g>
<g>
</g>
</svg>
