<?xml version="1.0" encoding="iso-8859-1"?>
<!-- Generator: Adobe Illustrator 19.0.0, SVG Export Plug-In . SVG Version: 6.00 Build 0)  -->
<svg version="1.1" id="Capa_1" xmlns="http://www.w3.org/2000/svg" xmlns:xlink="http://www.w3.org/1999/xlink" x="0px" y="0px"
	 viewBox="0 0 512 512" style="enable-background:new 0 0 512 512;" xml:space="preserve">
<path style="fill:#F3F3F3;" d="M35.2,0h208l120.533,120.533v315.733c0,19.2-16,35.2-35.2,35.2H35.2c-19.2,0-35.2-16-35.2-35.2V35.2
	C0,16,16,0,35.2,0z"/>
<g>
	<polygon style="fill:#CED6E0;" points="244.267,0 364.8,120.533 244.267,120.533 	"/>
	<path style="fill:#CED6E0;" d="M119.467,145.067h-73.6c-4.267,0-8.533-3.2-8.533-8.533v-73.6c0-4.267,3.2-8.533,8.533-8.533h73.6
		c4.267,0,8.533,3.2,8.533,8.533v73.6C128,141.867,124.8,145.067,119.467,145.067z M54.4,129.067H112v-57.6H54.4V129.067z"/>
	<path style="fill:#CED6E0;" d="M119.467,280.533h-73.6c-4.267,0-8.533-3.2-8.533-8.533v-73.6c0-4.267,3.2-8.533,8.533-8.533h73.6
		c4.267,0,8.533,3.2,8.533,8.533V272C128,277.333,124.8,280.533,119.467,280.533z M54.4,264.533H112v-57.6H54.4V264.533z"/>
	<path style="fill:#CED6E0;" d="M119.467,416h-73.6c-4.267,0-8.533-3.2-8.533-8.533v-73.6c0-4.267,3.2-8.533,8.533-8.533h73.6
		c4.267,0,8.533,3.2,8.533,8.533v73.6C128,412.8,124.8,416,119.467,416z M54.4,400H112v-57.6H54.4V400z"/>
</g>
<g>
	<path style="fill:#F3705A;" d="M91.733,125.867c-2.133,0-4.267-1.067-5.333-2.133L57.6,96c-3.2-3.2-3.2-8.533,0-11.733
		c3.2-3.2,8.533-3.2,11.733,0l22.4,22.4L144,54.4c3.2-3.2,8.533-3.2,11.733,0c3.2,3.2,3.2,8.533,0,11.733L97.067,124.8
		C94.933,124.8,93.867,125.867,91.733,125.867z"/>
	<path style="fill:#F3705A;" d="M91.733,262.4c-2.133,0-4.267-1.067-5.333-2.133l-27.733-27.733c-3.2-3.2-3.2-8.533,0-11.733
		c3.2-3.2,8.533-3.2,11.733,0l22.4,22.4l52.267-52.267c3.2-3.2,8.533-3.2,11.733,0c3.2,3.2,3.2,8.533,0,11.733l-58.667,58.667
		C94.933,261.333,93.867,262.4,91.733,262.4z"/>
	<circle style="fill:#F3705A;" cx="343.467" cy="343.467" r="168.533"/>
</g>
<circle style="fill:#FFFFFF;" cx="343.467" cy="343.467" r="131.2"/>
<path style="fill:#66C6B9;" d="M343.467,350.933h-57.6c-4.267,0-7.467-3.2-7.467-7.467c0-4.267,3.2-7.467,7.467-7.467h57.6
	c4.267,0,7.467,3.2,7.467,7.467S347.733,350.933,343.467,350.933z"/>
<path style="fill:#F3705A;" d="M337.067,348.8c-3.2-3.2-3.2-8.533,0-11.733l57.6-57.6c3.2-3.2,8.533-3.2,11.733,0
	c3.2,3.2,3.2,8.533,0,11.733l-57.6,57.6C345.6,352,340.267,352,337.067,348.8z"/>
<g>
	<circle style="fill:#E8EAE9;" cx="343.467" cy="230.4" r="7.467"/>
	<circle style="fill:#E8EAE9;" cx="263.467" cy="263.467" r="7.467"/>
	<circle style="fill:#E8EAE9;" cx="230.4" cy="343.467" r="7.467"/>
	<circle style="fill:#E8EAE9;" cx="263.467" cy="423.467" r="7.467"/>
	<circle style="fill:#E8EAE9;" cx="343.467" cy="456.533" r="7.467"/>
	<circle style="fill:#E8EAE9;" cx="423.467" cy="423.467" r="7.467"/>
	<circle style="fill:#E8EAE9;" cx="456.533" cy="343.467" r="7.467"/>
	<circle style="fill:#E8EAE9;" cx="423.467" cy="263.467" r="7.467"/>
</g>
<circle style="fill:#FFD15C;" cx="343.467" cy="343.467" r="26.667"/>
<circle style="fill:#F7B64C;" cx="343.467" cy="343.467" r="12.8"/>
<g>
</g>
<g>
</g>
<g>
</g>
<g>
</g>
<g>
</g>
<g>
</g>
<g>
</g>
<g>
</g>
<g>
</g>
<g>
</g>
<g>
</g>
<g>
</g>
<g>
</g>
<g>
</g>
<g>
</g>
</svg>
