<?xml version="1.0" encoding="iso-8859-1"?>
<!-- Generator: Adobe Illustrator 19.0.0, SVG Export Plug-In . SVG Version: 6.00 Build 0)  -->
<svg version="1.1" id="Capa_1" xmlns="http://www.w3.org/2000/svg" xmlns:xlink="http://www.w3.org/1999/xlink" x="0px" y="0px"
	 viewBox="0 0 512 512" style="enable-background:new 0 0 512 512;" xml:space="preserve">
<rect x="308.802" y="110.716" transform="matrix(0.6774 -0.7356 0.7356 0.6774 13.768 274.1607)" style="fill:#344A5E;" width="21.333" height="21.333"/>
<path style="fill:#415A6B;" d="M354.133,106.667L332.8,86.4c-2.133-1.067-3.2-1.067-4.267,0L316.8,99.2
	c-1.067,1.067-1.067,3.2,0,4.267l21.333,20.267c1.067,1.067,3.2,1.067,4.267,0l11.733-12.8
	C355.2,108.8,355.2,107.733,354.133,106.667z"/>
<rect x="174.933" y="54.4" style="fill:#344A5E;" width="37.333" height="23.467"/>
<path style="fill:#415A6B;" d="M219.733,0h-52.267c-2.133,0-4.267,2.133-4.267,4.267v44.8c0,2.133,2.133,4.267,4.267,4.267h52.267
	c2.133,0,4.267-2.133,4.267-4.267v-44.8C224,2.133,221.867,0,219.733,0z"/>
<circle style="fill:#F3705A;" cx="193.067" cy="261.333" r="193.067"/>
<circle style="fill:#FFFFFF;" cx="193.067" cy="261.333" r="152.533"/>
<path style="fill:#FFD15C;" d="M184.533,349.867v-16c-18.133-3.2-35.2-10.667-50.133-24.533l20.267-24.533
	c10.667,9.6,21.333,16,29.867,19.2v-32c-14.933-4.267-25.6-8.533-33.067-16C144,249.6,140.8,240,140.8,228.267
	s4.267-22.4,11.733-29.867c8.533-7.467,18.133-12.8,32-13.867v-10.667h22.4v10.667c13.867,2.133,28.8,7.467,42.667,18.133
	l-18.133,25.6c-8.533-6.4-17.067-10.667-25.6-12.8V246.4c16,4.267,26.667,9.6,34.133,16c7.467,6.4,10.667,16,10.667,28.8
	c0,12.8-4.267,22.4-12.8,30.933c-8.533,8.533-19.2,12.8-33.067,14.933V352h-20.267V349.867z M184.533,213.333
	c-6.4,2.133-9.6,6.4-9.6,11.733c0,5.333,3.2,9.6,9.6,12.8V213.333z M218.667,291.2c0-3.2-1.067-5.333-2.133-7.467
	c-1.067-2.133-4.267-4.267-8.533-5.333v26.667C214.4,301.867,218.667,297.6,218.667,291.2z"/>
<g>
	<circle style="fill:#E8EAE9;" cx="193.067" cy="132.267" r="8.533"/>
	<circle style="fill:#E8EAE9;" cx="102.4" cy="169.6" r="8.533"/>
	<circle style="fill:#E8EAE9;" cx="65.067" cy="261.333" r="8.533"/>
	<circle style="fill:#E8EAE9;" cx="102.4" cy="352" r="8.533"/>
	<circle style="fill:#E8EAE9;" cx="193.067" cy="389.333" r="8.533"/>
	<circle style="fill:#E8EAE9;" cx="284.8" cy="352" r="8.533"/>
	<circle style="fill:#E8EAE9;" cx="322.133" cy="261.333" r="8.533"/>
	<circle style="fill:#E8EAE9;" cx="284.8" cy="169.6" r="8.533"/>
</g>
<path style="fill:#415A6B;" d="M292.267,194.133h198.4c11.733,0,21.333,9.6,21.333,21.333v275.2C512,502.4,502.4,512,490.667,512
	h-198.4c-11.733,0-21.333-9.6-21.333-21.333v-275.2C270.933,203.733,280.533,194.133,292.267,194.133z"/>
<rect x="302.933" y="226.133" style="fill:#8AD7F8;" width="177.067" height="62.933"/>
<g>
	<path style="fill:#FFFFFF;" d="M343.467,433.067H307.2c-3.2,0-5.333,2.133-5.333,5.333v36.267c0,3.2,2.133,5.333,5.333,5.333
		h36.267c3.2,0,5.333-2.133,5.333-5.333V438.4C348.8,436.267,346.667,433.067,343.467,433.067z"/>
	<path style="fill:#FFFFFF;" d="M409.6,433.067h-36.267c-3.2,0-5.333,2.133-5.333,5.333v36.267c0,3.2,2.133,5.333,5.333,5.333H409.6
		c3.2,0,5.333-2.133,5.333-5.333V438.4C414.933,436.267,411.733,433.067,409.6,433.067z"/>
	<path style="fill:#FFFFFF;" d="M343.467,372.267H307.2c-3.2,0-5.333,2.133-5.333,5.333v36.267c0,3.2,2.133,5.333,5.333,5.333
		h36.267c3.2,0,5.333-2.133,5.333-5.333V377.6C348.8,374.4,346.667,372.267,343.467,372.267z"/>
	<path style="fill:#FFFFFF;" d="M409.6,372.267h-36.267c-3.2,0-5.333,2.133-5.333,5.333v36.267c0,3.2,2.133,5.333,5.333,5.333H409.6
		c3.2,0,5.333-2.133,5.333-5.333V377.6C414.933,374.4,411.733,372.267,409.6,372.267z"/>
</g>
<path style="fill:#F3705A;" d="M480,377.6v97.067c0,3.2-2.133,5.333-5.333,5.333H438.4c-3.2,0-5.333-2.133-5.333-5.333V377.6
	c0-3.2,2.133-5.333,5.333-5.333h36.267C477.867,372.267,480,374.4,480,377.6z"/>
<path style="fill:#66C6B9;" d="M343.467,310.4H307.2c-3.2,0-5.333,2.133-5.333,5.333V352c0,3.2,2.133,5.333,5.333,5.333h36.267
	c3.2,0,5.333-2.133,5.333-5.333v-36.267C348.8,313.6,346.667,310.4,343.467,310.4z"/>
<path style="fill:#FFD15C;" d="M409.6,310.4h-36.267c-3.2,0-5.333,2.133-5.333,5.333V352c0,3.2,2.133,5.333,5.333,5.333H409.6
	c3.2,0,5.333-2.133,5.333-5.333v-36.267C414.933,313.6,411.733,310.4,409.6,310.4z"/>
<path style="fill:#FFFFFF;" d="M474.667,310.4H438.4c-3.2,0-5.333,2.133-5.333,5.333V352c0,3.2,2.133,5.333,5.333,5.333h36.267
	c3.2,0,5.333-2.133,5.333-5.333v-36.267C480,313.6,477.867,310.4,474.667,310.4z"/>
<g>
	<polygon style="fill:#55C0EB;" points="333.867,289.067 316.8,289.067 352,226.133 369.067,226.133 	"/>
	<polygon style="fill:#55C0EB;" points="387.2,226.133 377.6,226.133 342.4,289.067 352,289.067 	"/>
</g>
<g>
</g>
<g>
</g>
<g>
</g>
<g>
</g>
<g>
</g>
<g>
</g>
<g>
</g>
<g>
</g>
<g>
</g>
<g>
</g>
<g>
</g>
<g>
</g>
<g>
</g>
<g>
</g>
<g>
</g>
</svg>
