<?xml version="1.0" encoding="iso-8859-1"?>
<!-- Generator: Adobe Illustrator 19.0.0, SVG Export Plug-In . SVG Version: 6.00 Build 0)  -->
<svg version="1.1" id="Capa_1" xmlns="http://www.w3.org/2000/svg" xmlns:xlink="http://www.w3.org/1999/xlink" x="0px" y="0px"
	 viewBox="0 0 512.19 512.19" style="enable-background:new 0 0 512.19 512.19;" xml:space="preserve">
<circle style="fill:#66C6B9;" cx="342.495" cy="342.477" r="169.6"/>
<circle style="fill:#FFFFFF;" cx="342.495" cy="342.477" r="130.133"/>
<path style="fill:#F3705A;" d="M351.028,339.277l36.267,36.267c3.2,3.2,3.2,8.533,0,11.733l0,0c-3.2,3.2-8.533,3.2-11.733,0
	l-39.467-39.467"/>
<path style="fill:#FFD15C;" d="M336.095,347.81c-1.067-1.067-2.133-3.2-2.133-5.333v-82.133c0-4.267,3.2-8.533,8.533-8.533l0,0
	c4.267,0,8.533,3.2,8.533,8.533v77.867"/>
<circle style="fill:#415A6B;" cx="342.495" cy="342.477" r="20.267"/>
<circle style="fill:#344A5E;" cx="342.495" cy="342.477" r="9.6"/>
<g>
	<circle style="fill:#E8EAE9;" cx="342.495" cy="230.477" r="8.533"/>
	<circle style="fill:#E8EAE9;" cx="263.562" cy="263.544" r="8.533"/>
	<circle style="fill:#E8EAE9;" cx="230.495" cy="342.477" r="8.533"/>
	<circle style="fill:#E8EAE9;" cx="263.562" cy="421.41" r="8.533"/>
	<circle style="fill:#E8EAE9;" cx="342.495" cy="454.477" r="8.533"/>
	<circle style="fill:#E8EAE9;" cx="421.428" cy="421.41" r="8.533"/>
	<circle style="fill:#E8EAE9;" cx="454.495" cy="342.477" r="8.533"/>
	<circle style="fill:#E8EAE9;" cx="421.428" cy="263.544" r="8.533"/>
</g>
<circle style="fill:#FFD15C;" cx="128.095" cy="128.077" r="128"/>
<circle style="fill:#F7B64C;" cx="128.095" cy="128.077" r="92.8"/>
<path style="fill:#FFD15C;" d="M121.695,187.81v-10.667c-12.8-2.133-23.467-7.467-34.133-17.067l13.867-16
	c7.467,6.4,14.933,10.667,20.267,12.8v-21.333c-10.667-2.133-18.133-6.4-22.4-10.667c-4.267-4.267-7.467-10.667-7.467-19.2
	s3.2-14.933,8.533-20.267s12.8-8.533,21.333-9.6v-7.467h14.933v7.467c9.6,1.067,19.2,5.333,28.8,11.733l-11.733,17.067
	c-6.4-4.267-11.733-7.467-17.067-8.533v21.333c10.667,3.2,18.133,6.4,23.467,10.667c5.333,4.267,7.467,10.667,7.467,19.2
	c0,8.533-3.2,14.933-8.533,20.267s-12.8,8.533-22.4,9.6v10.667H121.695z M121.695,95.01c-4.267,1.067-6.4,4.267-6.4,8.533
	c0,4.267,2.133,6.4,6.4,8.533V95.01z M145.162,148.344c0-2.133-1.067-4.267-2.133-5.333c-1.067-1.067-3.2-2.133-5.333-4.267v18.133
	C141.962,155.81,145.162,152.61,145.162,148.344z"/>
<g>
	<path style="fill:#F3705A;" d="M486.495,119.544C466.228,37.41,384.095-13.79,300.895,3.277
		c-11.733,2.133-23.467,6.4-34.133,10.667c70.4,2.133,133.333,50.133,150.4,120.533l-25.6,5.333l75.733,61.867l43.733-87.467
		L486.495,119.544z"/>
	<path style="fill:#F3705A;" d="M25.695,365.944c6.4,84.267,77.867,149.333,163.2,146.133c11.733,0,23.467-2.133,35.2-5.333
		c-69.333-12.8-122.667-71.467-128-142.933l25.6-1.067l-64-73.6l-57.6,77.867L25.695,365.944z"/>
</g>
<g>
</g>
<g>
</g>
<g>
</g>
<g>
</g>
<g>
</g>
<g>
</g>
<g>
</g>
<g>
</g>
<g>
</g>
<g>
</g>
<g>
</g>
<g>
</g>
<g>
</g>
<g>
</g>
<g>
</g>
</svg>
