<?xml version="1.0" encoding="iso-8859-1"?>
<!-- Generator: Adobe Illustrator 19.0.0, SVG Export Plug-In . SVG Version: 6.00 Build 0)  -->
<svg version="1.1" id="Capa_1" xmlns="http://www.w3.org/2000/svg" xmlns:xlink="http://www.w3.org/1999/xlink" x="0px" y="0px"
	 viewBox="0 0 511.941 511.941" style="enable-background:new 0 0 511.941 511.941;" xml:space="preserve">
<path style="fill:#FFD15C;" d="M509.749,0l2.133,52.267L326.283,249.6c-5.333,5.333-5.333,13.867,0,19.2
	c6.4,5.333,6.4,14.933,1.067,21.333c-5.333,6.4-14.933,6.4-21.333,1.067c-5.333-5.333-13.867-4.267-19.2,1.067l-3.2,3.2
	c27.733,54.4,19.2,122.667-24.533,169.6c-56.533,59.733-151.467,62.933-211.2,6.4c-60.8-56.533-64-151.467-7.467-211.2
	c44.8-46.933,112-58.667,168.533-35.2l3.2-3.2c5.333-5.333,5.333-13.867,0-19.2c-6.4-5.333-6.4-14.933-1.067-21.333
	c5.333-6.4,14.933-6.4,21.333-1.067c5.333,5.333,13.867,4.267,19.2-1.067l30.933-33.067l27.733-1.067l-1.067-21.333l35.2-1.067
	l23.467-24.533l-2.133-39.467h28.8L393.483,32l37.333-1.067l-1.067-23.467l19.2-1.067l5.333-5.333L509.749,0z"/>
<path style="fill:#F7B64C;" d="M510.816,35.2l-1.067-32l-220.8,234.667c-64,77.867-30.933,66.133,44.8-14.933L510.816,35.2z"/>
<path style="fill:#FFFFFF;" d="M266.549,362.667c0,64-52.267,116.267-116.267,116.267c-65.067,0-117.333-52.267-117.333-116.267
	s52.267-117.333,116.267-117.333C214.283,245.333,266.549,297.6,266.549,362.667z"/>
<path style="fill:#66C6B9;" d="M208.949,362.667c0,5.333-4.267,9.6-9.6,9.6h-50.133L159.883,352h39.467
	C204.683,352,208.949,357.333,208.949,362.667z"/>
<path style="fill:#F3705A;" d="M159.883,293.333V352l-10.667,20.267c-5.333,0-9.6-4.267-9.6-9.6V294.4c0-5.333,4.267-9.6,9.6-9.6
	C154.549,283.733,159.883,288,159.883,293.333z"/>
<circle style="fill:#415A6B;" cx="149.216" cy="362.667" r="24.533"/>
<circle style="fill:#344A5E;" cx="149.216" cy="362.667" r="12.8"/>
<g>
	<circle style="fill:#E8EAE9;" cx="149.216" cy="264.533" r="7.467"/>
	<circle style="fill:#E8EAE9;" cx="79.883" cy="293.333" r="7.467"/>
	<circle style="fill:#E8EAE9;" cx="52.149" cy="362.667" r="7.467"/>
	<circle style="fill:#E8EAE9;" cx="79.883" cy="432" r="7.467"/>
	<circle style="fill:#E8EAE9;" cx="149.216" cy="459.733" r="7.467"/>
	<circle style="fill:#E8EAE9;" cx="218.549" cy="432" r="7.467"/>
	<circle style="fill:#E8EAE9;" cx="247.349" cy="362.667" r="7.467"/>
	<circle style="fill:#E8EAE9;" cx="218.549" cy="293.333" r="7.467"/>
</g>
<g>
</g>
<g>
</g>
<g>
</g>
<g>
</g>
<g>
</g>
<g>
</g>
<g>
</g>
<g>
</g>
<g>
</g>
<g>
</g>
<g>
</g>
<g>
</g>
<g>
</g>
<g>
</g>
<g>
</g>
</svg>
