<?xml version="1.0" encoding="iso-8859-1"?>
<!-- Generator: Adobe Illustrator 19.0.0, SVG Export Plug-In . SVG Version: 6.00 Build 0)  -->
<svg version="1.1" id="Capa_1" xmlns="http://www.w3.org/2000/svg" xmlns:xlink="http://www.w3.org/1999/xlink" x="0px" y="0px"
	 viewBox="0 0 512 512" style="enable-background:new 0 0 512 512;" xml:space="preserve">
<g>
	<path style="fill:#E8EAE9;" d="M296.533,203.733l49.067-90.667h-24.533l-43.733,81.067C284.8,195.2,291.2,198.4,296.533,203.733z"
		/>
	<path style="fill:#E8EAE9;" d="M320,259.2c0,7.467-1.067,13.867-3.2,21.333l86.4,18.133v-21.333L320,259.2z"/>
	<path style="fill:#E8EAE9;" d="M195.2,280.533L103.467,336c3.2,6.4,6.4,12.8,7.467,20.267l93.867-56.533
		C200.533,293.333,197.333,286.933,195.2,280.533z"/>
	<path style="fill:#E8EAE9;" d="M256,323.2c-3.2,0-7.467,0-10.667-1.067v89.6h21.333v-89.6C263.467,322.133,259.2,323.2,256,323.2z"
		/>
	<path style="fill:#E8EAE9;" d="M216.533,201.6L94.933,80c-3.2,6.4-7.467,11.733-12.8,18.133L202.667,217.6
		C205.867,211.2,211.2,205.867,216.533,201.6z"/>
</g>
<circle style="fill:#415A6B;" cx="256" cy="256" r="77.867"/>
<circle style="fill:#344A5E;" cx="256" cy="256" r="46.933"/>
<circle style="fill:#8AD7F8;" cx="58.667" cy="58.667" r="58.667"/>
<circle style="fill:#55C0EB;" cx="58.667" cy="58.667" r="36.267"/>
<circle style="fill:#FFD15C;" cx="350.933" cy="82.133" r="58.667"/>
<circle style="fill:#F7B64C;" cx="350.933" cy="82.133" r="36.267"/>
<circle style="fill:#CED6E0;" cx="256" cy="453.333" r="58.667"/>
<circle style="fill:#ADB3BA;" cx="256" cy="453.333" r="36.267"/>
<circle style="fill:#F3705A;" cx="71.467" cy="366.933" r="58.667"/>
<circle style="fill:#F05540;" cx="71.467" cy="366.933" r="36.267"/>
<circle style="fill:#66C6B9;" cx="453.333" cy="298.667" r="58.667"/>
<circle style="fill:#4ABAA5;" cx="453.333" cy="298.667" r="36.267"/>
<g>
</g>
<g>
</g>
<g>
</g>
<g>
</g>
<g>
</g>
<g>
</g>
<g>
</g>
<g>
</g>
<g>
</g>
<g>
</g>
<g>
</g>
<g>
</g>
<g>
</g>
<g>
</g>
<g>
</g>
</svg>
