<?xml version="1.0" encoding="iso-8859-1"?>
<!-- Generator: Adobe Illustrator 19.0.0, SVG Export Plug-In . SVG Version: 6.00 Build 0)  -->
<svg version="1.1" id="Capa_1" xmlns="http://www.w3.org/2000/svg" xmlns:xlink="http://www.w3.org/1999/xlink" x="0px" y="0px"
	 viewBox="0 0 512.262 512.262" style="enable-background:new 0 0 512.262 512.262;" xml:space="preserve">
<circle style="fill:#66C6B9;" cx="256.031" cy="256.131" r="201.6"/>
<circle style="fill:#FFFFFF;" cx="256.031" cy="256.131" r="154.667"/>
<path style="fill:#F3705A;" d="M265.631,251.864l43.733,43.733c4.267,4.267,4.267,9.6,0,13.867l0,0c-4.267,4.267-9.6,4.267-13.867,0
	l-45.867-45.867"/>
<path style="fill:#FFD15C;" d="M249.631,262.531c-2.133-2.133-3.2-4.267-3.2-6.4v-97.067c0-5.333,4.267-9.6,9.6-9.6l0,0
	c5.333,0,9.6,4.267,9.6,9.6v92.8"/>
<circle style="fill:#415A6B;" cx="256.031" cy="256.131" r="24.533"/>
<circle style="fill:#344A5E;" cx="256.031" cy="256.131" r="11.733"/>
<g>
	<circle style="fill:#E8EAE9;" cx="256.031" cy="122.798" r="9.6"/>
	<circle style="fill:#E8EAE9;" cx="162.165" cy="162.264" r="9.6"/>
	<circle style="fill:#E8EAE9;" cx="122.698" cy="256.131" r="9.6"/>
	<circle style="fill:#E8EAE9;" cx="162.165" cy="349.998" r="9.6"/>
	<circle style="fill:#E8EAE9;" cx="256.031" cy="389.464" r="9.6"/>
	<circle style="fill:#E8EAE9;" cx="349.898" cy="349.998" r="9.6"/>
	<circle style="fill:#E8EAE9;" cx="389.365" cy="256.131" r="9.6"/>
	<circle style="fill:#E8EAE9;" cx="349.898" cy="162.264" r="9.6"/>
</g>
<path style="fill:#F3705A;" d="M416.031,408.664c-11.733,9.6-23.467,17.067-36.267,24.533
	c81.067-91.733,87.467-232.533,7.467-330.667l-24.533,19.2l-1.067-121.6l118.4,27.733l-23.467,19.2
	C544.031,157.998,526.965,320.131,416.031,408.664z"/>
<path style="fill:#FFD15C;" d="M96.031,103.598c11.733-9.6,23.467-17.067,36.267-24.533
	c-81.067,91.733-87.467,232.533-7.467,330.667l23.467-19.2l2.133,121.6L33.098,484.398l23.467-19.2
	C-31.969,354.264-14.902,192.131,96.031,103.598z"/>
<g>
</g>
<g>
</g>
<g>
</g>
<g>
</g>
<g>
</g>
<g>
</g>
<g>
</g>
<g>
</g>
<g>
</g>
<g>
</g>
<g>
</g>
<g>
</g>
<g>
</g>
<g>
</g>
<g>
</g>
</svg>
