<?xml version="1.0" encoding="iso-8859-1"?>
<!-- Generator: Adobe Illustrator 19.0.0, SVG Export Plug-In . SVG Version: 6.00 Build 0)  -->
<svg version="1.1" id="Capa_1" xmlns="http://www.w3.org/2000/svg" xmlns:xlink="http://www.w3.org/1999/xlink" x="0px" y="0px"
	 viewBox="0 0 512 512" style="enable-background:new 0 0 512 512;" xml:space="preserve">
<path style="fill:#66C6B9;" d="M177.067,0.082C78.933,0.082,0,72.616,0,161.149c0,55.467,30.933,103.467,76.8,133.333
	c-8.533,25.6-22.4,51.2-43.733,62.933c0,0,75.733,14.933,131.2-35.2c4.267,0,8.533,1.067,12.8,1.067
	c97.067,0,177.067-72.533,177.067-161.067S274.133,0.082,177.067,0.082z"/>
<path style="fill:#4ABAA5;" d="M167.467,322.216c3.2,0,5.333,0,8.533,0c97.067,0,176-71.467,177.067-161.067c-1.067,0-2.133,0-3.2,0
	C252.8,162.216,172.8,232.616,167.467,322.216z"/>
<g>
	<path style="fill:#FFFFFF;" d="M209.067,181.416l-8.533-20.267l-21.333,4.267c-2.133-2.133-4.267-5.333-6.4-7.467l5.333-21.333
		l-20.267-8.533l-11.733,18.133c-3.2,0-6.4,0-9.6,0L124.8,128.082l-20.267,8.533l4.267,21.333c-2.133,2.133-5.333,4.267-7.467,6.4
		L80,159.016l-8.533,20.267L89.6,191.016c0,3.2,0,6.4,0,9.6l-18.133,11.733L80,232.616l21.333-4.267
		c2.133,2.133,4.267,5.333,6.4,7.467l-5.333,21.333l20.267,8.533l11.733-18.133c3.2,0,6.4,0,9.6,0l11.733,18.133L176,257.149
		l-4.267-21.333c3.2-2.133,5.333-4.267,7.467-6.4l21.333,5.333l8.533-20.267l-18.133-11.733c0-3.2,0-6.4,0-9.6L209.067,181.416z
		 M148.267,218.749c-11.733,4.267-25.6-1.067-29.867-12.8c-4.267-11.733,1.067-25.6,12.8-29.867s25.6,1.067,29.867,12.8
		C166.4,200.616,161.067,213.416,148.267,218.749z"/>
	<path style="fill:#FFFFFF;" d="M281.6,119.549v-17.067l-17.067-3.2c-1.067-2.133-2.133-4.267-3.2-7.467l9.6-13.867L259.2,66.216
		l-13.867,9.6c-2.133-1.067-4.267-2.133-7.467-3.2l-3.2-17.067H217.6l-3.2,17.067c-2.133,1.067-4.267,2.133-7.467,3.2l-13.867-9.6
		l-11.733,11.733l9.6,13.867c-1.067,2.133-2.133,4.267-3.2,7.467l-17.067,3.2v17.067l17.067,3.2c1.067,2.133,2.133,5.333,3.2,7.467
		l-9.6,13.867l11.733,11.733l13.867-9.6c2.133,1.067,4.267,2.133,7.467,3.2l3.2,17.067h17.067l3.2-17.067
		c2.133-1.067,4.267-2.133,7.467-3.2l13.867,9.6l11.733-11.733l-9.6-13.867c1.067-2.133,2.133-4.267,3.2-7.467L281.6,119.549z
		 M228.267,129.149c-9.6,0-18.133-7.467-18.133-18.133c0-9.6,7.467-18.133,18.133-18.133c9.6,0,18.133,8.533,18.133,18.133
		C245.333,120.616,237.867,129.149,228.267,129.149z"/>
</g>
<path style="fill:#FFD15C;" d="M441.6,452.349c42.667-26.667,70.4-71.467,70.4-121.6c0-81.067-72.533-147.2-162.133-147.2
	s-162.133,66.133-162.133,147.2s72.533,147.2,162.133,147.2c4.267,0,7.467,0,11.733,0c51.2,45.867,120.533,32,120.533,32
	C461.867,499.282,450.133,476.882,441.6,452.349z"/>
<g>
	<circle style="fill:#FFFFFF;" cx="264.533" cy="330.749" r="26.667"/>
	<circle style="fill:#FFFFFF;" cx="349.867" cy="330.749" r="26.667"/>
	<circle style="fill:#FFFFFF;" cx="436.267" cy="330.749" r="26.667"/>
</g>
<g>
</g>
<g>
</g>
<g>
</g>
<g>
</g>
<g>
</g>
<g>
</g>
<g>
</g>
<g>
</g>
<g>
</g>
<g>
</g>
<g>
</g>
<g>
</g>
<g>
</g>
<g>
</g>
<g>
</g>
</svg>
