<?xml version="1.0" encoding="iso-8859-1"?>
<!-- Generator: Adobe Illustrator 19.0.0, SVG Export Plug-In . SVG Version: 6.00 Build 0)  -->
<svg version="1.1" id="Capa_1" xmlns="http://www.w3.org/2000/svg" xmlns:xlink="http://www.w3.org/1999/xlink" x="0px" y="0px"
	 viewBox="0 0 512 512" style="enable-background:new 0 0 512 512;" xml:space="preserve">
<circle style="fill:#8AD7F8;" cx="238.933" cy="238.933" r="238.933"/>
<g>
	<path style="fill:#F3F3F3;" d="M218.667,69.333c0,1.067-1.067,3.2-2.133,3.2c0,0,0,0-1.067,1.067
		c-1.067,2.133-2.133,4.267-3.2,5.333V80c0,1.067,1.067,2.133,1.067,3.2c-1.067,1.067-2.133,2.133-3.2,3.2
		c-4.267,3.2-9.6,5.333-13.867,5.333c-1.067,0-2.133,1.067-3.2,2.133c-2.133,3.2-4.267,3.2-6.4,5.333
		c-1.067,1.067-3.2,1.067-4.267,1.067c-1.067,0-1.067,1.067-2.133,1.067c0,0,0,0,0,1.067c-3.2,5.333-5.333,10.667-8.533,16
		c-1.067-1.067-1.067-2.133-2.133-3.2c-1.067,0-1.067-1.067-2.133,0c-2.133,1.067-3.2,0-4.267-2.133
		c-1.067-2.133-2.133-4.267-3.2-6.4c1.067-1.067,1.067-2.133,2.133-3.2c-2.133,0-3.2,0-3.2-4.267c0-1.067,1.067-3.2,2.133-4.267
		c1.067-1.067,3.2-4.267,3.2,0c1.067-4.267,3.2-7.467,1.067-9.6c0,2.133-2.133,4.267-2.133,4.267
		c-1.067,4.267-2.133,2.133-3.2,2.133c0,0,0-1.067-1.067-2.133c1.067-1.067,1.067-2.133,2.133-2.133s1.067,0,2.133,0
		c0-1.067-1.067-2.133-1.067-3.2c-1.067,1.067-1.067,1.067-2.133,2.133c1.067,1.067,0,1.067,0-2.133c1.067-6.4,0-10.667-3.2-10.667
		s-7.467,1.067-9.6,1.067c-3.2,0-5.333-1.067-5.333-6.4c4.267-2.133,8.533-3.2,12.8-5.333C153.6,64,152.533,64,151.467,64
		c1.067-1.067,2.133-2.133,3.2-3.2c-2.133,2.133-4.267,3.2-6.4,4.267c-2.133,1.067-4.267,2.133-6.4,3.2
		c-2.133,1.067-4.267,0-7.467,4.267c-1.067,1.067-1.067,1.067-2.133,2.133c-1.067,0-1.067,1.067-2.133,1.067
		c-3.2,4.267-4.267,3.2-6.4,4.267c0,0,1.067,0,1.067,1.067c0,0,1.067,1.067,1.067,2.133c-2.133,1.067-4.267,3.2-5.333,2.133
		c-1.067-1.067-3.2,0-4.267,0l0,0c-1.067,1.067-3.2,3.2-3.2,4.267c0,1.067-1.067,1.067-1.067,2.133c0,0,1.067,0,1.067-1.067
		c3.2-4.267,5.333-4.267,7.467-5.333c0,0,1.067,0,0,1.067c-1.067,4.267,1.067,2.133,2.133,2.133
		c-1.067-1.067-1.067-1.067-2.133-2.133c0,0,0-1.067,1.067-1.067c2.133-1.067,4.267-1.067,5.333,0c1.067,1.067,2.133,2.133,3.2,3.2
		h1.067c1.067,0,3.2-1.067,2.133,1.067c2.133,0,3.2,1.067,5.333,1.067c0,3.2,0,4.267-1.067,5.333c1.067,1.067,2.133,1.067,3.2,2.133
		c1.067,0,1.067,0,2.133,1.067c1.067,0,1.067,1.067,2.133,1.067l1.067,1.067c0,1.067-1.067,1.067-1.067,1.067
		c-1.067,0-3.2,4.267-5.333,3.2c-1.067-1.067-2.133-2.133-3.2-3.2c-2.133,5.333,1.067,4.267,2.133,6.4
		c-1.067,1.067-1.067,3.2-2.133,4.267c-1.067,0-2.133-1.067-2.133-1.067v1.067c-1.067,1.067-2.133,2.133-2.133,2.133
		c-3.2-1.067-6.4-2.133-7.467-5.333c0-1.067-2.133,0-3.2,0c3.2-3.2,5.333-6.4,8.533-9.6c-2.133-1.067-3.2-1.067-5.333-2.133
		c-1.067-1.067-2.133-1.067-2.133-2.133c-1.067-2.133-3.2,0-4.267,0c-1.067,0-2.133,1.067-4.267,2.133
		c0,1.067,1.067,1.067,1.067,2.133c-1.067,1.067-1.067,1.067-2.133,1.067c0,1.067,1.067,1.067,1.067,2.133
		c-2.133,2.133-4.267,3.2-6.4,5.333c0,0,0,1.067-1.067,1.067c2.133,2.133,4.267,4.267,6.4,5.333c1.067,1.067,3.2,0,5.333,0
		c1.067,0,3.2,1.067,4.267,1.067c0,0,0,1.067,1.067,1.067c3.2,1.067,3.2,1.067,1.067,7.467c2.133,0,3.2,0,5.333,0
		c1.067,0,1.067-1.067,2.133-1.067c2.133-3.2,3.2-3.2,4.267-1.067s1.067,4.267,2.133,6.4c0,0-1.067,2.133-1.067,3.2
		c1.067,1.067,3.2,1.067,5.333,3.2c1.067,1.067,2.133,2.133,3.2,4.267c0,1.067,0,3.2-1.067,4.267c0,1.067-1.067,1.067-2.133,1.067
		c-2.133,1.067-3.2,2.133-5.333,3.2c-1.067,1.067-2.133,1.067-3.2,1.067c-3.2,1.067-6.4,1.067-9.6,2.133
		c-2.133,0-3.2,2.133-5.333,4.267c3.2,0,7.467-5.333,9.6,0c-1.067,1.067-2.133,1.067-2.133,2.133c0,6.4,3.2,7.467,7.467,2.133
		c0,1.067,1.067,1.067,1.067,2.133c-4.267,2.133-8.533,4.267-12.8,7.467c1.067-2.133,1.067-3.2,2.133-4.267l0,0
		c-2.133-1.067-9.6,4.267-11.733,7.467c-1.067,1.067-1.067,3.2-2.133,4.267l-1.067,1.067c-1.067,1.067-2.133,1.067-4.267,2.133
		c-2.133,2.133-4.267,3.2-5.333,6.4c-1.067,1.067-1.067,4.267-2.133,6.4c-2.133-1.067-3.2,1.067-4.267,2.133
		C89.6,198.4,86.4,202.667,86.4,208c-3.2-1.067-7.467-2.133-10.667-2.133c-1.067,0-3.2,1.067-5.333,1.067
		c-1.067,0-2.133-1.067-3.2-1.067c-1.067,1.067-3.2,1.067-4.267,2.133c-2.133,1.067-4.267,3.2-5.333,5.333
		c-4.267,2.133-3.2,6.4-4.267,10.667c0,2.133,0,4.267,0,5.333c0,5.333,3.2,8.533,5.333,10.667c1.067,1.067,3.2,1.067,4.267,0
		c1.067-1.067,2.133-3.2,3.2-4.267c0-1.067,1.067-2.133,1.067-3.2c5.333,2.133,4.267,2.133,4.267,6.4c0,2.133,0,4.267,0,7.467
		c1.067,0,3.2,0,4.267,0c2.133,0,3.2,1.067,5.333,2.133c0,0,1.067,1.067,1.067,2.133c0,2.133,0,5.333,0,7.467
		c0,3.2,3.2,7.467,5.333,7.467c1.067,0,2.133-1.067,4.267-1.067c1.067,0,2.133,0,3.2,1.067c-1.067,1.067,1.067,1.067,1.067-2.133
		c1.067-2.133,4.267-6.4,6.4-5.333c0,0,1.067,1.067,1.067,2.133s1.067,3.2,1.067,5.333c1.067-1.067,1.067-2.133,1.067-2.133
		c1.067-1.067-1.067-4.267,2.133-4.267c1.067,0,2.133-1.067,4.267,1.067h1.067c1.067,0,2.133,0,2.133,0
		c2.133,3.2,4.267,1.067,5.333-1.067c1.067,2.133,2.133,3.2,3.2,4.267c0,0,0,0-1.067,1.067c1.067,1.067,2.133,1.067,3.2,1.067
		c1.067,1.067,3.2,1.067,4.267,3.2c2.133,4.267,4.267,5.333,7.467,5.333c4.267,0,7.467,4.267,8.533,9.6c0,2.133,2.133,4.267,0,6.4
		c-1.067,1.067-2.133,3.2-3.2,5.333c1.067,1.067,2.133,3.2,2.133,3.2c2.133-1.067,5.333,1.067,6.4-3.2
		c1.067-2.133,1.067-2.133,2.133-1.067c1.067,1.067,2.133,2.133,4.267,3.2c-1.067,1.067-1.067,1.067-1.067,2.133c0,0,0,0,0,1.067
		c1.067,0,1.067,1.067,2.133,1.067s2.133-1.067,3.2-1.067c1.067,0,2.133-1.067,3.2,0c2.133,1.067,3.2,2.133,5.333,3.2
		c2.133,1.067,3.2,4.267,5.333,3.2l1.067,1.067c2.133,3.2,1.067,9.6,0,12.8c-2.133,3.2-3.2,6.4-4.267,9.6c0,1.067,0,2.133,0,4.267
		c1.067,7.467,0,13.867-1.067,20.267c-1.067,4.267-4.267,3.2-5.333,5.333c-1.067,1.067-2.133,2.133-4.267,3.2
		s-2.133,3.2-1.067,7.467c1.067,4.267,0,7.467-2.133,8.533l0,0c-1.067,3.2-2.133,5.333-2.133,8.533c0,2.133,0,5.333-1.067,5.333
		c-3.2,0-5.333-2.133-6.4-5.333c-1.067,0-2.133-1.067-3.2-1.067h-1.067c0,1.067,1.067,1.067,1.067,2.133
		c1.067,1.067,2.133,2.133,3.2,3.2c1.067,1.067,2.133,2.133,3.2,3.2c0,1.067,0,1.067-1.067,2.133c0,1.067,1.067,1.067,1.067,2.133
		c1.067,3.2,1.067,4.267,0,5.333c-2.133,0-4.267,1.067-6.4,1.067c1.067,1.067,1.067,2.133,1.067,3.2s0,2.133-1.067,2.133
		c0,0-1.067,0-2.133-1.067c1.067,1.067,1.067,3.2,2.133,4.267c0,0,0,0,1.067,1.067c-1.067,3.2-1.067,6.4-1.067,9.6
		c1.067,1.067,2.133,2.133,4.267,4.267c-1.067,2.133-1.067,4.267-2.133,6.4c0,1.067,0,3.2,2.133,5.333l-1.067,1.067
		c2.133,2.133,4.267,4.267,6.4,6.4c0,3.2-2.133,3.2-7.467-3.2c1.067,0,1.067-1.067,2.133-1.067c-1.067-1.067-2.133-2.133-3.2-2.133
		c1.067,3.2,0,4.267-1.067,2.133c-1.067-1.067-2.133-3.2-3.2-5.333c-1.067-2.133-2.133-4.267-3.2-5.333
		c-2.133-2.133-3.2-5.333-1.067-5.333c-1.067-1.067-1.067-2.133-2.133-4.267c-1.067,0-1.067-1.067-1.067-1.067
		c-1.067-4.267-1.067-8.533-1.067-11.733c-2.133,0-3.2-2.133-4.267-5.333c0-1.067,0-2.133-1.067-3.2
		C128,401.067,128,398.933,128,396.8c0-3.2,0-6.4-1.067-10.667c-2.133-7.467-2.133-12.8-4.267-19.2
		c-1.067-6.4-2.133-11.733-3.2-18.133c-1.067-4.267-4.267-5.333-6.4-7.467c-2.133-2.133-5.333-4.267-7.467-7.467
		c-3.2-4.267-5.333-8.533-7.467-12.8c-2.133-3.2-4.267-6.4-5.333-10.667c-1.067-1.067-1.067-3.2-1.067-5.333
		c0-1.067,1.067-3.2,1.067-4.267c-1.067-1.067-1.067-1.067-1.067-2.133c-1.067-3.2,0-7.467,2.133-8.533
		c3.2-3.2,4.267-8.533,3.2-13.867c0-2.133-2.133-5.333-4.267-6.4c0-1.067-2.133,0-3.2,1.067s-2.133,2.133-3.2,0
		c-2.133-2.133-4.267-3.2-6.4-5.333c-4.267-5.333-5.333-7.467-6.4-9.6l-1.067-1.067c-4.267-1.067-8.533-3.2-11.733-7.467
		c-1.067-1.067-2.133-1.067-4.267-1.067c-2.133,0-4.267-1.067-6.4-2.133s-4.267-2.133-6.4-3.2c-1.067-1.067-3.2-2.133-4.267-3.2
		c-1.067-1.067-1.067-3.2-1.067-5.333c0-4.267-2.133-5.333-3.2-7.467c-1.067-1.067-1.067-2.133-2.133-3.2
		c-2.133-2.133-3.2-5.333-4.267-7.467c-1.067-1.067-1.067-3.2-1.067-4.267c-1.067-1.067-2.133-2.133-3.2-4.267l-1.067,1.067
		c1.067,3.2,2.133,7.467,4.267,10.667c0,1.067,0,2.133,0,3.2c-1.067,0-1.067,0-2.133-1.067c-3.2-3.2-3.2-8.533-4.267-12.8
		c-1.067-3.2-1.067-6.4-4.267-5.333c0,0-1.067,0-1.067-1.067c-1.067-3.2-1.067-5.333-2.133-8.533c0-1.067-1.067-2.133-1.067-3.2
		c0-4.267,1.067-9.6,4.267-14.933c1.067-2.133,1.067-4.267,2.133-6.4c1.067-3.2-1.067-2.133-1.067-3.2
		c-1.067-1.067-1.067-2.133-2.133-3.2c0,0,0,0,1.067,0c0-1.067,0-2.133,0-3.2V156.8c5.333-13.867,11.733-26.667,19.2-39.467
		c2.133,0,6.4-3.2,9.6-5.333h1.067c1.067,1.067,4.267,0,8.533-1.067c2.133-1.067,3.2,0,4.267,0s2.133,0,3.2-1.067
		c0-1.067,0-1.067,0-2.133s1.067-1.067,2.133-2.133c-1.067,0-1.067,0-2.133,0c1.067-2.133,2.133-3.2,3.2-5.333
		c-7.467,6.4-9.6,7.467-11.733,5.333c-1.067,0,0-2.133,2.133-4.267c0,0,1.067-1.067,2.133-1.067S59.733,99.2,60.8,99.2
		s3.2-1.067,4.267-1.067s1.067,0,1.067,0c2.133,0,4.267,1.067,7.467,1.067c1.067,0,4.267-2.133,3.2,1.067
		c3.2-4.267,6.4-6.4,7.467-5.333c-3.2,3.2-3.2,6.4,0,7.467c-1.067,1.067-2.133,3.2-3.2,4.267c-1.067,0-2.133,1.067-2.133,0
		c-1.067-1.067-3.2,0-5.333,2.133c2.133,0,4.267,1.067,7.467,1.067c3.2,0,6.4-2.133,9.6-2.133c0,0,0-1.067,1.067-1.067
		c-1.067,0-1.067,0-2.133,0c0,0,0,0,0-1.067c1.067,0,2.133-1.067,2.133-1.067c1.067,0,2.133,0,0,3.2
		c-1.067,1.067-1.067,3.2-1.067,3.2c0,1.067,1.067-1.067,2.133-2.133c1.067-2.133,3.2-3.2,5.333-4.267v-1.067
		c-1.067,0-2.133,1.067-2.133,0c0,0-1.067-1.067,0-2.133c-1.067-2.133,0-3.2,0-4.267c2.133-1.067,3.2-3.2,3.2-4.267
		c0,0,2.133-3.2,3.2-3.2c1.067-1.067,1.067,0,2.133-1.067c1.067,0,2.133,0,3.2-1.067c1.067,0,1.067,0,1.067,1.067
		c-1.067,1.067-2.133,2.133-3.2,3.2c-1.067,0-1.067,0-2.133,1.067c-1.067,0-2.133,1.067-3.2,2.133c-1.067,3.2,2.133,2.133,0,5.333
		c1.067,1.067,1.067,2.133,2.133,2.133c1.067-1.067,1.067-2.133,3.2-3.2c0,2.133-1.067,3.2-1.067,4.267s1.067,2.133,2.133,0
		c1.067-1.067,3.2-3.2,3.2-5.333c1.067-1.067,2.133-1.067,2.133-1.067c-1.067,0-1.067-1.067-2.133-1.067s-2.133,1.067-3.2,2.133
		c0,0,0,0,0-1.067l0,0c1.067-1.067,0-2.133-1.067-3.2c2.133-1.067,3.2-5.333,5.333-7.467c-1.067,0-2.133,0-4.267,0c0,0-1.067,0,0,0
		c2.133-4.267,0-3.2-2.133-2.133c-1.067,1.067-2.133,1.067-1.067-2.133c2.133,0,5.333-1.067,6.4,0c0,1.067,1.067,2.133,4.267,0
		c1.067-1.067,1.067,1.067,2.133,0c2.133-1.067,5.333-2.133,7.467-3.2c-1.067,0-3.2,0-4.267,0c-1.067,0-2.133,1.067-3.2,1.067
		c-1.067,0,0-2.133,1.067-4.267c2.133-2.133,4.267-3.2,6.4-5.333c0-1.067-1.067-1.067-1.067-2.133c1.067,0,3.2-1.067,4.267-1.067
		c-2.133-2.133-6.4,2.133-8.533-1.067c1.067-1.067,2.133-1.067,2.133-1.067c1.067,0,4.267-2.133,5.333-2.133
		c0,0,2.133-1.067,4.267-2.133c5.333-2.133,10.667-5.333,13.867-4.267c1.067,0,2.133-1.067,3.2-1.067s2.133,0,3.2,0
		c2.133,0,4.267-1.067,6.4-1.067c1.067,0,1.067,1.067,2.133,1.067c-1.067,1.067-2.133,2.133-2.133,2.133s0,0,0,1.067
		c1.067,0,3.2,0,4.267-1.067c4.267-4.267,7.467-3.2,10.667-4.267C173.867,52.267,176,54.4,179.2,51.2
		c1.067-1.067,3.2-1.067,4.267-3.2c2.133-2.133,2.133,0,1.067,3.2c0-1.067,1.067-2.133,1.067-3.2c2.133-2.133,4.267-1.067,5.333,0
		l0,0c2.133-1.067,3.2-2.133,5.333-3.2h1.067c4.267,0,8.533,0,13.867,0c1.067,0,3.2,0,4.267,1.067c0,0,0,2.133,1.067,3.2
		c1.067,0,2.133,0,3.2-1.067c3.2,0,6.4,0,9.6-1.067c0,0,0,0,1.067,1.067c-4.267,2.133-9.6,5.333-14.933,9.6
		c1.067,1.067,1.067,1.067,2.133,2.133c-1.067,1.067-1.067,2.133-2.133,3.2C217.6,66.133,219.733,65.067,218.667,69.333z"/>
	<path style="fill:#F3F3F3;" d="M461.867,168.533c0,1.067-1.067,2.133-2.133,2.133c-1.067,1.067-4.267-1.067-4.267-3.2
		c0-3.2-2.133-2.133-3.2-3.2c-1.067-1.067-2.133-2.133-3.2-2.133c-3.2-1.067-4.267,1.067-6.4,3.2
		c-1.067-2.133-1.067-3.2-2.133-4.267c-3.2,1.067-2.133,6.4-7.467,3.2c0,1.067-1.067,2.133-1.067,3.2
		c4.267,4.267,7.467,3.2,10.667,0c1.067-1.067,3.2,0,4.267,0c0,0,0,1.067,1.067,1.067c-1.067,1.067-1.067,1.067-2.133,2.133
		c0,1.067-1.067,2.133-1.067,3.2c2.133,2.133,4.267,3.2,7.467,5.333c-1.067,1.067-1.067,1.067-2.133,1.067h1.067
		c3.2,1.067,6.4,4.267,6.4,7.467c0,3.2,0,6.4-1.067,8.533c-1.067,3.2-3.2,5.333-5.333,8.533c0,1.067-2.133,0-3.2,0
		c0,2.133,0,3.2-2.133,4.267c-2.133,0-3.2,2.133-5.333,1.067l-1.067,2.133c-2.133,0-2.133,1.067-2.133,2.133
		c-1.067,3.2,0,5.333,3.2,6.4c3.2,2.133,6.4,4.267,8.533,8.533c1.067,2.133,1.067,4.267,0,7.467c-1.067,3.2-3.2,1.067-5.333,0
		c-1.067,0-1.067-1.067-2.133-1.067c0,1.067,1.067,2.133,1.067,3.2c0,0,0,1.067,1.067,1.067v1.067c-3.2-2.133-6.4-3.2-9.6-5.333
		c0-1.067,0-1.067,0-2.133c-1.067,0-1.067,0-2.133,0v2.133c2.133,2.133,1.067,4.267,1.067,7.467c0,1.067,0,2.133,0,2.133
		c2.133,2.133,3.2,7.467,6.4,8.533c3.2,1.067,7.467,7.467,8.533,11.733c-4.267-1.067-8.533-3.2-10.667-9.6
		c0-1.067-2.133-3.2-3.2-3.2c-3.2-1.067-4.267-5.333-4.267-7.467c0-3.2-1.067-5.333-3.2-7.467c-1.067-1.067-2.133-3.2-3.2-5.333
		s-2.133-3.2-4.267-3.2c-2.133,0-4.267,1.067-5.333-3.2c0-1.067-2.133-2.133-4.267-3.2h-1.067c-2.133-2.133-4.267-4.267-6.4-6.4
		c0,1.067,1.067,2.133,1.067,4.267c0,0,0,0-1.067,0c-1.067-2.133-2.133-4.267-3.2-6.4c-1.067,0-1.067,1.067-2.133,1.067
		c0,2.133,1.067,4.267,1.067,6.4c0,0,0,0,1.067,0c0,2.133-1.067,3.2-1.067,5.333c-2.133,5.333-3.2,10.667-5.333,14.933
		c-1.067,2.133-1.067,2.133,0,4.267c3.2,5.333,2.133,9.6,1.067,14.933l0,0c0,1.067-1.067,2.133-1.067,3.2
		c-1.067-1.067-2.133-2.133-3.2-3.2c-3.2-5.333-7.467-9.6-10.667-14.933c-3.2-4.267-5.333-9.6-6.4-14.933
		c0-1.067-1.067-1.067-1.067-2.133c0,2.133,0,4.267,0,4.267c-1.067,0-3.2,0-4.267-1.067v-1.067c0-1.067,1.067-2.133,2.133-4.267
		c-1.067,0-3.2,1.067-4.267,1.067V227.2c0-1.067,0-1.067,0-2.133c-2.133-1.067-4.267-1.067-7.467-2.133
		c-3.2,1.067-6.4,2.133-10.667,3.2c-1.067,0-2.133,0-3.2,1.067c-1.067,0-3.2,1.067-4.267-2.133c0-1.067-2.133-1.067-2.133,0
		c-2.133,2.133-3.2,2.133-6.4,1.067s-5.333-3.2-7.467-5.333c-1.067-1.067-3.2-3.2-4.267-1.067c-1.067-1.067-1.067-2.133-2.133-3.2
		c-1.067-1.067-3.2-3.2-4.267-1.067c0,1.067-1.067,1.067-2.133,1.067v1.067c1.067,0,3.2,1.067,4.267,1.067s3.2,0,3.2,2.133
		c0,1.067,1.067,2.133,2.133,3.2c2.133,2.133,4.267,3.2,6.4,6.4c1.067,1.067,3.2,3.2,5.333,4.267
		c2.133,1.067,4.267-1.067,4.267-5.333c0-1.067,0-2.133,1.067-3.2c1.067,1.067,1.067,2.133,2.133,3.2
		c1.067,2.133,2.133,3.2,4.267,3.2c1.067,0,3.2,2.133,4.267,3.2c0,0,0,2.133,0,3.2c0,1.067-1.067,2.133-1.067,3.2
		c1.067,3.2,0,3.2-2.133,3.2c1.067,3.2,0,5.333-1.067,6.4s-3.2,2.133-3.2,5.333c0,1.067-1.067,1.067-1.067,1.067
		c-3.2,4.267-7.467,7.467-10.667,10.667c-1.067,1.067-1.067,1.067-2.133,1.067c1.067,4.267,3.2,6.4,6.4,4.267s6.4-4.267,9.6-6.4
		c1.067,3.2,1.067,4.267,1.067,6.4c0,5.333-1.067,11.733-2.133,17.067c-1.067,6.4-3.2,10.667-7.467,13.867
		c1.067,0,1.067,1.067,3.2,1.067c-1.067,2.133-2.133,4.267-2.133,6.4c0,2.133,0,4.267,0,6.4c-1.067,7.467,3.2,12.8,5.333,18.133
		c2.133,4.267,4.267,8.533,4.267,12.8c1.067,5.333-1.067,8.533-3.2,9.6c-2.133,2.133-2.133,6.4-3.2,9.6c0,0,0,1.067,0,2.133
		c1.067,2.133,2.133,4.267,3.2,6.4c1.067,3.2,1.067,5.333-1.067,6.4c-2.133,1.067-2.133,3.2-1.067,6.4c0,1.067,0,2.133,0,3.2
		c-1.067,7.467-2.133,14.933-5.333,19.2c-2.133,2.133-3.2,4.267-6.4,4.267c-1.067,0-2.133,1.067-3.2,2.133
		c-2.133,2.133-4.267,0-5.333-4.267c-1.067-3.2-3.2-6.4-5.333-8.533c-3.2-3.2-5.333-7.467-7.467-12.8
		c-2.133-6.4-5.333-10.667-9.6-14.933c-1.067-1.067-2.133-3.2-2.133-4.267c-1.067-4.267-1.067-8.533-1.067-12.8
		c0-1.067,0-3.2-1.067-4.267c-2.133-3.2-3.2-7.467-5.333-10.667C284.8,342.4,281.6,339.2,278.4,336
		c-2.133-2.133-4.267-5.333-4.267-9.6c0-3.2-2.133-5.333-3.2-8.533c-1.067-2.133-4.267-3.2-6.4-1.067
		c-1.067,1.067-2.133,1.067-3.2-1.067c-1.067-2.133-5.333-2.133-7.467-1.067c-2.133,1.067-3.2,3.2-4.267,5.333
		c-1.067,1.067-2.133,2.133-4.267,2.133s-4.267,1.067-6.4,3.2c-2.133,2.133-4.267,2.133-6.4,1.067s-4.267-2.133-5.333-3.2
		c-2.133-1.067-4.267-3.2-5.333-5.333c-2.133-3.2-4.267-5.333-7.467-7.467c-4.267-3.2-6.4-7.467-4.267-11.733
		c0-2.133,0-3.2-1.067-5.333c0-1.067-1.067-2.133-1.067-3.2c-1.067-2.133-3.2-3.2-3.2-4.267c-1.067-2.133-1.067-5.333-1.067-7.467
		c0-4.267,2.133-7.467,2.133-11.733c0-3.2,2.133-5.333,2.133-7.467c0-1.067,1.067-3.2,1.067-5.333
		c-1.067-5.333,0-7.467,1.067-10.667c1.067-1.067,1.067-3.2,1.067-5.333c0-1.067,1.067-2.133,1.067-1.067
		c4.267,1.067,7.467-2.133,10.667-5.333c1.067-1.067,3.2-3.2,4.267-3.2c3.2-1.067,5.333-2.133,8.533-3.2
		c1.067,0,2.133-1.067,3.2-1.067c2.133,2.133,3.2,5.333,2.133,7.467c3.2,2.133,5.333,3.2,8.533,2.133c1.067,0,2.133,0,3.2,1.067
		c3.2,3.2,6.4,0,9.6,3.2c0,0,2.133-2.133,1.067-3.2c-1.067-2.133-1.067-3.2,0-4.267s3.2-2.133,4.267-2.133
		c5.333,2.133,10.667,1.067,16,1.067c6.4,0,8.533-8.533,4.267-17.067c0-1.067,0-1.067-1.067-3.2c-1.067,1.067-2.133,2.133-4.267,3.2
		c-2.133,1.067-5.333,1.067-7.467,2.133c-2.133,1.067-6.4-2.133-8.533-6.4c-1.067-1.067-1.067-2.133-1.067-3.2
		c-1.067,0-2.133-1.067-3.2,0c-1.067,1.067-1.067,2.133-2.133,4.267c1.067,2.133,1.067,3.2,2.133,5.333
		c1.067,3.2,0,4.267-2.133,2.133c-3.2-3.2-6.4-4.267-8.533-10.667c0-1.067-3.2-2.133-4.267-3.2c-2.133-1.067-4.267-2.133-6.4-3.2
		c-1.067,0-1.067,0-2.133,0c-3.2-3.2-3.2-3.2-4.267,1.067c4.267,3.2,9.6,5.333,13.867,8.533c1.067,2.133,1.067,4.267,2.133,6.4
		c-3.2-2.133-5.333-4.267-7.467-5.333c-2.133-1.067-4.267-2.133-7.467-3.2c0,0-1.067,0-1.067-1.067
		c-3.2-3.2-5.333-2.133-7.467,1.067c0,1.067-2.133,1.067-2.133,1.067c-2.133,0-3.2,0-2.133,4.267c0,1.067,0,3.2-1.067,3.2
		c-1.067,1.067-2.133,3.2-2.133,6.4c0,4.267-1.067,7.467-3.2,8.533c-1.067,0-1.067,1.067-1.067,1.067
		c-1.067,1.067-2.133,3.2-4.267,1.067c-1.067-1.067-2.133,0-4.267,1.067c-2.133-5.333-4.267-10.667-5.333-16
		c-1.067-3.2,1.067-3.2,2.133-4.267c3.2-1.067,5.333-1.067,8.533-2.133c1.067,0,1.067-1.067,2.133-2.133
		c1.067-2.133-1.067-5.333-2.133-7.467c-2.133-3.2-4.267-3.2-6.4-4.267v-1.067c1.067,0,2.133-1.067,2.133-1.067
		c1.067-1.067,1.067-2.133,2.133-2.133c2.133-1.067,3.2-5.333,5.333-6.4s3.2-3.2,5.333-4.267l1.067-1.067
		c0-4.267,3.2-5.333,5.333-7.467c1.067-1.067,2.133-3.2,4.267-3.2c1.067,0,2.133,0,3.2,0c1.067-2.133,2.133-6.4,6.4-4.267
		c1.067,1.067,2.133-2.133,4.267-3.2c-1.067-2.133-3.2-4.267-2.133-6.4c1.067-2.133,2.133,0,4.267,1.067
		c0-2.133,0-5.333-2.133-7.467c2.133-1.067,2.133-5.333,5.333-1.067c1.067-1.067,2.133-3.2,2.133-4.267c-3.2,0-6.4,0-8.533,2.133
		c-2.133,2.133-5.333,0-7.467-4.267c0-1.067,0-2.133,0-2.133c0-1.067,1.067-2.133,1.067-4.267c0-1.067,1.067-2.133,2.133-4.267
		c-1.067,0-3.2-1.067-3.2-1.067c-1.067,1.067-4.267,0-3.2,5.333c0,1.067-1.067,3.2-2.133,4.267c-2.133,3.2-2.133,5.333,2.133,8.533
		c-1.067,1.067-2.133,1.067-2.133,2.133c1.067,1.067,2.133,2.133,2.133,3.2c0,2.133,0,3.2,1.067,5.333c1.067,3.2,0,2.133-1.067,3.2
		v1.067c0,1.067-1.067,1.067-1.067,1.067l-1.067-1.067c0-2.133-1.067-3.2-2.133-4.267c-1.067-1.067-3.2-3.2-4.267-5.333
		c-1.067,2.133-2.133,3.2-3.2,5.333c-7.467,10.667-8.533,10.667-10.667,8.533c-1.067-2.133-3.2-4.267-3.2-7.467
		c0-1.067,0-2.133,0-2.133c2.133-2.133,4.267-4.267,6.4-5.333c1.067-1.067,2.133-1.067,0-3.2c0-2.133,0-3.2,1.067-5.333
		c0-1.067,0-3.2,1.067-3.2c2.133-1.067,1.067-6.4,4.267-6.4c0,0,0,0,0-1.067c0-4.267,2.133-3.2,3.2-4.267
		c1.067-1.067,2.133-2.133,4.267-3.2c1.067-1.067,3.2-1.067,4.267-1.067c1.067,0,2.133-1.067,3.2-1.067c1.067,0,2.133,0,3.2,0
		c0,1.067-1.067,1.067-1.067,2.133l0,0c2.133,0,4.267,0,6.4,0c3.2-1.067,7.467,0,11.733,0c1.067,0,3.2,1.067,4.267,2.133
		c0,1.067,0,2.133,0,3.2c2.133-1.067,3.2-3.2,5.333,0c0,0,0-2.133,0-3.2c1.067-2.133,6.4,3.2,4.267-3.2
		c3.2-1.067,5.333-3.2,8.533-4.267c3.2-1.067,6.4-2.133,9.6-3.2l-1.067-1.067c0-1.067,0-2.133,0-2.133c2.133,0,4.267,0,6.4,0
		c1.067,0,2.133,0,3.2,0c1.067,0,3.2,1.067,5.333,1.067c-3.2-2.133-5.333-4.267-7.467-5.333c0-2.133,0-4.267,0-5.333
		c1.067-1.067,3.2-1.067,5.333-1.067c3.2,4.267,4.267,7.467,8.533,10.667c1.067,3.2,0,5.333-3.2,5.333
		c7.467,1.067,8.533-2.133,5.333-6.4c1.067,0,2.133-1.067,3.2,0c1.067,0,3.2,2.133,2.133,0c-3.2-2.133-4.267-2.133-5.333-1.067
		c-1.067,0-2.133,1.067-4.267-2.133c0-1.067-2.133-2.133-3.2-3.2c1.067,0,1.067-2.133,4.267,0c1.067,1.067,2.133-1.067,3.2-2.133
		c1.067,0,2.133,0,3.2,0h1.067c2.133,0,4.267,1.067,8.533,4.267c-2.133-4.267-3.2-6.4-3.2-7.467c-3.2-1.067-4.267,1.067-8.533-4.267
		c2.133,0,6.4,0,8.533-2.133c0-1.067-1.067-3.2,0-3.2c1.067-1.067,3.2-1.067,4.267-2.133c0,0,1.067,0,1.067-1.067
		c1.067,0,3.2,0,4.267-1.067h1.067c1.067,0,2.133,0,3.2-1.067c1.067,0,2.133-1.067,2.133-2.133c0-2.133,2.133-2.133,6.4-1.067
		c2.133,1.067,3.2,0,5.333,0c2.133,0,4.267,0,6.4,0c1.067,0,2.133,1.067,4.267,1.067l1.067,1.067
		c-2.133,1.067-4.267,3.2-5.333,4.267c0,0,1.067,0,1.067,1.067c2.133,0,3.2-1.067,5.333-1.067c1.067-1.067,2.133-2.133,6.4,1.067
		c-3.2-3.2,1.067-2.133,2.133-2.133c1.067,0,3.2,0,5.333,0c1.067,0,3.2,1.067,3.2,1.067c2.133,0,3.2-1.067,4.267-1.067
		c1.067,0,3.2,0,5.333,1.067c3.2,1.067,6.4,2.133,10.667,3.2c2.133,1.067,2.133,0,1.067-1.067c1.067,0,2.133,0,2.133,0
		c2.133,0,4.267,0,6.4,0c2.133,0,3.2,0,2.133-2.133s2.133-2.133,4.267-1.067c2.133,0,2.133-1.067,6.4,1.067h1.067
		c1.067-1.067,2.133-1.067,6.4,0l0,0c6.4,7.467,11.733,16,16,24.533c-1.067,2.133-2.133,5.333-3.2,7.467
		c3.2,2.133,6.4,3.2,7.467,1.067l0,0c4.267,7.467,8.533,16,11.733,24.533c-1.067,1.067-2.133,1.067-3.2,1.067
		c-3.2,0-3.2,1.067-3.2,4.267c0,1.067,0,2.133-1.067,3.2c0,1.067-1.067,1.067-1.067,2.133c2.133,1.067,4.267,3.2,6.4,4.267
		C459.733,165.333,461.867,167.467,461.867,168.533z"/>
</g>
<circle style="fill:#415A6B;" cx="354.133" cy="354.133" r="157.867"/>
<circle style="fill:#FFFFFF;" cx="354.133" cy="354.133" r="122.667"/>
<path style="fill:#66C6B9;" d="M295.467,419.2c-1.067,0-3.2-1.067-4.267-2.133c-2.133-2.133-2.133-6.4,0-8.533l89.6-89.6
	c2.133-2.133,6.4-2.133,8.533,0c2.133,2.133,2.133,6.4,0,8.533l-89.6,89.6C297.6,418.133,296.533,419.2,295.467,419.2z"/>
<path style="fill:#F3705A;" d="M409.6,362.667h-55.467c-5.333,0-8.533-4.267-8.533-8.533c0-5.333,4.267-8.533,8.533-8.533H409.6
	c5.333,0,8.533,4.267,8.533,8.533C419.2,359.467,414.933,362.667,409.6,362.667z"/>
<path style="fill:#FFD15C;" d="M354.133,362.667c-5.333,0-8.533-4.267-8.533-8.533V268.8c0-5.333,4.267-8.533,8.533-8.533
	c5.333,0,8.533,4.267,8.533,8.533v85.333C362.667,359.467,359.467,362.667,354.133,362.667z"/>
<circle style="fill:#415A6B;" cx="354.133" cy="354.133" r="25.6"/>
<circle style="fill:#344A5E;" cx="354.133" cy="354.133" r="11.733"/>
<g>
</g>
<g>
</g>
<g>
</g>
<g>
</g>
<g>
</g>
<g>
</g>
<g>
</g>
<g>
</g>
<g>
</g>
<g>
</g>
<g>
</g>
<g>
</g>
<g>
</g>
<g>
</g>
<g>
</g>
</svg>
