<?xml version="1.0" encoding="iso-8859-1"?>
<!-- Generator: Adobe Illustrator 19.0.0, SVG Export Plug-In . SVG Version: 6.00 Build 0)  -->
<svg version="1.1" id="Capa_1" xmlns="http://www.w3.org/2000/svg" xmlns:xlink="http://www.w3.org/1999/xlink" x="0px" y="0px"
	 viewBox="0 0 512 512" style="enable-background:new 0 0 512 512;" xml:space="preserve">
<path style="fill:#F3F3F3;" d="M480,0H234.667L107.733,126.933V480c0,18.133,13.867,32,32,32H480c18.133,0,32-13.867,32-32V32
	C512,13.867,498.133,0,480,0z"/>
<g>
	<path style="fill:#F3705A;" d="M427.733,221.867c-1.067,5.333-6.4,9.6-12.8,8.533h-1.067c-5.333-1.067-8.533-6.4-7.467-12.8
		l6.4-33.067C341.333,236.8,290.133,310.4,266.667,396.8l-16,61.867c-1.067,5.333-7.467,9.6-12.8,7.467
		c-5.333-1.067-9.6-7.467-7.467-12.8l16-61.867C270.933,299.733,325.333,220.8,402.133,166.4L368,158.933
		c-5.333-1.067-9.6-6.4-8.533-12.8c1.067-5.333,6.4-9.6,12.8-8.533l58.667,11.733c5.333,1.067,9.6,6.4,8.533,12.8L427.733,221.867z"
		/>
	<path style="fill:#F3705A;" d="M419.2,401.067c0,6.4-4.267,10.667-10.667,10.667h-22.4v22.4c0,6.4-4.267,10.667-10.667,10.667
		c-5.333,0-10.667-4.267-10.667-10.667v-22.4h-22.4c-6.4,0-10.667-4.267-10.667-10.667c0-6.4,4.267-10.667,10.667-10.667h22.4V368
		c0-5.333,5.333-10.667,10.667-10.667c6.4,0,10.667,5.333,10.667,10.667v22.4h22.4C414.933,390.4,419.2,395.733,419.2,401.067z"/>
	<path style="fill:#F3705A;" d="M245.333,234.667c-21.333,0-38.4-17.067-38.4-38.4s17.067-38.4,38.4-38.4s38.4,17.067,38.4,38.4
		S266.667,234.667,245.333,234.667z M245.333,179.2c-9.6,0-17.067,7.467-17.067,17.067c0,9.6,7.467,17.067,17.067,17.067
		c9.6,0,17.067-7.467,17.067-17.067C262.4,186.667,254.933,179.2,245.333,179.2z"/>
</g>
<polygon style="fill:#CED6E0;" points="234.667,0 107.733,126.933 234.667,126.933 "/>
<polygon style="fill:#8AD7F8;" points="274.133,512 0,512 16,432 93.867,400 137.6,422.4 180.267,400 258.133,432 "/>
<path style="fill:#415A6B;" d="M118.4,512h38.4l-7.467-54.4l9.6-9.6c0,0-12.8-20.267-20.267-20.267
	C131.2,427.733,118.4,448,118.4,448l9.6,9.6L118.4,512z"/>
<g>
	<path style="fill:#FFFFFF;" d="M103.467,382.933c6.4,19.2,19.2,33.067,34.133,44.8c-10.667,7.467-19.2,16-24.533,24.533
		l-23.467-51.2C92.8,395.733,102.4,382.933,103.467,382.933z"/>
	<path style="fill:#FFFFFF;" d="M170.667,382.933c-6.4,19.2-19.2,33.067-34.133,44.8c10.667,7.467,19.2,16,24.533,24.533
		l23.467-51.2C182.4,395.733,172.8,382.933,170.667,382.933z"/>
</g>
<path style="fill:#F7B64C;" d="M103.467,361.6v21.333c6.4,19.2,19.2,33.067,34.133,44.8c14.933-11.733,26.667-25.6,34.133-44.8
	V361.6H103.467z"/>
<g>
	<path style="fill:#FFD15C;" d="M200.533,334.933c-2.133,10.667-8.533,17.067-16,16c-6.4-2.133-9.6-11.733-7.467-22.4
		c2.133-9.6,9.6-16,14.933-14.933C198.4,315.733,202.667,325.333,200.533,334.933z"/>
	<path style="fill:#FFD15C;" d="M74.667,334.933c2.133,10.667,8.533,17.067,16,16c6.4-2.133,9.6-11.733,7.467-22.4
		c-2.133-9.6-9.6-16-14.933-14.933C75.733,315.733,72.533,325.333,74.667,334.933z"/>
</g>
<path style="fill:#344A5E;" d="M187.733,343.467c7.467-18.133,8.533-34.133,8.533-50.133c1.067-45.867-24.533-58.667-58.667-58.667
	s-58.667,13.867-58.667,60.8c0,14.933,1.067,32,6.4,49.067h102.4V343.467z"/>
<path style="fill:#FFD15C;" d="M135.467,298.667c-16,0-28.8-4.267-38.4-11.733C88.533,298.667,83.2,313.6,83.2,330.667
	c0,36.267,24.533,65.067,54.4,65.067s54.4-28.8,54.4-65.067c0-18.133-6.4-34.133-16-45.867
	C165.333,293.333,152.533,298.667,135.467,298.667z"/>
<g>
</g>
<g>
</g>
<g>
</g>
<g>
</g>
<g>
</g>
<g>
</g>
<g>
</g>
<g>
</g>
<g>
</g>
<g>
</g>
<g>
</g>
<g>
</g>
<g>
</g>
<g>
</g>
<g>
</g>
</svg>
