<?xml version="1.0" encoding="iso-8859-1"?>
<!-- Generator: Adobe Illustrator 19.0.0, SVG Export Plug-In . SVG Version: 6.00 Build 0)  -->
<svg version="1.1" id="Capa_1" xmlns="http://www.w3.org/2000/svg" xmlns:xlink="http://www.w3.org/1999/xlink" x="0px" y="0px"
	 viewBox="0 0 511.93 511.93" style="enable-background:new 0 0 511.93 511.93;" xml:space="preserve">
<path style="fill:#FFD15C;" d="M408.533,328.629c-13.867,4.267-26.667,6.4-39.467,7.467c0,0-41.6-18.133-53.333-17.067
	c-10.667,1.067-59.733,0-72.533,9.6c-12.8,9.6-44.8,13.867-44.8,13.867c-20.267-3.2-62.933,6.4-62.933,6.4l-25.6-5.333
	c-8.533-7.467-48-20.267-48-20.267s2.133-3.2-26.667-12.8C6.4,300.896,0,325.429,0,325.429l21.333,12.8
	c28.8,13.867,56.533,36.267,76.8,51.2c8.533,6.4,17.067,11.733,25.6,16c10.667,6.4,20.267,12.8,26.667,18.133
	c5.333,4.267,10.667,9.6,14.933,16c10.667,13.867,27.733,20.267,55.467,14.933c5.333-2.133,34.133-6.4,39.467-6.4
	c1.067,0,1.067,0,2.133,0c37.333-2.133,98.133-12.8,98.133-12.8c7.467,0,33.067-5.333,58.667-10.667L408.533,328.629z"/>
<path style="fill:#F3F3F3;" d="M23.467,338.229c0-1.067,0-2.133-1.067-3.2c-1.067-4.267-13.867-12.8-20.267-16
	c-1.067,3.2-2.133,6.4-2.133,6.4l21.333,12.8C22.4,338.229,22.4,338.229,23.467,338.229z"/>
<path style="fill:#F7B64C;" d="M249.6,385.162c-4.267,0-8.533-1.067-13.867-1.067c-4.267,0-8.533,0-13.867,0
	c-4.267,1.067-8.533,1.067-12.8,2.133c-4.267,1.067-8.533,1.067-12.8,2.133c-8.533,1.067-18.133,2.133-26.667,3.2
	c-4.267,0-8.533,1.067-12.8,1.067s-8.533,0-12.8,0s-8.533-1.067-12.8-1.067c-1.067,0-2.133,0-3.2-1.067
	c-1.067,0-2.133-1.067-3.2-1.067c-2.133-1.067-4.267-2.133-5.333-3.2l-1.067-1.067l-1.067-1.067l-1.067-3.2l-1.067-3.2
	c0-1.067,0-2.133-1.067-3.2c-1.067-4.267,0-8.533,2.133-11.733c2.133-3.2,5.333-6.4,9.6-8.533c4.267-2.133,7.467-3.2,11.733-4.267
	l0,0l0,0l1.067-1.067c-1.067,0-2.133,0-2.133,0h-1.067c-4.267,1.067-7.467,2.133-11.733,4.267c-4.267,2.133-7.467,5.333-9.6,9.6
	s-3.2,8.533-3.2,13.867c0,1.067,0,2.133,1.067,3.2c0,1.067,1.067,2.133,1.067,3.2l1.067,3.2c0,1.067,1.067,1.067,1.067,1.067
	l1.067,1.067c2.133,2.133,4.267,3.2,6.4,3.2c1.067,0,2.133,1.067,3.2,1.067c1.067,0,2.133,1.067,3.2,1.067
	c4.267,1.067,8.533,1.067,13.867,2.133c8.533,0,18.133,0,26.667-1.067c8.533-1.067,18.133-2.133,26.667-3.2
	c4.267-1.067,8.533-1.067,12.8-2.133c4.267-1.067,8.533-2.133,12.8-2.133c4.267-1.067,8.533-1.067,12.8-1.067
	c4.267,0,8.533,0,12.8,0c8.533,0,18.133,1.067,26.667,2.133C266.667,387.296,258.133,386.229,249.6,385.162z"/>
<g>
	<path style="fill:#F3F3F3;" d="M136.533,358.496c0,0,9.6-3.2,11.733,4.267c3.2,7.467,3.2,13.867,3.2,13.867s1.067,8.533-6.4,8.533
		c-8.533,1.067-24.533,3.2-24.533,3.2s-9.6,1.067-11.733-6.4c-1.067-7.467-3.2-18.133,8.533-20.267
		C129.067,359.562,136.533,358.496,136.533,358.496z"/>
	
		<rect x="379.671" y="322.216" transform="matrix(-0.9946 0.1034 -0.1034 -0.9946 819.2517 723.5558)" style="fill:#F3F3F3;" width="22.399" height="121.595"/>
</g>
<rect x="402.143" y="303.017" transform="matrix(-0.9946 0.1034 -0.1034 -0.9946 943.2499 705.3959)" style="fill:#415A6B;" width="102.396" height="148.261"/>
<circle style="fill:#344A5E;" cx="450.133" cy="415.029" r="17.067"/>
<rect x="249.6" y="55.562" style="fill:#F3705A;" width="43.733" height="178.133"/>
<rect x="117.333" y="89.696" style="fill:#66C6B9;" width="43.733" height="145.067"/>
<rect x="183.467" y="140.896" style="fill:#415A6B;" width="43.733" height="93.867"/>
<rect x="51.2" y="181.429" style="fill:#FFD15C;" width="43.733" height="53.333"/>
<path style="fill:#415A6B;" d="M304,287.029H41.6c-8.533,0-16-7.467-16-16l0,0c0-8.533,7.467-16,16-16h261.333
	c8.533,0,16,7.467,16,16l0,0C318.933,279.562,312.533,287.029,304,287.029z"/>
<g>
</g>
<g>
</g>
<g>
</g>
<g>
</g>
<g>
</g>
<g>
</g>
<g>
</g>
<g>
</g>
<g>
</g>
<g>
</g>
<g>
</g>
<g>
</g>
<g>
</g>
<g>
</g>
<g>
</g>
</svg>
