<?xml version="1.0" encoding="iso-8859-1"?>
<!-- Generator: Adobe Illustrator 19.0.0, SVG Export Plug-In . SVG Version: 6.00 Build 0)  -->
<svg version="1.1" id="Capa_1" xmlns="http://www.w3.org/2000/svg" xmlns:xlink="http://www.w3.org/1999/xlink" x="0px" y="0px"
	 viewBox="0 0 512 512" style="enable-background:new 0 0 512 512;" xml:space="preserve">
<path style="fill:#F3F3F3;" d="M297.676,0H21.41C9.676,0,0.076,9.6,0.076,21.333v469.333C0.076,502.4,9.676,512,21.41,512h366.933
	c11.733,0,21.333-9.6,21.333-21.333V112L297.676,0z"/>
<g>
	<rect x="52.343" y="57.6" style="fill:#CED6E0;" width="193.067" height="25.6"/>
	<rect x="52.343" y="132.267" style="fill:#CED6E0;" width="305.067" height="25.6"/>
	<rect x="52.343" y="205.867" style="fill:#CED6E0;" width="305.067" height="25.6"/>
	<rect x="52.343" y="280.533" style="fill:#CED6E0;" width="97.067" height="25.6"/>
</g>
<polygon style="fill:#66C6B9;" points="297.676,0 409.676,112 297.676,112 "/>
<path style="fill:#FFD15C;" d="M216.61,349.867l-39.467,100.267l107.733-10.667C347.81,392.533,279.543,301.867,216.61,349.867z"/>
<path style="fill:#F3705A;" d="M262.476,409.6c24.533-3.2,32,6.4,22.4,29.867L447.01,315.733l-22.4-29.867L262.476,409.6z"/>
<path style="fill:#F05540;" d="M239.01,379.733c24.533-3.2,32,6.4,22.4,29.867l162.133-123.733L401.143,256L239.01,379.733z"/>
<path style="fill:#F3705A;" d="M216.61,349.867c24.533-3.2,32,6.4,22.4,29.867L401.143,256l-22.4-29.867L216.61,349.867z"/>
<path style="fill:#415A6B;" d="M507.81,246.4l-45.867-60.8c-6.4-8.533-18.133-9.6-25.6-3.2l-41.6,32L463.01,304l41.6-32
	C513.143,266.667,514.21,254.933,507.81,246.4z"/>
<rect x="410.927" y="209.421" transform="matrix(-0.7962 0.6051 -0.6051 -0.7962 916.2612 223.2522)" style="fill:#E8EAE9;" width="19.201" height="113.071"/>
<path style="fill:#415A6B;" d="M191.01,416l-13.867,35.2l37.333-4.267C213.41,433.067,203.81,421.333,191.01,416z"/>
<g>
</g>
<g>
</g>
<g>
</g>
<g>
</g>
<g>
</g>
<g>
</g>
<g>
</g>
<g>
</g>
<g>
</g>
<g>
</g>
<g>
</g>
<g>
</g>
<g>
</g>
<g>
</g>
<g>
</g>
</svg>
