<?xml version="1.0" encoding="iso-8859-1"?>
<!-- Generator: Adobe Illustrator 19.0.0, SVG Export Plug-In . SVG Version: 6.00 Build 0)  -->
<svg version="1.1" id="Capa_1" xmlns="http://www.w3.org/2000/svg" xmlns:xlink="http://www.w3.org/1999/xlink" x="0px" y="0px"
	 viewBox="0 0 512 512" style="enable-background:new 0 0 512 512;" xml:space="preserve">
<path style="fill:#66C6B9;" d="M477.867,512H34.133C14.933,512,0,497.067,0,477.867v-412.8c0-19.2,14.933-34.133,34.133-34.133
	h443.733c19.2,0,34.133,14.933,34.133,34.133v412.8C512,497.067,497.067,512,477.867,512z"/>
<circle style="fill:#344A5E;" cx="113.067" cy="89.6" r="28.8"/>
<path style="fill:#CED6E0;" d="M113.067,0c-10.667,0-19.2,8.533-19.2,19.2v66.133c0,10.667,8.533,19.2,19.2,19.2
	s19.2-8.533,19.2-19.2V19.2C131.2,8.533,123.733,0,113.067,0z"/>
<circle style="fill:#344A5E;" cx="398.933" cy="89.6" r="28.8"/>
<path style="fill:#CED6E0;" d="M398.933,0c-10.667,0-19.2,8.533-19.2,19.2v66.133c0,10.667,8.533,19.2,19.2,19.2
	c10.667,0,19.2-8.533,19.2-19.2V19.2C418.133,8.533,409.6,0,398.933,0z"/>
<rect x="45.867" y="149.333" style="fill:#FFFFFF;" width="420.267" height="316.8"/>
<path style="fill:#F3705A;" d="M256,435.2c-70.4,0-126.933-57.6-126.933-126.933c0-70.4,57.6-126.933,126.933-126.933
	c70.4,0,126.933,57.6,126.933,126.933S326.4,435.2,256,435.2z"/>
<path style="fill:#FFFFFF;" d="M256,400c51.2,0,92.8-41.6,92.8-92.8s-41.6-92.8-92.8-92.8s-92.8,41.6-92.8,92.8S204.8,400,256,400z"
	/>
<path style="fill:#F3705A;" d="M256,365.867c-32,0-57.6-25.6-57.6-57.6s25.6-57.6,57.6-57.6s57.6,25.6,57.6,57.6
	C313.6,339.2,288,365.867,256,365.867z"/>
<circle style="fill:#FFFFFF;" cx="256" cy="308.267" r="22.4"/>
<g>
</g>
<g>
</g>
<g>
</g>
<g>
</g>
<g>
</g>
<g>
</g>
<g>
</g>
<g>
</g>
<g>
</g>
<g>
</g>
<g>
</g>
<g>
</g>
<g>
</g>
<g>
</g>
<g>
</g>
</svg>
