<?xml version="1.0" encoding="iso-8859-1"?>
<!-- Generator: Adobe Illustrator 19.0.0, SVG Export Plug-In . SVG Version: 6.00 Build 0)  -->
<svg version="1.1" id="Capa_1" xmlns="http://www.w3.org/2000/svg" xmlns:xlink="http://www.w3.org/1999/xlink" x="0px" y="0px"
	 viewBox="0 0 512.519 512.519" style="enable-background:new 0 0 512.519 512.519;" xml:space="preserve">
<path style="fill:#CED6E0;" d="M497.326,160.793l-377.6-124.8c-11.733-4.267-23.467,2.133-27.733,13.867L1.326,322.926
	C-2.94,334.66,3.46,346.393,15.193,350.66l377.6,125.867c11.733,4.267,23.467-2.133,27.733-13.867l90.667-273.067
	C515.46,176.793,509.06,165.06,497.326,160.793z"/>
<path style="fill:#F3F3F3;" d="M454.66,90.393H57.86c-11.733,0-21.333,9.6-21.333,21.333v288c0,11.733,9.6,21.333,21.333,21.333
	h397.867c11.733,0,21.333-9.6,21.333-21.333v-288C477.06,99.993,467.46,90.393,454.66,90.393z"/>
<path style="fill:#F3705A;" d="M153.86,181.06c-44.8,0-81.067,36.267-81.067,81.067s36.267,81.067,81.067,81.067
	s81.067-36.267,81.067-81.067H153.86V181.06z"/>
<path style="fill:#FFD15C;" d="M166.66,167.193v81.067h81.067C248.793,204.526,212.526,167.193,166.66,167.193z"/>
<g>
	<rect x="279.726" y="222.66" style="fill:#E8EAE9;" width="160" height="21.333"/>
	<rect x="279.726" y="272.793" style="fill:#E8EAE9;" width="160" height="21.333"/>
	<rect x="279.726" y="322.926" style="fill:#E8EAE9;" width="160" height="21.333"/>
</g>
<g>
</g>
<g>
</g>
<g>
</g>
<g>
</g>
<g>
</g>
<g>
</g>
<g>
</g>
<g>
</g>
<g>
</g>
<g>
</g>
<g>
</g>
<g>
</g>
<g>
</g>
<g>
</g>
<g>
</g>
</svg>
