<?xml version="1.0" encoding="iso-8859-1"?>
<!-- Generator: Adobe Illustrator 19.0.0, SVG Export Plug-In . SVG Version: 6.00 Build 0)  -->
<svg version="1.1" id="Capa_1" xmlns="http://www.w3.org/2000/svg" xmlns:xlink="http://www.w3.org/1999/xlink" x="0px" y="0px"
	 viewBox="0 0 512 512" style="enable-background:new 0 0 512 512;" xml:space="preserve">
<path style="fill:#F3F3F3;" d="M480,0H32C13.867,0,0,13.867,0,32v318.933c0,18.133,13.867,32,32,32h448c18.133,0,32-13.867,32-32V32
	C512,13.867,498.133,0,480,0z"/>
<rect x="68.267" y="261.333" style="fill:#415A6B;" width="66.133" height="65.067"/>
<rect x="170.667" y="135.467" style="fill:#8AD7F8;" width="66.133" height="190.933"/>
<rect x="274.133" y="198.4" style="fill:#FFD15C;" width="66.133" height="126.933"/>
<rect x="377.6" y="56.533" style="fill:#F3705A;" width="66.133" height="268.8"/>
<polygon style="fill:#F7B64C;" points="217.6,359.467 217.6,424.533 256,454.4 294.4,424.533 294.4,359.467 "/>
<path style="fill:#415A6B;" d="M314.667,360.533c-29.867,52.267-88.533,52.267-118.4,0c-18.133-32-42.667-134.4,58.667-134.4
	C357.333,226.133,332.8,328.533,314.667,360.533z"/>
<ellipse style="fill:#4ABAA5;" cx="256" cy="410.667" rx="58.667" ry="22.4"/>
<path style="fill:#66C6B9;" d="M409.6,512l-16-62.933c-3.2-13.867-14.933-24.533-28.8-27.733
	c-29.867-6.4-82.133-17.067-107.733-17.067s-77.867,10.667-107.733,17.067c-13.867,3.2-25.6,13.867-28.8,27.733L102.4,512H409.6z"/>
<g>
</g>
<g>
</g>
<g>
</g>
<g>
</g>
<g>
</g>
<g>
</g>
<g>
</g>
<g>
</g>
<g>
</g>
<g>
</g>
<g>
</g>
<g>
</g>
<g>
</g>
<g>
</g>
<g>
</g>
</svg>
