<?xml version="1.0" encoding="iso-8859-1"?>
<!-- Generator: Adobe Illustrator 19.0.0, SVG Export Plug-In . SVG Version: 6.00 Build 0)  -->
<svg version="1.1" id="Capa_1" xmlns="http://www.w3.org/2000/svg" xmlns:xlink="http://www.w3.org/1999/xlink" x="0px" y="0px"
	 viewBox="0 0 512 512" style="enable-background:new 0 0 512 512;" xml:space="preserve">
<path style="fill:#F3F3F3;" d="M512,114.133V480c0,18.133-13.867,32-32,32H32c-17.067,0-32-13.867-32-32V114.133H512z"/>
<path style="fill:#66C6B9;" d="M0,114.133V32C0,13.867,13.867,0,32,0h448c18.133,0,32,13.867,32,32v82.133H0z"/>
<g>
	<circle style="fill:#FFFFFF;" cx="448" cy="56.533" r="23.467"/>
	<circle style="fill:#FFFFFF;" cx="378.667" cy="56.533" r="23.467"/>
	<circle style="fill:#FFFFFF;" cx="310.4" cy="56.533" r="23.467"/>
</g>
<path style="fill:#FFD15C;" d="M314.667,179.2v132.267c0,12.8-9.6,22.4-22.4,22.4h-112l-72.533,42.667v-42.667h-16
	c-11.733,0-22.4-9.6-22.4-22.4V179.2c0-11.733,9.6-22.4,22.4-22.4h201.6C305.067,157.867,314.667,167.467,314.667,179.2z"/>
<g>
	<circle style="fill:#FFFFFF;" cx="123.733" cy="245.333" r="23.467"/>
	<circle style="fill:#FFFFFF;" cx="192" cy="245.333" r="23.467"/>
	<circle style="fill:#FFFFFF;" cx="260.267" cy="245.333" r="23.467"/>
</g>
<path style="fill:#F3705A;" d="M237.867,304v109.867C237.867,424.533,246.4,432,256,432h93.867l60.8,36.267V432h13.867
	c10.667,0,18.133-8.533,18.133-18.133V304c0-10.667-8.533-18.133-18.133-18.133H256C246.4,285.867,237.867,293.333,237.867,304z"/>
<g>
	<circle style="fill:#FFFFFF;" cx="397.867" cy="358.4" r="19.2"/>
	<circle style="fill:#FFFFFF;" cx="340.267" cy="358.4" r="19.2"/>
	<circle style="fill:#FFFFFF;" cx="282.667" cy="358.4" r="19.2"/>
</g>
<g>
</g>
<g>
</g>
<g>
</g>
<g>
</g>
<g>
</g>
<g>
</g>
<g>
</g>
<g>
</g>
<g>
</g>
<g>
</g>
<g>
</g>
<g>
</g>
<g>
</g>
<g>
</g>
<g>
</g>
</svg>
