<?xml version="1.0" encoding="iso-8859-1"?>
<!-- Generator: Adobe Illustrator 19.0.0, SVG Export Plug-In . SVG Version: 6.00 Build 0)  -->
<svg version="1.1" id="Capa_1" xmlns="http://www.w3.org/2000/svg" xmlns:xlink="http://www.w3.org/1999/xlink" x="0px" y="0px"
	 viewBox="0 0 512.504 512.504" style="enable-background:new 0 0 512.504 512.504;" xml:space="preserve">
<path style="fill:#F3F3F3;" d="M127.257,0h238.933c18.133,0,32,13.867,32,32v448c0,18.133-13.867,32-32,32H32.324
	c-18.133,0-32-13.867-32-32V126.933L127.257,0z"/>
<polygon style="fill:#8AD7F8;" points="0.324,126.933 127.257,126.933 127.257,0 "/>
<g>
	<rect x="61.124" y="423.467" style="fill:#CED6E0;" width="276.267" height="26.667"/>
	<rect x="61.124" y="332.8" style="fill:#CED6E0;" width="276.267" height="26.667"/>
	<rect x="61.124" y="242.133" style="fill:#CED6E0;" width="276.267" height="26.667"/>
	<rect x="61.124" y="151.467" style="fill:#CED6E0;" width="276.267" height="26.667"/>
	<rect x="176.324" y="60.8" style="fill:#CED6E0;" width="161.067" height="26.667"/>
</g>
<g>
	<path style="fill:#F7B64C;" d="M367.257,277.333l73.6,212.267c6.4,18.133,25.6,26.667,43.733,21.333
		c18.133-6.4,26.667-25.6,21.333-43.733l-73.6-212.267L367.257,277.333z"/>
	<path style="fill:#F7B64C;" d="M324.591,286.933c59.733-2.133,99.2-16,147.2-51.2L424.857,102.4
		c-59.733,1.067-99.2,14.933-147.2,50.133L324.591,286.933z"/>
</g>
<g>
	<path style="fill:#FFD15C;" d="M498.457,252.8L498.457,252.8c-10.667,3.2-22.4-2.133-26.667-12.8l-48-141.867
		c-3.2-10.667,2.133-22.4,12.8-26.667l0,0c10.667-3.2,22.4,3.2,25.6,13.867l49.067,140.8
		C514.457,236.8,509.124,248.533,498.457,252.8z"/>
	<path style="fill:#FFD15C;" d="M312.857,316.8L312.857,316.8c-10.667,3.2-22.4-2.133-26.667-12.8l-49.067-140.8
		c-3.2-10.667,2.133-22.4,12.8-26.667l0,0c10.667-3.2,22.4,2.133,26.667,12.8l49.067,140.8
		C328.857,300.8,323.524,312.533,312.857,316.8z"/>
</g>
<g>
</g>
<g>
</g>
<g>
</g>
<g>
</g>
<g>
</g>
<g>
</g>
<g>
</g>
<g>
</g>
<g>
</g>
<g>
</g>
<g>
</g>
<g>
</g>
<g>
</g>
<g>
</g>
<g>
</g>
</svg>
