<?xml version="1.0" encoding="iso-8859-1"?>
<!-- Generator: Adobe Illustrator 19.0.0, SVG Export Plug-In . SVG Version: 6.00 Build 0)  -->
<svg version="1.1" id="Capa_1" xmlns="http://www.w3.org/2000/svg" xmlns:xlink="http://www.w3.org/1999/xlink" x="0px" y="0px"
	 viewBox="0 0 512 512" style="enable-background:new 0 0 512 512;" xml:space="preserve">
<g>
	<polygon style="fill:#F3705A;" points="81.067,0 105.6,50.133 161.067,58.667 120.533,98.133 130.133,153.6 81.067,126.933 
		30.933,153.6 40.533,98.133 0,58.667 55.467,50.133 	"/>
	<polygon style="fill:#F3705A;" points="256,0 280.533,50.133 337.067,58.667 296.533,98.133 306.133,153.6 256,126.933 
		205.867,153.6 215.467,98.133 174.933,58.667 231.467,50.133 	"/>
	<polygon style="fill:#F3705A;" points="430.933,0 456.533,50.133 512,58.667 471.467,98.133 481.067,153.6 430.933,126.933 
		381.867,153.6 391.467,98.133 350.933,58.667 406.4,50.133 	"/>
</g>
<path style="fill:#FFD15C;" d="M275.2,496c-3.2-48-19.2-89.6-46.933-136.533c-4.267-6.4-5.333-13.867-5.333-22.4v-62.933
	c0-7.467,3.2-14.933,9.6-21.333l2.133-2.133c0,0,2.133-113.067,4.267-124.8c0,0-4.267-54.4,19.2-56.533
	c8.533,0,20.267-2.133,19.2,52.267L281.6,192c0,0,9.6-9.6,22.4-7.467c12.8,2.133,18.133,19.2,18.133,22.4c0,0,9.6-11.733,25.6-5.333
	c16,6.4,21.333,40.533,21.333,40.533s10.667-32,34.133-13.867c0,0,11.733,9.6,9.6,29.867l4.267,36.267v40.533
	c0,19.2-3.2,37.333-9.6,55.467l0,0l1.067,105.6H275.2z"/>
<g>
	<path style="fill:#F7B64C;" d="M244.267,178.133c0,0,1.067-1.067,3.2-2.133c2.133-1.067,5.333-2.133,8.533-2.133s6.4,0,8.533,0
		c1.067,0,2.133,0,3.2,0c1.067,0,1.067,0,1.067,0s0,0-1.067,1.067c-1.067,0-1.067,1.067-2.133,1.067
		c-1.067,0-2.133,1.067-4.267,1.067c-1.067,0-3.2,0-4.267,0c-3.2,0-6.4,1.067-8.533,1.067
		C245.333,178.133,244.267,178.133,244.267,178.133z"/>
	<path style="fill:#F7B64C;" d="M249.6,182.4c0,0,1.067,0,3.2,0c2.133,0,4.267,0,7.467-1.067c1.067,0,1.067,0,2.133,0
		c1.067,0,1.067,0,2.133-1.067c1.067,0,2.133-1.067,3.2-1.067c2.133-1.067,3.2-1.067,3.2-1.067s-1.067,1.067-3.2,2.133
		c-1.067,1.067-2.133,1.067-3.2,2.133c-1.067,0-1.067,1.067-2.133,1.067c-1.067,0-1.067,0-2.133,1.067c-3.2,1.067-5.333,0-7.467,0
		C250.667,182.4,249.6,182.4,249.6,182.4z"/>
	<path style="fill:#F7B64C;" d="M243.2,183.467c0,0,1.067,0,2.133,1.067c1.067,0,3.2,1.067,5.333,1.067s4.267,0,5.333,0
		c1.067,0,2.133,0,2.133,0s-1.067,0-2.133,0c-1.067,0-3.2,0-5.333,0s-4.267-1.067-5.333-1.067
		C244.267,183.467,243.2,183.467,243.2,183.467z"/>
	<path style="fill:#F7B64C;" d="M246.4,169.6L246.4,169.6c1.067-1.067,2.133-2.133,3.2-3.2c1.067-1.067,2.133-1.067,4.267-2.133
		c1.067,0,1.067-1.067,2.133-1.067c1.067,0,2.133,0,2.133-1.067c1.067,0,2.133,0,2.133,0c1.067,0,2.133,0,2.133,0
		c2.133,0,3.2,0,4.267,0c1.067,0,2.133,0,3.2,1.067c1.067,0,1.067,0,1.067,0s0,0-1.067,0c-1.067,0-2.133,0-3.2,0s-1.067,0-2.133,0
		s-1.067,0-2.133,0c-1.067,0-3.2,0-4.267,1.067c-1.067,0-3.2,1.067-4.267,1.067s-1.067,1.067-2.133,1.067
		c-1.067,0-1.067,1.067-2.133,1.067C248.533,168.533,247.467,168.533,246.4,169.6L246.4,169.6z"/>
	<path style="fill:#F7B64C;" d="M281.6,212.267l1.067,9.6c0,2.133,0,3.2,0,5.333s0,3.2,1.067,5.333c0-2.133,0-3.2,0-5.333
		s0-3.2,0-5.333v-9.6c0-6.4-1.067-12.8-1.067-19.2c0-1.067,0-1.067,1.067-2.133c-2.133,1.067-3.2,1.067-3.2,1.067l0,0l0,0
		C280.533,199.467,281.6,205.867,281.6,212.267z"/>
	<path style="fill:#F7B64C;" d="M322.133,222.933l1.067,7.467c0,2.133,1.067,5.333,1.067,7.467c0-2.133,0-5.333,0-7.467v-7.467
		c0-5.333-1.067-10.667-1.067-14.933c0-1.067,0-1.067,0-2.133c-1.067,1.067-2.133,2.133-2.133,2.133l0,0l0,0l0,0
		C321.067,212.267,322.133,217.6,322.133,222.933z"/>
	<path style="fill:#F7B64C;" d="M369.067,244.267c0,2.133,0,3.2,0,5.333c0,1.067,0,3.2,0,3.2c0,1.067,0,1.067,0,1.067s0,0,0-1.067
		c0-1.067,0-2.133,0-3.2C369.067,248.533,369.067,246.4,369.067,244.267c0-1.067,0-2.133,0-3.2c0-1.067,0-2.133,0-2.133
		C368,241.067,368,243.2,366.933,243.2C369.067,243.2,369.067,243.2,369.067,244.267z"/>
</g>
<rect x="245.333" y="406.4" style="fill:#F3F3F3;" width="171.733" height="34.133"/>
<rect x="231.467" y="434.133" style="fill:#415A6B;" width="199.467" height="77.867"/>
<circle style="fill:#344A5E;" cx="267.733" cy="465.067" r="14.933"/>
<path style="fill:#F3F3F3;" d="M247.467,82.133c0,0-1.067-4.267,5.333-6.4c5.333-2.133,13.867,0,13.867,0s4.267,1.067,4.267,6.4
	c0,5.333,1.067,16-5.333,14.933c-6.4,0-8.533,0-8.533,0s-6.4,1.067-7.467-4.267L247.467,82.133z"/>
<g>
</g>
<g>
</g>
<g>
</g>
<g>
</g>
<g>
</g>
<g>
</g>
<g>
</g>
<g>
</g>
<g>
</g>
<g>
</g>
<g>
</g>
<g>
</g>
<g>
</g>
<g>
</g>
<g>
</g>
</svg>
