<?xml version="1.0" encoding="iso-8859-1"?>
<!-- Generator: Adobe Illustrator 19.0.0, SVG Export Plug-In . SVG Version: 6.00 Build 0)  -->
<svg version="1.1" id="Capa_1" xmlns="http://www.w3.org/2000/svg" xmlns:xlink="http://www.w3.org/1999/xlink" x="0px" y="0px"
	 viewBox="0 0 512 512" style="enable-background:new 0 0 512 512;" xml:space="preserve">
<g>
	<rect x="249.6" y="357.333" style="fill:#FFD15C;" width="54.4" height="154.667"/>
	<polygon style="fill:#FFD15C;" points="197.333,509.867 144,509.867 219.733,357.333 274.133,357.333 	"/>
	<polygon style="fill:#FFD15C;" points="356.267,509.867 409.6,509.867 333.867,357.333 279.467,357.333 	"/>
</g>
<rect x="70.4" y="43.733" style="fill:#F3F3F3;" width="412.8" height="291.2"/>
<g>
	<path style="fill:#66C6B9;" d="M66.133,53.333h421.333C501.333,53.333,512,41.6,512,26.667S501.333,0,487.467,0H66.133
		C52.267,0,41.6,11.733,41.6,26.667S52.267,53.333,66.133,53.333z"/>
	<path style="fill:#66C6B9;" d="M487.467,330.667H66.133c-13.867,0-24.533,11.733-24.533,26.667S52.267,384,66.133,384h421.333
		C501.333,384,512,372.267,512,357.333S501.333,330.667,487.467,330.667z"/>
</g>
<rect x="120.533" y="99.2" style="fill:#F3705A;" width="72.533" height="72.533"/>
<g>
	<rect x="222.933" y="99.2" style="fill:#CED6E0;" width="210.133" height="19.2"/>
	<rect x="222.933" y="152.533" style="fill:#CED6E0;" width="210.133" height="19.2"/>
</g>
<rect x="120.533" y="212.267" style="fill:#F3705A;" width="72.533" height="72.533"/>
<g>
	<rect x="222.933" y="212.267" style="fill:#CED6E0;" width="210.133" height="19.2"/>
	<rect x="222.933" y="265.6" style="fill:#CED6E0;" width="210.133" height="19.2"/>
</g>
<g>
	<path style="fill:#415A6B;" d="M210.133,298.667c3.2-17.067,3.2-28.8,4.267-36.267c3.2-36.267-21.333-71.467-61.867-75.733
		c-45.867-4.267-81.067,33.067-75.733,73.6c1.067,7.467,1.067,19.2,4.267,38.4c2.133,9.6,10.667,16,21.333,16h86.4
		C199.467,314.667,209.067,307.2,210.133,298.667z"/>
	<path style="fill:#415A6B;" d="M292.267,512l-12.8-65.067c-4.267-24.533-24.533-42.667-48-45.867c-23.467-4.267-48-6.4-71.467-6.4
		c0,6.4-5.333,12.8-16,12.8c-10.667,0-16-6.4-16-12.8c-22.4,1.067-44.8,3.2-68.267,6.4C36.267,405.333,17.067,423.467,12.8,448
		L0,512H292.267z"/>
</g>
<polygon style="fill:#F3F3F3;" points="149.333,512 176,421.333 146.133,401.067 108.8,416 141.867,512 "/>
<g>
	<polygon style="fill:#F3705A;" points="155.733,427.733 164.267,419.2 146.133,401.067 126.933,419.2 135.467,427.733 	"/>
	<polygon style="fill:#F3705A;" points="152.533,512 164.267,487.467 155.733,427.733 135.467,427.733 126.933,487.467 139.733,512 
			"/>
</g>
<polygon style="fill:#E8EAE9;" points="181.333,360.533 146.133,401.067 169.6,428.8 193.067,379.733 "/>
<polygon style="fill:#344A5E;" points="155.733,512 222.933,426.667 199.467,405.333 219.733,400 185.6,366.933 149.333,512 "/>
<polygon style="fill:#E8EAE9;" points="109.867,360.533 146.133,401.067 122.667,428.8 99.2,379.733 "/>
<polygon style="fill:#344A5E;" points="135.467,512 142.933,512 106.667,366.933 72.533,400 91.733,405.333 69.333,426.667 "/>
<polygon style="fill:#F7B64C;" points="109.867,331.733 146.133,291.2 181.333,331.733 181.333,360.533 146.133,401.067 
	109.867,360.533 "/>
<g>
	<path style="fill:#FFD15C;" d="M142.933,262.4c-20.267,0-36.267-6.4-48-17.067c-6.4,12.8-10.667,28.8-10.667,45.867
		c0,45.867,27.733,83.2,60.8,83.2c34.133,0,60.8-37.333,60.8-83.2c0-19.2-4.267-36.267-12.8-50.133
		C182.4,253.867,165.333,262.4,142.933,262.4z"/>
	<path style="fill:#FFD15C;" d="M217.6,298.667c-1.067,10.667-7.467,20.267-14.933,19.2c-7.467,0-11.733-9.6-10.667-20.267
		c1.067-10.667,7.467-20.267,14.933-19.2C214.4,278.4,218.667,288,217.6,298.667z"/>
	<path style="fill:#FFD15C;" d="M74.667,298.667c1.067,10.667,7.467,20.267,14.933,19.2c7.467,0,11.733-9.6,10.667-20.267
		c-1.067-10.667-7.467-20.267-14.933-19.2C77.867,278.4,73.6,288,74.667,298.667z"/>
</g>
<g>
</g>
<g>
</g>
<g>
</g>
<g>
</g>
<g>
</g>
<g>
</g>
<g>
</g>
<g>
</g>
<g>
</g>
<g>
</g>
<g>
</g>
<g>
</g>
<g>
</g>
<g>
</g>
<g>
</g>
</svg>
