<?xml version="1.0" encoding="iso-8859-1"?>
<!-- Generator: Adobe Illustrator 19.0.0, SVG Export Plug-In . SVG Version: 6.00 Build 0)  -->
<svg version="1.1" id="Capa_1" xmlns="http://www.w3.org/2000/svg" xmlns:xlink="http://www.w3.org/1999/xlink" x="0px" y="0px"
	 viewBox="0 0 512 512" style="enable-background:new 0 0 512 512;" xml:space="preserve">
<path style="fill:#F3F3F3;" d="M490.667,0h-249.6l-121.6,120.533v370.133c0,11.733,9.6,21.333,21.333,21.333h349.867
	C502.4,512,512,502.4,512,490.667V21.333C512,9.6,502.4,0,490.667,0z"/>
<g>
	<rect x="172.8" y="411.733" style="fill:#E8EAE9;" width="285.867" height="33.067"/>
	<rect x="172.8" y="324.267" style="fill:#E8EAE9;" width="285.867" height="33.067"/>
	<rect x="172.8" y="236.8" style="fill:#E8EAE9;" width="285.867" height="33.067"/>
	<rect x="172.8" y="149.333" style="fill:#E8EAE9;" width="285.867" height="33.067"/>
	<rect x="289.067" y="60.8" style="fill:#E8EAE9;" width="169.6" height="33.067"/>
</g>
<polygon style="fill:#CED6E0;" points="241.067,0 119.467,120.533 241.067,120.533 "/>
<circle style="fill:#F7B64C;" cx="148.267" cy="363.733" r="148.267"/>
<circle style="fill:#FFD15C;" cx="148.267" cy="363.733" r="107.733"/>
<path style="fill:#F7B64C;" d="M140.8,434.133v-12.8c-14.933-2.133-27.733-8.533-40.533-20.267l16-19.2
	c8.533,7.467,17.067,12.8,24.533,14.933v-25.6c-11.733-3.2-21.333-7.467-26.667-12.8c-5.333-5.333-8.533-12.8-8.533-22.4
	c0-9.6,3.2-18.133,9.6-24.533c6.4-6.4,14.933-10.667,25.6-11.733V291.2h18.133v8.533c11.733,1.067,23.467,6.4,34.133,13.867
	L179.2,333.867c-7.467-5.333-13.867-8.533-20.267-10.667v24.533c12.8,3.2,21.333,7.467,27.733,12.8
	c6.4,5.333,8.533,12.8,8.533,23.467c0,9.6-3.2,18.133-9.6,24.533c-6.4,6.4-14.933,10.667-26.667,11.733V432H140.8V434.133z
	 M140.8,325.333c-5.333,2.133-7.467,5.333-7.467,9.6s2.133,8.533,7.467,10.667V325.333z M168.533,388.267
	c0-2.133-1.067-4.267-2.133-6.4c-1.067-2.133-3.2-3.2-6.4-4.267v21.333C165.333,396.8,168.533,393.6,168.533,388.267z"/>
<g>
</g>
<g>
</g>
<g>
</g>
<g>
</g>
<g>
</g>
<g>
</g>
<g>
</g>
<g>
</g>
<g>
</g>
<g>
</g>
<g>
</g>
<g>
</g>
<g>
</g>
<g>
</g>
<g>
</g>
</svg>
