<?xml version="1.0" encoding="iso-8859-1"?>
<!-- Generator: Adobe Illustrator 19.0.0, SVG Export Plug-In . SVG Version: 6.00 Build 0)  -->
<svg version="1.1" id="Capa_1" xmlns="http://www.w3.org/2000/svg" xmlns:xlink="http://www.w3.org/1999/xlink" x="0px" y="0px"
	 viewBox="0 0 512 512" style="enable-background:new 0 0 512 512;" xml:space="preserve">
<path style="fill:#415A6B;" d="M501.333,326.4H467.2v91.733h34.133c6.4,0,10.667-5.333,10.667-10.667v-70.4
	C512,331.733,506.667,326.4,501.333,326.4z"/>
<path style="fill:#8AD7F8;" d="M501.333,234.667H467.2V326.4h34.133c6.4,0,10.667-5.333,10.667-10.667v-70.4
	C512,240,506.667,234.667,501.333,234.667z"/>
<path style="fill:#F3705A;" d="M501.333,142.933H467.2v91.733h34.133c6.4,0,10.667-5.333,10.667-10.667v-70.4
	C512,148.267,506.667,142.933,501.333,142.933z"/>
<path style="fill:#FFD15C;" d="M501.333,52.267H467.2V144h34.133c6.4,0,10.667-5.333,10.667-10.667v-70.4
	C512,56.533,506.667,52.267,501.333,52.267z"/>
<rect x="140.8" style="fill:#F3F3F3;" width="327.467" height="512"/>
<path style="fill:#F3705A;" d="M96,0C68.267,0,44.8,22.4,44.8,51.2v409.6c0,28.8,23.467,51.2,51.2,51.2h43.733V0H96z"/>
<g>
	<path style="fill:#415A6B;" d="M68.267,377.6H22.4C9.6,377.6,0,387.2,0,400c0,12.8,9.6,22.4,22.4,22.4h44.8
		c12.8,0,22.4-9.6,22.4-22.4C90.667,387.2,80,377.6,68.267,377.6z"/>
	<path style="fill:#415A6B;" d="M22.4,134.4h44.8c12.8,0,22.4-9.6,22.4-22.4S80,89.6,68.267,89.6H22.4C9.6,89.6,0,99.2,0,112
		S9.6,134.4,22.4,134.4z"/>
</g>
<path style="fill:#8AD7F8;" d="M358.4,281.6c-5.333-5.333-14.933-5.333-21.333,0l-16,16c-6.4,6.4-24.533-2.133-40.533-18.133
	S256,245.333,262.4,238.933l16-16c5.333-5.333,5.333-14.933,0-21.333L235.733,160c-5.333-5.333-14.933-5.333-21.333,0l-12.8,12.8
	c-19.2,19.2,5.333,76.8,56.533,128s108.8,76.8,128,56.533l12.8-12.8c5.333-5.333,5.333-14.933,0-21.333L358.4,281.6z"/>
<g>
</g>
<g>
</g>
<g>
</g>
<g>
</g>
<g>
</g>
<g>
</g>
<g>
</g>
<g>
</g>
<g>
</g>
<g>
</g>
<g>
</g>
<g>
</g>
<g>
</g>
<g>
</g>
<g>
</g>
</svg>
