<?xml version="1.0" encoding="iso-8859-1"?>
<!-- Generator: Adobe Illustrator 19.0.0, SVG Export Plug-In . SVG Version: 6.00 Build 0)  -->
<svg version="1.1" id="Capa_1" xmlns="http://www.w3.org/2000/svg" xmlns:xlink="http://www.w3.org/1999/xlink" x="0px" y="0px"
	 viewBox="0 0 512 512" style="enable-background:new 0 0 512 512;" xml:space="preserve">
<path style="fill:#F3F3F3;" d="M430.373,512H82.64c-18.133,0-32-13.867-32-32V32c0-18.133,13.867-32,32-32h346.667
	c18.133,0,32,13.867,32,32v448C462.373,498.133,447.44,512,430.373,512z"/>
<g>
	<rect x="317.306" y="99.2" style="fill:#CED6E0;" width="90.667" height="23.467"/>
	<rect x="317.306" y="167.467" style="fill:#CED6E0;" width="90.667" height="23.467"/>
	<rect x="317.306" y="234.667" style="fill:#CED6E0;" width="90.667" height="23.467"/>
	<rect x="105.04" y="301.867" style="fill:#CED6E0;" width="301.867" height="23.467"/>
	<rect x="105.04" y="370.133" style="fill:#CED6E0;" width="301.867" height="23.467"/>
	<rect x="105.04" y="437.333" style="fill:#CED6E0;" width="301.867" height="23.467"/>
</g>
<rect x="105.04" y="57.6" style="fill:#8AD7F8;" width="181.333" height="200.533"/>
<g>
	<circle style="fill:#FFFFFF;" cx="196.773" cy="126.933" r="30.933"/>
	<path style="fill:#FFFFFF;" d="M265.04,233.6c-2.133-36.267-32-65.067-68.267-65.067c-37.333,0-67.2,28.8-68.267,65.067H265.04z"/>
</g>
<g>
</g>
<g>
</g>
<g>
</g>
<g>
</g>
<g>
</g>
<g>
</g>
<g>
</g>
<g>
</g>
<g>
</g>
<g>
</g>
<g>
</g>
<g>
</g>
<g>
</g>
<g>
</g>
<g>
</g>
</svg>
