<?xml version="1.0" encoding="iso-8859-1"?>
<!-- Generator: Adobe Illustrator 19.0.0, SVG Export Plug-In . SVG Version: 6.00 Build 0)  -->
<svg version="1.1" id="Capa_1" xmlns="http://www.w3.org/2000/svg" xmlns:xlink="http://www.w3.org/1999/xlink" x="0px" y="0px"
	 viewBox="0 0 512 512" style="enable-background:new 0 0 512 512;" xml:space="preserve">
<path style="fill:#415A6B;" d="M487.467,0H24.533C10.667,0,0,10.667,0,24.533s10.667,24.533,24.533,24.533h462.933
	C501.333,49.067,512,38.4,512,24.533S501.333,0,487.467,0z"/>
<path style="fill:#E8EAE9;" d="M264.533,455.467V384h-17.067v71.467C235.733,459.733,227.2,470.4,227.2,483.2
	c0,16,12.8,28.8,28.8,28.8s28.8-12.8,28.8-28.8C284.8,470.4,276.267,458.667,264.533,455.467z M256,494.933
	c-6.4,0-11.733-5.333-11.733-11.733S249.6,471.467,256,471.467c6.4,0,11.733,5.333,11.733,11.733S262.4,494.933,256,494.933z"/>
<path style="fill:#F3F3F3;" d="M24.533,49.067v305.067c0,20.267,17.067,37.333,37.333,37.333h388.267
	c20.267,0,37.333-17.067,37.333-37.333V49.067H24.533z"/>
<rect x="389.333" y="102.4" style="fill:#F3705A;" width="52.267" height="235.733"/>
<rect x="309.333" y="183.467" style="fill:#8AD7F8;" width="52.267" height="154.667"/>
<rect x="230.4" y="226.133" style="fill:#415A6B;" width="52.267" height="112"/>
<rect x="150.4" y="161.067" style="fill:#FFD15C;" width="52.267" height="177.067"/>
<rect x="70.4" y="243.2" style="fill:#66C6B9;" width="52.267" height="94.933"/>
<g>
</g>
<g>
</g>
<g>
</g>
<g>
</g>
<g>
</g>
<g>
</g>
<g>
</g>
<g>
</g>
<g>
</g>
<g>
</g>
<g>
</g>
<g>
</g>
<g>
</g>
<g>
</g>
<g>
</g>
</svg>
