<?xml version="1.0" encoding="iso-8859-1"?>
<!-- Generator: Adobe Illustrator 19.0.0, SVG Export Plug-In . SVG Version: 6.00 Build 0)  -->
<svg version="1.1" id="Capa_1" xmlns="http://www.w3.org/2000/svg" xmlns:xlink="http://www.w3.org/1999/xlink" x="0px" y="0px"
	 viewBox="0 0 512 512" style="enable-background:new 0 0 512 512;" xml:space="preserve">
<path style="fill:#F3F3F3;" d="M230.4,0H480c18.133,0,32,13.867,32,32v448c0,18.133-13.867,32-32,32H144c-18.133,0-32-13.867-32-32
	V118.4L230.4,0z"/>
<rect x="412.8" y="246.4" style="fill:#FFD15C;" width="50.133" height="218.667"/>
<rect x="329.6" y="356.267" style="fill:#F3705A;" width="50.133" height="108.8"/>
<rect x="246.4" y="329.6" style="fill:#66C6B9;" width="50.133" height="134.4"/>
<polygon style="fill:#E8EAE9;" points="230.4,0 230.4,118.4 112,118.4 "/>
<path style="fill:#8AD7F8;" d="M466.133,160l-7.467,68.267l-22.4-22.4l-92.8,92.8c-4.267,4.267-11.733,4.267-16,0l-60.8-60.8
	l-72.533,71.467c-4.267,4.267-11.733,4.267-16,0s-4.267-11.733,0-16l81.067-81.067c4.267-4.267,11.733-4.267,16,0l60.8,60.8
	l84.267-84.267l-22.4-22.4L466.133,160z"/>
<path style="fill:#344A5E;" d="M304,512l-10.667-78.933c-2.133-14.933-12.8-27.733-27.733-33.067l-66.133-20.267l-46.933,30.933
	L105.6,379.733L39.467,400c-14.933,4.267-25.6,17.067-27.733,33.067L0,512H304z"/>
<path style="fill:#E8EAE9;" d="M131.2,512h41.6l17.067-97.067c0,0,2.133-13.867,4.267-28.8l-41.6,22.4l-41.6-22.4
	c2.133,14.933,4.267,28.8,4.267,28.8L131.2,512z"/>
<polygon style="fill:#F3705A;" points="128,512 176,512 162.133,435.2 171.733,423.467 152.533,404.267 133.333,423.467 
	141.867,435.2 "/>
<g>
	<path style="fill:#F3F3F3;" d="M114.133,353.067c7.467,21.333,38.4,51.2,38.4,51.2L124.8,432l-21.333-64
		C106.667,362.667,112,354.133,114.133,353.067z"/>
	<path style="fill:#F3F3F3;" d="M189.867,353.067c-7.467,21.333-38.4,51.2-38.4,51.2L179.2,432l21.333-64
		C197.333,362.667,192,354.133,189.867,353.067z"/>
</g>
<path style="fill:#F7B64C;" d="M114.133,310.4v42.667c7.467,21.333,21.333,37.333,38.4,51.2c17.067-13.867,30.933-29.867,38.4-51.2
	V310.4L114.133,310.4L114.133,310.4z"/>
<g>
	<path style="fill:#FFD15C;" d="M217.6,308.267c-2.133,10.667-9.6,18.133-16,16c-6.4-2.133-9.6-11.733-7.467-22.4
		s9.6-17.067,16-14.933C215.467,288,219.733,297.6,217.6,308.267z"/>
	<path style="fill:#FFD15C;" d="M86.4,308.267c2.133,10.667,9.6,18.133,16,16c6.4-2.133,9.6-11.733,7.467-22.4
		s-9.6-17.067-16-14.933C88.533,288,84.267,297.6,86.4,308.267z"/>
	<path style="fill:#FFD15C;" d="M194.133,246.4c0-42.667-84.267-42.667-84.267,0C101.333,260.267,96,277.333,96,296.533
		c0,41.6,25.6,75.733,55.467,75.733c30.933,0,56.533-34.133,56.533-75.733C208,277.333,202.667,260.267,194.133,246.4z"/>
</g>
<g>
	<path style="fill:#415A6B;" d="M100.267,310.4c0,0-9.6-38.4,20.267-60.8c0,0-3.2,9.6-10.667,14.933c0,0,45.867-14.933,60.8-27.733
		c0,0-10.667,14.933-23.467,19.2c0,0,25.6-5.333,34.133-17.067c0,0,30.933,21.333,20.267,71.467c0,0,42.667-56.533,5.333-101.333
		c0,0,5.333,2.133,9.6,8.533c0,0-9.6-23.467-29.867-21.333c0,0-22.4-32-70.4-9.6C71.467,212.267,85.333,285.867,100.267,310.4z"/>
	<polygon style="fill:#415A6B;" points="87.467,453.333 124.8,512 142.933,512 110.933,356.267 66.133,424.533 103.467,440.533 	"/>
	<polygon style="fill:#415A6B;" points="179.2,512 216.533,453.333 200.533,440.533 237.867,424.533 193.067,356.267 161.067,512 	
		"/>
</g>
<g>
</g>
<g>
</g>
<g>
</g>
<g>
</g>
<g>
</g>
<g>
</g>
<g>
</g>
<g>
</g>
<g>
</g>
<g>
</g>
<g>
</g>
<g>
</g>
<g>
</g>
<g>
</g>
<g>
</g>
</svg>
