<?xml version="1.0" encoding="iso-8859-1"?>
<!-- Generator: Adobe Illustrator 19.0.0, SVG Export Plug-In . SVG Version: 6.00 Build 0)  -->
<svg version="1.1" id="Capa_1" xmlns="http://www.w3.org/2000/svg" xmlns:xlink="http://www.w3.org/1999/xlink" x="0px" y="0px"
	 viewBox="0 0 512 512" style="enable-background:new 0 0 512 512;" xml:space="preserve">
<path style="fill:#F3705A;" d="M475.733,464H32c-18.133,0-32-13.867-32-32V80c0-18.133,13.867-32,32-32h443.733
	c18.133,0,32,13.867,32,32v353.067C507.733,450.133,493.867,464,475.733,464z"/>
<g>
	<path style="fill:#FFD15C;" d="M68.267,416H53.333c-2.133,0-4.267-2.133-4.267-4.267v-16h7.467v11.733h11.733
		C68.267,407.467,68.267,416,68.267,416z"/>
	<path style="fill:#FFD15C;" d="M56.533,364.8h-7.467v-30.933h7.467h-7.467h7.467C56.533,333.867,56.533,364.8,56.533,364.8z
		 M49.067,302.933V272h7.467h-7.467h7.467v30.933H49.067z M49.067,241.067v-30.933h7.467h-7.467h7.467v30.933H49.067z
		 M49.067,178.133V147.2h7.467h-7.467h7.467v30.933H49.067z"/>
	<path style="fill:#FFD15C;" d="M56.533,116.267h-7.467v-16c0-2.133,2.133-4.267,4.267-4.267h16v7.467h-12.8V116.267z"/>
	<path style="fill:#FFD15C;" d="M405.333,104.533H371.2V96h34.133V104.533z M338.133,104.533H304V96h34.133V104.533z
		 M270.933,104.533H236.8V96h34.133V104.533z M203.733,104.533H169.6V96h34.133V104.533z M136.533,104.533H102.4V96h34.133V104.533z
		"/>
	<path style="fill:#FFD15C;" d="M458.667,116.267H451.2v-11.733h-11.733V96h16c2.133,0,3.2,2.133,3.2,4.267V116.267z"/>
	<path style="fill:#FFD15C;" d="M458.667,116.267H451.2H458.667z"/>
	<path style="fill:#FFD15C;" d="M458.667,395.733H451.2H458.667L458.667,395.733z M458.667,364.8H451.2H458.667L458.667,364.8z
		 M458.667,364.8H451.2v-30.933h7.467V364.8z M458.667,333.867H451.2H458.667L458.667,333.867z M458.667,302.933H451.2H458.667
		L458.667,302.933z M458.667,302.933H451.2V272h7.467V302.933z M458.667,272H451.2H458.667L458.667,272z M458.667,241.067H451.2
		H458.667L458.667,241.067z M458.667,240H451.2v-30.933h7.467V240z M458.667,209.067H451.2H458.667L458.667,209.067z
		 M458.667,178.133H451.2H458.667L458.667,178.133z M458.667,178.133H451.2V147.2h7.467V178.133z"/>
	<path style="fill:#FFD15C;" d="M455.467,416h-16v-7.467H451.2V396.8h7.467v16C458.667,413.867,457.6,416,455.467,416z"/>
	<path style="fill:#FFD15C;" d="M405.333,416H371.2v-7.467h34.133V416z M338.133,416H304v-7.467h34.133V416z M270.933,416H236.8
		v-7.467h34.133V416z M203.733,416H169.6v-7.467h34.133V416z M136.533,416H102.4v-7.467h34.133V416z"/>
</g>
<path style="fill:#415A6B;" d="M505.6,203.733h-93.867c-28.8,0-52.267,23.467-52.267,52.267c0,28.8,23.467,52.267,52.267,52.267
	H505.6c4.267,0,6.4-3.2,6.4-6.4V211.2C512,206.933,508.8,203.733,505.6,203.733z"/>
<circle style="fill:#E8EAE9;" cx="411.733" cy="256" r="21.333"/>
<g>
</g>
<g>
</g>
<g>
</g>
<g>
</g>
<g>
</g>
<g>
</g>
<g>
</g>
<g>
</g>
<g>
</g>
<g>
</g>
<g>
</g>
<g>
</g>
<g>
</g>
<g>
</g>
<g>
</g>
</svg>
