<?xml version="1.0" encoding="iso-8859-1"?>
<!-- Generator: Adobe Illustrator 19.0.0, SVG Export Plug-In . SVG Version: 6.00 Build 0)  -->
<svg version="1.1" id="Capa_1" xmlns="http://www.w3.org/2000/svg" xmlns:xlink="http://www.w3.org/1999/xlink" x="0px" y="0px"
	 viewBox="0 0 512 512" style="enable-background:new 0 0 512 512;" xml:space="preserve">
<path style="fill:#55C0EB;" d="M480,29.867H103.467c-18.133,0-32,13.867-32,32v228.267c0,18.133,13.867,32,32,32H480
	c18.133,0,32-13.867,32-32V61.867C512,44.8,498.133,29.867,480,29.867z"/>
<rect x="71.467" y="84.267" style="fill:#415A6B;" width="440.533" height="56.533"/>
<g>
	<rect x="124.8" y="214.4" style="fill:#FFFFFF;" width="304" height="13.867"/>
	<rect x="124.8" y="249.6" style="fill:#FFFFFF;" width="333.867" height="13.867"/>
</g>
<path style="fill:#8AD7F8;" d="M408.533,482.133H32c-18.133,0-32-13.867-32-32V221.867c0-18.133,13.867-32,32-32h376.533
	c18.133,0,32,13.867,32,32v228.267C440.533,467.2,426.667,482.133,408.533,482.133z"/>
<circle style="fill:#FFD15C;" cx="72.533" cy="280.533" r="35.2"/>
<circle style="fill:#F3705A;" cx="123.733" cy="280.533" r="35.2"/>
<g>
	<rect x="240" y="294.4" style="fill:#FFFFFF;" width="91.733" height="13.867"/>
	<rect x="240" y="259.2" style="fill:#FFFFFF;" width="151.467" height="13.867"/>
	<rect x="328.533" y="409.6" style="fill:#FFFFFF;" width="62.933" height="21.333"/>
	<rect x="233.6" y="409.6" style="fill:#FFFFFF;" width="62.933" height="21.333"/>
	<rect x="138.667" y="409.6" style="fill:#FFFFFF;" width="62.933" height="21.333"/>
	<rect x="44.8" y="409.6" style="fill:#FFFFFF;" width="62.933" height="21.333"/>
</g>
<g>
</g>
<g>
</g>
<g>
</g>
<g>
</g>
<g>
</g>
<g>
</g>
<g>
</g>
<g>
</g>
<g>
</g>
<g>
</g>
<g>
</g>
<g>
</g>
<g>
</g>
<g>
</g>
<g>
</g>
</svg>
