<?xml version="1.0" encoding="iso-8859-1"?>
<!-- Generator: Adobe Illustrator 19.0.0, SVG Export Plug-In . SVG Version: 6.00 Build 0)  -->
<svg version="1.1" id="Capa_1" xmlns="http://www.w3.org/2000/svg" xmlns:xlink="http://www.w3.org/1999/xlink" x="0px" y="0px"
	 viewBox="0 0 512.267 512.267" style="enable-background:new 0 0 512.267 512.267;" xml:space="preserve">
<circle style="fill:#8AD7F8;" cx="240.533" cy="240" r="240"/>
<g>
	<path style="fill:#F3F3F3;" d="M253.333,245.333c3.2,1.067,6.4,0,9.6,3.2c1.067,1.067,3.2,3.2,5.333,1.067
		c1.067-1.067,2.133,1.067,3.2,1.067c3.2,0,6.4-1.067,9.6-2.133c-2.133,0-4.267-1.067-6.4-1.067c-1.067,0-3.2,0-4.267,0
		c-2.133,0-2.133-3.2-1.067-5.333c1.067-2.133,3.2-3.2,5.333-5.333c-1.067-1.067-2.133-2.133-3.2-4.267h6.4
		c-4.267-3.2-8.533,0-13.867-4.267c1.067-1.067,1.067-1.067,2.133-1.067c2.133,1.067,4.267-2.133,7.467,0
		c1.067,1.067,3.2-1.067,4.267-2.133c6.4-1.067,11.733-4.267,18.133-2.133c1.067,1.067,3.2-1.067,4.267-1.067
		c1.067,0,3.2,1.067,4.267,1.067c3.2,0,6.4,0,9.6,0c1.067,0,2.133,1.067,4.267,2.133c-1.067,1.067-2.133,2.133-2.133,3.2
		c0,0,0,0,0,1.067c2.133,0,4.267,0,5.333-1.067c4.267-4.267,8.533-2.133,13.867-3.2c3.2,0,6.4,2.133,9.6-1.067
		c2.133-1.067,4.267-1.067,5.333-3.2c2.133-2.133,3.2,0,3.2,4.267c0-1.067,0-3.2,1.067-4.267c2.133-2.133,5.333-1.067,8.533,1.067
		c0,0,0,0,1.067,0c2.133-1.067,4.267-3.2,6.4-4.267l1.067-1.067c6.4,1.067,12.8,1.067,19.2,2.133c2.133,0,4.267,1.067,6.4,2.133
		c1.067,0,1.067,3.2,2.133,5.333c1.067,0,3.2,0,4.267,0c4.267,0,8.533,0,12.8,0c0,0,0,0,1.067,1.067
		c-6.4,3.2-11.733,7.467-18.133,11.733c1.067,1.067,2.133,2.133,3.2,3.2c-1.067,1.067-1.067,2.133-2.133,4.267
		c1.067,1.067,4.267,0,3.2,5.333c0,1.067-1.067,3.2-2.133,4.267c0,0-1.067,0-1.067,1.067c-1.067,3.2-2.133,5.333-4.267,6.4
		c0,1.067,0,1.067,0,1.067c1.067,2.133,1.067,3.2,2.133,5.333c-1.067,1.067-2.133,2.133-3.2,3.2c-5.333,4.267-10.667,6.4-16,6.4
		c-1.067,0-3.2,1.067-3.2,3.2c-2.133,4.267-4.267,4.267-7.467,6.4c-1.067,1.067-3.2,1.067-5.333,1.067
		c-1.067,0-1.067,1.067-2.133,1.067c0,0,0,1.067,1.067,1.067c-2.133,6.4-4.267,12.8-6.4,20.267c-1.067-1.067-2.133-3.2-3.2-4.267
		S350.4,307.2,350.4,307.2c-2.133,1.067-3.2,0-5.333-3.2c-1.067-3.2-3.2-6.4-5.333-9.6c0-1.067,1.067-2.133,1.067-4.267
		c-2.133,0-4.267-1.067-5.333-6.4c0-2.133,0-5.333,1.067-5.333c1.067-1.067,3.2-5.333,4.267,0c1.067-5.333,2.133-9.6-1.067-13.867
		c0,3.2-2.133,5.333-2.133,6.4c0,5.333-2.133,2.133-3.2,2.133c0,0-1.067-2.133-1.067-3.2c1.067-1.067,1.067-2.133,2.133-3.2
		c1.067,0,2.133,0,3.2,0c-1.067-1.067-1.067-3.2-2.133-4.267c0,1.067-1.067,2.133-1.067,2.133c-1.067,1.067-2.133,1.067-3.2-2.133
		c-1.067-9.6-4.267-14.933-8.533-16s-8.533,0-12.8,0c-4.267-1.067-8.533-2.133-11.733-10.667c5.333-1.067,10.667-2.133,16-3.2
		c-2.133-1.067-3.2-1.067-4.267-2.133c1.067-1.067,1.067-2.133,2.133-4.267c-2.133,2.133-4.267,3.2-6.4,5.333
		c-2.133,1.067-4.267,2.133-6.4,3.2c-2.133,1.067-5.333-1.067-7.467,5.333c0,1.067-1.067,1.067-2.133,2.133
		c-1.067,0-1.067,1.067-2.133,2.133c-1.067,6.4-4.267,4.267-6.4,4.267c1.067,0,1.067,1.067,2.133,1.067
		c1.067,1.067,1.067,1.067,2.133,3.2c-2.133,1.067-4.267,4.267-6.4,1.067c-2.133,0-4.267,2.133-5.333,2.133
		c-4.267,0-7.467-1.067-11.733-1.067c0,0-1.067,0-1.067-1.067c0-6.4-3.2-4.267-4.267-4.267
		C255.467,249.6,254.4,250.667,253.333,245.333z"/>
	<path style="fill:#F3F3F3;" d="M305.6,430.933c-2.133,0-3.2-1.067-3.2-3.2c0-3.2,0-5.333,0-8.533
		c-2.133,1.067-3.2,1.067-5.333,1.067c0-3.2,0-7.467-1.067-10.667c-1.067,0-1.067,0-1.067,0c-1.067,0-2.133-1.067-3.2-1.067
		c1.067-1.067,2.133-1.067,2.133-2.133c0-1.067,0-2.133,0-3.2c0,0-1.067-1.067-2.133-1.067c2.133-3.2,4.267-5.333,6.4-8.533
		c1.067-2.133,1.067-3.2-1.067-4.267H296c0-1.067,0-2.133,0-2.133c-1.067,0-2.133,1.067-4.267,1.067c-1.067,0-2.133,0-3.2,0
		c0,0-1.067,0-2.133,0l1.067-1.067c1.067-1.067,2.133-1.067,3.2-2.133c2.133,1.067,4.267,1.067,7.467-2.133
		c2.133-2.133,0-3.2,0-5.333c-1.067-3.2-1.067-6.4-1.067-9.6l0,0c2.133-2.133,1.067-6.4-1.067-8.533
		c-2.133-2.133-3.2-4.267-2.133-6.4c1.067-2.133,2.133-3.2,2.133-5.333c1.067-3.2,3.2-4.267,2.133-8.533
		c-2.133-5.333-4.267-10.667-8.533-14.933c-1.067-1.067-2.133-1.067-2.133-2.133c0-3.2-1.067-6.4-1.067-9.6
		c0-3.2-3.2-7.467-6.4-7.467c-1.067,0-2.133,0-2.133,0c-1.067,2.133-4.267,2.133-6.4,2.133c-2.133,0-4.267,1.067-5.333,2.133
		c-1.067,1.067-2.133,2.133-3.2,3.2s-1.067,2.133-2.133,4.267c0,0-1.067,1.067-2.133,1.067l0,0c0-1.067,0-1.067,0-2.133
		c-2.133,1.067-3.2,2.133-5.333,2.133c-2.133,0-2.133,1.067-2.133,2.133c1.067,3.2-2.133,5.333-3.2,7.467c0,1.067-2.133,0-3.2,0
		c0-2.133,0-4.267,0-5.333c0-2.133-2.133-2.133-3.2-3.2c-4.267-3.2-8.533-3.2-11.733,1.067c-2.133,2.133-5.333,4.267-8.533,3.2
		c-1.067,0-3.2,1.067-4.267,1.067s-2.133,1.067-3.2,2.133c0-1.067,0-1.067,0-1.067c-2.133,0-3.2,0-5.333,0
		c0,2.133-1.067,4.267-4.267,5.333c-1.067,0-1.067,1.067-2.133,2.133l-1.067,1.067c-2.133,0-2.133,2.133-3.2,3.2
		c-3.2,2.133,1.067,2.133,1.067,4.267c0,0,0,1.067,1.067,2.133c-2.133-1.067-3.2-2.133-4.267-2.133s-2.133-1.067-2.133,0
		c0-5.333-1.067,0-1.067,2.133c1.067,2.133,0,3.2-2.133,4.267c-1.067,0-2.133,1.067-3.2,2.133c-1.067,1.067-1.067,3.2-2.133,4.267
		c-2.133,2.133-6.4,1.067-8.533,0c-1.067-1.067-2.133-3.2-4.267-4.267c0,0-1.067-1.067-2.133-1.067
		c-2.133,1.067-3.2,2.133-5.333,3.2c-1.067,1.067-2.133,2.133-3.2,3.2c-2.133-2.133-3.2-3.2-4.267-4.267
		c-2.133-3.2-2.133-3.2-6.4-1.067c0,1.067,1.067,2.133,1.067,2.133c0,2.133,1.067,4.267,0,5.333c-1.067,2.133-2.133,3.2-4.267,4.267
		c-4.267,1.067-8.533,1.067-11.733-1.067c-1.067-1.067-3.2-2.133-4.267-3.2c-2.133-2.133-6.4-4.267-5.333-8.533
		c0-2.133,0-5.333,1.067-7.467c0-2.133,2.133-3.2,2.133-4.267c1.067,0,2.133-1.067,3.2-2.133c1.067-1.067,2.133-3.2,3.2-4.267
		c3.2-3.2,7.467-5.333,10.667-7.467c-3.2-3.2-4.267-7.467-2.133-12.8c1.067-2.133,0-4.267-1.067-5.333
		c0-2.133-2.133-3.2-2.133-4.267c0-2.133,0-5.333,1.067-7.467c0-1.067,1.067-2.133,2.133-4.267L145.6,288
		c0-1.067-1.067-2.133-1.067-3.2c-1.067-3.2,2.133-10.667,5.333-12.8l0,0c0,1.067,1.067,1.067,1.067,3.2
		c2.133-5.333,4.267-8.533,6.4-13.867c-1.067,0-2.133,0-3.2,0c0,5.333-4.267,7.467-8.533,5.333c0-1.067,1.067-2.133,1.067-3.2
		c-5.333,0-5.333,5.333-8.533,8.533c1.067-2.133,1.067-5.333,2.133-6.4c2.133-3.2,5.333-6.4,8.533-9.6
		c1.067-1.067,1.067-2.133,2.133-3.2c1.067-2.133,2.133-4.267,2.133-5.333c0-1.067,1.067-2.133,0-2.133
		c-1.067-1.067-2.133-2.133-2.133-2.133c-2.133,0-4.267,1.067-6.4,1.067c-2.133,1.067-5.333,2.133-7.467,3.2
		c-1.067-1.067-1.067-2.133-2.133-2.133c-2.133,0-4.267,0-6.4,0c-3.2,0-4.267,1.067-3.2,4.267c0,1.067,0,2.133,0,2.133
		c-2.133,2.133-3.2,3.2-5.333,5.333c-3.2-3.2-3.2-3.2-7.467-1.067h-1.067c-2.133,1.067-4.267,2.133-5.333,4.267
		c-2.133,1.067-3.2,4.267-5.333,5.333c-4.267,2.133-8.533,3.2-12.8,5.333c0,0,0-1.067-1.067-1.067c0-2.133,1.067-4.267,1.067-6.4
		c-1.067,0-2.133,0-3.2,0c0-1.067,0-1.067,1.067-2.133c-1.067,0-2.133,1.067-3.2,1.067c1.067-2.133,1.067-3.2,2.133-4.267
		c1.067-2.133,2.133-4.267,5.333-4.267c2.133,0,3.2-1.067,5.333-2.133c2.133-1.067,5.333-3.2,7.467-4.267c0,4.267,0,7.467,0,10.667
		c1.067-1.067,2.133-2.133,3.2-3.2c5.333,0,8.533-3.2,12.8-5.333c1.067,0,1.067-2.133,1.067-2.133s0,0-1.067,0
		c1.067-1.067,2.133-1.067,3.2-2.133c0-1.067-1.067-2.133-2.133-3.2c-2.133,0-5.333,3.2-8.533,1.067
		c2.133-1.067,4.267-1.067,6.4-2.133c2.133-1.067,1.067-4.267,3.2-5.333c0,0,0-1.067,0-2.133c-1.067,0-1.067,0-2.133,1.067
		c-1.067,1.067-3.2,1.067-4.267,2.133c-1.067,1.067-2.133,1.067-3.2,2.133c0-4.267-2.133-4.267-4.267-3.2
		c0-1.067-1.067-2.133-1.067-3.2c-2.133,2.133-4.267,3.2-7.467,5.333C97.6,236.8,96.533,238.933,94.4,240l-1.067,1.067
		c-2.133,1.067-4.267,1.067-6.4,2.133c-3.2,1.067-5.333,3.2-7.467,6.4v1.067c1.067-1.067,3.2-1.067,4.267-2.133
		c-1.067,1.067-2.133,4.267-5.333,2.133c0,0-1.067,0-2.133,0c-1.067,2.133-3.2,5.333-3.2,8.533c0,0,0,1.067-1.067,1.067
		l-1.067-1.067c0-1.067,0-1.067,0-2.133c-2.133,1.067-3.2,2.133-4.267,3.2c-1.067,2.133,0,4.267,0,6.4c2.133,0,4.267,0,6.4-1.067
		c0,0,0,0,0,1.067l0,0c1.067-1.067,1.067-2.133,2.133-3.2s3.2-1.067,4.267-2.133c0,0,0,1.067-1.067,2.133
		c3.2,0,2.133,2.133,2.133,4.267c0,2.133-2.133,2.133-3.2,2.133c-1.067,0-2.133-1.067-4.267-1.067c0,2.133,0,3.2,0,3.2
		c-2.133,1.067-3.2,1.067-5.333,1.067c-2.133-2.133-4.267,0-7.467,0c1.067-1.067,1.067-2.133,2.133-4.267
		c0-1.067,1.067-2.133,1.067-2.133c0-1.067,0-1.067,0-2.133c-1.067,0-2.133,1.067-2.133,1.067c-1.067,1.067-2.133,2.133-3.2,3.2
		c-1.067,1.067-2.133,1.067-2.133,2.133c0,1.067,0,3.2,1.067,3.2c2.133,0,2.133,1.067,2.133,3.2c0,1.067,1.067,2.133,1.067,2.133
		c1.067,0,2.133,0,3.2,0c1.067-1.067,1.067-2.133,2.133-2.133c0,0,0,0,1.067,0c0,2.133-1.067,3.2,0,5.333
		c0,1.067,1.067,2.133-1.067,2.133c-1.067,0-2.133-1.067-2.133-2.133c-1.067-2.133-2.133-2.133-3.2,0
		C59.2,283.733,59.2,284.8,59.2,284.8s0,0,1.067,0l3.2-2.133c0,0,0,0,1.067,1.067C60.267,288,57.067,291.2,53.867,294.4
		c-3.2,3.2-6.4,5.333-10.667,7.467c1.067-3.2,2.133-5.333,5.333-5.333c1.067,0,2.133-2.133,2.133-3.2c0-1.067,0-2.133-1.067-3.2
		c-5.333,3.2-9.6,3.2-10.667,0c-3.2,1.067-4.267,4.267-1.067,7.467c-3.2-1.067-4.267,2.133-6.4,3.2
		c-4.267,3.2-8.533,5.333-12.8,8.533c-1.067,0-1.067,1.067-2.133,2.133c-2.133,1.067-3.2,3.2-5.333,4.267c0,0,0,0,0,1.067
		c1.067,2.133,2.133,5.333,2.133,7.467c3.2-2.133,5.333-5.333,4.267-10.667c2.133,1.067,3.2,2.133,4.267,3.2
		c1.067-1.067,1.067-1.067,2.133-2.133c0,1.067,0,1.067,1.067,2.133c1.067,0,2.133,0,3.2,0c-1.067,1.067-2.133,2.133-3.2,3.2
		c-2.133,1.067-5.333,2.133-6.4,4.267c-1.067,1.067-2.133,2.133-3.2,4.267c5.333,12.8,10.667,24.533,17.067,36.267
		c1.067,0,2.133,0,4.267,0c1.067,0,2.133,0,3.2,1.067c0,0,0,0,0,1.067c2.133,0,4.267,0,5.333-1.067c2.133-1.067,3.2-2.133,5.333,0
		c1.067,1.067,4.267,2.133,5.333,3.2c2.133,4.267,6.4,7.467,10.667,8.533c1.067,0,3.2,0,4.267,0c3.2,1.067,6.4,1.067,8.533,2.133
		c0,0,1.067,0,2.133-1.067c2.133-3.2,5.333-2.133,8.533-1.067c4.267,1.067,9.6,3.2,13.867,2.133c1.067,0,1.067-1.067,2.133-1.067
		c-1.067,0-1.067-1.067-2.133-1.067c-3.2-3.2-7.467-3.2-11.733-4.267v-1.067c2.133,0,4.267-1.067,5.333-1.067
		c2.133,0,3.2,1.067,5.333,1.067c3.2,0,6.4,0,9.6,0c1.067,0,3.2,0,4.267,0c3.2,0,5.333-1.067,8.533,1.067
		c1.067,1.067,3.2,2.133,4.267,2.133c2.133,0,3.2-1.067,5.333-1.067c3.2-1.067,5.333-2.133,8.533-3.2
		c2.133-1.067,4.267-2.133,6.4-4.267c1.067-1.067,2.133-3.2,4.267-3.2c5.333,0,9.6-2.133,13.867-5.333h1.067
		c2.133,0,5.333,1.067,7.467,1.067c3.2,0,5.333-1.067,8.533-2.133c2.133,0,2.133-1.067,2.133-3.2c0-1.067,1.067-3.2,2.133-3.2
		c2.133,0,5.333,0,6.4,1.067c3.2,3.2,5.333,6.4,4.267,11.733c0,3.2,1.067,5.333,3.2,7.467c0,0,1.067,0,2.133,0
		c0,1.067,0,2.133,1.067,3.2c1.067,1.067,2.133,2.133,3.2,2.133c3.2,1.067,6.4,1.067,9.6,2.133c4.267,1.067,7.467,2.133,11.733,3.2
		c3.2,0,5.333-1.067,8.533-1.067c3.2-1.067,6.4-2.133,8.533,0c3.2,3.2,6.4,7.467,9.6,10.667c3.2,4.267,5.333,9.6,9.6,12.8
		c2.133,2.133,3.2,5.333,4.267,8.533c0,2.133,1.067,3.2,3.2,5.333c1.067,1.067,1.067,1.067,1.067,2.133
		c1.067,2.133,3.2,3.2,5.333,1.067c1.067,4.267,2.133,7.467,4.267,11.733c0,0,1.067-1.067,2.133-1.067l2.133,2.133
		c-2.133,3.2-1.067,5.333,2.133,5.333c2.133,0,3.2,1.067,4.267,2.133c1.067,1.067,2.133,1.067,4.267,2.133
		c2.133,0,2.133-2.133,1.067-4.267c1.067,0,2.133-1.067,4.267-2.133c-1.067,2.133-1.067,2.133-2.133,4.267
		c6.4-1.067,9.6-4.267,8.533-7.467c-3.2,1.067-5.333,1.067-8.533,2.133C305.6,433.067,305.6,432,305.6,430.933z"/>
	<path style="fill:#F3F3F3;" d="M306.667,9.6L306.667,9.6c-4.267,1.067-8.533,1.067-12.8,1.067c1.067,4.267,4.267,3.2,5.333,4.267
		c0,1.067,0,2.133,0,4.267c-2.133-2.133-3.2-4.267-5.333-4.267H292.8c-1.067,0-2.133,0-3.2,0c-2.133,0-4.267,2.133-5.333,1.067
		c-2.133-1.067-3.2,0-4.267,0c1.067,1.067,2.133,2.133,1.067,2.133c-1.067,3.2,1.067,2.133,3.2,2.133s3.2,0,4.267,2.133
		c-1.067,2.133-1.067,0-2.133,0c-1.067,0-2.133,0-4.267,0c1.067,3.2-3.2,5.333-9.6,3.2c3.2-1.067,5.333-2.133,6.4-4.267
		C276.8,19.2,277.867,16,277.867,12.8c-2.133,0-4.267,0-6.4,0c-2.133,0-3.2,2.133-4.267,3.2c1.067,1.067,2.133,3.2,3.2,5.333
		c-2.133-1.067-3.2-1.067-4.267-1.067c-1.067,0-2.133,0-3.2,0c-2.133,0-5.333-1.067-7.467-1.067l-1.067,1.067v1.067
		c-4.267,0-8.533,0-11.733,0c-4.267,0-8.533,1.067-11.733,1.067c-1.067,4.267-4.267,1.067-6.4,2.133
		c-1.067,1.067-2.133,2.133-2.133,2.133c-2.133-2.133-4.267-1.067-6.4-1.067c1.067-1.067,1.067-1.067,2.133-2.133
		c-2.133-1.067-3.2-2.133-4.267-2.133c-4.267-1.067-7.467-2.133-12.8-2.133c-2.133,0-5.333-1.067-7.467-1.067l0,0
		c1.067,0,1.067-1.067,2.133-1.067c-1.067,0-2.133,0-3.2,0c-1.067,0-3.2,0-4.267,0c-2.133,0-4.267,0-6.4,0s-4.267,1.067-6.4,1.067
		c-2.133,0-4.267,0-5.333,2.133l0,0c-3.2,0-4.267,3.2-7.467,3.2c-1.067,0-1.067,1.067-2.133,2.133c-1.067,1.067-2.133,2.133-3.2,3.2
		c1.067,1.067,0,1.067-2.133,2.133C152,32,148.8,32,145.6,33.067c0,0,0,1.067-1.067,1.067c-1.067,2.133,0,3.2,1.067,5.333
		c1.067,2.133,2.133,2.133,4.267,1.067c2.133-1.067,4.267-2.133,6.4-2.133c1.067,1.067,1.067,3.2,2.133,4.267
		c2.133,1.067,3.2,1.067,2.133,3.2l1.067,1.067c1.067,0,1.067,0,2.133,0l1.067-1.067c1.067,0,2.133,0,3.2-2.133
		c0-1.067,1.067-2.133,1.067-3.2s0-1.067-1.067-2.133c1.067,0,2.133-1.067,3.2-1.067c-3.2-3.2-2.133-4.267,2.133-6.4
		c1.067-1.067,4.267-1.067,4.267-2.133c1.067-3.2,4.267-2.133,6.4-3.2c1.067,0,2.133,1.067,3.2,1.067
		c-2.133,1.067-3.2,1.067-4.267,2.133c-1.067,1.067-2.133,1.067-3.2,2.133L178.667,32c0,3.2,3.2,5.333,6.4,4.267
		c3.2-1.067,6.4-1.067,9.6,0c-1.067,1.067-3.2,2.133-4.267,2.133c-2.133-3.2-4.267,0-6.4,0c2.133,2.133,1.067,3.2,0,5.333
		c-3.2-1.067-4.267-2.133-5.333-1.067c-2.133,1.067,0,3.2,0,4.267c-2.133,0-4.267,2.133-5.333,1.067
		c-4.267-2.133-6.4,1.067-8.533,1.067c-1.067,0-2.133-1.067-3.2-1.067c-2.133-1.067-3.2,0-5.333,1.067
		c-3.2,2.133-6.4,2.133-8.533,4.267c0,0-1.067,0-1.067,1.067c-2.133,0-4.267,1.067-6.4,1.067c-2.133,0-5.333,3.2-7.467,3.2
		c-1.067,0-2.133,1.067-3.2,1.067c-1.067,0-2.133,0-3.2,0c0,0,0,0,0,1.067c2.133,1.067,5.333,1.067,6.4,3.2
		c1.067,1.067,1.067,4.267,0,5.333c0,0-1.067,1.067-2.133,1.067c-3.2,0-6.4,0-9.6,0c-1.067,0-3.2,0-3.2,2.133
		c0,3.2,1.067,7.467,1.067,10.667c2.133,0,3.2,0,4.267,0c1.067,2.133,3.2,1.067,4.267,0c1.067,0,1.067,0,2.133,0
		c3.2,0,5.333-2.133,6.4-4.267c0-2.133,1.067-4.267,3.2-4.267c1.067,0,2.133-1.067,2.133-2.133c0-3.2,2.133-2.133,4.267-2.133
		c1.067,0,2.133,0,3.2,0c3.2-2.133,5.333-2.133,7.467,1.067c0,0,1.067,0,1.067,1.067c2.133,1.067,4.267,2.133,6.4,3.2
		c2.133,1.067,3.2,3.2,5.333,5.333c0-1.067,0-3.2,0-4.267c-3.2-2.133-7.467-5.333-10.667-8.533c3.2-2.133,3.2-2.133,5.333,0
		c1.067,0,1.067,0,2.133,0c2.133,1.067,3.2,2.133,5.333,3.2c1.067,1.067,3.2,2.133,3.2,3.2c0,4.267,3.2,5.333,5.333,8.533
		c1.067,1.067,2.133,1.067,3.2-1.067c0-1.067,0-3.2,0-4.267c1.067-1.067,2.133-2.133,3.2-2.133c1.067,0,2.133,0,3.2,1.067
		c0,1.067,0,2.133,0,2.133c1.067,3.2,3.2,5.333,5.333,5.333c3.2,0,5.333,0,8.533,0c1.067,0,3.2-1.067,5.333-1.067
		c0,1.067,0,2.133,0,2.133c0,6.4-4.267,11.733-10.667,10.667c-5.333-1.067-10.667-1.067-14.933-4.267c-1.067-1.067-3.2,0-4.267,0
		c-1.067,0-1.067,1.067-1.067,2.133c0,0-2.133,2.133-2.133,1.067c-2.133-2.133-6.4-1.067-8.533-3.2c0-1.067-2.133-1.067-3.2-1.067
		c-3.2,0-5.333-1.067-7.467-3.2c2.133-1.067,2.133-3.2,1.067-5.333c-1.067-1.067-2.133,0-3.2,0c-3.2,0-6.4,0-9.6,0
		c-2.133,0-4.267,1.067-5.333,1.067c-4.267,1.067-7.467,2.133-11.733,1.067c0,0-1.067,0-1.067,1.067
		c-1.067,1.067-2.133,2.133-3.2,3.2c-5.333,2.133-7.467,3.2-7.467,7.467c0,1.067-1.067,2.133-2.133,3.2
		c-1.067,1.067-3.2,2.133-4.267,4.267c-1.067,2.133-3.2,4.267-5.333,6.4c-1.067,1.067-1.067,3.2-1.067,4.267
		c0,1.067,1.067,2.133,2.133,3.2c0,1.067,0,1.067,0,2.133c0,1.067-1.067,2.133-1.067,3.2c-3.2,2.133-2.133,5.333,1.067,8.533
		c2.133,2.133,3.2,4.267,4.267,6.4c1.067,2.133,2.133,3.2,3.2,4.267c1.067,1.067,3.2,2.133,4.267,3.2
		c2.133,1.067,3.2,2.133,6.4,1.067c2.133-1.067,4.267-1.067,6.4-1.067c2.133,0,3.2,0,4.267-1.067
		c2.133-1.067,4.267-2.133,5.333-2.133c2.133-1.067,6.4,1.067,6.4,2.133c0,2.133,1.067,2.133,2.133,1.067
		c2.133-1.067,5.333,1.067,5.333,2.133c0,2.133,1.067,4.267,0,6.4c-1.067,3.2,0,5.333,1.067,7.467
		c2.133,2.133,4.267,5.333,5.333,8.533c1.067,2.133,1.067,5.333,2.133,7.467c0,1.067,0,2.133-1.067,3.2
		c-1.067,3.2-2.133,5.333-3.2,7.467c0,1.067,0,2.133,1.067,3.2c2.133,3.2,4.267,7.467,4.267,11.733c0,3.2,1.067,6.4,4.267,9.6
		c1.067,2.133,3.2,4.267,3.2,6.4c0,3.2,1.067,5.333,5.333,4.267c1.067,0,3.2-1.067,4.267-1.067c3.2,0,5.333,0,8.533-1.067
		c5.333-2.133,8.533-6.4,10.667-10.667c0-1.067,1.067-2.133,1.067-2.133c-1.067-2.133,0-3.2,3.2-4.267c2.133,0,3.2-2.133,2.133-3.2
		c0-1.067-1.067-3.2-2.133-4.267V195.2c2.133-1.067,2.133-4.267,5.333-5.333c3.2,0,6.4-2.133,6.4-5.333c0-3.2-1.067-6.4-1.067-9.6
		c-1.067-4.267-3.2-8.533,0-12.8c1.067-1.067,1.067-3.2,2.133-3.2c1.067-1.067,2.133-2.133,4.267-3.2
		c-1.067-1.067-2.133-1.067-2.133-1.067c5.333-1.067,8.533-3.2,11.733-6.4c2.133-3.2,4.267-6.4,6.4-10.667
		c1.067-1.067,0-2.133,1.067-4.267c-4.267,1.067-7.467,1.067-10.667,2.133s-5.333-1.067-4.267-4.267c1.067,0,1.067,0,2.133,0
		c4.267-1.067,8.533-3.2,13.867-5.333c0,0,1.067,0,1.067-1.067c1.067-2.133,3.2-2.133,5.333-3.2c2.133-1.067,3.2-1.067,3.2-4.267
		c2.133,1.067,2.133,1.067,3.2-1.067c0-1.067,1.067-1.067,2.133-2.133c1.067-1.067,2.133-2.133,2.133-2.133
		c-1.067-1.067-2.133-3.2-3.2-3.2c-2.133,0-3.2-1.067-3.2-3.2c0-1.067,0-1.067-1.067-2.133c-1.067,1.067-1.067,1.067-2.133,2.133
		c-2.133,2.133-4.267,3.2-6.4,2.133c-1.067-1.067-3.2-3.2-3.2-4.267c-1.067-2.133-2.133-3.2-3.2-5.333
		c0-1.067-1.067-1.067-1.067-2.133c0-2.133-1.067-2.133-2.133-2.133s-2.133-1.067-4.267-2.133v-1.067c1.067,0,2.133,0,2.133,0
		c2.133-1.067,2.133,0,3.2,1.067c0,1.067,1.067,1.067,1.067,2.133c2.133-1.067,3.2,0,4.267,1.067
		c1.067,2.133,2.133,4.267,4.267,5.333c2.133,1.067,4.267,2.133,6.4,1.067c1.067,0,2.133,0,2.133,1.067
		c0,2.133,2.133,2.133,3.2,2.133c1.067,0,2.133,0,3.2,0h10.667c2.133,1.067,4.267,2.133,5.333,3.2L270.4,108.8c0,0,0,0,0,1.067
		h4.267c-1.067,1.067-2.133,1.067-3.2,2.133v1.067c1.067,0,3.2,1.067,4.267,1.067c0,0,1.067-1.067,2.133-2.133l1.067,1.067
		c0,4.267,0,7.467,1.067,10.667c2.133,4.267,3.2,8.533,5.333,12.8c0,1.067,1.067,2.133,2.133,3.2
		c1.067-1.067,1.067-1.067,2.133-2.133l0,0c1.067-3.2,4.267-6.4,3.2-9.6c0-1.067,0-2.133,1.067-3.2
		c3.2-3.2,7.467-5.333,10.667-8.533c1.067-1.067,2.133-2.133,3.2-3.2l0,0c1.067-2.133,1.067-3.2,2.133-4.267
		c1.067,0,2.133,0,3.2-1.067c0,1.067,0,3.2,0,5.333c0,0,0,0,1.067,0c0-1.067,0-2.133,0-3.2c1.067,2.133,2.133,3.2,3.2,5.333
		c0,0,1.067,0,1.067,1.067c1.067,1.067,2.133,2.133,2.133,3.2c0,3.2,3.2,3.2,4.267,3.2c2.133,1.067,3.2,1.067,3.2,3.2
		c0,1.067,0,3.2,1.067,4.267c1.067,2.133,1.067,3.2,0,6.4c-1.067,2.133-1.067,4.267,2.133,6.4c1.067,0,2.133,2.133,2.133,3.2
		c1.067,4.267,3.2,7.467,7.467,9.6c0-3.2-3.2-8.533-5.333-10.667c-3.2-2.133-2.133-5.333-4.267-7.467v-1.067
		c1.067-2.133,2.133-3.2,1.067-5.333c0,0,0-1.067,1.067-1.067s1.067,0,2.133,0c0,1.067-1.067,1.067-1.067,2.133
		c3.2,2.133,5.333,4.267,7.467,5.333l1.067-1.067v-1.067c0-1.067,0-1.067,0-2.133c1.067,0,1.067,1.067,2.133,1.067
		c1.067,1.067,2.133,2.133,4.267,1.067c2.133-1.067,2.133-3.2,2.133-5.333c0-3.2-3.2-5.333-5.333-7.467
		c-2.133-2.133-2.133-3.2-1.067-5.333c1.067-1.067,1.067-2.133,3.2-1.067c1.067,0,2.133-2.133,2.133-1.067
		c2.133,1.067,4.267,0,5.333,0c2.133,0,3.2-1.067,4.267-2.133c1.067,0,2.133,1.067,3.2,0c3.2-1.067,5.333-3.2,8.533-5.333
		c2.133-1.067,3.2-4.267,4.267-6.4c2.133-3.2,1.067-5.333-2.133-7.467c0,0,0,0-1.067-1.067c1.067,0,2.133,0,3.2-1.067
		c-1.067-2.133-2.133-3.2-4.267-5.333c0,0,1.067-1.067,2.133-2.133s2.133-1.067,3.2-1.067v-1.067c-1.067,0-3.2-1.067-4.267-1.067
		c-4.267,2.133-7.467,1.067-9.6-2.133c1.067-1.067,2.133-1.067,3.2-2.133c3.2,3.2,6.4-1.067,9.6-1.067
		c0,1.067-1.067,2.133-1.067,4.267c2.133-1.067,4.267-3.2,7.467-1.067c1.067,0,1.067,2.133,1.067,2.133
		c1.067,1.067,3.2,1.067,1.067,3.2c-1.067,1.067,0,3.2,2.133,3.2c1.067,0,3.2-1.067,3.2-2.133c0-1.067,0-2.133,0-3.2
		c-1.067-1.067-2.133-3.2-3.2-4.267c1.067,0,2.133-1.067,2.133-1.067c1.067-1.067,2.133-1.067,2.133-2.133
		c1.067-3.2,2.133-3.2,5.333-3.2c1.067,0,3.2,0,4.267-1.067c2.133-1.067,3.2-3.2,5.333-4.267
		C378.133,39.467,345.067,20.267,306.667,9.6z"/>
</g>
<path style="fill:#F3705A;" d="M363.2,428.8l77.867,77.867c7.467,7.467,19.2,7.467,26.667,0l38.4-38.4
	c7.467-7.467,7.467-19.2,0-26.667l-76.8-78.933L363.2,428.8z"/>
<rect x="392.818" y="356.051" transform="matrix(-0.7071 -0.7071 0.7071 -0.7071 402.3946 971.5775)" style="fill:#F05540;" width="19.2" height="92.799"/>
<rect x="335.413" y="335.147" transform="matrix(-0.7071 0.7071 -0.7071 -0.7071 880.3865 364.2919)" style="fill:#344A5E;" width="58.666" height="58.666"/>
<path style="fill:#415A6B;" d="M354.667,354.133c-59.733,59.733-155.733,59.733-214.4,0c-59.733-59.733-59.733-155.733,0-214.4
	C200,80,296,80,354.667,139.733C413.333,198.4,413.333,294.4,354.667,354.133z M165.867,165.333c-44.8,44.8-44.8,118.4,0,163.2
	s118.4,44.8,163.2,0s44.8-118.4,0-163.2S210.667,120.533,165.867,165.333z"/>
<path style="fill:#F3F3F3;" d="M431.467,365.867L366.4,430.933c-7.467,7.467-19.2,7.467-25.6,0c-7.467-7.467-7.467-19.2,0-25.6
	l65.067-65.067c7.467-7.467,19.2-7.467,25.6,0C438.933,346.667,438.933,358.4,431.467,365.867z"/>
<g>
</g>
<g>
</g>
<g>
</g>
<g>
</g>
<g>
</g>
<g>
</g>
<g>
</g>
<g>
</g>
<g>
</g>
<g>
</g>
<g>
</g>
<g>
</g>
<g>
</g>
<g>
</g>
<g>
</g>
</svg>
