<?xml version="1.0" encoding="iso-8859-1"?>
<!-- Generator: Adobe Illustrator 19.0.0, SVG Export Plug-In . SVG Version: 6.00 Build 0)  -->
<svg version="1.1" id="Capa_1" xmlns="http://www.w3.org/2000/svg" xmlns:xlink="http://www.w3.org/1999/xlink" x="0px" y="0px"
	 viewBox="0 0 512.267 512.267" style="enable-background:new 0 0 512.267 512.267;" xml:space="preserve">
<path style="fill:#E8EAE9;" d="M418.4,60L297.867,188L178.4,143.2l-85.333,88.533c-4.267,4.267-4.267,10.667,0,14.933
	s10.667,4.267,14.933,0l75.733-78.933L304.267,213.6L433.333,74.933C425.867,74.933,419.467,67.467,418.4,60z"/>
<rect x="296.571" y="297.334" transform="matrix(-0.7071 0.7071 -0.7071 -0.7071 828.5443 344.2724)" style="fill:#344A5E;" width="92.799" height="92.799"/>
<path style="fill:#415A6B;" d="M332,332c-75.733,75.733-199.467,75.733-275.2,0s-75.733-199.467,0-275.2s199.467-75.733,275.2,0
	S407.733,256.267,332,332z M87.733,87.733c-58.667,58.667-58.667,153.6,0,212.267s153.6,58.667,212.267,0s58.667-153.6,0-212.267
	S146.4,29.067,87.733,87.733z"/>
<path style="fill:#F3705A;" d="M493.067,493.067L493.067,493.067c-25.6,25.6-67.2,25.6-92.8,0l-85.333-85.333l92.8-92.8
	l85.333,85.333C518.667,425.867,518.667,467.467,493.067,493.067z"/>
<rect x="354.294" y="310.723" transform="matrix(-0.7071 -0.7071 0.7071 -0.7071 376.5783 909.696)" style="fill:#F05540;" width="44.8" height="132.265"/>
<path style="fill:#E8EAE9;" d="M422.667,329.867l-92.8,92.8c-8.533,8.533-22.4,8.533-30.933,0s-8.533-22.4,0-30.933l92.8-92.8
	c8.533-8.533,22.4-8.533,30.933,0C431.2,307.467,431.2,321.333,422.667,329.867z"/>
<circle style="fill:#F3705A;" cx="424.8" cy="66.4" r="33.067"/>
<circle style="fill:#F05540;" cx="424.8" cy="66.4" r="19.2"/>
<circle style="fill:#FFD15C;" cx="302.133" cy="200.8" r="33.067"/>
<circle style="fill:#F7B64C;" cx="302.133" cy="200.8" r="19.2"/>
<circle style="fill:#8AD7F8;" cx="181.6" cy="156" r="33.067"/>
<circle style="fill:#55C0EB;" cx="181.6" cy="156" r="19.2"/>
<g>
</g>
<g>
</g>
<g>
</g>
<g>
</g>
<g>
</g>
<g>
</g>
<g>
</g>
<g>
</g>
<g>
</g>
<g>
</g>
<g>
</g>
<g>
</g>
<g>
</g>
<g>
</g>
<g>
</g>
</svg>
