<?xml version="1.0" encoding="iso-8859-1"?>
<!-- Generator: Adobe Illustrator 19.0.0, SVG Export Plug-In . SVG Version: 6.00 Build 0)  -->
<svg version="1.1" id="Capa_1" xmlns="http://www.w3.org/2000/svg" xmlns:xlink="http://www.w3.org/1999/xlink" x="0px" y="0px"
	 viewBox="0 0 512 512" style="enable-background:new 0 0 512 512;" xml:space="preserve">
<path style="fill:#E8EAE9;" d="M391.467,512H120.533l0,0c0-30.933,25.6-56.533,56.533-56.533h156.8
	C365.867,455.467,391.467,481.067,391.467,512L391.467,512z"/>
<path style="fill:#CED6E0;" d="M248.533,98.133c-12.8,1.067-24.533,6.4-34.133,14.933c-8.533,7.467-21.333,16-41.6,14.933
	c0,0-12.8,1.067-36.267-19.2c0,0-27.733-24.533-52.267-25.6c-13.867,0-25.6,11.733-25.6,25.6s11.733,25.6,25.6,25.6
	c8.533,0,16-4.267,20.267-10.667c7.467,0,20.267,3.2,38.4,14.933c36.267,22.4,92.8-5.333,105.6-12.8V98.133z M84.267,122.667
	c-5.333,0-9.6-4.267-9.6-9.6s4.267-9.6,9.6-9.6c5.333,0,9.6,4.267,9.6,9.6S89.6,122.667,84.267,122.667z"/>
<path style="fill:#415A6B;" d="M90.667,116.267c-2.133-4.267-8.533-4.267-11.733,0L0,268.8
	c2.133,45.867,39.467,82.133,85.333,82.133s83.2-36.267,85.333-82.133L90.667,116.267z M85.333,145.067l64,123.733h-128
	L85.333,145.067z"/>
<path style="fill:#CED6E0;" d="M426.667,84.267c-24.533,0-52.267,25.6-52.267,25.6c-22.4,20.267-36.267,19.2-36.267,19.2
	c-20.267,0-33.067-7.467-41.6-14.933c-9.6-8.533-21.333-13.867-33.067-14.933V128c13.867,7.467,69.333,34.133,104.533,11.733
	C386.133,128,398.933,124.8,406.4,124.8c4.267,6.4,11.733,10.667,20.267,10.667c13.867,0,25.6-11.733,25.6-25.6
	C452.267,94.933,440.533,84.267,426.667,84.267z M426.667,122.667c-5.333,0-9.6-4.267-9.6-9.6s4.267-9.6,9.6-9.6
	c5.333,0,9.6,4.267,9.6,9.6S432,122.667,426.667,122.667z"/>
<path style="fill:#415A6B;" d="M432,116.267c-2.133-4.267-8.533-4.267-11.733,0L341.333,268.8
	c2.133,45.867,39.467,82.133,85.333,82.133s83.2-36.267,85.333-82.133L432,116.267z M426.667,145.067l64,123.733h-128
	L426.667,145.067z"/>
<path style="fill:#CED6E0;" d="M275.2,174.933h-38.4c-6.4,0-10.667-5.333-10.667-10.667l0,0c0-6.4,5.333-10.667,10.667-10.667h38.4
	c6.4,0,10.667,5.333,10.667,10.667l0,0C285.867,170.667,281.6,174.933,275.2,174.933z"/>
<path style="fill:#E8EAE9;" d="M276.267,455.467l4.267-57.6c3.2-56.533,2.133-128-4.267-221.867l0,0h-38.4
	c-6.4,93.867-7.467,166.4-4.267,221.867l4.267,57.6H276.267z"/>
<path style="fill:#CED6E0;" d="M276.267,72.533c0-10.667-8.533-42.667-20.267-42.667s-20.267,32-20.267,42.667
	S245.333,92.8,256,92.8C266.667,92.8,276.267,84.267,276.267,72.533z"/>
<g>
	<path style="fill:#E8EAE9;" d="M292.267,98.133l-17.067,54.4h-37.333l-17.067-54.4c0-9.6,7.467-17.067,17.067-17.067h38.4
		c4.267,0,8.533,2.133,11.733,5.333C290.133,89.6,292.267,93.867,292.267,98.133z"/>
	<circle style="fill:#E8EAE9;" cx="256" cy="20.267" r="20.267"/>
</g>
<path style="fill:#CED6E0;" d="M288,428.8h-64c-7.467,0-13.867,6.4-13.867,13.867l0,0c0,7.467,6.4,13.867,13.867,13.867h64
	c7.467,0,13.867-6.4,13.867-13.867l0,0C300.8,434.133,295.467,428.8,288,428.8z"/>
<g>
</g>
<g>
</g>
<g>
</g>
<g>
</g>
<g>
</g>
<g>
</g>
<g>
</g>
<g>
</g>
<g>
</g>
<g>
</g>
<g>
</g>
<g>
</g>
<g>
</g>
<g>
</g>
<g>
</g>
</svg>
