<?xml version="1.0" encoding="iso-8859-1"?>
<!-- Generator: Adobe Illustrator 19.0.0, SVG Export Plug-In . SVG Version: 6.00 Build 0)  -->
<svg version="1.1" id="Capa_1" xmlns="http://www.w3.org/2000/svg" xmlns:xlink="http://www.w3.org/1999/xlink" x="0px" y="0px"
	 viewBox="0 0 511.733 511.733" style="enable-background:new 0 0 511.733 511.733;" xml:space="preserve">
<rect x="300.914" y="287.643" transform="matrix(-0.7071 -0.7071 0.7071 -0.7071 338.2028 816.7067)" style="fill:#344A5E;" width="74.666" height="101.332"/>
<circle style="fill:#FFFFFF;" cx="196.267" cy="196.267" r="171.733"/>
<path style="fill:#415A6B;" d="M334.933,334.933c-76.8,76.8-200.533,76.8-277.333,0S-19.2,134.4,57.6,57.6s200.533-76.8,277.333,0
	S411.733,258.133,334.933,334.933z M91.733,91.733c-57.6,57.6-57.6,150.4,0,208s150.4,57.6,208,0s57.6-150.4,0-208
	C243.2,35.2,149.333,35.2,91.733,91.733z"/>
<path style="fill:#FFD15C;" d="M185.6,302.933v-19.2c-22.4-3.2-41.6-13.867-60.8-29.867l24.533-28.8
	c13.867,11.733,25.6,19.2,36.267,22.4v-38.4c-18.133-4.267-30.933-10.667-39.467-19.2c-8.533-7.467-12.8-19.2-12.8-34.133
	c0-14.933,5.333-26.667,14.933-36.267c9.6-9.6,22.4-14.933,38.4-17.067V89.6h26.667v12.8c17.067,2.133,34.133,9.6,51.2,21.333
	L243.2,154.667c-10.667-7.467-21.333-12.8-29.867-16V176c18.133,5.333,32,11.733,41.6,19.2c8.533,8.533,13.867,19.2,13.867,34.133
	c0,14.933-5.333,26.667-14.933,36.267c-9.6,9.6-23.467,16-39.467,17.067V300.8h-28.8V302.933z M185.6,138.667
	c-7.467,2.133-10.667,7.467-10.667,13.867c0,6.4,3.2,11.733,10.667,16V138.667z M226.133,232.533c0-3.2-1.067-6.4-3.2-8.533
	c-2.133-2.133-5.333-4.267-10.667-6.4v32C221.867,245.333,226.133,240,226.133,232.533z"/>
<path style="fill:#F3705A;" d="M491.733,491.733L491.733,491.733c-26.667,26.667-70.4,26.667-97.067,0L316.8,413.867l97.067-97.067
	l77.867,77.867C518.4,421.333,518.4,465.067,491.733,491.733z"/>
<path style="fill:#E8EAE9;" d="M426.667,329.6L329.6,426.667c-7.467,7.467-19.2,7.467-25.6,0c-7.467-7.467-7.467-19.2,0-25.6
	L401.067,304c7.467-7.467,19.2-7.467,25.6,0S434.133,322.133,426.667,329.6z"/>
<g>
</g>
<g>
</g>
<g>
</g>
<g>
</g>
<g>
</g>
<g>
</g>
<g>
</g>
<g>
</g>
<g>
</g>
<g>
</g>
<g>
</g>
<g>
</g>
<g>
</g>
<g>
</g>
<g>
</g>
</svg>
