<?xml version="1.0" encoding="iso-8859-1"?>
<!-- Generator: Adobe Illustrator 19.0.0, SVG Export Plug-In . SVG Version: 6.00 Build 0)  -->
<svg version="1.1" id="Capa_1" xmlns="http://www.w3.org/2000/svg" xmlns:xlink="http://www.w3.org/1999/xlink" x="0px" y="0px"
	 viewBox="0 0 512 512" style="enable-background:new 0 0 512 512;" xml:space="preserve">
<polygon style="fill:#415A6B;" points="391.467,413.867 368,300.8 195.2,237.867 22.4,300.8 0,413.867 "/>
<polygon style="fill:#CED6E0;" points="218.667,413.867 250.667,308.267 140.8,308.267 171.733,413.867 "/>
<g>
	<polygon style="fill:#F3705A;" points="209.067,346.667 220.8,333.867 195.2,308.267 169.6,333.867 182.4,346.667 	"/>
	<polygon style="fill:#F3705A;" points="224,413.867 209.067,346.667 182.4,346.667 166.4,413.867 	"/>
</g>
<g>
	<polygon style="fill:#F3F3F3;" points="195.2,308.267 250.667,237.867 264.533,263.467 229.333,346.667 	"/>
	<polygon style="fill:#F3F3F3;" points="195.2,308.267 140.8,237.867 126.933,263.467 162.133,346.667 	"/>
</g>
<polygon style="fill:#F7B64C;" points="140.8,215.467 195.2,145.067 250.667,215.467 250.667,237.867 195.2,308.267 140.8,237.867 
	"/>
<g>
	<polygon style="fill:#344A5E;" points="242.133,413.867 291.2,328.533 268.8,308.267 297.6,294.4 254.933,246.4 214.4,413.867 	"/>
	<polygon style="fill:#344A5E;" points="99.2,328.533 149.333,413.867 176,413.867 135.467,246.4 92.8,294.4 122.667,308.267 	"/>
</g>
<g>
	
		<ellipse transform="matrix(0.1463 -0.9892 0.9892 0.1463 87.8988 404.6831)" style="fill:#FFD15C;" cx="278.418" cy="151.414" rx="30.932" ry="18.133"/>
	
		<ellipse transform="matrix(0.1463 0.9892 -0.9892 0.1463 246.3163 17.8604)" style="fill:#FFD15C;" cx="112.81" cy="151.643" rx="30.932" ry="18.133"/>
</g>
<g>
	<path style="fill:#344A5E;" d="M264.533,99.2c0,54.4-21.333,125.867-82.133,125.867S101.333,153.6,101.333,99.2
		S138.667,0,183.467,0S264.533,43.733,264.533,99.2z"/>
	<path style="fill:#344A5E;" d="M289.067,97.067C289.067,140.8,275.2,198.4,236.8,198.4s-52.267-57.6-52.267-101.333
		s23.467-80,52.267-80S289.067,52.267,289.067,97.067z"/>
</g>
<path style="fill:#FFD15C;" d="M115.2,144c-3.2,61.867,33.067,115.2,80,115.2c48,0,83.2-53.333,80-115.2
	c-1.067-19.2-6.4-37.333-13.867-52.267c-23.467,0-40.533-8.533-51.2-24.533c-21.333,27.733-52.267,48-93.867,61.867
	C117.333,128,115.2,138.667,115.2,144z"/>
<path style="fill:#F3F3F3;" d="M490.667,230.4h-144L284.8,292.267v198.4c0,11.733,9.6,21.333,21.333,21.333h184.533
	C502.4,512,512,502.4,512,490.667V251.733C512,240,502.4,230.4,490.667,230.4z"/>
<rect x="311.467" y="413.867" style="fill:#415A6B;" width="28.8" height="71.467"/>
<rect x="359.467" y="360.533" style="fill:#FFD15C;" width="28.8" height="124.8"/>
<rect x="407.467" y="380.8" style="fill:#55C0EB;" width="28.8" height="104.533"/>
<rect x="455.467" y="324.267" style="fill:#F3705A;" width="28.8" height="161.067"/>
<polygon style="fill:#CED6E0;" points="346.667,230.4 284.8,293.333 346.667,293.333 "/>
<g>
</g>
<g>
</g>
<g>
</g>
<g>
</g>
<g>
</g>
<g>
</g>
<g>
</g>
<g>
</g>
<g>
</g>
<g>
</g>
<g>
</g>
<g>
</g>
<g>
</g>
<g>
</g>
<g>
</g>
</svg>
