<?xml version="1.0" encoding="iso-8859-1"?>
<!-- Generator: Adobe Illustrator 19.0.0, SVG Export Plug-In . SVG Version: 6.00 Build 0)  -->
<svg version="1.1" id="Capa_1" xmlns="http://www.w3.org/2000/svg" xmlns:xlink="http://www.w3.org/1999/xlink" x="0px" y="0px"
	 viewBox="0 0 513.067 513.067" style="enable-background:new 0 0 513.067 513.067;" xml:space="preserve">
<path style="fill:#415A6B;" d="M496,481.6H30.933V16.533c0-8.533-6.4-16-14.933-16S0,8,0,16.533V497.6
	c0,7.467,7.467,14.933,16,14.933h481.067c8.533,0,16-7.467,16-16l0,0C512,488,504.533,481.6,496,481.6z"/>
<rect x="80" y="256.533" style="fill:#FFD15C;" width="62.933" height="180.267"/>
<rect x="80" y="305.6" style="fill:#F7B64C;" width="62.933" height="131.2"/>
<rect x="188.8" y="320.533" style="fill:#F3705A;" width="62.933" height="116.267"/>
<rect x="188.8" y="369.6" style="fill:#F05540;" width="62.933" height="67.2"/>
<rect x="297.6" y="192.533" style="fill:#415A6B;" width="62.933" height="244.267"/>
<rect x="297.6" y="241.6" style="fill:#344A5E;" width="62.933" height="195.2"/>
<rect x="406.4" y="107.2" style="fill:#8AD7F8;" width="62.933" height="329.6"/>
<rect x="406.4" y="156.267" style="fill:#55C0EB;" width="62.933" height="280.533"/>
<g>
</g>
<g>
</g>
<g>
</g>
<g>
</g>
<g>
</g>
<g>
</g>
<g>
</g>
<g>
</g>
<g>
</g>
<g>
</g>
<g>
</g>
<g>
</g>
<g>
</g>
<g>
</g>
<g>
</g>
</svg>
