<?xml version="1.0" encoding="iso-8859-1"?>
<!-- Generator: Adobe Illustrator 19.0.0, SVG Export Plug-In . SVG Version: 6.00 Build 0)  -->
<svg version="1.1" id="Capa_1" xmlns="http://www.w3.org/2000/svg" xmlns:xlink="http://www.w3.org/1999/xlink" x="0px" y="0px"
	 viewBox="0 0 512 512" style="enable-background:new 0 0 512 512;" xml:space="preserve">
<path style="fill:#FFD15C;" d="M309.333,390.4H26.667C11.733,390.4,0,377.6,0,362.667V94.933C0,80,11.733,68.267,26.667,68.267h256
	c14.933,0,26.667,11.733,26.667,26.667V390.4z"/>
<path style="fill:#F3705A;" d="M504.533,217.6l-68.267-68.267c-4.267-4.267-10.667-7.467-17.067-7.467H309.333V390.4h174.933
	C499.2,390.4,512,377.6,512,362.667v-128C512,227.2,509.867,221.867,504.533,217.6z"/>
<path style="fill:#344A5E;" d="M0,343.467v19.2c0,14.933,11.733,26.667,26.667,26.667h457.6c14.933,0,27.733-12.8,27.733-27.733
	v-19.2H0V343.467z"/>
<g>
	<polygon style="fill:#415A6B;" points="475.733,272 475.733,238.933 414.933,177.067 345.6,177.067 345.6,272 	"/>
	<circle style="fill:#415A6B;" cx="130.133" cy="377.6" r="66.133"/>
</g>
<circle style="fill:#E8EAE9;" cx="130.133" cy="377.6" r="32"/>
<circle style="fill:#415A6B;" cx="398.933" cy="377.6" r="66.133"/>
<circle style="fill:#E8EAE9;" cx="398.933" cy="377.6" r="32"/>
<g>
	<path style="fill:#F7B64C;" d="M67.2,113.067L67.2,113.067c-12.8,0-23.467,10.667-23.467,23.467v137.6
		c0,12.8,10.667,23.467,23.467,23.467l0,0c12.8,0,23.467-10.667,23.467-23.467v-137.6C89.6,123.733,80,113.067,67.2,113.067z"/>
	<path style="fill:#F7B64C;" d="M153.6,113.067L153.6,113.067c-12.8,0-23.467,10.667-23.467,23.467v137.6
		c0,12.8,10.667,23.467,23.467,23.467l0,0c12.8,0,23.467-10.667,23.467-23.467v-137.6C176,123.733,166.4,113.067,153.6,113.067z"/>
	<path style="fill:#F7B64C;" d="M240,113.067L240,113.067c-12.8,0-23.467,10.667-23.467,23.467v137.6
		c0,12.8,10.667,23.467,23.467,23.467l0,0c12.8,0,23.467-10.667,23.467-23.467v-137.6C262.4,123.733,252.8,113.067,240,113.067z"/>
</g>
<g>
</g>
<g>
</g>
<g>
</g>
<g>
</g>
<g>
</g>
<g>
</g>
<g>
</g>
<g>
</g>
<g>
</g>
<g>
</g>
<g>
</g>
<g>
</g>
<g>
</g>
<g>
</g>
<g>
</g>
</svg>
