<?xml version="1.0" encoding="iso-8859-1"?>
<!-- Generator: Adobe Illustrator 19.0.0, SVG Export Plug-In . SVG Version: 6.00 Build 0)  -->
<svg version="1.1" id="Capa_1" xmlns="http://www.w3.org/2000/svg" xmlns:xlink="http://www.w3.org/1999/xlink" x="0px" y="0px"
	 viewBox="0 0 512 512" style="enable-background:new 0 0 512 512;" xml:space="preserve">
<polygon style="fill:#F05540;" points="405.333,480 342.4,455.467 306.133,512 213.333,227.2 312.533,194.133 "/>
<polygon style="fill:#F3705A;" points="106.667,480 169.6,455.467 205.867,512 298.667,227.2 199.467,194.133 "/>
<path style="fill:#FFD15C;" d="M433.067,177.067c0,14.933-25.6,25.6-28.8,39.467C400,230.4,417.067,252.8,409.6,265.6
	c-7.467,12.8-34.133,9.6-44.8,20.267c-10.667,10.667-7.467,37.333-20.267,44.8c-12.8,7.467-34.133-8.533-49.067-5.333
	c-13.867,3.2-24.533,28.8-39.467,28.8c-14.933,0-25.6-25.6-39.467-28.8c-13.867-4.267-36.267,12.8-49.067,5.333
	s-9.6-34.133-20.267-44.8c-10.667-10.667-37.333-7.467-44.8-20.267c-7.467-12.8,8.533-34.133,5.333-49.067
	c-3.2-13.867-28.8-24.533-28.8-39.467c0-14.933,25.6-25.6,28.8-39.467c4.267-13.867-12.8-36.267-5.333-49.067
	c7.467-12.8,34.133-9.6,44.8-20.267c10.667-10.667,7.467-37.333,20.267-44.8S201.6,32,216.533,28.8C230.4,25.6,241.067,0,256,0
	c14.933,0,25.6,25.6,39.467,28.8c13.867,4.267,36.267-12.8,49.067-5.333s9.6,34.133,20.267,44.8
	c10.667,10.667,37.333,7.467,44.8,20.267s-8.533,34.133-5.333,49.067C407.467,150.4,433.067,162.133,433.067,177.067z"/>
<circle style="fill:#F7B64C;" cx="256" cy="177.067" r="106.667"/>
<path style="fill:#FFD15C;" d="M221.867,112h52.267v129.067H246.4V136.533h-24.533V112z"/>
<g>
</g>
<g>
</g>
<g>
</g>
<g>
</g>
<g>
</g>
<g>
</g>
<g>
</g>
<g>
</g>
<g>
</g>
<g>
</g>
<g>
</g>
<g>
</g>
<g>
</g>
<g>
</g>
<g>
</g>
</svg>
