<?xml version="1.0" encoding="iso-8859-1"?>
<!-- Generator: Adobe Illustrator 19.0.0, SVG Export Plug-In . SVG Version: 6.00 Build 0)  -->
<svg version="1.1" id="Capa_1" xmlns="http://www.w3.org/2000/svg" xmlns:xlink="http://www.w3.org/1999/xlink" x="0px" y="0px"
	 viewBox="0 0 512 512" style="enable-background:new 0 0 512 512;" xml:space="preserve">
<g>
	<ellipse style="fill:#344A5E;" cx="206.933" cy="139.733" rx="67.2" ry="112"/>
	<ellipse style="fill:#344A5E;" cx="264.533" cy="140.8" rx="109.867" ry="129.067"/>
</g>
<path style="fill:#415A6B;" d="M491.733,512c-4.267-45.867-14.933-112-34.133-132.267c-35.2-38.4-150.4-39.467-201.6-39.467
	s-166.4,1.067-201.6,39.467C35.2,401.067,25.6,466.133,20.267,512H491.733z"/>
<path style="fill:#F7B64C;" d="M315.733,277.333L314.667,304C297.6,345.6,278.4,352,256,376.533
	C233.6,352,215.467,345.6,197.333,304v-26.667c16-43.733,39.467-72.533,58.667-96C276.267,204.8,298.667,233.6,315.733,277.333z"/>
<g>
	<polygon style="fill:#F3F3F3;" points="315.733,295.467 257.067,376.533 301.867,422.4 337.067,332.8 	"/>
	<polygon style="fill:#F3F3F3;" points="197.333,295.467 257.067,376.533 211.2,422.4 176,332.8 	"/>
</g>
<path style="fill:#FFD15C;" d="M229.333,98.133c19.2,25.6,50.133,42.667,92.8,42.667c9.6,0,18.133-1.067,25.6-2.133
	c5.333,16,9.6,33.067,9.6,52.267c0,69.333-44.8,124.8-101.333,124.8c-55.467,0-101.333-55.467-101.333-124.8
	c0-26.667,7.467-51.2,19.2-72.533C196.267,116.267,214.4,108.8,229.333,98.133z"/>
<g>
	<circle style="fill:#344A5E;" cx="256" cy="425.6" r="11.733"/>
	<circle style="fill:#344A5E;" cx="256" cy="482.133" r="11.733"/>
</g>
<g>
	<path style="fill:#F3705A;" d="M397.867,163.2H380.8v-22.4c0-67.2-55.467-122.667-122.667-122.667S135.467,73.6,135.467,140.8v22.4
		h-18.133v-22.4c0-77.867,62.933-140.8,140.8-140.8c76.8,0,139.733,62.933,139.733,139.733L397.867,163.2L397.867,163.2z"/>
	<path style="fill:#F3705A;" d="M141.867,133.333v75.733c-21.333,0-38.4-17.067-38.4-37.333
		C104.533,149.333,121.6,133.333,141.867,133.333z"/>
	<path style="fill:#F3705A;" d="M370.133,133.333v75.733c21.333,0,38.4-17.067,38.4-37.333
		C407.467,149.333,390.4,133.333,370.133,133.333z"/>
	<path style="fill:#F3705A;" d="M151.467,218.667c-5.333,0-9.6-4.267-9.6-9.6v-75.733c0-5.333,4.267-9.6,9.6-9.6
		c5.333,0,9.6,4.267,9.6,9.6v75.733C161.067,214.4,156.8,218.667,151.467,218.667z"/>
	<path style="fill:#F3705A;" d="M360.533,218.667c-5.333,0-9.6-4.267-9.6-9.6v-75.733c0-5.333,4.267-9.6,9.6-9.6s9.6,4.267,9.6,9.6
		v75.733C371.2,214.4,366.933,218.667,360.533,218.667z"/>
</g>
<path style="fill:none;stroke:#F3705A;stroke-miterlimit:10;" d="M380.8,193.067L380.8,193.067c0,38.4-25.6,70.4-62.933,80
	L257.067,288"/>
<ellipse style="fill:#F3705A;" cx="257.067" cy="284.8" rx="20.267" ry="14.933"/>
<g>
</g>
<g>
</g>
<g>
</g>
<g>
</g>
<g>
</g>
<g>
</g>
<g>
</g>
<g>
</g>
<g>
</g>
<g>
</g>
<g>
</g>
<g>
</g>
<g>
</g>
<g>
</g>
<g>
</g>
</svg>
