<?xml version="1.0" encoding="iso-8859-1"?>
<!-- Generator: Adobe Illustrator 19.0.0, SVG Export Plug-In . SVG Version: 6.00 Build 0)  -->
<svg version="1.1" id="Capa_1" xmlns="http://www.w3.org/2000/svg" xmlns:xlink="http://www.w3.org/1999/xlink" x="0px" y="0px"
	 viewBox="0 0 512 512" style="enable-background:new 0 0 512 512;" xml:space="preserve">
<path style="fill:#FFD15C;" d="M469.333,0H42.667C19.2,0,0,19.2,0,42.667v426.667C0,492.8,19.2,512,42.667,512h426.667
	C492.8,512,512,492.8,512,469.333V42.667C512,19.2,492.8,0,469.333,0z"/>
<rect x="188.8" style="fill:#F7B64C;" width="133.333" height="113.067"/>
<rect x="102.4" y="256" style="fill:#FFFFFF;" width="307.2" height="186.667"/>
<g>
	<rect x="154.667" y="274.133" style="fill:#415A6B;" width="10.667" height="149.333"/>
	<rect x="121.6" y="274.133" style="fill:#415A6B;" width="24.533" height="149.333"/>
	<rect x="172.8" y="274.133" style="fill:#415A6B;" width="30.933" height="149.333"/>
	<rect x="213.333" y="274.133" style="fill:#415A6B;" width="17.067" height="149.333"/>
	<rect x="276.267" y="274.133" style="fill:#415A6B;" width="10.667" height="149.333"/>
	<rect x="242.133" y="274.133" style="fill:#415A6B;" width="24.533" height="149.333"/>
	<rect x="327.467" y="274.133" style="fill:#415A6B;" width="10.667" height="149.333"/>
	<rect x="294.4" y="274.133" style="fill:#415A6B;" width="24.533" height="149.333"/>
	<rect x="374.4" y="274.133" style="fill:#415A6B;" width="17.067" height="149.333"/>
	<rect x="348.8" y="274.133" style="fill:#415A6B;" width="10.667" height="149.333"/>
</g>
<g>
</g>
<g>
</g>
<g>
</g>
<g>
</g>
<g>
</g>
<g>
</g>
<g>
</g>
<g>
</g>
<g>
</g>
<g>
</g>
<g>
</g>
<g>
</g>
<g>
</g>
<g>
</g>
<g>
</g>
</svg>
