<?xml version="1.0" encoding="iso-8859-1"?>
<!-- Generator: Adobe Illustrator 19.0.0, SVG Export Plug-In . SVG Version: 6.00 Build 0)  -->
<svg version="1.1" id="Capa_1" xmlns="http://www.w3.org/2000/svg" xmlns:xlink="http://www.w3.org/1999/xlink" x="0px" y="0px"
	 viewBox="0 0 512.151 512.151" style="enable-background:new 0 0 512.151 512.151;" xml:space="preserve">
<path style="fill:#F3F3F3;" d="M410.667,512.075H128l-128-128v-352c0-18.133,13.867-32,32-32h378.667c18.133,0,32,13.867,32,32v448
	C442.667,498.209,427.733,512.075,410.667,512.075z"/>
<g>
	<rect x="53.333" y="259.275" style="fill:#CED6E0;" width="336" height="27.733"/>
	<rect x="53.333" y="331.809" style="fill:#CED6E0;" width="137.6" height="27.733"/>
	<polygon style="fill:#CED6E0;" points="128,512.075 0,384.075 128,384.075 	"/>
</g>
<g>
	<path style="fill:#8AD7F8;" d="M298.667,215.542c-1.067-41.6-36.267-74.667-77.867-74.667s-76.8,33.067-77.867,74.667H298.667z"/>
	<circle style="fill:#8AD7F8;" cx="220.8" cy="89.675" r="36.267"/>
</g>
<path style="fill:#FFD15C;" d="M261.333,267.809l-52.267,78.933l93.867,10.667C364.8,327.542,323.2,237.942,261.333,267.809z"/>
<path style="fill:#415A6B;" d="M510.933,242.209l-28.8-60.8c-4.267-8.533-12.8-11.733-21.333-7.467l-41.6,19.2l41.6,89.6l41.6-19.2
	C510.933,259.275,514.133,249.675,510.933,242.209z"/>
<rect x="423.209" y="192.297" transform="matrix(-0.9059 0.4234 -0.4234 -0.9059 925.0685 277.214)" style="fill:#E8EAE9;" width="17.066" height="98.13"/>
<path style="fill:#415A6B;" d="M227.2,319.009l-18.133,27.733l32,3.2C242.133,338.209,236.8,325.409,227.2,319.009z"/>
<path style="fill:#F3705A;" d="M302.933,356.342c12.8-18.133,7.467-27.733-13.867-29.867c12.8-18.133,7.467-27.733-13.867-29.867
	c12.8-18.133,7.467-27.733-13.867-29.867l142.933-67.2l41.6,89.6L302.933,356.342z"/>
<g>
</g>
<g>
</g>
<g>
</g>
<g>
</g>
<g>
</g>
<g>
</g>
<g>
</g>
<g>
</g>
<g>
</g>
<g>
</g>
<g>
</g>
<g>
</g>
<g>
</g>
<g>
</g>
<g>
</g>
</svg>
