<?xml version="1.0" encoding="iso-8859-1"?>
<!-- Generator: Adobe Illustrator 19.0.0, SVG Export Plug-In . SVG Version: 6.00 Build 0)  -->
<svg version="1.1" id="Capa_1" xmlns="http://www.w3.org/2000/svg" xmlns:xlink="http://www.w3.org/1999/xlink" x="0px" y="0px"
	 viewBox="0 0 512 512" style="enable-background:new 0 0 512 512;" xml:space="preserve">
<g>
	
		<ellipse transform="matrix(0.1029 -0.9947 0.9947 0.1029 223.9103 602.2697)" style="fill:#FFD15C;" cx="445.849" cy="177.001" rx="16" ry="9.6"/>
	
		<ellipse transform="matrix(0.1029 0.9947 -0.9947 0.1029 494.7598 -195.6164)" style="fill:#FFD15C;" cx="355.828" cy="176.483" rx="16" ry="9.6"/>
</g>
<g>
	<ellipse style="fill:#344A5E;" cx="380.8" cy="152.533" rx="27.733" ry="50.133"/>
	<ellipse style="fill:#344A5E;" cx="404.267" cy="152.533" rx="45.867" ry="58.667"/>
</g>
<path style="fill:#415A6B;" d="M512,337.067H290.133c0,0,3.2-68.267,17.067-84.267c17.067-18.133,69.333-18.133,93.867-18.133
	c23.467,0,76.8,0,93.867,18.133C508.8,268.8,512,337.067,512,337.067z"/>
<path style="fill:#F7B64C;" d="M425.6,209.067v10.667c-7.467,17.067-14.933,25.6-23.467,35.2c-8.533-9.6-16-18.133-23.467-35.2
	v-10.667c5.333-18.133,14.933-28.8,22.4-38.4C409.6,180.267,418.133,190.933,425.6,209.067z"/>
<polygon style="fill:#FFFFFF;" points="401.067,337.067 380.8,304 379.733,249.6 421.333,249.6 420.267,304 "/>
<g>
	<path style="fill:#F3705A;" d="M407.467,269.867l6.4-6.4c0,0-8.533-13.867-13.867-13.867c-5.333,0-13.867,13.867-13.867,13.867
		l6.4,6.4H407.467z"/>
	<polygon style="fill:#F3705A;" points="393.6,269.867 387.2,313.6 401.067,337.067 413.867,313.6 407.467,269.867 	"/>
</g>
<g>
	<polygon style="fill:#F3F3F3;" points="425.6,216.533 401.067,249.6 419.2,268.8 434.133,231.467 	"/>
	<polygon style="fill:#F3F3F3;" points="377.6,216.533 401.067,249.6 382.933,268.8 368,231.467 	"/>
</g>
<g>
	<polygon style="fill:#344A5E;" points="428.8,222.933 459.733,256 433.067,262.4 449.067,277.333 401.067,337.067 	"/>
	<polygon style="fill:#344A5E;" points="373.333,222.933 342.4,256 370.133,262.4 353.067,277.333 401.067,337.067 	"/>
</g>
<g>
	<path style="fill:#FFD15C;" d="M402.133,144c-14.933,0-26.667-5.333-35.2-12.8c-6.4,9.6-10.667,23.467-10.667,37.333
		c0,30.933,20.267,56.533,44.8,56.533s44.8-25.6,44.8-56.533c0-13.867-4.267-26.667-10.667-36.267
		C427.733,139.733,416,144,402.133,144z"/>
	
		<ellipse transform="matrix(0.1029 -0.9947 0.9947 0.1029 -35.515 314.8235)" style="fill:#FFD15C;" cx="156.778" cy="177.101" rx="16" ry="9.6"/>
	
		<ellipse transform="matrix(0.1029 0.9947 -0.9947 0.1029 234.8242 92.5776)" style="fill:#FFD15C;" cx="66.088" cy="176.474" rx="16" ry="9.6"/>
</g>
<g>
	<path style="fill:#344A5E;" d="M118.4,153.6c0,27.733-12.8,49.067-28.8,49.067S60.8,181.333,59.733,153.6
		c0-27.733,12.8-51.2,29.867-51.2S119.467,125.867,118.4,153.6z"/>
	<path style="fill:#344A5E;" d="M162.133,154.667c-1.067,32-22.4,56.533-48,56.533S67.2,186.667,67.2,154.667
		c-1.067-32,20.267-59.733,46.933-59.733S163.2,122.667,162.133,154.667z"/>
</g>
<path style="fill:#415A6B;" d="M221.867,337.067H0c0,0,3.2-68.267,17.067-84.267c17.067-18.133,69.333-18.133,93.867-18.133
	s76.8,0,93.867,18.133C218.667,268.8,221.867,337.067,221.867,337.067z"/>
<path style="fill:#F7B64C;" d="M135.467,209.067v10.667c-7.467,17.067-14.933,25.6-23.467,35.2c-8.533-9.6-16-18.133-23.467-35.2
	v-10.667c5.333-18.133,14.933-28.8,22.4-38.4C119.467,180.267,129.067,190.933,135.467,209.067z"/>
<polygon style="fill:#FFFFFF;" points="110.933,337.067 91.733,304 89.6,249.6 132.267,249.6 130.133,304 "/>
<g>
	<path style="fill:#F3705A;" d="M118.4,269.867l6.4-6.4c0,0-8.533-13.867-13.867-13.867s-13.867,13.867-13.867,13.867l6.4,6.4H118.4
		z"/>
	<polygon style="fill:#F3705A;" points="103.467,269.867 97.067,313.6 110.933,337.067 124.8,313.6 118.4,269.867 	"/>
</g>
<g>
	<polygon style="fill:#F3F3F3;" points="135.467,216.533 110.933,249.6 130.133,268.8 144,231.467 	"/>
	<polygon style="fill:#F3F3F3;" points="87.467,216.533 110.933,249.6 92.8,268.8 78.933,231.467 	"/>
</g>
<g>
	<polygon style="fill:#344A5E;" points="138.667,222.933 169.6,256 142.933,262.4 158.933,277.333 110.933,337.067 	"/>
	<polygon style="fill:#344A5E;" points="83.2,222.933 53.333,256 80,262.4 62.933,277.333 110.933,337.067 	"/>
</g>
<path style="fill:#FFD15C;" d="M152.533,142.933c-2.133,0-5.333,0-7.467,0c-17.067,0-32-4.267-43.733-11.733
	c-8.533,8.533-19.2,14.933-32,19.2c-1.067,5.333-2.133,10.667-2.133,16c0,33.067,20.267,59.733,44.8,59.733s44.8-26.667,44.8-59.733
	C155.733,157.867,154.667,150.4,152.533,142.933z"/>
<circle style="fill:#F3705A;" cx="256" cy="170.667" r="70.4"/>
<path style="fill:#66C6B9;" d="M394.667,418.133c-2.133-26.667-8.533-69.333-20.267-83.2c-21.333-22.4-88.533-23.467-118.4-23.467
	c-29.867,0-98.133,1.067-118.4,23.467c-11.733,12.8-18.133,55.467-20.267,83.2H394.667z"/>
<path style="fill:#F7B64C;" d="M291.2,275.2v16c-10.667,24.533-21.333,27.733-34.133,42.667
	C244.267,320,233.6,315.733,222.933,291.2v-16c9.6-25.6,23.467-42.667,34.133-56.533C267.733,232.533,281.6,249.6,291.2,275.2z"/>
<g>
	<polygon style="fill:#F3F3F3;" points="291.2,285.867 256,333.867 282.667,360.533 304,307.2 	"/>
	<polygon style="fill:#F3F3F3;" points="221.867,285.867 256,333.867 229.333,360.533 209.067,307.2 	"/>
</g>
<g>
	<circle style="fill:#4ABAA5;" cx="256" cy="362.667" r="6.4"/>
	<circle style="fill:#4ABAA5;" cx="256" cy="395.733" r="6.4"/>
</g>
<ellipse style="fill:#FFD15C;" cx="256" cy="220.8" rx="56.533" ry="73.6"/>
<g>
	<path style="fill:#F3705A;" d="M178.133,405.333c-6.4-21.333,5.333-42.667,18.133-60.8C209.067,326.4,224,308.267,224,285.867
		c0-14.933-8.533-29.867-11.733-44.8c-8.533-32,2.133-69.333,27.733-90.667c1.067-6.4,0-16-2.133-22.4
		c-2.133-6.4-6.4-12.8-12.8-13.867c-9.6-2.133-17.067,5.333-22.4,12.8c-14.933,19.2-27.733,41.6-34.133,65.067
		c-6.4,23.467-7.467,49.067,0,72.533c4.267,14.933,12.8,30.933,9.6,45.867c-1.067,6.4-4.267,12.8-8.533,18.133
		c-7.467,10.667-11.733,22.4-12.8,35.2C154.667,386.133,164.267,396.8,178.133,405.333z"/>
	<path style="fill:#F3705A;" d="M333.867,405.333c6.4-21.333-5.333-42.667-18.133-60.8S288,308.267,288,285.867
		c0-14.933,8.533-29.867,11.733-44.8c8.533-32-1.067-94.933-59.733-92.8c-1.067-6.4,32-13.867,34.133-20.267
		c2.133-6.4,6.4-12.8,12.8-13.867c9.6-2.133,17.067,5.333,22.4,12.8c14.933,19.2,27.733,41.6,34.133,65.067
		c6.4,23.467,7.467,49.067,0,72.533c-4.267,14.933-12.8,30.933-9.6,45.867c1.067,6.4,4.267,12.8,8.533,18.133
		c7.467,10.667,11.733,22.4,12.8,35.2C357.333,386.133,347.733,396.8,333.867,405.333z"/>
</g>
<g>
</g>
<g>
</g>
<g>
</g>
<g>
</g>
<g>
</g>
<g>
</g>
<g>
</g>
<g>
</g>
<g>
</g>
<g>
</g>
<g>
</g>
<g>
</g>
<g>
</g>
<g>
</g>
<g>
</g>
</svg>
