<?xml version="1.0" encoding="iso-8859-1"?>
<!-- Generator: Adobe Illustrator 19.0.0, SVG Export Plug-In . SVG Version: 6.00 Build 0)  -->
<svg version="1.1" id="Capa_1" xmlns="http://www.w3.org/2000/svg" xmlns:xlink="http://www.w3.org/1999/xlink" x="0px" y="0px"
	 viewBox="0 0 512 512" style="enable-background:new 0 0 512 512;" xml:space="preserve">
<circle style="fill:#344A5E;" cx="256" cy="256" r="256"/>
<circle style="fill:#FFFFFF;" cx="256" cy="256" r="205.867"/>
<path style="fill:#FFD15C;" d="M345.6,267.733H256c-6.4,0-11.733-5.333-11.733-11.733c0-6.4,5.333-11.733,11.733-11.733h89.6
	c6.4,0,11.733,5.333,11.733,11.733C357.333,262.4,352,267.733,345.6,267.733z"/>
<path style="fill:#F3705A;" d="M256,267.733c-6.4,0-11.733-5.333-11.733-11.733V123.733c0-6.4,5.333-11.733,11.733-11.733
	c6.4,0,11.733,5.333,11.733,11.733V256C267.733,262.4,262.4,267.733,256,267.733z"/>
<circle style="fill:#8AD7F8;" cx="256" cy="256" r="34.133"/>
<circle style="fill:#55C0EB;" cx="256" cy="256" r="19.2"/>
<g>
	<circle style="fill:#E8EAE9;" cx="256" cy="83.2" r="13.867"/>
	<circle style="fill:#E8EAE9;" cx="134.4" cy="134.4" r="13.867"/>
	<circle style="fill:#E8EAE9;" cx="83.2" cy="256" r="13.867"/>
	<circle style="fill:#E8EAE9;" cx="134.4" cy="377.6" r="13.867"/>
	<circle style="fill:#E8EAE9;" cx="256" cy="428.8" r="13.867"/>
	<circle style="fill:#E8EAE9;" cx="377.6" cy="377.6" r="13.867"/>
	<circle style="fill:#E8EAE9;" cx="428.8" cy="256" r="13.867"/>
	<circle style="fill:#E8EAE9;" cx="377.6" cy="134.4" r="13.867"/>
</g>
<g>
</g>
<g>
</g>
<g>
</g>
<g>
</g>
<g>
</g>
<g>
</g>
<g>
</g>
<g>
</g>
<g>
</g>
<g>
</g>
<g>
</g>
<g>
</g>
<g>
</g>
<g>
</g>
<g>
</g>
</svg>
