<?xml version="1.0" encoding="iso-8859-1"?>
<!-- Generator: Adobe Illustrator 19.0.0, SVG Export Plug-In . SVG Version: 6.00 Build 0)  -->
<svg version="1.1" id="Capa_1" xmlns="http://www.w3.org/2000/svg" xmlns:xlink="http://www.w3.org/1999/xlink" x="0px" y="0px"
	 viewBox="0 0 512 512" style="enable-background:new 0 0 512 512;" xml:space="preserve">
<path style="fill:#E8EAE9;" d="M402.133,285.867l-116.267,115.2L378.667,176c-6.4-3.2-12.8-6.4-18.133-11.733l-93.867,227.2V118.4
	c-7.467,0-13.867,0-21.333-1.067v275.2L150.4,166.4c-5.333,2.133-10.667,5.333-16,6.4c-1.067,0-2.133,1.067-3.2,1.067l94.933,227.2
	L100.267,275.2c-4.267,5.333-9.6,10.667-16,14.933l135.467,134.4h73.6L416,301.867C410.667,297.6,405.333,291.2,402.133,285.867z"/>
<g>
	
		<ellipse transform="matrix(0.1029 0.9947 -0.9947 0.1029 467.2076 97.1217)" style="fill:#FFD15C;" cx="179.76" cy="307.577" rx="27.734" ry="16"/>
	
		<ellipse transform="matrix(0.1029 -0.9947 0.9947 0.1029 -6.9295 606.6066)" style="fill:#FFD15C;" cx="332.833" cy="307.145" rx="27.734" ry="16"/>
</g>
<path style="fill:#415A6B;" d="M177.067,293.333c-4.267-16-5.333-34.133-3.2-53.333c2.133-20.267,9.6-41.6,24.533-56.533
	c16-17.067,40.533-25.6,64-20.267c5.333,1.067,9.6,3.2,13.867,6.4s7.467,7.467,8.533,9.6c5.333-4.267,20.267-4.267,28.8,2.133
	c8.533,5.333,40.533,25.6,24.533,118.4C318.933,375.467,200.533,375.467,177.067,293.333z"/>
<path style="fill:#344A5E;" d="M438.4,512c-4.267-29.867-11.733-58.667-22.4-70.4c-27.733-30.933-119.467-32-160-32
	s-131.2,1.067-160,32c-10.667,11.733-18.133,41.6-22.4,70.4H438.4z"/>
<path style="fill:#F7B64C;" d="M297.6,365.867v19.2c-11.733,28.8-25.6,43.733-40.533,60.8c-14.933-17.067-27.733-32-40.533-60.8
	v-19.2c11.733-30.933,27.733-50.133,40.533-67.2C269.867,315.733,285.867,336,297.6,365.867z"/>
<polygon style="fill:#FFFFFF;" points="289.067,512 291.2,435.2 219.733,435.2 221.867,512 "/>
<g>
	<path style="fill:#F3705A;" d="M267.733,469.333l10.667-10.667c0,0-14.933-23.467-23.467-23.467s-23.467,23.467-23.467,23.467
		l10.667,10.667H267.733z"/>
	<polygon style="fill:#F3705A;" points="274.133,512 267.733,469.333 243.2,469.333 236.8,512 	"/>
</g>
<g>
	<polygon style="fill:#F3F3F3;" points="297.6,378.667 256,435.2 288,467.2 312.533,405.333 	"/>
	<polygon style="fill:#F3F3F3;" points="215.467,378.667 256,435.2 225.067,467.2 200.533,405.333 	"/>
</g>
<g>
	<polygon style="fill:#415A6B;" points="314.667,512 338.133,483.2 310.4,456.533 356.267,444.8 304,390.4 274.133,512 	"/>
	<polygon style="fill:#415A6B;" points="173.867,483.2 197.333,512 238.933,512 209.067,390.4 156.8,444.8 202.667,456.533 	"/>
</g>
<path style="fill:#FFD15C;" d="M243.2,228.267c13.867,20.267,30.933,25.6,61.867,25.6c6.4,0,12.8-1.067,19.2-2.133
	c4.267,12.8,6.4,26.667,6.4,41.6c0,54.4-33.067,99.2-74.667,99.2s-74.667-44.8-74.667-99.2C182.4,272,231.467,236.8,243.2,228.267z"
	/>
<circle style="fill:#F3705A;" cx="256" cy="65.067" r="65.067"/>
<path style="fill:#F05540;" d="M256,104.533c-21.333,0-39.467-18.133-39.467-39.467s18.133-38.4,39.467-38.4
	s39.467,18.133,39.467,39.467S277.333,104.533,256,104.533z"/>
<circle style="fill:#FFD15C;" cx="121.6" cy="121.6" r="65.067"/>
<circle style="fill:#F7B64C;" cx="121.6" cy="121.6" r="39.467"/>
<circle style="fill:#8AD7F8;" cx="65.067" cy="256" r="65.067"/>
<path style="fill:#55C0EB;" d="M104.533,256c0,21.333-18.133,39.467-39.467,39.467s-38.4-18.133-38.4-39.467
	s18.133-39.467,39.467-39.467S104.533,234.667,104.533,256z"/>
<circle style="fill:#F3705A;" cx="446.933" cy="256" r="65.067"/>
<path style="fill:#F05540;" d="M407.467,256c0-21.333,18.133-39.467,39.467-39.467c21.333,0,39.467,18.133,39.467,39.467
	s-18.133,39.467-39.467,39.467C424.533,295.467,407.467,277.333,407.467,256z"/>
<circle style="fill:#66C6B9;" cx="390.4" cy="121.6" r="65.067"/>
<circle style="fill:#4ABAA5;" cx="390.4" cy="121.6" r="39.467"/>
<g>
</g>
<g>
</g>
<g>
</g>
<g>
</g>
<g>
</g>
<g>
</g>
<g>
</g>
<g>
</g>
<g>
</g>
<g>
</g>
<g>
</g>
<g>
</g>
<g>
</g>
<g>
</g>
<g>
</g>
</svg>
