<?xml version="1.0" encoding="iso-8859-1"?>
<!-- Generator: Adobe Illustrator 19.0.0, SVG Export Plug-In . SVG Version: 6.00 Build 0)  -->
<svg version="1.1" id="Capa_1" xmlns="http://www.w3.org/2000/svg" xmlns:xlink="http://www.w3.org/1999/xlink" x="0px" y="0px"
	 viewBox="0 0 512 512" style="enable-background:new 0 0 512 512;" xml:space="preserve">
<path style="fill:#F3F3F3;" d="M404.267,102.4v276.267c0,13.867-11.733,25.6-25.6,25.6H25.6c-13.867,0-25.6-11.733-25.6-25.6V102.4
	H404.267z"/>
<path style="fill:#8AD7F8;" d="M404.267,102.4V25.6c0-13.867-11.733-25.6-25.6-25.6H25.6C11.733,0,0,11.733,0,25.6v77.867h404.267
	V102.4z"/>
<g>
	<circle style="fill:#FFFFFF;" cx="76.8" cy="51.2" r="22.4"/>
	<circle style="fill:#FFFFFF;" cx="327.467" cy="51.2" r="22.4"/>
</g>
<path style="fill:#415A6B;" d="M314.667,64h-224C83.2,64,76.8,58.667,76.8,51.2l0,0c0-7.467,5.333-12.8,12.8-12.8h224
	c7.467,0,12.8,5.333,12.8,12.8l0,0C327.467,58.667,321.067,64,314.667,64z"/>
<g>
	<rect x="126.933" y="136.533" style="fill:#CED6E0;" width="58.667" height="57.6"/>
	<rect x="219.733" y="136.533" style="fill:#CED6E0;" width="58.667" height="57.6"/>
	<rect x="312.533" y="136.533" style="fill:#CED6E0;" width="58.667" height="57.6"/>
	<rect x="34.133" y="225.067" style="fill:#CED6E0;" width="58.667" height="57.6"/>
	<rect x="126.933" y="225.067" style="fill:#CED6E0;" width="58.667" height="57.6"/>
	<rect x="219.733" y="225.067" style="fill:#CED6E0;" width="58.667" height="57.6"/>
	<rect x="312.533" y="225.067" style="fill:#CED6E0;" width="58.667" height="57.6"/>
	<rect x="34.133" y="312.533" style="fill:#CED6E0;" width="58.667" height="57.6"/>
	<rect x="126.933" y="312.533" style="fill:#CED6E0;" width="58.667" height="57.6"/>
</g>
<circle style="fill:#F3705A;" cx="348.8" cy="348.8" r="163.2"/>
<circle style="fill:#FFFFFF;" cx="348.8" cy="348.8" r="126.933"/>
<g>
	<circle style="fill:#E8EAE9;" cx="348.8" cy="245.333" r="8.533"/>
	<circle style="fill:#E8EAE9;" cx="275.2" cy="275.2" r="8.533"/>
	<circle style="fill:#E8EAE9;" cx="245.333" cy="348.8" r="8.533"/>
	<circle style="fill:#E8EAE9;" cx="275.2" cy="421.333" r="8.533"/>
	<circle style="fill:#E8EAE9;" cx="348.8" cy="451.2" r="8.533"/>
	<circle style="fill:#E8EAE9;" cx="421.333" cy="421.333" r="8.533"/>
	<circle style="fill:#E8EAE9;" cx="451.2" cy="348.8" r="8.533"/>
	<circle style="fill:#E8EAE9;" cx="421.333" cy="275.2" r="8.533"/>
</g>
<path style="fill:#415A6B;" d="M391.467,357.333H348.8c-5.333,0-9.6-4.267-9.6-9.6v-70.4c0-5.333,4.267-9.6,9.6-9.6
	s9.6,4.267,9.6,9.6v60.8h34.133c5.333,0,9.6,4.267,9.6,9.6C401.067,353.067,396.8,357.333,391.467,357.333z"/>
<circle style="fill:#FFD15C;" cx="348.8" cy="348.8" r="24.533"/>
<circle style="fill:#F7B64C;" cx="348.8" cy="348.8" r="11.733"/>
<g>
</g>
<g>
</g>
<g>
</g>
<g>
</g>
<g>
</g>
<g>
</g>
<g>
</g>
<g>
</g>
<g>
</g>
<g>
</g>
<g>
</g>
<g>
</g>
<g>
</g>
<g>
</g>
<g>
</g>
</svg>
