<?xml version="1.0" encoding="iso-8859-1"?>
<!-- Generator: Adobe Illustrator 19.0.0, SVG Export Plug-In . SVG Version: 6.00 Build 0)  -->
<svg version="1.1" id="Capa_1" xmlns="http://www.w3.org/2000/svg" xmlns:xlink="http://www.w3.org/1999/xlink" x="0px" y="0px"
	 viewBox="0 0 512 512" style="enable-background:new 0 0 512 512;" xml:space="preserve">
<path style="fill:#415A6B;" d="M489.6,512c-49.067-103.467-75.733-215.467-75.733-330.667v-23.467C413.867,70.4,343.467,0,256,0
	S98.133,70.4,98.133,157.867v23.467c0,114.133-25.6,227.2-75.733,330.667H489.6z"/>
<path style="fill:#F7B64C;" d="M512,512l-16-53.333c-6.4-30.933-27.733-57.6-57.6-67.2c-25.6-8.533-51.2-16-75.733-21.333
	c-19.2-4.267-33.067-21.333-33.067-40.533v-30.933L256,204.8l-73.6,93.867V329.6c0,19.2-13.867,36.267-33.067,40.533
	c-25.6,5.333-51.2,12.8-75.733,21.333c-29.867,10.667-51.2,36.267-57.6,67.2L0,512H512z"/>
<path style="fill:#4ABAA5;" d="M512,512l-16-53.333c-6.4-30.933-27.733-57.6-57.6-67.2C408.533,380.8,378.667,373.333,348.8,368
	l-25.6,88.533C304,470.4,281.6,477.867,256,477.867c-28.8,0-55.467-10.667-75.733-27.733V364.8c-3.2,0-7.467,1.067-10.667,2.133
	c-32,5.333-64,13.867-96,24.533c-29.867,10.667-51.2,36.267-57.6,67.2L0,512H512z"/>
<path style="fill:#F3705A;" d="M305.067,512l18.133-55.467C304,470.4,281.6,477.867,256,477.867
	c-28.8,0-55.467-10.667-75.733-27.733L201.6,512H305.067z"/>
<g>
	<polygon style="fill:#66C6B9;" points="346.667,512 384,448 353.067,421.333 391.467,402.133 329.6,329.6 289.067,512 	"/>
	<polygon style="fill:#66C6B9;" points="128,448 165.333,512 222.933,512 182.4,329.6 120.533,402.133 158.933,421.333 	"/>
</g>
<path style="fill:#FFD15C;" d="M149.333,202.667c-4.267,82.133,43.733,153.6,106.667,153.6s110.933-71.467,106.667-153.6
	c-1.067-25.6-7.467-50.133-18.133-70.4c-30.933,0-53.333-11.733-68.267-33.067c-27.733,37.333-70.4,64-124.8,82.133
	C151.467,181.333,149.333,195.2,149.333,202.667z"/>
<g>
	<path style="fill:#F3F3F3;" d="M132.267,184.533V169.6c0-68.267,55.467-123.733,123.733-123.733S379.733,101.333,379.733,169.6
		v14.933h12.8V169.6c0-74.667-60.8-135.467-135.467-135.467S121.6,94.933,121.6,169.6v14.933H132.267z"/>
	<path style="fill:#F3F3F3;" d="M257.067,322.133l-2.133-12.8C369.067,290.133,374.4,266.667,374.4,220.8h12.8
		C386.133,280.533,368,302.933,257.067,322.133z"/>
</g>
<g>
	<path style="fill:#F3705A;" d="M381.867,240h-14.933v-64h14.933c9.6,0,17.067,7.467,17.067,17.067v29.867
		C398.933,232.533,390.4,240,381.867,240z"/>
	<path style="fill:#F3705A;" d="M360.533,249.6c5.333,0,9.6-4.267,9.6-9.6v-64c0-5.333-4.267-9.6-9.6-9.6
		c-5.333,0-9.6,4.267-9.6,9.6v64C349.867,245.333,355.2,249.6,360.533,249.6z"/>
	<path style="fill:#F3705A;" d="M129.067,234.667h13.867V176h-13.867c-8.533,0-16,7.467-16,16v27.733
		C113.067,227.2,120.533,234.667,129.067,234.667z"/>
	<path style="fill:#F3705A;" d="M149.333,244.267c-5.333,0-9.6-4.267-9.6-9.6V176c0-5.333,4.267-9.6,9.6-9.6
		c5.333,0,9.6,4.267,9.6,9.6v58.667C157.867,240,153.6,244.267,149.333,244.267z"/>
</g>
<ellipse style="fill:#415A6B;" cx="259.2" cy="311.467" rx="25.6" ry="14.933"/>
<g>
</g>
<g>
</g>
<g>
</g>
<g>
</g>
<g>
</g>
<g>
</g>
<g>
</g>
<g>
</g>
<g>
</g>
<g>
</g>
<g>
</g>
<g>
</g>
<g>
</g>
<g>
</g>
<g>
</g>
</svg>
