<?xml version="1.0" encoding="iso-8859-1"?>
<!-- Generator: Adobe Illustrator 19.0.0, SVG Export Plug-In . SVG Version: 6.00 Build 0)  -->
<svg version="1.1" id="Capa_1" xmlns="http://www.w3.org/2000/svg" xmlns:xlink="http://www.w3.org/1999/xlink" x="0px" y="0px"
	 viewBox="0 0 512 512" style="enable-background:new 0 0 512 512;" xml:space="preserve">
<path style="fill:#415A6B;" d="M429.867,512H82.133c-18.133,0-32-14.933-32-32V32c0-18.133,14.933-32,32-32h347.733
	c18.133,0,32,14.933,32,32v448C461.867,497.067,448,512,429.867,512z"/>
<rect x="92.8" y="57.6" style="fill:#FFFFFF;" width="326.4" height="353.067"/>
<rect x="124.8" y="298.667" style="fill:#F05540;" width="43.733" height="75.733"/>
<rect x="197.333" y="268.8" style="fill:#8AD7F8;" width="43.733" height="106.667"/>
<rect x="270.933" y="222.933" style="fill:#FFD15C;" width="43.733" height="152.533"/>
<rect x="344.533" y="124.8" style="fill:#66C6B9;" width="43.733" height="250.667"/>
<path style="fill:#F3705A;" d="M336,153.6l-17.067-5.333c-25.6,76.8-107.733,119.467-185.6,93.867c-8.533-3.2-16-6.4-23.467-9.6
	c69.333,9.6,137.6-30.933,160-99.2L252.8,128l60.8-46.933L336,153.6z"/>
<circle style="fill:#344A5E;" cx="256" cy="460.8" r="27.733"/>
<g>
</g>
<g>
</g>
<g>
</g>
<g>
</g>
<g>
</g>
<g>
</g>
<g>
</g>
<g>
</g>
<g>
</g>
<g>
</g>
<g>
</g>
<g>
</g>
<g>
</g>
<g>
</g>
<g>
</g>
</svg>
