<svg height="480pt" viewBox="-22 0 480 480" width="480pt" xmlns="http://www.w3.org/2000/svg"><path d="m280 40c0-17.671875-14.328125-32-32-32h-208c-17.671875 0-32 14.328125-32 32v16h272zm-128-8" fill="#9bc9ff"/><path d="m40 472h208c17.671875 0 32-14.328125 32-32v-16h-272v16c0 17.671875 14.328125 32 32 32zm120-24" fill="#9bc9ff"/><path d="m248 240 176-120h-352zm0 0" fill="#9bc9ff"/><path d="m72 360v-232l176 112 176-115.480469v235.480469zm0 0" fill="#9bc9ff"/><g fill="#1e81ce"><path d="m280 384.136719c-4.417969 0-8 3.582031-8 8v23.863281h-256v-352h256v23.359375c0 4.417969 3.582031 8 8 8s8-3.582031 8-8v-47.359375c-.027344-22.082031-17.917969-39.9726562-40-40h-208c-22.082031.0273438-39.9726562 17.917969-40 40v400c.0273438 22.082031 17.917969 39.972656 40 40h208c22.082031-.027344 39.972656-17.917969 40-40v-47.863281c0-4.417969-3.582031-8-8-8zm-240-368.136719h208c13.253906 0 24 10.746094 24 24v8h-256v-8c0-13.253906 10.746094-24 24-24zm208 448h-208c-13.253906 0-24-10.746094-24-24v-8h256v8c0 13.253906-10.746094 24-24 24zm0 0"/><path d="m152 40h16c4.417969 0 8-3.582031 8-8s-3.582031-8-8-8h-16c-4.417969 0-8 3.582031-8 8s3.582031 8 8 8zm0 0"/><path d="m160 440h-32c-4.417969 0-8 3.582031-8 8s3.582031 8 8 8h32c4.417969 0 8-3.582031 8-8s-3.582031-8-8-8zm0 0"/><path d="m120 40h8c4.417969 0 8-3.582031 8-8s-3.582031-8-8-8h-8c-4.417969 0-8 3.582031-8 8s3.582031 8 8 8zm0 0"/><path d="m72 80h-40v40h16v-24h24zm0 0"/><path d="m32 360v40h40v-16h-24v-24zm0 0"/><path d="m424 264.238281c-4.417969 0-8 3.582031-8 8v79.761719h-336v-216.863281l163.496094 111.472656c2.71875 1.851563 6.289062 1.851563 9.007812 0l163.496094-111.472656v48.863281c0 4.417969 3.582031 8 8 8s8-3.582031 8-8v-64c0-.265625-.128906-.488281-.152344-.742188-.046875-.546874-.152344-1.082031-.320312-1.601562-.152344-.515625-.363282-1.011719-.625-1.480469-.082032-.238281-.179688-.46875-.292969-.695312-.136719-.207031-.363281-.320313-.511719-.503907-.351562-.421874-.746094-.804687-1.175781-1.144531-.378906-.304687-.789063-.574219-1.21875-.800781-.453125-.230469-.925781-.417969-1.414063-.558594-.523437-.160156-1.058593-.269531-1.601562-.320312-.226562-.0625-.457031-.113282-.6875-.152344h-352c-.238281.035156-.476562.082031-.710938.144531-.542968.050781-1.082031.15625-1.601562.320313-.480469.140625-.945312.324218-1.390625.550781-.4375.226563-.847656.496094-1.234375.800781-.425781.339844-.816406.71875-1.167969 1.136719-.152343.191406-.375.304687-.511719.511719-.113281.222656-.210937.457031-.292968.695312-.261719.46875-.46875.964844-.625 1.480469-.167969.519531-.273438 1.054687-.320313 1.597656 0 .257813-.152343.480469-.152343.746094v240.015625c0 4.417969 3.582031 8 8 8h352.007812c4.417969 0 8-3.582031 8-8v-87.761719c0-4.417969-3.582031-8-8-8zm-176-33.917969-150.0625-102.320312h300.125zm0 0"/><path d="m399.03125 260.289062 36.28125-36.289062-36.28125-36.289062-11.3125 11.3125 16.96875 16.976562h-84.6875v16h84.6875l-16.96875 16.976562zm0 0"/><path d="m384 280h-84.6875l16.96875-16.976562-11.3125-11.3125-36.28125 36.289062 36.28125 36.289062 11.3125-11.3125-16.96875-16.976562h84.6875zm0 0"/></g></svg>