<svg height="496pt" viewBox="0 -68 496 496" width="496pt" xmlns="http://www.w3.org/2000/svg"><path d="m40 120h128v48h-128zm0 0" fill="#57a4ff"/><path d="m40 192h128v128h-128zm0 0" fill="#57a4ff"/><path d="m200 120h256v200h-256zm0 0" fill="#57a4ff"/><path d="m488 16v72h-480v-72c0-4.417969 3.582031-8 8-8h464c4.417969 0 8 3.582031 8 8zm0 0" fill="#57a4ff"/><path d="m64 48c0 8.835938-7.164062 16-16 16s-16-7.164062-16-16 7.164062-16 16-16 16 7.164062 16 16zm0 0" fill="#57a4ff"/><path d="m120 48c0 8.835938-7.164062 16-16 16s-16-7.164062-16-16 7.164062-16 16-16 16 7.164062 16 16zm0 0" fill="#57a4ff"/><path d="m176 48c0 8.835938-7.164062 16-16 16s-16-7.164062-16-16 7.164062-16 16-16 16 7.164062 16 16zm0 0" fill="#57a4ff"/><path d="m176 48c0 8.835938-7.164062 16-16 16s-16-7.164062-16-16 7.164062-16 16-16 16 7.164062 16 16zm0 0" fill="#57a4ff"/><g fill="#004fac"><path d="m480 0h-464c-8.835938 0-16 7.164062-16 16v328c0 8.835938 7.164062 16 16 16h464c8.835938 0 16-7.164062 16-16v-328c0-8.835938-7.164062-16-16-16zm0 16v64h-464v-64zm-464 328v-248h464v248zm0 0"/><path d="m48 72c13.253906 0 24-10.746094 24-24s-10.746094-24-24-24-24 10.746094-24 24 10.746094 24 24 24zm0-32c4.417969 0 8 3.582031 8 8s-3.582031 8-8 8-8-3.582031-8-8 3.582031-8 8-8zm0 0"/><path d="m104 72c13.253906 0 24-10.746094 24-24s-10.746094-24-24-24-24 10.746094-24 24 10.746094 24 24 24zm0-32c4.417969 0 8 3.582031 8 8s-3.582031 8-8 8-8-3.582031-8-8 3.582031-8 8-8zm0 0"/><path d="m160 72c13.253906 0 24-10.746094 24-24s-10.746094-24-24-24-24 10.746094-24 24 10.746094 24 24 24zm0-32c4.417969 0 8 3.582031 8 8s-3.582031 8-8 8-8-3.582031-8-8 3.582031-8 8-8zm0 0"/><path d="m456 48h8c4.417969 0 8-3.582031 8-8s-3.582031-8-8-8h-8c-4.417969 0-8 3.582031-8 8s3.582031 8 8 8zm0 0"/><path d="m368 48h56c4.417969 0 8-3.582031 8-8s-3.582031-8-8-8h-56c-4.417969 0-8 3.582031-8 8s3.582031 8 8 8zm0 0"/><path d="m168 112h-128c-4.417969 0-8 3.582031-8 8v48c0 4.417969 3.582031 8 8 8h128c4.417969 0 8-3.582031 8-8v-48c0-4.417969-3.582031-8-8-8zm-8 48h-112v-32h112zm0 0"/><path d="m168 184h-128c-4.417969 0-8 3.582031-8 8v128c0 4.417969 3.582031 8 8 8h128c4.417969 0 8-3.582031 8-8v-128c0-4.417969-3.582031-8-8-8zm-8 128h-112v-112h112zm0 0"/><path d="m456 112h-256c-4.417969 0-8 3.582031-8 8v200c0 4.417969 3.582031 8 8 8h256c4.417969 0 8-3.582031 8-8v-200c0-4.417969-3.582031-8-8-8zm-8 200h-240v-184h240zm0 0"/></g></svg>