<svg height="483pt" viewBox="-153 0 483 483.312" width="483pt" xmlns="http://www.w3.org/2000/svg"><g fill="#9bc9ff"><path d="m40.628906 40h96v32h-96zm0 0"/><path d="m88.628906 472 80-80-6.832031-49.167969-101.167969 101.167969zm0 0"/><path d="m147.164062 237.464844-135.953124 135.949218-2.582032 18.585938 20 20 125.367188-125.367188zm0 0"/><path d="m133.507812 139.121094-104.230468 104.230468-9.035156 65.03125 120.089843-120.085937zm0 0"/><path d="m48.628906 104-10.320312 74.320312 74.320312-74.320312zm0 0"/></g><path d="m137.820312 112h6.808594v-112h-112v112h6.808594l-39.28125 282.839844 88.472656 88.472656 88.472656-88.472656zm-100.992187 135.113281 91-90.960937 4.0625 29.304687-100.445313 100.414063zm-9 65.03125 106.792969-106.824219 4.070312 29.304688-116.28125 116.285156zm125.503906 27.855469-92.703125 92.6875-20.6875-20.6875 108.34375-108.34375zm-28.296875-203.710938-84.558594 84.550782 5.382813-38.761719 70.082031-70.078125h5.71875zm-76.40625-56.289062h80v16h-80zm80-16h-80v-16h80zm0-48v16h-80v-16zm-35.3125 96-43.808594 43.800781 6.089844-43.800781zm-74.558594 265.183594 122.671876-122.695313 4.070312 29.304688-116.871094 116.894531-11.527344-11.527344zm69.871094 83.503906-16.6875-16.6875 84.152344-84.144531 4.0625 29.304687zm0 0" fill="#1e81ce"/></svg>