<?xml version="1.0" encoding="iso-8859-1"?>
<!-- Generator: Adobe Illustrator 19.0.0, SVG Export Plug-In . SVG Version: 6.00 Build 0)  -->
<svg version="1.1" id="Capa_1" xmlns="http://www.w3.org/2000/svg" xmlns:xlink="http://www.w3.org/1999/xlink" x="0px" y="0px"
	 viewBox="0 0 512 512" style="enable-background:new 0 0 512 512;" xml:space="preserve">
<g>
	
		<ellipse transform="matrix(0.1029 -0.9947 0.9947 0.1029 98.9014 387.9968)" style="fill:#FFD15C;" cx="264.553" cy="139.168" rx="27.734" ry="16"/>
	
		<ellipse transform="matrix(0.1029 0.9947 -0.9947 0.1029 239.2111 13.8352)" style="fill:#FFD15C;" cx="111.935" cy="139.534" rx="27.734" ry="16"/>
</g>
<g>
	<ellipse style="fill:#344A5E;" cx="153.6" cy="97.6" rx="48" ry="85.333"/>
	<ellipse style="fill:#344A5E;" cx="194.133" cy="98.667" rx="77.867" ry="98.133"/>
	<path style="fill:#344A5E;" d="M376.533,414.4H0c0,0,5.333-116.267,29.867-141.867C57.6,241.6,148.267,241.6,188.8,241.6
		s130.133,1.067,158.933,30.933C370.133,298.133,376.533,414.4,376.533,414.4z"/>
</g>
<path style="fill:#F7B64C;" d="M229.333,197.867v19.2C217.6,245.867,204.8,260.8,188.8,276.8
	c-14.933-17.067-27.733-30.933-40.533-59.733v-19.2C160,168,174.933,147.733,188.8,131.733C201.6,147.733,217.6,168,229.333,197.867
	z"/>
<polygon style="fill:#FFFFFF;" points="187.733,414.4 154.667,357.867 152.533,266.133 222.933,266.133 220.8,357.867 "/>
<g>
	<path style="fill:#F3705A;" d="M199.467,300.267l10.667-10.667c0,0-14.933-23.467-23.467-23.467
		c-8.533,0-23.467,23.467-23.467,23.467l10.667,10.667H199.467z"/>
	<polygon style="fill:#F3705A;" points="176,300.267 164.267,373.867 187.733,414.4 211.2,373.867 199.467,300.267 	"/>
</g>
<g>
	<polygon style="fill:#F3F3F3;" points="229.333,210.667 188.8,266.133 219.733,298.133 243.2,236.267 	"/>
	<polygon style="fill:#F3F3F3;" points="148.267,210.667 188.8,266.133 156.8,298.133 133.333,236.267 	"/>
</g>
<g>
	<polygon style="fill:#415A6B;" points="235.733,221.333 286.933,275.733 242.133,287.467 269.867,314.133 188.8,414.4 	"/>
	<polygon style="fill:#415A6B;" points="141.867,221.333 89.6,275.733 135.467,287.467 106.667,314.133 188.8,414.4 	"/>
</g>
<path style="fill:#FFD15C;" d="M167.467,52.8c14.933,20.267,38.4,33.067,70.4,33.067c6.4,0,12.8-1.067,19.2-2.133
	c4.267,12.8,6.4,26.667,6.4,40.533c0,54.4-34.133,98.133-75.733,98.133S112,178.667,112,124.267
	c0-21.333,5.333-40.533,13.867-56.533C142.933,66.667,156.8,61.333,167.467,52.8z"/>
<path style="fill:#8AD7F8;" d="M364.8,404.8l-8.533-21.333l-27.733,4.267c-3.2-3.2-6.4-6.4-9.6-9.6l5.333-27.733l-21.333-8.533
	l-16,22.4c-4.267,0-8.533-1.067-13.867,0l-16-22.4l-21.333,8.533L240,378.133c-3.2,3.2-6.4,6.4-9.6,9.6l-27.733-5.333l-8.533,21.333
	l22.4,16c0,4.267-1.067,8.533,0,13.867l-22.4,16l8.533,21.333l27.733-4.267c3.2,3.2,6.4,6.4,9.6,9.6l-5.333,26.667L256,511.467
	l16-22.4c4.267,0,8.533,1.067,13.867,0l16,22.4l21.333-8.533l-4.267-27.733c3.2-3.2,6.4-6.4,9.6-9.6l27.733,5.333L364.8,449.6
	l-23.467-16c1.067-4.267,1.067-8.533,0-13.867L364.8,404.8z M288,447.467c-11.733,4.267-24.533-1.067-28.8-11.733
	c-4.267-11.733,1.067-24.533,11.733-28.8c11.733-4.267,24.533,1.067,28.8,11.733C304,430.4,298.667,443.2,288,447.467z"/>
<path style="fill:#55C0EB;" d="M263.467,389.867c-20.267,8.533-30.933,32-22.4,52.267c8.533,20.267,32,30.933,52.267,22.4
	c20.267-8.533,30.933-32,22.4-52.267C308.267,390.933,284.8,381.333,263.467,389.867z M288,447.467
	c-11.733,4.267-24.533-1.067-28.8-11.733c-4.267-11.733,1.067-24.533,11.733-28.8c11.733-4.267,24.533,1.067,28.8,11.733
	C304,430.4,298.667,443.2,288,447.467z"/>
<path style="fill:#F3705A;" d="M512,309.867V283.2l-32-7.467c-1.067-5.333-3.2-9.6-6.4-13.867l17.067-27.733l-19.2-19.2L443.733,232
	c-4.267-2.133-9.6-4.267-13.867-6.4l-7.467-32h-26.667l-7.467,32c-5.333,1.067-9.6,3.2-13.867,6.4l-27.733-17.067l-19.2,19.2
	l17.067,27.733c-2.133,4.267-4.267,9.6-6.4,14.933l-32,7.467v25.6l32,7.467c1.067,5.333,3.2,9.6,6.4,14.933L327.467,360l19.2,19.2
	l27.733-17.067c4.267,2.133,9.6,4.267,14.933,6.4l7.467,32h26.667l7.467-32c5.333-1.067,9.6-3.2,14.933-6.4L473.6,379.2l19.2-19.2
	l-18.133-28.8c2.133-4.267,4.267-9.6,6.4-13.867L512,309.867z M409.6,322.667c-14.933,0-26.667-11.733-26.667-26.667
	s11.733-26.667,26.667-26.667s26.667,11.733,26.667,26.667S424.533,322.667,409.6,322.667z"/>
<path style="fill:#F05540;" d="M409.6,250.133c-25.6,0-45.867,20.267-45.867,45.867S384,341.867,409.6,341.867
	c25.6,0,45.867-20.267,45.867-45.867S435.2,250.133,409.6,250.133z M409.6,322.667c-14.933,0-26.667-11.733-26.667-26.667
	s11.733-26.667,26.667-26.667s26.667,11.733,26.667,26.667S424.533,322.667,409.6,322.667z"/>
<g>
</g>
<g>
</g>
<g>
</g>
<g>
</g>
<g>
</g>
<g>
</g>
<g>
</g>
<g>
</g>
<g>
</g>
<g>
</g>
<g>
</g>
<g>
</g>
<g>
</g>
<g>
</g>
<g>
</g>
</svg>
