<svg height="480pt" viewBox="-18 0 480 480.02831" width="480pt" xmlns="http://www.w3.org/2000/svg"><path d="m379.730469 64.269531c-51.746094-51.738281-128.402344-69.5625-197.667969-45.964843-69.265625 23.597656-119.09375 84.515624-128.492188 157.082031l-44.160156 98.074219c-2.226562 4.945312-1.792968 10.683593 1.144532 15.242187 2.941406 4.558594 7.992187 7.316406 13.417968 7.324219h20c8.835938 0 16 7.164062 16 16v64c0 8.835937 7.160156 16 16 16h56c8.835938 0 16 7.164062 16 16v48c0 8.835937 7.160156 16 16 16h160c8.835938 0 16-7.164063 16-16v-80.800782c.058594-5.570312 2.964844-10.722656 7.703125-13.652343 11.59375-7.402344 22.339844-16.050781 32.054688-25.785157 74.976562-74.980468 74.976562-196.542968 0-271.519531zm-143.757813 279.757813s-40.351562 4.898437-62.226562-16.96875c-21.871094-21.863282-16.976563-62.230469-16.976563-62.230469s40.355469-4.894531 62.226563 16.976563c21.871094 21.871093 16.976562 62.222656 16.976562 62.222656zm-65.539062-193.535156c-15.503906-15.640626-15.449219-40.871094.125-56.445313 15.574218-15.570313 40.804687-15.625 56.445312-.121094l16.96875 16.964844 16.964844-16.964844c15.640625-15.503906 40.875-15.449219 56.445312.121094 15.574219 15.574219 15.628907 40.804687.125 56.445313l-73.535156 73.535156zm144.570312 176.566406c-21.871094 21.867187-62.234375 16.96875-62.234375 16.96875s-4.902343-40.351563 16.96875-62.222656c21.871094-21.871094 62.234375-16.976563 62.234375-16.976563s4.894532 40.359375-16.96875 62.230469zm0 0" fill="#9bc9ff"/><g fill="#1e81ce"><path d="m323.972656 480.027344h-160c-13.257812 0-24-10.746094-24-24v-48c0-4.417969-3.582031-8-8-8h-56c-13.257812 0-24-10.746094-24-24v-64c0-4.417969-3.582031-8-8-8h-20c-8.140625-.011719-15.714844-4.152344-20.125-10.988282-4.414062-6.839843-5.058594-15.445312-1.714844-22.867187l43.664063-96.992187c11.691406-86.414063 78.027344-155.292969 163.941406-170.226563 85.914063-14.933594 171.601563 27.523437 211.769531 104.921875 40.167969 77.402344 25.554688 171.90625-36.113281 233.5625-10.132812 10.132812-21.339843 19.132812-33.421875 26.839844-2.429687 1.464844-3.9375 4.074218-4 6.910156v80.839844c0 13.253906-10.746094 24-24 24zm-80-464c-92.445312.105468-170.5 68.710937-182.464844 160.378906-.101562.78125-.316406 1.542969-.640624 2.261719l-44.152344 98.074219c-1.113282 2.46875-.902344 5.332031.5625 7.613281 1.464844 2.277343 3.984375 3.660156 6.695312 3.671875h20c13.253906 0 24 10.746094 24 24v64c0 4.417968 3.582032 8 8 8h56c13.253906 0 24 10.746094 24 24v48c0 4.417968 3.582032 8 8 8h160c4.417969 0 8-3.582032 8-8v-80.800782c.042969-8.308593 4.351563-16.011718 11.40625-20.398437 11.097656-7.078125 21.390625-15.347656 30.695313-24.65625 52.648437-52.621094 68.410156-131.777344 39.925781-200.546875-28.480469-68.773438-95.59375-113.609375-170.027344-113.597656zm0 0"/><path d="m339.914062 263.867188c-.441406-3.65625-3.324218-6.542969-6.984374-6.984376-1.78125-.199218-44.496094-5.070312-68.796876 19.265626-5.136718 5.234374-9.257812 11.371093-12.160156 18.105468v-66.914062l71.199219-71.199219c18.746094-18.746094 18.746094-49.136719.003906-67.882813-18.746093-18.75-49.136719-18.75-67.882812-.003906l-11.320313 11.320313-11.3125-11.3125c-18.746094-18.75-49.140625-18.75-67.890625 0-18.746093 18.746093-18.746093 49.140625 0 67.886719l71.203125 71.199218v65.113282c-2.816406-6.039063-6.644531-11.550782-11.3125-16.304688-24.359375-24.351562-67.058594-19.480469-68.847656-19.265625-3.660156.441406-6.542969 3.328125-6.984375 6.984375-.21875 1.808594-5.082031 44.496094 19.261719 68.847656 17.121094 17.128906 43.335937 19.792969 58 19.792969 4.761718 0 8.265625-.28125 9.882812-.429687v63.941406c0 4.417968 3.582032 8 8 8 4.417969 0 8-3.582032 8-8v-64c3.546875.371094 7.113282.542968 10.679688.519531 14.664062 0 40.871094-2.664063 58.007812-19.789063 24.34375-24.394531 19.480469-67.082031 19.253906-68.890624zm-160.511718 57.539062c-13.933594-13.929688-15.296875-37.554688-15.054688-49 11.34375-.273438 35.0625 1.117188 49 15.054688 13.9375 13.933593 15.296875 37.597656 15.054688 49.023437-11.421875.230469-35.007813-1.089844-49-15.078125zm-3.3125-221.832031c12.507812-12.472657 32.75-12.472657 45.257812 0l16.96875 16.964843c3.121094 3.125 8.1875 3.125 11.3125 0l16.964844-16.964843c12.5-12.5 32.761719-12.5 45.257812 0 12.496094 12.496093 12.496094 32.757812 0 45.253906l-67.878906 67.886719-67.882812-67.886719c-12.472656-12.503906-12.472656-32.75 0-45.253906zm133.257812 221.832031c-13.945312 13.941406-37.601562 15.308594-49.023437 15.054688-.257813-11.425782 1.078125-35 15.078125-49s37.601562-15.273438 49.007812-15.054688c.234375 11.445312-1.136718 35.070312-15.0625 49zm0 0"/></g></svg>