<?xml version="1.0"?>
<svg xmlns="http://www.w3.org/2000/svg" viewBox="0 0 64 64" width="512" height="512"><g id="Hearth-3" data-name="Hearth"><path d="M41.19,27.74a4.985,4.985,0,0,0-7.07,0L32,29.86l-2.12-2.12a5,5,0,1,0-7.07,7.07L23,35l9,9,9.19-9.19A4.985,4.985,0,0,0,41.19,27.74Z" style="fill:#9bc9ff"/><path d="M60.537,20.123l-.66-.66A3.02,3.02,0,0,1,59,17.34V2H57V17.34a5.035,5.035,0,0,0,1.463,3.537l.66.66A3.02,3.02,0,0,1,60,23.66V38a.978.978,0,0,1-.306.712A.957.957,0,0,1,59,39a1,1,0,0,1-1-1V34a1,1,0,0,0-2,0v7a.978.978,0,0,1-.306.712A.957.957,0,0,1,55,42a1,1,0,0,1-1-1V34a1,1,0,0,0-2,0V45a.977.977,0,0,1-.3.711.956.956,0,0,1-.789.283A1.08,1.08,0,0,1,50,44.89V34a1,1,0,0,0-2,0v8a.977.977,0,0,1-.3.711.954.954,0,0,1-.789.283A1.08,1.08,0,0,1,46,41.89V28a1,1,0,0,0-2,0v5a1,1,0,0,1-1,1,5.966,5.966,0,0,0-1-6.855V23.654a2.993,2.993,0,0,1,.877-2.117l.656-.656A5.009,5.009,0,0,0,45,17.34V2H43V17.346a2.993,2.993,0,0,1-.877,2.117l-.656.656A5.009,5.009,0,0,0,40,23.66v2.085a6.038,6.038,0,0,0-3.532-.359,6.2,6.2,0,0,0-3.161,1.753L32,28.446l-1.3-1.3a6.219,6.219,0,0,0-3.161-1.757A6.039,6.039,0,0,0,24,25.745V23a2.922,2.922,0,0,0-.874-2.108A3.06,3.06,0,0,0,20,20.171V20a2.922,2.922,0,0,0-.874-2.108A3.06,3.06,0,0,0,16,17.171V16a3.01,3.01,0,0,0-3.266-2.986A3.075,3.075,0,0,0,10,16.11v.059a2.919,2.919,0,0,0-1.266-.155A3.075,3.075,0,0,0,6,19.11v6.061A3.009,3.009,0,0,0,5,25H4a2,2,0,0,0-2,2V37.345a4.994,4.994,0,0,0,1.463,3.532l.66.66A2.993,2.993,0,0,1,5,43.654V62H7V43.655a4.994,4.994,0,0,0-1.463-3.532l-.66-.66A2.993,2.993,0,0,1,4,37.346V27H5a1,1,0,0,1,1,1v1a1,1,0,0,0,2,0V19.11a1.081,1.081,0,0,1,.916-1.105A1.009,1.009,0,0,1,10,19v8a1,1,0,0,0,2,0V16.11a1.081,1.081,0,0,1,.916-1.1A1.009,1.009,0,0,1,14,16V27a1,1,0,0,0,2,0V20a1,1,0,0,1,1-1,.978.978,0,0,1,.713.306A.965.965,0,0,1,18,20v7a1,1,0,0,0,2,0V23a1,1,0,0,1,1-1,.978.978,0,0,1,.713.306A.965.965,0,0,1,22,23v4.146A5.965,5.965,0,0,0,22,35.4v1.942a2.993,2.993,0,0,1-.877,2.117l-.66.66A4.994,4.994,0,0,0,19,43.655V62h2V43.654a2.993,2.993,0,0,1,.877-2.117l.66-.66a5.03,5.03,0,0,0,1.456-3.469L32,45.414l9.49-9.489A1.977,1.977,0,0,0,42,36h1a3.009,3.009,0,0,0,1-.171V41.89a3.075,3.075,0,0,0,2.725,3.1A3,3,0,0,0,48,44.832v.058a3.075,3.075,0,0,0,2.725,3.1c.1.009.193.014.289.014A3.017,3.017,0,0,0,54,45V43.829a3.061,3.061,0,0,0,3.107-.7A2.935,2.935,0,0,0,58,41v-.171a3.061,3.061,0,0,0,3.107-.7A2.935,2.935,0,0,0,62,38V23.66A5.035,5.035,0,0,0,60.537,20.123ZM41.626,31.8a4.251,4.251,0,0,1-1.26,2.42L32,42.586l-8.369-8.368A4.237,4.237,0,0,1,22.374,31.8a4.016,4.016,0,0,1,4.475-4.5,4.211,4.211,0,0,1,2.426,1.248L32,31.274l2.726-2.726A4.2,4.2,0,0,1,37.155,27.3a4.015,4.015,0,0,1,4.471,4.5Z" style="fill:#1e81ce"/><polygon points="33 38 33 36 35 36 35 34 33 34 33 32 31 32 31 34 29 34 29 36 31 36 31 38 33 38" style="fill:#1e81ce"/></g></svg>
