<svg height="480pt" viewBox="0 -36 480 480" width="480pt" xmlns="http://www.w3.org/2000/svg"><path d="m272 96v24h24v40h-112v-40h24v-24h-200v304h464v-304zm-88 272h-144v-168h144zm0 0" fill="#9bc9ff"/><path d="m160 312c0-17.671875-14.328125-32-32-32h-32c-17.671875 0-32 14.328125-32 32v32h96zm0 0" fill="#9bc9ff"/><path d="m136 240c0 13.253906-10.746094 24-24 24s-24-10.746094-24-24 10.746094-24 24-24 24 10.746094 24 24zm0 0" fill="#9bc9ff"/><g fill="#1e81ce"><path d="m280 88v-88h-80v88h-200v320h480v-320zm0 56v-16h8v24h-96v-24h8v16zm-64-128h48v112h-48zm248 376h-448v-288h184v8h-24v56h128v-56h-24v-8h184zm0 0"/><path d="m56 312v40h112v-40c-.027344-22.082031-17.917969-39.972656-40-40h-32c-22.082031.027344-39.972656 17.917969-40 40zm72-24c13.253906 0 24 10.746094 24 24v24h-80v-24c0-13.253906 10.746094-24 24-24zm0 0"/><path d="m224 232h80v16h-80zm0 0"/><path d="m344 232h72v16h-72zm0 0"/><path d="m224 272h192v16h-192zm0 0"/><path d="m224 304h192v16h-192zm0 0"/><path d="m224 336h160v16h-160zm0 0"/><path d="m400 336h16v16h-16zm0 0"/><path d="m32 376h160v-184h-160zm16-168h128v152h-128zm0 0"/><path d="m80 240c0 17.671875 14.328125 32 32 32s32-14.328125 32-32-14.328125-32-32-32-32 14.328125-32 32zm32-16c8.835938 0 16 7.164062 16 16s-7.164062 16-16 16-16-7.164062-16-16 7.164062-16 16-16zm0 0"/></g></svg>