<?xml version="1.0" encoding="iso-8859-1"?>
<!-- Generator: Adobe Illustrator 19.0.0, SVG Export Plug-In . SVG Version: 6.00 Build 0)  -->
<svg version="1.1" id="Layer_1" xmlns="http://www.w3.org/2000/svg" xmlns:xlink="http://www.w3.org/1999/xlink" x="0px" y="0px"
	 viewBox="0 0 512.001 512.001" style="enable-background:new 0 0 512.001 512.001;" xml:space="preserve">
<path style="fill:#464F5D;" d="M501.288,394.556L263.402,510.063c-4.696,2.176-10.106,2.176-14.802,0L10.715,394.556
	c-8.952-3.815-13.119-14.167-9.295-23.119c1.85-4.335,5.357-7.745,9.736-9.48l93.656-42.467L248.6,289.358
	c4.696,2.176,10.106,2.176,14.802,0l143.789,30.132l93.656,42.467c9.048,3.577,13.489,13.806,9.921,22.863
	C509.032,389.208,505.622,392.715,501.288,394.556z"/>
<path style="fill:#90BAE1;" d="M501.288,273.852l-94.097,46.079l-143.789,69.868c-4.696,2.176-10.106,2.176-14.802,0
	l-143.789-69.868l-94.097-46.079c-8.828-4.097-12.661-14.582-8.555-23.401c1.824-3.921,5.022-7.04,8.996-8.758l106.256-48.194
	l128.106-42.996l3.084,1.498c4.696,2.176,10.106,2.176,14.802,0l3.084-1.498l128.106,43.436l106.256,48.194
	c8.819,4.115,12.626,14.608,8.511,23.419C507.675,269.156,504.838,272.081,501.288,273.852z"/>
<path style="fill:#B0D3F0;" d="M501.288,141.693L394.591,193.94L266.486,256.23l-3.084,1.498c-4.696,2.176-10.106,2.176-14.802,0
	l-3.084-1.498L117.411,193.94L10.715,141.693c-8.828-4.097-12.661-14.581-8.555-23.401c1.824-3.921,5.022-7.04,8.996-8.758
	L249.041,1.693c4.458-1.85,9.463-1.85,13.921,0l237.885,107.841c8.934,3.859,13.048,14.229,9.198,23.163
	C508.327,136.671,505.208,139.869,501.288,141.693z"/>
<g>
</g>
<g>
</g>
<g>
</g>
<g>
</g>
<g>
</g>
<g>
</g>
<g>
</g>
<g>
</g>
<g>
</g>
<g>
</g>
<g>
</g>
<g>
</g>
<g>
</g>
<g>
</g>
<g>
</g>
</svg>
