<svg height="512" viewBox="0 0 512 512" width="512" xmlns="http://www.w3.org/2000/svg"><g><g fill="#57a4ff"><path d="m224 336.97-.26 1"/><path d="m288.26 337.97-.26-1"/><path d="m408 496h-304l8-72a32 32 0 0 1 32-32l72-24h80l72 24a32 32 0 0 1 32 32z"/><path d="m48 48h24v48h-24z"/><path d="m464 112a64.007 64.007 0 0 1 -109.26 45.26l45.26-45.26z"/><path d="m400 48v64l-45.26 45.26a64.007 64.007 0 0 1 45.26-109.26z"/><path d="m48 128h24v88h-24z"/><path d="m144 136h24v80h-24z"/></g><g fill="#004fac"><path d="m496 8h-480a8 8 0 0 0 -8 8v288a8 8 0 0 0 8 8h172.09a71.77 71.77 0 0 0 22.91 32.21 7.932 7.932 0 0 0 2.52 1.36l-4.18 16.22-66.71 22.23a40.058 40.058 0 0 0 -38.63 39.51l-7.16 64.47h-40.84a8 8 0 0 0 0 16h400a8 8 0 0 0 0-16h-40.84l-7.16-64.47a40.058 40.058 0 0 0 -38.63-39.51l-66.71-22.23-4.18-16.22a7.932 7.932 0 0 0 2.52-1.36 71.77 71.77 0 0 0 22.91-32.21h172.09a8 8 0 0 0 8-8v-288a8 8 0 0 0 -8-8zm-130.53 391.59a8.074 8.074 0 0 0 2.53.41 24.032 24.032 0 0 1 24 24 8.652 8.652 0 0 0 .05.88l7.01 63.12h-47.06v-40a8 8 0 0 0 -16 0v40h-160v-40a8 8 0 0 0 -16 0v40h-47.06l7.01-63.12a8.652 8.652 0 0 0 .05-.88 24.032 24.032 0 0 1 24-24 8.074 8.074 0 0 0 2.53-.41l70.77-23.59h77.4zm-53.47-111.59a55.754 55.754 0 0 1 -19.44 42.4 8 8 0 0 0 -12.31 8.57l5.43 21.03h-59.36l5.43-21.03a8 8 0 0 0 -12.31-8.57 55.754 55.754 0 0 1 -19.44-42.4v-32a56 56 0 1 1 112 0zm176 8h-160.44a73.257 73.257 0 0 0 .44-8v-32a72 72 0 0 0 -144 0v32a73.257 73.257 0 0 0 .44 8h-160.44v-272h464z"/><path d="m96 56h168a8 8 0 0 0 0-16h-168a8 8 0 0 0 0 16z"/><path d="m96 80h144a8 8 0 0 0 0-16h-144a8 8 0 0 0 0 16z"/><path d="m96 104h80a8 8 0 0 0 0-16h-80a8 8 0 0 0 0 16z"/><path d="m48 104h24a8 8 0 0 0 8-8v-48a8 8 0 0 0 -8-8h-24a8 8 0 0 0 -8 8v48a8 8 0 0 0 8 8zm8-48h8v32h-8z"/><path d="m400 40a72 72 0 1 0 72 72 72.083 72.083 0 0 0 -72-72zm8 16.58a56.11 56.11 0 0 1 47.42 47.42h-47.42zm-64 55.42a56.086 56.086 0 0 1 48-55.42v52.11l-36.83 36.83a55.708 55.708 0 0 1 -11.17-33.52zm56 56a55.708 55.708 0 0 1 -33.52-11.17l36.83-36.83h52.11a56.086 56.086 0 0 1 -55.42 48z"/><path d="m456 200h-80a8 8 0 0 0 0 16h80a8 8 0 0 0 0-16z"/><path d="m456 224h-80a8 8 0 0 0 -5.657 2.343l-28 28a8 8 0 0 0 11.314 11.314l25.657-25.657h76.686a8 8 0 0 0 0-16z"/><path d="m176 208v-72a8 8 0 0 0 -8-8h-24a8 8 0 0 0 -8 8v72h-8v-48a8 8 0 0 0 -8-8h-24a8 8 0 0 0 -8 8v48h-8v-80a8 8 0 0 0 -8-8h-24a8 8 0 0 0 -8 8v80a8 8 0 0 0 0 16h136a8 8 0 0 0 0-16zm-112 0h-8v-72h8zm48 0h-8v-40h8zm48 0h-8v-64h8z"/><path d="m40 248h84.687l33.656 33.657a8 8 0 1 0 11.314-11.314l-36-36a8 8 0 0 0 -5.657-2.343h-88a8 8 0 0 0 0 16z"/><path d="m40 272h32a8 8 0 0 0 0-16h-32a8 8 0 0 0 0 16z"/></g></g></svg>