<?xml version="1.0" encoding="iso-8859-1"?>
<!-- Generator: Adobe Illustrator 19.0.0, SVG Export Plug-In . SVG Version: 6.00 Build 0)  -->
<svg version="1.1" id="Capa_1" xmlns="http://www.w3.org/2000/svg" xmlns:xlink="http://www.w3.org/1999/xlink" x="0px" y="0px"
	 viewBox="0 0 512 512" style="enable-background:new 0 0 512 512;" xml:space="preserve">
<path style="fill:#66C6B9;" d="M480,122.667H32c-18.133,0-32,13.867-32,32V480c0,17.067,13.867,32,32,32h448
	c18.133,0,32-14.933,32-32V154.667C512,136.533,498.133,122.667,480,122.667z M302.933,177.067h-93.867c-6.4,0-12.8-5.333-12.8-12.8
	s5.333-12.8,12.8-12.8h93.867c7.467,0,12.8,5.333,12.8,12.8S309.333,177.067,302.933,177.067z"/>
<rect x="42.667" y="206.933" style="fill:#FFFFFF;" width="426.667" height="262.4"/>
<g>
	<rect x="87.467" y="409.6" style="fill:#E8EAE9;" width="338.133" height="21.333"/>
	<rect x="259.2" y="354.133" style="fill:#E8EAE9;" width="165.333" height="21.333"/>
	<rect x="259.2" y="298.667" style="fill:#E8EAE9;" width="165.333" height="21.333"/>
</g>
<g>
	<circle style="fill:#415A6B;" cx="162.133" cy="279.467" r="34.133"/>
	<path style="fill:#415A6B;" d="M228.267,388.267H94.933c1.067-36.267,30.933-64,67.2-64C198.4,323.2,227.2,352,228.267,388.267z"/>
	<path style="fill:#415A6B;" d="M302.933,0h-93.867v152.533c0,6.4,5.333,11.733,11.733,11.733h69.333
		c6.4,0,11.733-5.333,11.733-11.733V0H302.933z"/>
</g>
<g>
</g>
<g>
</g>
<g>
</g>
<g>
</g>
<g>
</g>
<g>
</g>
<g>
</g>
<g>
</g>
<g>
</g>
<g>
</g>
<g>
</g>
<g>
</g>
<g>
</g>
<g>
</g>
<g>
</g>
</svg>
