<?xml version="1.0" encoding="iso-8859-1"?>
<!-- Generator: Adobe Illustrator 19.0.0, SVG Export Plug-In . SVG Version: 6.00 Build 0)  -->
<svg version="1.1" id="Capa_1" xmlns="http://www.w3.org/2000/svg" xmlns:xlink="http://www.w3.org/1999/xlink" x="0px" y="0px"
	 viewBox="0 0 512 512" style="enable-background:new 0 0 512 512;" xml:space="preserve">
<path style="fill:#415A6B;" d="M489.6,472.533c-20.267-41.6-29.867-87.467-29.867-133.333v-13.867c0-45.867-35.2-86.4-82.133-88.533
	c-48-1.067-87.467,37.333-87.467,84.267v17.067c0,45.867-10.667,91.733-29.867,133.333H489.6V472.533z"/>
<path style="fill:#F7B64C;" d="M413.867,413.867V396.8L374.4,346.667L334.933,396.8v17.067c0,4.267-1.067,7.467-3.2,11.733V480h89.6
	v-48C417.067,426.667,413.867,421.333,413.867,413.867z"/>
<path style="fill:#F05540;" d="M512,512l-4.267-30.933c-3.2-21.333-19.2-38.4-40.533-41.6l-42.667-6.4l-13.867,49.067
	c-10.667,7.467-22.4,11.733-36.267,11.733c-14.933,0-29.867-5.333-40.533-14.933v-45.867l-51.2,6.4
	c-21.333,3.2-38.4,20.267-40.533,41.6L237.867,512H512z"/>
<path style="fill:#4ABAA5;" d="M397.867,512l12.8-54.4c-10.667,9.6-22.4,16-36.267,16c-14.933,0-29.867-7.467-40.533-20.267
	L348.8,512H397.867z"/>
<g>
	<path style="fill:#F3705A;" d="M423.467,512l20.267-34.133l-17.067-14.933L448,452.267L414.933,412.8
		c1.067,27.733-8.533,61.867-21.333,98.133L423.467,512z"/>
	<path style="fill:#F3705A;" d="M306.133,477.867L326.4,512h30.933c-12.8-37.333-23.467-72.533-21.333-98.133l-33.067,39.467
		L324.267,464L306.133,477.867z"/>
</g>
<path style="fill:#FFD15C;" d="M398.933,281.6c-12.8,28.8-39.467,52.267-78.933,53.333c-1.067,5.333-1.067,10.667-1.067,16
	c0,42.667,25.6,76.8,57.6,76.8s57.6-34.133,57.6-76.8C432,320,418.133,293.333,398.933,281.6z"/>
<path style="fill:#344A5E;" d="M285.867,266.667l-9.6-55.467c-2.133-13.867-12.8-25.6-26.667-29.867l-52.267-16l-54.4,23.467
	l-54.4-23.467l-52.267,16C22.4,185.6,11.733,197.333,9.6,211.2L0,266.667H285.867z"/>
<path style="fill:#E8EAE9;" d="M117.333,266.667h50.133l11.733-73.6c0,0,1.067-10.667,1.067-21.333l-38.4,17.067l-38.4-17.067
	c1.067,10.667,1.067,21.333,1.067,21.333L117.333,266.667z"/>
<path style="fill:#F3705A;" d="M123.733,266.667h37.333l-6.4-46.933l9.6-9.6c0,0-13.867-22.4-22.4-22.4
	c-7.467,0-22.4,22.4-22.4,22.4l9.6,9.6L123.733,266.667z"/>
<g>
	<path style="fill:#F3F3F3;" d="M106.667,139.733l36.267,48l-25.6,26.667l-20.267-59.733
		C100.267,148.267,106.667,139.733,106.667,139.733z"/>
	<path style="fill:#F3F3F3;" d="M178.133,139.733l-36.267,48l25.6,26.667l20.267-59.733
		C184.533,148.267,178.133,139.733,178.133,139.733z"/>
</g>
<polygon style="fill:#F7B64C;" points="106.667,100.267 106.667,139.733 142.933,187.733 178.133,139.733 178.133,100.267 "/>
<g>
	<path style="fill:#FFD15C;" d="M203.733,98.133c-2.133,9.6-8.533,17.067-14.933,14.933c-6.4-2.133-9.6-11.733-7.467-21.333
		s8.533-16,14.933-13.867C202.667,78.933,205.867,88.533,203.733,98.133z"/>
	<path style="fill:#FFD15C;" d="M81.067,98.133C83.2,107.733,89.6,115.2,96,113.067c6.4-2.133,9.6-11.733,7.467-21.333
		s-8.533-16-14.933-13.867C83.2,78.933,80,88.533,81.067,98.133z"/>
</g>
<path style="fill:#344A5E;" d="M202.667,59.733c-1.067,16-2.133,30.933-10.667,48L93.867,108.8c-8.533-16-9.6-33.067-10.667-46.933
	C80,14.933,105.6,0,141.867,0S204.8,13.867,202.667,59.733z"/>
<path style="fill:#FFD15C;" d="M166.4,49.067c-12.8,12.8-30.933,22.4-54.4,22.4c-7.467,0-13.867-1.067-20.267-2.133
	c-1.067,5.333-1.067,11.733-1.067,17.067c0,39.467,23.467,71.467,52.267,71.467s52.267-32,52.267-71.467c0-7.467-1.067-16-3.2-22.4
	C182.4,60.8,173.867,55.467,166.4,49.067z"/>
<g>
	<polygon style="fill:#415A6B;" points="176,266.667 214.4,205.867 195.2,188.8 218.667,171.733 181.333,144 154.667,266.667 	"/>
	<polygon style="fill:#415A6B;" points="71.467,205.867 108.8,266.667 130.133,266.667 103.467,144 67.2,171.733 89.6,188.8 	"/>
</g>
<g>
	<path style="fill:#66C6B9;" d="M384,136.533l23.467-11.733C384,78.933,332.8,56.533,284.8,66.133c7.467-7.467,16-12.8,25.6-18.133
		c55.467-28.8,123.733-7.467,152.533,48L486.4,84.267l-16,94.933L384,136.533z"/>
	<path style="fill:#66C6B9;" d="M128,375.467L104.533,387.2C128,433.067,179.2,455.467,227.2,445.867
		c-7.467,7.467-16,12.8-25.6,18.133c-55.467,28.8-123.733,7.467-152.533-48L25.6,427.733l16-94.933L128,375.467z"/>
</g>
<g>
</g>
<g>
</g>
<g>
</g>
<g>
</g>
<g>
</g>
<g>
</g>
<g>
</g>
<g>
</g>
<g>
</g>
<g>
</g>
<g>
</g>
<g>
</g>
<g>
</g>
<g>
</g>
<g>
</g>
</svg>
