<?xml version="1.0" encoding="iso-8859-1"?>
<!-- Generator: Adobe Illustrator 19.0.0, SVG Export Plug-In . SVG Version: 6.00 Build 0)  -->
<svg version="1.1" id="Capa_1" xmlns="http://www.w3.org/2000/svg" xmlns:xlink="http://www.w3.org/1999/xlink" x="0px" y="0px"
	 viewBox="0 0 512.007 512.007" style="enable-background:new 0 0 512.007 512.007;" xml:space="preserve">
<g>
	<path style="fill:#FFD15C;" d="M265.483,170.586c-12.8-5.333-26.667-4.267-38.4,2.133l-18.133,9.6
		c-19.2,10.667-40.533,13.867-61.867,9.6v67.2h128v-84.267L265.483,170.586z"/>
	<path style="fill:#FFD15C;" d="M271.883,203.653c0,0,20.267,8.533,50.133,34.133s45.867,41.6,48,54.4
		c2.133,8.533,1.067,18.133-4.267,24.533c-5.333,6.4-13.867,9.6-21.333,5.333c-2.133-1.067-3.2-2.133-4.267-4.267
		c0,0,3.2,18.133-9.6,23.467c-12.8,5.333-17.067,0-17.067,0s3.2,14.933-7.467,19.2c-10.667,5.333-24.533-4.267-24.533-5.333
		c0,0-2.133,16-16,14.933c-13.867-1.067-18.133-10.667-18.133-10.667s-58.667-48-74.667-54.4
		c-17.067-6.4-27.733-11.733-50.133-14.933c-21.333-3.2-25.6-3.2-25.6-3.2l10.667-102.4c0,0,57.6,10.667,76.8,20.267
		c0,0,27.733,9.6,49.067,3.2S271.883,203.653,271.883,203.653z"/>
</g>
<g>
	<path style="fill:#F7B64C;" d="M341.216,313.52c0-1.067-1.067-3.2-2.133-4.267c-1.067-1.067-2.133-3.2-2.133-4.267
		c-2.133-3.2-4.267-6.4-6.4-8.533c-1.067-1.067-2.133-3.2-3.2-4.267c-1.067-1.067-2.133-3.2-3.2-4.267
		c-1.067-3.2-2.133-6.4-3.2-8.533c-1.067-5.333-2.133-9.6-2.133-9.6s0,3.2,1.067,9.6c1.067,3.2,1.067,6.4,3.2,9.6
		c1.067,2.133,1.067,3.2,2.133,4.267c1.067,1.067,2.133,3.2,3.2,4.267c2.133,3.2,4.267,5.333,6.4,8.533
		c1.067,1.067,2.133,3.2,2.133,4.267c1.067,1.067,1.067,3.2,2.133,4.267c1.067,2.133,1.067,3.2,1.067,5.333
		c1.067,1.067,2.133,2.133,3.2,3.2l0,0c0,0,0-1.067-1.067-2.133C342.283,317.786,342.283,315.653,341.216,313.52z"/>
	<path style="fill:#F7B64C;" d="M315.616,341.253c-2.133-3.2-5.333-7.467-8.533-11.733c-2.133-2.133-3.2-4.267-5.333-6.4
		c-1.067-2.133-3.2-3.2-4.267-5.333c-1.067-2.133-1.067-3.2-1.067-4.267c0-1.067,0-2.133,0-2.133s0,1.067,0,2.133
		c0,1.067,0,3.2,1.067,4.267c0,1.067,1.067,2.133,1.067,3.2c1.067,1.067,1.067,2.133,2.133,3.2c1.067,2.133,3.2,4.267,4.267,6.4
		c3.2,4.267,5.333,8.533,7.467,11.733l0,0c0,0,1.067,1.067,3.2,2.133C316.683,343.386,316.683,342.32,315.616,341.253z"/>
	<path style="fill:#F7B64C;" d="M277.216,347.653c-2.133-3.2-3.2-5.333-5.333-7.467c-1.067-2.133-2.133-3.2-2.133-3.2
		s1.067,1.067,2.133,3.2s3.2,5.333,4.267,7.467c1.067,3.2,2.133,6.4,3.2,8.533c0,1.067,1.067,2.133,1.067,2.133
		c1.067-2.133,1.067-4.267,1.067-4.267C280.416,354.053,279.349,350.853,277.216,347.653z"/>
	<path style="fill:#F7B64C;" d="M370.016,295.386l60.8-12.8l-18.133-102.4c0,0-45.867,11.733-58.667,14.933
		c-12.8,4.267-23.467-3.2-23.467-3.2s-23.467-16-37.333-23.467c-12.8-8.533-24.533-2.133-24.533-2.133s-5.333,2.133-27.733,7.467
		c-21.333,5.333-19.2,27.733-19.2,27.733l-9.6,18.133c0,0,7.467,13.867,25.6,3.2c10.667-6.4,13.867-10.667,16-13.867
		c1.067-2.133,3.2-3.2,6.4-4.267c5.333,0,12.8-1.067,18.133,2.133c9.6,4.267,45.867,32,53.333,40.533
		C340.149,255.92,366.816,280.453,370.016,295.386z"/>
</g>
<path style="fill:#EAA43F;" d="M256.949,188.72c0,0,0,1.067,0,3.2c0,5.333,0,9.6-2.133,14.933c1.067-1.067,2.133-1.067,2.133-1.067
	c1.067-4.267,1.067-8.533,0-12.8C258.016,189.786,256.949,188.72,256.949,188.72z"/>
<path style="fill:#F3F3F3;" d="M229.216,212.186l5.333-11.733c1.067-7.467-5.333-4.267-11.733-1.067l0,0l-9.6,18.133
	C219.616,222.853,229.216,212.186,229.216,212.186z"/>
<path style="fill:#F7B64C;" d="M165.216,303.92c-3.2-5.333-26.667-9.6-26.667-9.6s-5.333,16,6.4,21.333s18.133-6.4,18.133-6.4
	s-3.2,12.8,7.467,20.267c11.733,7.467,20.267,1.067,20.267,1.067s-4.267,11.733,5.333,18.133c9.6,7.467,20.267,0,20.267,0l0,0
	c0,5.333,3.2,10.667,7.467,13.867c11.733,8.533,24.533-3.2,24.533-3.2c-1.067-4.267-1.067-7.467-3.2-7.467
	c0,0,8.533-19.2-2.133-26.667c-10.667-7.467-17.067,2.133-17.067,2.133s9.6-19.2-3.2-25.6c-13.867-6.4-19.2,6.4-21.333,9.6
	c0,0-2.133-13.867-10.667-16s-17.067-1.067-22.4,8.533H165.216z"/>
<g>
	<path style="fill:#F3F3F3;" d="M175.883,302.853c0,0-5.333,10.667-2.133,14.933c3.2,3.2,7.467,5.333,11.733,4.267
		c4.267-1.067,6.4-6.4,6.4-6.4C192.949,311.386,183.349,301.786,175.883,302.853z"/>
	<path style="fill:#F3F3F3;" d="M210.016,304.986c0,0,9.6,2.133,13.867,11.733c0,0-5.333,11.733-14.933,8.533
		c0,0-7.467-3.2-3.2-11.733C208.949,304.986,210.016,304.986,210.016,304.986z"/>
	<path style="fill:#F3F3F3;" d="M226.016,336.986c0,0,3.2-8.533,3.2-9.6c0,0,7.467,0,10.667,10.667c0,0-3.2,9.6-11.733,7.467
		C229.216,344.453,222.816,342.32,226.016,336.986z"/>
</g>
<g>
	<path style="fill:#EAA43F;" d="M216.416,349.786c0,0,0-1.067,1.067-3.2s2.133-5.333,3.2-7.467c1.067-3.2,2.133-5.333,3.2-7.467
		c1.067-2.133,2.133-3.2,2.133-3.2s0,1.067-1.067,3.2c-1.067,2.133-2.133,5.333-3.2,7.467c-1.067,3.2-2.133,5.333-3.2,7.467
		C217.483,347.653,216.416,349.786,216.416,349.786z"/>
	<path style="fill:#EAA43F;" d="M190.816,330.586c0,0,1.067-1.067,2.133-3.2s2.133-4.267,3.2-6.4c1.067-2.133,2.133-4.267,3.2-6.4
		c0-1.067,1.067-2.133,1.067-2.133c0-1.067,0-1.067,0-1.067s0,1.067,0,3.2s-1.067,4.267-3.2,7.467c-1.067,2.133-3.2,4.267-4.267,6.4
		C191.883,329.52,190.816,330.586,190.816,330.586z"/>
	<path style="fill:#EAA43F;" d="M165.216,306.053L165.216,306.053c-1.067,1.067-1.067,2.133-1.067,2.133
		c0,1.067-1.067,1.067-1.067,2.133l0,0c0-1.067,1.067-1.067,1.067-1.067S165.216,307.12,165.216,306.053L165.216,306.053
		L165.216,306.053z"/>
</g>
<rect x="373.247" y="181.115" transform="matrix(-0.9733 0.2295 -0.2295 -0.9733 824.4805 395.4064)" style="fill:#E8EAE9;" width="32" height="129.066"/>
<rect x="393.431" y="151.364" transform="matrix(-0.9733 0.2294 -0.2294 -0.9733 929.6692 356.7783)" style="fill:#415A6B;" width="101.33" height="162.128"/>
<circle style="fill:#344A5E;" cx="461.749" cy="272.986" r="18.133"/>
<rect x="106.615" y="180.784" transform="matrix(0.9733 0.2295 -0.2295 0.9733 59.5735 -21.5924)" style="fill:#E8EAE9;" width="32" height="129.066"/>
<rect x="17.245" y="151.657" transform="matrix(0.9733 0.2294 -0.2294 0.9733 55.199 -9.3726)" style="fill:#415A6B;" width="101.33" height="162.128"/>
<circle style="fill:#344A5E;" cx="50.016" cy="272.986" r="18.133"/>
<g>
</g>
<g>
</g>
<g>
</g>
<g>
</g>
<g>
</g>
<g>
</g>
<g>
</g>
<g>
</g>
<g>
</g>
<g>
</g>
<g>
</g>
<g>
</g>
<g>
</g>
<g>
</g>
<g>
</g>
</svg>
