<?xml version="1.0" encoding="iso-8859-1"?>
<!-- Generator: Adobe Illustrator 19.0.0, SVG Export Plug-In . SVG Version: 6.00 Build 0)  -->
<svg version="1.1" id="Capa_1" xmlns="http://www.w3.org/2000/svg" xmlns:xlink="http://www.w3.org/1999/xlink" x="0px" y="0px"
	 viewBox="0 0 512 512" style="enable-background:new 0 0 512 512;" xml:space="preserve">
<path style="fill:#66C6B9;" d="M242.133,0H44.8c-8.533,0-16,7.467-16,16v480c0,8.533,7.467,16,16,16h197.333c8.533,0,16-7.467,16-16
	V16C258.133,7.467,250.667,0,242.133,0z"/>
<path style="fill:#FFFFFF;" d="M215.467,262.4V53.333c0-6.4-4.267-10.667-10.667-10.667H82.133c-6.4,0-10.667,4.267-10.667,10.667
	V262.4c0,6.4,4.267,10.667,10.667,10.667H204.8C210.133,273.067,215.467,268.8,215.467,262.4z"/>
<g>
	<rect x="91.733" y="85.333" style="fill:#E8EAE9;" width="103.467" height="17.067"/>
	<rect x="91.733" y="128" style="fill:#E8EAE9;" width="103.467" height="17.067"/>
	<rect x="91.733" y="170.667" style="fill:#E8EAE9;" width="103.467" height="17.067"/>
	<rect x="91.733" y="214.4" style="fill:#E8EAE9;" width="103.467" height="17.067"/>
</g>
<circle style="fill:#FFFFFF;" cx="142.933" cy="400" r="56.533"/>
<path style="fill:#F3705A;" d="M467.2,69.333H300.8c-8.533,0-16,7.467-16,16V496c0,8.533,7.467,16,16,16h166.4
	c8.533,0,16-7.467,16-16V85.333C483.2,75.733,475.733,69.333,467.2,69.333z"/>
<path style="fill:#FFFFFF;" d="M445.867,296.533V115.2c0-5.333-4.267-9.6-9.6-9.6h-105.6c-5.333,0-9.6,4.267-9.6,9.6v181.333
	c0,5.333,4.267,9.6,9.6,9.6h106.667C441.6,306.133,445.867,301.867,445.867,296.533z"/>
<g>
	<rect x="339.2" y="142.933" style="fill:#E8EAE9;" width="89.6" height="14.933"/>
	<rect x="339.2" y="180.267" style="fill:#E8EAE9;" width="89.6" height="14.933"/>
	<rect x="339.2" y="216.533" style="fill:#E8EAE9;" width="89.6" height="14.933"/>
	<rect x="339.2" y="253.867" style="fill:#E8EAE9;" width="89.6" height="14.933"/>
</g>
<circle style="fill:#FFFFFF;" cx="384" cy="416" r="49.067"/>
<g>
</g>
<g>
</g>
<g>
</g>
<g>
</g>
<g>
</g>
<g>
</g>
<g>
</g>
<g>
</g>
<g>
</g>
<g>
</g>
<g>
</g>
<g>
</g>
<g>
</g>
<g>
</g>
<g>
</g>
</svg>
