<?xml version="1.0" encoding="iso-8859-1"?>
<!-- Generator: Adobe Illustrator 19.0.0, SVG Export Plug-In . SVG Version: 6.00 Build 0)  -->
<svg version="1.1" id="Capa_1" xmlns="http://www.w3.org/2000/svg" xmlns:xlink="http://www.w3.org/1999/xlink" x="0px" y="0px"
	 viewBox="0 0 512.467 512.467" style="enable-background:new 0 0 512.467 512.467;" xml:space="preserve">
<path style="fill:#F3F3F3;" d="M378.667,0H115.2L0,115.2v357.333c0,21.333,17.067,38.4,38.4,38.4h340.267
	c21.333,0,38.4-17.067,38.4-38.4V38.4C417.067,17.067,400,0,378.667,0z"/>
<g>
	<rect x="60.8" y="427.733" style="fill:#CED6E0;" width="295.467" height="25.6"/>
	<rect x="60.8" y="344.533" style="fill:#CED6E0;" width="295.467" height="25.6"/>
	<rect x="60.8" y="262.4" style="fill:#CED6E0;" width="295.467" height="25.6"/>
	<rect x="60.8" y="180.267" style="fill:#CED6E0;" width="295.467" height="25.6"/>
	<rect x="173.867" y="98.133" style="fill:#CED6E0;" width="181.333" height="25.6"/>
	<polygon style="fill:#CED6E0;" points="115.2,0 0,115.2 115.2,115.2 	"/>
</g>
<path style="fill:#66C6B9;" d="M499.2,432l-284.8,80c-9.6,2.133-19.2-3.2-22.4-12.8l-44.8-161.067c-2.133-9.6,3.2-19.2,12.8-22.4
	l284.8-80c9.6-2.133,19.2,3.2,22.4,12.8L512,409.6C514.133,419.2,508.8,428.8,499.2,432z"/>
<path style="fill:#FFFFFF;" d="M206.933,437.333L192,382.933c22.4-6.4,35.2-28.8,28.8-51.2L398.933,281.6
	c6.4,22.4,28.8,35.2,51.2,28.8l14.933,54.4c-21.333,6.4-34.133,29.867-27.733,51.2L259.2,466.133
	C252.8,443.733,229.333,430.933,206.933,437.333z"/>
<g>
	<path style="fill:#66C6B9;" d="M337.067,421.333l-2.133-8.533c-9.6,1.067-20.267-1.067-29.867-5.333l6.4-16
		c7.467,3.2,13.867,5.333,18.133,5.333l-4.267-17.067c-8.533,0-14.933-1.067-19.2-3.2c-4.267-2.133-7.467-6.4-9.6-12.8
		c-2.133-6.4-1.067-11.733,2.133-17.067s7.467-9.6,13.867-11.733l-1.067-5.333l11.733-3.2l1.067,5.333c7.467-1.067,16,0,24.533,3.2
		l-5.333,16c-5.333-2.133-10.667-3.2-14.933-3.2l4.267,16c8.533,0,14.933,1.067,20.267,3.2c5.333,2.133,8.533,6.4,9.6,12.8
		c2.133,6.4,1.067,12.8-2.133,18.133c-3.2,5.333-8.533,9.6-14.933,11.733l2.133,7.467L337.067,421.333z M317.867,349.867
		c-3.2,2.133-4.267,4.267-3.2,7.467s3.2,4.267,6.4,5.333L317.867,349.867z M346.667,386.133c0-1.067-1.067-3.2-2.133-3.2
		c-1.067-1.067-3.2-1.067-5.333-2.133l4.267,13.867C346.667,392.533,347.733,389.333,346.667,386.133z"/>
	<circle style="fill:#66C6B9;" cx="244.267" cy="397.867" r="13.867"/>
	<circle style="fill:#66C6B9;" cx="414.933" cy="349.867" r="13.867"/>
</g>
<g>
</g>
<g>
</g>
<g>
</g>
<g>
</g>
<g>
</g>
<g>
</g>
<g>
</g>
<g>
</g>
<g>
</g>
<g>
</g>
<g>
</g>
<g>
</g>
<g>
</g>
<g>
</g>
<g>
</g>
</svg>
