<?xml version="1.0" encoding="iso-8859-1"?>
<!-- Generator: Adobe Illustrator 19.0.0, SVG Export Plug-In . SVG Version: 6.00 Build 0)  -->
<svg version="1.1" id="Capa_1" xmlns="http://www.w3.org/2000/svg" xmlns:xlink="http://www.w3.org/1999/xlink" x="0px" y="0px"
	 viewBox="0 0 512.67 512.67" style="enable-background:new 0 0 512.67 512.67;" xml:space="preserve">
<path style="fill:#E8EAE9;" d="M408.29,0H105.356c-9.6,0-18.133,8.533-18.133,18.133v464c0,8.533,6.4,16,14.933,18.133
	c93.867,16,220.8,17.067,309.333,0c8.533-2.133,13.867-9.6,13.867-18.133v-464C426.423,8.533,417.89,0,408.29,0z"/>
<g>
	<rect x="119.223" y="53.333" style="fill:#415A6B;" width="275.2" height="101.333"/>
	<rect x="221.623" y="290.133" style="fill:#415A6B;" width="70.4" height="72.533"/>
</g>
<rect x="324.023" y="186.667" style="fill:#4ABAA5;" width="70.4" height="72.533"/>
<rect x="221.623" y="186.667" style="fill:#FFD15C;" width="70.4" height="72.533"/>
<g>
	<polygon style="fill:#415A6B;" points="221.623,393.6 221.623,466.133 292.023,466.133 292.023,393.6 	"/>
	<rect x="119.223" y="290.133" style="fill:#415A6B;" width="70.4" height="72.533"/>
	<polygon style="fill:#415A6B;" points="119.223,393.6 119.223,466.133 189.623,466.133 189.623,393.6 	"/>
</g>
<polygon style="fill:#F3705A;" points="394.423,290.133 394.423,466.133 324.023,466.133 324.023,290.133 "/>
<rect x="119.223" y="186.667" style="fill:#55C0EB;" width="70.4" height="72.533"/>
<g>
</g>
<g>
</g>
<g>
</g>
<g>
</g>
<g>
</g>
<g>
</g>
<g>
</g>
<g>
</g>
<g>
</g>
<g>
</g>
<g>
</g>
<g>
</g>
<g>
</g>
<g>
</g>
<g>
</g>
</svg>
