<?xml version="1.0" encoding="iso-8859-1"?>
<!-- Generator: Adobe Illustrator 19.0.0, SVG Export Plug-In . SVG Version: 6.00 Build 0)  -->
<svg version="1.1" id="Capa_1" xmlns="http://www.w3.org/2000/svg" xmlns:xlink="http://www.w3.org/1999/xlink" x="0px" y="0px"
	 viewBox="0 0 512 512" style="enable-background:new 0 0 512 512;" xml:space="preserve">
<path style="fill:#66C6B9;" d="M204.8,81.067c0,14.933-11.733,26.667-26.667,26.667c-5.333,0-10.667-2.133-14.933-4.267v58.667
	h-59.733c3.2-4.267,4.267-9.6,4.267-14.933c0-14.933-11.733-26.667-26.667-26.667S54.4,132.267,54.4,147.2
	c0,5.333,2.133,10.667,4.267,14.933H0V29.867C0,13.867,13.867,0,29.867,0h132.267v58.667c4.267-3.2,9.6-4.267,14.933-4.267
	C193.067,54.4,204.8,66.133,204.8,81.067z"/>
<path style="fill:#FFD15C;" d="M120.533,244.267c0,14.933,11.733,26.667,26.667,26.667c5.333,0,10.667-2.133,14.933-4.267v58.667
	H29.867c-16,0-29.867-13.867-29.867-29.867V162.133h58.667c-3.2-4.267-4.267-9.6-4.267-14.933c0-14.933,11.733-26.667,26.667-26.667
	s26.667,11.733,26.667,26.667c0,5.333-2.133,10.667-4.267,14.933h58.667V220.8c-4.267-3.2-9.6-4.267-14.933-4.267
	C132.267,216.533,120.533,229.333,120.533,244.267z"/>
<path style="fill:#415A6B;" d="M325.333,162.133h-58.667c3.2,4.267,4.267,9.6,4.267,14.933c0,14.933-11.733,26.667-26.667,26.667
	S217.6,192,217.6,177.067c0-5.333,2.133-10.667,4.267-14.933H163.2v-58.667c4.267,3.2,9.6,4.267,14.933,4.267
	c14.933,0,26.667-11.733,26.667-26.667S193.067,54.4,178.133,54.4c-5.333,0-10.667,2.133-14.933,4.267V0h132.267
	c16,0,29.867,13.867,29.867,29.867V162.133L325.333,162.133z"/>
<path style="fill:#FFD15C;" d="M512,453.333c-5.333-9.6-9.6-20.267-12.8-35.2c-8.533-43.733-12.8-59.733-12.8-59.733
	s-2.133-33.067-40.533-50.133c-39.467-17.067-76.8-43.733-115.2-29.867s-59.733,33.067-61.867,40.533
	c-1.067,5.333,1.067,9.6,5.333,12.8h5.333c0,0-4.267,6.4,2.133,18.133c0,0,12.8,16,32,30.933c19.2,16,26.667,38.4,28.8,44.8
	c1.067,6.4,6.4,52.267,46.933,86.4H512V453.333z"/>
<path style="fill:#F7B64C;" d="M279.467,331.733C284.8,322.133,293.333,320,304,320c8.533,0,17.067,2.133,25.6,6.4
	c12.8,6.4,23.467,16,32,26.667c4.267,5.333,7.467,10.667,13.867,12.8c6.4,2.133,12.8-1.067,18.133-3.2
	c1.067,0,2.133-1.067,3.2-2.133c4.267-4.267,1.067-9.6,0-13.867c-1.067-6.4,2.133-12.8,7.467-14.933c-3.2,2.133-6.4,4.267-9.6,6.4
	c-1.067,0-1.067,1.067-2.133,1.067c-2.133,0-2.133-2.133-2.133-4.267c1.067-8.533,5.333-16,10.667-22.4
	c-5.333,8.533-16,10.667-24.533,9.6c-5.333-1.067-10.667-3.2-13.867-7.467c-3.2-3.2-4.267-8.533-4.267-12.8
	c0-4.267,0-9.6,1.067-13.867c-4.267,7.467-4.267,12.8-5.333,20.267c-2.133,6.4-16,5.333-18.133,5.333
	c-10.667,0-20.267-8.533-23.467-19.2c1.067,7.467,3.2,13.867,6.4,20.267c-6.4-2.133-12.8-4.267-19.2-3.2
	c-1.067,0-3.2,1.067-4.267,1.067C285.867,316.8,280.533,324.267,279.467,331.733L279.467,331.733z"/>
<path style="fill:#F3705A;" d="M349.867,201.6v132.267c0,16-13.867,29.867-29.867,29.867H186.667v-58.667
	c-4.267,3.2-9.6,4.267-14.933,4.267c-14.933,0-26.667-11.733-26.667-26.667S156.8,256,171.733,256
	c5.333,0,10.667,2.133,14.933,4.267V201.6h58.667c-3.2,4.267-4.267,9.6-4.267,14.933c0,14.933,11.733,26.667,26.667,26.667
	c14.933,0,26.667-11.733,26.667-26.667c0-5.333-2.133-10.667-4.267-14.933L349.867,201.6L349.867,201.6z"/>
<path style="fill:#FFD15C;" d="M328.533,326.4c-7.467-4.267-16-6.4-25.6-6.4c-10.667,0-18.133,2.133-24.533,11.733
	c0,0-4.267,6.4,2.133,18.133c0,0,12.8,16,32,30.933c7.467,6.4,12.8,12.8,17.067,20.267h20.267l23.467-35.2
	c-6.4-2.133-9.6-7.467-13.867-12.8C352,341.333,341.333,332.8,328.533,326.4z"/>
<path style="fill:#E8EAE9;" d="M299.733,356.267c3.2-5.333,10.667-16,14.933-21.333c2.133-2.133,2.133-6.4,0-8.533l0,0
	c-4.267-3.2-13.867-10.667-24.533-6.4s-17.067,20.267-3.2,32l8.533,5.333C296.533,358.4,298.667,357.333,299.733,356.267z"/>
<g>
</g>
<g>
</g>
<g>
</g>
<g>
</g>
<g>
</g>
<g>
</g>
<g>
</g>
<g>
</g>
<g>
</g>
<g>
</g>
<g>
</g>
<g>
</g>
<g>
</g>
<g>
</g>
<g>
</g>
</svg>
