<?xml version="1.0" encoding="iso-8859-1"?>
<!-- Generator: Adobe Illustrator 19.0.0, SVG Export Plug-In . SVG Version: 6.00 Build 0)  -->
<svg version="1.1" id="Capa_1" xmlns="http://www.w3.org/2000/svg" xmlns:xlink="http://www.w3.org/1999/xlink" x="0px" y="0px"
	 viewBox="0 0 512 512" style="enable-background:new 0 0 512 512;" xml:space="preserve">
<polygon style="fill:#80C7EA;" points="248.139,148.184 192.609,153.064 163.819,184.434 120.629,194.884 99.379,230.024 
	180.959,230.024 232.818,215.837 283.15,195.397 304.71,161.719 308.469,111.934 "/>
<polygon style="fill:#BDDEF6;" points="372.269,184.434 253.809,230.024 180.959,230.024 211.809,184.604 273.499,174.804 
	308.469,111.934 353.029,142.104 "/>
<polygon style="fill:#2C9CCC;" points="180.959,230.024 180.841,230.464 143.731,230.699 128.589,264.116 171.926,358.101 
	244.709,500.885 279.769,457.694 289.019,411.424 344.689,397.544 372.269,343.564 407.779,325.054 418.859,230.024 "/>
<polygon style="fill:#2788B3;" points="244.709,500.885 173.339,446.904 156.379,369.784 93.139,323.514 99.379,230.024 
	180.959,230.024 162.549,298.834 205.729,337.394 205.729,386.745 235.819,429.934 "/>
<path style="fill:#DEEEF9;" d="M245.877,105.664c-3.003-20.044-20.291-35.416-41.172-35.416c-6.077,0-11.845,1.313-17.05,3.653
	c-0.33-23.61-19.561-42.65-43.249-42.65c-18.821,0-34.827,12.021-40.779,28.802c-4.39-4.63-10.594-7.522-17.477-7.522
	c-13.303,0-24.087,10.784-24.087,24.087c0,0.47,0.017,0.937,0.044,1.4c-4.087-2.006-8.681-3.136-13.541-3.136
	c-17,0-30.782,13.782-30.782,30.782H245.877z"/>
<path style="fill:#ACD7F2;" d="M283.15,71.026c2.418-16.138,16.337-28.514,33.148-28.514c4.893,0,9.536,1.057,13.727,2.941
	c0.267-19.008,15.75-34.338,34.821-34.338c15.153,0,28.04,9.678,32.832,23.189c3.534-3.727,8.529-6.056,14.071-6.056
	c10.71,0,19.393,8.682,19.393,19.393c0,0.379-0.014,0.754-0.035,1.127c3.29-1.615,6.99-2.525,10.902-2.525
	c13.687,0,24.783,11.096,24.783,24.783H283.15z"/>
<polygon style="fill:#80C7EA;" points="331.549,174.804 312.299,197.274 275.809,203.434 253.809,230.024 344.689,230.024 
	387.174,215.132 399.849,190.954 "/>
<polygon style="fill:#BDDEF6;" points="418.859,230.024 344.689,230.024 399.849,190.954 "/>
<path style="fill:#80C7EA;" d="M504.5,237.523H7.5c-4.142,0-7.5-3.358-7.5-7.5s3.358-7.5,7.5-7.5h497c4.142,0,7.5,3.358,7.5,7.5
	S508.642,237.523,504.5,237.523z"/>
<g>
</g>
<g>
</g>
<g>
</g>
<g>
</g>
<g>
</g>
<g>
</g>
<g>
</g>
<g>
</g>
<g>
</g>
<g>
</g>
<g>
</g>
<g>
</g>
<g>
</g>
<g>
</g>
<g>
</g>
</svg>
