<svg height="480pt" viewBox="0 0 480 480" width="480pt" xmlns="http://www.w3.org/2000/svg"><g fill="#57a4ff"><path d="m264 200v272h80v-280l-40-32zm0 0"/><path d="m392 136v336h80v-344l-40-32zm0 0"/><path d="m8 312v160h80v-160l-40 40zm0 0"/><path d="m136 264v208h80v-216l-40-32zm0 0"/><path d="m392 136v336h80v-344l-40-32zm0 0"/><path d="m136 264v208h80v-216l-40-32zm0 0"/><path d="m8 312v160h80v-160l-40 40zm0 0"/><path d="m264 200v272h80v-280l-40-32zm0 0"/><path d="m8 312v160h80v-160l-40 40zm0 0"/><path d="m136 264v208h80v-216l-40-32zm0 0"/><path d="m264 200v272h80v-280l-40-32zm0 0"/><path d="m392 136v336h80v-344l-40-32zm0 0"/></g><path d="m91.0625 304.609375c-2.988281-1.253906-6.4375-.566406-8.71875 1.734375l-34.34375 34.34375-34.34375-34.34375c-2.289062-2.285156-5.730469-2.972656-8.71875-1.734375s-4.9375 4.15625-4.9375 7.390625v160c0 4.417969 3.582031 8 8 8h80c4.417969 0 8-3.582031 8-8v-160c0-3.234375-1.949219-6.152344-4.9375-7.390625zm-11.0625 159.390625h-64v-132.6875l26.34375 26.34375c3.125 3.121094 8.1875 3.121094 11.3125 0l26.34375-26.34375zm0 0" fill="#1e81ce"/><path d="m181 217.753906c-3.183594-2.550781-7.773438-2.292968-10.65625.589844l-40 40c-1.5 1.5-2.34375 3.535156-2.34375 5.65625v208c0 4.417969 3.582031 8 8 8h80c4.417969 0 8-3.582031 8-8v-216c0-2.429688-1.101562-4.730469-3-6.246094zm27 246.246094h-64v-196.6875l32.59375-32.59375 31.40625 25.121094zm0 0" fill="#1e81ce"/><path d="m309 153.753906c-3.183594-2.550781-7.773438-2.292968-10.65625.589844l-40 40c-1.5 1.5-2.34375 3.535156-2.34375 5.65625v272c0 4.417969 3.582031 8 8 8h80c4.417969 0 8-3.582031 8-8v-280c0-2.429688-1.101562-4.730469-3-6.246094zm27 310.246094h-64v-260.6875l32.59375-32.59375 31.40625 25.121094zm0 0" fill="#1e81ce"/><path d="m437 89.753906c-3.183594-2.550781-7.773438-2.292968-10.65625.589844l-40 40c-1.5 1.5-2.34375 3.535156-2.34375 5.65625v336c0 4.417969 3.582031 8 8 8h80c4.417969 0 8-3.582031 8-8v-344c0-2.429688-1.101562-4.730469-3-6.246094zm27 374.246094h-64v-324.6875l32.59375-32.59375 31.40625 25.121094zm0 0" fill="#1e81ce"/><path d="m479.382812 4.945312c-1.234374-2.992187-4.148437-4.94140575-7.382812-4.945312h-64c-4.417969 0-8 3.582031-8 8s3.582031 8 8 8h44.6875l-116.6875 116.6875-26.34375-26.34375c-3.125-3.121094-8.1875-3.121094-11.3125 0l-82.34375 82.34375-26.34375-26.34375c-3.125-3.121094-8.1875-3.121094-11.3125 0l-130.34375 130.34375-34.34375-34.34375c-3.140625-3.03125-8.128906-2.988281-11.214844.097656-3.085937 3.085938-3.128906 8.074219-.097656 11.214844l40 40c3.125 3.121094 8.1875 3.121094 11.3125 0l130.34375-130.34375 26.34375 26.34375c3.125 3.121094 8.1875 3.121094 11.3125 0l82.34375-82.34375 26.34375 26.34375c3.125 3.121094 8.1875 3.121094 11.3125 0l122.34375-122.34375v44.6875c0 4.417969 3.582031 8 8 8s8-3.582031 8-8v-64c-.003906-1.050781-.214844-2.085938-.617188-3.054688zm0 0" fill="#1e81ce"/></svg>