<svg height="480pt" viewBox="0 0 480 480.33788" width="480pt" xmlns="http://www.w3.org/2000/svg"><g fill="#57a4ff"><path d="m389.824219 61.601562-90.511719 90.472657 45.257812 45.246093c12.496094 12.496094 12.496094 32.761719 0 45.257813l-101.824218 101.824219c-12.5 12.496094-32.761719 12.496094-45.257813 0l-45.246093-45.257813-90.472657 90.511719 40.566407 40.570312c56.238281 56.234376 147.414062 56.234376 203.648437 0l124.410156-124.449218c56.234375-56.234375 56.234375-147.414063 0-203.648438zm0 0"/><path d="m389.824219 61.601562-90.511719 90.472657 45.257812 45.246093c12.496094 12.496094 12.496094 32.761719 0 45.257813l-101.824218 101.824219c-12.5 12.496094-32.761719 12.496094-45.257813 0l-45.246093-45.257813-90.472657 90.511719 40.566407 40.570312c56.238281 56.234376 147.414062 56.234376 203.648437 0l124.410156-124.449218c56.234375-56.234375 56.234375-147.414063 0-203.648438zm0 0"/><path d="m389.824219 61.601562-90.511719 90.472657 45.257812 45.246093c12.496094 12.496094 12.496094 32.761719 0 45.257813l-101.824218 101.824219c-12.5 12.496094-32.761719 12.496094-45.257813 0l-45.246093-45.257813-90.472657 90.511719 40.566407 40.570312c56.238281 56.234376 147.414062 56.234376 203.648437 0l124.410156-124.449218c56.234375-56.234375 56.234375-147.414063 0-203.648438zm0 0"/></g><path d="m436.050781 96.472656-40.570312-40.566406c-3.171875-3.003906-8.136719-3.003906-11.3125 0l-90.503907 90.496094c-3.121093 3.121094-3.121093 8.1875 0 11.3125l45.25 45.253906c9.367188 9.371094 9.367188 24.5625 0 33.9375l-101.824218 101.839844c-9.371094 9.367187-24.566406 9.367187-33.9375 0l-45.253906-45.25c-3.125-3.121094-8.191407-3.121094-11.3125 0l-90.511719 90.503906c-3.125 3.125-3.125 8.1875 0 11.3125l40.566406 40.570312c59.394531 59.273438 155.566406 59.273438 214.960937 0l124.449219-124.449218c59.269531-59.398438 59.269531-155.5625 0-214.960938zm-11.3125 203.648438-124.449219 124.449218c-53.144531 53.027344-139.191406 53.027344-192.335937 0l-34.914063-34.914062 79.203126-79.199219 39.589843 39.59375c15.632813 15.59375 40.9375 15.59375 56.570313 0l101.824218-101.816406c15.617188-15.621094 15.617188-40.949219 0-56.570313l-39.59375-39.589843 79.199219-79.199219 34.914063 34.910156c53.023437 53.148438 53.019531 139.191406-.007813 192.335938zm0 0" fill="#1e81ce"/><path d="m64.167969 224v-80c.027343-22.078125 17.921875-39.972656 40-40h56v32c0 2.953125 1.625 5.664062 4.226562 7.054688 2.601563 1.394531 5.757813 1.242187 8.214844-.398438l96-64c2.226563-1.484375 3.5625-3.980469 3.5625-6.65625 0-2.671875-1.335937-5.171875-3.5625-6.65625l-96-64c-2.457031-1.636719-5.613281-1.789062-8.214844-.398438-2.601562 1.394532-4.226562 4.105469-4.226562 7.054688v32h-56c-57.410157.066406-103.933594 46.589844-104 104v80c0 4.417969 3.582031 8 8 8h48c4.417969 0 8-3.582031 8-8zm-16-8h-32v-72c.058593-48.574219 39.421875-87.941406 88-88h64c4.417969 0 8-3.582031 8-8v-25.046875l73.601562 49.046875-73.601562 49.050781v-25.050781c0-4.417969-3.582031-8-8-8h-64c-30.914063.035156-55.964844 25.085938-56 56zm0 0" fill="#1e81ce"/></svg>