<svg height="480pt" viewBox="0 0 480 480" width="480pt" xmlns="http://www.w3.org/2000/svg"><path d="m8 8v464h84.320312c-7.800781-13.445312-4.808593-30.554688 7.09375-40.554688 11.902344-10.003906 29.269532-10.003906 41.171876 0 11.902343 10 14.894531 27.109376 7.09375 40.554688h184.640624c-7.800781-13.445312-4.808593-30.554688 7.09375-40.554688 11.902344-10.003906 29.269532-10.003906 41.171876 0 11.902343 10 14.894531 27.109376 7.09375 40.554688h84.320312v-464zm232 48c26.507812 0 48 21.492188 48 48s-21.492188 48-48 48-48-21.492188-48-48 21.492188-48 48-48zm112 280h-224v-48c0-61.855469 50.144531-112 112-112s112 50.144531 112 112zm0 0" fill="#57a4ff"/><g fill="#1e81ce"><path d="m240 160c30.929688 0 56-25.070312 56-56s-25.070312-56-56-56-56 25.070312-56 56c.035156 30.914062 25.085938 55.964844 56 56zm0-96c22.089844 0 40 17.910156 40 40s-17.910156 40-40 40-40-17.910156-40-40c.027344-22.082031 17.917969-39.972656 40-40zm0 0"/><path d="m128 344h224c4.417969 0 8-3.582031 8-8v-48c0-66.273438-53.726562-120-120-120s-120 53.726562-120 120v48c0 4.417969 3.582031 8 8 8zm8-56c0-57.4375 46.5625-104 104-104s104 46.5625 104 104v40h-208zm0 0"/><path d="m472 0h-464c-4.417969 0-8 3.582031-8 8v464c0 4.417969 3.582031 8 8 8h84.320312c2.859376 0 5.5-1.523438 6.929688-4 1.425781-2.476562 1.425781-5.523438-.003906-8-5.855469-10.085938-3.617188-22.921875 5.308594-30.425781 8.929687-7.507813 21.960937-7.507813 30.890624 0 8.925782 7.503906 11.164063 20.339843 5.308594 30.425781-1.429687 2.476562-1.429687 5.523438-.003906 8 1.429688 2.476562 4.070312 4 6.929688 4h184.640624c2.859376 0 5.5-1.523438 6.929688-4 1.425781-2.476562 1.425781-5.523438-.003906-8-5.855469-10.085938-3.617188-22.921875 5.308594-30.425781 8.929687-7.507813 21.960937-7.507813 30.890624 0 8.925782 7.503906 11.164063 20.339843 5.308594 30.425781-1.429687 2.476562-1.429687 5.523438-.003906 8 1.429688 2.476562 4.070312 4 6.929688 4h84.320312c4.417969 0 8-3.582031 8-8v-464c0-4.417969-3.582031-8-8-8zm-8 464h-64.800781c.539062-2.632812.808593-5.3125.800781-8 0-22.089844-17.910156-40-40-40s-40 17.910156-40 40c-.007812 2.6875.261719 5.367188.800781 8h-161.601562c.539062-2.632812.808593-5.3125.800781-8 0-22.089844-17.910156-40-40-40s-40 17.910156-40 40c-.007812 2.6875.261719 5.367188.800781 8h-64.800781v-448h448zm0 0"/></g></svg>