<svg height="480pt" viewBox="0 -30 480 480" width="480pt" xmlns="http://www.w3.org/2000/svg"><g fill="#57a4ff"><path d="m424 8c0 26.507812 21.492188 48 48 48v-48zm0 0"/><path d="m424 328h48v-48c-26.507812 0-48 21.492188-48 48zm0 0"/><path d="m56 8h-48v48c26.507812 0 48-21.492188 48-48zm0 0"/><path d="m8 280v48h48c0-26.507812-21.492188-48-48-48zm0 0"/><path d="m185.921875 330.238281-47.761719 47.683594 28.320313 5.679687 5.597656 28.320313 53.523437-53.523437c-16.414062-3.8125-30.664062-13.925782-39.679687-28.160157zm0 0"/><path d="m254.398438 358.398438 53.523437 53.523437 5.597656-28.320313 28.320313-5.679687-47.761719-47.683594c-9.015625 14.234375-23.265625 24.347657-39.679687 28.160157zm0 0"/><path d="m240 232c-35.347656 0-64 28.652344-64 64-.027344 11.246094 2.957031 22.296875 8.640625 32 .398437.71875.800781 1.519531 1.28125 2.238281 9.015625 14.234375 23.265625 24.347657 39.679687 28.160157 9.480469 2.136718 19.316407 2.136718 28.796876 0 16.414062-3.8125 30.664062-13.925782 39.679687-28.160157.480469-.71875.882813-1.519531 1.28125-2.238281 5.683594-9.703125 8.667969-20.753906 8.640625-32 0-35.347656-28.652344-64-64-64zm0 0"/><path d="m272 80c0 17.671875-14.328125 32-32 32s-32-14.328125-32-32 14.328125-32 32-32 32 14.328125 32 32zm0 0"/></g><path d="m472 0h-464c-4.417969 0-8 3.582031-8 8v320c0 4.417969 3.582031 8 8 8h160.800781l-36.328125 36.257812c-2.09375 2.082032-2.867187 5.148438-2.011718 7.976563.851562 2.828125 3.195312 4.957031 6.089843 5.535156l23.082031 4.628907 4.566407 23.082031c.574219 2.894531 2.695312 5.238281 5.519531 6.09375.753906.234375 1.539062.351562 2.328125.347656 2.121094-.003906 4.15625-.84375 5.65625-2.347656l50.617187-50.613281c7.703126 1.386718 15.59375 1.386718 23.296876 0l50.648437 50.640624c1.5 1.5 3.53125 2.34375 5.65625 2.34375.789063.003907 1.570313-.113281 2.324219-.34375 2.824218-.859374 4.945312-3.203124 5.523437-6.097656l4.566407-23.078125 23.078124-4.632812c2.898438-.578125 5.238282-2.707031 6.09375-5.535157.855469-2.824218.082032-5.894531-2.011718-7.976562l-36.296875-36.28125h160.800781c4.417969 0 8-3.582031 8-8v-320c0-4.417969-3.582031-8-8-8zm-55.359375 320h-108.800781c.542968-1.542969 1.007812-3.113281 1.449218-4.6875.070313-.273438.175782-.535156.246094-.800781.691406-2.679688 1.226563-5.394531 1.601563-8.136719.09375-.648438.175781-1.285156.246093-1.933594.375-2.800781.582032-5.617187.617188-8.441406.183594-26.851562-14.589844-51.578125-38.328125-64.136719-23.734375-12.554687-52.488281-10.859375-74.585937 4.398438-22.09375 15.261719-33.863282 41.546875-30.527344 68.195312.082031.621094.152344 1.238281.242187 1.863281.394531 2.796876.953125 5.566407 1.679688 8.296876.039062.152343.09375.304687.136719.453124.453124 1.65625.941406 3.3125 1.519531 4.929688h-108.777344c-3.566406-24.527344-22.832031-43.792969-47.359375-47.359375v-209.28125c24.527344-3.566406 43.792969-22.832031 47.359375-47.359375h353.28125c3.566406 24.527344 22.832031 43.792969 47.359375 47.359375v209.28125c-24.527344 3.566406-43.792969 22.832031-47.359375 47.359375zm47.359375-272.800781c-15.699219-3.234375-27.964844-15.5-31.199219-31.199219h31.199219zm-416.800781-31.199219c-3.234375 15.699219-15.5 27.964844-31.199219 31.199219v-31.199219zm-31.199219 272.800781c15.699219 3.234375 27.964844 15.5 31.199219 31.199219h-31.199219zm161.015625 106.863281-2.6875-13.601562c-.628906-3.167969-3.101563-5.648438-6.273437-6.285156l-13.65625-2.761719 30.617187-30.550781c.382813.445312.800781.800781 1.222656 1.289062 1.042969 1.167969 2.109375 2.296875 3.203125 3.390625.734375.71875 1.460938 1.429688 2.222656 2.113281 1.167969 1.054688 2.398438 2.054688 3.609376 3.039063.796874.605469 1.527343 1.238281 2.328124 1.824219 1.390626 1.015625 2.839844 1.941406 4.292969 2.863281.699219.429687 1.371094.910156 2.082031 1.328125 2.167969 1.261719 4.402344 2.414062 6.6875 3.449219l.160157.078125zm50.398437-45.0625c-14.402343-3.394531-26.902343-12.300781-34.820312-24.800781-.21875-.320312-.417969-.65625-.59375-1l-.449219-.800781c-4.992187-8.484375-7.601562-18.15625-7.550781-28 0-30.929688 25.070312-56 56-56s56 25.070312 56 56c.046875 9.828125-2.5625 19.488281-7.542969 27.960938l-.457031.839843c-.203125.410157-.433594.808594-.6875 1.191407-7.914062 12.429687-20.375 21.273437-34.71875 24.640624-8.300781 1.832032-16.898438 1.820313-25.195312-.03125zm84.53125 25.160157c-3.171874.636719-5.644531 3.117187-6.273437 6.285156l-2.6875 13.601563-33.824219-33.808594.113282-.054688c2.335937-1.054687 4.617187-2.230468 6.832031-3.519531.519531-.304687 1.007812-.65625 1.519531-.976563 1.671875-1.023437 3.3125-2.097656 4.894531-3.257812.640625-.472656 1.25-.984375 1.878907-1.472656 1.410156-1.109375 2.785156-2.246094 4.105468-3.453125.617188-.5625 1.207032-1.128907 1.792969-1.707031 1.277344-1.246094 2.507813-2.539063 3.6875-3.878907.328125-.367187.695313-.6875 1.007813-1.054687l30.609374 30.550781zm120.855469-55.761719c3.234375-15.699219 15.5-27.964844 31.199219-31.199219v31.199219zm0 0" fill="#1e81ce"/><path d="m320 176h-160c-4.417969 0-8 3.582031-8 8s3.582031 8 8 8h160c4.417969 0 8-3.582031 8-8s-3.582031-8-8-8zm0 0" fill="#1e81ce"/><path d="m120 160h240c4.417969 0 8-3.582031 8-8s-3.582031-8-8-8h-240c-4.417969 0-8 3.582031-8 8s3.582031 8 8 8zm0 0" fill="#1e81ce"/><path d="m136 256h-64c-4.417969 0-8 3.582031-8 8s3.582031 8 8 8h64c4.417969 0 8-3.582031 8-8s-3.582031-8-8-8zm0 0" fill="#1e81ce"/><path d="m408 256h-64c-4.417969 0-8 3.582031-8 8s3.582031 8 8 8h64c4.417969 0 8-3.582031 8-8s-3.582031-8-8-8zm0 0" fill="#1e81ce"/><path d="m240 120c22.089844 0 40-17.910156 40-40s-17.910156-40-40-40-40 17.910156-40 40c.027344 22.082031 17.917969 39.972656 40 40zm0-64c13.253906 0 24 10.746094 24 24s-10.746094 24-24 24-24-10.746094-24-24 10.746094-24 24-24zm0 0" fill="#1e81ce"/></svg>