<svg height="480pt" viewBox="0 0 480 480" width="480pt" xmlns="http://www.w3.org/2000/svg"><path d="m176 240h-168c-.097656 61.554688 24.347656 120.605469 67.921875 164.078125l118.796875-118.796875c-11.988281-12.019531-18.71875-28.304688-18.71875-45.28125zm0 0" fill="#57a4ff"/><path d="m240 8v168c28.957031.023438 54.289062 19.484375 61.773438 47.457031 7.484374 27.972657-4.742188 57.484375-29.816407 71.964844-25.078125 14.480469-56.75 10.320313-77.238281-10.140625l-118.796875 118.796875c74.253906 74.226563 189.101563 89.335937 280.023437 36.835937 90.921876-52.5 135.257813-159.515624 108.09375-260.933593-27.160156-101.417969-119.046874-171.953125-224.039062-171.980469zm0 0" fill="#57a4ff"/><path d="m240 0c-132.546875 0-240 107.453125-240 240s107.453125 240 240 240 240-107.453125 240-240c-.148438-132.484375-107.515625-239.851562-240-240zm-163.945312 392.625c-36.832032-39.351562-58.109376-90.753906-59.863282-144.625h152.289063c1.480469 13.511719 6.78125 26.320312 15.28125 36.929688zm124.34375-112.976562c-18.914063-18.867188-21.867188-48.472657-7.050782-70.707032 14.820313-22.230468 43.277344-30.898437 67.972656-20.703125 24.695313 10.199219 38.75 36.421875 33.5625 62.632813-5.1875 26.207031-28.164062 45.105468-54.882812 45.128906-14.84375.015625-29.089844-5.867188-39.601562-16.351562zm31.601562-263.449219v152.273437c-33.394531 3.777344-59.75 30.132813-63.527344 63.527344h-152.273437c4.328125-117.34375 98.457031-211.472656 215.800781-215.800781zm8 447.800781c-56.667969.15625-111.257812-21.324219-152.625-60.054688l107.6875-107.699218c23.914062 19.136718 57.316406 21.050781 83.257812 4.773437 25.941407-16.277343 38.746094-47.1875 31.917969-77.042969-6.832031-29.855468-31.800781-52.121093-62.238281-55.503906v-152.273437c121.515625 5.085937 216.773438 106.203125 214.597656 227.804687-2.171875 121.601563-100.980468 219.253906-222.597656 219.996094zm0 0" fill="#1e81ce"/></svg>