<svg height="480pt" viewBox="0 -2 480 480" width="480pt" xmlns="http://www.w3.org/2000/svg"><path d="m272 316.25h-64l-200-144v296h464v-296zm0 0" fill="#57a4ff"/><path d="m224 284.25h32v-128h32l-48-80-48 80h32zm0 0" fill="#57a4ff"/><g fill="#1e81ce"><path d="m480 172.1875c-.007812-.667969-.101562-1.332031-.273438-1.976562-.0625-.222657-.160156-.421876-.238281-.640626-.148437-.425781-.328125-.839843-.542969-1.238281-.128906-.222656-.28125-.433593-.433593-.648437-.238281-.34375-.507813-.667969-.800781-.96875-.191407-.199219-.394532-.386719-.605469-.558594-.144531-.121094-.257813-.273438-.417969-.382812l-222.617188-161.203126c-8.390624-6.09375-19.75-6.09375-28.140624 0l-222.617188 161.203126c-.160156.109374-.273438.261718-.417969.382812-.210937.171875-.414062.359375-.605469.558594-.292968.300781-.5625.625-.800781.96875-.152343.214844-.304687.425781-.433593.648437-.214844.398438-.394532.8125-.542969 1.238281-.078125.21875-.175781.417969-.238281.640626-.171876.644531-.2656255 1.308593-.273438 1.976562v296.0625c0 4.417969 3.582031 8 8 8h464c4.417969 0 8-3.582031 8-8zm-244.6875-154.65625c2.796875-2.023438 6.578125-2.023438 9.375 0l213.648438 154.71875-188.921876 136h-58.828124l-188.921876-136zm-219.3125 442.71875v-272.382812l187.328125 134.878906c1.359375.980468 2.996094 1.507812 4.671875 1.503906h64c1.675781.003906 3.3125-.523438 4.671875-1.503906l187.328125-134.878906v272.382812zm0 0"/><path d="m185.039062 160.195312c1.421876 2.507813 4.078126 4.054688 6.960938 4.054688h24v120c0 4.417969 3.582031 8 8 8h32c4.417969 0 8-3.582031 8-8v-120h24c2.882812 0 5.542969-1.550781 6.960938-4.058594 1.421874-2.511718 1.378906-5.589844-.105469-8.058594l-48-80c-1.550781-2.261718-4.113281-3.613281-6.855469-3.613281s-5.304688 1.351563-6.855469 3.613281l-48 80c-1.488281 2.472657-1.527343 5.550782-.105469 8.0625zm54.960938-68.390624 33.871094 56.445312h-17.871094c-4.417969 0-8 3.582031-8 8v120h-16v-120c0-4.417969-3.582031-8-8-8h-17.871094zm0 0"/></g></svg>