<svg height="480pt" viewBox="-56 0 480 480.0401" width="480pt" xmlns="http://www.w3.org/2000/svg"><g fill="#57a4ff"><path d="m280.019531 40.039062v32h48v304l-64 64h-224v-368h48v-32h-80v432h352v-432zm0 0"/><path d="m88.019531 88.039062c.027344 8.828126 7.175781 15.976563 16 16h160c8.824219-.023437 15.972657-7.171874 16-16v-48h-64c0 17.675782-14.328125 32-32 32s-32-14.324218-32-32h-64zm0 0"/><path d="m264.019531 440.039062 64-64h-64zm0 0"/><path d="m152.019531 298.761719-37.28125-37.203125-22.636719 22.5625 59.917969 59.917968 134.402344-134.398437-22.640625-22.640625zm0 0"/></g><path d="m360.019531 32.039062h-136.800781c-3.785156-18.640624-20.175781-32.039062-39.199219-32.039062-19.023437 0-35.414062 13.398438-39.199219 32.039062h-136.800781c-4.417969 0-7.9999998 3.582032-7.9999998 8v432c0 4.417969 3.5820308 8 7.9999998 8h352c4.417969 0 8-3.582031 8-8v-432c0-4.417968-3.582031-8-8-8zm-40 336h-56c-4.417969 0-8 3.582032-8 8v56h-208v-352h32v8c0 13.257813 10.746094 24 24 24h160c13.253907 0 24-10.742187 24-24v-8h32zm-11.3125 16-36.6875 36.6875v-36.6875zm-124.6875-368c13.253907 0 24 10.746094 24 24 0 13.257813-10.746093 24-24 24-13.253906 0-24-10.742187-24-24 0-13.253906 10.746094-24 24-24zm-39.199219 32c0 .144532.097657.273438.128907.417969.492187 2.277344 1.1875 4.507813 2.070312 6.664063.3125.800781.730469 1.453125 1.089844 2.191406.683594 1.46875 1.457031 2.898438 2.320313 4.273438.511718.796874 1.085937 1.511718 1.65625 2.269531.878906 1.195312 1.824218 2.34375 2.832031 3.433593.671875.710938 1.367187 1.375 2.085937 2.039063 1.074219.992187 2.199219 1.917969 3.375 2.785156.800782.582031 1.601563 1.144531 2.402344 1.671875 1.273438.789063 2.59375 1.503906 3.949219 2.144532.847656.414062 1.679687.847656 2.5625 1.199218 1.550781.585938 3.140625 1.082032 4.75 1.480469.800781.199219 1.554687.480469 2.402343.640625 5.015626 1.023438 10.183594 1.023438 15.199219 0 .800781-.160156 1.597657-.441406 2.398438-.640625 1.613281-.398437 3.199219-.894531 4.753906-1.480469.878906-.351562 1.710937-.800781 2.558594-1.199218 1.355469-.640626 2.675781-1.355469 3.953125-2.144532.800781-.527344 1.597656-1.089844 2.398437-1.671875 1.175781-.867187 2.304688-1.792969 3.378907-2.785156.71875-.664063 1.414062-1.328125 2.085937-2.039063 1.007813-1.089843 1.953125-2.238281 2.832031-3.433593.566406-.800781 1.144532-1.480469 1.65625-2.269531.859375-1.375 1.636719-2.804688 2.320313-4.273438.359375-.738281.800781-1.433594 1.085937-2.191406.886719-2.15625 1.578125-4.386719 2.074219-6.664063 0-.144531.09375-.273437.128906-.417969h48.75v40c0 4.417969-3.582031 8-8 8h-160c-4.417969 0-8-3.582031-8-8v-40zm207.199219 416h-336v-416h64v16h-40c-4.417969 0-8 3.582032-8 8v368c0 4.417969 3.582031 8 8 8h224c2.121094-.003906 4.152344-.847656 5.65625-2.34375l64-64c.671875-.675781 1.214844-1.472656 1.601563-2.34375.109375-.246093.175781-.496093.261718-.75.230469-.664062.367188-1.355468.410157-2.058593 0-.175781.101562-.328125.101562-.503907v-304c0-4.417968-3.582031-8-8-8h-40.03125v-16h64zm0 0" fill="#1e81ce"/><path d="m258.125 181.34375-106.105469 106.113281-31.625-31.5625c-3.121093-3.109375-8.171875-3.109375-11.292969 0l-22.679687 22.546875c-1.503906 1.5-2.347656 3.535156-2.347656 5.660156 0 2.121094.84375 4.15625 2.347656 5.660157l59.917969 59.917969c3.125 3.125 8.1875 3.125 11.3125 0l134.398437-134.398438c3.125-3.125 3.125-8.1875 0-11.3125l-22.640625-22.640625c-3.125-3.101563-8.167968-3.09375-11.285156.015625zm-106.105469 151.382812-48.597656-48.597656 11.308594-11.289062 31.640625 31.558594c3.125 3.121093 8.183594 3.121093 11.304687 0l106.105469-106.085938 11.328125 11.328125zm0 0" fill="#1e81ce"/></svg>