<svg height="480pt" viewBox="-40 0 480 480" width="480pt" xmlns="http://www.w3.org/2000/svg"><g fill="#57a4ff"><path d="m344 424h-288v-368h-48v416h336zm0 0"/><path d="m392 104-96-96v96zm0 0"/><path d="m200 136h32v160h-32zm0 0"/><path d="m240 352c0 13.253906-10.746094 24-24 24s-24-10.746094-24-24 10.746094-24 24-24 24 10.746094 24 24zm0 0"/></g><path d="m399.894531 103.496094c-.039062-.699219-.175781-1.394532-.40625-2.054688-.089843-.257812-.152343-.503906-.265625-.753906-.386718-.871094-.929687-1.664062-1.597656-2.34375l-96-96c-.683594-.671875-1.480469-1.210938-2.351562-1.601562-.242188-.101563-.472657-.167969-.722657-.253907-.679687-.234375-1.390625-.375-2.109375-.4179685-.128906.0195313-.273437-.0703125-.441406-.0703125h-240c-4.417969 0-8 3.582031-8 8v40h-40c-4.417969 0-8 3.582031-8 8v416c0 4.417969 3.582031 8 8 8h336c4.417969 0 8-3.582031 8-8v-40h40c4.417969 0 8-3.582031 8-8v-320c0-.175781-.089844-.328125-.105469-.503906zm-27.207031-7.496094h-68.6875v-68.6875zm-36.6875 368h-320v-400h32v360c0 4.417969 3.582031 8 8 8h280zm-272-48v-400h224v88c0 4.417969 3.582031 8 8 8h88v304zm0 0" fill="#1e81ce"/><path d="m240 128h-48v176h48zm-16 160h-16v-144h16zm0 0" fill="#1e81ce"/><path d="m216 320c-17.671875 0-32 14.328125-32 32s14.328125 32 32 32 32-14.328125 32-32-14.328125-32-32-32zm0 48c-8.835938 0-16-7.164062-16-16s7.164062-16 16-16 16 7.164062 16 16-7.164062 16-16 16zm0 0" fill="#1e81ce"/></svg>