<svg height="480pt" viewBox="-36 0 480 480.21245" width="480pt" xmlns="http://www.w3.org/2000/svg"><g fill="#57a4ff"><path d="m48.125 258.796875c-.023438-7.851563 1.414062-15.636719 4.238281-22.960937 6.285157-16.320313 18.976563-29.355469 35.121094-36.078126l15.199219-2c27.347656-3.496093 53.667968-12.652343 77.28125-26.882812 13.253906-7.945312 25.550781-17.394531 36.640625-28.160156l23.121093-22.558594 8.320313 4.160156 23.757813 11.839844 2.242187 1.121094c28.628906 14.179687 49.761719 40.007812 58 70.878906h36.078125v-64c0-2.71875-.078125-5.359375-.320312-8-2.71875-32.246094-21.488282-60.957031-49.9375-76.382812-28.449219-15.425782-62.753907-15.492188-91.261719-.175782-29.652344-42.464844-83.09375-61.265625-132.800781-46.722656-52.558594 14.960938-87.976563 64.046875-85.601563 118.640625 0 1.550781.078125 3.097656.242187 4.640625h-.320312v64c-.019531 34.621094 11.210938 68.3125 32 96l8.160156 10.878906c-.082031-2.71875-.160156-5.359375-.160156-8.078125zm0 0"/><path d="m136.125 248.15625c0 4.417969-3.582031 8-8 8s-8-3.582031-8-8 3.582031-8 8-8 8 3.582031 8 8zm0 0"/><path d="m264.125 248.15625c0 4.417969-3.582031 8-8 8s-8-3.582031-8-8 3.582031-8 8-8 8 3.582031 8 8zm0 0"/><path d="m216.125 376.15625h-32c-8.835938 0-16 7.164062-16 16s7.164062 16 16 16h32c8.835938 0 16-7.164062 16-16s-7.164062-16-16-16zm0 0"/></g><path d="m144.125 248.15625c0 8.835938-7.164062 16-16 16s-16-7.164062-16-16 7.164062-16 16-16 16 7.164062 16 16zm0 0" fill="#1e81ce"/><path d="m272.125 248.15625c0 8.835938-7.164062 16-16 16s-16-7.164062-16-16 7.164062-16 16-16 16 7.164062 16 16zm0 0" fill="#1e81ce"/><path d="m384.125 200.15625h-8v-56s-.25-10.0625-.648438-10.992188c-5.855468-52.738281-50.289062-92.726562-103.351562-93.007812-14.855469-.035156-29.546875 3.136719-43.0625 9.304688-32.40625-41.519532-86.855469-59.074219-137.410156-44.296876-55.972656 15.988282-93.75 68.1875-91.449219 126.351563 0 1.03125-.078125 68.640625-.078125 68.640625.0625 16.265625 2.488281 32.433594 7.199219 48-4.789063 9.984375-7.2500002 20.925781-7.199219 32 0 31.398438 17.601562 56 40 56 1.257812-.066406 2.511719-.21875 3.75-.457031.089844.378906.160156.800781.242188 1.167969.664062 3.480468 1.511718 6.960937 2.398437 10.191406.3125 1.265625.632813 2.402344 1.007813 3.617187 0 .167969.089843.328125.128906.488281l2.039062 6.59375c.578125 1.679688 1.136719 3.320313 1.722656 4.796876.597657 1.601562 1.199219 3.265624 1.75 4.539062.246094.699219.542969 1.382812.882813 2.046875.863281 2.167969 1.742187 4.335937 2.679687 6.289063 1.023438 2.304687 2.214844 4.6875 3.292969 6.773437 1.082031 2.089844 2.082031 4.152344 3.203125 6.144531.117188.234375.238282.449219.328125.609375.941407 1.648438 1.886719 3.199219 2.910157 4.917969.800781 1.394531 1.695312 2.792969 2.585937 4.175781l1.214844 1.914063c1.855469 2.878906 3.800781 5.671875 5.800781 8.335937 1.175781 1.601563 2.398438 3.199219 3.679688 4.800781 1.902343 2.398438 3.894531 4.800782 6.03125 7.277344 25.882812 29.28125 60.324218 49.671875 98.441406 58.289063l6.148437 1.359375c1.140625.246094 2.320313.246094 3.457031 0l6.183594-1.367188c38.160156-8.621094 72.632813-29.046875 98.519532-58.375 5.527343-6.367187 10.632812-13.09375 15.28125-20.128906h6.320312c30.914062-.035156 55.964844-25.085938 56-56v-16h8c13.253906 0 24-10.746094 24-24v-80c0-13.253906-10.746094-24-24-24zm-367.921875-68.886719c-2.148437-50.878906 30.804687-96.617187 79.746094-110.679687 46.429687-13.648438 96.386719 3.890625 124.097656 43.566406 2.320313 3.320312 6.753906 4.382812 10.324219 2.472656 12.832031-6.914062 27.183594-10.511718 41.753906-10.472656 45.695312.226562 83.707031 35.207031 87.710938 80.726562.21875 2.402344.289062 4.800782.289062 7.273438v56h-22.273438c-9.8125-30.507812-31.53125-55.761719-60.230468-70.03125l-34.296875-17.128906c-3.046875-1.519532-6.722657-.945313-9.160157 1.433594l-23.144531 22.527343c-10.65625 10.332031-22.464843 19.40625-35.199219 27.039063-22.664062 13.6875-47.941406 22.476562-74.207031 25.800781l-15.199219 2c-.703124.097656-1.386718.28125-2.042968.550781-18.113282 7.621094-32.355469 22.277344-39.445313 40.609375-3.195312 8.238281-4.824219 17.003907-4.800781 25.839844v23.261719c-15.613281-24.46875-23.9375-52.875-24-81.902344 0 0 .078125-67.335938.078125-68.886719zm-.078125 148.886719c.003906-2.605469.167969-5.207031.488281-7.792969 4.730469 10.082031 10.464844 19.660157 17.113281 28.59375l6.710938 8.953125c.101562 1.597656.207031 3.199219.335938 4.222656.085937 1.785157.246093 3.574219.496093 5.359376v.609374c-13.074219 1.207032-25.144531-17.601562-25.144531-39.945312zm270.320312 129.601562c-5.15625 5.832032-10.703124 11.304688-16.609374 16.375-21.011719 18.144532-46.183594 30.808594-73.277344 36.863282l-4.433594.96875-4.398438-.976563c-34.789062-7.859375-66.226562-26.460937-89.859374-53.175781-1.925782-2.230469-3.78125-4.472656-5.542969-6.6875-1.152344-1.464844-2.296875-2.914062-3.398438-4.417969-1.816406-2.398437-3.542969-4.894531-5.136719-7.359375l-1.230468-1.941406c-.800782-1.195312-1.546875-2.402344-2.402344-3.90625l-2.398438-4.046875c-.117187-.242187-.246093-.476563-.394531-.703125-.039062-.101562-.089843-.195312-.140625-.289062-.953125-1.6875-1.839844-3.375-2.824218-5.425782-.984376-2.046875-2.089844-4.109375-3.089844-6.34375-.886719-1.832031-1.601563-3.664062-2.625-6.109375-.21875-.449219-.410156-.90625-.574219-1.378906-.59375-1.398437-1.113281-2.816406-1.710937-4.40625-.546876-1.382813-1.015626-2.769531-1.488282-4.183594l-1.722656-5.527343c-.046875-.238282-.109375-.472657-.183594-.707032-.351562-1.117187-.640625-2.09375-.957031-3.375-.800781-3-1.601563-6.078125-2.226563-9.382812-.289062-1.304688-.574218-2.609375-.878906-4.351563-.339844-1.417969-.578125-2.855469-.71875-4.304687 0-.082032-.058594-.144532-.074218-.222656-.015626-.292969-.054688-.585938-.113282-.875 0-.222657-.109375-.976563-.160156-1.199219-.207031-1.085938-.335938-2.238281-.582031-3.871094 0-.371094-.027344-.738281-.078125-1.105469-.203125-1.429687-.347656-2.871094-.449219-4.800781-.144531-1.308594-.226563-2.628906-.3125-4l-.128906-2.316406c-.078125-2.5625-.152344-5.058594-.152344-7.625v-40.152344c-.027344-6.859375 1.226563-13.660156 3.695313-20.054687 5.398437-13.929688 16.113281-25.140626 29.785156-31.160157l14.082031-1.859375c28.453125-3.609375 55.835937-13.136718 80.390625-27.964844 13.785156-8.269531 26.570312-18.09375 38.105469-29.289062l19.054687-18.59375 29.238282 14.570312c26.617187 13.1875 46.25 37.21875 53.867187 65.925782.816406 2.832031 1.480469 5.703125 1.992187 8.601562 1.175782 6.109375 1.761719 12.320313 1.742188 18.542969v61.441406c0 1.597657 0 3.199219-.078125 5.199219l-.066406 2.601562c-.230469 4.199219-.535157 8.238282-1.0625 12.367188v.136719.109375c-.136719 1.082031-.273438 2.234375-.578125 4-.226563 2.136718-.574219 4.257812-1.039063 6.351562-.792969 4.542969-1.816406 9.039063-3.0625 13.472656-.28125 1.113282-.5625 2.160157-.953125 3.410157l-1.871094 6.03125c-.472656 1.414062-.945312 2.800781-1.601562 4.367187-.527344 1.410156-1.046875 2.824219-1.785156 4.585938l-1.359375 3.3125c-.542969 1.269531-1.078125 2.542968-1.792969 4-.902344 2.015625-1.941406 4.109375-3.09375 6.335937-.96875 2.015625-2.015625 3.949219-3.015625 5.742188-.59375 1.039062-1.207031 2.078125-1.863281 3.199219h-66.25c-3.371094-9.5625-12.386719-15.976563-22.527344-16.023438h-32c-13.253906 0-24 10.746094-24 24s10.746094 24 24 24h32c10.132812-.042969 19.148438-6.445312 22.527344-16h55.550781c-2.460937 3.257812-5.039063 6.464844-7.757813 9.601562zm-62.320312-17.601562c0 4.417969-3.582031 8-8 8h-32c-4.417969 0-8-3.582031-8-8s3.582031-8 8-8h32c4.417969 0 8 3.582031 8 8zm136-48c-.066406 20.789062-16.074219 38.046875-36.800781 39.671875.25-.480469.535156-.96875.761719-1.441406 1.183593-2.292969 2.398437-4.679688 3.296874-6.765625.71875-1.488282 1.351563-2.976563 1.980469-4.464844l.800781-1.792969c.058594-.125.375-.925781.425782-1.054687l.34375-.878906c.679687-1.601563 1.289062-3.265626 1.816406-4.714844.65625-1.597656 1.214844-3.277344 1.789062-4.957032l.457032-1.488281c.039062-.105469.105468-.175781.136718-.273437l1.296876-4.335938.109374-.359375c.449219-1.441406.800782-2.800781 1.128907-4.0625 1.351562-4.777343 2.457031-9.621093 3.304687-14.515625.34375-1.597656.617188-3.109375.800782-4.566406h18.351562zm32-40c0 4.417969-3.582031 8-8 8h-40.464844c.121094-1.601562.214844-3.335938.304688-5.121094l.070312-2.527344c.089844-1.878906.089844-3.671874.089844-5.550781v-61.441406c0-3.648437-.175781-7.277344-.511719-10.863281-.113281-1.128906-.34375-2.207032-.480469-3.320313-.304687-2.398437-.574218-4.800781-1.03125-7.199219h42.023438c4.417969 0 8 3.582032 8 8zm0 0" fill="#1e81ce"/></svg>