<svg height="480pt" viewBox="-32 0 480 480.33231" width="480pt" xmlns="http://www.w3.org/2000/svg"><g fill="#57a4ff"><path d="m224.167969 384.332031 24-32-24.082031 32zm0 0"/><path d="m113.445312 168.414062c.128907-.386718.328126-.738281.472657-1.105468.144531-.367188.328125-.800782.503906-1.175782.464844-.988281 1-1.941406 1.601563-2.855468.175781-.28125.335937-.570313.519531-.800782 1.617187-2.320312 3.636719-4.332031 5.960937-5.945312.328125-.230469.671875-.414062 1.015625-.632812.84375-.53125 1.71875-1.007813 2.621094-1.429688.457031-.207031.914063-.402344 1.386719-.585938.902344-.339843 1.828125-.628906 2.765625-.863281.464843-.121093.914062-.253906 1.386719-.34375 1.433593-.289062 2.894531-.445312 4.359374-.464843h1.757813c24.210937-.15625 47.714844-8.1875 66.960937-22.878907l.402344-.320312 43.007813-32.679688c8.15625 5.601563 16.007812 11.636719 23.519531 18.082031 13.4375 11.597657 28.398438 26.957032 31.757812 40.476563 21.617188-16.773437 30.175782-45.433594 21.300782-71.316406-8.871094-25.882813-33.21875-43.257813-60.578125-43.242188-5.011719.015625-10.003907.605469-14.882813 1.761719-22.585937-26.089844-57.433594-38.046875-91.277344-31.328125-33.847656 6.722656-61.480468 31.089844-72.382812 63.828125s-3.394531 68.8125 19.660156 94.484375c2.265625-.480469 4.570313-.730469 6.882813-.746094.425781-.011719.855469.015625 1.277343.082031zm0 0"/><path d="m168.167969 352.332031v-8h-32c-33.964844-.042969-66.546875 13.425781-90.5625 37.441407-24.011719 24.015624-37.484375 56.597656-37.4375 90.558593h168l16-88zm0 0"/><path d="m280.167969 344.332031h-32v8l-24 32 16 88h168c0-70.691406-57.308594-128-128-128zm0 0"/><path d="m112.917969 170.460938c.261719-1.074219.597656-2.125 1-3.152344-.144531.367187-.34375.71875-.472657 1.105468-.222656.652344-.359374 1.359376-.527343 2.046876zm0 0"/><path d="m116.511719 162.4375c1.621093-2.316406 3.636719-4.328125 5.957031-5.945312-2.320312 1.613281-4.339844 3.625-5.957031 5.945312zm0 0"/><path d="m304.167969 160.332031v49.121094c.019531 4.953125-.328125 9.898437-1.042969 14.800781.34375.066406.691406.089844 1.042969.078125"/><path d="m112.167969 232.332031c.796875 0 1.597656-.078125 2.398437-.160156-1.609375-7.464844-2.414062-15.082031-2.398437-22.71875v-33.519531c-2.421875-2.167969-4.730469-4.457032-6.921875-6.855469"/><path d="m112.671875 171.429688c.0625-.335938.167969-.648438.246094-.96875.167969-.6875.304687-1.394532.527343-2.046876-.421874-.066406-.851562-.09375-1.277343-.082031-2.328125.015625-4.644531.265625-6.921875.746094 2.191406 2.398437 4.5 4.6875 6.921875 6.855469.023437-1.515625.191406-3.023438.503906-4.503906zm0 0"/></g><path d="m280.167969 336.332031h-24v-25.601562c28.113281-17.832031 47.566406-46.535157 53.71875-79.253907 16.40625-4.746093 26.28125-29.113281 26.28125-47.144531 1.269531-13.546875-7.101563-26.140625-20.082031-30.214843 21.546874-22.375 26.292968-56.054688 11.773437-83.515626-14.519531-27.460937-45.03125-42.496093-75.652344-37.285156-37.527343-40.503906-100.167969-44.617187-142.671875-9.375-42.503906 35.246094-50.058594 97.566406-17.199218 141.941406-8.289063 6.175782-12.875 16.136719-12.167969 26.449219 0 18.726563 10.621093 44.328125 28.183593 47.632813 7.707032 29.289062 26.21875 54.574218 51.816407 70.765625v25.601562h-24c-36.085938-.042969-70.703125 14.269531-96.21875 39.785157-25.511719 25.515624-39.828125 60.132812-39.78125 96.214843 0 4.417969 3.578125 8 8 8h400c4.417969 0 8-3.582031 8-8-.085938-75.074219-60.925781-135.914062-136-136zm-104 13.335938v-30.261719c.71875.308594 1.476562.503906 2.207031.796875 3.109375 1.296875 6.277344 2.449219 9.496094 3.480469 1.207031.382812 2.398437.800781 3.632812 1.121094 4.257813 1.238281 8.582032 2.25 12.949219 3.023437l2.402344.390625c.867187.152344 1.753906.152344 2.621093 0l2.402344-.390625c4.371094-.757813 8.695313-1.75 12.960938-2.976563 1.222656-.351562 2.398437-.742187 3.636718-1.128906 3.234376-1.023437 6.414063-2.183594 9.539063-3.488281.703125-.285156 1.453125-.476563 2.160156-.796875v30.207031l-20.082031 26.6875h-23.925781zm136-139.488281v-40.617188c5.476562 2.082031 8 6.867188 8 14.769531-.132813 9.207031-2.910157 18.175781-8 25.847657zm-136-193.847657c25.796875-.011719 50.300781 11.300781 67.03125 30.945313 1.941406 2.273437 4.988281 3.277344 7.902343 2.597656 23.722657-5.703125 48.410157 4.605469 61.027344 25.492188 12.617188 20.882812 10.257813 47.53125-5.828125 65.878906-.214843-.371094-.527343-.800782-.75-1.136719-1.054687-1.753906-2.234375-3.546875-3.542969-5.367187-.402343-.5625-.800781-1.113282-1.203124-1.691407-1.742188-2.308593-3.671876-4.671875-5.8125-7.085937-.441407-.496094-.9375-1.007813-1.386719-1.503906-1.84375-2.015626-3.824219-4.070313-5.941407-6.160157-.707031-.695312-1.417968-1.390625-2.152343-2.097656-2.691407-2.582031-5.511719-5.191406-8.617188-7.863281-7.746093-6.65625-15.851562-12.882813-24.28125-18.65625-2.835937-1.894532-6.558593-1.789063-9.277343.273437l-43.464844 32.976563c-17.871094 13.589844-39.65625 21.042968-62.105469 21.238281h-1.878906c-1.609375.019531-3.210938.160156-4.800781.417969-.230469 0-.449219.09375-.679688.140625-1.398438.25-2.78125.589843-4.136719 1.019531l-.398437.140625c-1.453125.484375-2.867188 1.074219-4.234375 1.769531h-.070313c-5.589844 2.8125-10.21875 7.222656-13.296875 12.671875-21.679687-26.28125-26.242187-62.714843-11.714843-93.527343 14.53125-30.816407 45.542968-50.476563 79.613281-50.472657zm-80 176c-.808594-5.691406 1.925781-11.304687 6.902343-14.183593.367188.359374.71875.734374 1.097657 1.085937v30.21875c0 3.113281.117187 6.210937.359375 9.296875-5.320313-7.796875-8.226563-16.984375-8.359375-26.417969zm26.214843 38.152344c-1.484374-6.910156-2.226562-13.960937-2.214843-21.03125v-33.425781c0-.085938 0-.167969 0-.253906.039062-1.46875.292969-2.917969.75-4.3125.082031-.265626.160156-.535157.257812-.800782.496094-1.402344 1.191407-2.730468 2.0625-3.9375.089844-.117187.191407-.222656.28125-.335937.914063-1.1875 1.992188-2.242188 3.199219-3.132813l.09375-.082031c1.234375-.863281 2.582031-1.546875 4-2.039063.226562-.082031.449219-.144531.683594-.214843 1.453125-.464844 2.96875-.714844 4.496094-.746094h1.8125c26.101562-.238281 51.414062-8.941406 72.144531-24.800781l38.402343-29.117188c4.269532 3.085938 11 8.132813 18.109376 14.238282 2.074218 1.78125 4.050781 3.542968 5.921874 5.289062 10.316407 8.207031 18.347657 18.933594 23.320313 31.144531.292969 1.109375.449219 2.253907.464844 3.40625v49.121094c.015625 4.605469-.308594 9.203125-.976563 13.757813-4.300781 31.972656-23.152344 60.152343-51.066406 76.320312-10.757812 6.28125-22.578125 10.535156-34.871094 12.546875l-1.085937.140625-1.058594-.167969c-12.300781-2.082031-24.132813-6.335937-34.941406-12.566406-25.667969-14.855469-43.78125-39.957031-49.785157-69zm-71.128906 156.953125c22.5-22.542969 53.0625-35.179688 84.914063-35.105469h24c0 1.730469.558593 3.414063 1.597656 4.800781l21.90625 29.199219-14.1875 78h-153.054687c1.859374-29.015625 14.242187-56.355469 34.824218-76.894531zm134.511719 76.894531 13.089844-72h18.65625l13.054687 72zm61.097656 0-14.183593-78 20.671874-27.601562 1.207032-1.597657c1.042968-1.382812 1.605468-3.070312 1.609375-4.800781h24c63.136719.078125 115.445312 49.007813 119.734375 112zm0 0" fill="#1e81ce"/></svg>