<svg height="480pt" viewBox="0 -8 480 480" width="480pt" xmlns="http://www.w3.org/2000/svg"><g fill="#1e81ce"><path d="m240 0c-132.335938 0-240 93.304688-240 208 0 65.304688 35.320312 126.566406 94.992188 165.6875l-76.648438 76.65625c-2.285156 2.289062-2.972656 5.730469-1.734375 8.71875s4.15625 4.9375 7.390625 4.9375c.628906 0 1.253906-.074219 1.863281-.214844l184.449219-44.273437c9.722656-2.335938 19.6875-3.515625 29.6875-3.511719 132.335938 0 240-93.304688 240-208s-107.664062-208-240-208zm0 400c-11.257812 0-22.476562 1.324219-33.425781 3.953125l-156.863281 37.648437 63.703124-63.707031c1.738282-1.75 2.574219-4.203125 2.261719-6.648437-.3125-2.449219-1.738281-4.613282-3.859375-5.871094-59.984375-35.832031-95.816406-94.65625-95.816406-157.375 0-105.863281 100.488281-192 224-192s224 86.136719 224 192-100.488281 192-224 192zm0 0"/><path d="m264 200h-48c-22.089844 0-40-17.910156-40-40s17.910156-40 40-40h88c4.417969 0 8-3.582031 8-8s-3.582031-8-8-8h-56v-24c0-4.417969-3.582031-8-8-8s-8 3.582031-8 8v24h-16c-30.929688 0-56 25.070312-56 56s25.070312 56 56 56h48c22.089844 0 40 17.910156 40 40s-17.910156 40-40 40h-88c-4.417969 0-8 3.582031-8 8s3.582031 8 8 8h56v24c0 4.417969 3.582031 8 8 8s8-3.582031 8-8v-24h16c30.929688 0 56-25.070312 56-56s-25.070312-56-56-56zm0 0"/></g></svg>