<svg height="480pt" viewBox="0 0 480 480.09831" width="480pt" xmlns="http://www.w3.org/2000/svg"><path d="m120.050781 96v64l-45.226562 45.222656 45.226562-45.222656h-64c0 35.347656 28.652344 64 64 64 35.34375 0 64-28.652344 64-64s-28.65625-64-64-64zm0 0" fill="#57a4ff"/><path d="m224.050781 304h32v48h-32zm0 0" fill="#57a4ff"/><path d="m280.050781 288h32v64h-32zm0 0" fill="#57a4ff"/><path d="m336.050781 256h32v96h-32zm0 0" fill="#57a4ff"/><path d="m392.050781 224h32v128h-32zm0 0" fill="#57a4ff"/><g fill="#1e81ce"><path d="m472.050781 40h-224v-32c0-4.417969-3.582031-8-8-8s-8 3.582031-8 8v32h-224c-4.417969 0-7.9999998 3.582031-7.9999998 8v336c0 4.417969 3.5820308 8 7.9999998 8h212.6875l-74.34375 74.34375c-2.082031 2.007812-2.914062 4.984375-2.183593 7.78125.734374 2.796875 2.917968 4.980469 5.714843 5.710938 2.796875.734374 5.769531-.101563 7.78125-2.179688l74.34375-74.34375v68.6875c0 4.417969 3.582031 8 8 8s8-3.582031 8-8v-68.6875l74.34375 74.34375c3.136719 3.03125 8.128907 2.988281 11.214844-.097656 3.085937-3.085938 3.128906-8.074219.097656-11.214844l-74.347656-74.34375h212.691406c4.417969 0 8-3.582031 8-8v-336c0-4.417969-3.582031-8-8-8zm-8 336h-448v-320h448zm0 0"/><path d="m120.050781 88c-39.765625 0-72 32.234375-72 72s32.234375 72 72 72c39.761719 0 72-32.234375 72-72-.046875-39.746094-32.253906-71.957031-72-72zm-44.800781 105.472656c-5.605469-7.46875-9.238281-16.230468-10.5625-25.472656h36.050781zm36.800781-88.832031v47.359375h-47.363281c3.566406-24.527344 22.832031-43.792969 47.363281-47.359375zm8 111.359375c-12.078125 0-23.828125-3.933594-33.472656-11.199219l39.117187-39.121093c1.503907-1.511719 2.347657-3.550782 2.355469-5.679688v-55.359375c28.871094 4.394531 49.515625 30.242187 47.421875 59.375-2.089844 29.128906-26.21875 51.757813-55.421875 51.984375zm0 0"/><path d="m288.050781 104h112c4.417969 0 8-3.582031 8-8s-3.582031-8-8-8h-112c-4.417969 0-8 3.582031-8 8s3.582031 8 8 8zm0 0"/><path d="m248.050781 136h152c4.417969 0 8-3.582031 8-8s-3.582031-8-8-8h-152c-4.417969 0-8 3.582031-8 8s3.582031 8 8 8zm0 0"/><path d="m400.050781 168c4.417969 0 8-3.582031 8-8s-3.582031-8-8-8h-152c-4.417969 0-8 3.582031-8 8s3.582031 8 8 8zm0 0"/><path d="m256.050781 296h-32c-4.417969 0-8 3.582031-8 8v48c0 4.417969 3.582031 8 8 8h32c4.417969 0 8-3.582031 8-8v-48c0-4.417969-3.582031-8-8-8zm-8 48h-16v-32h16zm0 0"/><path d="m312.050781 280h-32c-4.417969 0-8 3.582031-8 8v64c0 4.417969 3.582031 8 8 8h32c4.417969 0 8-3.582031 8-8v-64c0-4.417969-3.582031-8-8-8zm-8 64h-16v-48h16zm0 0"/><path d="m368.050781 248h-32c-4.417969 0-8 3.582031-8 8v96c0 4.417969 3.582031 8 8 8h32c4.417969 0 8-3.582031 8-8v-96c0-4.417969-3.582031-8-8-8zm-8 96h-16v-80h16zm0 0"/><path d="m384.050781 224v128c0 4.417969 3.582031 8 8 8h32c4.417969 0 8-3.582031 8-8v-128c0-4.417969-3.582031-8-8-8h-32c-4.417969 0-8 3.582031-8 8zm16 8h16v112h-16zm0 0"/><path d="m80.050781 296c4.417969 0 8-3.582031 8-8s-3.582031-8-8-8h-16c-4.417969 0-8 3.582031-8 8s3.582031 8 8 8zm0 0"/><path d="m152.050781 280h-48c-4.417969 0-8 3.582031-8 8s3.582031 8 8 8h48c4.417969 0 8-3.582031 8-8s-3.582031-8-8-8zm0 0"/><path d="m48.050781 312c0 4.417969 3.582031 8 8 8h56c4.417969 0 8-3.582031 8-8s-3.582031-8-8-8h-56c-4.417969 0-8 3.582031-8 8zm0 0"/><path d="m152.050781 304h-16c-4.417969 0-8 3.582031-8 8s3.582031 8 8 8h16c4.417969 0 8-3.582031 8-8s-3.582031-8-8-8zm0 0"/><path d="m72.050781 328h-16c-4.417969 0-8 3.582031-8 8s3.582031 8 8 8h16c4.417969 0 8-3.582031 8-8s-3.582031-8-8-8zm0 0"/><path d="m152.050781 328h-56c-4.417969 0-8 3.582031-8 8s3.582031 8 8 8h56c4.417969 0 8-3.582031 8-8s-3.582031-8-8-8zm0 0"/></g></svg>