<svg height="480pt" viewBox="0 0 480 480.11987" width="480pt" xmlns="http://www.w3.org/2000/svg"><g fill="#57a4ff"><path d="m8.058594 8v48h464v-48zm0 0"/><path d="m264.058594 448c0 13.253906-10.742188 24-24 24-13.253906 0-24-10.746094-24-24s10.746094-24 24-24c13.257812 0 24 10.746094 24 24zm0 0"/><path d="m56.058594 264h48v80h-48zm0 0"/><path d="m136.058594 296h48v48h-48zm0 0"/><path d="m296.058594 296h48v48h-48zm0 0"/><path d="m216.058594 232h48v112h-48zm0 0"/><path d="m376.058594 168h48v176h-48zm0 0"/></g><path d="m472.058594 0h-464c-4.417969 0-8.0000002 3.582031-8.0000002 8v48c0 4.417969 3.5820312 8 8.0000002 8h8v328c0 4.417969 3.582031 8 8 8h208v17.136719c-15.601563 4.027343-25.773438 19.03125-23.742188 35.015625 2.027344 15.984375 15.628906 27.96875 31.742188 27.96875 16.117187 0 29.714844-11.984375 31.746094-27.96875s-8.140626-30.988282-23.746094-35.015625v-17.136719h208c4.417968 0 8-3.582031 8-8v-328h8c4.417968 0 8-3.582031 8-8v-48c0-4.417969-3.582032-8-8-8zm-216 448c0 8.835938-7.160156 16-16 16-8.835938 0-16-7.164062-16-16s7.164062-16 16-16c8.839844 0 16 7.164062 16 16zm192-64h-416v-320h416zm16-336h-448v-32h448zm0 0" fill="#1e81ce"/><path d="m56.058594 352h48c4.417968 0 8-3.582031 8-8v-160c0-4.417969-3.582032-8-8-8h-48c-4.417969 0-8 3.582031-8 8v160c0 4.417969 3.582031 8 8 8zm40-16h-32v-64h32zm-32-144h32v64h-32zm0 0" fill="#1e81ce"/><path d="m136.058594 352h48c4.417968 0 8-3.582031 8-8v-80c0-4.417969-3.582032-8-8-8h-48c-4.417969 0-8 3.582031-8 8v80c0 4.417969 3.582031 8 8 8zm40-16h-32v-32h32zm-32-64h32v16h-32zm0 0" fill="#1e81ce"/><path d="m296.058594 352h48c4.417968 0 8-3.582031 8-8v-96c0-4.417969-3.582032-8-8-8h-48c-4.417969 0-8 3.582031-8 8v96c0 4.417969 3.582031 8 8 8zm40-16h-32v-32h32zm-32-80h32v32h-32zm0 0" fill="#1e81ce"/><path d="m216.058594 352h48c4.417968 0 8-3.582031 8-8v-192c0-4.417969-3.582032-8-8-8h-48c-4.417969 0-8 3.582031-8 8v192c0 4.417969 3.582031 8 8 8zm40-16h-32v-96h32zm-32-176h32v64h-32zm0 0" fill="#1e81ce"/><path d="m376.058594 352h48c4.417968 0 8-3.582031 8-8v-224c0-4.417969-3.582032-8-8-8h-48c-4.417969 0-8 3.582031-8 8v224c0 4.417969 3.582031 8 8 8zm40-16h-32v-160h32zm-32-208h32v32h-32zm0 0" fill="#1e81ce"/></svg>