<svg height="480pt" viewBox="-28 0 480 480" width="480pt" xmlns="http://www.w3.org/2000/svg"><path d="m40 472h208c17.671875 0 32-14.328125 32-32v-16h-272v16c0 17.671875 14.328125 32 32 32zm120-24" fill="#9bc9ff"/><path d="m8 40v16h272v-16c0-17.671875-14.328125-32-32-32h-208c-17.671875 0-32 14.328125-32 32zm120-8" fill="#9bc9ff"/><path d="m280 104c-75.109375 0-136 60.890625-136 136s60.890625 136 136 136 136-60.890625 136-136-60.890625-136-136-136zm-40 208h-32v-32h32zm0-56h-32v-32h32zm0-56h-32v-32h32zm56 112h-32v-32h32zm0-56h-32v-32h32zm0-56h-32v-32h32zm56 112h-32v-32h32zm0-56h-32v-32h32zm0-56h-32v-32h32zm0 0" fill="#9bc9ff"/><g fill="#1e81ce"><path d="m280 400.136719c-4.417969 0-8 3.582031-8 8v7.863281h-256v-352h256v7.359375c0 4.417969 3.582031 8 8 8s8-3.582031 8-8v-31.359375c-.027344-22.082031-17.917969-39.9726562-40-40h-208c-22.082031.0273438-39.9726562 17.917969-40 40v400c.0273438 22.082031 17.917969 39.972656 40 40h208c22.082031-.027344 39.972656-17.917969 40-40v-31.863281c0-4.417969-3.582031-8-8-8zm-240-384.136719h208c13.253906 0 24 10.746094 24 24v8h-256v-8c0-13.253906 10.746094-24 24-24zm208 448h-208c-13.253906 0-24-10.746094-24-24v-8h256v8c0 13.253906-10.746094 24-24 24zm0 0"/><path d="m152 40h16c4.417969 0 8-3.582031 8-8s-3.582031-8-8-8h-16c-4.417969 0-8 3.582031-8 8s3.582031 8 8 8zm0 0"/><path d="m160 440h-32c-4.417969 0-8 3.582031-8 8s3.582031 8 8 8h32c4.417969 0 8-3.582031 8-8s-3.582031-8-8-8zm0 0"/><path d="m120 40h8c4.417969 0 8-3.582031 8-8s-3.582031-8-8-8h-8c-4.417969 0-8 3.582031-8 8s3.582031 8 8 8zm0 0"/><path d="m72 80h-40v40h16v-24h24zm0 0"/><path d="m32 360v40h40v-16h-24v-24zm0 0"/><path d="m280 96c-79.527344 0-144 64.472656-144 144s64.472656 144 144 144 144-64.472656 144-144c-.09375-79.492188-64.507812-143.90625-144-144zm0 272c-70.691406 0-128-57.308594-128-128s57.308594-128 128-128 128 57.308594 128 128c-.082031 70.65625-57.34375 127.917969-128 128zm0 0"/><path d="m256 208h48v-48h-48zm16-32h16v16h-16zm0 0"/><path d="m256 264h48v-48h-48zm16-32h16v16h-16zm0 0"/><path d="m256 320h48v-48h-48zm16-32h16v16h-16zm0 0"/><path d="m312 208h48v-48h-48zm16-32h16v16h-16zm0 0"/><path d="m312 264h48v-48h-48zm16-32h16v16h-16zm0 0"/><path d="m312 320h48v-48h-48zm16-32h16v16h-16zm0 0"/><path d="m200 208h48v-48h-48zm16-32h16v16h-16zm0 0"/><path d="m200 264h48v-48h-48zm16-32h16v16h-16zm0 0"/><path d="m200 320h48v-48h-48zm16-32h16v16h-16zm0 0"/></g></svg>