<svg height="480pt" viewBox="-24 0 480 480" width="480pt" xmlns="http://www.w3.org/2000/svg"><path d="m8 440c0 17.671875 14.328125 32 32 32h208c17.671875 0 32-14.328125 32-32v-16h-272zm152 8" fill="#9bc9ff"/><path d="m280 40c0-17.671875-14.328125-32-32-32h-208c-17.671875 0-32 14.328125-32 32v16h272zm-128-8" fill="#9bc9ff"/><path d="m264 312h32v64h-32zm0 0" fill="#9bc9ff"/><path d="m320 264h32v112h-32zm0 0" fill="#9bc9ff"/><path d="m376 216h32v160h-32zm0 0" fill="#9bc9ff"/><path d="m216 240c0-48.601562-39.398438-88-88-88s-88 39.398438-88 88 39.398438 88 88 88 88-39.398438 88-88zm-104 64v-16h-8v-96h32c13.253906 0 24 10.746094 24 24s-10.746094 24-24 24c13.253906 0 24 10.746094 24 24s-10.746094 24-24 24h-24zm0 0" fill="#9bc9ff"/><path d="m160 216c0-13.253906-10.746094-24-24-24h-32v48h32c13.253906 0 24-10.746094 24-24zm0 0" fill="#9bc9ff"/><path d="m160 264c0-13.253906-10.746094-24-24-24h-32v48h32c13.253906 0 24-10.746094 24-24zm0 0" fill="#9bc9ff"/><g fill="#1e81ce"><path d="m280 400.136719c-4.417969 0-8 3.582031-8 8v7.863281h-256v-352h256v87.359375c0 4.417969 3.582031 8 8 8s8-3.582031 8-8v-111.359375c-.027344-22.082031-17.917969-39.9726562-40-40h-208c-22.082031.0273438-39.9726562 17.917969-40 40v400c.0273438 22.082031 17.917969 39.972656 40 40h208c22.082031-.027344 39.972656-17.917969 40-40v-31.863281c0-4.417969-3.582031-8-8-8zm-240-384.136719h208c13.253906 0 24 10.746094 24 24v8h-256v-8c0-13.253906 10.746094-24 24-24zm208 448h-208c-13.253906 0-24-10.746094-24-24v-8h256v8c0 13.253906-10.746094 24-24 24zm0 0"/><path d="m152 40h16c4.417969 0 8-3.582031 8-8s-3.582031-8-8-8h-16c-4.417969 0-8 3.582031-8 8s3.582031 8 8 8zm0 0"/><path d="m160 440h-32c-4.417969 0-8 3.582031-8 8s3.582031 8 8 8h32c4.417969 0 8-3.582031 8-8s-3.582031-8-8-8zm0 0"/><path d="m120 40h8c4.417969 0 8-3.582031 8-8s-3.582031-8-8-8h-8c-4.417969 0-8 3.582031-8 8s3.582031 8 8 8zm0 0"/><path d="m72 96v-16h-40v40h16v-24zm0 0"/><path d="m32 360v40h40v-16h-24v-24zm0 0"/><path d="m416 368v-160h-48v160h-8v-112h-48v112h-8v-64h-48v64h-16v16h192v-16zm-144 0v-48h16v48zm56 0v-96h16v96zm56 0v-144h16v144zm0 0"/><path d="m242.34375 258.34375 11.3125 11.3125 130.34375-130.34375v28.6875h16v-56h-56v16h28.6875zm0 0"/><path d="m224 240c0-53.019531-42.980469-96-96-96s-96 42.980469-96 96 42.980469 96 96 96c52.996094-.058594 95.941406-43.003906 96-96zm-176 0c0-44.183594 35.816406-80 80-80s80 35.816406 80 80-35.816406 80-80 80c-44.164062-.046875-79.953125-35.835938-80-80zm0 0"/><path d="m128 296v8h16v-9.136719c11.5-2.890625 20.429688-11.953125 23.152344-23.496093 2.726562-11.542969-1.214844-23.640626-10.207032-31.367188 8.992188-7.726562 12.933594-19.824219 10.207032-31.367188-2.722656-11.542968-11.652344-20.605468-23.152344-23.496093v-9.136719h-16v8h-8v-8h-16v8h-16v16h8v80h-8v16h16v8h16v-8zm-16-96h24c8.835938 0 16 7.164062 16 16s-7.164062 16-16 16h-24zm24 48c8.835938 0 16 7.164062 16 16s-7.164062 16-16 16h-24v-32zm0 0"/></g></svg>