<svg height="480pt" viewBox="-36 0 480 480" width="480pt" xmlns="http://www.w3.org/2000/svg"><path d="m264 376c69.054688-.023438 127.132812-51.792969 135.058594-120.394531 7.921875-68.597657-36.820313-132.246094-104.054688-148.015625-67.230468-15.765625-135.605468 21.359375-159.003906 86.332031v92.15625c19.453125 53.953125 70.648438 89.917969 128 89.921875zm88-191.441406c-2.40625-3.808594-5.058594-7.460938-7.9375-10.925782 2.878906 3.464844 5.53125 7.117188 7.9375 10.925782zm-88-48.558594c19.625-.027344 38.855469 5.519531 55.449219 16-42.011719-26.40625-96.835938-19.382812-130.832031 16.757812-33.996094 36.144532-37.652344 91.296876-8.726563 131.609376 28.925781 40.316406 82.34375 54.519531 127.472656 33.890624 45.128907-20.628906 69.339844-70.316406 57.78125-118.570312 10.355469 43.078125-7.714843 87.988281-45.019531 111.886719-37.308594 23.898437-85.660156 21.535156-120.460938-5.882813-34.800781-27.417968-48.410156-73.875-33.90625-115.738281 14.503907-41.863281 53.9375-69.941406 98.242188-69.953125zm40 136c0 17.671875-14.328125 32-32 32h-32v-128h32c17.671875 0 32 14.328125 32 32s-14.328125 32-32 32c17.671875 0 32 14.328125 32 32zm0 0" fill="#9bc9ff"/><path d="m40 472h208c17.671875 0 32-14.328125 32-32v-16h-272v16c0 17.671875 14.328125 32 32 32zm120-24" fill="#9bc9ff"/><path d="m8 40v16h272v-16c0-17.671875-14.328125-32-32-32h-208c-17.671875 0-32 14.328125-32 32zm120-8" fill="#9bc9ff"/><path d="m304 208c0-17.671875-14.328125-32-32-32h-32v64h32c17.671875 0 32-14.328125 32-32zm0 0" fill="#9bc9ff"/><path d="m240 304h32c17.671875 0 32-14.328125 32-32s-14.328125-32-32-32h-32zm0 0" fill="#9bc9ff"/><g fill="#1e81ce"><path d="m280 392.136719c-4.417969 0-8 3.582031-8 8v15.863281h-256v-352h256v15.359375c0 4.417969 3.582031 8 8 8s8-3.582031 8-8v-39.359375c-.027344-22.082031-17.917969-39.9726562-40-40h-208c-22.082031.0273438-39.9726562 17.917969-40 40v400c.0273438 22.082031 17.917969 39.972656 40 40h208c22.082031-.027344 39.972656-17.917969 40-40v-39.863281c0-4.417969-3.582031-8-8-8zm-240-376.136719h208c13.253906 0 24 10.746094 24 24v8h-256v-8c0-13.253906 10.746094-24 24-24zm208 448h-208c-13.253906 0-24-10.746094-24-24v-8h256v8c0 13.253906-10.746094 24-24 24zm0 0"/><path d="m152 40h16c4.417969 0 8-3.582031 8-8s-3.582031-8-8-8h-16c-4.417969 0-8 3.582031-8 8s3.582031 8 8 8zm0 0"/><path d="m160 440h-32c-4.417969 0-8 3.582031-8 8s3.582031 8 8 8h32c4.417969 0 8-3.582031 8-8s-3.582031-8-8-8zm0 0"/><path d="m120 40h8c4.417969 0 8-3.582031 8-8s-3.582031-8-8-8h-8c-4.417969 0-8 3.582031-8 8s3.582031 8 8 8zm0 0"/><path d="m72 80h-40v40h16v-24h24zm0 0"/><path d="m32 360v40h40v-16h-24v-24zm0 0"/><path d="m264 96c-48.253906.101562-93.273438 24.28125-120 64.457031v-48.457031h24v-16h-40v288h40v-16h-24v-48.457031c37.988281 57.328125 111.214844 79.792969 174.816406 53.632812 63.601563-26.164062 99.828125-93.648437 86.484375-161.113281s-72.527343-116.078125-141.300781-116.0625zm0 272c-53.476562-.109375-101.289062-33.359375-120-83.457031v-89.085938c22.5625-60.789062 87.019531-95.101562 150.046875-79.878906 63.027344 15.21875 104.71875 75.164063 97.054687 139.550781-7.664062 64.386719-62.261718 112.871094-127.101562 112.871094zm0 0"/><path d="m312 208c-.023438-19-13.386719-35.371094-32-39.199219v-16.800781h-16v16h-8v-16h-16v16h-24v16h16v112h-16v16h24v16h16v-16h8v16h16v-16.800781c15.472656-3.109375 27.652344-15.058594 31.0625-30.46875 3.410156-15.410157-2.59375-31.382813-15.308594-40.730469 10.183594-7.488281 16.210938-19.359375 16.246094-32zm-16 64c0 13.253906-10.746094 24-24 24h-24v-48h24c13.253906 0 24 10.746094 24 24zm-24-40h-24v-48h24c13.253906 0 24 10.746094 24 24s-10.746094 24-24 24zm0 0"/><path d="m345.246094 188.800781c1.46875 2.316407 4.023437 3.722657 6.769531 3.71875 1.515625.003907 2.996094-.425781 4.273437-1.238281 3.734376-2.363281 4.84375-7.308594 2.480469-11.042969-2.59375-4.097656-5.453125-8.027343-8.554687-11.757812-2.828125-3.394531-7.871094-3.855469-11.265625-1.027344-3.398438 2.828125-3.855469 7.871094-1.027344 11.265625 2.65625 3.199219 5.101563 6.566406 7.324219 10.082031zm0 0"/><path d="m372.921875 213.824219c-.617187-2.832031-2.714844-5.109375-5.484375-5.957031-2.769531-.84375-5.78125-.125-7.875 1.878906-2.089844 2.007812-2.933594 4.984375-2.203125 7.789062 10.734375 44.644532-11.644531 90.636719-53.398437 109.742188-41.75 19.101562-91.183594 5.964844-117.949219-31.34375-26.761719-37.308594-23.355469-88.34375 8.121093-121.769532 31.480469-33.425781 82.222657-39.882812 121.066407-15.402343 3.738281 2.355469 8.679687 1.234375 11.035156-2.5 2.359375-3.738281 1.238281-8.679688-2.5-11.039063-45.261719-28.472656-104.351563-20.921875-140.996094 18.023438-36.648437 38.941406-40.601562 98.378906-9.433593 141.832031 31.171874 43.453125 88.738281 58.761719 137.375 36.53125 48.632812-22.234375 74.726562-75.78125 62.265624-127.785156zm0 0"/></g></svg>