<svg height="480pt" viewBox="-24 0 480 480" width="480pt" xmlns="http://www.w3.org/2000/svg"><path d="m280 40c0-17.671875-14.328125-32-32-32h-208c-17.671875 0-32 14.328125-32 32v16h272zm-128-8" fill="#9bc9ff"/><path d="m40 472h208c17.671875 0 32-14.328125 32-32v-16h-272v16c0 17.671875 14.328125 32 32 32zm120-24" fill="#9bc9ff"/><path d="m88 352c0 8.835938 7.164062 16 16 16h304c8.835938 0 16-7.164062 16-16v-192h-336zm248-144h32v32h-32zm0 80h32v32h-32zm-64-80h32v32h-32zm0 80h32v32h-32zm-64-80h32v32h-32zm0 80h32v32h-32zm-64-80h32v32h-32zm0 80h32v32h-32zm0 0" fill="#9bc9ff"/><path d="m408 112h-40v24h-32v-24h-160v24h-32v-24h-40c-8.835938 0-16 7.164062-16 16v32h336v-32c0-8.835938-7.164062-16-16-16zm0 0" fill="#9bc9ff"/><path d="m176 136v-32c0-8.835938-7.164062-16-16-16s-16 7.164062-16 16v32zm0 0" fill="#9bc9ff"/><path d="m368 136v-32c0-8.835938-7.164062-16-16-16s-16 7.164062-16 16v32zm0 0" fill="#9bc9ff"/><g fill="#1e81ce"><path d="m280 392.136719c-4.417969 0-8 3.582031-8 8v15.863281h-256v-352h256v15.359375c0 4.417969 3.582031 8 8 8s8-3.582031 8-8v-39.359375c-.027344-22.082031-17.917969-39.9726562-40-40h-208c-22.082031.0273438-39.9726562 17.917969-40 40v400c.0273438 22.082031 17.917969 39.972656 40 40h208c22.082031-.027344 39.972656-17.917969 40-40v-39.863281c0-4.417969-3.582031-8-8-8zm-240-376.136719h208c13.253906 0 24 10.746094 24 24v8h-256v-8c0-13.253906 10.746094-24 24-24zm208 448h-208c-13.253906 0-24-10.746094-24-24v-8h256v8c0 13.253906-10.746094 24-24 24zm0 0"/><path d="m152 40h16c4.417969 0 8-3.582031 8-8s-3.582031-8-8-8h-16c-4.417969 0-8 3.582031-8 8s3.582031 8 8 8zm0 0"/><path d="m160 440h-32c-4.417969 0-8 3.582031-8 8s3.582031 8 8 8h32c4.417969 0 8-3.582031 8-8s-3.582031-8-8-8zm0 0"/><path d="m120 40h8c4.417969 0 8-3.582031 8-8s-3.582031-8-8-8h-8c-4.417969 0-8 3.582031-8 8s3.582031 8 8 8zm0 0"/><path d="m72 80h-40v40h16v-24h24zm0 0"/><path d="m32 360v40h40v-16h-24v-24zm0 0"/><path d="m408 104h-32c0-13.253906-10.746094-24-24-24s-24 10.746094-24 24h-144c0-13.253906-10.746094-24-24-24s-24 10.746094-24 24h-32c-13.253906 0-24 10.746094-24 24v224c0 13.253906 10.746094 24 24 24h304c13.253906 0 24-10.746094 24-24v-224c0-13.253906-10.746094-24-24-24zm-64 0c0-4.417969 3.582031-8 8-8s8 3.582031 8 8v24h-16zm-192 0c0-4.417969 3.582031-8 8-8s8 3.582031 8 8v24h-16zm-56 24c0-4.417969 3.582031-8 8-8h32v16c0 4.417969 3.582031 8 8 8h32c4.417969 0 8-3.582031 8-8v-16h144v16c0 4.417969 3.582031 8 8 8h32c4.417969 0 8-3.582031 8-8v-16h32c4.417969 0 8 3.582031 8 8v24h-320zm312 232h-304c-4.417969 0-8-3.582031-8-8v-184h320v184c0 4.417969-3.582031 8-8 8zm0 0"/><path d="m176 200h-32c-4.417969 0-8 3.582031-8 8v32c0 4.417969 3.582031 8 8 8h32c4.417969 0 8-3.582031 8-8v-32c0-4.417969-3.582031-8-8-8zm-8 32h-16v-16h16zm0 0"/><path d="m240 200h-32c-4.417969 0-8 3.582031-8 8v32c0 4.417969 3.582031 8 8 8h32c4.417969 0 8-3.582031 8-8v-32c0-4.417969-3.582031-8-8-8zm-8 32h-16v-16h16zm0 0"/><path d="m304 200h-32c-4.417969 0-8 3.582031-8 8v32c0 4.417969 3.582031 8 8 8h32c4.417969 0 8-3.582031 8-8v-32c0-4.417969-3.582031-8-8-8zm-8 32h-16v-16h16zm0 0"/><path d="m368 200h-32c-4.417969 0-8 3.582031-8 8v32c0 4.417969 3.582031 8 8 8h32c4.417969 0 8-3.582031 8-8v-32c0-4.417969-3.582031-8-8-8zm-8 32h-16v-16h16zm0 0"/><path d="m176 280h-32c-4.417969 0-8 3.582031-8 8v32c0 4.417969 3.582031 8 8 8h32c4.417969 0 8-3.582031 8-8v-32c0-4.417969-3.582031-8-8-8zm-8 32h-16v-16h16zm0 0"/><path d="m240 280h-32c-4.417969 0-8 3.582031-8 8v32c0 4.417969 3.582031 8 8 8h32c4.417969 0 8-3.582031 8-8v-32c0-4.417969-3.582031-8-8-8zm-8 32h-16v-16h16zm0 0"/><path d="m304 280h-32c-4.417969 0-8 3.582031-8 8v32c0 4.417969 3.582031 8 8 8h32c4.417969 0 8-3.582031 8-8v-32c0-4.417969-3.582031-8-8-8zm-8 32h-16v-16h16zm0 0"/><path d="m368 280h-32c-4.417969 0-8 3.582031-8 8v32c0 4.417969 3.582031 8 8 8h32c4.417969 0 8-3.582031 8-8v-32c0-4.417969-3.582031-8-8-8zm-8 32h-16v-16h16zm0 0"/></g></svg>