<svg height="480pt" viewBox="-16 0 480 480" width="480pt" xmlns="http://www.w3.org/2000/svg"><path d="m40 472h208c17.671875 0 32-14.328125 32-32v-16h-272v16c0 17.671875 14.328125 32 32 32zm120-24" fill="#9bc9ff"/><path d="m8 40v16h272v-16c0-17.671875-14.328125-32-32-32h-208c-17.671875 0-32 14.328125-32 32zm120-8" fill="#9bc9ff"/><path d="m136 136h304v40h-304zm0 0" fill="#9bc9ff"/><path d="m136 344h304v-152h-304zm200-80c13.253906 0 24 10.746094 24 24 0-13.253906 10.746094-24 24-24s24 10.746094 24 24-10.746094 24-24 24-24-10.746094-24-24c0 13.253906-10.746094 24-24 24s-24-10.746094-24-24 10.746094-24 24-24zm-64 40" fill="#9bc9ff"/><path d="m136 176h304v16h-304zm0 0" fill="#9bc9ff"/><path d="m360 288c0 13.253906-10.746094 24-24 24s-24-10.746094-24-24 10.746094-24 24-24 24 10.746094 24 24zm0 0" fill="#9bc9ff"/><path d="m408 288c0 13.253906-10.746094 24-24 24s-24-10.746094-24-24 10.746094-24 24-24 24 10.746094 24 24zm0 0" fill="#9bc9ff"/><g fill="#1e81ce"><path d="m280 368.136719c-4.417969 0-8 3.582031-8 8v39.863281h-256v-352h256v39.359375c0 4.417969 3.582031 8 8 8s8-3.582031 8-8v-63.359375c-.027344-22.082031-17.917969-39.9726562-40-40h-208c-22.082031.0273438-39.9726562 17.917969-40 40v400c.0273438 22.082031 17.917969 39.972656 40 40h208c22.082031-.027344 39.972656-17.917969 40-40v-63.863281c0-4.417969-3.582031-8-8-8zm-240-352.136719h208c13.253906 0 24 10.746094 24 24v8h-256v-8c0-13.253906 10.746094-24 24-24zm208 448h-208c-13.253906 0-24-10.746094-24-24v-8h256v8c0 13.253906-10.746094 24-24 24zm0 0"/><path d="m152 40h16c4.417969 0 8-3.582031 8-8s-3.582031-8-8-8h-16c-4.417969 0-8 3.582031-8 8s3.582031 8 8 8zm0 0"/><path d="m160 440h-32c-4.417969 0-8 3.582031-8 8s3.582031 8 8 8h32c4.417969 0 8-3.582031 8-8s-3.582031-8-8-8zm0 0"/><path d="m120 40h8c4.417969 0 8-3.582031 8-8s-3.582031-8-8-8h-8c-4.417969 0-8 3.582031-8 8s3.582031 8 8 8zm0 0"/><path d="m72 80h-40v40h16v-24h24zm0 0"/><path d="m32 360v40h40v-16h-24v-24zm0 0"/><path d="m440 128h-296v-16h24v-16h-40v288h40v-16h-24v-16h296c4.417969 0 8-3.582031 8-8v-208c0-4.417969-3.582031-8-8-8zm-8 16v24h-288v-24zm-288 192v-136h288v136zm0 0"/><path d="m384 256c-9.226562.027344-17.984375 4.0625-24 11.054688-8.746094-10.101563-22.847656-13.707032-35.371094-9.039063-12.519531 4.667969-20.824218 16.621094-20.824218 29.984375s8.304687 25.316406 20.824218 29.984375c12.523438 4.667969 26.625 1.0625 35.371094-9.039063 9.6875 11.09375 25.707031 14.121094 38.777344 7.328126 13.070312-6.789063 19.800781-21.636719 16.292968-35.941407-3.507812-14.304687-16.339843-24.355469-31.070312-24.332031zm-48 48c-8.835938 0-16-7.164062-16-16s7.164062-16 16-16 16 7.164062 16 16-7.164062 16-16 16zm48 0c-8.835938 0-16-7.164062-16-16s7.164062-16 16-16 16 7.164062 16 16-7.164062 16-16 16zm0 0"/><path d="m168 288h64c4.417969 0 8-3.582031 8-8s-3.582031-8-8-8h-64c-4.417969 0-8 3.582031-8 8s3.582031 8 8 8zm0 0"/><path d="m272 272h-16c-4.417969 0-8 3.582031-8 8s3.582031 8 8 8h16c4.417969 0 8-3.582031 8-8s-3.582031-8-8-8zm0 0"/><path d="m272 296h-104c-4.417969 0-8 3.582031-8 8s3.582031 8 8 8h104c4.417969 0 8-3.582031 8-8s-3.582031-8-8-8zm0 0"/></g></svg>