<svg height="480pt" viewBox="0 0 480 480" width="480pt" xmlns="http://www.w3.org/2000/svg"><path d="m40 104c-17.671875 0-32 14.328125-32 32v208c0 17.671875 14.328125 32 32 32h16v-272zm-8 128" fill="#9bc9ff"/><path d="m440 104h-16v272h16c17.671875 0 32-14.328125 32-32v-208c0-17.671875-14.328125-32-32-32zm8 152" fill="#9bc9ff"/><path d="m344 8h-208c-17.671875 0-32 14.328125-32 32v16h272v-16c0-17.671875-14.328125-32-32-32zm-96 24" fill="#9bc9ff"/><path d="m104 440c0 17.671875 14.328125 32 32 32h208c17.671875 0 32-14.328125 32-32v-16h-272zm152 8" fill="#9bc9ff"/><g fill="#1e81ce"><path d="m344 0h-208c-22.082031.0273438-39.972656 17.917969-40 40v400c.027344 22.082031 17.917969 39.972656 40 40h208c22.082031-.027344 39.972656-17.917969 40-40v-400c-.027344-22.082031-17.917969-39.9726562-40-40zm-232 64h256v352h-256zm24-48h208c13.253906 0 24 10.746094 24 24v8h-256v-8c0-13.253906 10.746094-24 24-24zm208 448h-208c-13.253906 0-24-10.746094-24-24v-8h256v8c0 13.253906-10.746094 24-24 24zm0 0"/><path d="m128 120h16v-24h24v-16h-40zm0 0"/><path d="m144 360h-16v40h40v-16h-24zm0 0"/><path d="m312 80v16h24v24h16v-40zm0 0"/><path d="m336 384h-24v16h40v-40h-16zm0 0"/><path d="m248 40h16c4.417969 0 8-3.582031 8-8s-3.582031-8-8-8h-16c-4.417969 0-8 3.582031-8 8s3.582031 8 8 8zm0 0"/><path d="m256 440h-32c-4.417969 0-8 3.582031-8 8s3.582031 8 8 8h32c4.417969 0 8-3.582031 8-8s-3.582031-8-8-8zm0 0"/><path d="m216 40h8c4.417969 0 8-3.582031 8-8s-3.582031-8-8-8h-8c-4.417969 0-8 3.582031-8 8s3.582031 8 8 8zm0 0"/><path d="m40 96c-22.082031.027344-39.9726562 17.917969-40 40v208c.0273438 22.082031 17.917969 39.972656 40 40h40v-16h-16v-256h16v-16zm8 272h-8c-13.253906 0-24-10.746094-24-24v-208c0-13.253906 10.746094-24 24-24h8zm0 0"/><path d="m440 96h-39.863281v16h15.863281v256h-16v16h40c22.082031-.027344 39.972656-17.917969 40-40v-208c-.027344-22.082031-17.917969-39.972656-40-40zm24 248c0 13.253906-10.746094 24-24 24h-8v-256h8c13.253906 0 24 10.746094 24 24zm0 0"/><path d="m32 208c-4.417969 0-8 3.582031-8 8v16c0 4.417969 3.582031 8 8 8s8-3.582031 8-8v-16c0-4.417969-3.582031-8-8-8zm0 0"/><path d="m448 216c-4.417969 0-8 3.582031-8 8v32c0 4.417969 3.582031 8 8 8s8-3.582031 8-8v-32c0-4.417969-3.582031-8-8-8zm0 0"/><path d="m32 248c-4.417969 0-8 3.582031-8 8v8c0 4.417969 3.582031 8 8 8s8-3.582031 8-8v-8c0-4.417969-3.582031-8-8-8zm0 0"/><path d="m440 60.6875-8.96875-8.96875-11.3125 11.3125 28.28125 28.28125 28.28125-28.28125-11.3125-11.3125-8.96875 8.96875v-44.6875h-56v16h40zm0 0"/><path d="m40 419.3125 8.96875 8.96875 11.3125-11.3125-28.28125-28.28125-28.28125 28.28125 11.3125 11.3125 8.96875-8.96875v44.6875h56v-16h-40zm0 0"/></g></svg>