<svg height="480pt" viewBox="-32 0 480 480" width="480pt" xmlns="http://www.w3.org/2000/svg"><g fill="#9bc9ff"><path d="m8 56h272v-16c0-17.671875-14.328125-32-32-32h-208c-17.671875 0-32 14.328125-32 32zm120-24"/><path d="m40 472h208c17.671875 0 32-14.328125 32-32v-16h-272v16c0 17.671875 14.328125 32 32 32zm120-24"/><path d="m214.480469 196.320312c-9.09375-1.988281-17.867188-5.21875-26.082031-9.601562l-1.679688 1.921875c-12.113281 14.367187-18.746094 32.566406-18.71875 51.359375h40c-.117188-14.808594 2.070312-29.542969 6.480469-43.679688zm0 0"/><path d="m288 240h40c.027344-18.792969-6.605469-36.992188-18.71875-51.359375l-1.679688-1.921875c-8.214843 4.382812-16.988281 7.613281-26.082031 9.601562 4.410157 14.136719 6.597657 28.871094 6.480469 43.679688zm0 0"/><path d="m214.480469 283.679688c-4.410157-14.136719-6.597657-28.871094-6.480469-43.679688h-40c-.027344 18.792969 6.605469 36.992188 18.71875 51.359375l1.679688 1.921875c8.214843-4.382812 16.988281-7.613281 26.082031-9.601562zm0 0"/><path d="m281.519531 283.679688c9.09375 1.988281 17.867188 5.21875 26.082031 9.601562l1.679688-1.921875c12.113281-14.367187 18.746094-32.566406 18.71875-51.359375h-40c.117188 14.808594-2.070312 29.542969-6.480469 43.679688zm0 0"/><path d="m248 200c-11.277344.066406-22.523438-1.171875-33.519531-3.679688-4.410157 14.136719-6.597657 28.871094-6.480469 43.679688h40zm0 0"/><path d="m248 240h-40c-.117188 14.808594 2.070312 29.542969 6.480469 43.679688 10.996093-2.507813 22.242187-3.746094 33.519531-3.679688zm0 0"/><path d="m288 240c.117188-14.808594-2.070312-29.542969-6.480469-43.679688-10.996093 2.507813-22.242187 3.746094-33.519531 3.679688v40zm0 0"/><path d="m248 280c11.277344-.066406 22.523438 1.171875 33.519531 3.679688 4.410157-14.136719 6.597657-28.871094 6.480469-43.679688h-40zm0 0"/><path d="m281.519531 196.320312c9.09375-1.988281 17.867188-5.21875 26.082031-9.601562-14.601562-16.402344-35.332031-26.042969-57.28125-26.640625 13.039063 1.523437 24.398438 15.601563 31.199219 36.242187zm0 0"/><path d="m245.679688 160.078125c-21.949219.597656-42.679688 10.238281-57.28125 26.640625 8.214843 4.382812 16.988281 7.613281 26.082031 9.601562 6.800781-20.640624 18.160156-34.71875 31.199219-36.242187zm0 0"/><path d="m281.519531 196.320312c-6.800781-20.640624-18.160156-34.71875-31.199219-36.242187-.800781 0-1.519531-.078125-2.320312-.078125v40c11.277344.066406 22.523438-1.171875 33.519531-3.679688zm0 0"/><path d="m214.480469 196.320312c10.996093 2.507813 22.242187 3.746094 33.519531 3.679688v-40c-.800781 0-1.519531.078125-2.320312.078125-13.039063 1.523437-24.398438 15.601563-31.199219 36.242187zm0 0"/><path d="m250.320312 319.921875c21.949219-.597656 42.679688-10.238281 57.28125-26.640625-8.214843-4.382812-16.988281-7.613281-26.082031-9.601562-6.800781 20.640624-18.160156 34.71875-31.199219 36.242187zm0 0"/><path d="m214.480469 283.679688c-9.09375 1.988281-17.867188 5.21875-26.082031 9.601562 14.601562 16.402344 35.332031 26.042969 57.28125 26.640625-13.039063-1.523437-24.398438-15.601563-31.199219-36.242187zm0 0"/><path d="m281.519531 283.679688c-10.996093-2.507813-22.242187-3.746094-33.519531-3.679688v40c.800781 0 1.519531-.078125 2.320312-.078125 13.039063-1.523437 24.398438-15.601563 31.199219-36.242187zm0 0"/><path d="m214.480469 283.679688c6.800781 20.640624 18.160156 34.71875 31.199219 36.242187.800781 0 1.519531.078125 2.320312.078125v-40c-11.277344-.066406-22.523438 1.171875-33.519531 3.679688zm0 0"/></g><path d="m280 384.136719c-4.417969 0-8 3.582031-8 8v23.863281h-256v-352h256v23.359375c0 4.417969 3.582031 8 8 8s8-3.582031 8-8v-47.359375c-.027344-22.082031-17.917969-39.9726562-40-40h-208c-22.082031.0273438-39.9726562 17.917969-40 40v400c.0273438 22.082031 17.917969 39.972656 40 40h208c22.082031-.027344 39.972656-17.917969 40-40v-47.863281c0-4.417969-3.582031-8-8-8zm-240-368.136719h208c13.253906 0 24 10.746094 24 24v8h-256v-8c0-13.253906 10.746094-24 24-24zm208 448h-208c-13.253906 0-24-10.746094-24-24v-8h256v8c0 13.253906-10.746094 24-24 24zm0 0" fill="#1e81ce"/><path d="m160 440h-32c-4.417969 0-8 3.582031-8 8s3.582031 8 8 8h32c4.417969 0 8-3.582031 8-8s-3.582031-8-8-8zm0 0" fill="#1e81ce"/><path d="m120 40h8c4.417969 0 8-3.582031 8-8s-3.582031-8-8-8h-8c-4.417969 0-8 3.582031-8 8s3.582031 8 8 8zm0 0" fill="#1e81ce"/><path d="m72 80h-40v40h16v-24h24zm0 0" fill="#1e81ce"/><path d="m32 360v40h40v-16h-24v-24zm0 0" fill="#1e81ce"/><path d="m152 40h16c4.417969 0 8-3.582031 8-8s-3.582031-8-8-8h-16c-4.417969 0-8 3.582031-8 8s3.582031 8 8 8zm0 0" fill="#1e81ce"/><path d="m319.742188 189.128906-6.167969-7.722656c-15.925781-17.820312-38.425781-28.390625-62.308594-29.269531h-.066406c-.214844 0-.429688 0-.648438-.046875h-.976562c-1.015625-.054688-2.035157-.054688-3.054688 0h-1.09375c-.21875 0-.417969 0-.632812.046875h-.089844c-2.765625.101562-5.527344.296875-8.253906.664062-17.828125 2.367188-34.503907 10.128907-47.792969 22.246094-2.214844 2.023437-4.324219 4.160156-6.320312 6.402344l-.34375.382812-5.777344 7.28125c-21.667969 30.453125-21.667969 71.289063 0 101.742188l6.167968 7.71875c15.929688 17.824219 38.425782 28.394531 62.3125 29.273437h.105469c.214844 0 .429688 0 .648438.046875h.976562c.511719 0 1.023438.050781 1.597657.050781.402343 0 .886718 0 1.601562-.050781h.976562c.214844 0 .414063-.039062.628907-.046875h.089843c2.769532-.105468 5.527344-.296875 8.253907-.664062 17.828125-2.367188 34.5-10.128906 47.785156-22.246094 2.222656-2.023438 4.332031-4.160156 6.328125-6.402344l.34375-.382812 5.777344-7.28125c21.667968-30.453125 21.667968-71.289063 0-101.742188zm-27.894532 107.863282c-.589844.457031-1.183594.910156-1.800781 1.351562-1.351563.984375-2.75 1.902344-4.167969 2.785156-.480468.296875-.941406.613282-1.429687.902344-.9375.554688-1.921875 1.015625-2.882813 1.519531 1.839844-3.324219 3.472656-6.761719 4.890625-10.285156 2.398438.726563 4.800781 1.503906 7.054688 2.398437-.550781.40625-1.085938.886719-1.664063 1.328126zm-81.878906 4c-1.335938-.800782-2.648438-1.679688-3.921875-2.601563-.671875-.480469-1.328125-.984375-1.984375-1.496094s-1.054688-.863281-1.597656-1.292969c2.253906-.859374 4.613281-1.640624 7.0625-2.402343 1.414062 3.527343 3.042968 6.957031 4.878906 10.28125-.933594-.496094-1.886719-.945313-2.796875-1.480469-.546875-.265625-1.089844-.632812-1.640625-.984375zm-5.816406-118.007813c.589844-.457031 1.183594-.914063 1.800781-1.351563 1.351563-.984374 2.75-1.90625 4.167969-2.785156.480468-.296875.941406-.617187 1.429687-.902344.9375-.554687 1.921875-1.015624 2.882813-1.519531-1.839844 3.324219-3.472656 6.757813-4.890625 10.285157-2.398438-.726563-4.800781-1.503907-7.054688-2.359376.550781-.421874 1.085938-.902343 1.664063-1.34375zm81.878906-4c1.335938.800781 2.648438 1.679687 3.921875 2.601563.671875.476562 1.328125.980468 1.984375 1.492187.65625.515625 1.054688.867187 1.597656 1.296875-2.253906.855469-4.613281 1.601562-7.0625 2.359375-1.414062-3.523437-3.042968-6.957031-4.878906-10.277344.933594.496094 1.886719.941407 2.796875 1.480469.546875.328125 1.089844.695312 1.640625 1.046875zm-30.03125-8.34375c6.566406 5.082031 11.609375 11.867187 14.574219 19.625-4.828125.75-9.691407 1.257813-14.574219 1.511719zm-16 21.136719c-4.882812-.257813-9.746094-.761719-14.574219-1.511719 2.96875-7.753906 8.011719-14.539063 14.574219-19.625zm-19.800781 13.863281c6.546875 1.136719 13.160156 1.855469 19.800781 2.152344v24.207031h-23.710938c.4375-8.894531 1.746094-17.722656 3.910157-26.359375zm19.800781 42.359375v24.230469c-6.636719.296875-13.246094 1.015625-19.792969 2.144531-2.171875-8.648438-3.484375-17.492188-3.917969-26.398438zm0 40.222656v21.136719c-6.566406-5.082031-11.605469-11.871094-14.574219-19.625 4.828125-.75 9.691407-1.257813 14.574219-1.511719zm16 0c4.882812.257813 9.746094.761719 14.574219 1.511719-2.96875 7.753906-8.011719 14.539063-14.574219 19.625zm19.800781-13.824218c-6.546875-1.136719-13.160156-1.859376-19.800781-2.167969v-24.230469h23.710938c-.433594 8.90625-1.746094 17.75-3.910157 26.398438zm-19.800781-42.398438v-24.207031c6.640625-.292969 13.253906-1.015625 19.800781-2.160157 2.164063 8.648438 3.476563 17.492188 3.910157 26.398438zm-51.375-30.015625c-2.4375 9.835937-3.890625 19.890625-4.335938 30.015625h-23.792968c1.425781-12.804688 6.28125-24.984375 14.054687-35.257812 4.566407 2.070312 9.265625 3.820312 14.074219 5.242187zm-4.335938 46.015625c.445313 10.125 1.898438 20.183594 4.335938 30.023438-4.804688 1.417968-9.5 3.164062-14.066406 5.222656-7.769532-10.269532-12.628906-22.445313-14.0625-35.246094zm91.085938 30.015625c2.4375-9.835937 3.890625-19.890625 4.335938-30.015625h23.792968c-1.425781 12.804688-6.28125 24.984375-14.054687 35.257812-4.566407-2.070312-9.265625-3.820312-14.074219-5.242187zm4.335938-46.015625c-.445313-10.125-1.898438-20.183594-4.335938-30.023438 4.804688-1.417968 9.5-3.164062 14.066406-5.222656 7.769532 10.269532 12.628906 22.445313 14.0625 35.246094zm0 0" fill="#1e81ce"/><path d="m248 104c-65.398438-.011719-121.542969 46.527344-133.664062 110.792969l15.71875 2.949219c10.722656-56.851563 60.5-97.953126 118.359374-97.722657 57.855469.226563 107.304688 41.722657 117.578126 98.660157l-18.28125-18.273438-11.3125 11.3125 39.601562 39.59375 39.601562-39.59375-11.3125-11.3125-21.601562 21.601562c-9.054688-67.488281-66.59375-117.902343-134.6875-118.007812zm0 0" fill="#1e81ce"/><path d="m248 360c-57.996094-.097656-107.640625-41.617188-117.992188-98.679688l18.28125 18.273438 11.3125-11.3125-39.601562-39.59375-39.601562 39.59375 11.3125 11.3125 21.601562-21.601562c8.761719 66.132812 64.21875 116.132812 130.90625 118.027343 66.683594 1.890625 124.886719-44.890625 137.382812-110.417969l-15.722656-3c-10.839844 56.539063-60.308594 97.410157-117.878906 97.398438zm0 0" fill="#1e81ce"/></svg>