<svg height="480pt" viewBox="-24 0 480 480" width="480pt" xmlns="http://www.w3.org/2000/svg"><path d="m280 40c0-17.671875-14.328125-32-32-32h-208c-17.671875 0-32 14.328125-32 32v16h272zm-128-8" fill="#9bc9ff"/><path d="m40 472h208c17.671875 0 32-14.328125 32-32v-16h-272v16c0 17.671875 14.328125 32 32 32zm120-24" fill="#9bc9ff"/><path d="m392 360h32v-176l-104 104zm0 0" fill="#9bc9ff"/><path d="m136 184v112l56-56zm0 0" fill="#9bc9ff"/><path d="m136 360h176l-88-88zm0 0" fill="#9bc9ff"/><path d="m232 168c0 26.511719 48 96 48 96s48-69.488281 48-96c0-26.507812-21.492188-48-48-48s-48 21.492188-48 48zm64 0c0 8.835938-7.164062 16-16 16s-16-7.164062-16-16 7.164062-16 16-16 16 7.164062 16 16zm0 0" fill="#9bc9ff"/><path d="m296 168c0 8.835938-7.164062 16-16 16s-16-7.164062-16-16 7.164062-16 16-16 16 7.164062 16 16zm0 0" fill="#9bc9ff"/><g fill="#1e81ce"><path d="m280 384.136719c-4.417969 0-8 3.582031-8 8v23.863281h-256v-352h256v23.359375c0 4.417969 3.582031 8 8 8s8-3.582031 8-8v-47.359375c-.027344-22.082031-17.917969-39.9726562-40-40h-208c-22.082031.0273438-39.9726562 17.917969-40 40v400c.0273438 22.082031 17.917969 39.972656 40 40h208c22.082031-.027344 39.972656-17.917969 40-40v-47.863281c0-4.417969-3.582031-8-8-8zm-240-368.136719h208c13.253906 0 24 10.746094 24 24v8h-256v-8c0-13.253906 10.746094-24 24-24zm208 448h-208c-13.253906 0-24-10.746094-24-24v-8h256v8c0 13.253906-10.746094 24-24 24zm0 0"/><path d="m152 40h16c4.417969 0 8-3.582031 8-8s-3.582031-8-8-8h-16c-4.417969 0-8 3.582031-8 8s3.582031 8 8 8zm0 0"/><path d="m160 440h-32c-4.417969 0-8 3.582031-8 8s3.582031 8 8 8h32c4.417969 0 8-3.582031 8-8s-3.582031-8-8-8zm0 0"/><path d="m120 40h8c4.417969 0 8-3.582031 8-8s-3.582031-8-8-8h-8c-4.417969 0-8 3.582031-8 8s3.582031 8 8 8zm0 0"/><path d="m72 80h-40v40h16v-24h24zm0 0"/><path d="m32 360v40h40v-16h-24v-24zm0 0"/><path d="m224 168c0 28.183594 44.359375 93.222656 49.414062 100.542969 1.496094 2.164062 3.957032 3.457031 6.585938 3.457031s5.089844-1.292969 6.585938-3.457031c5.054687-7.320313 49.414062-72.359375 49.414062-100.542969 0-30.929688-25.070312-56-56-56s-56 25.070312-56 56zm96 0c0 15.472656-22.398438 54.742188-40 81.65625-17.601562-26.902344-40-66.175781-40-81.65625 0-22.089844 17.910156-40 40-40s40 17.910156 40 40zm0 0"/><path d="m256 168c0 13.253906 10.746094 24 24 24s24-10.746094 24-24-10.746094-24-24-24-24 10.746094-24 24zm32 0c0 4.417969-3.582031 8-8 8s-8-3.582031-8-8 3.582031-8 8-8 8 3.582031 8 8zm0 0"/><path d="m431.382812 180.945312c-1.234374-2.992187-4.148437-4.941406-7.382812-4.945312h-73.128906c-4.417969 0-8 3.582031-8 8s3.582031 8 8 8h53.816406l-90.34375 90.34375c-3.121094 3.125-3.121094 8.1875 0 11.3125l58.34375 58.34375h-57.375l-85.65625-85.65625c-3.125-3.121094-8.1875-3.121094-11.3125 0l-74.34375 74.34375v-41.375l53.65625-53.65625c3.121094-3.125 3.121094-8.1875 0-11.3125l-42.34375-42.34375h52.550781c4.417969 0 8-3.582031 8-8s-3.582031-8-8-8h-71.863281c-4.417969 0-8 3.582031-8 8v176c0 4.417969 3.582031 8 8 8h255.382812c.265626 0 .503907.152344.800782.152344s.503906-.128906.761718-.152344h31.054688c4.417969 0 8-3.582031 8-8v-176c-.003906-1.050781-.214844-2.085938-.617188-3.054688zm-207.382812 102.367188 68.6875 68.6875h-137.375zm-80-6.625v-73.375l36.6875 36.6875zm251.3125 75.3125-64-64 84.6875-84.6875v148.6875zm0 0"/></g></svg>