<svg height="485pt" viewBox="-2 0 485 485.952" width="485pt" xmlns="http://www.w3.org/2000/svg"><path d="m440.476562 205.953125h-16v272h16c17.671876 0 32-14.328125 32-32v-208c0-17.675781-14.328124-32-32-32zm8 152" fill="#9bc9ff"/><path d="m40.476562 205.953125c-17.671874 0-32 14.324219-32 32v208c0 17.671875 14.328126 32 32 32h16v-272zm-8 128" fill="#9bc9ff"/><path d="m192.476562 277.953125h104v-184l-56-80-56 80v184zm48-192c13.253907 0 24 10.742187 24 24 0 13.253906-10.746093 24-24 24-13.253906 0-24-10.746094-24-24 0-13.257813 10.746094-24 24-24zm0 0" fill="#9bc9ff"/><path d="m192.476562 299.136719c0 26.75 13.367188 51.730469 35.625 66.566406l12.375 8.25 12.375-8.25c22.257813-14.835937 35.625-39.816406 35.625-66.566406v-21.183594h-96zm0 0" fill="#9bc9ff"/><path d="m120.476562 253.953125v24h64v-88c-35.347656 0-64 28.652344-64 64zm0 0" fill="#9bc9ff"/><path d="m360.476562 277.953125v-24c0-35.347656-28.65625-64-64-64v88zm0 0" fill="#9bc9ff"/><g fill="#1e81ce"><path d="m440.476562 197.953125h-55.863281c-4.417969 0-8 3.582031-8 8s3.582031 8 8 8h31.863281v256h-352v-256h31.359376c4.417968 0 8-3.582031 8-8s-3.582032-8-8-8h-55.359376c-22.082031.023437-39.972656 17.917969-40 40v208c.027344 22.078125 17.917969 39.972656 40 40h400c22.078126-.027344 39.972657-17.921875 40-40v-208c-.027343-22.082031-17.921874-39.976563-40-40zm-424 248v-208c0-13.257813 10.746094-24 24-24h8v256h-8c-13.253906 0-24-10.746094-24-24zm448 0c0 13.253906-10.746093 24-24 24h-8v-256h8c13.253907 0 24 10.742187 24 24zm0 0"/><path d="m32.476562 309.953125c-4.417968 0-8 3.582031-8 8v16c0 4.417969 3.582032 8 8 8 4.417969 0 8-3.582031 8-8v-16c0-4.417969-3.582031-8-8-8zm0 0"/><path d="m448.476562 317.953125c-4.417968 0-8 3.582031-8 8v32c0 4.417969 3.582032 8 8 8 4.417969 0 8-3.582031 8-8v-32c0-4.417969-3.582031-8-8-8zm0 0"/><path d="m32.476562 349.953125c-4.417968 0-8 3.582031-8 8v8c0 4.417969 3.582032 8 8 8 4.417969 0 8-3.582031 8-8v-8c0-4.417969-3.582031-8-8-8zm0 0"/><path d="m80.476562 413.953125v40h40v-16h-24v-24zm0 0"/><path d="m360.476562 453.953125h40v-40h-16v24h-24zm0 0"/><path d="m232.476562 405.953125h16v32h-16zm0 0"/><path d="m264.476562 381.953125h16v40h-16zm0 0"/><path d="m200.476562 381.953125h16v40h-16zm0 0"/><path d="m264.476562 429.953125h16v16h-16zm0 0"/><path d="m296.476562 349.953125h16v64h-16zm0 0"/><path d="m296.476562 421.953125h16v16h-16zm0 0"/><path d="m168.476562 349.953125h16v64h-16zm0 0"/><path d="m168.476562 421.953125h16v16h-16zm0 0"/><path d="m232.476562 445.953125h16v16h-16zm0 0"/><path d="m200.476562 429.953125h16v16h-16zm0 0"/><path d="m240.476562 141.953125c17.671876 0 32-14.328125 32-32 0-17.675781-14.328124-32-32-32-17.671874 0-32 14.324219-32 32 0 17.671875 14.328126 32 32 32zm0-48c8.835938 0 16 7.164063 16 16s-7.164062 16-16 16c-8.835937 0-16-7.164063-16-16s7.164063-16 16-16zm0 0"/><path d="m184.476562 285.953125v13.183594c-.027343 29.433593 14.6875 56.921875 39.199219 73.214843l16.800781 11.199219 16.800782-11.199219c24.507812-16.292968 39.226562-43.78125 39.199218-73.214843v-13.183594h72v-32c-.050781-36.644531-27.585937-67.421875-64-71.527344v-90.992187l-64-91.433594-64 91.433594v90.992187c-36.414062 4.105469-63.949218 34.882813-64 71.527344v32zm96 13.183594c.027344 24.082031-12.011718 46.578125-32.066406 59.910156l-7.933594 5.304687-7.9375-5.289062c-20.058593-13.335938-32.097656-35.839844-32.0625-59.925781v-13.183594h80zm72-45.183594v16h-48v-71.433594c27.535157 4.011719 47.964844 27.605469 48 55.433594zm-160-157.480469 48-68.570312 48 68.570312v173.480469h-96zm-64 173.480469v-16c.035157-27.828125 20.464844-51.421875 48-55.433594v71.433594zm0 0"/></g></svg>