<svg height="480pt" viewBox="-24 0 480 480" width="480pt" xmlns="http://www.w3.org/2000/svg"><path d="m248 8h-208c-17.671875 0-32 14.328125-32 32v16h272v-16c0-17.671875-14.328125-32-32-32zm-96 24" fill="#9bc9ff"/><path d="m40 472h208c17.671875 0 32-14.328125 32-32v-16h-272v16c0 17.671875 14.328125 32 32 32zm120-24" fill="#9bc9ff"/><path d="m320 168h-208c0 22.089844-17.910156 40-40 40v112c22.089844 0 40 17.910156 40 40h208c0-22.089844 17.910156-40 40-40v-112c-22.089844 0-40-17.910156-40-40zm-104 168c-39.765625 0-72-32.234375-72-72s32.234375-72 72-72 72 32.234375 72 72-32.234375 72-72 72zm96-72" fill="#9bc9ff"/><path d="m320 360h40v-40c-22.089844 0-40 17.910156-40 40zm0 0" fill="#9bc9ff"/><path d="m112 168h-40v40c22.089844 0 40-17.910156 40-40zm0 0" fill="#9bc9ff"/><path d="m136 168h224v144h64v-192h-288zm0 0" fill="#9bc9ff"/><path d="m216 192c-39.765625 0-72 32.234375-72 72s32.234375 72 72 72 72-32.234375 72-72-32.234375-72-72-72zm0 72c8.835938 0 16 7.164062 16 16s-7.164062 16-16 16-16-7.164062-16-16c0 8.835938 7.164062 16 16 16s16-7.164062 16-16-7.164062-16-16-16-16-7.164062-16-16 7.164062-16 16-16 16 7.164062 16 16c0-8.835938-7.164062-16-16-16s-16 7.164062-16 16 7.164062 16 16 16zm0 0" fill="#9bc9ff"/><path d="m72 320v40h40c0-22.089844-17.910156-40-40-40zm0 0" fill="#9bc9ff"/><path d="m360 208v-40h-40c0 22.089844 17.910156 40 40 40zm0 0" fill="#9bc9ff"/><g fill="#1e81ce"><path d="m280 384.136719c-4.417969 0-8 3.582031-8 8v23.863281h-256v-352h256v23.359375c0 4.417969 3.582031 8 8 8s8-3.582031 8-8v-47.359375c-.027344-22.082031-17.917969-39.9726562-40-40h-208c-22.082031.0273438-39.9726562 17.917969-40 40v400c.0273438 22.082031 17.917969 39.972656 40 40h208c22.082031-.027344 39.972656-17.917969 40-40v-47.863281c0-4.417969-3.582031-8-8-8zm-240-368.136719h208c13.253906 0 24 10.746094 24 24v8h-256v-8c0-13.253906 10.746094-24 24-24zm208 448h-208c-13.253906 0-24-10.746094-24-24v-8h256v8c0 13.253906-10.746094 24-24 24zm0 0"/><path d="m152 40h16c4.417969 0 8-3.582031 8-8s-3.582031-8-8-8h-16c-4.417969 0-8 3.582031-8 8s3.582031 8 8 8zm0 0"/><path d="m160 440h-32c-4.417969 0-8 3.582031-8 8s3.582031 8 8 8h32c4.417969 0 8-3.582031 8-8s-3.582031-8-8-8zm0 0"/><path d="m120 40h8c4.417969 0 8-3.582031 8-8s-3.582031-8-8-8h-8c-4.417969 0-8 3.582031-8 8s3.582031 8 8 8zm0 0"/><path d="m72 80h-40v40h16v-24h24zm0 0"/><path d="m32 360v40h40v-16h-24v-24zm0 0"/><path d="m424 112h-288c-4.417969 0-8 3.582031-8 8v40h-56c-4.417969 0-8 3.582031-8 8v192c0 4.417969 3.582031 8 8 8h288c4.417969 0 8-3.582031 8-8v-40h56c4.417969 0 8-3.582031 8-8v-192c0-4.417969-3.582031-8-8-8zm-72 86.992188c-11.261719-2.933594-20.054688-11.730469-22.984375-22.992188h22.984375zm-39.28125-22.992188c3.4375 20.101562 19.179688 35.84375 39.28125 39.28125v97.4375c-20.101562 3.4375-35.84375 19.179688-39.28125 39.28125h-193.4375c-3.4375-20.101562-19.179688-35.84375-39.28125-39.28125v-97.4375c20.101562-3.4375 35.84375-19.179688 39.28125-39.28125zm-209.855469 0c-2.925781 11.195312-11.667969 19.9375-22.863281 22.863281v-22.863281zm-22.863281 176v-22.992188c11.261719 2.933594 20.054688 11.730469 22.984375 22.992188zm249.136719 0c2.925781-11.195312 11.667969-19.9375 22.863281-22.863281v22.863281zm86.863281-48h-48v-136c0-4.417969-3.582031-8-8-8h-216v-32h272zm0 0"/><path d="m216 344c44.183594 0 80-35.816406 80-80s-35.816406-80-80-80-80 35.816406-80 80c.046875 44.164062 35.835938 79.953125 80 80zm0-144c35.347656 0 64 28.652344 64 64s-28.652344 64-64 64-64-28.652344-64-64c.039062-35.328125 28.671875-63.960938 64-64zm0 0"/><path d="m120 256h-16c-4.417969 0-8 3.582031-8 8s3.582031 8 8 8h16c4.417969 0 8-3.582031 8-8s-3.582031-8-8-8zm0 0"/><path d="m312 272h16c4.417969 0 8-3.582031 8-8s-3.582031-8-8-8h-16c-4.417969 0-8 3.582031-8 8s3.582031 8 8 8zm0 0"/><path d="m216 288c-4.417969 0-8-3.582031-8-8s-3.582031-8-8-8-8 3.582031-8 8c.042969 10.132812 6.445312 19.148438 16 22.527344v9.472656c0 4.417969 3.582031 8 8 8s8-3.582031 8-8v-9.472656c11.011719-3.878906 17.621094-15.132813 15.644531-26.640625-1.980469-11.507813-11.96875-19.910157-23.644531-19.886719-4.417969 0-8-3.582031-8-8s3.582031-8 8-8 8 3.582031 8 8 3.582031 8 8 8 8-3.582031 8-8c-.042969-10.132812-6.445312-19.148438-16-22.527344v-9.472656c0-4.417969-3.582031-8-8-8s-8 3.582031-8 8v9.472656c-11.011719 3.878906-17.621094 15.132813-15.644531 26.640625 1.980469 11.507813 11.96875 19.910157 23.644531 19.886719 4.417969 0 8 3.582031 8 8s-3.582031 8-8 8zm0 0"/></g></svg>