<svg height="480pt" viewBox="-24 0 480 480" width="480pt" xmlns="http://www.w3.org/2000/svg"><path d="m40 472h208c17.671875 0 32-14.328125 32-32v-16h-272v16c0 17.671875 14.328125 32 32 32zm120-24" fill="#9bc9ff"/><path d="m8 56h272v-16c0-17.671875-14.328125-32-32-32h-208c-17.671875 0-32 14.328125-32 32zm120-24" fill="#9bc9ff"/><path d="m392 278.71875v-77.4375c-18.5-8.023438-33.257812-22.78125-41.28125-41.28125h-214.71875v160h214.71875c8.023438-18.5 22.78125-33.257812 41.28125-41.28125zm-152 9.28125c-26.507812 0-48-21.492188-48-48s21.492188-48 48-48 48 21.492188 48 48-21.492188 48-48 48zm128-48" fill="#9bc9ff"/><path d="m424 272v-144h-288v32h214.71875c8.023438 18.5 22.78125 33.257812 41.28125 41.28125v77.4375c-18.5 8.023438-33.257812 22.78125-41.28125 41.28125h-214.71875v32h288zm0 0" fill="#9bc9ff"/><path d="m288 240c0 26.507812-21.492188 48-48 48s-48-21.492188-48-48 21.492188-48 48-48 48 21.492188 48 48zm0 0" fill="#9bc9ff"/><g fill="#1e81ce"><path d="m280 384.136719c-4.417969 0-8 3.582031-8 8v23.863281h-256v-352h256v23.359375c0 4.417969 3.582031 8 8 8s8-3.582031 8-8v-47.359375c-.027344-22.082031-17.917969-39.9726562-40-40h-208c-22.082031.0273438-39.9726562 17.917969-40 40v400c.0273438 22.082031 17.917969 39.972656 40 40h208c22.082031-.027344 39.972656-17.917969 40-40v-47.863281c0-4.417969-3.582031-8-8-8zm-240-368.136719h208c13.253906 0 24 10.746094 24 24v8h-256v-8c0-13.253906 10.746094-24 24-24zm208 448h-208c-13.253906 0-24-10.746094-24-24v-8h256v8c0 13.253906-10.746094 24-24 24zm0 0"/><path d="m152 40h16c4.417969 0 8-3.582031 8-8s-3.582031-8-8-8h-16c-4.417969 0-8 3.582031-8 8s3.582031 8 8 8zm0 0"/><path d="m160 440h-32c-4.417969 0-8 3.582031-8 8s3.582031 8 8 8h32c4.417969 0 8-3.582031 8-8s-3.582031-8-8-8zm0 0"/><path d="m120 40h8c4.417969 0 8-3.582031 8-8s-3.582031-8-8-8h-8c-4.417969 0-8 3.582031-8 8s3.582031 8 8 8zm0 0"/><path d="m72 80h-40v40h16v-24h24zm0 0"/><path d="m32 360v40h40v-16h-24v-24zm0 0"/><path d="m240 296c30.929688 0 56-25.070312 56-56s-25.070312-56-56-56-56 25.070312-56 56c.035156 30.914062 25.085938 55.964844 56 56zm0-96c22.089844 0 40 17.910156 40 40s-17.910156 40-40 40-40-17.910156-40-40c.027344-22.082031 17.917969-39.972656 40-40zm0 0"/><path d="m424 120h-280v-8h24v-16h-40v288h40v-16h-24v-8h280c4.417969 0 8-3.582031 8-8v-224c0-4.417969-3.582031-8-8-8zm-78.257812 48c8.347656 16.507812 21.753906 29.914062 38.257812 38.265625v67.46875c-16.503906 8.351563-29.910156 21.757813-38.257812 38.265625h-201.742188v-64h16c4.417969 0 8-3.582031 8-8s-3.582031-8-8-8h-16v-64zm70.257812 176h-272v-16h206.726562c.945313-.019531 1.875-.210938 2.753907-.558594.273437-.101562.539062-.21875.800781-.351562.609375-.304688 1.175781-.6875 1.6875-1.136719.203125-.15625.398438-.328125.582031-.503906.644531-.660157 1.164063-1.429688 1.539063-2.273438 7.1875-16.652343 20.464844-29.925781 37.117187-37.113281.84375-.585938 1.6875-1.171875 2.527344-1.757812.585937-.839844 1.152344-1.699219 1.691406-2.570313.257813-.71875.40625-1.472656.445313-2.238281.070312-.261719.125-.53125.160156-.800782v-77.414062c0-.273438-.128906-.503906-.152344-.800781-.042968-.765625-.199218-1.523438-.453125-2.25-.546875-.863281-1.109375-1.722657-1.691406-2.566407-.535156-.5-1.144531-.921874-1.796875-1.257812-.234375-.179688-.476562-.347656-.730469-.503906-16.652343-7.183594-29.929687-20.460938-37.117187-37.109375-.097656-.226563-.28125-.367188-.394532-.578125-.355468-.714844-.816406-1.375-1.359374-1.957032-.382813-.304687-.789063-.570312-1.214844-.800781-.421875-.335937-.878906-.625-1.359375-.863281-.65625-.226562-1.335938-.363281-2.027344-.410156-.332031-.085938-.671875-.148438-1.015625-.183594h-206.71875v-16h272zm0 0"/><path d="m320 248h48c4.417969 0 8-3.582031 8-8s-3.582031-8-8-8h-48c-4.417969 0-8 3.582031-8 8s3.582031 8 8 8zm0 0"/></g></svg>