<svg height="480pt" viewBox="0 0 480 480" width="480pt" xmlns="http://www.w3.org/2000/svg"><path d="m280 40c0-17.671875-14.328125-32-32-32h-208c-17.671875 0-32 14.328125-32 32v16h272zm-128-8" fill="#9bc9ff"/><path d="m312 424v48h144v-48zm120 24" fill="#9bc9ff"/><path d="m472 112h-384v256h218.71875c-1.800781-9.652344-2.714844-19.453125-2.71875-29.273438v-42.726562c.027344-8.824219 7.175781-15.972656 16-16h16v-103.105469c-.164062-8.507812 6.132812-15.765625 14.585938-16.796875 4.457031-.367187 8.867187 1.136719 12.171874 4.152344 3.304688 3.019531 5.203126 7.277344 5.242188 11.75v80c.027344-8.824219 7.175781-15.972656 16-16 8.808594.066406 15.933594 7.191406 16 16v8c.027344-8.824219 7.175781-15.972656 16-16 8.808594.066406 15.933594 7.191406 16 16v16c.027344-8.824219 7.175781-15.972656 16-16 8.808594.066406 15.933594 7.191406 16 16v58.480469c-.011719 9.90625-.941406 19.785156-2.785156 29.519531h2.785156l8-32zm0 0" fill="#9bc9ff"/><path d="m40 472h208c17.671875 0 32-14.328125 32-32v-16h-272v16c0 17.671875 14.328125 32 32 32zm120-24" fill="#9bc9ff"/><g fill="#1e81ce"><path d="m280 416h-264v-352h256v15.359375c0 4.417969 3.582031 8 8 8s8-3.582031 8-8v-39.359375c-.027344-22.082031-17.917969-39.9726562-40-40h-208c-22.082031.0273438-39.9726562 17.917969-40 40v400c.0273438 22.082031 17.917969 39.972656 40 40h208c22.082031-.027344 39.972656-17.917969 40-40v-16c0-4.417969-3.582031-8-8-8zm-264-376c0-13.253906 10.746094-24 24-24h208c13.253906 0 24 10.746094 24 24v8h-256zm256 400c0 13.253906-10.746094 24-24 24h-208c-13.253906 0-24-10.746094-24-24v-8h256zm0 0"/><path d="m168 24h-16c-4.417969 0-8 3.582031-8 8s3.582031 8 8 8h16c4.417969 0 8-3.582031 8-8s-3.582031-8-8-8zm0 0"/><path d="m128 456h32c4.417969 0 8-3.582031 8-8s-3.582031-8-8-8h-32c-4.417969 0-8 3.582031-8 8s3.582031 8 8 8zm0 0"/><path d="m128 24h-8c-4.417969 0-8 3.582031-8 8s3.582031 8 8 8h8c4.417969 0 8-3.582031 8-8s-3.582031-8-8-8zm0 0"/><path d="m72 80h-40v40h16v-24h24zm0 0"/><path d="m32 360v40h40v-16h-24v-24zm0 0"/><path d="m439.199219 257.679688c-1.0625-4.003907-3.1875-7.648438-6.152344-10.542969-7.695313-7.472657-19.339844-9.109375-28.800781-4.058594-.914063-1.425781-1.988282-2.75-3.199219-3.941406-6.582031-6.507813-16.277344-8.742188-25.046875-5.769531v-57.367188c.050781-6.335938-2.46875-12.417969-6.984375-16.863281-4.988281-5.101563-12.007813-7.6875-19.113281-7.046875-12.597656 1.394531-22.078125 12.128906-21.902344 24.804687v95.105469h-8c-13.253906 0-24 10.746094-24 24v42.726562c.027344 26.890626 6.484375 53.386719 18.832031 77.273438h-2.832031c-4.417969 0-8 3.582031-8 8v48c0 4.417969 3.582031 8 8 8h144c4.417969 0 8-3.582031 8-8v-48c0-4.417969-3.582031-8-8-8h-2.953125l.65625-1.296875c12-23.617187 18.265625-49.730469 18.296875-76.222656v-58.480469c.050781-6.335938-2.46875-12.417969-6.984375-16.863281-6.808594-6.691407-16.882813-8.820313-25.816406-5.457031zm8.800781 206.320312h-128v-32h128zm8-125.519531c-.03125 23.96875-5.699219 47.59375-16.550781 68.96875l-4.351563 8.550781h-102.242187l-3.71875-7.199219c-11.230469-21.652343-17.109375-45.679687-17.136719-70.074219v-42.726562c0-4.417969 3.582031-8 8-8h8v40c0 4.417969 3.582031 8 8 8s8-3.582031 8-8v-151.105469c-.179688-4.371093 2.9375-8.191406 7.257812-8.894531 2.238282-.183594 4.457032.578125 6.113282 2.09375 1.660156 1.519531 2.613281 3.65625 2.628906 5.90625v104c0 4.417969 3.582031 8 8 8s8-3.582031 8-8v-24c0-4.417969 3.582031-8 8-8 2.15625-.007812 4.222656.878906 5.703125 2.449219 1.484375 1.464843 2.3125 3.464843 2.296875 5.550781v40c0 4.417969 3.582031 8 8 8s8-3.582031 8-8v-32c0-4.417969 3.582031-8 8-8 2.15625-.007812 4.222656.878906 5.703125 2.449219 1.484375 1.464843 2.3125 3.464843 2.296875 5.550781v48c0 4.417969 3.582031 8 8 8s8-3.582031 8-8v-32c0-4.417969 3.582031-8 8-8 2.15625-.007812 4.222656.878906 5.703125 2.449219 1.484375 1.464843 2.3125 3.464843 2.296875 5.550781zm0 0"/><path d="m432 440h-16c-4.417969 0-8 3.582031-8 8s3.582031 8 8 8h16c4.417969 0 8-3.582031 8-8s-3.582031-8-8-8zm0 0"/><path d="m168 184c13.253906 0 24 10.746094 24 24 0 4.417969 3.582031 8 8 8s8-3.582031 8-8c-.023438-19-13.386719-35.371094-32-39.199219v-8.800781c0-4.417969-3.582031-8-8-8s-8 3.582031-8 8v8.800781c-20.140625 4.089844-33.902344 22.773438-31.835938 43.21875 2.0625 20.445313 19.285157 36 39.835938 35.980469 13.253906 0 24 10.746094 24 24s-10.746094 24-24 24-24-10.746094-24-24c0-4.417969-3.582031-8-8-8s-8 3.582031-8 8c.023438 19 13.386719 35.371094 32 39.199219v8.800781c0 4.417969 3.582031 8 8 8s8-3.582031 8-8v-8.800781c20.140625-4.089844 33.902344-22.773438 31.835938-43.21875-2.0625-20.445313-19.285157-36-39.835938-35.980469-13.253906 0-24-10.746094-24-24s10.746094-24 24-24zm0 0"/><path d="m248 192h56c4.417969 0 8-3.582031 8-8s-3.582031-8-8-8h-56c-4.417969 0-8 3.582031-8 8s3.582031 8 8 8zm0 0"/><path d="m248 224h56c4.417969 0 8-3.582031 8-8s-3.582031-8-8-8h-56c-4.417969 0-8 3.582031-8 8s3.582031 8 8 8zm0 0"/><path d="m400 224h56c4.417969 0 8-3.582031 8-8s-3.582031-8-8-8h-56c-4.417969 0-8 3.582031-8 8s3.582031 8 8 8zm0 0"/><path d="m400 192h56c4.417969 0 8-3.582031 8-8s-3.582031-8-8-8h-56c-4.417969 0-8 3.582031-8 8s3.582031 8 8 8zm0 0"/><path d="m472 104h-384c-4.417969 0-8 3.582031-8 8v256c0 4.417969 3.582031 8 8 8h192c4.417969 0 8-3.582031 8-8s-3.582031-8-8-8h-184v-240h368v40c0 4.417969 3.582031 8 8 8s8-3.582031 8-8v-48c0-4.417969-3.582031-8-8-8zm0 0"/></g></svg>