<svg height="480pt" viewBox="-24 0 480 480" width="480pt" xmlns="http://www.w3.org/2000/svg"><path d="m40 472h208c17.671875 0 32-14.328125 32-32v-16h-272v16c0 17.671875 14.328125 32 32 32zm120-24" fill="#9bc9ff"/><path d="m280 40c0-17.671875-14.328125-32-32-32h-208c-17.671875 0-32 14.328125-32 32v16h272zm-128-8" fill="#9bc9ff"/><path d="m328 320v-208h-208v208c0 26.507812 21.492188 48 48 48h208c-26.507812 0-48-21.492188-48-48zm-160-176h64v48h-64zm0 80" fill="#9bc9ff"/><path d="m424 192h-96v128c0 26.507812 21.492188 48 48 48s48-21.492188 48-48zm0 0" fill="#9bc9ff"/><g fill="#1e81ce"><path d="m280 392.136719c-4.417969 0-8 3.582031-8 8v15.863281h-256v-352h256v15.359375c0 4.417969 3.582031 8 8 8s8-3.582031 8-8v-39.359375c-.027344-22.082031-17.917969-39.9726562-40-40h-208c-22.082031.0273438-39.9726562 17.917969-40 40v400c.0273438 22.082031 17.917969 39.972656 40 40h208c22.082031-.027344 39.972656-17.917969 40-40v-39.863281c0-4.417969-3.582031-8-8-8zm-240-376.136719h208c13.253906 0 24 10.746094 24 24v8h-256v-8c0-13.253906 10.746094-24 24-24zm208 448h-208c-13.253906 0-24-10.746094-24-24v-8h256v8c0 13.253906-10.746094 24-24 24zm0 0"/><path d="m152 40h16c4.417969 0 8-3.582031 8-8s-3.582031-8-8-8h-16c-4.417969 0-8 3.582031-8 8s3.582031 8 8 8zm0 0"/><path d="m160 440h-32c-4.417969 0-8 3.582031-8 8s3.582031 8 8 8h32c4.417969 0 8-3.582031 8-8s-3.582031-8-8-8zm0 0"/><path d="m120 40h8c4.417969 0 8-3.582031 8-8s-3.582031-8-8-8h-8c-4.417969 0-8 3.582031-8 8s3.582031 8 8 8zm0 0"/><path d="m72 80h-40v40h16v-24h24zm0 0"/><path d="m32 360v40h40v-16h-24v-24zm0 0"/><path d="m424 184h-88v-72c0-4.417969-3.582031-8-8-8h-208c-4.417969 0-8 3.582031-8 8v208c.035156 30.914062 25.085938 55.964844 56 56h208c30.914062-.035156 55.964844-25.085938 56-56v-128c0-4.417969-3.582031-8-8-8zm-256 176c-22.082031-.027344-39.972656-17.917969-40-40v-200h192v200c-.003906 15.066406 6.085938 29.492188 16.878906 40zm248-40c0 22.089844-17.910156 40-40 40s-40-17.910156-40-40v-120h80zm0 0"/><path d="m168 200h64c4.417969 0 8-3.582031 8-8v-48c0-4.417969-3.582031-8-8-8h-64c-4.417969 0-8 3.582031-8 8v48c0 4.417969 3.582031 8 8 8zm8-48h48v32h-48zm0 0"/><path d="m280 216h-112c-4.417969 0-8 3.582031-8 8s3.582031 8 8 8h112c4.417969 0 8-3.582031 8-8s-3.582031-8-8-8zm0 0"/><path d="m280 248h-112c-4.417969 0-8 3.582031-8 8s3.582031 8 8 8h112c4.417969 0 8-3.582031 8-8s-3.582031-8-8-8zm0 0"/><path d="m280 280h-112c-4.417969 0-8 3.582031-8 8s3.582031 8 8 8h112c4.417969 0 8-3.582031 8-8s-3.582031-8-8-8zm0 0"/><path d="m280 312h-112c-4.417969 0-8 3.582031-8 8s3.582031 8 8 8h112c4.417969 0 8-3.582031 8-8s-3.582031-8-8-8zm0 0"/></g></svg>