<svg height="480pt" viewBox="0 0 480 480" width="480pt" xmlns="http://www.w3.org/2000/svg"><path d="m8 40v208c0 17.671875 14.328125 32 32 32h16v-272h-16c-17.671875 0-32 14.328125-32 32zm24 120" fill="#9bc9ff"/><path d="m440 8h-16v272h16c17.671875 0 32-14.328125 32-32v-208c0-17.671875-14.328125-32-32-32zm8 120" fill="#9bc9ff"/><path d="m216 424v48h144v-48zm120 24" fill="#9bc9ff"/><path d="m254.585938 160.0625c4.464843-.367188 8.878906 1.144531 12.183593 4.167969 3.304688 3.023437 5.199219 7.289062 5.230469 11.769531v40h88v-88l-56-56-64 64-24-24-64 64v40h88v-39.105469c-.183594-8.523437 6.121094-15.796875 14.585938-16.832031zm0 0" fill="#9bc9ff"/><g fill="#1e81ce"><path d="m440 0h-400c-22.082031.0273438-39.9726562 17.917969-40 40v208c.0273438 22.082031 17.917969 39.972656 40 40h135.863281c4.417969 0 8-3.582031 8-8s-3.582031-8-8-8h-111.863281v-256h352v256h-15.359375c-4.417969 0-8 3.582031-8 8s3.582031 8 8 8h39.359375c22.082031-.027344 39.972656-17.917969 40-40v-208c-.027344-22.082031-17.917969-39.9726562-40-40zm-392 272h-8c-13.253906 0-24-10.746094-24-24v-208c0-13.253906 10.746094-24 24-24h8zm416-24c0 13.253906-10.746094 24-24 24h-8v-256h8c13.253906 0 24 10.746094 24 24zm0 0"/><path d="m448 144c-4.417969 0-8 3.582031-8 8v16c0 4.417969 3.582031 8 8 8s8-3.582031 8-8v-16c0-4.417969-3.582031-8-8-8zm0 0"/><path d="m32 120c-4.417969 0-8 3.582031-8 8v32c0 4.417969 3.582031 8 8 8s8-3.582031 8-8v-32c0-4.417969-3.582031-8-8-8zm0 0"/><path d="m448 112c-4.417969 0-8 3.582031-8 8v8c0 4.417969 3.582031 8 8 8s8-3.582031 8-8v-8c0-4.417969-3.582031-8-8-8zm0 0"/><path d="m400 72v-40h-40v16h24v24zm0 0"/><path d="m96 72v-24h24v-16h-40v40zm0 0"/><path d="m304 208c-4.417969 0-8 3.582031-8 8s3.582031 8 8 8h56c4.417969 0 8-3.582031 8-8v-144c0-4.417969-3.582031-8-8-8h-208c-4.417969 0-8 3.582031-8 8v144c0 4.417969 3.582031 8 8 8h54.496094c4.417968 0 8-3.582031 8-8s-3.582032-8-8-8h-46.496094v-29.3125c5.511719-4.917969 14.566406-13.976562 30.785156-30.191406l25.214844-25.207032 18.398438 18.398438c3.125 3.125 8.191406 3.125 11.3125 0l54.289062-54.375 52 52v68.6875zm-64-83.3125c-18.601562-18.597656-18.625-18.625-18.894531-18.855469-1.222657-1.023437-2.722657-1.660156-4.304688-1.832031-3.816406-.34375-3.761719-.390625-37.304687 33.160156l-19.496094 19.496094v-76.65625h124.6875zm75.3125-44.6875h36.6875v36.6875zm0 0"/><path d="m343.199219 257.679688c-1.0625-4.003907-3.1875-7.648438-6.152344-10.542969-7.695313-7.472657-19.339844-9.109375-28.800781-4.058594-.914063-1.425781-1.988282-2.75-3.199219-3.941406-6.582031-6.507813-16.277344-8.742188-25.046875-5.769531v-57.367188c.050781-6.335938-2.46875-12.417969-6.984375-16.863281-4.988281-5.101563-12.003906-7.691407-19.113281-7.046875-12.597656 1.394531-22.078125 12.128906-21.902344 24.804687v95.105469h-8c-13.253906 0-24 10.746094-24 24v42.726562c.027344 26.890626 6.484375 53.386719 18.832031 77.273438h-2.832031c-4.417969 0-8 3.582031-8 8v48c0 4.417969 3.582031 8 8 8h144c4.417969 0 8-3.582031 8-8v-48c0-4.417969-3.582031-8-8-8h-2.953125l.65625-1.296875c12-23.617187 18.265625-49.730469 18.296875-76.222656v-58.480469c.050781-6.335938-2.46875-12.417969-6.984375-16.863281-6.808594-6.691407-16.882813-8.820313-25.816406-5.457031zm8.800781 206.320312h-128v-32h128zm8-125.519531c-.03125 23.96875-5.699219 47.59375-16.550781 68.96875l-4.351563 8.550781h-102.242187l-3.71875-7.199219c-11.230469-21.652343-17.109375-45.679687-17.136719-70.074219v-42.726562c0-4.417969 3.582031-8 8-8h8v40c0 4.417969 3.582031 8 8 8s8-3.582031 8-8v-151.105469c-.179688-4.371093 2.9375-8.191406 7.257812-8.894531 2.238282-.183594 4.457032.578125 6.113282 2.09375 1.660156 1.519531 2.613281 3.65625 2.628906 5.90625v104c0 4.417969 3.582031 8 8 8s8-3.582031 8-8v-24c0-4.417969 3.582031-8 8-8 2.15625-.007812 4.222656.878906 5.703125 2.449219 1.484375 1.464843 2.3125 3.464843 2.296875 5.550781v40c0 4.417969 3.582031 8 8 8s8-3.582031 8-8v-32c0-4.417969 3.582031-8 8-8 2.15625-.007812 4.222656.878906 5.703125 2.449219 1.484375 1.464843 2.3125 3.464843 2.296875 5.550781v48c0 4.417969 3.582031 8 8 8s8-3.582031 8-8v-32c0-4.417969 3.582031-8 8-8 2.15625-.007812 4.222656.878906 5.703125 2.449219 1.484375 1.464843 2.3125 3.464843 2.296875 5.550781zm0 0"/><path d="m336 440h-16c-4.417969 0-8 3.582031-8 8s3.582031 8 8 8h16c4.417969 0 8-3.582031 8-8s-3.582031-8-8-8zm0 0"/></g></svg>