<svg height="480pt" viewBox="-24 0 480 480" width="480pt" xmlns="http://www.w3.org/2000/svg"><path d="m8 440c0 17.671875 14.328125 32 32 32h208c17.671875 0 32-14.328125 32-32v-16h-272zm152 8" fill="#9bc9ff"/><path d="m280 40c0-17.671875-14.328125-32-32-32h-208c-17.671875 0-32 14.328125-32 32v16h272zm-128-8" fill="#9bc9ff"/><path d="m232 296 32-128h-208l32 128zm-96-64" fill="#9bc9ff"/><path d="m136 344c0 13.253906-10.746094 24-24 24s-24-10.746094-24-24 10.746094-24 24-24 24 10.746094 24 24zm0 0" fill="#9bc9ff"/><path d="m232 344c0 13.253906-10.746094 24-24 24s-24-10.746094-24-24 10.746094-24 24-24 24 10.746094 24 24zm0 0" fill="#9bc9ff"/><g fill="#1e81ce"><path d="m416 192h16v16h-16zm0 0"/><path d="m416 256h16v16h-16zm0 0"/><path d="m280 368.136719c-4.417969 0-8 3.582031-8 8v39.863281h-256v-352h256v55.359375c0 4.417969 3.582031 8 8 8s8-3.582031 8-8v-79.359375c-.027344-22.082031-17.917969-39.9726562-40-40h-208c-22.082031.0273438-39.9726562 17.917969-40 40v400c.0273438 22.082031 17.917969 39.972656 40 40h208c22.082031-.027344 39.972656-17.917969 40-40v-63.863281c0-4.417969-3.582031-8-8-8zm-240-352.136719h208c13.253906 0 24 10.746094 24 24v8h-256v-8c0-13.253906 10.746094-24 24-24zm208 448h-208c-13.253906 0-24-10.746094-24-24v-8h256v8c0 13.253906-10.746094 24-24 24zm0 0"/><path d="m152 40h16c4.417969 0 8-3.582031 8-8s-3.582031-8-8-8h-16c-4.417969 0-8 3.582031-8 8s3.582031 8 8 8zm0 0"/><path d="m160 440h-32c-4.417969 0-8 3.582031-8 8s3.582031 8 8 8h32c4.417969 0 8-3.582031 8-8s-3.582031-8-8-8zm0 0"/><path d="m120 40h8c4.417969 0 8-3.582031 8-8s-3.582031-8-8-8h-8c-4.417969 0-8 3.582031-8 8s3.582031 8 8 8zm0 0"/><path d="m48 96h24v-16h-40v40h16zm0 0"/><path d="m32 360v40h40v-16h-24v-24zm0 0"/><path d="m238.246094 304 36-144h-228.492188l36 144zm15.507812-128-28 112h-131.507812l-28-112zm0 0"/><path d="m238.863281 336c-3.589843-14.113281-16.300781-23.992188-30.863281-23.992188s-27.273438 9.878907-30.863281 23.992188h-34.273438c-4.027343-15.601562-19.03125-25.777344-35.015625-23.746094s-27.96875 15.632813-27.96875 31.746094 11.984375 29.714844 27.96875 31.746094 30.988282-8.144532 35.015625-23.746094h34.273438c3.589843 14.113281 16.300781 23.992188 30.863281 23.992188s27.273438-9.878907 30.863281-23.992188h23.199219l56-200h57.9375v-16h-70.0625l-56 200zm-126.863281 24c-8.835938 0-16-7.164062-16-16s7.164062-16 16-16 16 7.164062 16 16-7.164062 16-16 16zm96 0c-8.835938 0-16-7.164062-16-16s7.164062-16 16-16 16 7.164062 16 16-7.164062 16-16 16zm0 0"/><path d="m120 224h16v16h-16zm0 0"/><path d="m152 224h16v16h-16zm0 0"/><path d="m184 224h16v16h-16zm0 0"/><path d="m320 192h80v16h-80zm0 0"/><path d="m312 224h120v16h-120zm0 0"/><path d="m304 256h64v16h-64zm0 0"/><path d="m384 256h16v16h-16zm0 0"/><path d="m296 288h136v16h-136zm0 0"/></g></svg>