<svg height="480pt" viewBox="-32 0 480 480" width="480pt" xmlns="http://www.w3.org/2000/svg"><path d="m280 40c0-17.671875-14.328125-32-32-32h-208c-17.671875 0-32 14.328125-32 32v16h272zm-128-8" fill="#9bc9ff"/><path d="m40 472h208c17.671875 0 32-14.328125 32-32v-16h-272v16c0 17.671875 14.328125 32 32 32zm120-24" fill="#9bc9ff"/><path d="m255.679688 221.921875c-3.507813 5.46875-5.875 11.589844-6.960938 18-.242188 1.160156-.402344 2.335937-.480469 3.519531-5.105469-2.289062-10.640625-3.460937-16.238281-3.441406-1.015625-.027344-2.03125.023438-3.039062.160156-7.097657.484375-13.925782 2.890625-19.761719 6.960938-16.625 11.515625-22.019531 33.640625-12.558594 51.519531-1.488281-.675781-3.042969-1.183594-4.640625-1.519531-2.601562-.738282-5.292969-1.113282-8-1.121094-10.671875.035156-20.625 5.371094-26.558594 14.238281-2.921875 4.234375-4.738281 9.128907-5.28125 14.242188-.082031 1.199219-.160156 2.320312-.160156 3.519531-.023438 11.324219 5.980469 21.808594 15.761719 27.519531 4.902343 2.949219 10.515625 4.496094 16.238281 4.480469h176c26.507812 0 48-21.492188 48-48s-21.492188-48-48-48c-7.175781-.023438-14.261719 1.59375-20.71875 4.71875 7.085938-14.871094 6.0625-32.335938-2.71875-46.277344-8.777344-13.9375-24.089844-22.410156-40.5625-22.441406-5.058594-.03125-10.085938.78125-14.878906 2.398438-3.359375 1.0625-6.582032 2.511718-9.601563 4.320312-6.382812 3.777344-11.804687 8.980469-15.839843 15.203125zm0 0" fill="#9bc9ff"/><path d="m192 160c0 17.671875-14.328125 32-32 32s-32-14.328125-32-32 14.328125-32 32-32 32 14.328125 32 32zm0 0" fill="#9bc9ff"/><g fill="#1e81ce"><path d="m280 384.136719c-4.417969 0-8 3.582031-8 8v23.863281h-256v-352h256v103.359375c0 4.417969 3.582031 8 8 8s8-3.582031 8-8v-127.359375c-.027344-22.082031-17.917969-39.9726562-40-40h-208c-22.082031.0273438-39.9726562 17.917969-40 40v400c.0273438 22.082031 17.917969 39.972656 40 40h208c22.082031-.027344 39.972656-17.917969 40-40v-47.863281c0-4.417969-3.582031-8-8-8zm-240-368.136719h208c13.253906 0 24 10.746094 24 24v8h-256v-8c0-13.253906 10.746094-24 24-24zm208 448h-208c-13.253906 0-24-10.746094-24-24v-8h256v8c0 13.253906-10.746094 24-24 24zm0 0"/><path d="m152 40h16c4.417969 0 8-3.582031 8-8s-3.582031-8-8-8h-16c-4.417969 0-8 3.582031-8 8s3.582031 8 8 8zm0 0"/><path d="m160 440h-32c-4.417969 0-8 3.582031-8 8s3.582031 8 8 8h32c4.417969 0 8-3.582031 8-8s-3.582031-8-8-8zm0 0"/><path d="m120 40h8c4.417969 0 8-3.582031 8-8s-3.582031-8-8-8h-8c-4.417969 0-8 3.582031-8 8s3.582031 8 8 8zm0 0"/><path d="m72 80h-40v40h16v-24h24zm0 0"/><path d="m32 360v40h40v-16h-24v-24zm0 0"/><path d="m387.527344 263.199219c-11.011719-6.105469-23.730469-8.40625-36.183594-6.535157.441406-2.867187.660156-5.761718.65625-8.664062-.070312-30.898438-25.101562-55.929688-56-56-10.035156.046875-19.878906 2.746094-28.535156 7.824219-12.476563 7.339843-21.59375 19.257812-25.417969 33.214843-3.300781-.699218-6.671875-1.046874-10.046875-1.039062-1.1875-.035156-2.378906.023438-3.558594.175781-14.007812.992188-26.867187 8.101563-35.152344 19.441407-4.714843 6.46875-7.738281 14.015624-8.800781 21.949218-.308593 2.132813-.472656 4.28125-.488281 6.433594 0 2.679688.222656 5.355469.671875 8-5.675781-.066406-11.300781 1.0625-16.511719 3.304688-7.039062 3.023437-13.046875 8.023437-17.296875 14.398437-3.738281 5.445313-6.039062 11.746094-6.6875 18.320313-.097656 1.351562-.175781 2.640624-.175781 4 0 14.136718 7.472656 27.21875 19.648438 34.402343 6.152343 3.667969 13.1875 5.59375 20.351562 5.574219h176c25.46875.027344 47.75-17.136719 54.222656-41.773438 6.46875-24.632812-4.5-50.53125-26.695312-63.027343zm-27.527344 88.800781h-176c-4.300781.015625-8.523438-1.15625-12.199219-3.382812-7.304687-4.300782-11.792969-12.140626-11.800781-20.617188 0-.992188.070312-1.921875.113281-2.664062.410157-3.847657 1.789063-7.527344 4-10.703126 4.457031-6.621093 11.90625-10.605468 19.886719-10.632812 2.167969.035156 4.320312.359375 6.398438.96875 1.019531.222656 2.011718.550781 2.960937.984375 3.125 1.386719 6.789063.636719 9.113281-1.871094 2.324219-2.507812 2.800782-6.214843 1.183594-9.226562-2.417969-4.578125-3.671875-9.679688-3.65625-14.855469.011719-1.449219.125-2.894531.335938-4.328125.710937-5.289063 2.730468-10.3125 5.871093-14.625 2.085938-2.847656 4.632813-5.332031 7.535157-7.34375 4.894531-3.355469 10.613281-5.3125 16.539062-5.65625.304688-.039063.609375-.054687.917969-.046875 4.734375-.089844 9.429687.84375 13.769531 2.734375 2.390625 1.078125 5.15625.917969 7.40625-.433594 2.25-1.347656 3.691406-3.714843 3.863281-6.332031.066407-.90625.195313-1.804688.386719-2.6875 1.910156-11.585938 8.859375-21.722656 18.976562-27.679688 6.1875-3.632812 13.222657-5.5625 20.398438-5.601562 22.0625.070312 39.929688 17.9375 40 40 .027344 5.960938-1.308594 11.851562-3.910156 17.214844-1.496094 3.070312-.878906 6.75 1.53125 9.164062 2.414062 2.410156 6.09375 3.027344 9.164062 1.53125 12.386719-5.945312 26.960938-5.101562 38.585938 2.226563 11.621094 7.332031 18.65625 20.121093 18.628906 33.863281-.027344 22.082031-17.917969 39.972656-40 40zm0 0"/><path d="m200 160c0-22.089844-17.910156-40-40-40s-40 17.910156-40 40 17.910156 40 40 40c22.082031-.027344 39.972656-17.917969 40-40zm-40 24c-13.253906 0-24-10.746094-24-24s10.746094-24 24-24 24 10.746094 24 24-10.746094 24-24 24zm0 0"/><path d="m168 104v-16c0-4.417969-3.582031-8-8-8s-8 3.582031-8 8v16c0 4.417969 3.582031 8 8 8s8-3.582031 8-8zm0 0"/><path d="m205.257812 126.054688 11.308594-11.3125c2.082032-2.007813 2.914063-4.980469 2.183594-7.777344-.734375-2.796875-2.917969-4.980469-5.714844-5.714844-2.796875-.730469-5.769531.101562-7.777344 2.183594l-11.3125 11.308594c-2.082031 2.011718-2.914062 4.984374-2.183593 7.78125.734375 2.796874 2.917969 4.980468 5.714843 5.714843 2.796876.730469 5.769532-.101562 7.78125-2.183593zm0 0"/><path d="m240 160c0-4.417969-3.582031-8-8-8h-16c-4.417969 0-8 3.582031-8 8s3.582031 8 8 8h16c4.417969 0 8-3.582031 8-8zm0 0"/><path d="m205.257812 216.566406c3.136719 3.035156 8.125 2.988282 11.210938-.097656s3.132812-8.074219.097656-11.210938l-11.308594-11.3125c-3.140624-3.03125-8.128906-2.988281-11.214843.097657-3.085938 3.085937-3.128907 8.074219-.097657 11.214843zm0 0"/><path d="m152 216v16c0 4.417969 3.582031 8 8 8s8-3.582031 8-8v-16c0-4.417969-3.582031-8-8-8s-8 3.582031-8 8zm0 0"/><path d="m109.089844 218.910156c2.121094 0 4.152344-.839844 5.652344-2.34375l11.3125-11.308594c3.03125-3.140624 2.988281-8.128906-.097657-11.214843-3.085937-3.085938-8.074219-3.128907-11.214843-.097657l-11.308594 11.3125c-2.289063 2.285157-2.972656 5.726563-1.734375 8.714844 1.238281 2.988282 4.152343 4.9375 7.390625 4.9375zm0 0"/><path d="m80 160c0 4.417969 3.582031 8 8 8h16c4.417969 0 8-3.582031 8-8s-3.582031-8-8-8h-16c-4.417969 0-8 3.582031-8 8zm0 0"/><path d="m120.398438 128.398438c3.238281 0 6.152343-1.949219 7.390624-4.9375 1.238282-2.988282.554688-6.429688-1.734374-8.71875l-11.3125-11.308594c-2.007813-2.082032-4.980469-2.914063-7.777344-2.183594-2.796875.734375-4.980469 2.917969-5.714844 5.714844-.730469 2.796875.101562 5.769531 2.183594 7.777344l11.308594 11.3125c1.5 1.5 3.535156 2.34375 5.65625 2.34375zm0 0"/></g></svg>