<svg height="480pt" viewBox="0 -48 480 480" width="480pt" xmlns="http://www.w3.org/2000/svg"><path d="m24 376h432c8.835938 0 16-7.164062 16-16v-272c0-8.835938-7.164062-16-16-16h-88c-8.835938 0-16-7.164062-16-16v-16c0-17.671875-14.328125-32-32-32h-160c-17.671875 0-32 14.328125-32 32v16c0 8.835938-7.164062 16-16 16h-88c-8.835938 0-16 7.164062-16 16v272c0 8.835938 7.164062 16 16 16zm368-272h32c8.835938 0 16 7.164062 16 16s-7.164062 16-16 16h-32c-8.835938 0-16-7.164062-16-16s7.164062-16 16-16zm-152 8c61.855469 0 112 50.144531 112 112s-50.144531 112-112 112-112-50.144531-112-112 50.144531-112 112-112zm-112 208c8.835938 0 16 7.164062 16 16s-7.164062 16-16 16-16-7.164062-16-16 7.164062-16 16-16zm0 0" fill="#9bc9ff"/><path d="m48 48h48v24h-48zm0 0" fill="#9bc9ff"/><g fill="#1e81ce"><path d="m240 344c-66.273438 0-120-53.726562-120-120s53.726562-120 120-120 120 53.726562 120 120c-.074219 66.242188-53.757812 119.925781-120 120zm0-224c-57.4375 0-104 46.5625-104 104s46.5625 104 104 104 104-46.5625 104-104c-.066406-57.410156-46.589844-103.933594-104-104zm0 0"/><path d="m128 360c-13.253906 0-24-10.746094-24-24s10.746094-24 24-24 24 10.746094 24 24-10.746094 24-24 24zm0-32c-4.417969 0-8 3.582031-8 8s3.582031 8 8 8 8-3.582031 8-8-3.582031-8-8-8zm0 0"/><path d="m424 144h-32c-13.253906 0-24-10.746094-24-24s10.746094-24 24-24h32c13.253906 0 24 10.746094 24 24s-10.746094 24-24 24zm-32-32c-4.417969 0-8 3.582031-8 8s3.582031 8 8 8h32c4.417969 0 8-3.582031 8-8s-3.582031-8-8-8zm0 0"/><path d="m456 64h-88c-4.417969 0-8-3.582031-8-8v-16c-.027344-22.082031-17.917969-39.9726562-40-40h-160c-22.082031.0273438-39.972656 17.917969-40 40v16c0 4.417969-3.582031 8-8 8h-8v-24h-64v24h-16c-13.253906 0-24 10.746094-24 24v272c0 13.253906 10.746094 24 24 24h432c13.253906 0 24-10.746094 24-24v-272c0-13.253906-10.746094-24-24-24zm-400-8h32v8h-32zm408 304c0 4.417969-3.582031 8-8 8h-432c-4.417969 0-8-3.582031-8-8v-272c0-4.417969 3.582031-8 8-8h88c13.253906 0 24-10.746094 24-24v-16c0-13.253906 10.746094-24 24-24h160c13.253906 0 24 10.746094 24 24v16c0 13.253906 10.746094 24 24 24h88c4.417969 0 8 3.582031 8 8zm0 0"/></g></svg>