<svg height="480pt" viewBox="0 0 480 480" width="480pt" xmlns="http://www.w3.org/2000/svg"><path d="m280 264c0 8.835938-7.164062 16-16 16s-16-7.164062-16-16 7.164062-16 16-16 16 7.164062 16 16zm0 0" fill="#9bc9ff"/><path d="m344 264c0 8.835938-7.164062 16-16 16s-16-7.164062-16-16 7.164062-16 16-16 16 7.164062 16 16zm0 0" fill="#9bc9ff"/><path d="m408 264c0 8.835938-7.164062 16-16 16s-16-7.164062-16-16 7.164062-16 16-16 16 7.164062 16 16zm0 0" fill="#9bc9ff"/><path d="m280 328c0 8.835938-7.164062 16-16 16s-16-7.164062-16-16 7.164062-16 16-16 16 7.164062 16 16zm0 0" fill="#9bc9ff"/><path d="m344 328c0 8.835938-7.164062 16-16 16s-16-7.164062-16-16 7.164062-16 16-16 16 7.164062 16 16zm0 0" fill="#9bc9ff"/><path d="m408 328c0 8.835938-7.164062 16-16 16s-16-7.164062-16-16 7.164062-16 16-16 16 7.164062 16 16zm0 0" fill="#9bc9ff"/><path d="m280 392c0 8.835938-7.164062 16-16 16s-16-7.164062-16-16 7.164062-16 16-16 16 7.164062 16 16zm0 0" fill="#9bc9ff"/><path d="m344 392c0 8.835938-7.164062 16-16 16s-16-7.164062-16-16 7.164062-16 16-16 16 7.164062 16 16zm0 0" fill="#9bc9ff"/><path d="m408 392c0 8.835938-7.164062 16-16 16s-16-7.164062-16-16 7.164062-16 16-16 16 7.164062 16 16zm0 0" fill="#9bc9ff"/><path d="m104 96h16c26.507812 0 48 21.492188 48 48v280c0 26.507812-21.492188 48-48 48h-16c-26.507812 0-48-21.492188-48-48v-280c0-26.507812 21.492188-48 48-48zm0 0" fill="#9bc9ff"/><path d="m240 168h176v48h-176zm0 0" fill="#9bc9ff"/><g fill="#1e81ce"><path d="m264 240c-13.253906 0-24 10.746094-24 24s10.746094 24 24 24 24-10.746094 24-24-10.746094-24-24-24zm0 32c-4.417969 0-8-3.582031-8-8s3.582031-8 8-8 8 3.582031 8 8-3.582031 8-8 8zm0 0"/><path d="m328 240c-13.253906 0-24 10.746094-24 24s10.746094 24 24 24 24-10.746094 24-24-10.746094-24-24-24zm0 32c-4.417969 0-8-3.582031-8-8s3.582031-8 8-8 8 3.582031 8 8-3.582031 8-8 8zm0 0"/><path d="m392 240c-13.253906 0-24 10.746094-24 24s10.746094 24 24 24 24-10.746094 24-24-10.746094-24-24-24zm0 32c-4.417969 0-8-3.582031-8-8s3.582031-8 8-8 8 3.582031 8 8-3.582031 8-8 8zm0 0"/><path d="m264 304c-13.253906 0-24 10.746094-24 24s10.746094 24 24 24 24-10.746094 24-24-10.746094-24-24-24zm0 32c-4.417969 0-8-3.582031-8-8s3.582031-8 8-8 8 3.582031 8 8-3.582031 8-8 8zm0 0"/><path d="m328 304c-13.253906 0-24 10.746094-24 24s10.746094 24 24 24 24-10.746094 24-24-10.746094-24-24-24zm0 32c-4.417969 0-8-3.582031-8-8s3.582031-8 8-8 8 3.582031 8 8-3.582031 8-8 8zm0 0"/><path d="m392 304c-13.253906 0-24 10.746094-24 24s10.746094 24 24 24 24-10.746094 24-24-10.746094-24-24-24zm0 32c-4.417969 0-8-3.582031-8-8s3.582031-8 8-8 8 3.582031 8 8-3.582031 8-8 8zm0 0"/><path d="m264 368c-13.253906 0-24 10.746094-24 24s10.746094 24 24 24 24-10.746094 24-24-10.746094-24-24-24zm0 32c-4.417969 0-8-3.582031-8-8s3.582031-8 8-8 8 3.582031 8 8-3.582031 8-8 8zm0 0"/><path d="m328 368c-13.253906 0-24 10.746094-24 24s10.746094 24 24 24 24-10.746094 24-24-10.746094-24-24-24zm0 32c-4.417969 0-8-3.582031-8-8s3.582031-8 8-8 8 3.582031 8 8-3.582031 8-8 8zm0 0"/><path d="m392 368c-13.253906 0-24 10.746094-24 24s10.746094 24 24 24 24-10.746094 24-24-10.746094-24-24-24zm0 32c-4.417969 0-8-3.582031-8-8s3.582031-8 8-8 8 3.582031 8 8-3.582031 8-8 8zm0 0"/><path d="m456 128h-32v-91.128906l-36.800781-36.871094h-155.199219v128h-58.398438c-7.09375-23.695312-28.871093-39.945312-53.601562-40h-16c-24.730469.054688-46.507812 16.304688-53.601562 40h-26.398438c-13.253906 0-24 10.746094-24 24v272c0 13.253906 10.746094 24 24 24h29.480469c9.257812 19.519531 28.917969 31.96875 50.519531 32h16c21.601562-.03125 41.261719-12.480469 50.519531-32h285.480469c13.253906 0 24-10.746094 24-24v-272c0-13.253906-10.746094-24-24-24zm-208-112h132.585938l27.414062 27.488281v84.511719h-160zm-224 416c-4.417969 0-8-3.582031-8-8v-272c0-4.417969 3.582031-8 8-8h24v280c.023438 2.679688.234375 5.351562.640625 8zm136-8c-.027344 22.082031-17.917969 39.972656-40 40h-16c-22.082031-.027344-39.972656-17.917969-40-40v-280c.027344-22.082031 17.917969-39.972656 40-40h16c22.082031.027344 39.972656 17.917969 40 40zm304 0c0 4.417969-3.582031 8-8 8h-280.640625c.40625-2.648438.617187-5.320312.640625-8v-280h280c4.417969 0 8 3.582031 8 8zm0 0"/><path d="m232 224h192v-64h-192zm16-48h160v32h-160zm0 0"/><path d="m264 32h112v16h-112zm0 0"/><path d="m264 64h112v16h-112zm0 0"/><path d="m264 96h112v16h-112zm0 0"/></g></svg>