<svg height="480pt" viewBox="0 0 480 480.00108" width="480pt" xmlns="http://www.w3.org/2000/svg"><path d="m8 368c-.027344 42.449219 25.761719 80.648438 65.140625 96.492188 39.382813 15.84375 84.441406 6.148437 113.820313-24.492188h106.078124c32.78125 34.167969 84.503907 41.878906 125.824219 18.761719 41.320313-23.117188 61.8125-71.226563 49.847657-117.039063-11.960938-45.8125-53.363282-77.761718-100.710938-77.722656h-256c-57.4375 0-104 46.5625-104 104zm400-16c8.835938 0 16 7.164062 16 16s-7.164062 16-16 16-16-7.164062-16-16 7.164062-16 16-16zm-52.511719-33.96875c5.503907-6.914062 15.574219-8.050781 22.484375-2.546875 6.914063 5.507813 8.050782 15.574219 2.546875 22.484375-5.507812 6.914062-15.574219 8.050781-22.488281 2.542969-6.90625-5.503907-8.046875-15.570313-2.542969-22.480469zm12.511719 73.96875c8.835938 0 16 7.164062 16 16s-7.164062 16-16 16-16-7.164062-16-16 7.164062-16 16-16zm-40-40c8.835938 0 16 7.164062 16 16s-7.164062 16-16 16-16-7.164062-16-16 7.164062-16 16-16zm-240 32h-32v-32h32zm40 40h-32v-32h32zm8-72h32v32h-32zm-8-8h-32v-32h32zm0 0" fill="#9bc9ff"/><g fill="#1e81ce"><path d="m368 256h-120v-40c0-13.253906-10.746094-24-24-24h-168c-22.089844 0-40-17.910156-40-40s17.910156-40 40-40h384c22.09375 0 40-17.910156 40-40s-17.90625-40-40-40h-184c-4.417969 0-8-3.582031-8-8v-24h-16v24c0 13.253906 10.746094 24 24 24h184c13.253906 0 24 10.746094 24 24s-10.746094 24-24 24h-384c-30.925781 0-56 25.070312-56 56s25.074219 56 56 56h168c4.417969 0 8 3.582031 8 8v40h-120c-61.855469 0-112 50.144531-112 112s50.144531 112 112 112c29.3125.128906 57.480469-11.378906 78.3125-32h99.375c20.835938 20.621094 49 32.128906 78.3125 32 61.855469 0 112-50.144531 112-112s-50.144531-112-112-112zm0 208c-26.144531.113281-51.171875-10.570312-69.175781-29.527344-1.507813-1.578125-3.597657-2.472656-5.785157-2.472656h-106.078124c-2.183594 0-4.273438.894531-5.785157 2.472656-18 18.957032-43.03125 29.640625-69.175781 29.527344-53.019531 0-96-42.980469-96-96s42.980469-96 96-96h256c53.019531 0 96 42.980469 96 96s-42.980469 96-96 96zm0 0"/><path d="m168 344h-32v-32c0-4.417969-3.582031-8-8-8h-32c-4.417969 0-8 3.582031-8 8v32h-32c-4.417969 0-8 3.582031-8 8v32c0 4.417969 3.582031 8 8 8h32v32c0 4.417969 3.582031 8 8 8h32c4.417969 0 8-3.582031 8-8v-32h32c4.417969 0 8-3.582031 8-8v-32c0-4.417969-3.582031-8-8-8zm-88 32h-16v-16h16zm24-56h16v16h-16zm16 96h-16v-16h16zm-24-32v-32h32v32zm64-8h-16v-16h16zm0 0"/><path d="m353.046875 346.777344c4.230469 3.382812 9.488281 5.226562 14.90625 5.222656.917969 0 1.835937-.054688 2.75-.160156 9.648437-1.089844 17.691406-7.886719 20.375-17.214844 2.683594-9.332031-.523437-19.359375-8.117187-25.410156-10.371094-8.257813-25.46875-6.542969-33.726563 3.824218-8.257813 10.371094-6.546875 25.472657 3.820313 33.730469zm8.699219-23.761719c1.3125-1.664063 3.242187-2.734375 5.351562-2.96875.300782-.03125.601563-.046875.902344-.046875 1.808594-.003906 3.558594.613281 4.96875 1.742188 2.542969 2.011718 3.621094 5.355468 2.734375 8.472656-.890625 3.117187-3.570313 5.390625-6.792969 5.753906-3.21875.367188-6.339844-1.246094-7.90625-4.085938-1.566406-2.835937-1.261718-6.339843.765625-8.867187zm0 0"/><path d="m408 344c-13.253906 0-24 10.746094-24 24s10.746094 24 24 24 24-10.746094 24-24-10.746094-24-24-24zm0 32c-4.417969 0-8-3.582031-8-8s3.582031-8 8-8 8 3.582031 8 8-3.582031 8-8 8zm0 0"/><path d="m352 368c0-13.253906-10.746094-24-24-24s-24 10.746094-24 24 10.746094 24 24 24 24-10.746094 24-24zm-24 8c-4.417969 0-8-3.582031-8-8s3.582031-8 8-8 8 3.582031 8 8-3.582031 8-8 8zm0 0"/><path d="m368 384c-13.253906 0-24 10.746094-24 24s10.746094 24 24 24 24-10.746094 24-24-10.746094-24-24-24zm0 32c-4.417969 0-8-3.582031-8-8s3.582031-8 8-8 8 3.582031 8 8-3.582031 8-8 8zm0 0"/><path d="m224 360h-16c-4.417969 0-8 3.582031-8 8s3.582031 8 8 8h16c4.417969 0 8-3.582031 8-8s-3.582031-8-8-8zm0 0"/><path d="m272 360h-16c-4.417969 0-8 3.582031-8 8s3.582031 8 8 8h16c4.417969 0 8-3.582031 8-8s-3.582031-8-8-8zm0 0"/></g></svg>