<svg height="480pt" viewBox="-63 0 479 480" width="480pt" xmlns="http://www.w3.org/2000/svg"><path d="m16.5 8h-8v464h336v-464zm32 32c4.417969 0 8 3.582031 8 8s-3.582031 8-8 8-8-3.582031-8-8 3.582031-8 8-8zm0 400c-4.417969 0-8-3.582031-8-8s3.582031-8 8-8 8 3.582031 8 8-3.582031 8-8 8zm247.808594-129.144531c-3.675782 64.863281-58.296875 115.023437-123.238282 113.167969-64.9375-1.859376-116.609374-55.058594-116.570312-120.023438-.035156-28.519531 10.125-56.113281 28.648438-77.800781 3.992187-4.75 4.863281-11.390625 2.234374-17.011719-2.628906-5.621094-8.285156-9.207031-14.492187-9.1875h-.390625c-8.835938 0-16-7.164062-16-16v-48c0-8.835938 7.164062-16 16-16h208c8.835938 0 16 7.164062 16 16v48c0 8.835938-7.164062 16-16 16h-.375c-6.253906.03125-11.917969 3.703125-14.5 9.398438-2.582031 5.699218-1.605469 12.375 2.5 17.097656 19.886719 23.453125 29.980469 53.664062 28.183594 84.359375zm8.191406 129.144531c-4.417969 0-8-3.582031-8-8s3.582031-8 8-8 8 3.582031 8 8-3.582031 8-8 8zm0-384c-4.417969 0-8-3.582031-8-8s3.582031-8 8-8 8 3.582031 8 8-3.582031 8-8 8zm0 0" fill="#9bc9ff"/><path d="m232.5 304c0 30.929688-25.070312 56-56 56s-56-25.070312-56-56 25.070312-56 56-56 56 25.070312 56 56zm0 0" fill="#9bc9ff"/><path d="m56.5 48c0 4.417969-3.582031 8-8 8s-8-3.582031-8-8 3.582031-8 8-8 8 3.582031 8 8zm0 0" fill="#9bc9ff"/><path d="m312.5 48c0 4.417969-3.582031 8-8 8s-8-3.582031-8-8 3.582031-8 8-8 8 3.582031 8 8zm0 0" fill="#9bc9ff"/><path d="m56.5 432c0 4.417969-3.582031 8-8 8s-8-3.582031-8-8 3.582031-8 8-8 8 3.582031 8 8zm0 0" fill="#9bc9ff"/><path d="m312.5 432c0 4.417969-3.582031 8-8 8s-8-3.582031-8-8 3.582031-8 8-8 8 3.582031 8 8zm0 0" fill="#9bc9ff"/><g fill="#1e81ce"><path d="m344.5 0h-336c-4.417969 0-8 3.582031-8 8v464c0 4.417969 3.582031 8 8 8h336c4.417969 0 8-3.582031 8-8v-464c0-4.417969-3.582031-8-8-8zm-8 464h-320v-448h320zm0 0"/><path d="m176.429688 432c-49.898438-.035156-95.226563-29.058594-116.132813-74.363281-20.910156-45.304688-13.585937-98.632813 18.761719-136.621094 1.992187-2.3125 2.433594-5.578125 1.128906-8.335937-1.28125-2.871094-4.144531-4.707032-7.289062-4.679688-6.421876.074219-12.613282-2.417969-17.191407-6.921875-4.582031-4.507813-7.175781-10.652344-7.207031-17.078125v-48c0-13.253906 10.746094-24 24-24h208c13.253906 0 24 10.746094 24 24v48c0 13.253906-10.746094 24-24 24h-.382812c-3.082032-.074219-5.90625 1.710938-7.160157 4.527344-1.386719 2.917968-.898437 6.378906 1.238281 8.800781 21.226563 25.007813 32.003907 57.230469 30.097657 89.976563-4.199219 65.246093-56.535157 117.042968-121.824219 120.558593-2.015625.136719-4.039062.136719-6.039062.136719zm-103.929688-304c-4.417969 0-8 3.582031-8 8v48c0 4.417969 3.582031 8 8 8 9.527344-.175781 18.25 5.3125 22.214844 13.976562 3.964844 8.417969 2.601562 18.378907-3.480469 25.421876-38.570313 45.292968-35.003906 112.84375 8.128906 153.816406 43.132813 40.976562 110.773438 41.082031 154.03125.238281 43.257813-40.839844 47.035157-108.378906 8.601563-153.789063-6.179688-7.164062-7.574219-17.289062-3.558594-25.855468 3.871094-8.472656 12.363281-13.882813 21.679688-13.808594h.382812c4.417969 0 8-3.582031 8-8v-48c0-4.417969-3.582031-8-8-8zm0 0"/><path d="m88.5 312c-4.417969 0-8-3.582031-8-8 .003906-22.804688 8.125-44.863281 22.910156-62.222656 2.875-3.363282 7.925782-3.761719 11.289063-.890625 3.363281 2.875 3.761719 7.925781.890625 11.289062-12.324219 14.457031-19.089844 32.828125-19.089844 51.824219 0 4.417969-3.582031 8-8 8zm0 0"/><path d="m180.644531 399.902344c-4.417969.101562-8.082031-3.398438-8.179687-7.816406-.101563-4.421876 3.402344-8.082032 7.820312-8.183594 40.773438-2.1875 73.460938-34.535156 76.078125-75.285156.023438-2.152344.949219-4.195313 2.554688-5.628907 1.605469-1.433593 3.738281-2.125 5.878906-1.910156 4.40625.25 7.777344 4.019531 7.535156 8.425781-3.121093 48.925782-42.363281 87.773438-91.320312 90.398438zm0 0"/><path d="m176.5 368c-35.347656 0-64-28.652344-64-64s28.652344-64 64-64 64 28.652344 64 64c-.039062 35.328125-28.671875 63.960938-64 64zm0-112c-26.507812 0-48 21.492188-48 48s21.492188 48 48 48 48-21.492188 48-48c-.027344-26.5-21.5-47.972656-48-48zm0 0"/><path d="m248.5 96h-144c-4.417969 0-8-3.582031-8-8s3.582031-8 8-8h144c4.417969 0 8 3.582031 8 8s-3.582031 8-8 8zm0 0"/><path d="m48.5 64c-8.835938 0-16-7.164062-16-16s7.164062-16 16-16 16 7.164062 16 16-7.164062 16-16 16zm0-16"/><path d="m304.5 64c-8.835938 0-16-7.164062-16-16s7.164062-16 16-16 16 7.164062 16 16-7.164062 16-16 16zm0-16"/><path d="m48.5 448c-8.835938 0-16-7.164062-16-16s7.164062-16 16-16 16 7.164062 16 16-7.164062 16-16 16zm0-16"/><path d="m304.5 448c-8.835938 0-16-7.164062-16-16s7.164062-16 16-16 16 7.164062 16 16-7.164062 16-16 16zm0-16"/><path d="m280.5 96h-8c-4.417969 0-8-3.582031-8-8s3.582031-8 8-8h8c4.417969 0 8 3.582031 8 8s-3.582031 8-8 8zm0 0"/><path d="m80.5 96h-8c-4.417969 0-8-3.582031-8-8s3.582031-8 8-8h8c4.417969 0 8 3.582031 8 8s-3.582031 8-8 8zm0 0"/></g></svg>