<svg height="480pt" viewBox="-72 0 480 480" width="480pt" xmlns="http://www.w3.org/2000/svg"><path d="m256.800781 277.070312c-2.390625-3.503906-5.066406-6.804687-8-9.871093-18.496093-20.632813-60.800781-61.269531-60.800781-61.269531s13.847656 56.261718 22.488281 82.832031c1.230469 4.222656 2.8125 8.339843 4.726563 12.300781 6.628906 11.488281 21.3125 15.429688 32.800781 8.800781 11.488281-6.625 15.429687-21.3125 8.800781-32.800781zm0 0" fill="#9bc9ff"/><path d="m328 456v-432c0-8.835938-7.164062-16-16-16h-288c-8.835938 0-16 7.164062-16 16v432c0 8.835938 7.164062 16 16 16h288c8.835938 0 16-7.164062 16-16zm-280-416c4.417969 0 8 3.582031 8 8s-3.582031 8-8 8-8-3.582031-8-8 3.582031-8 8-8zm0 400c-4.417969 0-8-3.582031-8-8s3.582031-8 8-8 8 3.582031 8 8-3.582031 8-8 8zm240 0c-4.417969 0-8-3.582031-8-8s3.582031-8 8-8 8 3.582031 8 8-3.582031 8-8 8zm-8-210v130c0 26.507812-21.492188 48-48 48h-128c-26.507812 0-48-21.492188-48-48v-130c-29.789062-53.839844-17.054688-121.257812 30.320312-160.519531 47.375-39.265625 115.984376-39.265625 163.359376 0 47.375 39.261719 60.109374 106.679687 30.320312 160.519531zm8-174c-4.417969 0-8-3.582031-8-8s3.582031-8 8-8 8 3.582031 8 8-3.582031 8-8 8zm0 0" fill="#9bc9ff"/><path d="m248.800781 267.199219c2.917969 3.066406 5.582031 6.363281 7.960938 9.863281 6.625 11.488281 2.6875 26.175781-8.800781 32.800781-11.488282 6.628907-26.171876 2.6875-32.800782-8.800781-1.914062-3.960938-3.496094-8.078125-4.726562-12.300781-58.917969 20.65625-124.148438-4.164063-154.433594-58.761719v130c0 26.507812 21.492188 48 48 48h128c26.507812 0 48-21.492188 48-48v-130c-7.945312 14.269531-18.53125 26.894531-31.199219 37.199219zm0 0" fill="#9bc9ff"/><path d="m56 48c0 4.417969-3.582031 8-8 8s-8-3.582031-8-8 3.582031-8 8-8 8 3.582031 8 8zm0 0" fill="#9bc9ff"/><path d="m296 48c0 4.417969-3.582031 8-8 8s-8-3.582031-8-8 3.582031-8 8-8 8 3.582031 8 8zm0 0" fill="#9bc9ff"/><path d="m56 432c0 4.417969-3.582031 8-8 8s-8-3.582031-8-8 3.582031-8 8-8 8 3.582031 8 8zm0 0" fill="#9bc9ff"/><path d="m296 432c0 4.417969-3.582031 8-8 8s-8-3.582031-8-8 3.582031-8 8-8 8 3.582031 8 8zm0 0" fill="#9bc9ff"/><g fill="#1e81ce"><path d="m312 0h-288c-13.253906 0-24 10.746094-24 24v432c0 13.253906 10.746094 24 24 24h288c13.253906 0 24-10.746094 24-24v-432c0-13.253906-10.746094-24-24-24zm8 456c0 4.417969-3.582031 8-8 8h-288c-4.417969 0-8-3.582031-8-8v-432c0-4.417969 3.582031-8 8-8h288c4.417969 0 8 3.582031 8 8zm0 0"/><path d="m168 32c-47.765625-.015625-92.035156 25.035156-116.613281 65.988281-24.582031 40.953125-25.867188 91.804688-3.386719 133.949219v128.0625c.035156 30.914062 25.085938 55.964844 56 56h128c30.914062-.035156 55.964844-25.085938 56-56v-128.070312c22.480469-42.144532 21.195312-92.992188-3.386719-133.945313-24.578125-40.953125-68.847656-66.003906-116.613281-65.984375zm104 328c-.027344 22.082031-17.917969 39.972656-40 40h-128c-22.082031-.027344-39.972656-17.917969-40-40v-104.367188c.078125.09375.175781.183594.265625.277344 2.8125 3.320313 5.8125 6.457032 8.910156 9.472656.664063.640626 1.320313 1.273438 1.992188 1.90625 3.144531 2.925782 6.398437 5.734376 9.769531 8.34375.488281.367188.984375.710938 1.46875 1.070313 3.203125 2.410156 6.511719 4.671875 9.929688 6.785156.566406.351563 1.121093.726563 1.695312 1.070313 3.648438 2.195312 7.417969 4.183594 11.257812 6.027344.800782.390624 1.648438.796874 2.472657 1.140624 3.933593 1.792969 7.925781 3.449219 12 4.859376.359375.125.726562.214843 1.085937.335937 3.90625 1.308594 7.886719 2.398437 11.914063 3.367187.796875.183594 1.597656.390626 2.34375.558594 4.191406.914063 8.4375 1.625 12.734375 2.136719.878906.105469 1.761718.175781 2.640625.261719 8.96875 1.003906 18.023437 1.003906 26.992187 0 .878906-.085938 1.757813-.15625 2.640625-.261719 4.296875-.535156 8.542969-1.246094 12.734375-2.136719.800782-.167968 1.550782-.375 2.335938-.558594 2.113281-.496093 4.214844-1.015624 6.289062-1.601562.777344 2.199219 1.707032 4.335938 2.792969 6.402344 5.675781 9.980468 16.261719 16.15625 27.746094 16.183594 11.484375.023437 22.097656-6.105469 27.820312-16.0625 5.71875-9.957032 5.664063-22.214844-.144531-32.121094-1.109375-1.757813-2.339844-3.4375-3.679688-5.027344.273438-.246094.527344-.511719.800782-.757812.671875-.632813 1.328125-1.265626 1.992187-1.90625 3.09375-3.015626 6.09375-6.152344 8.910157-9.460938.082031-.105469.175781-.183594.265624-.289062zm-69.304688-128.617188c12.28125 12.097657 25.058594 24.945313 34.28125 34.730469-6.714843 4.726563-13.898437 8.746094-21.441406 12-3.839844-12.824219-8.542968-30.175781-12.839844-46.730469zm24 59.203126c3.847657-1.851563 7.617188-3.84375 11.273438-6.035157.566406-.34375 1.109375-.71875 1.679688-1.070312 2.742187-1.703125 5.421874-3.5 8.046874-5.402344.789063.945313 1.507813 1.941406 2.152344 2.984375 4.347656 7.648438 1.707032 17.367188-5.910156 21.765625-7.613281 4.398437-17.351562 1.824219-21.800781-5.765625-.617188-1.179688-1.152344-2.402344-1.601563-3.65625 1.257813-.527344 2.480469-1.117188 3.722656-1.6875.8125-.367188 1.628907-.734375 2.445313-1.125zm46.296876-64.472657c-6.210938 11.167969-14.167969 21.273438-23.566407 29.933594-18.449219-19.808594-48.265625-48.574219-55.898437-55.894531-2.566406-2.460938-6.453125-2.929688-9.53125-1.152344-3.082032 1.777344-4.617188 5.378906-3.773438 8.832031 2.503906 10.175781 12.351563 49.753907 20.25 75.65625-39.417968 11.101563-81.773437 1.320313-112.328125-25.945312-1.457031-1.304688-2.855469-2.671875-4.25-4.039063-.558593-.550781-1.152343-1.0625-1.695312-1.601562-7.523438-7.6875-13.984375-16.355469-19.199219-25.765625-27.917969-50.476563-15.972656-113.671875 28.4375-150.476563 44.414062-36.804687 108.726562-36.804687 153.140625 0 44.414063 36.804688 56.355469 100 28.4375 150.476563zm0 0"/><path d="m176 72c0-4.417969-3.582031-8-8-8-57.410156.066406-103.933594 46.589844-104 104 0 4.417969 3.582031 8 8 8s8-3.582031 8-8c.058594-48.578125 39.421875-87.941406 88-88 4.417969 0 8-3.582031 8-8zm0 0"/><path d="m168 144c-13.253906 0-24 10.746094-24 24s10.746094 24 24 24 24-10.746094 24-24-10.746094-24-24-24zm0 32c-4.417969 0-8-3.582031-8-8s3.582031-8 8-8 8 3.582031 8 8-3.582031 8-8 8zm0 0"/><path d="m64 48c0 8.835938-7.164062 16-16 16s-16-7.164062-16-16 7.164062-16 16-16 16 7.164062 16 16zm0 0"/><path d="m304 48c0 8.835938-7.164062 16-16 16s-16-7.164062-16-16 7.164062-16 16-16 16 7.164062 16 16zm0 0"/><path d="m64 432c0 8.835938-7.164062 16-16 16s-16-7.164062-16-16 7.164062-16 16-16 16 7.164062 16 16zm0 0"/><path d="m304 432c0 8.835938-7.164062 16-16 16s-16-7.164062-16-16 7.164062-16 16-16 16 7.164062 16 16zm0 0"/></g></svg>