<svg height="480pt" viewBox="0 0 480 480" width="480pt" xmlns="http://www.w3.org/2000/svg"><path d="m8 472h464v-208h-464zm408-184h32v32h-32zm0 64h32v32h-32zm0 64h32v32h-32zm-64-128h32v32h-32zm0 64h32v32h-32zm0 64h32v32h-32zm-64-128h32v32h-32zm0 64h32v32h-32zm0 64h32v32h-32zm-64-128h32v32h-32zm0 64h32v32h-32zm0 64h32v32h-32zm-64-128h32v32h-32zm0 64h32v32h-32zm0 64h32v32h-32zm-64-128h32v32h-32zm0 64h32v32h-32zm0 64h32v32h-32zm-64-128h32v32h-32zm0 64h32v32h-32zm0 64h32v32h-32zm0 0" fill="#9bc9ff"/><g fill="#1e81ce"><path d="m64 328h-32c-4.417969 0-8-3.582031-8-8v-32c0-4.417969 3.582031-8 8-8h32c4.417969 0 8 3.582031 8 8v32c0 4.417969-3.582031 8-8 8zm-24-16h16v-16h-16zm0 0"/><path d="m64 392h-32c-4.417969 0-8-3.582031-8-8v-32c0-4.417969 3.582031-8 8-8h32c4.417969 0 8 3.582031 8 8v32c0 4.417969-3.582031 8-8 8zm-24-16h16v-16h-16zm0 0"/><path d="m128 392h-32c-4.417969 0-8-3.582031-8-8v-32c0-4.417969 3.582031-8 8-8h32c4.417969 0 8 3.582031 8 8v32c0 4.417969-3.582031 8-8 8zm-24-16h16v-16h-16zm0 0"/><path d="m128 328h-32c-4.417969 0-8-3.582031-8-8v-32c0-4.417969 3.582031-8 8-8h32c4.417969 0 8 3.582031 8 8v32c0 4.417969-3.582031 8-8 8zm-24-16h16v-16h-16zm0 0"/><path d="m192 328h-32c-4.417969 0-8-3.582031-8-8v-32c0-4.417969 3.582031-8 8-8h32c4.417969 0 8 3.582031 8 8v32c0 4.417969-3.582031 8-8 8zm-24-16h16v-16h-16zm0 0"/><path d="m192 328h-32c-4.417969 0-8-3.582031-8-8v-32c0-4.417969 3.582031-8 8-8h32c4.417969 0 8 3.582031 8 8v32c0 4.417969-3.582031 8-8 8zm-24-16h16v-16h-16zm0 0"/><path d="m192 392h-32c-4.417969 0-8-3.582031-8-8v-32c0-4.417969 3.582031-8 8-8h32c4.417969 0 8 3.582031 8 8v32c0 4.417969-3.582031 8-8 8zm-24-16h16v-16h-16zm0 0"/><path d="m192 392h-32c-4.417969 0-8-3.582031-8-8v-32c0-4.417969 3.582031-8 8-8h32c4.417969 0 8 3.582031 8 8v32c0 4.417969-3.582031 8-8 8zm-24-16h16v-16h-16zm0 0"/><path d="m256 328h-32c-4.417969 0-8-3.582031-8-8v-32c0-4.417969 3.582031-8 8-8h32c4.417969 0 8 3.582031 8 8v32c0 4.417969-3.582031 8-8 8zm-24-16h16v-16h-16zm0 0"/><path d="m256 392h-32c-4.417969 0-8-3.582031-8-8v-32c0-4.417969 3.582031-8 8-8h32c4.417969 0 8 3.582031 8 8v32c0 4.417969-3.582031 8-8 8zm-24-16h16v-16h-16zm0 0"/><path d="m320 392h-32c-4.417969 0-8-3.582031-8-8v-32c0-4.417969 3.582031-8 8-8h32c4.417969 0 8 3.582031 8 8v32c0 4.417969-3.582031 8-8 8zm-24-16h16v-16h-16zm0 0"/><path d="m320 328h-32c-4.417969 0-8-3.582031-8-8v-32c0-4.417969 3.582031-8 8-8h32c4.417969 0 8 3.582031 8 8v32c0 4.417969-3.582031 8-8 8zm-24-16h16v-16h-16zm0 0"/><path d="m384 328h-32c-4.417969 0-8-3.582031-8-8v-32c0-4.417969 3.582031-8 8-8h32c4.417969 0 8 3.582031 8 8v32c0 4.417969-3.582031 8-8 8zm-24-16h16v-16h-16zm0 0"/><path d="m384 328h-32c-4.417969 0-8-3.582031-8-8v-32c0-4.417969 3.582031-8 8-8h32c4.417969 0 8 3.582031 8 8v32c0 4.417969-3.582031 8-8 8zm-24-16h16v-16h-16zm0 0"/><path d="m384 392h-32c-4.417969 0-8-3.582031-8-8v-32c0-4.417969 3.582031-8 8-8h32c4.417969 0 8 3.582031 8 8v32c0 4.417969-3.582031 8-8 8zm-24-16h16v-16h-16zm0 0"/><path d="m384 392h-32c-4.417969 0-8-3.582031-8-8v-32c0-4.417969 3.582031-8 8-8h32c4.417969 0 8 3.582031 8 8v32c0 4.417969-3.582031 8-8 8zm-24-16h16v-16h-16zm0 0"/><path d="m448 328h-32c-4.417969 0-8-3.582031-8-8v-32c0-4.417969 3.582031-8 8-8h32c4.417969 0 8 3.582031 8 8v32c0 4.417969-3.582031 8-8 8zm-24-16h16v-16h-16zm0 0"/><path d="m448 328h-32c-4.417969 0-8-3.582031-8-8v-32c0-4.417969 3.582031-8 8-8h32c4.417969 0 8 3.582031 8 8v32c0 4.417969-3.582031 8-8 8zm-24-16h16v-16h-16zm0 0"/><path d="m448 392h-32c-4.417969 0-8-3.582031-8-8v-32c0-4.417969 3.582031-8 8-8h32c4.417969 0 8 3.582031 8 8v32c0 4.417969-3.582031 8-8 8zm-24-16h16v-16h-16zm0 0"/><path d="m448 392h-32c-4.417969 0-8-3.582031-8-8v-32c0-4.417969 3.582031-8 8-8h32c4.417969 0 8 3.582031 8 8v32c0 4.417969-3.582031 8-8 8zm-24-16h16v-16h-16zm0 0"/><path d="m64 456h-32c-4.417969 0-8-3.582031-8-8v-32c0-4.417969 3.582031-8 8-8h32c4.417969 0 8 3.582031 8 8v32c0 4.417969-3.582031 8-8 8zm-24-16h16v-16h-16zm0 0"/><path d="m128 456h-32c-4.417969 0-8-3.582031-8-8v-32c0-4.417969 3.582031-8 8-8h32c4.417969 0 8 3.582031 8 8v32c0 4.417969-3.582031 8-8 8zm-24-16h16v-16h-16zm0 0"/><path d="m192 456h-32c-4.417969 0-8-3.582031-8-8v-32c0-4.417969 3.582031-8 8-8h32c4.417969 0 8 3.582031 8 8v32c0 4.417969-3.582031 8-8 8zm-24-16h16v-16h-16zm0 0"/><path d="m192 456h-32c-4.417969 0-8-3.582031-8-8v-32c0-4.417969 3.582031-8 8-8h32c4.417969 0 8 3.582031 8 8v32c0 4.417969-3.582031 8-8 8zm-24-16h16v-16h-16zm0 0"/><path d="m256 456h-32c-4.417969 0-8-3.582031-8-8v-32c0-4.417969 3.582031-8 8-8h32c4.417969 0 8 3.582031 8 8v32c0 4.417969-3.582031 8-8 8zm-24-16h16v-16h-16zm0 0"/><path d="m320 456h-32c-4.417969 0-8-3.582031-8-8v-32c0-4.417969 3.582031-8 8-8h32c4.417969 0 8 3.582031 8 8v32c0 4.417969-3.582031 8-8 8zm-24-16h16v-16h-16zm0 0"/><path d="m384 456h-32c-4.417969 0-8-3.582031-8-8v-32c0-4.417969 3.582031-8 8-8h32c4.417969 0 8 3.582031 8 8v32c0 4.417969-3.582031 8-8 8zm-24-16h16v-16h-16zm0 0"/><path d="m384 456h-32c-4.417969 0-8-3.582031-8-8v-32c0-4.417969 3.582031-8 8-8h32c4.417969 0 8 3.582031 8 8v32c0 4.417969-3.582031 8-8 8zm-24-16h16v-16h-16zm0 0"/><path d="m448 456h-32c-4.417969 0-8-3.582031-8-8v-32c0-4.417969 3.582031-8 8-8h32c4.417969 0 8 3.582031 8 8v32c0 4.417969-3.582031 8-8 8zm-24-16h16v-16h-16zm0 0"/><path d="m448 456h-32c-4.417969 0-8-3.582031-8-8v-32c0-4.417969 3.582031-8 8-8h32c4.417969 0 8 3.582031 8 8v32c0 4.417969-3.582031 8-8 8zm-24-16h16v-16h-16zm0 0"/><path d="m472 256h-224v-8c0-4.417969 3.582031-8 8-8h168c30.929688 0 56-25.070312 56-56s-25.070312-56-56-56h-368c-22.089844 0-40-17.910156-40-40s17.910156-40 40-40h168c13.253906 0 24-10.746094 24-24v-24h-16v24c0 4.417969-3.582031 8-8 8h-168c-30.929688 0-56 25.070312-56 56s25.070312 56 56 56h368c22.089844 0 40 17.910156 40 40s-17.910156 40-40 40h-168c-13.253906 0-24 10.746094-24 24v8h-224c-4.417969 0-8 3.582031-8 8v208c0 4.417969 3.582031 8 8 8h464c4.417969 0 8-3.582031 8-8v-208c0-4.417969-3.582031-8-8-8zm-8 208h-448v-192h448zm0 0"/></g></svg>