<svg height="480pt" viewBox="0 -72 480 480" width="480pt" xmlns="http://www.w3.org/2000/svg"><path d="m448 40c0-17.671875-14.328125-32-32-32h-352c-17.671875 0-32 14.328125-32 32v240h416zm-24 216h-368v-224h368zm0 0" fill="#9bc9ff"/><path d="m40 328h400c17.671875 0 32-14.328125 32-32v-16h-464v16c0 17.671875 14.328125 32 32 32zm0 0" fill="#9bc9ff"/><g fill="#1e81ce"><path d="m472 272h-16v-232c-.027344-22.082031-17.917969-39.9726562-40-40h-352c-22.082031.0273438-39.972656 17.917969-40 40v232h-16c-4.417969 0-8 3.582031-8 8v16c.0273438 22.082031 17.917969 39.972656 40 40h400c22.082031-.027344 39.972656-17.917969 40-40v-16c0-4.417969-3.582031-8-8-8zm-432-232c0-13.253906 10.746094-24 24-24h352c13.253906 0 24 10.746094 24 24v232h-400zm424 256c0 13.253906-10.746094 24-24 24h-400c-13.253906 0-24-10.746094-24-24v-8h448zm0 0"/><path d="m424 24h-368c-4.417969 0-8 3.582031-8 8v224c0 4.417969 3.582031 8 8 8h368c4.417969 0 8-3.582031 8-8v-224c0-4.417969-3.582031-8-8-8zm-8 224h-352v-208h352zm0 0"/></g></svg>