<svg height="480pt" viewBox="-88 0 480 480" width="480pt" xmlns="http://www.w3.org/2000/svg"><path d="m40 472h224c17.671875 0 32-14.328125 32-32v-16h-288v16c0 17.671875 14.328125 32 32 32zm136-24" fill="#9bc9ff"/><path d="m296 40c0-17.671875-14.328125-32-32-32h-224c-17.671875 0-32 14.328125-32 32v16h288zm-136-8" fill="#9bc9ff"/><g fill="#1e81ce"><path d="m264 0h-224c-22.082031.0273438-39.9726562 17.917969-40 40v400c.0273438 22.082031 17.917969 39.972656 40 40h224c22.082031-.027344 39.972656-17.917969 40-40v-400c-.027344-22.082031-17.917969-39.9726562-40-40zm-224 16h224c13.253906 0 24 10.746094 24 24v8h-272v-8c0-13.253906 10.746094-24 24-24zm248 400h-272v-352h272zm-24 48h-224c-13.253906 0-24-10.746094-24-24v-8h272v8c0 13.253906-10.746094 24-24 24zm0 0"/><path d="m120 40h16c4.417969 0 8-3.582031 8-8s-3.582031-8-8-8h-16c-4.417969 0-8 3.582031-8 8s3.582031 8 8 8zm0 0"/><path d="m160 40h32c4.417969 0 8-3.582031 8-8s-3.582031-8-8-8h-32c-4.417969 0-8 3.582031-8 8s3.582031 8 8 8zm0 0"/><path d="m176 440h-48c-4.417969 0-8 3.582031-8 8s3.582031 8 8 8h48c4.417969 0 8-3.582031 8-8s-3.582031-8-8-8zm0 0"/></g></svg>