<svg height="480pt" viewBox="0 -72 480 479" width="480pt" xmlns="http://www.w3.org/2000/svg"><path d="m208 246.496094v82h64v-82c-21.359375-.480469-42.640625-.480469-64 0zm0 0" fill="#9bc9ff"/><path d="m43.28125 13.375-35.28125-4.878906v256l35.28125-4.878906c54.605469-7.570313 109.605469-11.949219 164.71875-13.121094 21.359375-.480469 42.640625-.480469 64 0 55.113281 1.171875 110.113281 5.550781 164.71875 13.121094l35.28125 4.878906v-256l-35.28125 4.878906c-130.527344 18-262.910156 18-393.4375 0zm0 0" fill="#9bc9ff"/><path d="m477.257812 2.464844c-1.746093-1.519532-4.0625-2.207032-6.355468-1.886719l-35.277344 4.878906c-129.804688 17.894531-261.445312 17.894531-391.25 0l-35.277344-4.878906c-2.292968-.320313-4.605468.371094-6.351562 1.890625-1.742188 1.515625-2.746094 3.714844-2.746094 6.027344v256c0 2.3125 1.003906 4.511718 2.746094 6.027344 1.746094 1.519531 4.058594 2.210937 6.351562 1.894531l35.285156-4.882813c51.597657-7.105468 103.550782-11.359375 155.617188-12.742187v65.703125h-56v16h192v-16h-56v-65.703125c52.070312 1.382812 104.023438 5.636719 155.625 12.742187l35.277344 4.882813c.363281.054687.730468.078125 1.097656.078125 4.417969 0 8-3.582032 8-8v-256c0-2.3125-1-4.511719-2.742188-6.03125zm-261.257812 318.03125v-66.089844c2.105469 0 4.214844 0 6.320312-.070312 11.777344-.144532 23.582032-.144532 35.359376 0 2.113281 0 4.214843.039062 6.320312.070312v66.089844zm248-65.175782-26.175781-3.625c-52.332031-7.203124-105.019531-11.515624-157.824219-12.910156v-.113281l-7.824219-.175781c-10.679687-.230469-21.421875-.351563-32.175781-.351563s-21.503906.121094-32.175781.351563l-7.824219.175781v.113281c-52.804688 1.394532-105.488281 5.707032-157.816406 12.910156l-26.183594 3.625v-237.648437l26.183594 3.632813c131.257812 18.101562 264.375 18.101562 395.632812 0l26.183594-3.632813zm0 0" fill="#1e81ce"/></svg>