<svg height="480pt" viewBox="0 -40 480 480" width="480pt" xmlns="http://www.w3.org/2000/svg"><g fill="#9bc9ff"><path d="m440 8h-400c-17.671875 0-32 14.328125-32 32h464c0-17.671875-14.328125-32-32-32zm0 0"/><path d="m40 312h400c17.671875 0 32-14.328125 32-32v-16h-464v16c0 17.671875 14.328125 32 32 32zm216-24"/><path d="m192 312.710938c0 25.433593-8.65625 50.109374-24.542969 69.96875l-7.457031 9.320312h160l-7.457031-9.320312c-15.886719-19.859376-24.542969-44.535157-24.542969-69.96875v-.710938h-96zm0 0"/></g><path d="m440 0h-400c-22.082031.0273438-39.9726562 17.917969-40 40v240c.0273438 22.082031 17.917969 39.972656 40 40h143.6875c-1.484375 21.058594-9.324219 41.171875-22.480469 57.679688l-5.046875 6.320312h-28.160156c-4.417969 0-8 3.582031-8 8s3.582031 8 8 8h224c4.417969 0 8-3.582031 8-8s-3.582031-8-8-8h-28.160156l-5.046875-6.320312c-13.144531-16.515626-20.972657-36.625-22.457031-57.679688h143.664062c22.082031-.027344 39.972656-17.917969 40-40v-240c-.027344-22.082031-17.917969-39.9726562-40-40zm-424 48h448v208h-448zm24-32h400c10.132812.042969 19.148438 6.445312 22.527344 16h-445.054688c3.378906-9.554688 12.394532-15.957031 22.527344-16zm263.472656 368h-126.945312c13.710937-18.667969 21.761718-40.882812 23.199218-64h80.480469c1.441407 23.125 9.519531 45.347656 23.265625 64zm136.527344-80h-400c-13.253906 0-24-10.746094-24-24v-8h448v8c0 13.253906-10.746094 24-24 24zm0 0" fill="#1e81ce"/><path d="m256 280h-32c-4.417969 0-8 3.582031-8 8s3.582031 8 8 8h32c4.417969 0 8-3.582031 8-8s-3.582031-8-8-8zm0 0" fill="#1e81ce"/></svg>