<svg height="488pt" viewBox="0 -4 488 488" width="488pt" xmlns="http://www.w3.org/2000/svg"><g fill="#9bc9ff"><path d="m448 207.992188v64c17.671875 0 32-14.328126 32-32 0-17.671876-14.328125-32-32-32zm0 0"/><path d="m248 87.992188c0-17.671876-14.328125-32-32-32h-176c-17.671875 0-32 14.328124-32 32v352c0 17.671874 14.328125 32 32 32h176c17.671875 0 32-14.328126 32-32v-56h-8 8zm-120 336c-39.765625 0-72-32.234376-72-72 0-39.765626 32.234375-72 72-72s72 32.234374 72 72c0 39.765624-32.234375 72-72 72zm88-224c0 8.835937-7.164062 16-16 16h-144c-8.835938 0-16-7.164063-16-16v-96c0-8.835938 7.164062-16 16-16h144c8.835938 0 16 7.164062 16 16zm0 0"/><path d="m152 351.992188c0 13.253906-10.746094 24-24 24s-24-10.746094-24-24c0-13.253907 10.746094-24 24-24s24 10.746093 24 24zm0 0"/><path d="m360 39.992188c0-17.671876-14.328125-32-32-32s-32 14.328124-32 32c0 17.671874 14.328125 32 32 32s32-14.328126 32-32zm-32 8c-4.417969 0-8-3.582032-8-8 0-4.417969 3.582031-8 8-8s8 3.582031 8 8c0 4.417968-3.582031 8-8 8zm0 0"/><path d="m336 39.992188c0 4.417968-3.582031 8-8 8s-8-3.582032-8-8c0-4.417969 3.582031-8 8-8s8 3.582031 8 8zm0 0"/><path d="m416 223.992188c-8.835938 0-16 7.164062-16 16 0 8.835937 7.164062 16 16 16h32v-32zm0 0"/></g><path d="m128 271.992188c-44.183594 0-80 35.816406-80 80 0 44.183593 35.816406 80 80 80s80-35.816407 80-80c-.046875-44.164063-35.835938-79.953126-80-80zm0 144c-35.347656 0-64-28.652344-64-64 0-35.347657 28.652344-64 64-64s64 28.652343 64 64c-.039062 35.328124-28.671875 63.960937-64 64zm0 0" fill="#1e81ce"/><path d="m200 79.992188h-144c-13.253906 0-24 10.746093-24 24v96c0 13.253906 10.746094 24 24 24h144c13.253906 0 24-10.746094 24-24v-96c0-13.253907-10.746094-24-24-24zm8 120c0 4.417968-3.582031 8-8 8h-144c-4.417969 0-8-3.582032-8-8v-96c0-4.417969 3.582031-8 8-8h144c4.417969 0 8 3.582031 8 8zm0 0" fill="#1e81ce"/><path d="m128 319.992188c-17.671875 0-32 14.328124-32 32 0 17.671874 14.328125 32 32 32s32-14.328126 32-32c0-17.671876-14.328125-32-32-32zm0 48c-8.835938 0-16-7.164063-16-16 0-8.835938 7.164062-16 16-16s16 7.164062 16 16c0 8.835937-7.164062 16-16 16zm0 0" fill="#1e81ce"/><path d="m344 39.992188c0 8.835937-7.164062 16-16 16s-16-7.164063-16-16c0-8.835938 7.164062-16 16-16s16 7.164062 16 16zm0 0" fill="#1e81ce"/><path d="m448 199.992188c-4.417969 0-8 3.582031-8 8v8h-24c-13.253906 0-24 10.746093-24 24 0 13.253906 10.746094 24 24 24v87.542968c-.027344 13.214844-10.710938 23.933594-23.929688 24l-136.070312.410156v-15.953124h56c13.253906 0 24-10.746094 24-24v-256.800782c20.121094-4.105468 33.863281-22.78125 31.796875-43.210937-2.0625-20.429688-19.261719-35.980469-39.796875-35.980469s-37.734375 15.550781-39.796875 35.980469c-2.066406 20.429687 11.675781 39.105469 31.796875 43.210937v256.800782c0 4.417968-3.582031 8-8 8h-56v-256c-.027344-22.082032-17.917969-39.972657-40-40h-176c-22.082031.027343-39.9726562 17.917968-40 40v352c.0273438 22.078124 17.917969 39.972656 40 40h176c22.082031-.027344 39.972656-17.921876 40-40v-48.046876l136.121094-.410156c22.027344-.105468 39.839844-17.972656 39.878906-40v-87.542968h8v8c0 4.417968 3.582031 8 8 8 22.089844 0 40-17.910157 40-40 0-22.089844-17.910156-40-40-40zm-144-160c0-13.253907 10.746094-24 24-24s24 10.746093 24 24c0 13.253906-10.746094 24-24 24s-24-10.746094-24-24zm-88 424h-176c-13.253906 0-24-10.746094-24-24v-352c0-13.253907 10.746094-24 24-24h176c13.253906 0 24 10.746093 24 24v352c0 13.253906-10.746094 24-24 24zm192-224c0-4.417969 3.582031-8 8-8h24v16h-24c-4.417969 0-8-3.582032-8-8zm48 22.632812v-45.265625c9.597656 3.386719 16.011719 12.457031 16.011719 22.632813 0 10.175781-6.414063 19.246093-16.011719 22.632812zm0 0" fill="#1e81ce"/></svg>