<svg height="480pt" viewBox="0 -140 480 480" width="480pt" xmlns="http://www.w3.org/2000/svg"><path d="m8 40c8.835938 0 16 7.164062 16 16s-7.164062 16-16 16v96h464v-96c-8.835938 0-16-7.164062-16-16s7.164062-16 16-16v-32h-464zm368 0h48v80h-48zm-80 0h48v80h-48zm-80 0h48v80h-48zm-80 0h48v80h-48zm-80 0h48v80h-48zm0 0" fill="#9bc9ff"/><g fill="#1e81ce"><path d="m472 48c4.417969 0 8-3.582031 8-8v-32c0-4.417969-3.582031-8-8-8h-464c-4.417969 0-8 3.582031-8 8v32c0 4.417969 3.582031 8 8 8s8 3.582031 8 8-3.582031 8-8 8-8 3.582031-8 8v96c0 4.417969 3.582031 8 8 8h8v16c0 4.417969 3.582031 8 8 8h144c4.417969 0 8-3.582031 8-8v-16h16v16c0 4.417969 3.582031 8 8 8h256c4.417969 0 8-3.582031 8-8v-16h8c4.417969 0 8-3.582031 8-8v-96c0-4.417969-3.582031-8-8-8s-8-3.582031-8-8 3.582031-8 8-8zm-312 136h-128v-8h128zm288 0h-240v-8h240zm16-150.632812c-9.597656 3.386718-16.011719 12.457031-16.011719 22.632812s6.414063 19.246094 16.011719 22.632812v81.367188h-448v-81.367188c.273438-.097656.511719-.242187.800781-.34375.445313-.175781.871094-.378906 1.304688-.585937.882812-.414063 1.746093-.882813 2.574219-1.398437.390624-.242188.800781-.480469 1.160156-.746094.945312-.671875 1.839844-1.40625 2.679687-2.207032.175781-.167968.375-.3125.542969-.480468.980469-.988282 1.871094-2.058594 2.664062-3.199219.21875-.320313.402344-.671875.609376-1 .546874-.871094 1.039062-1.777344 1.472656-2.710937.199218-.441407.375-.882813.550781-1.335938.363281-.941406.664063-1.902344.898437-2.882812.109376-.4375.238282-.863282.316407-1.308594.597656-2.90625.597656-5.898438 0-8.800782-.078125-.449218-.207031-.871093-.316407-1.3125-.234374-.980468-.535156-1.941406-.898437-2.878906-.175781-.457031-.351563-.90625-.550781-1.34375-.433594-.933594-.925782-1.835937-1.472656-2.707031-.207032-.328125-.390626-.679687-.609376-1-.792968-1.140625-1.683593-2.210937-2.664062-3.199219-.167969-.167968-.367188-.3125-.542969-.480468-.839843-.796876-1.734375-1.535157-2.679687-2.207032-.375-.273437-.800782-.503906-1.160156-.742187-.828126-.519531-1.691407-.988281-2.574219-1.402344-.433594-.199219-.859375-.40625-1.304688-.582031-.265625-.105469-.503906-.25-.800781-.34375v-17.433594h448zm0 0"/><path d="m216 128h48c4.417969 0 8-3.582031 8-8v-80c0-4.417969-3.582031-8-8-8h-48c-4.417969 0-8 3.582031-8 8v80c0 4.417969 3.582031 8 8 8zm8-80h32v64h-32zm0 0"/><path d="m296 128h48c4.417969 0 8-3.582031 8-8v-80c0-4.417969-3.582031-8-8-8h-48c-4.417969 0-8 3.582031-8 8v80c0 4.417969 3.582031 8 8 8zm8-80h32v64h-32zm0 0"/><path d="m56 128h48c4.417969 0 8-3.582031 8-8v-80c0-4.417969-3.582031-8-8-8h-48c-4.417969 0-8 3.582031-8 8v80c0 4.417969 3.582031 8 8 8zm8-80h32v64h-32zm0 0"/><path d="m136 128h48c4.417969 0 8-3.582031 8-8v-80c0-4.417969-3.582031-8-8-8h-48c-4.417969 0-8 3.582031-8 8v80c0 4.417969 3.582031 8 8 8zm8-80h32v64h-32zm0 0"/><path d="m376 128h48c4.417969 0 8-3.582031 8-8v-80c0-4.417969-3.582031-8-8-8h-48c-4.417969 0-8 3.582031-8 8v80c0 4.417969 3.582031 8 8 8zm8-80h32v64h-32zm0 0"/></g></svg>