<svg height="482pt" viewBox="0 0 482 482.525" width="482pt" xmlns="http://www.w3.org/2000/svg"><path d="m460.480469 90.023438c18.601562-18.898438 18.300781-49.296876-.597657-67.898438-18.699218-18.398438-48.601562-18.398438-67.300781 0l-22.601562 22.601562 67.902343 67.898438zm0 0" fill="#9bc9ff"/><path d="m217.28125 333.226562 91-91 5.199219-5.203124 124.402343-124.5-67.902343-67.898438-124.398438 124.5-96.199219 96.199219zm113.101562-203.601562c6.398438-6.101562 16.5-6 22.597657.398438 6 6.203124 6 16 0 22.203124l-124.398438 124.398438c-6.101562 6.398438-16.300781 6.5-22.601562.398438-6.398438-6.097657-6.5-16.296876-.398438-22.597657.101563-.101562.300781-.300781.398438-.402343zm0 0" fill="#9bc9ff"/><path d="m109.78125 338.925781 50.902344 50.898438c18.699218-18.699219 18.699218-49.097657 0-67.898438-18.703125-18.800781-49.101563-18.699219-67.902344 0zm0 0" fill="#9bc9ff"/><g fill="#1e81ce"><path d="m466.183594 95.625c21.898437-21.898438 21.898437-57.300781 0-79.199219-21.902344-21.902343-57.300782-21.902343-79.203125 0l-141.398438 141.398438-22.601562-22.597657 56.601562-56.601562c3.101563-3.101562 3.101563-8.199219 0-11.300781l-45.300781-45.300781c-3.097656-3.097657-8.199219-3.097657-11.300781 0l-124.5 124.5c-3.097657 3.101562-3.097657 8.203124 0 11.300781l45.300781 45.300781c3.101562 3.101562 8.199219 3.101562 11.300781 0l56.601563-56.601562 22.597656 22.601562-90.5 90.5c-3.097656 3.101562-3.097656 8.199219 0 11.300781l28.300781 28.300781-11.800781 11.796876c-22.300781-16.597657-53.398438-14.398438-73.097656 5.203124-3.101563 3.097657-3.101563 8.199219 0 11.296876l12.097656 12.101562c-9 15.101562-4.097656 34.601562 11 43.601562 10.101562 6 22.601562 6 32.699219 0l12.101562 12.097657c3.101563 3.101562 8.199219 3.101562 11.300781 0 19.597657-19.699219 21.898438-50.800781 5.199219-73.097657l11.800781-11.800781 28.300782 28.300781c3.097656 3.097657 8.199218 3.097657 11.296875 0l90.5-90.5 22.601562 22.597657-56.601562 56.601562c-3.097657 3.097657-3.097657 8.199219 0 11.300781l45.300781 45.296876c3.101562 3.101562 8.199219 3.101562 11.300781 0l124.398438-124.5c3.101562-3.097657 3.101562-8.199219 0-11.296876l-45.296875-45.300781c-3.203125-3-8.101563-3-11.300782 0l-56.601562 56.597657-22.5-22.5zm-316.800782 90.5-34-33.898438 113.199219-113.203124 33.898438 34zm-33.902343 181c-4-4-5.597657-9.898438-4.097657-15.398438l19.5 19.5c-5.5 1.5-11.402343-.101562-15.402343-4.101562zm-10.796875-44.601562c18.398437-12.199219 43.199218-7.097657 55.398437 11.300781 8.800781 13.402343 8.800781 30.699219 0 44.101562zm304.898437-102.398438 34 33.898438-113.199219 113.101562-33.902343-33.898438zm-11.300781-192.398438c15.601562-15.703124 40.902344-15.800781 56.601562-.203124 15.699219 15.601562 15.800782 40.902343.199219 56.601562-.101562.101562-.199219.199219-.199219.199219l-17 17-56.601562-56.597657zm-181 294.199219-56.597656-56.601562 209.296875-209.300781 56.601562 56.601562zm0 0"/><path d="m64.28125 370.925781c0 .597657 0 1.199219.101562 1.800781 0 1.097657.097657 2.199219.199219 3.296876.101563.800781.199219 1.601562.398438 2.402343.203125.800781.300781 1.800781.5 2.597657.203125 1 .5 2 .800781 3 .199219.703124.402344 1.300781.601562 2 .398438 1.203124.898438 2.300781 1.300782 3.402343.199218.5.398437 1 .597656 1.5.601562 1.199219 1.199219 2.398438 1.902344 3.597657.199218.402343.398437.800781.597656 1.101562.800781 1.300781 1.601562 2.5 2.5 3.699219.199219.300781.402344.5.5.800781 1.101562 1.398438 2.300781 2.800781 3.601562 4.101562 3.398438 3.398438 7.199219 6.296876 11.398438 8.5 7 3.796876 14.902344 5.699219 22.800781 5.699219.5 0 .898438-.101562 1.398438-.101562.601562 0 1.300781 0 1.902343-.097657.097657 0 .199219-.101562.300782-.101562.898437-.101562 1.796875-.101562 2.796875-.199219 4.402343-.601562 7.5-4.601562 6.902343-9-.601562-4.402343-4.601562-7.5-9-6.902343-.699218.101562-1.300781.101562-2 .203124-4.601562.296876-9.300781-.402343-13.601562-2l-.199219-.101562c-2-.800781-4-1.800781-5.800781-2.898438-.199219-.101562-.300781-.203124-.398438-.300781-1.800781-1.199219-3.5-2.601562-5-4.101562l-.101562-.097657c-1.597656-1.703124-3.097656-3.601562-4.300781-5.601562-.398438-.699219-.699219-1.398438-1-2.101562-.796875-1.398438-1.398438-2.796876-2-4.296876-.296875-1-.5-2.101562-.796875-3.101562-.300782-1.199219-.601563-2.5-.800782-3.699219-.101562-1.300781-.101562-2.5-.101562-3.800781-.097656-1.5 0-3 .101562-4.5.699219-4.398438-2.300781-8.5-6.601562-9.199219-4.398438-.699219-8.5 2.300781-9.199219 6.597657v.203124c-.101562.898438-.199219 1.898438-.300781 2.796876 0 .101562 0 .101562-.097656.203124v.597657c.199218 1.601562.097656 2.800781.097656 4.101562zm0 0"/><path d="m119.082031 466.226562c-2.5.199219-5.101562.296876-7.601562.296876-52.898438-.296876-95.597657-43.398438-95.296875-96.398438 0-2.601562.097656-5.199219.398437-7.800781.398438-4.398438-2.898437-8.300781-7.300781-8.597657-4.300781-.5-8.199219 2.699219-8.597656 7v.296876c-5.300782 61.5 40.199218 115.703124 101.699218 121.101562 3 .300781 6 .398438 9 .398438h.898438c2.601562 0 5.300781-.097657 8-.296876 4.402344-.203124 7.800781-4 7.601562-8.402343-.199218-4.398438-4-7.800781-8.402343-7.597657-.097657 0-.296875 0-.398438 0zm0 0"/><path d="m112.183594 450.523438c1.898437 0 3.796875-.097657 5.796875-.199219 4.402343-.199219 7.800781-3.898438 7.703125-8.300781-.203125-4.398438-3.902344-7.796876-8.300782-7.699219-.199218 0-.300781 0-.5 0-35.199218 2.601562-65.800781-23.800781-68.402343-59-.296875-3.398438-.199219-6.800781.101562-10.199219.398438-4.398438-2.898437-8.300781-7.300781-8.699219-4.300781-.402343-8.199219 2.699219-8.597656 7v.300781c-3.800782 43.898438 28.699218 82.699219 72.597656 86.5 2.199219.199219 4.601562.296876 6.902344.296876zm0 0"/><path d="m358.683594 157.824219c9.398437-9.398438 9.398437-24.597657 0-33.898438-9.402344-9.300781-24.601563-9.402343-33.902344 0l-124.5 124.398438c-9.5 9.199219-9.800781 24.402343-.597656 33.902343 9.199218 9.5 24.398437 9.796876 33.898437.597657.199219-.199219.398438-.398438.601563-.597657zm-11.300782-11.300781-124.5 124.5c-3.199218 3-8.199218 3-11.300781 0-3.101562-3.097657-3.101562-8.199219 0-11.296876l124.398438-124.5c3.101562-3.101562 8.203125-3.101562 11.300781 0 3.199219 3.097657 3.199219 8.199219.101562 11.296876zm0 0"/></g></svg>