<svg height="480pt" viewBox="-64 0 480 480.00012" width="480pt" xmlns="http://www.w3.org/2000/svg"><g fill="#9bc9ff"><path d="m200 8h16v80h-16zm0 0"/><path d="m248 8h16v80h-16zm0 0"/><path d="m296 8h16v80h-16zm0 0"/><path d="m152 8h16v80h-16zm0 0"/><path d="m104 40h16v80h-16zm0 0"/></g><path d="m352 120v-96c0-13.253906-10.746094-24-24-24h-217.367188c-6.371093-.0195312-12.484374 2.511719-16.976562 7.03125l-86.625 86.625c-4.519531 4.492188-7.0507812 10.605469-7.03125 16.976562v41.367188h16v16h-16v288c0 13.253906 10.746094 24 24 24h304c13.253906 0 24-10.746094 24-24v-272h-16v-64zm-16 80v256c0 4.417969-3.582031 8-8 8h-304c-4.417969 0-8-3.582031-8-8v-272h16v-48h-16v-25.367188c0-2.125.84375-4.164062 2.34375-5.664062l86.625-86.625c1.5-1.503906 3.539062-2.34375 5.664062-2.34375h33.367188v80h32v-80h16v80h32v-80h16v80h32v-80h16v80h32v-80h8c4.417969 0 8 3.582031 8 8v80h-16v96zm0 0" fill="#1e81ce"/><path d="m96 32h32v96h-32zm0 0" fill="#1e81ce"/><path d="m320 336c0-17.671875-14.328125-32-32-32h-48v112h48c13.34375.058594 25.3125-8.203125 29.988281-20.703125 4.671875-12.496094 1.0625-26.585937-9.042969-35.296875 6.992188-6.015625 11.023438-14.773438 11.054688-24zm-16 48c0 8.835938-7.164062 16-16 16h-32v-32h32c8.835938 0 16 7.164062 16 16zm-48-32v-32h32c8.835938 0 16 7.164062 16 16s-7.164062 16-16 16zm0 0" fill="#1e81ce"/><path d="m168 416c30.914062-.035156 55.964844-25.085938 56-56h-56v16h36.609375c-7.4375 16.925781-25.515625 26.535156-43.707031 23.230469-18.1875-3.304688-31.730469-18.664063-32.734375-37.121094-1.003907-18.460937 10.789062-35.195313 28.511719-40.457031 17.722656-5.261719 36.738281 2.328125 45.96875 18.347656l13.847656-8c-13.589844-23.535156-42.113282-33.917969-67.652344-24.621094-25.535156 9.292969-40.714844 35.582032-35.992188 62.347656 4.71875 26.761719 27.972657 46.273438 55.148438 46.273438zm0 0" fill="#1e81ce"/><path d="m112 432h208v16h-208zm0 0" fill="#1e81ce"/></svg>