<svg height="480pt" viewBox="0 -72 480 480" width="480pt" xmlns="http://www.w3.org/2000/svg"><path d="m456 8h-352v320h352c8.835938 0 16-7.164062 16-16v-288c0-8.835938-7.164062-16-16-16zm-8 296h-320v-272h320zm0 0" fill="#9bc9ff"/><path d="m24 8c-8.835938 0-16 7.164062-16 16v288c0 8.835938 7.164062 16 16 16h80v-320zm32 184c-13.253906 0-24-10.746094-24-24s10.746094-24 24-24 24 10.746094 24 24-10.746094 24-24 24zm0 0" fill="#9bc9ff"/><path d="m207.835938 225.539062 169.707031-169.707031 22.628906 22.628907-169.707031 169.703124zm0 0" fill="#9bc9ff"/><path d="m207.832031 225.535156-33.9375 56.570313 56.570313-33.9375zm0 0" fill="#9bc9ff"/><g fill="#1e81ce"><path d="m456 0h-432c-13.253906 0-24 10.746094-24 24v288c0 13.253906 10.746094 24 24 24h432c13.253906 0 24-10.746094 24-24v-288c0-13.253906-10.746094-24-24-24zm-432 320c-4.417969 0-8-3.582031-8-8v-288c0-4.417969 3.582031-8 8-8h72v304zm440-8c0 4.417969-3.582031 8-8 8h-344v-304h344c4.417969 0 8 3.582031 8 8zm0 0"/><path d="m56 136c-17.671875 0-32 14.328125-32 32s14.328125 32 32 32 32-14.328125 32-32-14.328125-32-32-32zm0 48c-8.835938 0-16-7.164062-16-16s7.164062-16 16-16 16 7.164062 16 16-7.164062 16-16 16zm0 0"/><path d="m448 24h-320c-4.417969 0-8 3.582031-8 8v272c0 4.417969 3.582031 8 8 8h320c4.417969 0 8-3.582031 8-8v-272c0-4.417969-3.582031-8-8-8zm-8 272h-304v-256h304zm0 0"/><path d="m173.886719 290.113281c1.453125 0 2.878906-.398437 4.121093-1.144531l56.566407-33.945312c.242187-.144532.371093-.398438.59375-.558594.328125-.195313.648437-.410156.953125-.640625l169.703125-169.703125c3.121093-3.125 3.121093-8.1875 0-11.3125l-22.625-22.632813c-3.125-3.121093-8.1875-3.121093-11.3125 0l-169.710938 169.703125c-.226562.296875-.433593.609375-.617187.9375-.175782.230469-.4375.359375-.582032.609375l-33.945312 56.566407c-1.484375 2.472656-1.523438 5.550781-.105469 8.058593 1.421875 2.507813 4.078125 4.0625 6.960938 4.0625zm203.648437-222.96875 11.3125 11.320313-158.398437 158.398437-11.3125-11.320312zm-168.109375 171.296875 8.175781 8.132813-20.34375 12.210937zm0 0"/><path d="m40 120c4.417969 0 8-3.582031 8-8v-32c0-4.417969-3.582031-8-8-8s-8 3.582031-8 8v32c0 4.417969 3.582031 8 8 8zm0 0"/><path d="m72 120c4.417969 0 8-3.582031 8-8v-32c0-4.417969-3.582031-8-8-8s-8 3.582031-8 8v32c0 4.417969 3.582031 8 8 8zm0 0"/><path d="m40 224c-4.417969 0-8 3.582031-8 8v32c0 4.417969 3.582031 8 8 8s8-3.582031 8-8v-32c0-4.417969-3.582031-8-8-8zm0 0"/><path d="m72 224c-4.417969 0-8 3.582031-8 8v32c0 4.417969 3.582031 8 8 8s8-3.582031 8-8v-32c0-4.417969-3.582031-8-8-8zm0 0"/></g></svg>