<svg height="480pt" viewBox="-63 0 479 480" width="480pt" xmlns="http://www.w3.org/2000/svg"><g fill="#9bc9ff"><path d="m56.5 472h240c26.507812 0 48-21.492188 48-48v-32h-336v32c0 26.507812 21.492188 48 48 48zm104-56h32v32h-32zm0 0"/><path d="m296.5 8h-240c-26.507812 0-48 21.492188-48 48h336c0-26.507812-21.492188-48-48-48zm0 0"/><path d="m160.5 416h32v32h-32zm0 0"/></g><path d="m296.5 0h-240c-30.914062.0351562-55.964844 25.085938-56 56v368c.035156 30.914062 25.085938 55.964844 56 56h240c30.914062-.035156 55.964844-25.085938 56-56v-368c-.035156-30.914062-25.085938-55.9648438-56-56zm-280 64h320v320h-320zm40-48h240c19 .023438 35.371094 13.386719 39.199219 32h-318.398438c3.828125-18.613281 20.199219-31.976562 39.199219-32zm240 448h-240c-22.082031-.027344-39.972656-17.917969-40-40v-24h320v24c-.027344 22.082031-17.917969 39.972656-40 40zm0 0" fill="#1e81ce"/><path d="m192.5 408h-32c-4.417969 0-8 3.582031-8 8v32c0 4.417969 3.582031 8 8 8h32c4.417969 0 8-3.582031 8-8v-32c0-4.417969-3.582031-8-8-8zm-8 32h-16v-16h16zm0 0" fill="#1e81ce"/></svg>