<svg height="480pt" viewBox="0 -56 480 480" width="480pt" xmlns="http://www.w3.org/2000/svg"><path d="m399.648438 80h-95.648438l-32 24h-32l-32-24h-96l-32 32h-40v144h40l32 32h96l32-24h32l32 24h95.648438l45.015624-40h27.335938v-128h-27.335938zm-183.082032 160.566406c-26.984375 26.988282-69.277344 31.152344-101.011718 9.949219-31.734376-21.203125-44.070313-61.871094-29.464844-97.132813 14.605468-35.261718 52.085937-55.292968 89.519531-47.847656 37.429687 7.449219 64.390625 40.300782 64.390625 78.464844.027344 21.222656-8.40625 41.582031-23.433594 56.566406zm192 0c-26.984375 26.988282-69.277344 31.152344-101.011718 9.949219-31.734376-21.203125-44.070313-61.871094-29.464844-97.132813 14.605468-35.261718 52.085937-55.292968 89.519531-47.847656 37.429687 7.449219 64.390625 40.300782 64.390625 78.464844.027344 21.222656-8.40625 41.582031-23.433594 56.566406zm0 0" fill="#9bc9ff"/><g fill="#1e81ce"><path d="m352 272c48.601562 0 88-39.398438 88-88s-39.398438-88-88-88-88 39.398438-88 88c.058594 48.578125 39.421875 87.941406 88 88zm-31.535156-83.40625c.320312 2.34375.90625 4.648438 1.742187 6.863281-13.546875 3.128907-24.5 13.070313-28.917969 26.253907l-.882812 2.640624c-7.144531-10.546874-11.34375-22.8125-12.160156-35.527343l10.722656-5.359375c7.703125-3.855469 16.878906-3.28125 24.046875 1.496094zm63.070312-9.1875c-.320312-2.34375-.90625-4.648438-1.742187-6.863281 13.546875-3.128907 24.5-13.070313 28.917969-26.253907l.882812-2.640624c7.144531 10.546874 11.34375 22.8125 12.160156 35.527343l-10.722656 5.359375c-7.707031 3.839844-16.875 3.269532-24.046875-1.496094zm-31.535156-11.40625c8.835938 0 16 7.164062 16 16s-7.164062 16-16 16-16-7.164062-16-16 7.164062-16 16-16zm-19.070312 41.542969c1.886718 1.441406 3.933593 2.664062 6.09375 3.648437-7.355469 11.789063-8.0625 26.550782-1.871094 38.992188l1.238281 2.488281c-12.507813-2.425781-24.144531-8.132813-33.71875-16.542969l3.792969-11.351562c2.722656-8.171875 9.613281-14.253906 18.054687-15.945313zm18.535156 35.488281c-3.855469-7.703125-3.28125-16.878906 1.496094-24.046875l3.632812-5.449219c2.34375-.320312 4.648438-.90625 6.863281-1.742187 3.136719 13.546875 13.074219 24.496093 26.253907 28.925781l2.640624.882812c-10.554687 7.144532-22.828124 11.339844-35.550781 12.152344zm44.070312-103.808594c-2.722656 8.171875-9.613281 14.253906-18.054687 15.945313l-6.402344 1.289062c-1.886719-1.441406-3.933594-2.664062-6.09375-3.648437 7.355469-11.789063 8.0625-26.550782 1.871094-38.992188l-1.238281-2.488281c12.507812 2.425781 24.144531 8.132813 33.71875 16.542969zm-43-18.253906c3.855469 7.703125 3.28125 16.878906-1.496094 24.046875l-3.632812 5.449219c-2.34375.320312-4.648438.90625-6.863281 1.742187-3.136719-13.546875-13.074219-24.496093-26.253907-28.925781l-2.640624-.882812c10.554687-7.144532 22.828124-11.339844 35.550781-12.152344zm53.601563 108.351562-11.351563-3.785156c-8.171875-2.722656-14.253906-9.613281-15.945312-18.054687l-1.289063-6.402344c1.445313-1.890625 2.671875-3.9375 3.65625-6.101563 11.773438 7.398438 26.554688 8.109376 38.984375 1.878907l2.488282-1.238281c-2.425782 12.503906-8.140626 24.136718-16.550782 33.703124zm-108.265625-94.640624 11.351562 3.785156c8.171875 2.722656 14.253906 9.613281 15.945313 18.054687l1.289062 6.402344c-1.441406 1.886719-2.664062 3.933594-3.648437 6.09375-11.792969-7.339844-26.550782-8.050781-38.992188-1.871094l-2.488281 1.238281c2.425781-12.503906 8.132813-24.136718 16.542969-33.703124zm0 0"/><path d="m160 272c48.601562 0 88-39.398438 88-88s-39.398438-88-88-88-88 39.398438-88 88c.058594 48.578125 39.421875 87.941406 88 88zm-31.535156-83.40625c.320312 2.34375.90625 4.648438 1.742187 6.863281-13.546875 3.128907-24.5 13.070313-28.917969 26.253907l-.882812 2.640624c-7.144531-10.546874-11.34375-22.8125-12.160156-35.527343l10.722656-5.359375c7.703125-3.855469 16.878906-3.28125 24.046875 1.496094zm63.070312-9.1875c-.320312-2.34375-.90625-4.648438-1.742187-6.863281 13.546875-3.128907 24.5-13.070313 28.917969-26.253907l.882812-2.640624c7.144531 10.546874 11.34375 22.8125 12.160156 35.527343l-10.722656 5.359375c-7.707031 3.839844-16.875 3.269532-24.046875-1.496094zm-31.535156-11.40625c8.835938 0 16 7.164062 16 16s-7.164062 16-16 16-16-7.164062-16-16 7.164062-16 16-16zm-19.070312 41.542969c1.886718 1.441406 3.933593 2.664062 6.09375 3.648437-7.355469 11.789063-8.0625 26.550782-1.871094 38.992188l1.238281 2.488281c-12.507813-2.425781-24.144531-8.132813-33.71875-16.542969l3.792969-11.351562c2.722656-8.171875 9.613281-14.253906 18.054687-15.945313zm18.535156 35.488281c-3.855469-7.703125-3.28125-16.878906 1.496094-24.046875l3.632812-5.449219c2.34375-.320312 4.648438-.90625 6.863281-1.742187 3.136719 13.546875 13.074219 24.496093 26.253907 28.925781l2.640624.882812c-10.554687 7.144532-22.828124 11.339844-35.550781 12.152344zm44.070312-103.808594c-2.722656 8.171875-9.613281 14.253906-18.054687 15.945313l-6.402344 1.289062c-1.886719-1.441406-3.933594-2.664062-6.09375-3.648437 7.355469-11.789063 8.0625-26.550782 1.871094-38.992188l-1.238281-2.488281c12.507812 2.425781 24.144531 8.132813 33.71875 16.542969zm-43-18.253906c3.855469 7.703125 3.28125 16.878906-1.496094 24.046875l-3.632812 5.449219c-2.34375.320312-4.648438.90625-6.863281 1.742187-3.136719-13.546875-13.074219-24.496093-26.253907-28.925781l-2.640624-.882812c10.554687-7.144532 22.828124-11.339844 35.550781-12.152344zm53.601563 108.351562-11.351563-3.785156c-8.171875-2.722656-14.253906-9.613281-15.945312-18.054687l-1.289063-6.402344c1.445313-1.890625 2.671875-3.9375 3.65625-6.101563 11.773438 7.398438 26.554688 8.109376 38.984375 1.878907l2.488282-1.238281c-2.425782 12.503906-8.140626 24.136718-16.550782 33.703124zm-108.265625-94.640624 11.351562 3.785156c8.171875 2.722656 14.253906 9.613281 15.945313 18.054687l1.289062 6.402344c-1.441406 1.886719-2.664062 3.933594-3.648437 6.09375-11.792969-7.339844-26.550782-8.050781-38.992188-1.871094l-2.488281 1.238281c2.425781-12.503906 8.132813-24.136718 16.542969-33.703124zm0 0"/><path d="m440 40h-392v-16c0-13.253906-10.746094-24-24-24h-24v16h24c4.417969 0 8 3.582031 8 8v136h-16v16h16v8h-24v96h24v8h-16v16h16v64h16v-40h32v32h80v-32h16v32h176v-32h88c22.082031-.027344 39.972656-17.917969 40-40v-208c-.027344-22.082031-17.917969-39.972656-40-40zm0 16c13.253906 0 24 10.746094 24 24v32h-16.296875l-45.015625-40h-101.351562l-32 24h-26.671876l-32-24h-101.976562l-32 32h-28.6875v-48zm-392 64h35.3125l32-32h90.023438l32 24h37.328124l32-24h89.945313l44.992187 40h22.398438v112h-22.398438l-45.015624 40h-89.921876l-32-24h-37.328124l-32 24h-90.023438l-32-32h-35.3125zm-24 144v-64h8v64zm88 80h-16v-16h16zm32 0h-16v-16h16zm48-16h16v16h-16zm112 0v16h-16v-16zm-32 16h-16v-16h16zm-32 0h-16v-16h16zm96 0h-16v-16h16zm104-32h-392v-48h28.6875l32 32h101.976562l32-24h26.671876l32 24h101.351562l45.015625-40h16.296875v32c0 13.253906-10.746094 24-24 24zm0 0"/></g></svg>