<svg height="480pt" viewBox="-24 0 480 480" width="480pt" xmlns="http://www.w3.org/2000/svg"><path d="m104 136v-88h-96v88c0 26.507812 21.492188 48 48 48s48-21.492188 48-48zm0 0" fill="#9bc9ff"/><path d="m376 296c-26.507812 0-48 21.492188-48 48v88h96v-88c0-26.507812-21.492188-48-48-48zm0 0" fill="#9bc9ff"/><path d="m384 288.640625v-200.640625c0-48.601562-39.398438-88-88-88s-88 39.398438-88 88v304c0 39.765625-32.234375 72-72 72s-72-32.234375-72-72v-200.640625c27.515625-3.992187 47.945312-27.554687 48-55.359375v-88c0-4.417969-3.582031-8-8-8h-8v-32c0-4.417969-3.582031-8-8-8h-64c-4.417969 0-8 3.582031-8 8v32h-8c-4.417969 0-8 3.582031-8 8v88c.0546875 27.804688 20.484375 51.367188 48 55.359375v200.640625c0 48.601562 39.398438 88 88 88s88-39.398438 88-88v-304c0-39.765625 32.234375-72 72-72s72 32.234375 72 72v200.640625c-27.515625 3.992187-47.945312 27.554687-48 55.359375v88c0 4.417969 3.582031 8 8 8h8v32c0 4.417969 3.582031 8 8 8h64c4.417969 0 8-3.582031 8-8v-32h8c4.417969 0 8-3.582031 8-8v-88c-.054688-27.804688-20.484375-51.367188-48-55.359375zm-352-272.640625h48v24h-48zm-16 120v-80h80v80c0 22.089844-17.910156 40-40 40s-40-17.910156-40-40zm384 328h-48v-24h48zm16-40h-80v-80c0-22.089844 17.910156-40 40-40s40 17.910156 40 40zm0 0" fill="#1e81ce"/></svg>