<svg height="480pt" viewBox="-31 0 479 480" width="480pt" xmlns="http://www.w3.org/2000/svg"><path d="m168.5 440v-64h-80c-44.183594 0-80-35.816406-80-80v144zm0 0" fill="#9bc9ff"/><path d="m88.5 216h80v-112h-160v192c0-44.183594 35.816406-80 80-80zm0 0" fill="#9bc9ff"/><path d="m88.5 376h320v-160h-320c-44.183594 0-80 35.816406-80 80s35.816406 80 80 80zm0-112c17.671875 0 32 14.328125 32 32s-14.328125 32-32 32-32-14.328125-32-32 14.328125-32 32-32zm0 0" fill="#9bc9ff"/><g fill="#1e81ce"><path d="m120.5 24c-4.417969 0-8 3.582031-8 8v32c0 4.417969 3.582031 8 8 8s8-3.582031 8-8v-32c0-4.417969-3.582031-8-8-8zm0 0"/><path d="m56.5 24c-4.417969 0-8 3.582031-8 8v32c0 4.417969 3.582031 8 8 8s8-3.582031 8-8v-32c0-4.417969-3.582031-8-8-8zm0 0"/><path d="m408.5 208h-232v-104c0-4.417969-3.582031-8-8-8h-16v-88c0-4.417969-3.582031-8-8-8h-112c-4.417969 0-8 3.582031-8 8v88h-16c-4.417969 0-8 3.582031-8 8v336c0 4.417969 3.582031 8 8 8h16v8c0 13.253906 10.746094 24 24 24h80c13.253906 0 24-10.746094 24-24v-8h16c4.417969 0 8-3.582031 8-8v-56h232c4.417969 0 8-3.582031 8-8v-160c0-4.417969-3.582031-8-8-8zm-368-192h96v80h-96zm-24 96h144v96h-72c-28.699219.03125-55.574219 14.066406-72 37.601562zm120 344c0 4.417969-3.582031 8-8 8h-80c-4.417969 0-8-3.582031-8-8v-8h96zm24-24h-144v-85.558594c16.433594 23.515625 43.308594 37.535156 72 37.558594h72zm240-64h-312c-39.765625 0-72-32.234375-72-72s32.234375-72 72-72h312zm0 0"/><path d="m88.5 256c-22.089844 0-40 17.910156-40 40s17.910156 40 40 40 40-17.910156 40-40c-.027344-22.082031-17.917969-39.972656-40-40zm0 64c-13.253906 0-24-10.746094-24-24s10.746094-24 24-24 24 10.746094 24 24-10.746094 24-24 24zm0 0"/><path d="m232.5 272h96c4.417969 0 8-3.582031 8-8s-3.582031-8-8-8h-96c-4.417969 0-8 3.582031-8 8s3.582031 8 8 8zm0 0"/><path d="m232.5 336h96c4.417969 0 8-3.582031 8-8s-3.582031-8-8-8h-96c-4.417969 0-8 3.582031-8 8s3.582031 8 8 8zm0 0"/></g></svg>