<svg height="480pt" viewBox="-40 0 480 480" width="480pt" xmlns="http://www.w3.org/2000/svg"><path d="m8 472h56v-192h272v192h56v-384l-83.480469-80h-20.519531v144h-192v-144h-88zm0 0" fill="#9bc9ff"/><path d="m224 40h32v80h-32zm0 0" fill="#9bc9ff"/><g fill="#1e81ce"><path d="m311.734375 0h-311.734375v480h400v-395.414062zm-31.734375 16v128h-176v-128zm-208 448v-176h256v176zm312 0h-40v-192h-288v192h-40v-448h72v144h208v-144h9.3125l78.6875 75.414062zm0 0"/><path d="m264 32h-48v96h48zm-16 80h-16v-64h16zm0 0"/><path d="m104 320h192v16h-192zm0 0"/><path d="m104 352h192v16h-192zm0 0"/></g></svg>