<svg height="480pt" viewBox="-72 0 480 480" width="480pt" xmlns="http://www.w3.org/2000/svg"><path d="m80 352h32v32h-32zm0 0" fill="#9bc9ff"/><path d="m312 8h-288c-8.835938 0-16 7.164062-16 16v432c0 8.835938 7.164062 16 16 16h208c53.019531 0 96-42.980469 96-96v-352c0-8.835938-7.164062-16-16-16zm-256 48h224v208h-224zm88 328h-32v32h-32v-32h-32v-32h32v-32h32v32h32zm72 40c-8.835938 0-16-7.164062-16-16s7.164062-16 16-16 16 7.164062 16 16-7.164062 16-16 16zm0-56c-8.835938 0-16-7.164062-16-16s7.164062-16 16-16 16 7.164062 16 16-7.164062 16-16 16zm56 40c-8.835938 0-16-7.164062-16-16s7.164062-16 16-16 16 7.164062 16 16-7.164062 16-16 16zm0-56c-8.835938 0-16-7.164062-16-16s7.164062-16 16-16 16 7.164062 16 16-7.164062 16-16 16zm0 0" fill="#9bc9ff"/><g fill="#1e81ce"><path d="m232 480h-208c-13.253906 0-24-10.746094-24-24v-432c0-13.253906 10.746094-24 24-24h288c13.253906 0 24 10.746094 24 24v352c-.066406 57.410156-46.589844 103.933594-104 104zm-208-464c-4.417969 0-8 3.582031-8 8v432c0 4.417969 3.582031 8 8 8h208c48.578125-.058594 87.941406-39.421875 88-88v-352c0-4.417969-3.582031-8-8-8zm0 0"/><path d="m280 272h-224c-4.417969 0-8-3.582031-8-8v-208c0-4.417969 3.582031-8 8-8h224c4.417969 0 8 3.582031 8 8v208c0 4.417969-3.582031 8-8 8zm-216-16h208v-192h-208zm0 0"/><path d="m152 344h-32v-32h-48v32h-32v48h32v32h48v-32h32zm-64-16h16v16h-16zm16 32v16h-16v-16zm-48 16v-16h16v16zm48 32h-16v-16h16zm32-32h-16v-16h16zm0 0"/><path d="m216 376c-13.253906 0-24-10.746094-24-24s10.746094-24 24-24 24 10.746094 24 24-10.746094 24-24 24zm0-32c-4.417969 0-8 3.582031-8 8s3.582031 8 8 8 8-3.582031 8-8-3.582031-8-8-8zm0 0"/><path d="m272 360c-13.253906 0-24-10.746094-24-24s10.746094-24 24-24 24 10.746094 24 24-10.746094 24-24 24zm0-32c-4.417969 0-8 3.582031-8 8s3.582031 8 8 8 8-3.582031 8-8-3.582031-8-8-8zm0 0"/><path d="m216 432c-13.253906 0-24-10.746094-24-24s10.746094-24 24-24 24 10.746094 24 24-10.746094 24-24 24zm0-32c-4.417969 0-8 3.582031-8 8s3.582031 8 8 8 8-3.582031 8-8-3.582031-8-8-8zm0 0"/><path d="m272 416c-13.253906 0-24-10.746094-24-24s10.746094-24 24-24 24 10.746094 24 24-10.746094 24-24 24zm0-32c-4.417969 0-8 3.582031-8 8s3.582031 8 8 8 8-3.582031 8-8-3.582031-8-8-8zm0 0"/></g></svg>