<svg height="480pt" viewBox="0 0 480 480" width="480pt" xmlns="http://www.w3.org/2000/svg"><path d="m8 376c0 53.019531 42.980469 96 96 96h272c53.019531 0 96-42.980469 96-96s-42.980469-96-96-96h-272c-53.019531 0-96 42.980469-96 96zm56 8c-4.417969 0-8-3.582031-8-8s3.582031-8 8-8 8 3.582031 8 8-3.582031 8-8 8zm32 32c-4.417969 0-8-3.582031-8-8s3.582031-8 8-8 8 3.582031 8 8-3.582031 8-8 8zm0-64c-4.417969 0-8-3.582031-8-8s3.582031-8 8-8 8 3.582031 8 8-3.582031 8-8 8zm280-24c26.507812 0 48 21.492188 48 48s-21.492188 48-48 48-48-21.492188-48-48 21.492188-48 48-48zm-248 40c4.417969 0 8 3.582031 8 8s-3.582031 8-8 8-8-3.582031-8-8 3.582031-8 8-8zm0 0" fill="#9bc9ff"/><path d="m136 376c0 4.417969-3.582031 8-8 8s-8-3.582031-8-8 3.582031-8 8-8 8 3.582031 8 8zm0 0" fill="#9bc9ff"/><path d="m104 344c0 4.417969-3.582031 8-8 8s-8-3.582031-8-8 3.582031-8 8-8 8 3.582031 8 8zm0 0" fill="#9bc9ff"/><path d="m104 408c0 4.417969-3.582031 8-8 8s-8-3.582031-8-8 3.582031-8 8-8 8 3.582031 8 8zm0 0" fill="#9bc9ff"/><path d="m72 376c0 4.417969-3.582031 8-8 8s-8-3.582031-8-8 3.582031-8 8-8 8 3.582031 8 8zm0 0" fill="#9bc9ff"/><g fill="#1e81ce"><path d="m376 272h-128v-24c0-4.417969 3.582031-8 8-8h168c30.929688 0 56-25.070312 56-56s-25.070312-56-56-56h-368c-22.089844 0-40-17.910156-40-40s17.910156-40 40-40h168c13.253906 0 24-10.746094 24-24v-24h-16v24c0 4.417969-3.582031 8-8 8h-168c-30.929688 0-56 25.070312-56 56s25.070312 56 56 56h368c22.089844 0 40 17.910156 40 40s-17.910156 40-40 40h-168c-13.253906 0-24 10.746094-24 24v24h-128c-57.4375 0-104 46.5625-104 104s46.5625 104 104 104h272c57.4375 0 104-46.5625 104-104s-46.5625-104-104-104zm0 192h-272c-48.601562 0-88-39.398438-88-88s39.398438-88 88-88h272c48.601562 0 88 39.398438 88 88s-39.398438 88-88 88zm0 0"/><path d="m376 320c-30.929688 0-56 25.070312-56 56s25.070312 56 56 56 56-25.070312 56-56c-.039062-30.910156-25.089844-55.960938-56-56zm39.199219 48h-31.199219v-31.199219c15.699219 3.234375 27.964844 15.5 31.199219 31.199219zm-47.199219-31.199219v31.199219h-31.199219c3.234375-15.699219 15.5-27.964844 31.199219-31.199219zm-31.199219 47.199219h31.199219v31.199219c-15.699219-3.234375-27.964844-15.5-31.199219-31.199219zm47.199219 31.199219v-31.199219h31.199219c-3.234375 15.699219-15.5 27.964844-31.199219 31.199219zm0 0"/><path d="m280 368h-32c-4.417969 0-8 3.582031-8 8s3.582031 8 8 8h32c4.417969 0 8-3.582031 8-8s-3.582031-8-8-8zm0 0"/><path d="m216 368h-32c-4.417969 0-8 3.582031-8 8s3.582031 8 8 8h32c4.417969 0 8-3.582031 8-8s-3.582031-8-8-8zm0 0"/><path d="m144 376c0 8.835938-7.164062 16-16 16s-16-7.164062-16-16 7.164062-16 16-16 16 7.164062 16 16zm0 0"/><path d="m112 344c0 8.835938-7.164062 16-16 16s-16-7.164062-16-16 7.164062-16 16-16 16 7.164062 16 16zm0 0"/><path d="m112 408c0 8.835938-7.164062 16-16 16s-16-7.164062-16-16 7.164062-16 16-16 16 7.164062 16 16zm0 0"/><path d="m80 376c0 8.835938-7.164062 16-16 16s-16-7.164062-16-16 7.164062-16 16-16 16 7.164062 16 16zm0 0"/></g></svg>