<svg height="480pt" viewBox="-32 0 480 480.00021" width="480pt" xmlns="http://www.w3.org/2000/svg"><g fill="#9bc9ff"><path d="m55.976562 376h304c22.246094.015625 41.570313 15.320312 46.679688 36.976562l-43.273438-360.65625c-1.921874-25.007812-22.773437-44.320312-47.855468-44.320312h-215.105469c-25.078125 0-45.929687 19.3125-47.855469 44.320312l-43.269531 360.65625c5.109375-21.65625 24.429687-36.960937 46.679687-36.976562zm152-280c66.269532 0 120 35.816406 120 80s-53.730468 80-120 80c-66.273437 0-120-35.816406-120-80s53.726563-80 120-80zm0 0"/><path d="m359.976562 376h-304c-22.25.015625-41.570312 15.320312-46.679687 36.976562l-1.320313 11.023438c0 26.507812 21.488282 48 48 48h304c26.507813 0 48-21.492188 48-48l-1.320312-11.023438c-5.109375-21.65625-24.433594-36.960937-46.679688-36.976562zm-288 64c-8.835937 0-16-7.164062-16-16s7.164063-16 16-16c8.835938 0 16 7.164062 16 16s-7.164062 16-16 16zm0 0"/><path d="m407.976562 424c-.015624-3.714844-.457031-7.414062-1.320312-11.023438zm0 0"/><path d="m7.976562 424 1.320313-11.023438c-.867187 3.609376-1.308594 7.308594-1.320313 11.023438zm0 0"/></g><path d="m207.976562 264c-70.578124 0-128-39.480469-128-88s57.421876-88 128-88c70.574219 0 128 39.480469 128 88s-57.425781 88-128 88zm0-160c-61.761718 0-112 32.296875-112 72s50.238282 72 112 72c61.757813 0 112-32.296875 112-72s-50.242187-72-112-72zm0 0" fill="#1e81ce"/><path d="m414.550781 411.617188-43.199219-359.90625c-2.359374-29.117188-26.617187-51.585938-55.832031-51.710938h-215.089843c-29.097657.0820312-53.316407 22.375-55.804688 51.367188l-43.203125 360.257812c-3.820313 16.601562.144531 34.039062 10.769531 47.355469 10.625 13.320312 26.746094 21.058593 43.785156 21.019531h304c17.042969.046875 33.171876-7.691406 43.804688-21.011719 10.628906-13.320312 14.59375-30.765625 10.769531-47.371093zm-354.007812-358.6875c1.695312-20.800782 19.023437-36.839844 39.886719-36.929688h215.089843c20.984375.128906 38.351563 16.347656 39.917969 37.273438l39.203125 326.839843c-9.851563-7.84375-22.074219-12.113281-34.664063-12.113281h-304c-12.597656 0-24.824218 4.269531-34.679687 12.113281zm307.433593 410.269531v-31.199219c0-4.417969-3.582031-8-8-8-4.417968 0-8 3.582031-8 8v32h-16v-32c0-4.417969-3.582031-8-8-8-4.417968 0-8 3.582031-8 8v32h-16v-32c0-4.417969-3.582031-8-8-8-4.417968 0-8 3.582031-8 8v32h-16v-32c0-4.417969-3.582031-8-8-8-4.417968 0-8 3.582031-8 8v32h-200c-21.988281 0-39.851562-17.742188-40-39.726562l1.136719-9.433594c4.242188-18.042969 20.328125-30.804688 38.863281-30.839844h304c18.523438.046875 34.597657 12.804688 38.839844 30.839844l1.160156 9.433594c-.148437 18.898437-13.488281 35.121093-32 38.925781zm0 0" fill="#1e81ce"/><path d="m71.976562 400c-13.257812 0-24 10.746094-24 24s10.742188 24 24 24c13.253907 0 24-10.746094 24-24s-10.746093-24-24-24zm0 32c-4.417968 0-8-3.582031-8-8s3.582032-8 8-8c4.417969 0 8 3.582031 8 8s-3.582031 8-8 8zm0 0" fill="#1e81ce"/></svg>