<svg height="480pt" viewBox="0 -24 480 480" width="480pt" xmlns="http://www.w3.org/2000/svg"><path d="m8 424h464v-416h-464zm72-344h320v208h-64v32h-48v32h-96v-32h-48v-32h-64zm0 0" fill="#9bc9ff"/><g fill="#1e81ce"><path d="m472 432h-464c-4.417969 0-8-3.582031-8-8v-416c0-4.417969 3.582031-8 8-8h464c4.417969 0 8 3.582031 8 8v416c0 4.417969-3.582031 8-8 8zm-456-16h448v-400h-448zm0 0"/><path d="m72 72v224h64v32h48v32h112v-32h48v-32h64v-224zm320 208h-64v32h-48v32h-80v-32h-48v-32h-64v-192h16v72h16v-72h16v72h16v-72h16v72h16v-72h16v72h16v-72h16v72h16v-72h16v72h16v-72h16v72h16v-72h16v72h16v-72h16v72h16v-72h16zm0 0"/></g></svg>