<svg height="480pt" viewBox="-12 0 480 480" width="480pt" xmlns="http://www.w3.org/2000/svg"><g fill="#9bc9ff"><path d="m376 288c0 8.835938-7.164062 16-16 16s-16-7.164062-16-16v-16h-71.601562c-.253907 2.632812-.398438 5.296875-.398438 8v112c0 44.183594 35.816406 80 80 80h16c44.183594 0 80-35.816406 80-80v-112c0-2.703125-.144531-5.367188-.398438-8h-71.601562zm0 0"/><path d="m376 256v16h71.601562c-4.109374-40.878906-38.515624-72-79.601562-72h-8v40c8.835938 0 16 7.164062 16 16zm0 0"/><path d="m272.398438 272h71.601562v-16c0-8.835938 7.164062-16 16-16v-40h-8c-41.085938 0-75.492188 31.121094-79.601562 72zm0 0"/></g><path d="m368 192v-104c0-48.601562-39.398438-88-88-88s-88 39.398438-88 88v160c0 39.765625-32.234375 72-72 72s-72-32.234375-72-72v-64c0-13.253906-10.746094-24-24-24h-24v16h24c4.417969 0 8 3.582031 8 8v64c0 48.601562 39.398438 88 88 88s88-39.398438 88-88v-160c0-39.765625 32.234375-72 72-72s72 32.234375 72 72v104c-48.578125.058594-87.941406 39.421875-88 88v112c.058594 48.578125 39.421875 87.941406 88 88h16c48.578125-.058594 87.941406-39.421875 88-88v-112c-.058594-48.578125-39.421875-87.941406-88-88zm70.144531 72h-54.144531v-8c-.042969-10.132812-6.445312-19.148438-16-22.527344v-25.472656c33.570312.054688 62.65625 23.277344 70.144531 56zm-70.144531-8v32c0 4.417969-3.582031 8-8 8s-8-3.582031-8-8v-32c0-4.417969 3.582031-8 8-8s8 3.582031 8 8zm-16-48v25.472656c-9.554688 3.378906-15.957031 12.394532-16 22.527344v8h-54.144531c7.488281-32.722656 36.574219-55.945312 70.144531-56zm88 184c-.042969 39.746094-32.253906 71.957031-72 72h-16c-39.746094-.042969-71.957031-32.253906-72-72v-112h56v8c0 13.253906 10.746094 24 24 24s24-10.746094 24-24v-8h56zm0 0" fill="#1e81ce"/></svg>