<svg height="480pt" viewBox="0 0 480 480.0401" width="480pt" xmlns="http://www.w3.org/2000/svg"><path d="m24.019531 232h432c8.835938 0 16-7.164062 16-16v-64c0-8.835938-7.164062-16-16-16h-432c-8.835937 0-16 7.164062-16 16v64c0 8.835938 7.164063 16 16 16zm48-64c8.835938 0 16 7.164062 16 16s-7.164062 16-16 16c-8.835937 0-16-7.164062-16-16s7.164063-16 16-16zm0 0" fill="#9bc9ff"/><path d="m24.019531 104h432c8.835938 0 16-7.164062 16-16v-64c0-8.835938-7.164062-16-16-16h-432c-8.835937 0-16 7.164062-16 16v64c0 8.835938 7.164063 16 16 16zm48-64c8.835938 0 16 7.164062 16 16s-7.164062 16-16 16c-8.835937 0-16-7.164062-16-16s7.164063-16 16-16zm0 0" fill="#9bc9ff"/><path d="m472.019531 344v-64c0-8.835938-7.164062-16-16-16h-432c-8.835937 0-16 7.164062-16 16v64c0 8.835938 7.164063 16 16 16h432c8.835938 0 16-7.164062 16-16zm-384-32c0 8.835938-7.164062 16-16 16-8.835937 0-16-7.164062-16-16s7.164063-16 16-16c8.835938 0 16 7.164062 16 16zm328-16" fill="#9bc9ff"/><g fill="#1e81ce"><path d="m456.019531 240h-432c-13.253906 0-23.9999998-10.746094-23.9999998-24v-64c0-13.253906 10.7460938-24 23.9999998-24h432c13.253907 0 24 10.746094 24 24v64c0 13.253906-10.746093 24-24 24zm-432-96c-4.417969 0-8 3.582031-8 8v64c0 4.417969 3.582031 8 8 8h432c4.417969 0 8-3.582031 8-8v-64c0-4.417969-3.582031-8-8-8zm0 0"/><path d="m256.019531 176h-161.472656c-3.894531-11.019531-15.164063-17.632812-26.683594-15.65625-11.523437 1.976562-19.941406 11.96875-19.941406 23.65625s8.417969 21.679688 19.941406 23.65625c11.519531 1.976562 22.789063-4.636719 26.683594-15.65625h161.472656c4.417969 0 8-3.582031 8-8s-3.582031-8-8-8zm-184 16c-4.417969 0-8-3.582031-8-8s3.582031-8 8-8 8 3.582031 8 8-3.582031 8-8 8zm0 0"/><path d="m352.019531 160h16v16h-16zm0 0"/><path d="m384.019531 160h16v16h-16zm0 0"/><path d="m416.019531 160h16v16h-16zm0 0"/><path d="m320.019531 160h16v16h-16zm0 0"/><path d="m288.019531 160h16v16h-16zm0 0"/><path d="m352.019531 192h16v16h-16zm0 0"/><path d="m384.019531 192h16v16h-16zm0 0"/><path d="m416.019531 192h16v16h-16zm0 0"/><path d="m320.019531 192h16v16h-16zm0 0"/><path d="m288.019531 192h16v16h-16zm0 0"/><path d="m456.019531 112h-432c-13.253906 0-23.9999998-10.746094-23.9999998-24v-64c0-13.253906 10.7460938-24 23.9999998-24h432c13.253907 0 24 10.746094 24 24v64c0 13.253906-10.746093 24-24 24zm-432-96c-4.417969 0-8 3.582031-8 8v64c0 4.417969 3.582031 8 8 8h432c4.417969 0 8-3.582031 8-8v-64c0-4.417969-3.582031-8-8-8zm0 0"/><path d="m256.019531 48h-161.472656c-3.894531-11.019531-15.164063-17.632812-26.683594-15.65625-11.523437 1.976562-19.941406 11.96875-19.941406 23.65625s8.417969 21.679688 19.941406 23.65625c11.519531 1.976562 22.789063-4.636719 26.683594-15.65625h161.472656c4.417969 0 8-3.582031 8-8s-3.582031-8-8-8zm-184 16c-4.417969 0-8-3.582031-8-8s3.582031-8 8-8 8 3.582031 8 8-3.582031 8-8 8zm0 0"/><path d="m352.019531 32h16v16h-16zm0 0"/><path d="m384.019531 32h16v16h-16zm0 0"/><path d="m416.019531 32h16v16h-16zm0 0"/><path d="m320.019531 32h16v16h-16zm0 0"/><path d="m288.019531 32h16v16h-16zm0 0"/><path d="m352.019531 64h16v16h-16zm0 0"/><path d="m384.019531 64h16v16h-16zm0 0"/><path d="m416.019531 64h16v16h-16zm0 0"/><path d="m320.019531 64h16v16h-16zm0 0"/><path d="m288.019531 64h16v16h-16zm0 0"/><path d="m256.019531 304h-161.472656c-3.894531-11.019531-15.164063-17.632812-26.683594-15.65625-11.523437 1.976562-19.941406 11.96875-19.941406 23.65625s8.417969 21.679688 19.941406 23.65625c11.519531 1.976562 22.789063-4.636719 26.683594-15.65625h161.472656c4.417969 0 8-3.582031 8-8s-3.582031-8-8-8zm-184 16c-4.417969 0-8-3.582031-8-8s3.582031-8 8-8 8 3.582031 8 8-3.582031 8-8 8zm0 0"/><path d="m352.019531 288h16v16h-16zm0 0"/><path d="m384.019531 288h16v16h-16zm0 0"/><path d="m416.019531 288h16v16h-16zm0 0"/><path d="m320.019531 288h16v16h-16zm0 0"/><path d="m288.019531 288h16v16h-16zm0 0"/><path d="m352.019531 320h16v16h-16zm0 0"/><path d="m384.019531 320h16v16h-16zm0 0"/><path d="m416.019531 320h16v16h-16zm0 0"/><path d="m320.019531 320h16v16h-16zm0 0"/><path d="m288.019531 320h16v16h-16zm0 0"/><path d="m456.019531 368c13.253907 0 24-10.746094 24-24v-64c0-13.253906-10.746093-24-24-24h-432c-13.253906 0-23.9999998 10.746094-23.9999998 24v64c0 13.253906 10.7460938 24 23.9999998 24h208v32.800781c-15.695312 3.234375-27.964843 15.5-31.199219 31.199219h-200.8007808v16h200.8007808c3.785157 18.644531 20.175782 32.039062 39.199219 32.039062 19.023438 0 35.414063-13.394531 39.199219-32.039062h200.800781v-16h-200.800781c-3.234375-15.699219-15.5-27.964844-31.199219-31.199219v-32.800781zm-192 72c0 13.253906-10.746093 24-24 24-13.253906 0-24-10.746094-24-24s10.746094-24 24-24c13.253907 0 24 10.746094 24 24zm-248-96v-64c0-4.417969 3.582031-8 8-8h432c4.417969 0 8 3.582031 8 8v64c0 4.417969-3.582031 8-8 8h-432c-4.417969 0-8-3.582031-8-8zm0 0"/></g></svg>