<svg height="480pt" viewBox="0 0 480 480" width="480pt" xmlns="http://www.w3.org/2000/svg"><path d="m40 360h80v-48h240v48h80c17.671875 0 32-14.328125 32-32v-128c0-17.671875-14.328125-32-32-32h-400c-17.671875 0-32 14.328125-32 32v128c0 17.671875 14.328125 32 32 32zm344-160" fill="#9bc9ff"/><path d="m168 8-48 48h48zm0 0" fill="#9bc9ff"/><g fill="#1e81ce"><path d="m160 400h160v16h-160zm0 0"/><path d="m160 432h160v16h-160zm0 0"/><path d="m440 160h-72v-152c0-4.417969-3.582031-8-8-8h-192c-.160156.0234375-.316406.0546875-.472656.0976562-.722656.0390628-1.4375.1835938-2.121094.4218748-.238281.070313-.472656.152344-.703125.25-.890625.378907-1.707031.921875-2.398437 1.597657l-48 48c-.667969.679687-1.210938 1.472656-1.601563 2.34375-.109375.25-.175781.496093-.261719.753906-.230468.664062-.371094 1.355468-.410156 2.054687 0 .175781-.101562.328125-.101562.503907v103.976562h-71.929688c-22.082031.027344-39.9726562 17.917969-40 40v128c.0273438 22.082031 17.917969 39.972656 40 40h72v104c0 4.417969 3.582031 8 8 8h240c4.417969 0 8-3.582031 8-8v-104h72c22.082031-.027344 39.972656-17.917969 40-40v-128c-.027344-22.082031-17.917969-39.972656-40-40zm-280-132.6875v20.6875h-20.6875zm-32 36.6875h40c4.417969 0 8-3.582031 8-8v-40h176v144h-224zm224 400h-224v-144h224zm112-136c0 13.253906-10.746094 24-24 24h-72v-32h24c4.417969 0 8-3.582031 8-8s-3.582031-8-8-8h-304c-4.417969 0-8 3.582031-8 8s3.582031 8 8 8h24v32h-72c-13.253906 0-24-10.746094-24-24v-128c0-13.253906 10.746094-24 24-24h400c13.253906 0 24 10.746094 24 24zm0 0"/><path d="m400 192h16v16h-16zm0 0"/><path d="m432 192h16v16h-16zm0 0"/><path d="m160 336h160v16h-160zm0 0"/><path d="m160 368h160v16h-160zm0 0"/><path d="m368 192h16v16h-16zm0 0"/></g></svg>