<svg height="480pt" viewBox="-64 0 480 480.00012" width="480pt" xmlns="http://www.w3.org/2000/svg"><path d="m8 192v264c0 8.835938 7.164062 16 16 16h304c8.835938 0 16-7.164062 16-16v-280h-16v-32h16v-33.375c0-4.242188-1.6875-8.3125-4.6875-11.3125l-86.625-86.625c-3-3-7.066406-4.6875-11.3125-4.6875h-217.375c-8.835938 0-16 7.164062-16 16v88h16v80zm32 24h272v224h-272zm0 0" fill="#9bc9ff"/><g fill="#1e81ce"><path d="m328 480h-304c-13.253906 0-24-10.746094-24-24v-272h16v-64h-16v-96c0-13.253906 10.746094-24 24-24h217.367188c6.371093-.0195312 12.484374 2.511719 16.976562 7.03125l86.625 86.625c4.519531 4.492188 7.050781 10.605469 7.03125 16.976562v41.367188h-16v16h16v288c0 13.253906-10.746094 24-24 24zm-312-280v256c0 4.417969 3.582031 8 8 8h304c4.417969 0 8-3.582031 8-8v-272h-16v-48h16v-25.367188c0-2.125-.839844-4.164062-2.34375-5.664062l-86.625-86.625c-1.5-1.503906-3.539062-2.34375-5.664062-2.34375h-217.367188c-4.417969 0-8 3.582031-8 8v80h16v96zm0 0"/><path d="m320 448h-288v-240h288zm-272-16h256v-208h-256zm0 0"/><path d="m232 416h-24v-112h24c30.929688 0 56 25.070312 56 56s-25.070312 56-56 56zm-8-16h8c22.089844 0 40-17.910156 40-40s-17.910156-40-40-40h-8zm0 0"/><path d="m152 352c-13.007812 0-24-7.328125-24-16s10.992188-16 24-16 24 7.328125 24 16h16c0-17.648438-17.945312-32-40-32s-40 14.351562-40 32 17.945312 32 40 32c13.007812 0 24 7.328125 24 16s-10.992188 16-24 16-24-7.328125-24-16h-16c0 17.648438 17.945312 32 40 32s40-14.351562 40-32-17.945312-32-40-32zm0 0"/></g></svg>