<svg height="480pt" viewBox="0 0 480 480" width="480pt" xmlns="http://www.w3.org/2000/svg"><path d="m456 8h-432c-8.835938 0-16 7.164062-16 16v96c0 8.835938 7.164062 16 16 16h432c8.835938 0 16-7.164062 16-16v-96c0-8.835938-7.164062-16-16-16zm-368 64c0 8.835938-7.164062 16-16 16s-16-7.164062-16-16 7.164062-16 16-16 16 7.164062 16 16zm328-32" fill="#9bc9ff"/><path d="m88 176h-64c-8.835938 0-16 7.164062-16 16v96c0 8.835938 7.164062 16 16 16h432c8.835938 0 16-7.164062 16-16v-96c0-8.835938-7.164062-16-16-16zm0 64c0 8.835938-7.164062 16-16 16s-16-7.164062-16-16 7.164062-16 16-16 16 7.164062 16 16zm296-32" fill="#9bc9ff"/><path d="m88 344h-64c-8.835938 0-16 7.164062-16 16v96c0 8.835938 7.164062 16 16 16h432c8.835938 0 16-7.164062 16-16v-96c0-8.835938-7.164062-16-16-16zm0 64c0 8.835938-7.164062 16-16 16s-16-7.164062-16-16 7.164062-16 16-16 16 7.164062 16 16zm296-32" fill="#9bc9ff"/><g fill="#1e81ce"><path d="m456 144c13.253906 0 24-10.746094 24-24v-96c0-13.253906-10.746094-24-24-24h-432c-13.253906 0-24 10.746094-24 24v96c0 13.253906 10.746094 24 24 24h24v24h-24c-13.253906 0-24 10.746094-24 24v96c0 13.253906 10.746094 24 24 24h24v24h-24c-13.253906 0-24 10.746094-24 24v96c0 13.253906 10.746094 24 24 24h432c13.253906 0 24-10.746094 24-24v-96c0-13.253906-10.746094-24-24-24h-24v-24h24c13.253906 0 24-10.746094 24-24v-96c0-13.253906-10.746094-24-24-24h-24v-24zm-440-24v-96c0-4.417969 3.582031-8 8-8h432c4.417969 0 8 3.582031 8 8v96c0 4.417969-3.582031 8-8 8h-432c-4.417969 0-8-3.582031-8-8zm80 48v-24h288v24zm-32-24h16v24h-16zm0 168h16v24h-16zm320 0v24h-288v-24zm80 48v96c0 4.417969-3.582031 8-8 8h-432c-4.417969 0-8-3.582031-8-8v-96c0-4.417969 3.582031-8 8-8h432c4.417969 0 8 3.582031 8 8zm-48-24h-16v-24h16zm48-144v96c0 4.417969-3.582031 8-8 8h-432c-4.417969 0-8-3.582031-8-8v-96c0-4.417969 3.582031-8 8-8h432c4.417969 0 8 3.582031 8 8zm-48-24h-16v-24h16zm0 0"/><path d="m94.527344 80h161.472656c4.417969 0 8-3.582031 8-8s-3.582031-8-8-8h-161.472656c-3.894532-11.019531-15.164063-17.632812-26.683594-15.65625-11.523438 1.976562-19.941406 11.96875-19.941406 23.65625s8.417968 21.679688 19.941406 23.65625c11.519531 1.976562 22.789062-4.636719 26.683594-15.65625zm-30.527344-8c0-4.417969 3.582031-8 8-8s8 3.582031 8 8-3.582031 8-8 8-8-3.582031-8-8zm0 0"/><path d="m352 32h16v16h-16zm0 0"/><path d="m384 32h16v16h-16zm0 0"/><path d="m416 32h16v16h-16zm0 0"/><path d="m320 32h16v16h-16zm0 0"/><path d="m288 32h16v16h-16zm0 0"/><path d="m352 64h16v16h-16zm0 0"/><path d="m384 64h16v16h-16zm0 0"/><path d="m416 64h16v16h-16zm0 0"/><path d="m320 64h16v16h-16zm0 0"/><path d="m288 64h16v16h-16zm0 0"/><path d="m352 96h16v16h-16zm0 0"/><path d="m384 96h16v16h-16zm0 0"/><path d="m416 96h16v16h-16zm0 0"/><path d="m320 96h16v16h-16zm0 0"/><path d="m288 96h16v16h-16zm0 0"/><path d="m256 232h-161.472656c-3.894532-11.019531-15.164063-17.632812-26.683594-15.65625-11.523438 1.976562-19.941406 11.96875-19.941406 23.65625s8.417968 21.679688 19.941406 23.65625c11.519531 1.976562 22.789062-4.636719 26.683594-15.65625h161.472656c4.417969 0 8-3.582031 8-8s-3.582031-8-8-8zm-184 16c-4.417969 0-8-3.582031-8-8s3.582031-8 8-8 8 3.582031 8 8-3.582031 8-8 8zm0 0"/><path d="m352 200h16v16h-16zm0 0"/><path d="m384 200h16v16h-16zm0 0"/><path d="m416 200h16v16h-16zm0 0"/><path d="m320 200h16v16h-16zm0 0"/><path d="m288 200h16v16h-16zm0 0"/><path d="m352 232h16v16h-16zm0 0"/><path d="m384 232h16v16h-16zm0 0"/><path d="m416 232h16v16h-16zm0 0"/><path d="m320 232h16v16h-16zm0 0"/><path d="m288 232h16v16h-16zm0 0"/><path d="m352 264h16v16h-16zm0 0"/><path d="m384 264h16v16h-16zm0 0"/><path d="m416 264h16v16h-16zm0 0"/><path d="m320 264h16v16h-16zm0 0"/><path d="m288 264h16v16h-16zm0 0"/><path d="m256 400h-161.472656c-3.894532-11.019531-15.164063-17.632812-26.683594-15.65625-11.523438 1.976562-19.941406 11.96875-19.941406 23.65625s8.417968 21.679688 19.941406 23.65625c11.519531 1.976562 22.789062-4.636719 26.683594-15.65625h161.472656c4.417969 0 8-3.582031 8-8s-3.582031-8-8-8zm-184 16c-4.417969 0-8-3.582031-8-8s3.582031-8 8-8 8 3.582031 8 8-3.582031 8-8 8zm0 0"/><path d="m352 368h16v16h-16zm0 0"/><path d="m384 368h16v16h-16zm0 0"/><path d="m416 368h16v16h-16zm0 0"/><path d="m320 368h16v16h-16zm0 0"/><path d="m288 368h16v16h-16zm0 0"/><path d="m352 400h16v16h-16zm0 0"/><path d="m384 400h16v16h-16zm0 0"/><path d="m416 400h16v16h-16zm0 0"/><path d="m320 400h16v16h-16zm0 0"/><path d="m288 400h16v16h-16zm0 0"/><path d="m352 432h16v16h-16zm0 0"/><path d="m384 432h16v16h-16zm0 0"/><path d="m416 432h16v16h-16zm0 0"/><path d="m320 432h16v16h-16zm0 0"/><path d="m288 432h16v16h-16zm0 0"/></g></svg>