<svg height="480pt" viewBox="-63 0 479 480" width="480pt" xmlns="http://www.w3.org/2000/svg"><path d="m312.5 472c17.671875 0 32-14.328125 32-32v-352l-80-80h-224c-17.671875 0-32 14.328125-32 32v400c0 17.671875 14.328125 32 32 32zm-232-112v-112h192v160h-192zm0 0" fill="#9bc9ff"/><g fill="#1e81ce"><path d="m312.5 480h-272c-22.082031-.027344-39.972656-17.917969-40-40v-400c.027344-22.082031 17.917969-39.9726562 40-40h224c2.121094 0 4.15625.84375 5.65625 2.34375l80 80c1.5 1.5 2.34375 3.535156 2.34375 5.65625v352c-.027344 22.082031-17.917969 39.972656-40 40zm-272-464c-13.253906 0-24 10.746094-24 24v400c0 13.253906 10.746094 24 24 24h272c13.253906 0 24-10.746094 24-24v-348.6875l-75.3125-75.3125zm0 0"/><path d="m272.5 240h-192c-4.417969 0-8 3.582031-8 8v160c0 4.417969 3.582031 8 8 8h192c4.417969 0 8-3.582031 8-8v-160c0-4.417969-3.582031-8-8-8zm-8 48h-32v-32h32zm-48 0h-32v-32h32zm-48 0h-32v-32h32zm-16 40c0 13.253906-10.746094 24-24 24h-40v-48h40c13.253906 0 24 10.746094 24 24zm-64-72h32v32h-32zm0 112h32v32h-32zm48 0h32v32h-32zm48 32v-32h32v32zm48 0v-40c0-4.417969-3.582031-8-8-8h-64.207031c10.941406-14.128906 10.941406-33.871094 0-48h104.207031v96zm0 0"/></g></svg>