<svg height="480pt" viewBox="-112 0 480 480" width="480pt" xmlns="http://www.w3.org/2000/svg"><path d="m192 8h-128l-8 112h144zm0 0" fill="#9bc9ff"/><path d="m64 472h128l8-112h-144zm0 0" fill="#9bc9ff"/><g fill="#1e81ce"><path d="m207.488281 112.558594-8.039062-112.558594h-142.898438l-8 112.558594c-27.777343 3.730468-48.519531 27.414062-48.550781 55.441406v144c.0273438 28.011719 20.75 51.695312 48.511719 55.441406l8 112.558594h142.9375l8.039062-112.558594c27.761719-3.746094 48.484375-27.429687 48.511719-55.441406v-144c-.027344-28.011719-20.75-51.695312-48.511719-55.441406zm-136.039062-96.558594h113.101562l6.855469 96h-126.8125zm113.101562 448h-113.101562l-6.855469-96h126.8125zm55.449219-152c-.027344 22.082031-17.917969 39.972656-40 40h-144c-22.082031-.027344-39.972656-17.917969-40-40v-144c.027344-22.082031 17.917969-39.972656 40-40h144c22.082031.027344 39.972656 17.917969 40 40zm0 0"/><path d="m120 232h-56v16h72v-104h-16zm0 0"/></g></svg>