<svg height="486.496pt" viewBox="0 0 486.496 486.496" width="486.496pt" xmlns="http://www.w3.org/2000/svg"><g fill="#9bc9ff"><path d="m84.847656 254.566406c-6.25 6.25-6.25 16.382813 0 22.632813l62.222656 62.226562 33.945313 33.941407 28.28125 28.28125c6.246094 6.25 16.382813 6.25 22.632813 0l192.328124-192.335938-147.074218-147.074219zm237.601563-90.503906-7.203125 26.769531-9.796875-9.800781-88.554688 88.570312h56.082031l26.589844-26.585937-5.414062-5.414063 11.3125-11.3125 11.3125 11.3125-11.3125 11.308594-5.898438-5.894531-26.589844 26.585937h-56.082031l-34.34375 34.34375c3.125 3.121094 3.125 8.1875.003907 11.3125-3.125 3.125-8.191407 3.125-11.316407 0s-3.125-8.191406 0-11.3125c3.125-3.125 8.191407-3.125 11.3125 0l18.34375-18.34375v-54.402343l27.289063-27.289063c-.328125-.1875-.644532-.398437-.945313-.628906-3.125-3.125-3.125-8.191406 0-11.316406s8.191407-3.125 11.316407 0c3.121093 3.125 3.121093 8.191406-.003907 11.316406-2.816406 2.789062-7.265625 3.058594-10.398437.628906l-27.257813 27.289063v54.402343l104.570313-104.570312-9.800782-9.832031zm0 0"/><path d="m171.238281 303.945312c-3.125 3.121094-3.125 8.1875 0 11.3125s8.191407 3.125 11.316407 0c3.121093-3.125 3.121093-8.191406-.003907-11.3125l-1.535156 1.535157 1.535156-1.535157c-3.121093-3.125-8.1875-3.125-11.3125 0zm0 0"/><path d="m238.550781 203.257812c3.125-3.125 3.125-8.191406.003907-11.316406-3.125-3.125-8.191407-3.125-11.316407 0s-3.125 8.191406 0 11.316406c.300781.230469.617188.441407.945313.628907l5.878906-5.886719-5.878906 5.886719c3.128906 2.410156 7.554687 2.140625 10.367187-.628907zm0 0"/><path d="m316.777344 237.601562-11.3125-11.3125-11.3125 11.3125 5.414062 5.414063 5.898438-5.902344-5.898438 5.902344 5.898438 5.894531zm0 0"/><path d="m113.128906 305.480469-22.632812 22.632812c-6.246094 6.246094-6.246094 16.375 0 22.621094l45.265625 45.265625c6.246093 6.246094 16.375 6.246094 22.621093 0l22.632813-22.625-33.945313-33.941406zm0 0"/><path d="m147.070312 339.425781 33.945313 33.941407zm0 0"/><path d="m11.308594 452.558594 90.511718-90.507813 22.625 22.625-90.507812 90.511719zm0 0"/><path d="m101.816406 362.046875 22.632813 22.632813zm0 0"/><path d="m322.433594 164.0625-26.769532 7.167969 9.800782 9.800781zm0 0"/><path d="m315.265625 190.832031 7.167969-26.769531-16.96875 16.96875zm0 0"/></g><path d="m418.601562 192.34375 67.894532-67.886719-124.464844-124.457031-67.878906 67.894531-11.3125-11.308593c-3.125-3.125-8.1875-3.125-11.3125 0l-192.335938 192.324218c-9.375 9.375-9.375 24.574219 0 33.945313l22.625 22.625-16.96875 16.96875c-9.378906 9.371093-9.378906 24.578125 0 33.949219l5.65625 5.65625-90.503906 90.503906 33.9375 33.9375 90.511719-90.496094 5.65625 5.65625c9.371093 9.375 24.570312 9.375 33.941406 0l16.96875-16.96875 22.625 22.625c9.371094 9.375 24.570313 9.375 33.945313 0l192.324218-192.335938c3.125-3.125 3.125-8.1875 0-11.3125zm-384.664062 271.527344-11.3125-11.3125 79.199219-79.199219 11.320312 11.3125zm118.789062-73.535156c-3.164062 3.023437-8.148437 3.023437-11.3125 0l-5.652343-5.65625-39.601563-39.589844c-1.503906-1.503906-2.347656-3.539063-2.347656-5.660156 0-2.125.84375-4.160157 2.347656-5.660157l16.96875-16.96875 56.566406 56.566407zm209.304688-367.695313 101.824219 101.816406-56.558594 56.574219-101.832031-101.832031zm-135.757812 373.359375c-1.503907 1.503906-3.539063 2.347656-5.660157 2.347656-2.125 0-4.160156-.84375-5.660156-2.347656l-124.457031-124.457031c-1.503906-1.5-2.347656-3.535157-2.347656-5.660157 0-2.121093.84375-4.160156 2.347656-5.660156l186.6875-186.671875 135.761718 135.769531zm0 0" fill="#1e81ce"/><path d="m356.375 39.609375-33.941406 33.941406 33.941406 33.9375 33.945312-33.9375zm-11.3125 33.941406 11.3125-11.320312 11.320312 11.320312-11.320312 11.3125zm0 0" fill="#1e81ce"/><path d="m446.886719 130.121094-33.941407-33.945313-33.9375 33.945313 33.9375 33.941406zm-33.941407-11.320313 11.3125 11.320313-11.3125 11.3125-11.3125-11.3125zm0 0" fill="#1e81ce"/><path d="m319.398438 206.28125 14.34375-53.527344-53.535157 14.34375 13.945313 13.933594-85.257813 85.257812v-31.808593l21.160157-21.160157c.9375.175782 1.886718.269532 2.839843.28125 6.972657.023438 13.15625-4.46875 15.289063-11.109374 2.132812-6.636719-.277344-13.890626-5.960938-17.929688-5.679687-4.042969-13.324218-3.9375-18.894531.253906s-7.785156 11.511719-5.472656 18.085938l-24.960938 24.953125v54.402343l-11.917969 11.917969c-6.996093-1.875-14.378906 1.183594-18 7.453125-3.621093 6.273438-2.578124 14.195313 2.542969 19.316406 5.121094 5.121094 13.042969 6.164063 19.316407 2.542969 6.269531-3.621093 9.328124-11.003906 7.453124-18l27.917969-27.886719h56.082031l23.277344-23.273437 5.898438 5.894531 22.632812-22.621094-22.625-22.625-22.640625 22.625 5.414063 5.414063-18.550782 18.585937h-33.488281l69.257813-69.257812zm0 0" fill="#1e81ce"/></svg>