<svg height="480pt" viewBox="0 -151 480 479" width="480pt" xmlns="http://www.w3.org/2000/svg"><path d="m376 8.5h-288c-44.183594 0-80 35.816406-80 80s35.816406 80 80 80h288zm-48 112h-192c-17.671875 0-32-14.328125-32-32s14.328125-32 32-32h192zm0 0" fill="#9bc9ff"/><g fill="#1e81ce"><path d="m96 88.5c.027344 22.082031 17.917969 39.972656 40 40h200v-80h-200c-22.082031.027344-39.972656 17.917969-40 40zm224 24h-184c-13.253906 0-24-10.746094-24-24s10.746094-24 24-24h184zm0 0"/><path d="m480 32.5h-96v-32h-296c-48.601562 0-88 39.398438-88 88s39.398438 88 88 88h296v-32h96zm-112 128h-280c-39.765625 0-72-32.234375-72-72s32.234375-72 72-72h280zm96-32h-80v-80h80zm0 0"/><path d="m416 56.5h32v16h-32zm0 0"/><path d="m416 104.5h32v16h-32zm0 0"/></g></svg>