<svg height="480pt" viewBox="0 0 480 480.00637" width="480pt" xmlns="http://www.w3.org/2000/svg"><path d="m112.003906 448.007812h360v-144h-464v144zm296-88c8.835938 0 16 7.160157 16 16 0 8.835938-7.164062 16-16 16-8.835937 0-16-7.164062-16-16 0-8.839843 7.164063-16 16-16zm-64 0c8.835938 0 16 7.160157 16 16 0 8.835938-7.164062 16-16 16-8.835937 0-16-7.164062-16-16 0-8.839843 7.164063-16 16-16zm-64 0c8.835938 0 16 7.160157 16 16 0 8.835938-7.164062 16-16 16-8.835937 0-16-7.164062-16-16 0-8.839843 7.164063-16 16-16zm-224-8h144v48h-144zm0 0" fill="#9bc9ff"/><path d="m64.003906 448.007812h48v24h-48zm0 0" fill="#9bc9ff"/><path d="m368.003906 448.007812h48v24h-48zm0 0" fill="#9bc9ff"/><path d="m408.003906 128.007812c0-8.839843-7.164062-16-16-16-8.835937 0-16 7.160157-16 16v176h32zm0 0" fill="#9bc9ff"/><path d="m104.003906 128.007812c0-8.839843-7.164062-16-16-16-8.835937 0-16 7.160157-16 16v176h32zm0 0" fill="#9bc9ff"/><g fill="#1e81ce"><path d="m472.003906 296.007812h-56v-168c0-13.257812-10.746094-24-24-24s-24 10.742188-24 24v168h-256v-168c0-13.257812-10.746094-24-24-24s-24 10.742188-24 24v168h-56c-4.417968 0-7.99999975 3.582032-7.99999975 8v144c0 4.417969 3.58203175 8 7.99999975 8h48v24h64v-24h240v24h64v-24h48c4.417969 0 8-3.582031 8-8v-144c0-4.417968-3.582031-8-8-8zm-88-168c0-4.417968 3.582032-8 8-8 4.417969 0 8 3.582032 8 8v168h-16zm-304 0c0-4.417968 3.582032-8 8-8 4.417969 0 8 3.582032 8 8v168h-16zm24 336h-32v-8h32zm304 0h-32v-8h32zm56-24h-448v-128h448zm0 0"/><path d="m280.003906 352.007812c-13.253906 0-24 10.742188-24 24 0 13.253907 10.746094 24 24 24s24-10.746093 24-24c0-13.257812-10.746094-24-24-24zm0 32c-4.417968 0-8-3.582031-8-8 0-4.417968 3.582032-8 8-8 4.417969 0 8 3.582032 8 8 0 4.417969-3.582031 8-8 8zm0 0"/><path d="m344.003906 352.007812c-13.253906 0-24 10.742188-24 24 0 13.253907 10.746094 24 24 24s24-10.746093 24-24c0-13.257812-10.746094-24-24-24zm0 32c-4.417968 0-8-3.582031-8-8 0-4.417968 3.582032-8 8-8 4.417969 0 8 3.582032 8 8 0 4.417969-3.582031 8-8 8zm0 0"/><path d="m384.003906 376.007812c0 13.253907 10.746094 24 24 24s24-10.746093 24-24c0-13.257812-10.746094-24-24-24s-24 10.742188-24 24zm32 0c0 4.417969-3.582031 8-8 8-4.417968 0-8-3.582031-8-8 0-4.417968 3.582032-8 8-8 4.417969 0 8 3.582032 8 8zm0 0"/><path d="m200.003906 344.007812h-144c-4.417968 0-8 3.582032-8 8v48c0 4.417969 3.582032 8 8 8h144c4.417969 0 8-3.582031 8-8v-48c0-4.417968-3.582031-8-8-8zm-8 48h-128v-32h128zm0 0"/><path d="m318.453125 46.476562c40.617187-40.628906 106.484375-40.628906 147.101563 0 3.132812 3.117188 8.199218 3.105469 11.316406-.027343 3.117187-3.132813 3.105468-8.199219-.027344-11.316407-46.859375-46.84375-122.820312-46.84375-169.679688 0-3.132812 3.117188-3.144531 8.183594-.027343 11.316407 3.117187 3.132812 8.183593 3.144531 11.316406.027343zm0 0"/><path d="m448.5625 71.445312c3.234375 0 6.152344-1.949218 7.390625-4.9375 1.238281-2.988281.554687-6.429687-1.734375-8.71875-34.351562-34.378906-90.078125-34.378906-124.429688 0-3.035156 3.140626-2.992187 8.128907.09375 11.214844 3.085938 3.085938 8.078126 3.128906 11.214844.097656 28.117188-28.105468 73.695313-28.105468 101.808594 0 1.5 1.5 3.535156 2.34375 5.65625 2.34375zm0 0"/><path d="m352.394531 80.453125c-3.109375 3.140625-3.085937 8.207031.050781 11.316406 3.140626 3.109375 8.207032 3.089844 11.316407-.050781 7.488281-7.5 17.648437-11.710938 28.242187-11.710938s20.753906 4.210938 28.238282 11.710938c3.113281 3.140625 8.179687 3.160156 11.316406.050781 3.140625-3.109375 3.164062-8.175781.050781-11.316406-10.488281-10.523437-24.738281-16.4375-39.597656-16.4375s-29.109375 5.914063-39.601563 16.4375zm0 0"/><path d="m14.453125 46.476562c40.617187-40.628906 106.484375-40.628906 147.101563 0 3.132812 3.117188 8.199218 3.105469 11.316406-.027343 3.117187-3.132813 3.105468-8.199219-.027344-11.316407-46.859375-46.84375-122.820312-46.84375-169.679688 0-3.132812 3.117188-3.1445308 8.183594-.027343 11.316407 3.117187 3.132812 8.183593 3.144531 11.316406.027343zm0 0"/><path d="m144.5625 71.445312c3.234375 0 6.152344-1.949218 7.390625-4.9375 1.238281-2.988281.554687-6.429687-1.734375-8.71875-34.351562-34.378906-90.078125-34.378906-124.429688 0-3.035156 3.140626-2.992187 8.128907.09375 11.214844 3.085938 3.085938 8.078126 3.128906 11.214844.097656 28.117188-28.105468 73.695313-28.105468 101.808594 0 1.5 1.5 3.535156 2.34375 5.65625 2.34375zm0 0"/><path d="m48.394531 80.453125c-3.109375 3.140625-3.085937 8.207031.050781 11.316406 3.140626 3.109375 8.207032 3.089844 11.316407-.050781 7.488281-7.5 17.648437-11.710938 28.242187-11.710938s20.753906 4.210938 28.238282 11.710938c3.113281 3.140625 8.179687 3.160156 11.316406.050781 3.140625-3.109375 3.164062-8.175781.050781-11.316406-10.488281-10.523437-24.738281-16.4375-39.597656-16.4375s-29.109375 5.914063-39.601563 16.4375zm0 0"/></g></svg>