<svg height="480pt" viewBox="-24 0 480 480" width="480pt" xmlns="http://www.w3.org/2000/svg"><path d="m40 472h208c17.671875 0 32-14.328125 32-32v-16h-272v16c0 17.671875 14.328125 32 32 32zm120-24" fill="#9bc9ff"/><path d="m280 40c0-17.671875-14.328125-32-32-32h-208c-17.671875 0-32 14.328125-32 32v16h272zm-128-8" fill="#9bc9ff"/><path d="m96 112v224h152v-224zm32 48h48v48h-48zm-8 80" fill="#9bc9ff"/><path d="m248 336h152v-224h-152zm128-32" fill="#9bc9ff"/><path d="m128 160h48v48h-48zm0 0" fill="#9bc9ff"/><g fill="#1e81ce"><path d="m280 392.136719c-4.417969 0-8 3.582031-8 8v15.863281h-256v-352h256v15.359375c0 4.417969 3.582031 8 8 8s8-3.582031 8-8v-39.359375c-.027344-22.082031-17.917969-39.9726562-40-40h-208c-22.082031.0273438-39.9726562 17.917969-40 40v400c.0273438 22.082031 17.917969 39.972656 40 40h208c22.082031-.027344 39.972656-17.917969 40-40v-39.863281c0-4.417969-3.582031-8-8-8zm-240-376.136719h208c13.253906 0 24 10.746094 24 24v8h-256v-8c0-13.253906 10.746094-24 24-24zm208 448h-208c-13.253906 0-24-10.746094-24-24v-8h256v8c0 13.253906-10.746094 24-24 24zm0 0"/><path d="m152 40h16c4.417969 0 8-3.582031 8-8s-3.582031-8-8-8h-16c-4.417969 0-8 3.582031-8 8s3.582031 8 8 8zm0 0"/><path d="m160 440h-32c-4.417969 0-8 3.582031-8 8s3.582031 8 8 8h32c4.417969 0 8-3.582031 8-8s-3.582031-8-8-8zm0 0"/><path d="m120 40h8c4.417969 0 8-3.582031 8-8s-3.582031-8-8-8h-8c-4.417969 0-8 3.582031-8 8s3.582031 8 8 8zm0 0"/><path d="m72 80h-40v40h16v-24h24zm0 0"/><path d="m32 360v40h40v-16h-24v-24zm0 0"/><path d="m416 120v232h-152c-4.417969 0-8 3.582031-8 8 .003906 2.15625-.882812 4.214844-2.449219 5.695312-1.457031 1.492188-3.464843 2.324219-5.550781 2.304688-4.417969 0-8-3.582031-8-8v-8h-160v-232h-16v248h161.472656c3.378906 9.554688 12.394532 15.957031 22.527344 16 10.140625-.035156 19.164062-6.441406 22.542969-16h161.457031v-248zm0 0"/><path d="m96 104c-4.417969 0-8 3.582031-8 8v224c0 4.417969 3.582031 8 8 8h304c4.417969 0 8-3.582031 8-8v-224c0-4.417969-3.582031-8-8-8zm8 16h136v208h-136zm288 208h-136v-208h136zm0 0"/><path d="m184 152h-64v64h64zm-16 48h-32v-32h32zm0 0"/><path d="m120 232h104v16h-104zm0 0"/><path d="m120 264h104v16h-104zm0 0"/><path d="m120 296h104v16h-104zm0 0"/><path d="m272 168h104v16h-104zm0 0"/><path d="m272 136h104v16h-104zm0 0"/><path d="m272 200h104v16h-104zm0 0"/><path d="m272 232h104v16h-104zm0 0"/><path d="m272 264h104v16h-104zm0 0"/><path d="m272 296h104v16h-104zm0 0"/></g></svg>