<svg height="480pt" viewBox="-31 0 479 480" width="480pt" xmlns="http://www.w3.org/2000/svg"><path d="m40.5 472h208c17.671875 0 32-14.328125 32-32v-16h-272v16c0 17.671875 14.328125 32 32 32zm120-24" fill="#9bc9ff"/><path d="m280.5 40c0-17.671875-14.328125-32-32-32h-208c-17.671875 0-32 14.328125-32 32v16h272zm-128-8" fill="#9bc9ff"/><path d="m200.5 120h208v32h-208zm0 0" fill="#9bc9ff"/><path d="m408.5 152h-208v64h120v48h88zm-64 80" fill="#9bc9ff"/><path d="m200.5 216h-88v144h208v-144zm80 120c-8.835938 0-16-7.164062-16-16 0 8.835938-7.164062 16-16 16s-16-7.164062-16-16 7.164062-16 16-16 16 7.164062 16 16c0-8.835938 7.164062-16 16-16s16 7.164062 16 16-7.164062 16-16 16zm0 0" fill="#9bc9ff"/><path d="m264.5 320c0 8.835938-7.164062 16-16 16s-16-7.164062-16-16 7.164062-16 16-16 16 7.164062 16 16zm0 0" fill="#9bc9ff"/><path d="m296.5 320c0 8.835938-7.164062 16-16 16s-16-7.164062-16-16 7.164062-16 16-16 16 7.164062 16 16zm0 0" fill="#9bc9ff"/><g fill="#1e81ce"><path d="m280.5 384.136719c-4.417969 0-8 3.582031-8 8v23.863281h-256v-352h256v23.359375c0 4.417969 3.582031 8 8 8s8-3.582031 8-8v-47.359375c-.027344-22.082031-17.917969-39.9726562-40-40h-208c-22.082031.0273438-39.972656 17.917969-40 40v400c.027344 22.082031 17.917969 39.972656 40 40h208c22.082031-.027344 39.972656-17.917969 40-40v-47.863281c0-4.417969-3.582031-8-8-8zm-240-368.136719h208c13.253906 0 24 10.746094 24 24v8h-256v-8c0-13.253906 10.746094-24 24-24zm208 448h-208c-13.253906 0-24-10.746094-24-24v-8h256v8c0 13.253906-10.746094 24-24 24zm0 0"/><path d="m160.5 440h-32c-4.417969 0-8 3.582031-8 8s3.582031 8 8 8h32c4.417969 0 8-3.582031 8-8s-3.582031-8-8-8zm0 0"/><path d="m120.5 40h8c4.417969 0 8-3.582031 8-8s-3.582031-8-8-8h-8c-4.417969 0-8 3.582031-8 8s3.582031 8 8 8zm0 0"/><path d="m72.5 80h-40v40h16v-24h24zm0 0"/><path d="m32.5 360v40h40v-16h-24v-24zm0 0"/><path d="m408.5 112h-208c-4.417969 0-8 3.582031-8 8v88h-80c-4.417969 0-8 3.582031-8 8v144c0 4.417969 3.582031 8 8 8h208c4.417969 0 8-3.582031 8-8v-88h80c4.417969 0 8-3.582031 8-8v-144c0-4.417969-3.582031-8-8-8zm-8 16v16h-192v-16zm-88 224h-192v-128h192zm16-96v-40c0-4.417969-3.582031-8-8-8h-112v-48h192v96zm0 0"/><path d="m280.5 296c-5.921875.019531-11.625 2.246094-16 6.238281-9.589844-8.714843-24.363281-8.242187-33.378906 1.0625-9.019532 9.308594-9.019532 24.089844 0 33.398438 9.015625 9.304687 23.789062 9.777343 33.378906 1.0625 7.945312 7.222656 19.722656 8.285156 28.835938 2.605469 9.113281-5.679688 13.34375-16.722657 10.359374-27.039063-2.984374-10.3125-12.457031-17.390625-23.195312-17.328125zm-32 32c-4.417969 0-8-3.582031-8-8s3.582031-8 8-8 8 3.582031 8 8-3.582031 8-8 8zm32 0c-4.417969 0-8-3.582031-8-8s3.582031-8 8-8 8 3.582031 8 8-3.582031 8-8 8zm0 0"/><path d="m144.5 256h16c4.417969 0 8-3.582031 8-8s-3.582031-8-8-8h-16c-4.417969 0-8 3.582031-8 8s3.582031 8 8 8zm0 0"/><path d="m200.5 240h-16c-4.417969 0-8 3.582031-8 8s3.582031 8 8 8h16c4.417969 0 8-3.582031 8-8s-3.582031-8-8-8zm0 0"/><path d="m232.5 256h16c4.417969 0 8-3.582031 8-8s-3.582031-8-8-8h-16c-4.417969 0-8 3.582031-8 8s3.582031 8 8 8zm0 0"/><path d="m272.5 256h16c4.417969 0 8-3.582031 8-8s-3.582031-8-8-8h-16c-4.417969 0-8 3.582031-8 8s3.582031 8 8 8zm0 0"/><path d="m176.5 320h-32c-4.417969 0-8 3.582031-8 8s3.582031 8 8 8h32c4.417969 0 8-3.582031 8-8s-3.582031-8-8-8zm0 0"/><path d="m376.5 224h-32c-4.417969 0-8 3.582031-8 8s3.582031 8 8 8h32c4.417969 0 8-3.582031 8-8s-3.582031-8-8-8zm0 0"/><path d="m152.5 40h16c4.417969 0 8-3.582031 8-8s-3.582031-8-8-8h-16c-4.417969 0-8 3.582031-8 8s3.582031 8 8 8zm0 0"/></g></svg>