<svg height="480pt" viewBox="-24 0 480 480" width="480pt" xmlns="http://www.w3.org/2000/svg"><path d="m280 40c0-17.671875-14.328125-32-32-32h-208c-17.671875 0-32 14.328125-32 32v16h272zm-128-8" fill="#9bc9ff"/><path d="m40 472h208c17.671875 0 32-14.328125 32-32v-16h-272v16c0 17.671875 14.328125 32 32 32zm120-24" fill="#9bc9ff"/><path d="m384 112h-312v48.105469h312zm-224 24" fill="#9bc9ff"/><path d="m216 272v64h208v-112h-208zm136 8c8.835938 0 16 7.164062 16 16 0-8.835938 7.164062-16 16-16s16 7.164062 16 16-7.164062 16-16 16-16-7.164062-16-16c0 8.835938-7.164062 16-16 16s-16-7.164062-16-16 7.164062-16 16-16zm0 0" fill="#9bc9ff"/><path d="m216 192v32h208v-32zm0 0" fill="#9bc9ff"/><path d="m368 296c0 8.835938-7.164062 16-16 16s-16-7.164062-16-16 7.164062-16 16-16 16 7.164062 16 16zm0 0" fill="#9bc9ff"/><path d="m400 296c0 8.835938-7.164062 16-16 16s-16-7.164062-16-16 7.164062-16 16-16 16 7.164062 16 16zm0 0" fill="#9bc9ff"/><g fill="#1e81ce"><path d="m280 384c-4.417969 0-8 3.582031-8 8v24h-256v-352h256v24c0 4.417969 3.582031 8 8 8s8-3.582031 8-8v-48c-.027344-22.082031-17.917969-39.9726562-40-40h-208c-22.082031.0273438-39.9726562 17.917969-40 40v400c.0273438 22.082031 17.917969 39.972656 40 40h208c22.082031-.027344 39.972656-17.917969 40-40v-48c0-4.417969-3.582031-8-8-8zm-240-368h208c13.253906 0 24 10.746094 24 24v8h-256v-8c0-13.253906 10.746094-24 24-24zm208 448h-208c-13.253906 0-24-10.746094-24-24v-8h256v8c0 13.253906-10.746094 24-24 24zm0 0"/><path d="m152 40h16c4.417969 0 8-3.582031 8-8s-3.582031-8-8-8h-16c-4.417969 0-8 3.582031-8 8s3.582031 8 8 8zm0 0"/><path d="m160 440h-32c-4.417969 0-8 3.582031-8 8s3.582031 8 8 8h32c4.417969 0 8-3.582031 8-8s-3.582031-8-8-8zm0 0"/><path d="m120 40h8c4.417969 0 8-3.582031 8-8s-3.582031-8-8-8h-8c-4.417969 0-8 3.582031-8 8s3.582031 8 8 8zm0 0"/><path d="m72 80h-40v40h16v-24h24zm0 0"/><path d="m32 360v40h40v-16h-24v-24zm0 0"/><path d="m96 128h16v16h-16zm0 0"/><path d="m128 128h16v16h-16zm0 0"/><path d="m160 128h16v16h-16zm0 0"/><path d="m424 184h-32v-72c0-4.417969-3.582031-8-8-8h-312c-4.417969 0-8 3.582031-8 8v256c0 4.417969 3.582031 8 8 8h312c4.417969 0 8-3.582031 8-8v-24h32c4.417969 0 8-3.582031 8-8v-144c0-4.417969-3.582031-8-8-8zm-8 32h-192v-16h192zm-40-96v32.105469h-296v-32.105469zm0 240h-296v-191.894531h296v15.894531h-160c-4.417969 0-8 3.582031-8 8v72.054688l-53.128906.386718 17.410156-17.417968-11.3125-11.3125-36.28125 36.289062 36.28125 36.289062 11.3125-11.3125-16.539062-16.535156 52.257812-.386718v55.945312c0 4.417969 3.582031 8 8 8h160zm-152-32v-96h192v96zm0 0"/><path d="m384 272c-5.921875.019531-11.625 2.246094-16 6.238281-9.589844-8.714843-24.363281-8.242187-33.378906 1.0625-9.019532 9.308594-9.019532 24.089844 0 33.398438 9.015625 9.304687 23.789062 9.777343 33.378906 1.0625 7.945312 7.222656 19.722656 8.285156 28.835938 2.605469 9.113281-5.679688 13.34375-16.722657 10.359374-27.039063-2.984374-10.3125-12.457031-17.390625-23.195312-17.328125zm-32 32c-4.417969 0-8-3.582031-8-8s3.582031-8 8-8 8 3.582031 8 8-3.582031 8-8 8zm32 0c-4.417969 0-8-3.582031-8-8s3.582031-8 8-8 8 3.582031 8 8-3.582031 8-8 8zm0 0"/></g></svg>