<svg height="480pt" viewBox="0 0 480 480" width="480pt" xmlns="http://www.w3.org/2000/svg"><path d="m280 40c0-17.671875-14.328125-32-32-32h-208c-17.671875 0-32 14.328125-32 32v16h272zm-128-8" fill="#9bc9ff"/><path d="m40 472h208c17.671875 0 32-14.328125 32-32v-16h-272v16c0 17.671875 14.328125 32 32 32zm120-24" fill="#9bc9ff"/><path d="m312 248v48h160v-64h-160zm0 0" fill="#9bc9ff"/><path d="m312 200h160v32h-160zm0 0" fill="#9bc9ff"/><path d="m392 376 80-48h-160zm0 0" fill="#9bc9ff"/><path d="m312 328v96h160v-96l-80 48zm0 0" fill="#9bc9ff"/><path d="m328 104c0 35.347656 28.652344 64 64 64s64-28.652344 64-64-28.652344-64-64-64-64 28.652344-64 64zm80-16c0-8.835938-7.164062-16-16-16s-16 7.164062-16 16 7.164062 16 16 16 16 7.164062 16 16-7.164062 16-16 16-16-7.164062-16-16c0 8.835938 7.164062 16 16 16s16-7.164062 16-16-7.164062-16-16-16-16-7.164062-16-16 7.164062-16 16-16 16 7.164062 16 16zm0 0" fill="#9bc9ff"/><path d="m168 240c0-35.347656-28.652344-64-64-64s-64 28.652344-64 64 28.652344 64 64 64 64-28.652344 64-64zm-94.625 1.375 22.625 22.625 39.601562-39.601562-39.601562 39.601562zm0 0" fill="#9bc9ff"/><g fill="#1e81ce"><path d="m280 400.136719c-4.417969 0-8 3.582031-8 8v7.863281h-256v-352h256v7.359375c0 4.417969 3.582031 8 8 8s8-3.582031 8-8v-31.359375c-.027344-22.082031-17.917969-39.9726562-40-40h-208c-22.082031.0273438-39.9726562 17.917969-40 40v400c.0273438 22.082031 17.917969 39.972656 40 40h208c22.082031-.027344 39.972656-17.917969 40-40v-31.863281c0-4.417969-3.582031-8-8-8zm-240-384.136719h208c13.253906 0 24 10.746094 24 24v8h-256v-8c0-13.253906 10.746094-24 24-24zm208 448h-208c-13.253906 0-24-10.746094-24-24v-8h256v8c0 13.253906-10.746094 24-24 24zm0 0"/><path d="m152 40h16c4.417969 0 8-3.582031 8-8s-3.582031-8-8-8h-16c-4.417969 0-8 3.582031-8 8s3.582031 8 8 8zm0 0"/><path d="m160 440h-32c-4.417969 0-8 3.582031-8 8s3.582031 8 8 8h32c4.417969 0 8-3.582031 8-8s-3.582031-8-8-8zm0 0"/><path d="m120 40h8c4.417969 0 8-3.582031 8-8s-3.582031-8-8-8h-8c-4.417969 0-8 3.582031-8 8s3.582031 8 8 8zm0 0"/><path d="m48 120v-24h24v-16h-40v40zm0 0"/><path d="m32 360v40h40v-16h-24v-24zm0 0"/><path d="m472 192h-160c-4.417969 0-8 3.582031-8 8v40h-128c-.015625-5.386719-.640625-10.753906-1.855469-16h65.855469c4.417969 0 8-3.582031 8-8v-104h72.472656c4.246094 37.972656 37.410156 66.015625 75.558594 63.886719 38.148438-2.125 67.996094-33.679688 67.996094-71.886719s-29.847656-69.761719-67.996094-71.886719c-38.148438-2.128906-71.3125 25.914063-75.558594 63.886719h-80.472656c-4.417969 0-8 3.582031-8 8v104h-63.601562c-14.066407-28.417969-45.054688-44.296875-76.335938-39.113281-31.28125 5.183593-55.496094 30.210937-59.644531 61.644531-4.152344 31.433594 12.742187 61.886719 41.605469 75.007812 28.863281 13.125 62.914062 5.832032 83.871093-17.964843.679688.238281 1.386719.382812 2.105469.425781h72v88c0 4.417969 3.582031 8 8 8h64v40c0 4.417969 3.582031 8 8 8h160c4.417969 0 8-3.582031 8-8v-96c0-.191406-.097656-.351562-.105469-.535156-.050781-.542969-.160156-1.078125-.320312-1.601563-.121094-.519531-.300781-1.027343-.535157-1.511719-.046874-.175781-.109374-.34375-.183593-.511718-.191407-.238282-.402344-.46875-.625-.679688-.320313-.441406-.6875-.851562-1.09375-1.214844-.390625-.308593-.8125-.578124-1.257813-.800781-.429687-.253906-.886718-.46875-1.359375-.640625-.519531-.160156-1.054687-.269531-1.597656-.320312-.304687-.082032-.613281-.144532-.921875-.183594h-160c-.308594.042969-.613281.101562-.910156.183594-.546875.050781-1.082032.160156-1.601563.328125-.472656.160156-.925781.371093-1.351562.632812-.449219.238281-.875.519531-1.265625.847657-.40625.359374-.773438.761718-1.09375 1.199218-.222656.21875-.429688.449219-.625.6875-.070313.167969-.132813.339844-.183594.511719-.234375.484375-.414062.992187-.535156 1.511719-.160156.523437-.269532 1.058594-.320313 1.601562 0 .183594-.105469.34375-.105469.535156v40h-56.007812v-88.039062c0-4.417969-3.582031-8-8-8h-71.601562c2.546874-5.085938 4.476562-10.457031 5.746093-16h129.855469v40c0 4.417969 3.582031 8 8 8h160c4.417969 0 8-3.582031 8-8v-96c0-4.417969-3.582031-8-8-8zm-80-144c30.929688 0 56 25.070312 56 56s-25.070312 56-56 56-56-25.070312-56-56c.039062-30.910156 25.089844-55.960938 56-56zm-72 368v-73.871094l67.878906 40.726563c2.535156 1.523437 5.707032 1.523437 8.242188 0l67.878906-40.726563v73.871094zm20.878906-80h102.242188l-51.121094 30.671875zm-236.878906-40c-30.929688 0-56-25.070312-56-56s25.070312-56 56-56 56 25.070312 56 56c-.039062 30.910156-25.089844 55.960938-56 56zm360-88v16h-144v-16zm-144 80v-48h144v48zm0 0"/><path d="m392 128c-4.417969 0-8-3.582031-8-8s-3.582031-8-8-8-8 3.582031-8 8c.042969 10.132812 6.445312 19.148438 16 22.527344v9.472656h16v-9.472656c11.011719-3.878906 17.621094-15.132813 15.644531-26.640625-1.980469-11.507813-11.96875-19.910157-23.644531-19.886719-4.417969 0-8-3.582031-8-8s3.582031-8 8-8 8 3.582031 8 8 3.582031 8 8 8 8-3.582031 8-8c-.042969-10.132812-6.445312-19.148438-16-22.527344v-9.472656h-16v9.472656c-11.011719 3.878906-17.621094 15.132813-15.644531 26.640625 1.980469 11.507813 11.96875 19.910157 23.644531 19.886719 4.417969 0 8 3.582031 8 8s-3.582031 8-8 8zm0 0"/><path d="m141.257812 218.742188c-3.125-3.121094-8.191406-3.121094-11.3125 0l-33.945312 33.945312-16.96875-16.96875c-2.007812-2.078125-4.980469-2.914062-7.78125-2.179688-2.796875.730469-4.980469 2.914063-5.710938 5.710938-.734374 2.800781.101563 5.773438 2.179688 7.78125l22.625 22.625c3.125 3.121094 8.1875 3.121094 11.3125 0l39.601562-39.601562c3.121094-3.121094 3.121094-8.1875 0-11.3125zm0 0"/></g></svg>