<svg height="480pt" viewBox="0 0 480 479" width="480pt" xmlns="http://www.w3.org/2000/svg"><path d="m40 200.488281c-17.671875 0-32 14.324219-32 32v208c0 17.671875 14.328125 32 32 32h16v-272zm-8 128" fill="#9bc9ff"/><path d="m440 200.488281h-16v272h16c17.671875 0 32-14.328125 32-32v-208c0-17.675781-14.328125-32-32-32zm8 152" fill="#9bc9ff"/><path d="m368 88.488281h-8v.71875c2.640625-.484375 5.316406-.726562 8-.71875zm0 0" fill="#9bc9ff"/><path d="m144 184.488281c-2.71875 0-29.359375-.160156-32-.480469-33.605469-4.136718-58.171875-33.734374-56.054688-67.527343 2.121094-33.792969 30.195313-60.085938 64.054688-59.992188 4.734375.007813 9.453125.519531 14.078125 1.519531 11.054687-26.871093 35.820313-45.628906 64.683594-48.984374 28.859375-3.359376 57.269531 9.207031 74.199219 32.824218 17.1875-11.449218 39.285156-12.503906 57.488281-2.75s29.5625 28.738282 29.550781 49.390625v.71875c2.640625-.484375 5.316406-.726562 8-.71875 26.507812 0 48 21.488281 48 48 0 26.507813-21.492188 48-48 48h-33.40625" fill="#9bc9ff"/><g fill="#1e81ce"><path d="m440 192.488281h-31.863281c-4.417969 0-8 3.582031-8 8s3.582031 8 8 8h7.863281v256h-352v-256h15.359375c4.417969 0 8-3.582031 8-8s-3.582031-8-8-8h-39.359375c-22.082031.027344-39.9726562 17.917969-40 40v208c.0273438 22.078125 17.917969 39.972657 40 40h400c22.082031-.027343 39.972656-17.921875 40-40v-208c-.027344-22.082031-17.917969-39.972656-40-40zm-424 248v-208c0-13.253906 10.746094-24 24-24h8v256h-8c-13.253906 0-24-10.746093-24-24zm448 0c0 13.253907-10.746094 24-24 24h-8v-256h8c13.253906 0 24 10.746094 24 24zm0 0"/><path d="m32 304.488281c-4.417969 0-8 3.582031-8 8v16c0 4.417969 3.582031 8 8 8s8-3.582031 8-8v-16c0-4.417969-3.582031-8-8-8zm0 0"/><path d="m448 312.488281c-4.417969 0-8 3.582031-8 8v32c0 4.417969 3.582031 8 8 8s8-3.582031 8-8v-32c0-4.417969-3.582031-8-8-8zm0 0"/><path d="m32 344.488281c-4.417969 0-8 3.582031-8 8v8c0 4.417969 3.582031 8 8 8s8-3.582031 8-8v-8c0-4.417969-3.582031-8-8-8zm0 0"/><path d="m80 408.488281v40h40v-16h-24v-24zm0 0"/><path d="m360 432.488281v16h40v-40h-16v24zm0 0"/><path d="m343.542969 344.488281h-31.542969v-184h-16l-.238281 200h16.695312l-24.457031 34.230469-24.457031-34.230469h16.625l-.167969-200h-16v184h-31.542969l55.542969 77.765625zm0 0"/><path d="m216 344.488281v-184h31.542969l-55.542969-77.769531-55.542969 77.769531h31.542969v184h16l.167969-200h-16.625l24.457031-34.234375 24.457031 34.234375h-16.695312l.238281 200zm0 0"/><path d="m111.039062 191.953125c3.546876.421875 32.671876.535156 32.960938.535156 4.417969 0 8-3.582031 8-8s-3.582031-8-8-8c-4.230469 0-28.398438-.183593-31.015625-.417969-29.421875-3.605468-50.941406-29.511718-49.078125-59.097656 1.859375-29.585937 26.449219-52.59375 56.09375-52.484375 4.167969.011719 8.324219.460938 12.398438 1.335938 3.792968.808593 7.617187-1.210938 9.082031-4.800781 9.953125-24.175782 32.242187-41.050782 58.210937-44.066407 25.972656-3.015625 51.535156 8.296875 66.765625 29.546875 2.515625 3.503906 7.355469 4.382813 10.941407 1.984375 14.847656-9.886719 33.949218-10.726562 49.605468-2.179687 15.65625 8.542968 25.28125 25.066406 24.996094 42.898437 0 2.378907 1.058594 4.632813 2.886719 6.152344.839843.675781 1.808593 1.171875 2.847656 1.457031.289063.078125.578125.09375.875.152344.453125.117188.921875.199219 1.390625.238281.496094 0 .992188-.046875 1.480469-.136719 2.148437-.398437 4.332031-.59375 6.519531-.582031 22.089844 0 40 17.90625 40 40 0 22.089844-17.910156 40-40 40h-33.40625c-4.421875 0-8 3.582031-8 8s3.578125 8 8 8h33.40625c30.929688 0 56-25.074219 56-56 0-30.929687-25.070312-56-56-56h-.503906c-2.621094-20.671875-15.132813-38.777343-33.539063-48.535156-18.410156-9.761719-40.417969-9.960937-58.996093-.53125-19.132813-22.460937-48.253907-33.835937-77.546876-30.28125-29.292968 3.554687-54.847656 21.558594-68.054687 47.945313-3.101563-.398438-6.230469-.597657-9.359375-.597657-38.097656-.101562-69.679688 29.488281-72.054688 67.511719-2.371093 38.023438 25.28125 71.3125 63.09375 75.953125zm0 0"/></g></svg>