<svg height="480pt" viewBox="-31 0 479 480" width="480pt" xmlns="http://www.w3.org/2000/svg"><path d="m8.5 56h272v-16c0-17.671875-14.328125-32-32-32h-208c-17.671875 0-32 14.328125-32 32zm120-24" fill="#9bc9ff"/><path d="m40.5 472h208c17.671875 0 32-14.328125 32-32v-16h-272v16c0 17.671875 14.328125 32 32 32zm120-24" fill="#9bc9ff"/><path d="m408.5 152v-8l-32-32h-8v40zm0 0" fill="#9bc9ff"/><path d="m408.5 152h-40v-40h-56v128h96zm-72 24" fill="#9bc9ff"/><path d="m192.5 280h40v-8l-32-32h-8zm0 0" fill="#9bc9ff"/><path d="m192.5 240h-56v128h96v-88h-40zm16 64" fill="#9bc9ff"/><g fill="#1e81ce"><path d="m280.5 384.136719c-4.417969 0-8 3.582031-8 8v23.863281h-256v-352h256v23.359375c0 4.417969 3.582031 8 8 8s8-3.582031 8-8v-47.359375c-.027344-22.082031-17.917969-39.9726562-40-40h-208c-22.082031.0273438-39.972656 17.917969-40 40v400c.027344 22.082031 17.917969 39.972656 40 40h208c22.082031-.027344 39.972656-17.917969 40-40v-47.863281c0-4.417969-3.582031-8-8-8zm-240-368.136719h208c13.253906 0 24 10.746094 24 24v8h-256v-8c0-13.253906 10.746094-24 24-24zm208 448h-208c-13.253906 0-24-10.746094-24-24v-8h256v8c0 13.253906-10.746094 24-24 24zm0 0"/><path d="m160.5 440h-32c-4.417969 0-8 3.582031-8 8s3.582031 8 8 8h32c4.417969 0 8-3.582031 8-8s-3.582031-8-8-8zm0 0"/><path d="m120.5 40h8c4.417969 0 8-3.582031 8-8s-3.582031-8-8-8h-8c-4.417969 0-8 3.582031-8 8s3.582031 8 8 8zm0 0"/><path d="m72.5 80h-40v40h16v-24h24zm0 0"/><path d="m32.5 360v40h40v-16h-24v-24zm0 0"/><path d="m379.8125 104h-75.3125v144h112v-107.3125zm-3.3125 19.3125 20.6875 20.6875h-20.6875zm-56 108.6875v-112h40v40h40v72zm0 0"/><path d="m128.5 232v144h112v-107.3125l-36.6875-36.6875zm72 19.3125 20.6875 20.6875h-20.6875zm24 92.6875v16h-80v-112h40v40h40v40h-48v16zm0 0"/><path d="m320.101562 283.710938-11.3125-11.3125-39.601562 39.601562 39.601562 39.601562 11.3125-11.3125-20.289062-20.289062h92.6875v-16h-92.6875zm0 0"/><path d="m283.8125 160-39.601562-39.601562-11.3125 11.3125 20.289062 20.289062h-92.6875v16h92.6875l-20.289062 20.289062 11.3125 11.3125zm0 0"/><path d="m160.5 296h48v16h-48zm0 0"/><path d="m336.5 168h48v16h-48zm0 0"/><path d="m336.5 200h48v16h-48zm0 0"/><path d="m152.5 40h16c4.417969 0 8-3.582031 8-8s-3.582031-8-8-8h-16c-4.417969 0-8 3.582031-8 8s3.582031 8 8 8zm0 0"/></g></svg>