<svg height="486pt" viewBox="-3 0 486 486.624" width="486pt" xmlns="http://www.w3.org/2000/svg"><g fill="#9bc9ff"><path d="m56.3125 107.3125h-16c-17.671875 0-32 14.328125-32 32v208c0 17.671875 14.328125 32 32 32h16zm-24 128"/><path d="m472.3125 347.3125v-208c0-17.671875-14.328125-32-32-32h-16v272h16c17.671875 0 32-14.328125 32-32zm-24-88"/><path d="m280.3125 243.3125h40c.027344-18.796875-6.605469-36.992188-18.71875-51.359375l-1.683594-1.921875c-8.210937 4.382812-16.984375 7.613281-26.078125 9.601562 4.410157 14.136719 6.597657 28.871094 6.480469 43.679688zm0 0"/><path d="m200.3125 243.3125h-40c-.027344 18.792969 6.605469 36.992188 18.71875 51.359375l1.679688 1.921875c8.210937-4.382812 16.988281-7.613281 26.082031-9.601562-4.410157-14.136719-6.597657-28.871094-6.480469-43.679688zm0 0"/><path d="m206.792969 199.632812c-9.09375-1.988281-17.871094-5.21875-26.082031-9.601562l-1.679688 1.921875c-12.113281 14.367187-18.746094 32.5625-18.71875 51.359375h40c-.117188-14.808594 2.070312-29.542969 6.480469-43.679688zm0 0"/><path d="m273.832031 286.992188c9.09375 1.988281 17.867188 5.21875 26.078125 9.601562l1.683594-1.921875c12.113281-14.367187 18.746094-32.566406 18.71875-51.359375h-40c.117188 14.808594-2.070312 29.542969-6.480469 43.679688zm0 0"/><path d="m240.3125 283.3125c11.277344-.066406 22.523438 1.167969 33.519531 3.679688 4.410157-14.136719 6.597657-28.871094 6.480469-43.679688h-40zm0 0"/><path d="m240.3125 203.3125c-11.277344.0625-22.527344-1.171875-33.519531-3.679688-4.410157 14.136719-6.597657 28.871094-6.480469 43.679688h40zm0 0"/><path d="m280.3125 243.3125c.117188-14.808594-2.070312-29.542969-6.480469-43.679688-10.996093 2.507813-22.242187 3.742188-33.519531 3.679688v40zm0 0"/><path d="m240.3125 243.3125h-40c-.117188 14.808594 2.070312 29.542969 6.480469 43.679688 10.992187-2.511719 22.242187-3.746094 33.519531-3.679688zm0 0"/><path d="m273.832031 199.632812c9.09375-1.988281 17.867188-5.21875 26.078125-9.601562-14.597656-16.402344-35.328125-26.042969-57.277344-26.640625 13.039063 1.519531 24.398438 15.601563 31.199219 36.242187zm0 0"/><path d="m237.992188 163.390625c-21.949219.597656-42.679688 10.238281-57.28125 26.640625 8.210937 4.382812 16.988281 7.613281 26.082031 9.601562 6.800781-20.640624 18.160156-34.722656 31.199219-36.242187zm0 0"/><path d="m273.832031 199.632812c-6.800781-20.640624-18.160156-34.722656-31.199219-36.242187-.800781 0-1.519531-.078125-2.320312-.078125v40c11.277344.0625 22.523438-1.171875 33.519531-3.679688zm0 0"/><path d="m206.792969 199.632812c10.992187 2.507813 22.242187 3.742188 33.519531 3.679688v-40c-.800781 0-1.519531.078125-2.320312.078125-13.039063 1.519531-24.398438 15.601563-31.199219 36.242187zm0 0"/><path d="m206.792969 286.992188c-9.09375 1.988281-17.871094 5.21875-26.082031 9.601562 14.601562 16.402344 35.332031 26.039062 57.28125 26.636719-13.039063-1.519531-24.398438-15.597657-31.199219-36.238281zm0 0"/><path d="m242.632812 323.230469c21.949219-.597657 42.679688-10.234375 57.277344-26.636719-8.210937-4.382812-16.984375-7.613281-26.078125-9.601562-6.800781 20.640624-18.160156 34.71875-31.199219 36.238281zm0 0"/><path d="m206.792969 286.992188c6.800781 20.640624 18.160156 34.71875 31.199219 36.238281.800781 0 1.519531.082031 2.320312.082031v-40c-11.277344-.066406-22.527344 1.167969-33.519531 3.679688zm0 0"/><path d="m273.832031 286.992188c-10.996093-2.511719-22.242187-3.746094-33.519531-3.679688v40c.800781 0 1.519531-.082031 2.320312-.082031 13.039063-1.519531 24.398438-15.597657 31.199219-36.238281zm0 0"/></g><path d="m128.3125 371.3125h-64v-256h63.359375c4.417969 0 8-3.582031 8-8s-3.582031-8-8-8h-87.359375c-22.082031.027344-39.972656 17.917969-40 40v208c.027344 22.078125 17.917969 39.972656 40 40h88c4.417969 0 8-3.582031 8-8s-3.582031-8-8-8zm-112-24v-208c0-13.253906 10.746094-24 24-24h8v256h-8c-13.253906 0-24-10.746094-24-24zm0 0" fill="#1e81ce"/><path d="m440.3125 99.3125h-87.863281c-4.417969 0-8 3.582031-8 8s3.582031 8 8 8h63.863281v256h-64c-4.417969 0-8 3.582031-8 8s3.582031 8 8 8h88c22.078125-.027344 39.972656-17.921875 40-40v-208c-.027344-22.082031-17.921875-39.972656-40-40zm24 248c0 13.253906-10.746094 24-24 24h-8v-256h8c13.253906 0 24 10.746094 24 24zm0 0" fill="#1e81ce"/><path d="m448.3125 219.3125c-4.417969 0-8 3.582031-8 8v32c0 4.417969 3.582031 8 8 8s8-3.582031 8-8v-32c0-4.417969-3.582031-8-8-8zm0 0" fill="#1e81ce"/><path d="m32.3125 251.3125c-4.417969 0-8 3.582031-8 8v8c0 4.417969 3.582031 8 8 8s8-3.582031 8-8v-8c0-4.417969-3.582031-8-8-8zm0 0" fill="#1e81ce"/><path d="m80.3125 315.3125v40h40v-16h-24v-24zm0 0" fill="#1e81ce"/><path d="m360.3125 355.3125h40v-40h-16v24h-24zm0 0" fill="#1e81ce"/><path d="m120.3125 131.3125h-40v40h16v-24h24zm0 0" fill="#1e81ce"/><path d="m400.3125 171.3125v-40h-40v16h24v24zm0 0" fill="#1e81ce"/><path d="m32.3125 211.3125c-4.417969 0-8 3.582031-8 8v16c0 4.417969 3.582031 8 8 8s8-3.582031 8-8v-16c0-4.417969-3.582031-8-8-8zm0 0" fill="#1e81ce"/><path d="m305.910156 184.71875c-15.925781-17.820312-38.421875-28.390625-62.308594-29.269531h-.089843c-.214844 0-.433594 0-.648438-.050781h-.976562c-1.015625-.050782-2.035157-.050782-3.054688 0h-1.097656c-.214844 0-.414063 0-.628906.050781h-.089844c-2.769531.101562-5.527344.292969-8.253906.664062-17.828125 2.367188-34.503907 10.128907-47.792969 22.246094-2.214844 2.023437-4.324219 4.160156-6.320312 6.402344l-.34375.382812-5.777344 7.28125c-21.667969 30.453125-21.667969 71.289063 0 101.742188l6.167968 7.71875c15.929688 17.824219 38.425782 28.394531 62.3125 29.273437h.105469c.214844 0 .429688 0 .648438.046875h.972656c.511719 0 1.027344.050781 1.601563.050781.398437 0 .886718 0 1.601562-.050781h.972656c.21875 0 .417969-.039062.632813-.046875h.089843c2.765626-.105468 5.527344-.296875 8.253907-.664062 17.828125-2.367188 34.5-10.128906 47.785156-22.25 2.21875-2.019532 4.332031-4.15625 6.328125-6.398438l.34375-.382812 5.777344-7.28125c21.667968-30.453125 21.667968-71.289063 0-101.742188zm-21.75 115.585938c-.59375.457031-1.183594.910156-1.800781 1.351562-1.351563.984375-2.75 1.902344-4.167969 2.785156-.480468.292969-.945312.613282-1.429687.902344-.9375.550781-1.921875 1.015625-2.882813 1.519531 1.839844-3.324219 3.472656-6.761719 4.890625-10.289062 2.398438.730469 4.796875 1.503906 7.054688 2.402343-.550781.40625-1.089844.886719-1.664063 1.328126zm-81.878906 4c-1.335938-.800782-2.648438-1.679688-3.921875-2.601563-.671875-.480469-1.328125-.984375-1.984375-1.496094s-1.054688-.863281-1.597656-1.296875c2.253906-.855468 4.613281-1.636718 7.0625-2.398437 1.410156 3.523437 3.042968 6.957031 4.878906 10.28125-.933594-.496094-1.886719-.945313-2.796875-1.480469-.546875-.265625-1.089844-.632812-1.640625-.984375zm-5.816406-118.007813c.589844-.457031 1.183594-.914063 1.800781-1.351563 1.351563-.984374 2.75-1.90625 4.167969-2.785156.476562-.296875.941406-.617187 1.429687-.902344.9375-.554687 1.921875-1.019531 2.878907-1.523437-1.835938 3.328125-3.46875 6.761719-4.886719 10.289063-2.398438-.726563-4.800781-1.503907-7.054688-2.359376.550781-.425781 1.085938-.902343 1.664063-1.34375zm81.878906-4c1.335938.800781 2.648438 1.679687 3.921875 2.597656.671875.480469 1.328125.984375 1.980469 1.496094.65625.511719 1.058594.867187 1.601562 1.296875-2.253906.855469-4.617187 1.601562-7.0625 2.359375-1.414062-3.523437-3.042968-6.957031-4.882812-10.277344.9375.496094 1.890625.941407 2.800781 1.476563.542969.328125 1.089844.699218 1.640625 1.050781zm-30.03125-8.34375c6.566406 5.078125 11.609375 11.867187 14.574219 19.621094-4.828125.753906-9.691407 1.261719-14.574219 1.515625zm-16 21.136719c-4.882812-.257813-9.746094-.761719-14.578125-1.515625 2.972656-7.75 8.015625-14.539063 14.578125-19.621094zm-19.800781 13.863281c6.546875 1.136719 13.160156 1.855469 19.800781 2.152344v24.207031h-23.710938c.433594-8.894531 1.746094-17.722656 3.910157-26.359375zm19.800781 42.359375v24.230469c-6.636719.296875-13.246094 1.015625-19.792969 2.144531-2.171875-8.648438-3.484375-17.492188-3.917969-26.398438zm0 40.222656v21.136719c-6.566406-5.082031-11.605469-11.871094-14.578125-19.625 4.832031-.753906 9.695313-1.257813 14.578125-1.511719zm16 0c4.878906.253906 9.746094.761719 14.574219 1.511719-2.972657 7.753906-8.011719 14.539063-14.574219 19.625zm19.800781-13.824218c-6.550781-1.136719-13.164062-1.859376-19.800781-2.167969v-24.230469h23.710938c-.433594 8.90625-1.746094 17.75-3.910157 26.398438zm-19.800781-42.398438v-24.207031c6.640625-.292969 13.253906-1.015625 19.800781-2.160157 2.164063 8.648438 3.472657 17.492188 3.910157 26.398438zm-51.375-30.015625c-2.4375 9.835937-3.890625 19.890625-4.335938 30.015625h-23.792968c1.425781-12.804688 6.28125-24.984375 14.054687-35.257812 4.566407 2.070312 9.265625 3.820312 14.074219 5.242187zm-4.335938 46.015625c.445313 10.125 1.898438 20.183594 4.335938 30.023438-4.804688 1.417968-9.503906 3.164062-14.066406 5.222656-7.773438-10.269532-12.628906-22.445313-14.0625-35.246094zm91.085938 30.015625c2.4375-9.835937 3.890625-19.890625 4.335938-30.015625h23.785156c-1.417969 12.804688-6.273438 24.984375-14.046875 35.253906-4.566407-2.066406-9.269531-3.820312-14.074219-5.238281zm4.335938-46.015625c-.449219-10.128906-1.898438-20.183594-4.335938-30.023438 4.800781-1.417968 9.5-3.164062 14.066406-5.226562 7.773438 10.269531 12.628906 22.449219 14.054688 35.25zm0 0" fill="#1e81ce"/><path d="m280.3125 30.625v108.6875h16v-108.6875l20.289062 20.277344 11.308594-11.308594-39.597656-39.59375-39.601562 39.59375 11.3125 11.308594zm0 0" fill="#1e81ce"/><path d="m184.3125 30.625v108.6875h16v-108.6875l20.289062 20.277344 11.308594-11.308594-39.597656-39.59375-39.601562 39.59375 11.3125 11.308594zm0 0" fill="#1e81ce"/><path d="m200.3125 456v-108.6875h-16v108.6875l-20.289062-20.28125-11.3125 11.3125 39.601562 39.59375 39.597656-39.59375-11.308594-11.3125zm0 0" fill="#1e81ce"/><path d="m296.3125 456v-108.6875h-16v108.6875l-20.289062-20.28125-11.3125 11.3125 39.601562 39.59375 39.597656-39.59375-11.308594-11.3125zm0 0" fill="#1e81ce"/></svg>