<svg height="480pt" viewBox="0 0 480 480" width="480pt" xmlns="http://www.w3.org/2000/svg"><path d="m440 280c17.671875 0 32-14.328125 32-32v-208c0-17.671875-14.328125-32-32-32h-16v272zm8-128" fill="#9bc9ff"/><path d="m56 8h-16c-17.671875 0-32 14.328125-32 32v208c0 17.671875 14.328125 32 32 32h16zm-24 152" fill="#9bc9ff"/><path d="m200 472h144v-48h-144zm120-24" fill="#9bc9ff"/><path d="m160 216v-104h-32l112-80s120 80 112 80h-32v104zm0 0" fill="#9bc9ff"/><g fill="#1e81ce"><path d="m440 0h-400c-22.082031.0273438-39.9726562 17.917969-40 40v208c.0273438 22.082031 17.917969 39.972656 40 40h119.863281c4.417969 0 8-3.582031 8-8s-3.582031-8-8-8h-95.863281v-256h352v256h-31.359375c-4.417969 0-8 3.582031-8 8s3.582031 8 8 8h55.359375c22.082031-.027344 39.972656-17.917969 40-40v-208c-.027344-22.082031-17.917969-39.9726562-40-40zm-392 272h-8c-13.253906 0-24-10.746094-24-24v-208c0-13.253906 10.746094-24 24-24h8zm416-24c0 13.253906-10.746094 24-24 24h-8v-256h8c13.253906 0 24 10.746094 24 24zm0 0"/><path d="m448 144c-4.417969 0-8 3.582031-8 8v16c0 4.417969 3.582031 8 8 8s8-3.582031 8-8v-16c0-4.417969-3.582031-8-8-8zm0 0"/><path d="m32 120c-4.417969 0-8 3.582031-8 8v32c0 4.417969 3.582031 8 8 8s8-3.582031 8-8v-32c0-4.417969-3.582031-8-8-8zm0 0"/><path d="m448 112c-4.417969 0-8 3.582031-8 8v8c0 4.417969 3.582031 8 8 8s8-3.582031 8-8v-8c0-4.417969-3.582031-8-8-8zm0 0"/><path d="m400 72v-40h-40v16h24v24zm0 0"/><path d="m80 32v40h16v-24h24v-16zm0 0"/><path d="m327.199219 257.679688c-1.0625-4.007813-3.191407-7.648438-6.160157-10.542969-7.691406-7.476563-19.339843-9.117188-28.800781-4.058594-.914062-1.429687-1.988281-2.75-3.199219-3.941406-6.574218-6.519531-16.273437-8.753907-25.039062-5.769531v-57.367188c.046875-6.335938-2.476562-12.421875-6.992188-16.863281-4.984374-5.097657-11.996093-7.6875-19.097656-7.046875-12.601562 1.390625-22.085937 12.128906-21.910156 24.804687v95.105469h-8c-13.253906 0-24 10.746094-24 24v42.726562c.027344 26.890626 6.484375 53.386719 18.832031 77.273438h-2.832031c-4.417969 0-8 3.582031-8 8v48c0 4.417969 3.582031 8 8 8h144c4.417969 0 8-3.582031 8-8v-48c0-4.417969-3.582031-8-8-8h-2.953125l.65625-1.296875c12-23.617187 18.265625-49.730469 18.296875-76.222656v-58.480469c.046875-6.335938-2.476562-12.421875-6.992188-16.863281-6.804687-6.691407-16.875-8.820313-25.808593-5.457031zm8.800781 206.320312h-128v-32h128zm8-125.519531c-.027344 23.96875-5.695312 47.597656-16.550781 68.96875l-4.351563 8.550781h-102.242187l-3.726563-7.199219c-11.226562-21.652343-17.101562-45.683593-17.128906-70.074219v-42.726562c0-4.417969 3.582031-8 8-8h8v40c0 4.417969 3.582031 8 8 8s8-3.582031 8-8v-151.105469c-.179688-4.371093 2.9375-8.191406 7.257812-8.894531 2.402344-.238281 4.777344.644531 6.4375 2.398438 1.503907 1.472656 2.339844 3.496093 2.304688 5.601562v104c0 4.417969 3.582031 8 8 8s8-3.582031 8-8v-24c0-4.417969 3.582031-8 8-8 2.15625-.007812 4.21875.878906 5.695312 2.449219 1.492188 1.457031 2.324219 3.464843 2.304688 5.550781v40c0 4.417969 3.582031 8 8 8s8-3.582031 8-8v-32c0-4.417969 3.582031-8 8-8 2.15625-.007812 4.21875.878906 5.695312 2.449219 1.492188 1.457031 2.324219 3.464843 2.304688 5.550781v48c0 4.417969 3.582031 8 8 8s8-3.582031 8-8v-32c0-4.417969 3.582031-8 8-8 2.15625-.007812 4.21875.878906 5.695312 2.449219 1.492188 1.457031 2.324219 3.464843 2.304688 5.550781zm0 0"/><path d="m320 440h-16c-4.417969 0-8 3.582031-8 8s3.582031 8 8 8h16c4.417969 0 8-3.582031 8-8s-3.582031-8-8-8zm0 0"/><path d="m356.648438 105.488281-112-80c-2.78125-1.984375-6.515626-1.984375-9.296876 0l-112 80c-2.832031 2.019531-4.03125 5.640625-2.972656 8.953125 1.0625 3.3125 4.140625 5.558594 7.621094 5.558594h24v96c0 4.417969 3.582031 8 8 8h40.503906c4.417969 0 8-3.582031 8-8s-3.582031-8-8-8h-32.503906v-96c0-4.417969-3.582031-8-8-8h-7.03125l87.03125-62.167969 87.03125 62.167969h-7.03125c-4.417969 0-8 3.582031-8 8v96h-32.671875c-4.417969 0-8 3.582031-8 8s3.582031 8 8 8h40.671875c4.417969 0 8-3.582031 8-8v-96h24c3.480469 0 6.558594-2.246094 7.621094-5.558594 1.058594-3.3125-.140625-6.933594-2.972656-8.953125zm0 0"/><path d="m277.71875 162.664062c1.476562 4.167969 6.046875 6.347657 10.214844 4.875 4.164062-1.472656 6.347656-6.042968 4.875-10.210937-7.910156-22.378906-29.066406-37.339844-52.800782-37.339844-23.734374 0-44.890624 14.960938-52.800781 37.339844-1.472656 4.167969.710938 8.738281 4.878907 10.210937 4.164062 1.472657 8.738281-.707031 10.210937-4.875 5.644531-15.992187 20.757813-26.6875 37.71875-26.6875s32.078125 10.695313 37.71875 26.6875zm0 0"/></g></svg>