<svg height="480pt" viewBox="0 0 480 480" width="480pt" xmlns="http://www.w3.org/2000/svg"><path d="m344 8h-208c-17.671875 0-32 14.328125-32 32v16h272v-16c0-17.671875-14.328125-32-32-32zm-96 24" fill="#9bc9ff"/><path d="m104 440c0 17.671875 14.328125 32 32 32h208c17.671875 0 32-14.328125 32-32v-16h-272zm152 8" fill="#9bc9ff"/><path d="m456 120h-144c-8.835938 0-16 7.164062-16 16v96c0 8.835938 7.164062 16 16 16v56l48-56h96c8.835938 0 16-7.164062 16-16v-96c0-8.835938-7.164062-16-16-16zm-40 64" fill="#9bc9ff"/><path d="m184 360h64l-64-48v-48c0-8.835938-7.164062-16-16-16h-144c-8.835938 0-16 7.164062-16 16v96c0 8.835938 7.164062 16 16 16h144c8.835938 0 16-7.164062 16-16zm-56-48" fill="#9bc9ff"/><g fill="#1e81ce"><path d="m104 225.3125c4.417969 0 8-3.582031 8-8v-153.3125h256v23.359375c0 4.417969 3.582031 8 8 8s8-3.582031 8-8v-47.359375c-.027344-22.082031-17.917969-39.9726562-40-40h-208c-22.082031.0273438-39.972656 17.917969-40 40v177.3125c0 4.417969 3.582031 8 8 8zm32-209.3125h208c13.253906 0 24 10.746094 24 24v8h-256v-8c0-13.253906 10.746094-24 24-24zm0 0"/><path d="m376 272.136719c-4.417969 0-8 3.582031-8 8v135.863281h-256v-14.585938c0-4.417968-3.582031-8-8-8s-8 3.582032-8 8v38.585938c.027344 22.082031 17.917969 39.972656 40 40h208c22.082031-.027344 39.972656-17.917969 40-40v-159.863281c0-4.417969-3.582031-8-8-8zm-32 191.863281h-208c-13.253906 0-24-10.746094-24-24v-8h256v8c0 13.253906-10.746094 24-24 24zm0 0"/><path d="m248 40h16c4.417969 0 8-3.582031 8-8s-3.582031-8-8-8h-16c-4.417969 0-8 3.582031-8 8s3.582031 8 8 8zm0 0"/><path d="m256 440h-32c-4.417969 0-8 3.582031-8 8s3.582031 8 8 8h32c4.417969 0 8-3.582031 8-8s-3.582031-8-8-8zm0 0"/><path d="m216 40h8c4.417969 0 8-3.582031 8-8s-3.582031-8-8-8h-8c-4.417969 0-8 3.582031-8 8s3.582031 8 8 8zm0 0"/><path d="m144 120v-24h24v-16h-40v40zm0 0"/><path d="m336 360v24h-24v16h40v-40zm0 0"/><path d="m456 112h-144c-13.253906 0-24 10.746094-24 24v96c.011719 10.167969 6.417969 19.230469 16 22.632812v49.367188c0 3.347656 2.085938 6.34375 5.222656 7.503906.890625.324219 1.832032.492188 2.777344.496094 2.335938-.003906 4.554688-1.023438 6.070312-2.800781l45.609376-53.199219h92.320312c13.253906 0 24-10.746094 24-24v-96c0-13.253906-10.746094-24-24-24zm8 120c0 4.417969-3.582031 8-8 8h-96c-2.335938.003906-4.554688 1.023438-6.070312 2.800781l-33.929688 39.597657v-34.398438c0-4.417969-3.582031-8-8-8s-8-3.582031-8-8v-96c0-4.417969 3.582031-8 8-8h144c4.417969 0 8 3.582031 8 8zm0 0"/><path d="m190.632812 368h57.367188c3.445312 0 6.5-2.203125 7.589844-5.46875 1.089844-3.269531-.035156-6.863281-2.789063-8.929688l-60.800781-45.601562v-44c0-13.253906-10.746094-24-24-24h-144c-13.253906 0-24 10.746094-24 24v96c0 13.253906 10.746094 24 24 24h144c10.167969-.011719 19.230469-6.417969 22.632812-16zm-174.632812-8v-96c0-4.417969 3.582031-8 8-8h144c4.417969 0 8 3.582031 8 8v48c0 2.519531 1.1875 4.890625 3.199219 6.398438l44.800781 33.601562h-40c-4.417969 0-8 3.582031-8 8s-3.582031 8-8 8h-144c-4.417969 0-8-3.582031-8-8zm0 0"/><path d="m352 176h-16c-4.417969 0-8 3.582031-8 8s3.582031 8 8 8h16c4.417969 0 8-3.582031 8-8s-3.582031-8-8-8zm0 0"/><path d="m392 176h-16c-4.417969 0-8 3.582031-8 8s3.582031 8 8 8h16c4.417969 0 8-3.582031 8-8s-3.582031-8-8-8zm0 0"/><path d="m432 176h-16c-4.417969 0-8 3.582031-8 8s3.582031 8 8 8h16c4.417969 0 8-3.582031 8-8s-3.582031-8-8-8zm0 0"/><path d="m64 304h-16c-4.417969 0-8 3.582031-8 8s3.582031 8 8 8h16c4.417969 0 8-3.582031 8-8s-3.582031-8-8-8zm0 0"/><path d="m104 304h-16c-4.417969 0-8 3.582031-8 8s3.582031 8 8 8h16c4.417969 0 8-3.582031 8-8s-3.582031-8-8-8zm0 0"/><path d="m144 304h-16c-4.417969 0-8 3.582031-8 8s3.582031 8 8 8h16c4.417969 0 8-3.582031 8-8s-3.582031-8-8-8zm0 0"/></g></svg>