<svg height="480pt" viewBox="0 0 480 480" width="480pt" xmlns="http://www.w3.org/2000/svg"><path d="m88 96h384v40h-384zm0 0" fill="#9bc9ff"/><path d="m280 40c0-17.671875-14.328125-32-32-32h-208c-17.671875 0-32 14.328125-32 32v16h272zm-128-8" fill="#9bc9ff"/><path d="m456 424h-144v48h144zm-40 24" fill="#9bc9ff"/><path d="m264 190.054688v67.890624l33.945312-33.945312zm0 0" fill="#9bc9ff"/><path d="m152 312c4.417969 0 8-3.582031 8-8h-16c0 4.417969 3.582031 8 8 8zm0 0" fill="#9bc9ff"/><path d="m152 296c-4.417969 0-8 3.582031-8 8h16c0-4.417969-3.582031-8-8-8zm0 0" fill="#9bc9ff"/><path d="m472 136h-384v216h216.617188c-.359376-4.40625-.617188-8.800781-.617188-13.273438v-42.726562c.027344-8.824219 7.175781-15.972656 16-16h16v-103.105469c-.164062-8.507812 6.132812-15.765625 14.585938-16.796875 4.457031-.367187 8.867187 1.136719 12.171874 4.152344 3.304688 3.019531 5.203126 7.277344 5.242188 11.75v80c.027344-8.824219 7.175781-15.972656 16-16 8.808594.066406 15.933594 7.191406 16 16v8c.027344-8.824219 7.175781-15.972656 16-16 8.808594.066406 15.933594 7.191406 16 16v16c.027344-8.824219 7.175781-15.972656 16-16 8.808594.066406 15.933594 7.191406 16 16v58.480469c0 4.519531-.257812 9.03125-.640625 13.519531l8.640625-17.503906zm0 0" fill="#9bc9ff"/><path d="m40 472h208c17.671875 0 32-14.328125 32-32v-16h-272v16c0 17.671875 14.328125 32 32 32zm120-24" fill="#9bc9ff"/><g fill="#1e81ce"><path d="m152 40h16c4.417969 0 8-3.582031 8-8s-3.582031-8-8-8h-16c-4.417969 0-8 3.582031-8 8s3.582031 8 8 8zm0 0"/><path d="m160 440h-32c-4.417969 0-8 3.582031-8 8s3.582031 8 8 8h32c4.417969 0 8-3.582031 8-8s-3.582031-8-8-8zm0 0"/><path d="m120 40h8c4.417969 0 8-3.582031 8-8s-3.582031-8-8-8h-8c-4.417969 0-8 3.582031-8 8s3.582031 8 8 8zm0 0"/><path d="m72 80h-40v40h16v-24h24zm0 0"/><path d="m32 360v40h40v-16h-24v-24zm0 0"/><path d="m439.199219 257.679688c-1.058594-4.003907-3.1875-7.648438-6.160157-10.535157-7.6875-7.484375-19.339843-9.128906-28.800781-4.066406-.910156-1.429687-1.984375-2.75-3.199219-3.933594-6.574218-6.519531-16.273437-8.757812-25.039062-5.777343v-57.367188c-.03125-6.71875-2.867188-13.117188-7.820312-17.652344-4.953126-4.539062-11.574219-6.804687-18.269532-6.25-12.601562 1.386719-22.085937 12.121094-21.910156 24.796875v95.105469h-8c-13.253906 0-24 10.746094-24 24v42.726562c.03125 26.890626 6.488281 53.386719 18.832031 77.273438h-2.832031c-4.417969 0-8 3.582031-8 8v48c0 4.417969 3.582031 8 8 8h144c4.417969 0 8-3.582031 8-8v-48c0-4.417969-3.582031-8-8-8h-2.953125l.65625-1.289062c11.996094-23.621094 18.265625-49.738282 18.296875-76.230469v-58.480469c.050781-6.335938-2.472656-12.417969-6.992188-16.855469-6.796874-6.703125-16.875-8.839843-25.808593-5.464843zm8.800781 206.320312h-128v-32h128zm8-125.519531c-.023438 23.96875-5.695312 47.597656-16.550781 68.96875l-4.351563 8.550781h-102.242187l-3.726563-7.199219c-11.226562-21.652343-17.101562-45.683593-17.128906-70.074219v-42.726562c0-4.417969 3.582031-8 8-8h8v40c0 4.417969 3.582031 8 8 8s8-3.582031 8-8v-151.105469c-.175781-4.375 2.941406-8.191406 7.265625-8.894531 2.382813-.1875 4.726563.691406 6.398437 2.398438 1.519532 1.464843 2.367188 3.492187 2.335938 5.601562v104c0 4.417969 3.582031 8 8 8s8-3.582031 8-8v-24c0-4.417969 3.582031-8 8-8 2.15625-.003906 4.21875.886719 5.695312 2.457031 1.496094 1.453125 2.328126 3.457031 2.304688 5.542969v40c0 4.417969 3.582031 8 8 8s8-3.582031 8-8v-32c0-4.417969 3.582031-8 8-8 2.15625-.003906 4.21875.886719 5.695312 2.457031 1.496094 1.453125 2.328126 3.457031 2.304688 5.542969v48c0 4.417969 3.582031 8 8 8s8-3.582031 8-8v-32c0-4.417969 3.582031-8 8-8 2.15625-.003906 4.21875.886719 5.695312 2.457031 1.496094 1.453125 2.328126 3.457031 2.304688 5.542969zm0 0"/><path d="m432 440h-16c-4.417969 0-8 3.582031-8 8s3.582031 8 8 8h16c4.417969 0 8-3.582031 8-8s-3.582031-8-8-8zm0 0"/><path d="m472 88h-384c-4.417969 0-8 3.582031-8 8v256c0 4.417969 3.582031 8 8 8h192c4.417969 0 8-3.582031 8-8s-3.582031-8-8-8h-184v-200h368v104c0 4.417969 3.582031 8 8 8s8-3.582031 8-8v-152c0-4.417969-3.582031-8-8-8zm-376 40v-24h368v24zm0 0"/><path d="m264 265.9375c2.121094 0 4.15625-.84375 5.65625-2.34375l33.945312-33.9375c3.121094-3.125 3.121094-8.1875 0-11.3125l-33.945312-33.9375c-2.289062-2.285156-5.730469-2.96875-8.71875-1.730469s-4.9375 4.152344-4.9375 7.386719v67.875c0 3.234375 1.949219 6.152344 4.9375 7.390625.96875.40625 2.011719.609375 3.0625.609375zm8-56.5625 14.632812 14.625-14.632812 14.625zm0 0"/><path d="m152 288c-5.691406.015625-10.941406 3.066406-13.777344 8h-18.222656c-4.417969 0-8 3.582031-8 8s3.582031 8 8 8h18.222656c2.824219 4.945312 8.082032 7.996094 13.777344 7.996094s10.953125-3.050782 13.777344-7.996094h114.222656c4.417969 0 8-3.582031 8-8s-3.582031-8-8-8h-114.222656c-2.835938-4.933594-8.085938-7.984375-13.777344-8zm0 0"/><path d="m280 376c-4.417969 0-8 3.582031-8 8v32h-256v-352h256v7.359375c0 4.417969 3.582031 8 8 8s8-3.582031 8-8v-31.359375c-.027344-22.082031-17.917969-39.9726562-40-40h-208c-22.082031.0273438-39.9726562 17.917969-40 40v400c.0273438 22.082031 17.917969 39.972656 40 40h208c22.082031-.027344 39.972656-17.917969 40-40v-56c0-4.417969-3.582031-8-8-8zm-240-360h208c13.253906 0 24 10.746094 24 24v8h-256v-8c0-13.253906 10.746094-24 24-24zm208 448h-208c-13.253906 0-24-10.746094-24-24v-8h256v8c0 13.253906-10.746094 24-24 24zm0 0"/></g></svg>