<svg height="480pt" viewBox="-40 0 480 480" width="480pt" xmlns="http://www.w3.org/2000/svg"><g fill="#9bc9ff"><path d="m280 40c0-17.671875-14.328125-32-32-32h-208c-17.671875 0-32 14.328125-32 32v16h272zm-128-8"/><path d="m40 472h208c17.671875 0 32-14.328125 32-32v-16h-272v16c0 17.671875 14.328125 32 32 32zm120-24"/><path d="m264 184v64h96v-128h-96zm32-33.945312 33.945312 33.945312-33.945312 33.945312zm0 0"/><path d="m296 150.054688v67.890624l33.945312-33.945312zm0 0"/><path d="m360 120h32v32h-32zm0 0"/><path d="m360 152h32v32h-32zm0 0"/><path d="m360 184h32v32h-32zm0 0"/><path d="m360 216h32v32h-32zm0 0"/><path d="m232 120h32v32h-32zm0 0"/><path d="m232 152h32v32h-32zm0 0"/><path d="m232 184h32v32h-32zm0 0"/><path d="m232 216h32v32h-32zm0 0"/><path d="m176 264c-35.347656 0-64 28.652344-64 64s28.652344 64 64 64 64-28.652344 64-64-28.652344-64-64-64zm-8 97.945312v-67.890624l33.945312 33.945312zm0 0"/><path d="m168 361.945312 33.945312-33.945312-33.945312-33.945312zm0 0"/></g><path d="m280 272.136719c-4.417969 0-8 3.582031-8 8v135.863281h-256v-352h256v23.359375c0 4.417969 3.582031 8 8 8s8-3.582031 8-8v-47.359375c-.027344-22.082031-17.917969-39.9726562-40-40h-208c-22.082031.0273438-39.9726562 17.917969-40 40v400c.0273438 22.082031 17.917969 39.972656 40 40h208c22.082031-.027344 39.972656-17.917969 40-40v-159.863281c0-4.417969-3.582031-8-8-8zm-240-256.136719h208c13.253906 0 24 10.746094 24 24v8h-256v-8c0-13.253906 10.746094-24 24-24zm208 448h-208c-13.253906 0-24-10.746094-24-24v-8h256v8c0 13.253906-10.746094 24-24 24zm0 0" fill="#1e81ce"/><path d="m152 40h16c4.417969 0 8-3.582031 8-8s-3.582031-8-8-8h-16c-4.417969 0-8 3.582031-8 8s3.582031 8 8 8zm0 0" fill="#1e81ce"/><path d="m160 440h-32c-4.417969 0-8 3.582031-8 8s3.582031 8 8 8h32c4.417969 0 8-3.582031 8-8s-3.582031-8-8-8zm0 0" fill="#1e81ce"/><path d="m120 40h8c4.417969 0 8-3.582031 8-8s-3.582031-8-8-8h-8c-4.417969 0-8 3.582031-8 8s3.582031 8 8 8zm0 0" fill="#1e81ce"/><path d="m72 80h-40v40h16v-24h24zm0 0" fill="#1e81ce"/><path d="m32 360v40h40v-16h-24v-24zm0 0" fill="#1e81ce"/><path d="m164.9375 369.328125c2.988281 1.238281 6.429688.554687 8.71875-1.734375l33.945312-33.9375c3.121094-3.125 3.121094-8.1875 0-11.3125l-33.945312-33.9375c-2.289062-2.285156-5.730469-2.96875-8.71875-1.730469s-4.9375 4.152344-4.9375 7.386719v67.875c0 3.234375 1.949219 6.152344 4.9375 7.390625zm11.0625-55.953125 14.632812 14.625-14.632812 14.625zm0 0" fill="#1e81ce"/><path d="m301.65625 144.40625c-2.289062-2.285156-5.730469-2.96875-8.71875-1.730469s-4.9375 4.152344-4.9375 7.386719v67.875c0 3.234375 1.949219 6.152344 4.9375 7.390625s6.429688.554687 8.71875-1.734375l33.945312-33.9375c3.121094-3.125 3.121094-8.1875 0-11.3125zm2.34375 54.21875v-29.25l14.632812 14.625zm0 0" fill="#1e81ce"/><path d="m224 112v144h176v-144zm16 16h16v16h-16zm0 32h16v16h-16zm0 32h16v16h-16zm16 48h-16v-16h16zm96 0h-80v-112h80zm32 0h-16v-16h16zm0-32h-16v-16h16zm0-32h-16v-16h16zm-16-32v-16h16v16zm0 0" fill="#1e81ce"/><path d="m176 400c39.765625 0 72-32.234375 72-72s-32.234375-72-72-72-72 32.234375-72 72c.042969 39.746094 32.253906 71.957031 72 72zm0-128c30.929688 0 56 25.070312 56 56s-25.070312 56-56 56-56-25.070312-56-56c.035156-30.914062 25.085938-55.964844 56-56zm0 0" fill="#1e81ce"/></svg>