<svg height="480pt" viewBox="-24 0 480 480" width="480pt" xmlns="http://www.w3.org/2000/svg"><path d="m40 472h208c17.671875 0 32-14.328125 32-32v-16h-272v16c0 17.671875 14.328125 32 32 32zm120-24" fill="#9bc9ff"/><path d="m280 40c0-17.671875-14.328125-32-32-32h-208c-17.671875 0-32 14.328125-32 32v16h272zm-128-8" fill="#9bc9ff"/><path d="m248 344v-32h-18.800781c-.488281-1.605469-1.128907-3.160156-1.917969-4.640625l13.277344-13.28125-22.636719-22.636719-13.28125 13.277344c-1.480469-.789062-3.035156-1.429688-4.640625-1.917969v-18.800781h-32v18.800781c-1.605469.488281-3.160156 1.128907-4.640625 1.917969l-13.28125-13.277344-22.636719 22.636719 13.277344 13.28125c-.789062 1.480469-1.429688 3.035156-1.917969 4.640625h-18.800781v32h18.800781c.488281 1.605469 1.128907 3.160156 1.917969 4.640625l-13.277344 13.28125 22.636719 22.636719 13.28125-13.277344c1.480469.789062 3.035156 1.429688 4.640625 1.917969v18.800781h32v-18.800781c1.605469-.488281 3.160156-1.128907 4.640625-1.917969l13.28125 13.277344 22.636719-22.636719-13.277344-13.28125c.789062-1.480469 1.429688-3.035156 1.917969-4.640625zm-64 0c-8.835938 0-16-7.164062-16-16s7.164062-16 16-16 16 7.164062 16 16-7.164062 16-16 16zm0 0" fill="#9bc9ff"/><path d="m378.878906 115.121094-13.917968 14c-4.136719-2.222656-8.476563-4.042969-12.960938-5.441406v-19.679688h-48v19.679688c-4.484375 1.398437-8.824219 3.21875-12.960938 5.441406l-13.917968-14-34 34 14 13.917968c-2.222656 4.136719-4.042969 8.476563-5.441406 12.960938h-19.679688v48h19.679688c1.398437 4.484375 3.21875 8.824219 5.441406 12.960938l-14 13.917968 34 34 13.917968-14c4.136719 2.222656 8.476563 4.042969 12.960938 5.441406v19.679688h48v-19.679688c4.484375-1.398437 8.824219-3.21875 12.960938-5.441406l13.917968 14 34-34-14-13.917968c2.222656-4.136719 4.042969-8.476563 5.441406-12.960938h19.679688v-48h-19.679688c-1.398437-4.484375-3.21875-8.824219-5.441406-12.960938l14-13.917968zm-50.878906 124.878906c-22.089844 0-40-17.910156-40-40s17.910156-40 40-40 40 17.910156 40 40-17.910156 40-40 40zm0 0" fill="#9bc9ff"/><g fill="#1e81ce"><path d="m280 384.136719c-4.417969 0-8 3.582031-8 8v23.863281h-256v-352h256v23.359375c0 4.417969 3.582031 8 8 8s8-3.582031 8-8v-47.359375c-.027344-22.082031-17.917969-39.9726562-40-40h-208c-22.082031.0273438-39.9726562 17.917969-40 40v400c.0273438 22.082031 17.917969 39.972656 40 40h208c22.082031-.027344 39.972656-17.917969 40-40v-47.863281c0-4.417969-3.582031-8-8-8zm-240-368.136719h208c13.253906 0 24 10.746094 24 24v8h-256v-8c0-13.253906 10.746094-24 24-24zm208 448h-208c-13.253906 0-24-10.746094-24-24v-8h256v8c0 13.253906-10.746094 24-24 24zm0 0"/><path d="m152 40h16c4.417969 0 8-3.582031 8-8s-3.582031-8-8-8h-16c-4.417969 0-8 3.582031-8 8s3.582031 8 8 8zm0 0"/><path d="m160 440h-32c-4.417969 0-8 3.582031-8 8s3.582031 8 8 8h32c4.417969 0 8-3.582031 8-8s-3.582031-8-8-8zm0 0"/><path d="m120 40h8c4.417969 0 8-3.582031 8-8s-3.582031-8-8-8h-8c-4.417969 0-8 3.582031-8 8s3.582031 8 8 8zm0 0"/><path d="m72 80h-40v40h16v-24h24zm0 0"/><path d="m32 360v40h40v-16h-24v-24zm0 0"/><path d="m217.921875 260.128906-9.921875 9.917969v-14.046875h-48v14.046875l-9.921875-9.917969-33.949219 33.949219 9.917969 9.921875h-14.046875v48h14.046875l-9.917969 9.921875 33.949219 33.949219 9.921875-9.917969v14.046875h48v-14.046875l9.921875 9.917969 33.949219-33.949219-9.917969-9.921875h14.046875v-48h-14.046875l9.917969-9.921875zm22.078125 75.871094h-16.753906l-1.710938 5.703125c-.34375 1.109375-.792968 2.179687-1.34375 3.199219l-2.726562 5.210937 11.78125 11.78125-11.324219 11.351563-11.785156-11.78125-5.207031 2.726562c-1.023438.550782-2.09375 1-3.203126 1.34375l-5.726562 1.710938v16.753906h-16v-16.753906l-5.703125-1.710938c-1.109375-.34375-2.179687-.792968-3.199219-1.34375l-5.210937-2.726562-11.808594 11.78125-11.324219-11.324219 11.78125-11.785156-2.726562-5.207031c-.550782-1.023438-1-2.09375-1.34375-3.203126l-1.710938-5.726562h-16.753906v-16h16.753906l1.710938-5.703125c.34375-1.109375.792968-2.179687 1.34375-3.199219l2.726562-5.210937-11.78125-11.808594 11.324219-11.324219 11.785156 11.78125 5.207031-2.726562c1.023438-.550782 2.09375-1 3.203126-1.34375l5.726562-1.710938v-16.753906h16v16.753906l5.703125 1.710938c1.109375.34375 2.179687.792968 3.199219 1.34375l5.210937 2.726562 11.78125-11.78125 11.328125 11.324219-11.78125 11.785156 2.726563 5.207031c.550781 1.023438 1 2.09375 1.34375 3.203126l1.710937 5.703124h16.777344zm0 0"/><path d="m184 304c-13.253906 0-24 10.746094-24 24s10.746094 24 24 24 24-10.746094 24-24-10.746094-24-24-24zm0 32c-4.417969 0-8-3.582031-8-8s3.582031-8 8-8 8 3.582031 8 8-3.582031 8-8 8zm0 0"/><path d="m432 232v-64h-22.023438c-.449218-1.144531-.914062-2.257812-1.382812-3.335938l15.613281-15.527343-45.34375-45.34375-15.527343 15.613281c-1.078126-.46875-2.191407-.933594-3.335938-1.382812v-22.023438h-64v22.023438c-1.144531.449218-2.257812.914062-3.335938 1.382812l-15.527343-15.613281-45.34375 45.34375 15.613281 15.527343c-.46875 1.078126-.933594 2.191407-1.382812 3.335938h-22.023438v64h22.023438c.449218 1.144531.914062 2.257812 1.382812 3.335938l-15.613281 15.527343 45.34375 45.34375 15.527343-15.613281c1.078126.46875 2.191407.933594 3.335938 1.382812v22.023438h64v-22.023438c1.144531-.449218 2.257812-.914062 3.335938-1.382812l15.527343 15.613281 45.34375-45.34375-15.613281-15.527343c.46875-1.078126.933594-2.191407 1.382812-3.335938zm-30.457031 18.894531-22.648438 22.648438-12.496093-12.574219-5.269532 2.894531c-3.691406 1.976563-7.5625 3.597657-11.5625 4.839844l-5.566406 1.785156v17.511719h-32v-17.511719l-5.550781-1.785156c-4-1.242187-7.871094-2.863281-11.5625-4.839844l-5.269531-2.894531-12.511719 12.574219-22.648438-22.648438 12.574219-12.496093-2.894531-5.269532c-1.976563-3.691406-3.597657-7.5625-4.839844-11.5625l-1.785156-5.566406h-17.511719v-32h17.511719l1.785156-5.550781c1.242187-4 2.863281-7.871094 4.839844-11.5625l2.894531-5.269531-12.574219-12.511719 22.648438-22.648438 12.496093 12.574219 5.269532-2.894531c3.691406-1.976563 7.5625-3.597657 11.5625-4.839844l5.566406-1.785156v-17.511719h32v17.511719l5.550781 1.785156c4 1.242187 7.871094 2.863281 11.5625 4.839844l5.269531 2.894531 12.511719-12.574219 22.648438 22.648438-12.574219 12.496093 2.894531 5.269532c1.976563 3.691406 3.597657 7.5625 4.839844 11.5625l1.785156 5.550781h17.511719v32h-17.511719l-1.785156 5.550781c-1.242187 4-2.863281 7.871094-4.839844 11.5625l-2.894531 5.269532zm0 0"/><path d="m328 152c-26.507812 0-48 21.492188-48 48s21.492188 48 48 48 48-21.492188 48-48c-.027344-26.5-21.5-47.972656-48-48zm0 80c-17.671875 0-32-14.328125-32-32s14.328125-32 32-32 32 14.328125 32 32-14.328125 32-32 32zm0 0"/></g></svg>