<svg height="480pt" viewBox="0 0 480 480" width="480pt" xmlns="http://www.w3.org/2000/svg"><path d="m40 472h208c17.671875 0 32-14.328125 32-32v-16h-272v16c0 17.671875 14.328125 32 32 32zm120-24" fill="#9bc9ff"/><path d="m280 40c0-17.671875-14.328125-32-32-32h-208c-17.671875 0-32 14.328125-32 32v16h272zm-128-8" fill="#9bc9ff"/><path d="m232 376-24-224h-40v32-32h-64v32-32h-40l-24 224zm0 0" fill="#9bc9ff"/><g fill="#1e81ce"><path d="m280 352.136719c-4.417969 0-8 3.582031-8 8v55.863281h-256v-352h256v55.359375c0 4.417969 3.582031 8 8 8s8-3.582031 8-8v-79.359375c-.027344-22.082031-17.917969-39.9726562-40-40h-208c-22.082031.0273438-39.9726562 17.917969-40 40v400c.0273438 22.082031 17.917969 39.972656 40 40h208c22.082031-.027344 39.972656-17.917969 40-40v-79.863281c0-4.417969-3.582031-8-8-8zm-240-336.136719h208c13.253906 0 24 10.746094 24 24v8h-256v-8c0-13.253906 10.746094-24 24-24zm208 448h-208c-13.253906 0-24-10.746094-24-24v-8h256v8c0 13.253906-10.746094 24-24 24zm0 0"/><path d="m152 40h16c4.417969 0 8-3.582031 8-8s-3.582031-8-8-8h-16c-4.417969 0-8 3.582031-8 8s3.582031 8 8 8zm0 0"/><path d="m160 440h-32c-4.417969 0-8 3.582031-8 8s3.582031 8 8 8h32c4.417969 0 8-3.582031 8-8s-3.582031-8-8-8zm0 0"/><path d="m120 40h8c4.417969 0 8-3.582031 8-8s-3.582031-8-8-8h-8c-4.417969 0-8 3.582031-8 8s3.582031 8 8 8zm0 0"/><path d="m72 96v-16h-40v40h16v-24zm0 0"/><path d="m397.0625 337.199219c-44.15625 16.828125-94.109375 1.769531-121.609375-36.664063-27.5-38.429687-25.632813-90.570312 4.546875-126.933594v26.398438h16v-56h-56v16h30.769531c-36.9375 41.214844-40.878906 102.351562-9.542969 147.972656 31.335938 45.617188 89.816407 63.875 141.542969 44.1875 4.128907-1.570312 6.207031-6.191406 4.632813-10.324218-1.570313-4.132813-6.191406-6.207032-10.324219-4.636719zm0 0"/><path d="m360 296c-13.253906 0-24-10.746094-24-24 0-4.417969-3.582031-8-8-8s-8 3.582031-8 8c.023438 19 13.386719 35.371094 32 39.199219v8.800781c0 4.417969 3.582031 8 8 8s8-3.582031 8-8v-8.800781c20.140625-4.089844 33.902344-22.773438 31.835938-43.21875-2.0625-20.445313-19.285157-36-39.835938-35.980469-13.253906 0-24-10.746094-24-24s10.746094-24 24-24 24 10.746094 24 24c0 4.417969 3.582031 8 8 8s8-3.582031 8-8c-.023438-19-13.386719-35.371094-32-39.199219v-8.800781c0-4.417969-3.582031-8-8-8s-8 3.582031-8 8v8.800781c-20.140625 4.089844-33.902344 22.773438-31.835938 43.21875 2.0625 20.445313 19.285157 36 39.835938 35.980469 13.253906 0 24 10.746094 24 24s-10.746094 24-24 24zm0 0"/><path d="m449.230469 320c36.976562-41.183594 40.960937-102.320312 9.652343-147.957031-31.308593-45.636719-89.785156-63.917969-141.515624-44.242188-4.085938 1.597657-6.121094 6.183594-4.566407 10.285157 1.554688 4.101562 6.121094 6.1875 10.238281 4.675781 44.160157-16.777344 94.074219-1.683594 121.542969 36.746093 27.464844 38.429688 25.585938 90.542969-4.582031 126.890626v-26.398438h-16v56h56v-16zm0 0"/><path d="m40 384h192c2.269531 0 4.429688-.964844 5.945312-2.652344 1.519532-1.6875 2.246094-3.941406 2.007813-6.195312l-24-224c-.433594-4.066406-3.863281-7.152344-7.953125-7.152344h-32v-24c0-22.089844-17.910156-40-40-40s-40 17.910156-40 40v24h-32c-4.089844 0-7.519531 3.085938-7.953125 7.152344l-24 224c-.238281 2.253906.488281 4.507812 2.007813 6.195312 1.515624 1.6875 3.675781 2.652344 5.945312 2.652344zm72-264c0-13.253906 10.746094-24 24-24s24 10.746094 24 24v24h-48zm-40.800781 40h24.800781v24h16v-24h48v24h16v-24h24.800781l22.277344 208h-174.175781zm0 0"/></g></svg>