<svg height="480pt" viewBox="0 0 480 480" width="480pt" xmlns="http://www.w3.org/2000/svg"><path d="m8 40v208c0 17.671875 14.328125 32 32 32h16v-272h-16c-17.671875 0-32 14.328125-32 32zm24 120" fill="#9bc9ff"/><path d="m440 8h-16v272h16c17.671875 0 32-14.328125 32-32v-208c0-17.671875-14.328125-32-32-32zm8 120" fill="#9bc9ff"/><path d="m200 424v48h144v-48zm120 24" fill="#9bc9ff"/><g fill="#1e81ce"><path d="m440 0h-400c-22.082031.0273438-39.9726562 17.917969-40 40v208c.0273438 22.082031 17.917969 39.972656 40 40h127.863281c4.417969 0 8-3.582031 8-8s-3.582031-8-8-8h-103.863281v-256h352v256h-31.359375c-4.417969 0-8 3.582031-8 8s3.582031 8 8 8h55.359375c22.082031-.027344 39.972656-17.917969 40-40v-208c-.027344-22.082031-17.917969-39.9726562-40-40zm-392 272h-8c-13.253906 0-24-10.746094-24-24v-208c0-13.253906 10.746094-24 24-24h8zm416-24c0 13.253906-10.746094 24-24 24h-8v-256h8c13.253906 0 24 10.746094 24 24zm0 0"/><path d="m448 144c-4.417969 0-8 3.582031-8 8v16c0 4.417969 3.582031 8 8 8s8-3.582031 8-8v-16c0-4.417969-3.582031-8-8-8zm0 0"/><path d="m32 120c-4.417969 0-8 3.582031-8 8v32c0 4.417969 3.582031 8 8 8s8-3.582031 8-8v-32c0-4.417969-3.582031-8-8-8zm0 0"/><path d="m448 112c-4.417969 0-8 3.582031-8 8v8c0 4.417969 3.582031 8 8 8s8-3.582031 8-8v-8c0-4.417969-3.582031-8-8-8zm0 0"/><path d="m400 72v-40h-40v16h24v24zm0 0"/><path d="m120 32h-40v40h16v-24h24zm0 0"/><path d="m360 256h40v-40h-16v24h-24zm0 0"/><path d="m80 216v40h40v-16h-24v-24zm0 0"/><path d="m327.199219 257.679688c-1.058594-4.003907-3.1875-7.644532-6.152344-10.535157-7.6875-7.484375-19.339844-9.128906-28.800781-4.066406-.910156-1.425781-1.984375-2.746094-3.199219-3.933594-6.582031-6.515625-16.277344-8.75-25.046875-5.777343v-57.367188c-.03125-6.71875-2.863281-13.117188-7.816406-17.65625s-11.578125-6.804688-18.273438-6.246094c-12.601562 1.386719-22.085937 12.121094-21.910156 24.796875v95.105469h-8c-13.253906 0-24 10.746094-24 24v42.726562c.03125 26.890626 6.488281 53.382813 18.832031 77.273438h-2.832031c-4.417969 0-8 3.582031-8 8v48c0 4.417969 3.582031 8 8 8h144c4.417969 0 8-3.582031 8-8v-48c0-4.417969-3.582031-8-8-8h-2.953125l.65625-1.289062c11.996094-23.621094 18.265625-49.738282 18.296875-76.230469v-58.480469c.054688-6.332031-2.46875-12.417969-6.984375-16.855469-6.800781-6.703125-16.882813-8.839843-25.816406-5.464843zm8.800781 206.320312h-128v-32h128zm8-125.519531c-.027344 23.96875-5.699219 47.59375-16.550781 68.96875l-4.351563 8.550781h-102.242187l-3.71875-7.199219c-11.230469-21.652343-17.109375-45.679687-17.136719-70.074219v-42.726562c0-4.417969 3.582031-8 8-8h8v40c0 4.417969 3.582031 8 8 8s8-3.582031 8-8v-151.105469c-.175781-4.375 2.941406-8.191406 7.265625-8.894531 2.382813-.199219 4.730469.683594 6.398437 2.398438 1.515626 1.46875 2.359376 3.492187 2.335938 5.601562v104c0 4.417969 3.582031 8 8 8s8-3.582031 8-8v-24c0-4.417969 3.582031-8 8-8 2.160156-.003906 4.222656.882812 5.703125 2.457031 1.488281 1.457031 2.316406 3.460938 2.296875 5.542969v40c0 4.417969 3.582031 8 8 8s8-3.582031 8-8v-32c0-4.417969 3.582031-8 8-8 2.160156-.003906 4.222656.882812 5.703125 2.457031 1.488281 1.457031 2.316406 3.460938 2.296875 5.542969v48c0 4.417969 3.582031 8 8 8s8-3.582031 8-8v-32c0-4.417969 3.582031-8 8-8 2.160156-.003906 4.222656.882812 5.703125 2.457031 1.488281 1.457031 2.316406 3.460938 2.296875 5.542969zm0 0"/><path d="m320 440h-16c-4.417969 0-8 3.582031-8 8s3.582031 8 8 8h16c4.417969 0 8-3.582031 8-8s-3.582031-8-8-8zm0 0"/><path d="m192 184c0-26.507812 21.492188-48 48-48s48 21.492188 48 48c0 4.417969 3.582031 8 8 8s8-3.582031 8-8c0-35.347656-28.652344-64-64-64s-64 28.652344-64 64c0 4.417969 3.582031 8 8 8s8-3.582031 8-8zm0 0"/><path d="m327.695312 184.65625c.34375 4.160156 3.828126 7.359375 8 7.34375h.664063c4.40625-.359375 7.683594-4.226562 7.320313-8.632812-4.449219-53.9375-49.523438-95.449219-103.648438-95.449219-54.121094 0-99.199219 41.511719-103.648438 95.449219-.359374 4.40625 2.917969 8.269531 7.320313 8.632812 4.40625.363281 8.269531-2.914062 8.632813-7.320312 3.800781-45.609376 41.929687-80.691407 87.695312-80.691407 45.769531 0 83.894531 35.082031 87.695312 80.691407zm0 0"/></g></svg>