<svg height="480pt" viewBox="0 0 480 480" width="480pt" xmlns="http://www.w3.org/2000/svg"><path d="m440 200h-16v272h16c17.671875 0 32-6.328125 32-24v-208c0-17.671875-14.328125-40-32-40zm8 152" fill="#9bc9ff"/><path d="m40 200c-17.671875 0-32 14.328125-32 32v208c0 17.671875 14.328125 32 32 32h16v-272zm-8 128" fill="#9bc9ff"/><path d="m168 72v-64l-64 64zm0 0" fill="#9bc9ff"/><path d="m376 8h-208v64h-64v304h272v-238.054688l-101.257812 101.246094-62.222657 28.289063 28.289063-62.222657 135.191406-135.203124zm0 0" fill="#9bc9ff"/><g fill="#1e81ce"><path d="m440 192h-39.863281c-4.417969 0-8 3.582031-8 8s3.582031 8 8 8h15.863281v256h-352v-256h15.359375c4.417969 0 8-3.582031 8-8s-3.582031-8-8-8h-39.359375c-22.082031.027344-39.9726562 17.917969-40 40v208c.0273438 22.082031 17.917969 39.972656 40 40h400c25.046875 0 40-11.960938 40-32v-208c0-22.191406-17.480469-48-40-48zm-424 248v-208c0-13.253906 10.746094-24 24-24h8v256h-8c-13.253906 0-24-10.746094-24-24zm448 8c0 3.960938 0 16-24 16h-8v-256h8c12.359375 0 24 18.023438 24 32zm0 0"/><path d="m32 304c-4.417969 0-8 3.582031-8 8v16c0 4.417969 3.582031 8 8 8s8-3.582031 8-8v-16c0-4.417969-3.582031-8-8-8zm0 0"/><path d="m440 320v32c0 4.417969 3.582031 8 8 8s8-3.582031 8-8v-32c0-4.417969-3.582031-8-8-8s-8 3.582031-8 8zm0 0"/><path d="m32 344c-4.417969 0-8 3.582031-8 8v8c0 4.417969 3.582031 8 8 8s8-3.582031 8-8v-8c0-4.417969-3.582031-8-8-8zm0 0"/><path d="m80 408v40h40v-16h-24v-24zm0 0"/><path d="m384 432h-24v16h40v-40h-16zm0 0"/><path d="m104 384h272c4.417969 0 8-3.582031 8-8v-199.710938c0-4.417968-3.582031-8-8-8s-8 3.582032-8 8v191.710938h-256v-288h56c4.417969 0 8-3.582031 8-8v-56h192v16c0 4.417969 3.582031 8 8 8s8-3.582031 8-8v-24c0-4.417969-3.582031-8-8-8h-208c-.175781 0-.328125.0898438-.503906.105469-.695313.039062-1.382813.171875-2.039063.398437-.265625.097656-.519531.160156-.800781.28125-.867188.386719-1.660156.929688-2.335938 1.597656l-64 64c-.667968.679688-1.210937 1.476563-1.601562 2.34375-.109375.25-.175781.488282-.261719.746094-.230469.667969-.371093 1.367188-.417969 2.070313 0 .175781-.09375.328125-.09375.496093v303.960938c0 2.132812.847657 4.175781 2.363282 5.675781 1.511718 1.503907 3.558594 2.339844 5.691406 2.324219zm56-356.6875v36.6875h-36.6875zm0 0"/><path d="m235.152344 199.601562c-.074219.0625-.097656.167969-.160156.238282-.601563.617187-1.097657 1.328125-1.472657 2.105468l-28.28125 62.222657c-1.125 2.476562-.914062 5.355469.558594 7.640625 1.46875 2.289062 4.003906 3.671875 6.722656 3.671875 1.144531.003906 2.273438-.242188 3.3125-.71875l62.222657-28.28125c.78125-.375 1.492187-.871094 2.113281-1.472657.070312-.0625.160156-.085937.230469-.160156l135.769531-135.757812 22.640625-22.632813c9.347656-9.386719 9.347656-24.5625 0-33.945312l-11.320313-11.304688c-9.5-9.070312-24.453125-9.070312-33.953125 0l-22.625 22.625zm141.414062-118.800781 5.65625 5.65625-124.445312 124.453125-5.65625-5.652344zm-147.933594 170.566407 14.679688-32.296876 17.597656 17.601563zm46.109376-23.488282-5.652344-5.65625 124.445312-124.445312 5.65625 5.65625zm130.105468-175.359375c3.171875-3.019531 8.152344-3.019531 11.320313 0l11.3125 11.3125c1.5 1.5 2.347656 3.535157 2.347656 5.660157s-.847656 4.160156-2.347656 5.660156l-16.984375 16.96875-22.625-22.625zm0 0"/><path d="m336 296h-160c-4.417969 0-8 3.582031-8 8s3.582031 8 8 8h160c4.417969 0 8-3.582031 8-8s-3.582031-8-8-8zm0 0"/><path d="m336 328h-192c-4.417969 0-8 3.582031-8 8s3.582031 8 8 8h192c4.417969 0 8-3.582031 8-8s-3.582031-8-8-8zm0 0"/></g></svg>