<svg height="480pt" viewBox="0 -16 480 480" width="480pt" xmlns="http://www.w3.org/2000/svg"><g fill="#57a4ff"><path d="m264 168v272h80v-280l-40-32zm0 0"/><path d="m8 272v168h80v-144h-40zm0 0"/><path d="m136 208v232h80v-232l-40-40zm0 0"/><path d="m392 104v336h80v-344l-40-32zm0 0"/><path d="m136 208v232h80v-232l-40-40zm0 0"/><path d="m8 272v168h80v-144h-40zm0 0"/><path d="m264 168v272h80v-280l-40-32zm0 0"/><path d="m392 104v336h80v-344l-40-32zm0 0"/><path d="m8 272v168h80v-144h-40zm0 0"/><path d="m136 208v232h80v-232l-40-40zm0 0"/><path d="m264 168v272h80v-280l-40-32zm0 0"/><path d="m392 104v336h80v-344l-40-32zm0 0"/></g><path d="m88 288h-37.785156l-38.09375-22.855469c-2.472656-1.484375-5.550782-1.527343-8.058594-.105469-2.511719 1.417969-4.0625 4.078126-4.0625 6.960938v168c0 4.417969 3.582031 8 8 8h80c4.417969 0 8-3.582031 8-8v-144c0-4.417969-3.582031-8-8-8zm-8 144h-64v-145.863281l27.878906 16.71875c1.246094.746093 2.667969 1.144531 4.121094 1.144531h32zm0 0" fill="#1e81ce"/><path d="m181.65625 162.34375c-3.125-3.125-8.1875-3.125-11.3125 0l-40 40c-1.5 1.5-2.34375 3.535156-2.34375 5.65625v232c0 4.417969 3.582031 8 8 8h80c4.417969 0 8-3.582031 8-8v-232c0-2.121094-.84375-4.15625-2.34375-5.65625zm26.34375 269.65625h-64v-220.6875l32-32 32 32zm0 0" fill="#1e81ce"/><path d="m309 121.75c-3.183594-2.546875-7.773438-2.289062-10.65625.59375l-40 40c-1.5 1.5-2.34375 3.535156-2.34375 5.65625v272c0 4.417969 3.582031 8 8 8h80c4.417969 0 8-3.582031 8-8v-280c0-2.429688-1.101562-4.730469-3-6.25zm27 310.25h-64v-260.6875l32.59375-32.59375 31.40625 25.121094zm0 0" fill="#1e81ce"/><path d="m477 89.75-40-32c-3.183594-2.546875-7.773438-2.289062-10.65625.59375l-40 40c-1.5 1.5-2.34375 3.535156-2.34375 5.65625v336c0 4.417969 3.582031 8 8 8h80c4.417969 0 8-3.582031 8-8v-344c0-2.429688-1.101562-4.730469-3-6.25zm-13 342.25h-64v-324.6875l32.59375-32.59375 31.40625 25.121094zm0 0" fill="#1e81ce"/><path d="m339 110.246094c3.183594 2.546875 7.773438 2.292968 10.65625-.589844l91.097656-91.097656 26.445313 19.839844c3.535156 2.652343 8.550781 1.933593 11.199219-1.597657 2.652343-3.535156 1.9375-8.550781-1.597657-11.203125l-32-24c-3.1875-2.386718-7.640625-2.070312-10.457031.746094l-90.9375 90.933594-34.398438-27.527344c-3.183593-2.546875-7.773437-2.289062-10.65625.59375l-74.351562 74.34375-42.34375-42.34375c-1.554688-1.554688-3.679688-2.402344-5.878906-2.339844-2.195313.058594-4.269532 1.023438-5.738282 2.660156l-122.039062 136.398438v-43.0625c0-4.417969-3.582031-8-8-8s-8 3.582031-8 8v64c.015625.960938.207031 1.914062.566406 2.808594.378906.867187.875 1.671875 1.480469 2.398437.1875.230469.390625.445313.609375.648438.546875.496093 1.160156.910156 1.824219 1.230469.167969.109374.339843.207031.519531.296874.054688 0 .089844.066407.144531.089844.910157.347656 1.878907.523438 2.855469.527344h64c4.417969 0 8-3.582031 8-8s-3.582031-8-8-8h-46.105469l118.402344-132.367188 42.015625 42.023438c3.125 3.121094 8.1875 3.121094 11.3125 0l74.933594-74.9375zm0 0" fill="#1e81ce"/></svg>