<svg height="480pt" viewBox="0 0 480 480" width="480pt" xmlns="http://www.w3.org/2000/svg"><path d="m456 408h-146.664062c-3.460938 0-6.832032 1.121094-9.601563 3.199219l-23.46875 17.601562c-2.769531 2.078125-6.140625 3.199219-9.601563 3.199219h-53.328124c-3.460938 0-6.832032-1.121094-9.601563-3.199219l-23.46875-17.601562c-2.769531-2.078125-6.140625-3.199219-9.601563-3.199219h-162.664062v32c0 17.671875 14.328125 32 32 32h400c17.671875 0 32-14.328125 32-32v-32zm0 0" fill="#57a4ff"/><path d="m216 216c.027344 8.824219 7.175781 15.972656 16 16h16c8.824219-.027344 15.972656-7.175781 16-16v-8h-48zm0 0" fill="#57a4ff"/><path d="m216 184h48v24h-48zm0 0" fill="#57a4ff"/><path d="m216 154.558594v29.441406h48v-29.441406c-15.179688 7.253906-32.820312 7.253906-48 0zm0 0" fill="#57a4ff"/><g fill="#1e81ce"><path d="m472 400h-8v-280c0-13.253906-10.746094-24-24-24h-72c-4.417969 0-8 3.582031-8 8s3.582031 8 8 8h72c4.417969 0 8 3.582031 8 8v280h-138.664062c-5.191407.007812-10.242188 1.691406-14.398438 4.800781l-23.472656 17.597657c-1.386719 1.035156-3.070313 1.597656-4.800782 1.601562h-53.328124c-1.730469-.007812-3.414063-.566406-4.800782-1.601562l-23.457031-17.597657c-4.15625-3.105469-9.207031-4.789062-14.398437-4.800781h-138.679688v-280c0-4.417969 3.582031-8 8-8h72c4.417969 0 8-3.582031 8-8s-3.582031-8-8-8h-72c-13.253906 0-24 10.746094-24 24v280h-8c-4.417969 0-8 3.582031-8 8v32c.0273438 22.082031 17.917969 39.972656 40 40h400c22.082031-.027344 39.972656-17.917969 40-40v-32c0-4.417969-3.582031-8-8-8zm-8 40c0 13.253906-10.746094 24-24 24h-400c-13.253906 0-24-10.746094-24-24v-24h154.664062c1.730469.007812 3.414063.566406 4.800782 1.601562l23.457031 17.597657c4.15625 3.105469 9.207031 4.789062 14.398437 4.800781h53.328126c5.191406-.007812 10.242187-1.691406 14.398437-4.800781l23.472656-17.597657c1.386719-1.035156 3.070313-1.597656 4.800781-1.601562h154.679688zm0 0"/><path d="m112 120h-64c-4.417969 0-8 3.582031-8 8v248c0 4.417969 3.582031 8 8 8h384c4.417969 0 8-3.582031 8-8v-248c0-4.417969-3.582031-8-8-8h-64c-4.417969 0-8 3.582031-8 8s3.582031 8 8 8h56v232h-368v-232h56c4.417969 0 8-3.582031 8-8s-3.582031-8-8-8zm0 0"/><path d="m138.34375 290.34375-48 48c-2.078125 2.007812-2.914062 4.984375-2.179688 7.78125.730469 2.796875 2.914063 4.980469 5.710938 5.710938 2.796875.734374 5.773438-.101563 7.78125-2.179688l42.34375-42.34375 30.34375 30.34375c3.125 3.121094 8.1875 3.121094 11.3125 0l54.34375-54.34375 26.34375 26.34375c3.125 3.121094 8.1875 3.121094 11.3125 0l98.34375-98.34375v28.6875c0 4.417969 3.582031 8 8 8s8-3.582031 8-8v-48c0-4.417969-3.582031-8-8-8h-48c-4.417969 0-8 3.582031-8 8s3.582031 8 8 8h28.6875l-92.6875 92.6875-26.34375-26.34375c-3.125-3.121094-8.1875-3.121094-11.3125 0l-54.34375 54.34375-30.34375-30.34375c-3.125-3.121094-8.1875-3.121094-11.3125 0zm0 0"/><path d="m240 40c-35.328125.039062-63.960938 28.671875-64 64-.085938 22.828125 12.148438 43.929688 32 55.199219v56.800781c0 13.253906 10.746094 24 24 24h16c13.253906 0 24-10.746094 24-24v-56.800781c19.851562-11.269531 32.085938-32.371094 32-55.199219-.039062-35.328125-28.671875-63.960938-64-64zm-9.984375 127.136719c.800781.121093 1.527344.296875 2.304687.382812 5.101563.640625 10.257813.640625 15.359376 0 .761718-.085937 1.496093-.253906 2.242187-.375 1.773437-.273437 3.535156-.585937 5.269531-1.007812.265625-.066407.542969-.082031.800782-.152344v10.015625h-31.992188v-10.015625c.273438.070313.558594.09375.800781.160156 1.742188.414063 3.480469.71875 5.214844.992188zm-6.015625 24.863281h32v8h-32zm24 32h-16c-4.417969 0-8-3.582031-8-8h32c0 4.417969-3.582031 8-8 8zm12.519531-76.640625c-3.96875 1.878906-8.183593 3.1875-12.519531 3.878906v-39.238281c0-4.417969-3.582031-8-8-8s-8 3.582031-8 8v39.238281c-.839844-.140625-1.6875-.230469-2.519531-.414062-3.476563-.777344-6.847657-1.953125-10.054688-3.496094-16.824219-7.84375-27.539062-24.765625-27.425781-43.328125 0-26.507812 21.492188-48 48-48s48 21.492188 48 48c.105469 18.582031-10.632812 35.523438-27.480469 43.359375zm0 0"/><path d="m240 32c4.417969 0 8-3.582031 8-8v-16c0-4.417969-3.582031-8-8-8s-8 3.582031-8 8v16c0 4.417969 3.582031 8 8 8zm0 0"/><path d="m193.070312 38.71875c2.226563 3.796875 7.09375 5.082031 10.902344 2.882812 3.808594-2.199218 5.128906-7.058593 2.957032-10.882812l-8-13.863281c-2.226563-3.792969-7.09375-5.082031-10.902344-2.882813-3.808594 2.199219-5.128906 7.058594-2.957032 10.882813zm0 0"/><path d="m152.855469 62.929688 13.863281 8c2.476562 1.449218 5.542969 1.464843 8.03125.035156 2.488281-1.429688 4.023438-4.085938 4.015625-6.957032-.007813-2.871093-1.550781-5.515624-4.046875-6.9375l-13.863281-8c-3.824219-2.171874-8.683594-.851562-10.882813 2.957032-2.199218 3.808594-.910156 8.675781 2.882813 10.902344zm0 0"/><path d="m144 112h16c4.417969 0 8-3.582031 8-8s-3.582031-8-8-8h-16c-4.417969 0-8 3.582031-8 8s3.582031 8 8 8zm0 0"/><path d="m166.71875 137.070312-13.863281 8c-2.496094 1.421876-4.039063 4.066407-4.046875 6.9375-.003906 2.871094 1.527344 5.527344 4.015625 6.957032 2.492187 1.429687 5.554687 1.414062 8.03125-.035156l13.863281-8c2.496094-1.421876 4.039062-4.066407 4.046875-6.9375.007813-2.871094-1.527344-5.527344-4.015625-6.957032-2.488281-1.429687-5.554688-1.414062-8.03125.035156zm0 0"/><path d="m305.28125 150.929688 13.863281 8c1.214844.703124 2.59375 1.074218 4 1.070312 3.621094 0 6.789063-2.433594 7.726563-5.929688.9375-3.496093-.589844-7.1875-3.726563-9l-13.863281-8c-2.476562-1.449218-5.542969-1.464843-8.03125-.035156-2.488281 1.429688-4.023438 4.085938-4.015625 6.957032.007813 2.871093 1.550781 5.515624 4.046875 6.9375zm0 0"/><path d="m312 104c0 4.417969 3.582031 8 8 8h16c4.417969 0 8-3.582031 8-8s-3.582031-8-8-8h-16c-4.417969 0-8 3.582031-8 8zm0 0"/><path d="m309.289062 72c1.402344.003906 2.785157-.367188 4-1.070312l13.863282-8c3.792968-2.226563 5.082031-7.09375 2.882812-10.902344-2.199218-3.808594-7.058594-5.128906-10.882812-2.957032l-13.863282 8c-3.136718 1.8125-4.664062 5.503907-3.726562 9 .9375 3.496094 4.105469 5.929688 7.726562 5.929688zm0 0"/><path d="m276 41.648438c3.828125 2.207031 8.71875.898437 10.929688-2.929688l8-13.863281c2.171874-3.824219.851562-8.683594-2.957032-10.882813-3.808594-2.199218-8.675781-.910156-10.902344 2.882813l-8 13.863281c-2.207031 3.828125-.894531 8.71875 2.929688 10.929688zm0 0"/><path d="m240 72c-4.417969 0-8 3.582031-8 8v8c0 4.417969 3.582031 8 8 8s8-3.582031 8-8v-8c0-4.417969-3.582031-8-8-8zm0 0"/></g></svg>