<svg height="480.00511pt" viewBox="0 0 480.00511 480.00511" width="480.00511pt" xmlns="http://www.w3.org/2000/svg"><path d="m182.003906 48.003906c16.585938 23.136719 22.0625 52.433594 14.960938 80h275.039062v-80zm0 0" fill="#57a4ff"/><path d="m184.003906 232.003906h32v32h-32zm0 0" fill="#57a4ff"/><path d="m248.003906 232.003906h32v32h-32zm0 0" fill="#57a4ff"/><path d="m312.003906 232.003906h32v32h-32zm0 0" fill="#57a4ff"/><path d="m376.003906 232.003906h32v32h-32zm0 0" fill="#57a4ff"/><path d="m120.003906 296.003906h32v32h-32zm0 0" fill="#57a4ff"/><path d="m184.003906 296.003906h32v32h-32zm0 0" fill="#57a4ff"/><path d="m248.003906 296.003906h32v32h-32zm0 0" fill="#57a4ff"/><path d="m312.003906 296.003906h32v32h-32zm0 0" fill="#57a4ff"/><path d="m376.003906 296.003906h32v32h-32zm0 0" fill="#57a4ff"/><path d="m120.003906 360.003906h32v32h-32zm0 0" fill="#57a4ff"/><path d="m184.003906 360.003906h32v32h-32zm0 0" fill="#57a4ff"/><path d="m248.003906 360.003906h32v32h-32zm0 0" fill="#57a4ff"/><g fill="#1e81ce"><path d="m472.003906 40.003906h-286.214844c-24.703124-31.683594-65.460937-46.28125-104.660156-37.484375-39.199218 8.796875-69.8125 39.410157-78.609375 78.609375-8.796875 39.199219 5.800781 79.957032 37.484375 104.660156v286.214844c0 4.417969 3.582032 8 8 8h424c4.417969 0 8-3.582031 8-8v-424c0-4.417968-3.582031-8-8-8zm-8 16v64h-257.222656c.097656-.613281.128906-1.246094.214844-1.871094.105468-.800781.175781-1.550781.265625-2.335937.472656-3.914063.722656-7.851563.742187-11.792969-.023437-3.742187-.242187-7.480468-.664062-11.199218-.09375-.871094-.191406-1.742188-.304688-2.609376-.457031-3.621093-1.105468-7.21875-1.941406-10.773437-.097656-.375-.214844-.746094-.3125-1.113281-.800781-3.199219-1.824219-6.398438-2.953125-9.597656-.296875-.800782-.574219-1.601563-.886719-2.402344-1.289062-3.347656-2.753906-6.625-4.390625-9.816406-.082031-.167969-.136719-.34375-.226562-.511719zm-448 48c-.007812-38.226562 24.660156-72.085937 61.046875-83.792968 36.390625-11.710938 76.175781 1.414062 98.457031 32.472656 19.25 26.8125 21.875 62.140625 6.804688 91.503906s-45.300781 47.824219-78.308594 47.816406c-4.609375 0-9.210937-.351562-13.765625-1.054687-10.933593-1.710938-21.441406-5.492188-30.953125-11.144531-2.25-1.335938-4.457031-2.742188-6.601562-4.289063-22.992188-16.570313-36.636719-43.167969-36.679688-71.511719zm40 360v-267.679687c.152344.074219.3125.128906.464844.207031 3.214844 1.648438 6.515625 3.121094 9.886719 4.417969.800781.3125 1.601562.582031 2.402343.871093 3.152344 1.136719 6.34375 2.144532 9.597657 2.960938.371093.097656.730469.214844 1.097656.3125 3.554687.832031 7.152344 1.480469 10.777344 1.941406.871093.113282 1.742187.210938 2.613281.304688 3.707031.417968 7.433594.640625 11.160156.664062 45.101563.019532 85.0625-29.070312 98.898438-72h261.101562v328zm0 0"/><path d="m130.347656 141.660156c3.140625 3.03125 8.128906 2.988282 11.214844-.097656s3.128906-8.074219.097656-11.214844l-29.65625-29.65625v-52.6875c0-4.417968-3.582031-8-8-8-4.417968 0-8 3.582032-8 8v56c0 2.121094.84375 4.15625 2.34375 5.65625zm0 0"/><path d="m216.003906 224.003906h-32c-4.417968 0-8 3.582032-8 8v32c0 4.417969 3.582032 8 8 8h32c4.417969 0 8-3.582031 8-8v-32c0-4.417968-3.582031-8-8-8zm-8 32h-16v-16h16zm0 0"/><path d="m280.003906 224.003906h-32c-4.417968 0-8 3.582032-8 8v32c0 4.417969 3.582032 8 8 8h32c4.417969 0 8-3.582031 8-8v-32c0-4.417968-3.582031-8-8-8zm-8 32h-16v-16h16zm0 0"/><path d="m344.003906 224.003906h-32c-4.417968 0-8 3.582032-8 8v32c0 4.417969 3.582032 8 8 8h32c4.417969 0 8-3.582031 8-8v-32c0-4.417968-3.582031-8-8-8zm-8 32h-16v-16h16zm0 0"/><path d="m408.003906 224.003906h-32c-4.417968 0-8 3.582032-8 8v32c0 4.417969 3.582032 8 8 8h32c4.417969 0 8-3.582031 8-8v-32c0-4.417968-3.582031-8-8-8zm-8 32h-16v-16h16zm0 0"/><path d="m152.003906 288.003906h-32c-4.417968 0-8 3.582032-8 8v32c0 4.417969 3.582032 8 8 8h32c4.417969 0 8-3.582031 8-8v-32c0-4.417968-3.582031-8-8-8zm-8 32h-16v-16h16zm0 0"/><path d="m216.003906 288.003906h-32c-4.417968 0-8 3.582032-8 8v32c0 4.417969 3.582032 8 8 8h32c4.417969 0 8-3.582031 8-8v-32c0-4.417968-3.582031-8-8-8zm-8 32h-16v-16h16zm0 0"/><path d="m280.003906 288.003906h-32c-4.417968 0-8 3.582032-8 8v32c0 4.417969 3.582032 8 8 8h32c4.417969 0 8-3.582031 8-8v-32c0-4.417968-3.582031-8-8-8zm-8 32h-16v-16h16zm0 0"/><path d="m344.003906 288.003906h-32c-4.417968 0-8 3.582032-8 8v32c0 4.417969 3.582032 8 8 8h32c4.417969 0 8-3.582031 8-8v-32c0-4.417968-3.582031-8-8-8zm-8 32h-16v-16h16zm0 0"/><path d="m408.003906 288.003906h-32c-4.417968 0-8 3.582032-8 8v32c0 4.417969 3.582032 8 8 8h32c4.417969 0 8-3.582031 8-8v-32c0-4.417968-3.582031-8-8-8zm-8 32h-16v-16h16zm0 0"/><path d="m152.003906 352.003906h-32c-4.417968 0-8 3.582032-8 8v32c0 4.417969 3.582032 8 8 8h32c4.417969 0 8-3.582031 8-8v-32c0-4.417968-3.582031-8-8-8zm-8 32h-16v-16h16zm0 0"/><path d="m216.003906 352.003906h-32c-4.417968 0-8 3.582032-8 8v32c0 4.417969 3.582032 8 8 8h32c4.417969 0 8-3.582031 8-8v-32c0-4.417968-3.582031-8-8-8zm-8 32h-16v-16h16zm0 0"/><path d="m280.003906 352.003906h-32c-4.417968 0-8 3.582032-8 8v32c0 4.417969 3.582032 8 8 8h32c4.417969 0 8-3.582031 8-8v-32c0-4.417968-3.582031-8-8-8zm-8 32h-16v-16h16zm0 0"/></g></svg>