<svg height="480pt" viewBox="-16 0 480 480" width="480pt" xmlns="http://www.w3.org/2000/svg"><g fill="#57a4ff"><path d="m344 248h-336v48h432v-48zm0 0"/><path d="m280 64c0 30.929688-25.070312 56-56 56s-56-25.070312-56-56 25.070312-56 56-56 56 25.070312 56 56zm0 0"/><path d="m248 152h-48c-53.019531 0-96 42.980469-96 96h240c0-53.019531-42.980469-96-96-96zm0 0"/><path d="m120 112-6.214844 4.800781c1.453125 1.980469 3.757813 3.164063 6.214844 3.199219 4.417969 0 8-3.582031 8-8s-3.582031-8-8-8-8 3.582031-8 8c.039062 1.753906.667969 3.445312 1.785156 4.800781zm0 0"/></g><path d="m440 240h-88.40625c-4.210938-54.121094-49.3125-95.914062-103.59375-96h-48c-54.28125.085938-99.382812 41.878906-103.59375 96h-32.40625v-47.0625c.046875-18.1875 8.875-35.234375 23.703125-45.761719l26.273437-20.375c6.519532 2.648438 14.007813.726563 18.445313-4.738281 4.4375-5.46875 4.78125-13.191406.84375-19.027344-3.933594-5.839844-11.222656-8.417968-17.953125-6.355468s-11.324219 8.28125-11.3125 15.320312c.023438.710938.09375 1.417969.214844 2.121094l-26.0625 20.222656c-18.90625 13.53125-30.132813 35.34375-30.152344 58.59375v47.0625h-40c-4.417969 0-8 3.582031-8 8v48c0 4.417969 3.582031 8 8 8h33.328125l30.808594 169.433594c.691406 3.800781 4 6.5625 7.863281 6.566406h288c3.863281-.003906 7.171875-2.765625 7.863281-6.566406l30.808594-169.433594h33.328125c4.417969 0 8-3.582031 8-8v-48c0-4.417969-3.582031-8-8-8zm-240-80h48c45.480469.054688 83.449219 34.710938 87.640625 80h-223.28125c4.191406-45.289062 42.160156-79.945312 87.640625-80zm161.320312 304h-274.640624l-29.078126-160h332.796876zm70.679688-176h-416v-32h416zm0 0" fill="#1e81ce"/><path d="m224 128c35.347656 0 64-28.652344 64-64s-28.652344-64-64-64-64 28.652344-64 64c.039062 35.328125 28.671875 63.960938 64 64zm0-112c26.507812 0 48 21.492188 48 48s-21.492188 48-48 48-48-21.492188-48-48c.027344-26.5 21.5-47.972656 48-48zm0 0" fill="#1e81ce"/></svg>