<svg height="480pt" viewBox="0 0 480 480" width="480pt" xmlns="http://www.w3.org/2000/svg"><g fill="#57a4ff"><path d="m8 8h48v464h-48zm0 0"/><path d="m424 48h48v96h-48zm0 0"/><path d="m424 144h48v96h-48zm0 0"/><path d="m424 240h48v96h-48zm0 0"/><path d="m424 336h48v96h-48zm0 0"/></g><path d="m472 40h-40v-32c0-4.417969-3.582031-8-8-8h-416c-4.417969 0-8 3.582031-8 8v464c0 4.417969 3.582031 8 8 8h416c4.417969 0 8-3.582031 8-8v-32h40c4.417969 0 8-3.582031 8-8v-384c0-4.417969-3.582031-8-8-8zm-8 192h-32v-80h32zm-32 16h32v80h-32zm32-192v80h-32v-80zm-448-40h32v448h-32zm400 448h-352v-448h352zm48-40h-32v-80h32zm0 0" fill="#1e81ce"/><path d="m256 136h-16c-57.410156.066406-103.933594 46.589844-104 104v8c.066406 57.410156 46.589844 103.933594 104 104h16c20.726562.035156 40.984375-6.15625 58.152344-17.769531l-8.953125-13.253907c-14.523438 9.824219-31.664063 15.058594-49.199219 15.023438h-16c-48.578125-.058594-87.941406-39.421875-88-88v-8c.058594-48.578125 39.421875-87.941406 88-88h16c48.578125.058594 87.941406 39.421875 88 88v16c0 13.253906-10.746094 24-24 24s-24-10.746094-24-24v-72h-16v16.878906c-16.335938-16.75-41.367188-21.578125-62.761719-12.105468-21.394531 9.472656-34.644531 31.246093-33.226562 54.601562 1.421875 23.355469 17.210937 43.367188 39.59375 50.179688 22.386719 6.8125 46.648437-1.011719 60.835937-19.617188 8.273438 16.570312 26.867188 25.265625 44.890625 20.984375 18.019531-4.277344 30.726563-20.398437 30.667969-38.921875v-16c-.066406-57.410156-46.589844-103.933594-104-104zm-16 144c-22.089844 0-40-17.910156-40-40s17.910156-40 40-40 40 17.910156 40 40c-.027344 22.082031-17.917969 39.972656-40 40zm0 0" fill="#1e81ce"/></svg>