<svg height="480pt" viewBox="-8 0 480 480.12809" width="480pt" xmlns="http://www.w3.org/2000/svg"><g fill="#57a4ff"><path d="m400.070312 136.128906h-.320312c.238281 2.640625.320312 5.277344.320312 8zm0 0"/><path d="m400.070312 332.734375v-188.605469c0-2.722656-.082031-5.359375-.320312-8-2.71875-32.25-21.492188-60.960937-49.941406-76.386718-28.449219-15.425782-62.75-15.488282-91.261719-.175782-29.636719-42.453125-83.085937-61.230468-132.765625-46.636718-52.574219 14.910156-88.023438 63.976562-85.664062 118.574218.046874 1.550782-.046876 202.097656-.046876 202.097656-.003906 12.207032-2.328124 24.300782-6.859374 35.636719l-25.140626 62.890625 9.40625 3.550782c34.964844 13.234374 73.460938 13.800781 108.800782 1.601562l14.832031-5.152344c-38.871094-33.320312-61.183594-82.003906-61.039063-133.199218v-40.160157c-.011718-25.824219 15.515626-49.117187 39.359376-59.042969l15.199218-2c27.347656-3.496093 53.664063-12.648437 77.28125-26.878906 13.253906-7.945312 25.546875-17.394531 36.636719-28.160156l23.121094-22.558594 8.320312 4.160156 23.761719 11.839844 2.238281 1.121094c31.601563 15.703125 53.910157 45.429688 60.160157 80.15625 1.285156 6.617188 1.925781 13.34375 1.921874 20.082031v61.441407c-.023437 29.820312-7.644531 59.144531-22.152343 85.199218h30.152343c11.894532.003906 23.363282-4.433594 32.160157-12.441406l-1.464844-3.726562c-4.425781-11.21875-6.695313-23.167969-6.695313-35.226563zm0 0"/><path d="m345.917969 384.128906c-9.910157 18.25-23.089844 34.519532-38.890625 48l3.847656 1.511719c36.816406 14.476563 77.6875 14.800781 114.730469.910156l6.464843-2.421875-23.839843-60.441406c-8.796875 8.007812-20.265625 12.445312-32.160157 12.441406zm0 0"/><path d="m168.070312 248.128906c0 4.417969-3.582031 8-8 8-4.417968 0-8-3.582031-8-8 0-4.417968 3.582032-8 8-8 4.417969 0 8 3.582032 8 8zm0 0"/><path d="m296.070312 248.128906c0 4.417969-3.582031 8-8 8-4.417968 0-8-3.582031-8-8 0-4.417968 3.582032-8 8-8 4.417969 0 8 3.582032 8 8zm0 0"/><path d="m240.070312 368.128906h-32c-8.839843 0-16 7.164063-16 16 0 8.835938 7.160157 16 16 16h32c8.835938 0 16-7.164062 16-16 0-8.835937-7.164062-16-16-16zm0 0"/></g><path d="m176.070312 248.128906c0 8.835938-7.164062 16-16 16-8.839843 0-16-7.164062-16-16 0-8.835937 7.160157-16 16-16 8.835938 0 16 7.164063 16 16zm0 0" fill="#1e81ce"/><path d="m304.070312 248.128906c0 8.835938-7.164062 16-16 16-8.839843 0-16-7.164062-16-16 0-8.835937 7.160157-16 16-16 8.835938 0 16 7.164063 16 16zm0 0" fill="#1e81ce"/><path d="m440.070312 192.128906h-32v-56c-.011718-1.03125-.230468-2.050781-.648437-2.992187-5.855469-52.738281-50.292969-92.726563-103.351563-93.007813-14.863281-.035156-29.554687 3.136719-43.074218 9.304688-32.386719-41.511719-86.828125-59.054688-137.359375-44.257813-56.066407 16.007813-93.890625 68.316407-91.519531 126.578125.03125.902344-.046876 201.847656-.046876 201.847656.003907 11.191407-2.128906 22.28125-6.289062 32.671876l-25.144531 62.886718c-.796875 1.996094-.761719 4.226563.105469 6.195313.863281 1.964843 2.484374 3.5 4.496093 4.261719l9.40625 3.550781c36.714844 13.839843 77.109375 14.425781 114.207031 1.65625l10.65625-3.679688c22.285157 18.296875 48.546876 31.121094 76.679688 37.441407l6.152344 1.359374c1.140625.242188 2.316406.242188 3.457031 0l6.183594-1.371093c28.058593-6.300781 54.257812-19.078125 76.496093-37.308594 38.511719 15.039063 81.226563 15.324219 119.9375.796875l6.460938-2.398438c2.003906-.753906 3.625-2.277343 4.496094-4.230468s.925781-4.175782.144531-6.167969l-21.933594-55.617187c9.332031-10.265626 14.5-23.644532 14.488281-37.519532v-16h8c13.253907 0 24-10.746094 24-24v-80c0-13.253906-10.746093-24-24-24zm-316.441406 237.597656c-33.5625 11.5625-70.113281 11.03125-103.328125-1.496093l-1.777343-.671875 22.113281-55.351563c4.917969-12.277343 7.441406-25.382812 7.433593-38.605469 0 0 .085938-200.953124.046876-202.335937-2.136719-50.890625 30.84375-96.625 79.800781-110.671875 46.414062-13.65625 96.363281 3.871094 124.070312 43.535156 2.320313 3.320313 6.757813 4.378906 10.328125 2.472656 12.828125-6.914062 27.179688-10.511718 41.753906-10.472656 45.695313.222656 83.703126 35.207032 87.710938 80.726563.214844 2.402343.289062 4.800781.289062 7.273437v188.613282c.011719 12.40625 2.253907 24.703124 6.621094 36.3125-6.644531 4.609374-14.535156 7.078124-22.621094 7.074218h-17.082031c11.222657-24.191406 17.050781-50.535156 17.082031-77.199218v-61.441407c.003907-7.214843-.679687-14.414062-2.050781-21.496093-6.75-37.1875-30.632812-69.019532-64.453125-85.894532l-34.296875-17.128906c-3.046875-1.523438-6.722656-.945312-9.160156 1.429688l-23.144531 22.53125c-10.65625 10.332031-22.46875 19.40625-35.199219 27.039062-22.664063 13.6875-47.941406 22.476562-74.207031 25.800781l-15.203125 2c-.695313.09375-1.375.28125-2.023438.550781-26.855469 11.136719-44.335937 37.375-44.261719 66.449219v40.160157c-.015624 44.660156 16.222657 87.796874 45.679688 121.367187 2.597656 2.949219 5.300781 5.824219 8.117188 8.632813zm104.871094 33.265626-4.429688.945312-4.402343-.976562c-76.894531-17.066407-131.609375-85.265626-131.597657-164.03125v-40.160157c-.046874-22.234375 13.113282-42.367187 33.496094-51.25l14.078125-1.855469c28.464844-3.597656 55.859375-13.113281 80.425781-27.9375 13.78125-8.265624 26.566407-18.09375 38.101563-29.285156l19.058594-18.59375 29.238281 14.570313c29.332031 14.640625 50.03125 42.265625 55.855469 74.527343 1.179687 6.109376 1.761719 12.320313 1.746093 18.542969v61.441407c-.042968 26.875-6.53125 53.351562-18.929687 77.199218h-78.542969c-3.378906-9.554687-12.394531-15.957031-22.527344-16h-32c-13.257812 0-24 10.746094-24 24s10.742188 24 24 24h32c10.132813-.042968 19.148438-6.445312 22.527344-16h69.070313c-4.035157 6.152344-8.46875 12.03125-13.277344 17.597656-5.15625 5.835938-10.707031 11.304688-16.609375 16.378907-21.011719 18.140625-46.1875 30.804687-73.28125 36.855469zm19.570312-78.863282c0 4.417969-3.582031 8-8 8h-32c-4.417968 0-8-3.582031-8-8 0-4.417968 3.582032-8 8-8h32c4.417969 0 8 3.582032 8 8zm73.957032 45.03125c2.898437-2.871094 5.699218-5.839844 8.378906-8.871094 7.628906-8.726562 14.410156-18.15625 20.261719-28.160156h25.402343c10.039063-.007812 19.894532-2.730468 28.511719-7.890625l17.085938 43.25c-32.074219 11.769531-67.1875 12.359375-99.640625 1.671875zm94.042968-93.03125c-.050781 6.660156-1.78125 13.203125-5.035156 19.015625-1.953125-7.308593-2.949218-14.835937-2.964844-22.402343v-12.613282h8zm32-40c0 4.417969-3.582031 8-8 8h-32v-96h32c4.417969 0 8 3.582032 8 8zm0 0" fill="#1e81ce"/></svg>