<svg height="479pt" viewBox="-47 0 479 479.99235" width="479pt" xmlns="http://www.w3.org/2000/svg"><path d="m356.609375 392.046875c-12.148437-4.859375-20.113281-16.625-20.113281-29.710937v-162.335938c.074218-67.210938-46.445313-125.492188-112-140.320312-21.050782-4.90625-42.949219-4.90625-64 0-65.53125 14.863281-112.035156 73.125-112 140.320312v162.335938c0 13.085937-7.964844 24.851562-20.113282 29.710937l-19.886718 7.953125v32h368v-32zm0 0" fill="#57a4ff"/><path d="m379.464844 392.566406-19.878906-7.949218c-9.136719-3.617188-15.125-12.457032-15.089844-22.28125v-162.335938c.109375-68.546875-45.824219-128.625-112-146.496094v-13.503906c0-22.089844-17.910156-40-40-40s-40 17.910156-40 40v13.601562c-66.28125 17.648438-112.304688 77.804688-112 146.398438v162.335938c.035156 9.824218-5.953125 18.664062-15.089844 22.28125l-19.878906 7.949218c-3.039063 1.214844-5.03125 4.160156-5.03125 7.433594v32c0 4.417969 3.582031 8 8 8h136.71875c3.882812 23.085938 23.871094 39.992188 47.28125 39.992188s43.398437-16.90625 47.28125-39.992188h136.71875c4.417968 0 8-3.582031 8-8v-32c0-3.273438-1.992188-6.21875-5.03125-7.433594zm-210.96875-352.566406c0-13.253906 10.746094-24 24-24s24 10.746094 24 24v9.910156c-.761719-.117187-1.601563-.167968-2.328125-.277344-2.398438-.34375-4.800781-.640624-7.199219-.871093-1.402344-.136719-2.792969-.265625-4.207031-.355469-2.691407-.183594-5.386719-.277344-8.089844-.316406-.726563-.011719-1.441406-.089844-2.175781-.089844s-1.359375.070312-2.046875.078125c-2.785157.042969-5.601563.144531-8.320313.328125-1.335937.089844-2.664062.21875-4 .335938-2.550781.242187-5.074218.554687-7.578125.921874-.679687.105469-1.390625.136719-2.070312.246094zm24 424c-14.585938-.015625-27.320313-9.882812-30.984375-24h61.96875c-3.664063 14.117188-16.398438 23.984375-30.984375 24zm176-40h-352v-18.585938l14.847656-5.933593c15.226562-6.03125 25.203125-20.769531 25.152344-37.144531v-162.335938c.066406-38.71875 16.609375-75.578125 45.492187-101.363281 28.882813-25.785157 67.375-38.0625 105.851563-33.757813 5.019531.566406 10 1.4375 14.914062 2.609375 61.894532 14.011719 105.816406 69.050781 105.742188 132.511719v162.335938c-.050782 16.375 9.925781 31.113281 25.152344 37.144531l14.847656 5.933593zm0 0" fill="#1e81ce"/></svg>