<svg height="479pt" viewBox="0 0 479.98901 479" width="479pt" xmlns="http://www.w3.org/2000/svg"><path d="m7.996094 240.496094c-.082032 61.542968 24.375 120.582031 67.949218 164.046875l164.050782-164.046875zm0 0" fill="#57a4ff"/><path d="m239.996094 8.496094v232l-164.050782 164.046875c74.25 74.25 189.113282 89.371093 280.050782 36.871093 90.9375-52.503906 135.273437-159.539062 108.09375-260.964843-27.175782-101.429688-119.089844-171.957031-224.09375-171.953125zm0 0" fill="#57a4ff"/><path d="m239.996094.496094c-96.917969-.050782-184.34375 58.222656-221.582032 147.699218-37.238281 89.476563-16.976562 192.574219 51.355469 261.300782.195313.230468.273438.519531.488281.734375.21875.214843.503907.296875.738282.488281 76.996094 76.441406 195.710937 91.699219 289.539062 37.21875 93.824219-54.484375 139.417969-165.148438 111.195313-269.914062-28.222657-104.761719-123.238281-177.550782-231.734375-177.527344zm-163.839844 392.527344c-36.773438-39.363282-58.070312-90.695313-59.960938-144.527344h204.488282zm155.839844-376.328126v215.800782h-215.800782c4.328126-117.34375 98.457032-211.472656 215.800782-215.800782zm8 447.800782c-56.636719.03125-111.164063-21.476563-152.527344-60.160156l158.175781-158.175782c.742188-.738281 1.328125-1.617187 1.726563-2.585937.414062-.972657.625-2.023438.625-3.078125v-223.800782c121.515625 5.082032 216.769531 106.203126 214.597656 227.804688s-100.980469 219.253906-222.597656 219.996094zm0 0" fill="#1e81ce"/></svg>