<svg height="480pt" viewBox="0 0 480 480.14562" width="480pt" xmlns="http://www.w3.org/2000/svg"><g fill="#57a4ff"><path d="m88.074219 432c0 22.089844-17.910157 40-40 40-22.09375 0-40-17.910156-40-40s17.90625-40 40-40c22.089843 0 40 17.910156 40 40zm0 0"/><path d="m184.074219 432c0 22.089844-17.910157 40-40 40-22.09375 0-40-17.910156-40-40s17.90625-40 40-40c22.089843 0 40 17.910156 40 40zm0 0"/><path d="m280.074219 432c0 22.089844-17.910157 40-40 40-22.09375 0-40-17.910156-40-40s17.90625-40 40-40c22.089843 0 40 17.910156 40 40zm0 0"/><path d="m376.074219 432c0 22.089844-17.910157 40-40 40-22.09375 0-40-17.910156-40-40s17.90625-40 40-40c22.089843 0 40 17.910156 40 40zm0 0"/><path d="m472.074219 432c0 22.089844-17.910157 40-40 40-22.09375 0-40-17.910156-40-40s17.90625-40 40-40c22.089843 0 40 17.910156 40 40zm0 0"/><path d="m96.074219 200c0-22.089844-17.910157-40-40-40-8.660157-.035156-17.09375 2.777344-24 8-10.074219 7.554688-16 19.410156-16 32s5.925781 24.445312 16 32c6.90625 5.222656 15.339843 8.035156 24 8 22.089843 0 40-17.910156 40-40zm0 0"/><path d="m184.074219 304v-48h-144c-2.703125-.023438-5.394531.324219-8 1.039062-14.132813 3.625-24.011719 16.371094-24 30.960938v144c0-22.089844 17.90625-40 40-40 22.089843 0 40 17.910156 40 40h16v-128zm0 0"/><path d="m200.074219 304c8.835937 0 16-7.164062 16-16v-16c0-8.835938-7.164063-16-16-16h-16v48zm0 0"/><path d="m8.074219 8v32h464v-32zm0 0"/></g><path d="m240.074219 480c26.507812 0 48-21.492188 48-48s-21.492188-48-48-48c-26.511719 0-48 21.492188-48 48 .023437 26.5 21.5 47.972656 48 48zm0-80c17.671875 0 32 14.328125 32 32s-14.328125 32-32 32c-17.675781 0-32-14.328125-32-32s14.324219-32 32-32zm0 0" fill="#1e81ce"/><path d="m336.074219 480c26.507812 0 48-21.492188 48-48s-21.492188-48-48-48c-26.511719 0-48 21.492188-48 48 .023437 26.5 21.5 47.972656 48 48zm0-80c17.671875 0 32 14.328125 32 32s-14.328125 32-32 32c-17.675781 0-32-14.328125-32-32s14.324219-32 32-32zm0 0" fill="#1e81ce"/><path d="m432.074219 480c26.507812 0 48-21.492188 48-48s-21.492188-48-48-48c-26.511719 0-48 21.492188-48 48 .023437 26.5 21.5 47.972656 48 48zm0-80c17.671875 0 32 14.328125 32 32s-14.328125 32-32 32c-17.675781 0-32-14.328125-32-32s14.324219-32 32-32zm0 0" fill="#1e81ce"/><path d="m448.074219 352c4.417969 0 8-3.582031 8-8v-296h16c4.417969 0 8-3.582031 8-8v-32c0-4.417969-3.582031-8-8-8h-464c-4.417969 0-8.0000002 3.582031-8.0000002 8v32c0 4.417969 3.5820312 8 8.0000002 8h16v116.3125c-10.179688 9.070312-16 22.054688-16 35.6875s5.820312 26.617188 16 35.6875v15.6875c-14.589844 6.332031-24.0195315 20.722656-24.0000002 36.625v144c.1406252 24.84375 19.2226562 45.476562 43.9804692 47.554688 24.761718 2.078124 47.011718-15.082032 51.296874-39.554688h1.441407c3.617187 21.648438 21.441406 38.097656 43.3125 39.96875 21.867187 1.875 42.230469-11.304688 49.476562-32.023438 7.25-20.71875-.457031-43.714843-18.726562-55.882812s-42.457031-10.414062-58.78125 4.257812v-44.320312zm-432-336h448v16h-448zm424 32v288h-328v-24h88c13.253906 0 24-10.746094 24-24v-16c0-13.253906-10.746094-24-24-24h-160v-2.703125c.117187.039063.246093.054687.367187.09375 1.667969.535156 3.367188.972656 5.085938 1.3125.859375.191406 1.679687.488281 2.554687.632813 2.640625.441406 5.3125.660156 7.992188.664062 26.507812 0 48-21.492188 48-48s-21.492188-48-48-48c-2.683594.003906-5.355469.222656-8 .664062-.847657.144532-1.648438.425782-2.480469.609376-1.75.347656-3.476562.796874-5.175781 1.335937-.113281 0-.242188.054687-.351563.09375v-106.703125zm-240 216c4.417969 0 8 3.582031 8 8v16c0 4.417969-3.582031 8-8 8h-8v-32zm-163.203125-89.601562c5.523437-4.1875 12.273437-6.4375 19.203125-6.398438 17.671875 0 32 14.328125 32 32s-14.328125 32-32 32c-6.933594.039062-13.679688-2.210938-19.203125-6.398438-8.070313-6.042968-12.824219-15.539062-12.824219-25.621093 0-10.085938 4.753906-19.578125 12.824219-25.621094zm-20.796875 113.601562c-.007813-11.003906 7.488281-20.597656 18.167969-23.257812 1.898437-.515626 3.863281-.769532 5.832031-.742188h136v32h-72c-4.417969 0-8 3.582031-8 8v120h-.664063c0-.175781-.105468-.328125-.136718-.503906-.4375-2.433594-1.066407-4.828125-1.878907-7.160156-.136719-.398438-.28125-.800782-.433593-1.175782-.851563-2.300781-1.878907-4.527344-3.082032-6.664062-.15625-.289063-.34375-.550782-.503906-.800782-1.28125-2.195312-2.738281-4.289062-4.351562-6.253906l-.085938-.105468c-1.632812-1.945313-3.421875-3.757813-5.34375-5.414063-.199219-.179687-.386719-.371094-.59375-.546875-1.875-1.570312-3.867188-2.996094-5.960938-4.261719l-1.039062-.632812c-2.097656-1.207031-4.28125-2.253907-6.535156-3.136719l-1.183594-.441406c-2.34375-.847656-4.753906-1.511719-7.199219-1.992188-.320312-.0625-.640625-.09375-.960937-.148437-5.46875-.992188-11.070313-.972657-16.527344.0625-.25.046875-.496094.070312-.738281.113281-2.582031.519531-5.117188 1.25-7.582031 2.183594l-1 .367187c-2.347657.945313-4.613282 2.078125-6.777344 3.382813l-1.023438.625c-2.105468 1.332031-4.101562 2.824218-5.976562 4.464844-.136719.117187-.296875.207031-.429688.328124zm32 176c-17.675781 0-32-14.328125-32-32s14.324219-32 32-32c17.671875 0 32 14.328125 32 32s-14.328125 32-32 32zm96-64c17.671875 0 32 14.328125 32 32s-14.328125 32-32 32c-17.675781 0-32-14.328125-32-32s14.324219-32 32-32zm0 0" fill="#1e81ce"/></svg>