<svg height="480pt" viewBox="0 0 480 480" width="480pt" xmlns="http://www.w3.org/2000/svg"><g fill="#57a4ff"><path d="m88 350.464844c0-.96875-.273438-1.878906-.398438-2.824219.183594 1.171875.304688 2.351563.359376 3.535156-.050782-.238281.039062-.464843.039062-.710937zm0 0"/><path d="m392.078125 351.199219c.058594-1.183594.175781-2.363281.363281-3.535157-.128906.945313-.363281 1.855469-.402344 2.824219-.039062.222657.050782.449219.039063.710938zm0 0"/><path d="m208 248h64v224h-64zm0 0"/><path d="m424 384c-15.558594-.011719-28.84375-11.238281-31.457031-26.574219-.085938-.488281-.078125-1.011719-.152344-1.503906-.210937-1.300781-.339844-2.609375-.390625-3.921875 0-.28125.078125-.542969.078125-.800781 0-.253907-.054687-.464844 0-.710938 0-.96875.273437-1.878906.402344-2.824219.128906-.945312.183593-1.742187.375-2.59375.296875-1.195312.660156-2.375 1.097656-3.527343.261719-.75.460937-1.535157.800781-2.261719.5625-1.21875 1.203125-2.398438 1.910156-3.539062.34375-.566407.609376-1.183594.984376-1.734376 1.113281-1.652343 2.378906-3.199218 3.777343-4.625 5.996094-5.972656 14.109375-9.34375 22.574219-9.382812h16v-136h-7.199219c-42.050781.027344-83.242187 11.886719-118.863281 34.222656-4.371094 2.746094-8.699219 5.601563-12.890625 8.617188l-29.046875 21.160156v224l23.527344-12.800781c42.300781-23.089844 89.71875-35.191407 137.914062-35.199219h6.558594v-40zm0 0"/><path d="m178.910156 226.839844c-4.191406-3.046875-8.519531-5.871094-12.886718-8.617188-35.613282-22.328125-76.789063-34.191406-118.824219-34.222656h-7.199219v136h16c8.484375.015625 16.621094 3.378906 22.640625 9.359375 1.394531 1.421875 2.660156 2.972656 3.773437 4.625.378907.550781.640626 1.167969.984376 1.734375.710937 1.140625 1.347656 2.320312 1.914062 3.539062.3125.726563.511719 1.511719.800781 2.261719.433594 1.152344.800781 2.332031 1.09375 3.527344.191407.847656.257813 1.730469.378907 2.59375.117187.863281.359374 1.855469.398437 2.824219 0 .246094-.046875.472656 0 .710937s.078125.542969.078125.800781c-.046875 1.3125-.179688 2.621094-.390625 3.917969-.0625.496094-.070313 1.007813-.152344 1.503907-2.605469 15.375-15.929687 26.617187-31.519531 26.601562h-16v40h6.558594c48.195312.007812 95.613281 12.109375 137.914062 35.199219l23.527344 12.800781v-224zm0 0"/><path d="m392.390625 355.921875c-.222656-1.574219-.328125-3.160156-.3125-4.746094 0 .28125-.078125.542969-.078125.800781.046875 1.320313.179688 2.636719.390625 3.945313zm0 0"/><path d="m424 384h1.800781c-15.960937.074219-29.808593-10.992188-33.257812-26.574219 2.613281 15.335938 15.898437 26.5625 31.457031 26.574219zm0 0"/><path d="m54.199219 384h1.800781c15.558594-.011719 28.84375-11.238281 31.457031-26.574219-3.449219 15.582031-17.296875 26.648438-33.257812 26.574219zm0 0"/><path d="m88 352c0-.28125-.078125-.542969-.078125-.800781.015625 1.585937-.089844 3.171875-.3125 4.746093.210937-1.304687.34375-2.625.390625-3.945312zm0 0"/></g><path d="m240 176c48.601562 0 88-39.398438 88-88s-39.398438-88-88-88-88 39.398438-88 88c.058594 48.578125 39.421875 87.941406 88 88zm0-160c39.765625 0 72 32.234375 72 72s-32.234375 72-72 72-72-32.234375-72-72c.042969-39.746094 32.253906-71.957031 72-72zm0 0" fill="#1e81ce"/><path d="m472 312h-24v-128c0-4.417969-3.582031-8-8-8h-7.199219c-41.941406-.058594-83.105469 11.339844-119.039062 32.96875-20.132813-11.128906-42.757813-16.96875-65.761719-16.96875h-16c-23.003906 0-45.628906 5.839844-65.761719 16.96875-35.933593-21.628906-77.097656-33.027344-119.039062-32.96875h-7.199219c-4.417969 0-8 3.582031-8 8v128h-24c-4.417969 0-8 3.582031-8 8v64c0 4.417969 3.582031 8 8 8h24v32c0 4.417969 3.582031 8 8 8h6.558594c46.847656.035156 92.9375 11.789062 134.082031 34.183594l23.527344 12.800781c.152343.078125.320312.113281.480469.183594.191406.089843.390624.167969.589843.230469.878907.367187 1.8125.570312 2.761719.601562h64c.945312-.019531 1.882812-.210938 2.761719-.558594.199219-.066406.398437-.144531.589843-.234375.160157-.070312.328126-.101562.480469-.183593l23.527344-12.800782c41.140625-22.410156 87.234375-34.171875 134.082031-34.222656h6.558594c4.417969 0 8-3.582031 8-8v-32h24c4.417969 0 8-3.582031 8-8v-64c0-4.417969-3.582031-8-8-8zm-240-104h16c17.382812.007812 34.554688 3.785156 50.335938 11.0625-.640626.457031-1.3125.847656-1.953126 1.3125l-26.984374 19.625h-58.796876l-26.984374-19.625c-.640626-.464844-1.3125-.855469-1.953126-1.3125 15.78125-7.277344 32.953126-11.054688 50.335938-11.0625zm-216 120h40c6.347656.003906 12.433594 2.507812 16.945312 6.976562 1.082032 1.105469 2.058594 2.304688 2.917969 3.589844.335938.496094.578125 1.050782.871094 1.601563.472656.777343.902344 1.578125 1.289063 2.398437.273437.625.441406 1.28125.648437 1.921875.292969.785157.539063 1.585938.734375 2.398438.144531.648437.195312 1.320312.28125 1.984375.128906.839844.214844 1.683594.257812 2.527344 0 .929687-.050781 1.855468-.160156 2.777343-.050781.519531-.082031 1.039063-.160156 1.542969-.84375 4.523438-2.996094 8.695312-6.191406 12-5.019532 5.265625-11.96875 8.253906-19.242188 8.28125h-38.191406zm32 88v-24h8c19.492188-.058594 36.105469-14.160156 39.328125-33.382812.199219-1.097657.238281-2.21875.335937-3.335938.097657-1.121094.335938-2.152344.335938-3.28125 0-.328125-.089844-.640625-.097656-.976562-.007813-.335938.097656-.625.097656-.933594-.054688-1.128906-.328125-2.21875-.472656-3.320313-.144532-1.105469-.230469-2.203125-.464844-3.273437-.332031-1.355469-.738281-2.6875-1.214844-4-.351562-1.070313-.632812-2.167969-1.078125-3.199219-.632812-1.375-1.34375-2.710937-2.128906-4-.503906-.882813-.90625-1.808594-1.472656-2.65625-1.433594-2.140625-3.066407-4.140625-4.871094-5.976563-7.515625-7.480468-17.691406-11.675781-28.296875-11.664062h-8v-120c40.023438.082031 79.226562 11.371094 113.167969 32.585938l.359375.238281c4.296875 2.6875 8.542968 5.480469 12.671875 8.488281l25.800781 18.757812v206.449219l-11.695312-6.398437c-43.070313-23.441406-91.273438-35.851563-140.304688-36.121094zm168-160h48v208h-48zm216 160c-49.035156.277344-97.238281 12.695312-140.304688 36.144531l-11.695312 6.398438v-206.472657l25.800781-18.757812c3.910157-2.847656 7.941407-5.480469 12-8.046875.128907-.066406.230469-.160156.351563-.234375 34.089844-21.492188 73.546875-32.9375 113.847656-33.03125v120h-8c-10.589844 0-20.75 4.191406-28.257812 11.664062l-.0625.0625c-.128907.128907-.214844.289063-.34375.417969-1.648438 1.699219-3.144532 3.542969-4.472657 5.503907-.589843.878906-1.007812 1.839843-1.527343 2.757812-.753907 1.25-1.441407 2.539062-2.054688 3.867188-.449219 1.046874-.738281 2.160156-1.097656 3.246093-.464844 1.300781-.863282 2.621094-1.191406 3.960938-.230469 1.070312-.320313 2.175781-.464844 3.273437-.144532 1.09375-.414063 2.191406-.472656 3.316406 0 .3125.066406.625.058593.9375-.007812.3125-.113281.664063-.113281.992188 0 1.128906.238281 2.183594.335938 3.28125.097656 1.09375.136718 2.238281.335937 3.335938 3.222656 19.222656 19.835937 33.324218 39.328125 33.382812h8zm32-40h-38.191406c-7.273438-.027344-14.222656-3.015625-19.242188-8.28125-3.195312-3.304688-5.347656-7.476562-6.191406-12-.078125-.503906-.109375-1.023438-.160156-1.542969-.109375-.921875-.160156-1.847656-.160156-2.777343.042968-.851563.128906-1.699219.257812-2.542969.085938-.65625.136719-1.320313.273438-1.960938.175781-.796875.453124-1.550781.703124-2.320312.246094-.765625.398438-1.375.6875-2.03125.289063-.65625.6875-1.3125 1.039063-1.96875.351563-.652344.6875-1.375 1.121094-2.023438.652343-.917969 1.363281-1.792969 2.128906-2.621093.261719-.289063.460937-.617188.734375-.890626.707031-.648437 1.453125-1.257812 2.230469-1.824218.496093-.382813.953125-.847656 1.472656-1.191406.839844-.515626 1.710937-.980469 2.609375-1.390626.519531-.257812 1-.59375 1.535156-.800781 1.007813-.378906 2.035156-.691406 3.082032-.9375.460937-.117187.902343-.320312 1.382812-.414062 1.542969-.3125 3.113281-.476563 4.6875-.480469h40zm0 0" fill="#1e81ce"/></svg>